%
M48
M72
T01C0.01575
T02C0.02000
T03C0.03346
T04C0.03543
T05C0.03937
T06C0.04000
T07C0.13000
%
T01
X23991Y63719
X46083Y65353
X60427Y76267
X54715Y93968
X58000Y95241
X32340Y125609
X21920Y107244
X12544Y92763
X15899Y91768
X40087Y172176
X26866Y208999
X101866Y208499
X115087Y171676
X107340Y125109
X96920Y106744
X90899Y91268
X87544Y92263
X98991Y63219
X121083Y64853
X135427Y75767
X129715Y93468
X133000Y94741
T02
X159340Y105164
X173930Y105204
X188600Y105104
X175880Y130324
X179390Y141784
X158950Y145774
X159610Y159784
T03
X166520Y113936
X181480Y113936
T04
X189000Y129994
X189000Y139994
T05
X141500Y143305
X141500Y133305
X141500Y123305
X141500Y113305
X141500Y103305
X141500Y153305
X141500Y163305
X141500Y173305
X141500Y183305
X141500Y193305
X141500Y203305
X141500Y213305
X141500Y223305
X141500Y233305
X141500Y243305
X81500Y243305
X81500Y233305
X81500Y223305
X81500Y213305
X81500Y203305
X81500Y193305
X81500Y183305
X81500Y173305
X81500Y163305
X81500Y153305
X81500Y143305
X81500Y133305
X81500Y123305
X81500Y113305
X81500Y103305
X66500Y103805
X66500Y113805
X66500Y123805
X66500Y133805
X66500Y143805
X66500Y153805
X66500Y163805
X66500Y173805
X66500Y183805
X66500Y193805
X66500Y203805
X66500Y213805
X66500Y223805
X66500Y233805
X66500Y243805
X6500Y243805
X6500Y233805
X6500Y223805
X6500Y213805
X6500Y203805
X6500Y193805
X6500Y183805
X6500Y173805
X6500Y163805
X6500Y153805
X6500Y143805
X6500Y133805
X6500Y123805
X6500Y113805
X6500Y103805
T06
X169000Y169994
X179000Y169994
T07
X174000Y154994
M30
