G75*
%MOIN*%
%OFA0B0*%
%FSLAX25Y25*%
%IPPOS*%
%LPD*%
%AMOC8*
5,1,8,0,0,1.08239X$1,22.5*
%
%ADD10C,0.00004*%
%ADD11C,0.00300*%
%ADD12C,0.01000*%
%ADD13C,0.00800*%
%ADD14C,0.01100*%
%ADD15C,0.00600*%
%ADD16C,0.00000*%
%ADD17C,0.00500*%
%ADD18C,0.00591*%
D10*
X0001500Y0052494D02*
X0001500Y0249344D01*
X0198350Y0249344D01*
X0198350Y0052494D01*
X0001500Y0052494D01*
D11*
X0004650Y0069778D02*
X0008353Y0069778D01*
X0007119Y0071012D01*
X0008353Y0072247D01*
X0004650Y0072247D01*
X0004650Y0073461D02*
X0004650Y0075930D01*
X0004650Y0074695D02*
X0008353Y0074695D01*
X0007119Y0073461D01*
X0008353Y0079778D02*
X0005884Y0079778D01*
X0004650Y0081012D01*
X0005884Y0082247D01*
X0008353Y0082247D01*
X0006502Y0083461D02*
X0006502Y0085930D01*
X0007736Y0084695D02*
X0005267Y0084695D01*
X0004650Y0089278D02*
X0008353Y0089278D01*
X0007119Y0090512D01*
X0008353Y0091747D01*
X0004650Y0091747D01*
X0004650Y0092961D02*
X0004650Y0095430D01*
X0004650Y0094195D02*
X0008353Y0094195D01*
X0007119Y0092961D01*
X0030118Y0154463D02*
X0029635Y0154946D01*
X0029635Y0155914D01*
X0030118Y0156398D01*
X0030118Y0157409D02*
X0029635Y0157893D01*
X0029635Y0159344D01*
X0032537Y0159344D01*
X0031570Y0159344D02*
X0031570Y0157893D01*
X0031086Y0157409D01*
X0030118Y0157409D01*
X0031570Y0158377D02*
X0032537Y0157409D01*
X0032053Y0156398D02*
X0032537Y0155914D01*
X0032537Y0154946D01*
X0032053Y0154463D01*
X0031570Y0154463D01*
X0031086Y0154946D01*
X0031086Y0155430D01*
X0031086Y0154946D02*
X0030602Y0154463D01*
X0030118Y0154463D01*
X0054209Y0165146D02*
X0055660Y0166598D01*
X0055660Y0164663D01*
X0057111Y0165146D02*
X0054209Y0165146D01*
X0054692Y0167609D02*
X0055660Y0167609D01*
X0056144Y0168093D01*
X0056144Y0169544D01*
X0057111Y0169544D02*
X0054209Y0169544D01*
X0054209Y0168093D01*
X0054692Y0167609D01*
X0056144Y0168577D02*
X0057111Y0167609D01*
X0055127Y0200663D02*
X0054644Y0200663D01*
X0054160Y0201146D01*
X0054160Y0202598D01*
X0055127Y0202598D01*
X0055611Y0202114D01*
X0055611Y0201146D01*
X0055127Y0200663D01*
X0053192Y0201630D02*
X0054160Y0202598D01*
X0054160Y0203609D02*
X0053192Y0203609D01*
X0052709Y0204093D01*
X0052709Y0205544D01*
X0055611Y0205544D01*
X0054644Y0205544D02*
X0054644Y0204093D01*
X0054160Y0203609D01*
X0054644Y0204577D02*
X0055611Y0203609D01*
X0053192Y0201630D02*
X0052709Y0200663D01*
X0035289Y0210946D02*
X0034805Y0210463D01*
X0033838Y0210463D01*
X0033354Y0210946D01*
X0033354Y0211430D01*
X0033838Y0212398D01*
X0032387Y0212398D01*
X0032387Y0210463D01*
X0035289Y0210946D02*
X0035289Y0211914D01*
X0034805Y0212398D01*
X0035289Y0213409D02*
X0034321Y0214377D01*
X0034321Y0213893D02*
X0034321Y0215344D01*
X0035289Y0215344D02*
X0032387Y0215344D01*
X0032387Y0213893D01*
X0032870Y0213409D01*
X0033838Y0213409D01*
X0034321Y0213893D01*
X0104635Y0158844D02*
X0104635Y0157393D01*
X0105118Y0156909D01*
X0106086Y0156909D01*
X0106570Y0157393D01*
X0106570Y0158844D01*
X0107537Y0158844D02*
X0104635Y0158844D01*
X0106570Y0157877D02*
X0107537Y0156909D01*
X0107537Y0155898D02*
X0107537Y0153963D01*
X0107537Y0154930D02*
X0104635Y0154930D01*
X0105602Y0155898D01*
X0105118Y0152951D02*
X0104635Y0152467D01*
X0104635Y0151500D01*
X0105118Y0151016D01*
X0107053Y0152951D01*
X0107537Y0152467D01*
X0107537Y0151500D01*
X0107053Y0151016D01*
X0105118Y0151016D01*
X0105118Y0152951D02*
X0107053Y0152951D01*
X0129209Y0164646D02*
X0129692Y0164163D01*
X0131627Y0164163D01*
X0132111Y0164646D01*
X0132111Y0165614D01*
X0131627Y0166098D01*
X0130660Y0165614D02*
X0130660Y0164163D01*
X0130660Y0165614D02*
X0130176Y0166098D01*
X0129692Y0166098D01*
X0129209Y0165614D01*
X0129209Y0164646D01*
X0129692Y0167109D02*
X0130660Y0167109D01*
X0131144Y0167593D01*
X0131144Y0169044D01*
X0132111Y0169044D02*
X0129209Y0169044D01*
X0129209Y0167593D01*
X0129692Y0167109D01*
X0131144Y0168077D02*
X0132111Y0167109D01*
X0130611Y0197216D02*
X0130611Y0199151D01*
X0130611Y0198184D02*
X0127709Y0198184D01*
X0128676Y0199151D01*
X0130611Y0200163D02*
X0130611Y0202098D01*
X0130611Y0201130D02*
X0127709Y0201130D01*
X0128676Y0202098D01*
X0128192Y0203109D02*
X0127709Y0203593D01*
X0127709Y0205044D01*
X0130611Y0205044D01*
X0129644Y0205044D02*
X0129644Y0203593D01*
X0129160Y0203109D01*
X0128192Y0203109D01*
X0129644Y0204077D02*
X0130611Y0203109D01*
X0110289Y0207016D02*
X0110289Y0208951D01*
X0108354Y0207016D01*
X0107870Y0207016D01*
X0107387Y0207500D01*
X0107387Y0208467D01*
X0107870Y0208951D01*
X0107387Y0210930D02*
X0110289Y0210930D01*
X0110289Y0209963D02*
X0110289Y0211898D01*
X0110289Y0212909D02*
X0109321Y0213877D01*
X0109321Y0213393D02*
X0109321Y0214844D01*
X0110289Y0214844D02*
X0107387Y0214844D01*
X0107387Y0213393D01*
X0107870Y0212909D01*
X0108838Y0212909D01*
X0109321Y0213393D01*
X0108354Y0211898D02*
X0107387Y0210930D01*
X0139650Y0095430D02*
X0139650Y0092961D01*
X0139650Y0091747D02*
X0143353Y0091747D01*
X0142119Y0090512D01*
X0143353Y0089278D01*
X0139650Y0089278D01*
X0141502Y0084930D02*
X0141502Y0082461D01*
X0140884Y0081247D02*
X0139650Y0080012D01*
X0140884Y0078778D01*
X0143353Y0078778D01*
X0143353Y0081247D02*
X0140884Y0081247D01*
X0140267Y0083695D02*
X0142736Y0083695D01*
X0139650Y0075430D02*
X0139650Y0072961D01*
X0139650Y0071747D02*
X0143353Y0071747D01*
X0142119Y0070512D01*
X0143353Y0069278D01*
X0139650Y0069278D01*
X0142119Y0072961D02*
X0143353Y0074195D01*
X0139650Y0074195D01*
X0142119Y0092961D02*
X0143353Y0094195D01*
X0139650Y0094195D01*
X0083353Y0093695D02*
X0079650Y0093695D01*
X0079650Y0092461D02*
X0079650Y0094930D01*
X0079650Y0091247D02*
X0083353Y0091247D01*
X0082119Y0090012D01*
X0083353Y0088778D01*
X0079650Y0088778D01*
X0081502Y0085430D02*
X0081502Y0082961D01*
X0080884Y0081747D02*
X0079650Y0080512D01*
X0080884Y0079278D01*
X0083353Y0079278D01*
X0083353Y0081747D02*
X0080884Y0081747D01*
X0080267Y0084195D02*
X0082736Y0084195D01*
X0079650Y0075430D02*
X0079650Y0072961D01*
X0079650Y0071747D02*
X0083353Y0071747D01*
X0082119Y0070512D01*
X0083353Y0069278D01*
X0079650Y0069278D01*
X0082119Y0072961D02*
X0083353Y0074195D01*
X0079650Y0074195D01*
X0068353Y0074695D02*
X0064650Y0074695D01*
X0064650Y0073461D02*
X0064650Y0075930D01*
X0067119Y0073461D02*
X0068353Y0074695D01*
X0068353Y0072247D02*
X0064650Y0072247D01*
X0064650Y0069778D02*
X0068353Y0069778D01*
X0067119Y0071012D01*
X0068353Y0072247D01*
X0068353Y0079278D02*
X0065884Y0079278D01*
X0064650Y0080512D01*
X0065884Y0081747D01*
X0068353Y0081747D01*
X0066502Y0082961D02*
X0066502Y0085430D01*
X0067736Y0084195D02*
X0065267Y0084195D01*
X0064650Y0089778D02*
X0068353Y0089778D01*
X0067119Y0091012D01*
X0068353Y0092247D01*
X0064650Y0092247D01*
X0064650Y0093461D02*
X0064650Y0095930D01*
X0064650Y0094695D02*
X0068353Y0094695D01*
X0067119Y0093461D01*
X0082119Y0092461D02*
X0083353Y0093695D01*
D12*
X0082500Y0064494D02*
X0082500Y0059494D01*
X0080500Y0060194D02*
X0080500Y0063694D01*
X0078700Y0062694D02*
X0078700Y0061094D01*
X0082600Y0061994D02*
X0084700Y0061994D01*
X0069300Y0061694D02*
X0069300Y0063294D01*
X0067500Y0064194D02*
X0067500Y0060694D01*
X0065500Y0059894D02*
X0065500Y0064894D01*
X0065400Y0062394D02*
X0063300Y0062394D01*
X0009700Y0062494D02*
X0007600Y0062494D01*
X0007500Y0059994D02*
X0007500Y0064994D01*
X0005500Y0064194D02*
X0005500Y0060694D01*
X0003700Y0061594D02*
X0003700Y0063194D01*
X0138300Y0061894D02*
X0140400Y0061894D01*
X0140500Y0064394D02*
X0140500Y0059394D01*
X0142500Y0060194D02*
X0142500Y0063694D01*
X0144300Y0062794D02*
X0144300Y0061194D01*
D13*
X0154000Y0099994D02*
X0194000Y0099994D01*
X0194000Y0214994D01*
X0154000Y0214994D01*
X0154000Y0099994D01*
X0166500Y0164994D02*
X0164000Y0167494D01*
X0164000Y0172494D01*
X0166500Y0174994D01*
X0171500Y0174994D01*
X0174000Y0172494D01*
X0176500Y0174994D01*
X0181500Y0174994D01*
X0184000Y0172494D01*
X0184000Y0167494D01*
X0181500Y0164994D01*
X0176500Y0164994D01*
X0174000Y0167494D01*
X0171500Y0164994D01*
X0166500Y0164994D01*
D14*
X0169003Y0176599D02*
X0169003Y0180535D01*
X0177034Y0178567D02*
X0180971Y0178567D01*
X0179003Y0176599D02*
X0179003Y0180535D01*
D15*
X0186666Y0181622D02*
X0186666Y0182189D01*
X0187233Y0182756D01*
X0190069Y0182756D01*
X0190069Y0181054D01*
X0189501Y0180487D01*
X0188367Y0180487D01*
X0187800Y0181054D01*
X0187800Y0182756D01*
X0188367Y0184170D02*
X0187800Y0184738D01*
X0187800Y0185872D01*
X0188934Y0186439D02*
X0188934Y0184170D01*
X0188367Y0184170D02*
X0189501Y0184170D01*
X0190069Y0184738D01*
X0190069Y0185872D01*
X0189501Y0186439D01*
X0188934Y0186439D01*
X0188934Y0187854D02*
X0190069Y0188988D01*
X0190069Y0189555D01*
X0190069Y0187854D02*
X0187800Y0187854D01*
X0187800Y0194606D02*
X0187800Y0196307D01*
X0188367Y0196875D01*
X0188934Y0196875D01*
X0189501Y0196307D01*
X0189501Y0194606D01*
X0187800Y0194606D02*
X0191203Y0194606D01*
X0191203Y0196307D01*
X0190636Y0196875D01*
X0190069Y0196875D01*
X0189501Y0196307D01*
X0188367Y0198289D02*
X0187800Y0198856D01*
X0187800Y0200558D01*
X0189501Y0200558D01*
X0190069Y0199991D01*
X0190069Y0198856D01*
X0188934Y0198856D02*
X0188934Y0200558D01*
X0189501Y0201972D02*
X0190069Y0202539D01*
X0190069Y0204241D01*
X0188934Y0203674D02*
X0188934Y0202539D01*
X0189501Y0201972D01*
X0187800Y0201972D02*
X0187800Y0203674D01*
X0188367Y0204241D01*
X0188934Y0203674D01*
X0187800Y0205655D02*
X0187800Y0206790D01*
X0187800Y0206223D02*
X0190069Y0206223D01*
X0190069Y0205655D01*
X0191203Y0206223D02*
X0191770Y0206223D01*
X0189501Y0208111D02*
X0188367Y0208111D01*
X0187800Y0208678D01*
X0187800Y0210379D01*
X0190069Y0208678D02*
X0189501Y0208111D01*
X0190069Y0208678D02*
X0190069Y0210379D01*
X0188934Y0198856D02*
X0188367Y0198289D01*
X0190069Y0179119D02*
X0190069Y0178552D01*
X0188934Y0177418D01*
X0187800Y0177418D02*
X0190069Y0177418D01*
X0189501Y0176003D02*
X0187800Y0176003D01*
X0187800Y0174302D01*
X0188367Y0173735D01*
X0188934Y0174302D01*
X0188934Y0176003D01*
X0189501Y0176003D02*
X0190069Y0175436D01*
X0190069Y0174302D01*
X0189501Y0172320D02*
X0190069Y0171753D01*
X0190069Y0170619D01*
X0189501Y0170052D01*
X0187800Y0170052D02*
X0191203Y0170052D01*
X0190636Y0168637D02*
X0191203Y0168070D01*
X0191203Y0166936D01*
X0190636Y0166369D01*
X0188367Y0166369D01*
X0187800Y0166936D01*
X0187800Y0168070D01*
X0188367Y0168637D01*
X0187800Y0172320D02*
X0189501Y0172320D01*
X0189501Y0161271D02*
X0190069Y0160704D01*
X0190069Y0159569D01*
X0189501Y0159002D01*
X0188367Y0159002D01*
X0187800Y0159569D01*
X0187800Y0160704D01*
X0188367Y0161271D01*
X0189501Y0161271D01*
X0189501Y0157588D02*
X0188934Y0157021D01*
X0188934Y0155319D01*
X0187800Y0155319D02*
X0191203Y0155319D01*
X0191203Y0157021D01*
X0190636Y0157588D01*
X0189501Y0157588D01*
X0187800Y0153998D02*
X0187800Y0152864D01*
X0187800Y0153431D02*
X0190069Y0153431D01*
X0190069Y0152864D01*
X0191203Y0153431D02*
X0191770Y0153431D01*
X0191203Y0149181D02*
X0187800Y0149181D01*
X0187800Y0151449D01*
X0130191Y0150705D02*
X0130191Y0154874D01*
X0125163Y0155905D02*
X0122782Y0155905D01*
X0117809Y0154874D02*
X0117809Y0150705D01*
X0121819Y0164443D02*
X0124181Y0164443D01*
X0124181Y0169167D02*
X0121819Y0169167D01*
X0115809Y0187705D02*
X0115809Y0191874D01*
X0120782Y0192905D02*
X0123163Y0192905D01*
X0128191Y0191874D02*
X0128191Y0187705D01*
X0122681Y0200443D02*
X0120319Y0200443D01*
X0120319Y0205167D02*
X0122681Y0205167D01*
X0107191Y0225615D02*
X0107191Y0229783D01*
X0102218Y0224583D02*
X0099837Y0224583D01*
X0094809Y0225615D02*
X0094809Y0229783D01*
X0099819Y0215045D02*
X0102181Y0215045D01*
X0102181Y0210321D02*
X0099819Y0210321D01*
X0099681Y0158293D02*
X0097319Y0158293D01*
X0097319Y0153569D02*
X0099681Y0153569D01*
X0099663Y0144220D02*
X0097282Y0144220D01*
X0092309Y0143189D02*
X0092309Y0139020D01*
X0104691Y0139020D02*
X0104691Y0143189D01*
X0108748Y0120301D02*
X0108748Y0102309D01*
X0107176Y0109337D02*
X0103000Y0109337D01*
X0107176Y0113513D01*
X0098824Y0113513D01*
X0103000Y0109337D01*
X0098824Y0109337D01*
X0097252Y0102309D02*
X0097252Y0120301D01*
X0117252Y0120301D02*
X0117252Y0102309D01*
X0118824Y0109337D02*
X0123000Y0109337D01*
X0127176Y0113513D01*
X0118824Y0113513D01*
X0123000Y0109337D01*
X0127176Y0109337D01*
X0128748Y0102309D02*
X0128748Y0120301D01*
X0126748Y0089364D02*
X0126748Y0071372D01*
X0125176Y0078161D02*
X0116824Y0078161D01*
X0121000Y0082337D01*
X0125176Y0078161D01*
X0125176Y0082337D02*
X0121000Y0082337D01*
X0116824Y0082337D01*
X0115252Y0089364D02*
X0115252Y0071372D01*
X0106748Y0071372D02*
X0106748Y0089364D01*
X0105176Y0082337D02*
X0101000Y0082337D01*
X0096824Y0078161D01*
X0105176Y0078161D01*
X0101000Y0082337D01*
X0096824Y0082337D01*
X0095252Y0089364D02*
X0095252Y0071372D01*
X0053748Y0102809D02*
X0053748Y0120801D01*
X0052176Y0114013D02*
X0043824Y0114013D01*
X0048000Y0109837D01*
X0052176Y0114013D01*
X0052176Y0109837D02*
X0048000Y0109837D01*
X0043824Y0109837D01*
X0042252Y0102809D02*
X0042252Y0120801D01*
X0033748Y0120801D02*
X0033748Y0102809D01*
X0032176Y0109837D02*
X0028000Y0109837D01*
X0032176Y0114013D01*
X0023824Y0114013D01*
X0028000Y0109837D01*
X0023824Y0109837D01*
X0022252Y0102809D02*
X0022252Y0120801D01*
X0017309Y0139520D02*
X0017309Y0143689D01*
X0022282Y0144720D02*
X0024663Y0144720D01*
X0029691Y0143689D02*
X0029691Y0139520D01*
X0024681Y0154069D02*
X0022319Y0154069D01*
X0022319Y0158793D02*
X0024681Y0158793D01*
X0042809Y0155374D02*
X0042809Y0151205D01*
X0047782Y0156405D02*
X0050163Y0156405D01*
X0055191Y0155374D02*
X0055191Y0151205D01*
X0049181Y0164943D02*
X0046819Y0164943D01*
X0046819Y0169667D02*
X0049181Y0169667D01*
X0053191Y0188205D02*
X0053191Y0192374D01*
X0048163Y0193405D02*
X0045782Y0193405D01*
X0040809Y0192374D02*
X0040809Y0188205D01*
X0045319Y0200943D02*
X0047681Y0200943D01*
X0047681Y0205667D02*
X0045319Y0205667D01*
X0032191Y0226115D02*
X0032191Y0230283D01*
X0027218Y0225083D02*
X0024837Y0225083D01*
X0019809Y0226115D02*
X0019809Y0230283D01*
X0024819Y0215545D02*
X0027181Y0215545D01*
X0027181Y0210821D02*
X0024819Y0210821D01*
X0020252Y0089864D02*
X0020252Y0071872D01*
X0021824Y0078661D02*
X0030176Y0078661D01*
X0026000Y0082837D01*
X0021824Y0078661D01*
X0021824Y0082837D02*
X0026000Y0082837D01*
X0030176Y0082837D01*
X0031748Y0089864D02*
X0031748Y0071872D01*
X0040252Y0071872D02*
X0040252Y0089864D01*
X0041824Y0082837D02*
X0046000Y0082837D01*
X0041824Y0078661D01*
X0050176Y0078661D01*
X0046000Y0082837D01*
X0050176Y0082837D01*
X0051748Y0089864D02*
X0051748Y0071872D01*
D16*
X0164847Y0113936D02*
X0164849Y0114017D01*
X0164855Y0114099D01*
X0164865Y0114180D01*
X0164879Y0114260D01*
X0164896Y0114339D01*
X0164918Y0114418D01*
X0164943Y0114495D01*
X0164972Y0114572D01*
X0165005Y0114646D01*
X0165042Y0114719D01*
X0165081Y0114790D01*
X0165125Y0114859D01*
X0165171Y0114926D01*
X0165221Y0114990D01*
X0165274Y0115052D01*
X0165330Y0115112D01*
X0165388Y0115168D01*
X0165450Y0115222D01*
X0165514Y0115273D01*
X0165580Y0115320D01*
X0165648Y0115364D01*
X0165719Y0115405D01*
X0165791Y0115442D01*
X0165866Y0115476D01*
X0165941Y0115506D01*
X0166019Y0115532D01*
X0166097Y0115555D01*
X0166176Y0115573D01*
X0166256Y0115588D01*
X0166337Y0115599D01*
X0166418Y0115606D01*
X0166500Y0115609D01*
X0166581Y0115608D01*
X0166662Y0115603D01*
X0166743Y0115594D01*
X0166824Y0115581D01*
X0166904Y0115564D01*
X0166982Y0115544D01*
X0167060Y0115519D01*
X0167137Y0115491D01*
X0167212Y0115459D01*
X0167285Y0115424D01*
X0167356Y0115385D01*
X0167426Y0115342D01*
X0167493Y0115297D01*
X0167559Y0115248D01*
X0167621Y0115196D01*
X0167681Y0115140D01*
X0167738Y0115082D01*
X0167793Y0115022D01*
X0167844Y0114958D01*
X0167892Y0114893D01*
X0167937Y0114825D01*
X0167979Y0114755D01*
X0168017Y0114683D01*
X0168052Y0114609D01*
X0168083Y0114534D01*
X0168110Y0114457D01*
X0168133Y0114379D01*
X0168153Y0114300D01*
X0168169Y0114220D01*
X0168181Y0114139D01*
X0168189Y0114058D01*
X0168193Y0113977D01*
X0168193Y0113895D01*
X0168189Y0113814D01*
X0168181Y0113733D01*
X0168169Y0113652D01*
X0168153Y0113572D01*
X0168133Y0113493D01*
X0168110Y0113415D01*
X0168083Y0113338D01*
X0168052Y0113263D01*
X0168017Y0113189D01*
X0167979Y0113117D01*
X0167937Y0113047D01*
X0167892Y0112979D01*
X0167844Y0112914D01*
X0167793Y0112850D01*
X0167738Y0112790D01*
X0167681Y0112732D01*
X0167621Y0112676D01*
X0167559Y0112624D01*
X0167493Y0112575D01*
X0167426Y0112530D01*
X0167357Y0112487D01*
X0167285Y0112448D01*
X0167212Y0112413D01*
X0167137Y0112381D01*
X0167060Y0112353D01*
X0166982Y0112328D01*
X0166904Y0112308D01*
X0166824Y0112291D01*
X0166743Y0112278D01*
X0166662Y0112269D01*
X0166581Y0112264D01*
X0166500Y0112263D01*
X0166418Y0112266D01*
X0166337Y0112273D01*
X0166256Y0112284D01*
X0166176Y0112299D01*
X0166097Y0112317D01*
X0166019Y0112340D01*
X0165941Y0112366D01*
X0165866Y0112396D01*
X0165791Y0112430D01*
X0165719Y0112467D01*
X0165648Y0112508D01*
X0165580Y0112552D01*
X0165514Y0112599D01*
X0165450Y0112650D01*
X0165388Y0112704D01*
X0165330Y0112760D01*
X0165274Y0112820D01*
X0165221Y0112882D01*
X0165171Y0112946D01*
X0165125Y0113013D01*
X0165081Y0113082D01*
X0165042Y0113153D01*
X0165005Y0113226D01*
X0164972Y0113300D01*
X0164943Y0113377D01*
X0164918Y0113454D01*
X0164896Y0113533D01*
X0164879Y0113612D01*
X0164865Y0113692D01*
X0164855Y0113773D01*
X0164849Y0113855D01*
X0164847Y0113936D01*
X0179807Y0113936D02*
X0179809Y0114017D01*
X0179815Y0114099D01*
X0179825Y0114180D01*
X0179839Y0114260D01*
X0179856Y0114339D01*
X0179878Y0114418D01*
X0179903Y0114495D01*
X0179932Y0114572D01*
X0179965Y0114646D01*
X0180002Y0114719D01*
X0180041Y0114790D01*
X0180085Y0114859D01*
X0180131Y0114926D01*
X0180181Y0114990D01*
X0180234Y0115052D01*
X0180290Y0115112D01*
X0180348Y0115168D01*
X0180410Y0115222D01*
X0180474Y0115273D01*
X0180540Y0115320D01*
X0180608Y0115364D01*
X0180679Y0115405D01*
X0180751Y0115442D01*
X0180826Y0115476D01*
X0180901Y0115506D01*
X0180979Y0115532D01*
X0181057Y0115555D01*
X0181136Y0115573D01*
X0181216Y0115588D01*
X0181297Y0115599D01*
X0181378Y0115606D01*
X0181460Y0115609D01*
X0181541Y0115608D01*
X0181622Y0115603D01*
X0181703Y0115594D01*
X0181784Y0115581D01*
X0181864Y0115564D01*
X0181942Y0115544D01*
X0182020Y0115519D01*
X0182097Y0115491D01*
X0182172Y0115459D01*
X0182245Y0115424D01*
X0182316Y0115385D01*
X0182386Y0115342D01*
X0182453Y0115297D01*
X0182519Y0115248D01*
X0182581Y0115196D01*
X0182641Y0115140D01*
X0182698Y0115082D01*
X0182753Y0115022D01*
X0182804Y0114958D01*
X0182852Y0114893D01*
X0182897Y0114825D01*
X0182939Y0114755D01*
X0182977Y0114683D01*
X0183012Y0114609D01*
X0183043Y0114534D01*
X0183070Y0114457D01*
X0183093Y0114379D01*
X0183113Y0114300D01*
X0183129Y0114220D01*
X0183141Y0114139D01*
X0183149Y0114058D01*
X0183153Y0113977D01*
X0183153Y0113895D01*
X0183149Y0113814D01*
X0183141Y0113733D01*
X0183129Y0113652D01*
X0183113Y0113572D01*
X0183093Y0113493D01*
X0183070Y0113415D01*
X0183043Y0113338D01*
X0183012Y0113263D01*
X0182977Y0113189D01*
X0182939Y0113117D01*
X0182897Y0113047D01*
X0182852Y0112979D01*
X0182804Y0112914D01*
X0182753Y0112850D01*
X0182698Y0112790D01*
X0182641Y0112732D01*
X0182581Y0112676D01*
X0182519Y0112624D01*
X0182453Y0112575D01*
X0182386Y0112530D01*
X0182317Y0112487D01*
X0182245Y0112448D01*
X0182172Y0112413D01*
X0182097Y0112381D01*
X0182020Y0112353D01*
X0181942Y0112328D01*
X0181864Y0112308D01*
X0181784Y0112291D01*
X0181703Y0112278D01*
X0181622Y0112269D01*
X0181541Y0112264D01*
X0181460Y0112263D01*
X0181378Y0112266D01*
X0181297Y0112273D01*
X0181216Y0112284D01*
X0181136Y0112299D01*
X0181057Y0112317D01*
X0180979Y0112340D01*
X0180901Y0112366D01*
X0180826Y0112396D01*
X0180751Y0112430D01*
X0180679Y0112467D01*
X0180608Y0112508D01*
X0180540Y0112552D01*
X0180474Y0112599D01*
X0180410Y0112650D01*
X0180348Y0112704D01*
X0180290Y0112760D01*
X0180234Y0112820D01*
X0180181Y0112882D01*
X0180131Y0112946D01*
X0180085Y0113013D01*
X0180041Y0113082D01*
X0180002Y0113153D01*
X0179965Y0113226D01*
X0179932Y0113300D01*
X0179903Y0113377D01*
X0179878Y0113454D01*
X0179856Y0113533D01*
X0179839Y0113612D01*
X0179825Y0113692D01*
X0179815Y0113773D01*
X0179809Y0113855D01*
X0179807Y0113936D01*
X0167500Y0154994D02*
X0167502Y0155155D01*
X0167508Y0155315D01*
X0167518Y0155476D01*
X0167532Y0155636D01*
X0167550Y0155796D01*
X0167571Y0155955D01*
X0167597Y0156114D01*
X0167627Y0156272D01*
X0167660Y0156429D01*
X0167698Y0156586D01*
X0167739Y0156741D01*
X0167784Y0156895D01*
X0167833Y0157048D01*
X0167886Y0157200D01*
X0167942Y0157351D01*
X0168003Y0157500D01*
X0168066Y0157648D01*
X0168134Y0157794D01*
X0168205Y0157938D01*
X0168279Y0158080D01*
X0168357Y0158221D01*
X0168439Y0158359D01*
X0168524Y0158496D01*
X0168612Y0158630D01*
X0168704Y0158762D01*
X0168799Y0158892D01*
X0168897Y0159020D01*
X0168998Y0159145D01*
X0169102Y0159267D01*
X0169209Y0159387D01*
X0169319Y0159504D01*
X0169432Y0159619D01*
X0169548Y0159730D01*
X0169667Y0159839D01*
X0169788Y0159944D01*
X0169912Y0160047D01*
X0170038Y0160147D01*
X0170166Y0160243D01*
X0170297Y0160336D01*
X0170431Y0160426D01*
X0170566Y0160513D01*
X0170704Y0160596D01*
X0170843Y0160676D01*
X0170985Y0160752D01*
X0171128Y0160825D01*
X0171273Y0160894D01*
X0171420Y0160960D01*
X0171568Y0161022D01*
X0171718Y0161080D01*
X0171869Y0161135D01*
X0172022Y0161186D01*
X0172176Y0161233D01*
X0172331Y0161276D01*
X0172487Y0161315D01*
X0172643Y0161351D01*
X0172801Y0161382D01*
X0172959Y0161410D01*
X0173118Y0161434D01*
X0173278Y0161454D01*
X0173438Y0161470D01*
X0173598Y0161482D01*
X0173759Y0161490D01*
X0173920Y0161494D01*
X0174080Y0161494D01*
X0174241Y0161490D01*
X0174402Y0161482D01*
X0174562Y0161470D01*
X0174722Y0161454D01*
X0174882Y0161434D01*
X0175041Y0161410D01*
X0175199Y0161382D01*
X0175357Y0161351D01*
X0175513Y0161315D01*
X0175669Y0161276D01*
X0175824Y0161233D01*
X0175978Y0161186D01*
X0176131Y0161135D01*
X0176282Y0161080D01*
X0176432Y0161022D01*
X0176580Y0160960D01*
X0176727Y0160894D01*
X0176872Y0160825D01*
X0177015Y0160752D01*
X0177157Y0160676D01*
X0177296Y0160596D01*
X0177434Y0160513D01*
X0177569Y0160426D01*
X0177703Y0160336D01*
X0177834Y0160243D01*
X0177962Y0160147D01*
X0178088Y0160047D01*
X0178212Y0159944D01*
X0178333Y0159839D01*
X0178452Y0159730D01*
X0178568Y0159619D01*
X0178681Y0159504D01*
X0178791Y0159387D01*
X0178898Y0159267D01*
X0179002Y0159145D01*
X0179103Y0159020D01*
X0179201Y0158892D01*
X0179296Y0158762D01*
X0179388Y0158630D01*
X0179476Y0158496D01*
X0179561Y0158359D01*
X0179643Y0158221D01*
X0179721Y0158080D01*
X0179795Y0157938D01*
X0179866Y0157794D01*
X0179934Y0157648D01*
X0179997Y0157500D01*
X0180058Y0157351D01*
X0180114Y0157200D01*
X0180167Y0157048D01*
X0180216Y0156895D01*
X0180261Y0156741D01*
X0180302Y0156586D01*
X0180340Y0156429D01*
X0180373Y0156272D01*
X0180403Y0156114D01*
X0180429Y0155955D01*
X0180450Y0155796D01*
X0180468Y0155636D01*
X0180482Y0155476D01*
X0180492Y0155315D01*
X0180498Y0155155D01*
X0180500Y0154994D01*
X0180498Y0154833D01*
X0180492Y0154673D01*
X0180482Y0154512D01*
X0180468Y0154352D01*
X0180450Y0154192D01*
X0180429Y0154033D01*
X0180403Y0153874D01*
X0180373Y0153716D01*
X0180340Y0153559D01*
X0180302Y0153402D01*
X0180261Y0153247D01*
X0180216Y0153093D01*
X0180167Y0152940D01*
X0180114Y0152788D01*
X0180058Y0152637D01*
X0179997Y0152488D01*
X0179934Y0152340D01*
X0179866Y0152194D01*
X0179795Y0152050D01*
X0179721Y0151908D01*
X0179643Y0151767D01*
X0179561Y0151629D01*
X0179476Y0151492D01*
X0179388Y0151358D01*
X0179296Y0151226D01*
X0179201Y0151096D01*
X0179103Y0150968D01*
X0179002Y0150843D01*
X0178898Y0150721D01*
X0178791Y0150601D01*
X0178681Y0150484D01*
X0178568Y0150369D01*
X0178452Y0150258D01*
X0178333Y0150149D01*
X0178212Y0150044D01*
X0178088Y0149941D01*
X0177962Y0149841D01*
X0177834Y0149745D01*
X0177703Y0149652D01*
X0177569Y0149562D01*
X0177434Y0149475D01*
X0177296Y0149392D01*
X0177157Y0149312D01*
X0177015Y0149236D01*
X0176872Y0149163D01*
X0176727Y0149094D01*
X0176580Y0149028D01*
X0176432Y0148966D01*
X0176282Y0148908D01*
X0176131Y0148853D01*
X0175978Y0148802D01*
X0175824Y0148755D01*
X0175669Y0148712D01*
X0175513Y0148673D01*
X0175357Y0148637D01*
X0175199Y0148606D01*
X0175041Y0148578D01*
X0174882Y0148554D01*
X0174722Y0148534D01*
X0174562Y0148518D01*
X0174402Y0148506D01*
X0174241Y0148498D01*
X0174080Y0148494D01*
X0173920Y0148494D01*
X0173759Y0148498D01*
X0173598Y0148506D01*
X0173438Y0148518D01*
X0173278Y0148534D01*
X0173118Y0148554D01*
X0172959Y0148578D01*
X0172801Y0148606D01*
X0172643Y0148637D01*
X0172487Y0148673D01*
X0172331Y0148712D01*
X0172176Y0148755D01*
X0172022Y0148802D01*
X0171869Y0148853D01*
X0171718Y0148908D01*
X0171568Y0148966D01*
X0171420Y0149028D01*
X0171273Y0149094D01*
X0171128Y0149163D01*
X0170985Y0149236D01*
X0170843Y0149312D01*
X0170704Y0149392D01*
X0170566Y0149475D01*
X0170431Y0149562D01*
X0170297Y0149652D01*
X0170166Y0149745D01*
X0170038Y0149841D01*
X0169912Y0149941D01*
X0169788Y0150044D01*
X0169667Y0150149D01*
X0169548Y0150258D01*
X0169432Y0150369D01*
X0169319Y0150484D01*
X0169209Y0150601D01*
X0169102Y0150721D01*
X0168998Y0150843D01*
X0168897Y0150968D01*
X0168799Y0151096D01*
X0168704Y0151226D01*
X0168612Y0151358D01*
X0168524Y0151492D01*
X0168439Y0151629D01*
X0168357Y0151767D01*
X0168279Y0151908D01*
X0168205Y0152050D01*
X0168134Y0152194D01*
X0168066Y0152340D01*
X0168003Y0152488D01*
X0167942Y0152637D01*
X0167886Y0152788D01*
X0167833Y0152940D01*
X0167784Y0153093D01*
X0167739Y0153247D01*
X0167698Y0153402D01*
X0167660Y0153559D01*
X0167627Y0153716D01*
X0167597Y0153874D01*
X0167571Y0154033D01*
X0167550Y0154192D01*
X0167532Y0154352D01*
X0167518Y0154512D01*
X0167508Y0154673D01*
X0167502Y0154833D01*
X0167500Y0154994D01*
D17*
X0167303Y0158044D02*
X0165802Y0158044D01*
X0165051Y0158795D01*
X0165051Y0159545D01*
X0165802Y0160296D01*
X0167303Y0160296D01*
X0168054Y0161047D01*
X0168054Y0161797D01*
X0167303Y0162548D01*
X0165802Y0162548D01*
X0165051Y0161797D01*
X0165051Y0161047D01*
X0165802Y0160296D01*
X0167303Y0160296D02*
X0168054Y0159545D01*
X0168054Y0158795D01*
X0167303Y0158044D01*
X0169655Y0160296D02*
X0170406Y0159545D01*
X0172658Y0159545D01*
X0172658Y0158044D02*
X0172658Y0162548D01*
X0170406Y0162548D01*
X0169655Y0161797D01*
X0169655Y0160296D01*
X0174259Y0162548D02*
X0175761Y0162548D01*
X0175010Y0162548D02*
X0175010Y0158795D01*
X0175761Y0158044D01*
X0176511Y0158044D01*
X0177262Y0158795D01*
D18*
X0177636Y0200341D02*
X0176152Y0201551D01*
X0175554Y0201243D01*
X0174706Y0203289D01*
X0175085Y0203501D01*
X0175403Y0203795D01*
X0175645Y0204156D01*
X0175795Y0204563D01*
X0175846Y0204994D01*
X0175793Y0205433D01*
X0175637Y0205846D01*
X0175388Y0206211D01*
X0175059Y0206505D01*
X0174669Y0206714D01*
X0174241Y0206823D01*
X0173799Y0206828D01*
X0173369Y0206728D01*
X0172975Y0206528D01*
X0172640Y0206240D01*
X0172382Y0205881D01*
X0172218Y0205471D01*
X0172155Y0205034D01*
X0172199Y0204595D01*
X0172345Y0204178D01*
X0172586Y0203808D01*
X0172909Y0203506D01*
X0173294Y0203289D01*
X0172446Y0201243D01*
X0171848Y0201551D01*
X0170364Y0200341D01*
X0169346Y0201358D01*
X0170557Y0202843D01*
X0170249Y0203440D01*
X0170044Y0204081D01*
X0168139Y0204274D01*
X0168139Y0205714D01*
X0170044Y0205907D01*
X0170249Y0206548D01*
X0170557Y0207146D01*
X0169346Y0208630D01*
X0170364Y0209648D01*
X0171848Y0208437D01*
X0172446Y0208745D01*
X0173087Y0208950D01*
X0173280Y0210856D01*
X0174720Y0210856D01*
X0174913Y0208950D01*
X0175554Y0208745D01*
X0176152Y0208437D01*
X0177636Y0209648D01*
X0178654Y0208630D01*
X0177443Y0207146D01*
X0177751Y0206548D01*
X0177956Y0205907D01*
X0179861Y0205714D01*
X0179861Y0204274D01*
X0177956Y0204081D01*
X0177751Y0203440D01*
X0177443Y0202843D01*
X0178654Y0201358D01*
X0177636Y0200341D01*
X0177644Y0200349D02*
X0177626Y0200349D01*
X0178233Y0200938D02*
X0176903Y0200938D01*
X0176181Y0201527D02*
X0178516Y0201527D01*
X0178036Y0202116D02*
X0175192Y0202116D01*
X0174948Y0202705D02*
X0177555Y0202705D01*
X0177676Y0203294D02*
X0174715Y0203294D01*
X0175462Y0203883D02*
X0177893Y0203883D01*
X0179861Y0204472D02*
X0175761Y0204472D01*
X0175838Y0205061D02*
X0179861Y0205061D01*
X0179861Y0205650D02*
X0175711Y0205650D01*
X0175355Y0206239D02*
X0177850Y0206239D01*
X0177607Y0206828D02*
X0170393Y0206828D01*
X0170335Y0207418D02*
X0177665Y0207418D01*
X0178145Y0208007D02*
X0169855Y0208007D01*
X0169374Y0208596D02*
X0171654Y0208596D01*
X0172156Y0208596D02*
X0175844Y0208596D01*
X0176346Y0208596D02*
X0178626Y0208596D01*
X0178099Y0209185D02*
X0177068Y0209185D01*
X0174890Y0209185D02*
X0173110Y0209185D01*
X0173170Y0209774D02*
X0174830Y0209774D01*
X0174770Y0210363D02*
X0173230Y0210363D01*
X0170932Y0209185D02*
X0169901Y0209185D01*
X0170150Y0206239D02*
X0172639Y0206239D01*
X0172290Y0205650D02*
X0168139Y0205650D01*
X0168139Y0205061D02*
X0172159Y0205061D01*
X0172242Y0204472D02*
X0168139Y0204472D01*
X0170107Y0203883D02*
X0172537Y0203883D01*
X0173285Y0203294D02*
X0170324Y0203294D01*
X0170445Y0202705D02*
X0173052Y0202705D01*
X0172808Y0202116D02*
X0169964Y0202116D01*
X0169484Y0201527D02*
X0171819Y0201527D01*
X0171895Y0201527D02*
X0172564Y0201527D01*
X0171097Y0200938D02*
X0169767Y0200938D01*
X0170356Y0200349D02*
X0170374Y0200349D01*
X0175436Y0201527D02*
X0176105Y0201527D01*
M02*
