G75*
%MOIN*%
%OFA0B0*%
%FSLAX25Y25*%
%IPPOS*%
%LPD*%
%AMOC8*
5,1,8,0,0,1.08239X$1,22.5*
%
%ADD10C,0.00004*%
%ADD11C,0.00800*%
%ADD12R,0.05000X0.08000*%
%ADD13R,0.03543X0.09843*%
%ADD14R,0.08000X0.08000*%
%ADD15R,0.04724X0.03150*%
%ADD16C,0.01181*%
%ADD17R,0.03937X0.04331*%
%ADD18R,0.02165X0.04724*%
%ADD19C,0.00000*%
%ADD20R,0.01575X0.05512*%
%ADD21R,0.07087X0.05906*%
%ADD22R,0.05906X0.02756*%
%ADD23R,0.03937X0.18110*%
%ADD24R,0.06299X0.13386*%
D10*
X0001500Y0052494D02*
X0001500Y0249344D01*
X0198350Y0249344D01*
X0198350Y0052494D01*
X0001500Y0052494D01*
D11*
X0154000Y0099994D02*
X0194000Y0099994D01*
X0194000Y0214994D01*
X0154000Y0214994D01*
X0154000Y0099994D01*
D12*
X0121500Y0109805D03*
X0111500Y0109805D03*
X0101500Y0109805D03*
X0101500Y0086805D03*
X0111500Y0086805D03*
X0121500Y0086805D03*
X0046500Y0087305D03*
X0036500Y0087305D03*
X0026500Y0087305D03*
X0026500Y0110305D03*
X0036500Y0110305D03*
X0046500Y0110305D03*
D13*
X0048583Y0072222D03*
X0053583Y0072222D03*
X0043583Y0072222D03*
X0038583Y0072222D03*
X0033583Y0072222D03*
X0028583Y0072222D03*
X0023583Y0072222D03*
X0098583Y0071722D03*
X0103583Y0071722D03*
X0108583Y0071722D03*
X0113583Y0071722D03*
X0118583Y0071722D03*
X0123583Y0071722D03*
X0128583Y0071722D03*
D14*
X0141500Y0071994D03*
X0141500Y0081994D03*
X0141500Y0091994D03*
X0141500Y0061994D03*
X0081500Y0061994D03*
X0081500Y0071994D03*
X0081500Y0081994D03*
X0081500Y0091994D03*
X0066500Y0092494D03*
X0066500Y0082494D03*
X0066500Y0072494D03*
X0066500Y0062494D03*
X0006500Y0062494D03*
X0006500Y0072494D03*
X0006500Y0082494D03*
X0006500Y0092494D03*
D15*
X0016500Y0086348D03*
X0016500Y0079262D03*
X0057000Y0081262D03*
X0057000Y0088348D03*
X0091500Y0085848D03*
X0091500Y0078762D03*
X0132000Y0080762D03*
X0132000Y0087848D03*
D16*
X0157622Y0132433D02*
X0160378Y0132433D01*
X0157622Y0132433D02*
X0157622Y0135189D01*
X0160378Y0135189D01*
X0160378Y0132433D01*
X0160378Y0133613D02*
X0157622Y0133613D01*
X0157622Y0134793D02*
X0160378Y0134793D01*
X0160378Y0139339D02*
X0157622Y0139339D01*
X0157622Y0142095D01*
X0160378Y0142095D01*
X0160378Y0139339D01*
X0160378Y0140519D02*
X0157622Y0140519D01*
X0157622Y0141699D02*
X0160378Y0141699D01*
D17*
X0164450Y0140251D03*
X0164450Y0133558D03*
X0164440Y0128111D03*
X0164440Y0121418D03*
X0158950Y0121428D03*
X0158950Y0128121D03*
X0189050Y0149618D03*
X0189050Y0156311D03*
D18*
X0179640Y0135483D03*
X0175900Y0135483D03*
X0172160Y0135483D03*
X0172160Y0125246D03*
X0179640Y0125246D03*
D19*
X0179807Y0113936D02*
X0179809Y0114017D01*
X0179815Y0114099D01*
X0179825Y0114180D01*
X0179839Y0114260D01*
X0179856Y0114339D01*
X0179878Y0114418D01*
X0179903Y0114495D01*
X0179932Y0114572D01*
X0179965Y0114646D01*
X0180002Y0114719D01*
X0180041Y0114790D01*
X0180085Y0114859D01*
X0180131Y0114926D01*
X0180181Y0114990D01*
X0180234Y0115052D01*
X0180290Y0115112D01*
X0180348Y0115168D01*
X0180410Y0115222D01*
X0180474Y0115273D01*
X0180540Y0115320D01*
X0180608Y0115364D01*
X0180679Y0115405D01*
X0180751Y0115442D01*
X0180826Y0115476D01*
X0180901Y0115506D01*
X0180979Y0115532D01*
X0181057Y0115555D01*
X0181136Y0115573D01*
X0181216Y0115588D01*
X0181297Y0115599D01*
X0181378Y0115606D01*
X0181460Y0115609D01*
X0181541Y0115608D01*
X0181622Y0115603D01*
X0181703Y0115594D01*
X0181784Y0115581D01*
X0181864Y0115564D01*
X0181942Y0115544D01*
X0182020Y0115519D01*
X0182097Y0115491D01*
X0182172Y0115459D01*
X0182245Y0115424D01*
X0182316Y0115385D01*
X0182386Y0115342D01*
X0182453Y0115297D01*
X0182519Y0115248D01*
X0182581Y0115196D01*
X0182641Y0115140D01*
X0182698Y0115082D01*
X0182753Y0115022D01*
X0182804Y0114958D01*
X0182852Y0114893D01*
X0182897Y0114825D01*
X0182939Y0114755D01*
X0182977Y0114683D01*
X0183012Y0114609D01*
X0183043Y0114534D01*
X0183070Y0114457D01*
X0183093Y0114379D01*
X0183113Y0114300D01*
X0183129Y0114220D01*
X0183141Y0114139D01*
X0183149Y0114058D01*
X0183153Y0113977D01*
X0183153Y0113895D01*
X0183149Y0113814D01*
X0183141Y0113733D01*
X0183129Y0113652D01*
X0183113Y0113572D01*
X0183093Y0113493D01*
X0183070Y0113415D01*
X0183043Y0113338D01*
X0183012Y0113263D01*
X0182977Y0113189D01*
X0182939Y0113117D01*
X0182897Y0113047D01*
X0182852Y0112979D01*
X0182804Y0112914D01*
X0182753Y0112850D01*
X0182698Y0112790D01*
X0182641Y0112732D01*
X0182581Y0112676D01*
X0182519Y0112624D01*
X0182453Y0112575D01*
X0182386Y0112530D01*
X0182317Y0112487D01*
X0182245Y0112448D01*
X0182172Y0112413D01*
X0182097Y0112381D01*
X0182020Y0112353D01*
X0181942Y0112328D01*
X0181864Y0112308D01*
X0181784Y0112291D01*
X0181703Y0112278D01*
X0181622Y0112269D01*
X0181541Y0112264D01*
X0181460Y0112263D01*
X0181378Y0112266D01*
X0181297Y0112273D01*
X0181216Y0112284D01*
X0181136Y0112299D01*
X0181057Y0112317D01*
X0180979Y0112340D01*
X0180901Y0112366D01*
X0180826Y0112396D01*
X0180751Y0112430D01*
X0180679Y0112467D01*
X0180608Y0112508D01*
X0180540Y0112552D01*
X0180474Y0112599D01*
X0180410Y0112650D01*
X0180348Y0112704D01*
X0180290Y0112760D01*
X0180234Y0112820D01*
X0180181Y0112882D01*
X0180131Y0112946D01*
X0180085Y0113013D01*
X0180041Y0113082D01*
X0180002Y0113153D01*
X0179965Y0113226D01*
X0179932Y0113300D01*
X0179903Y0113377D01*
X0179878Y0113454D01*
X0179856Y0113533D01*
X0179839Y0113612D01*
X0179825Y0113692D01*
X0179815Y0113773D01*
X0179809Y0113855D01*
X0179807Y0113936D01*
X0164847Y0113936D02*
X0164849Y0114017D01*
X0164855Y0114099D01*
X0164865Y0114180D01*
X0164879Y0114260D01*
X0164896Y0114339D01*
X0164918Y0114418D01*
X0164943Y0114495D01*
X0164972Y0114572D01*
X0165005Y0114646D01*
X0165042Y0114719D01*
X0165081Y0114790D01*
X0165125Y0114859D01*
X0165171Y0114926D01*
X0165221Y0114990D01*
X0165274Y0115052D01*
X0165330Y0115112D01*
X0165388Y0115168D01*
X0165450Y0115222D01*
X0165514Y0115273D01*
X0165580Y0115320D01*
X0165648Y0115364D01*
X0165719Y0115405D01*
X0165791Y0115442D01*
X0165866Y0115476D01*
X0165941Y0115506D01*
X0166019Y0115532D01*
X0166097Y0115555D01*
X0166176Y0115573D01*
X0166256Y0115588D01*
X0166337Y0115599D01*
X0166418Y0115606D01*
X0166500Y0115609D01*
X0166581Y0115608D01*
X0166662Y0115603D01*
X0166743Y0115594D01*
X0166824Y0115581D01*
X0166904Y0115564D01*
X0166982Y0115544D01*
X0167060Y0115519D01*
X0167137Y0115491D01*
X0167212Y0115459D01*
X0167285Y0115424D01*
X0167356Y0115385D01*
X0167426Y0115342D01*
X0167493Y0115297D01*
X0167559Y0115248D01*
X0167621Y0115196D01*
X0167681Y0115140D01*
X0167738Y0115082D01*
X0167793Y0115022D01*
X0167844Y0114958D01*
X0167892Y0114893D01*
X0167937Y0114825D01*
X0167979Y0114755D01*
X0168017Y0114683D01*
X0168052Y0114609D01*
X0168083Y0114534D01*
X0168110Y0114457D01*
X0168133Y0114379D01*
X0168153Y0114300D01*
X0168169Y0114220D01*
X0168181Y0114139D01*
X0168189Y0114058D01*
X0168193Y0113977D01*
X0168193Y0113895D01*
X0168189Y0113814D01*
X0168181Y0113733D01*
X0168169Y0113652D01*
X0168153Y0113572D01*
X0168133Y0113493D01*
X0168110Y0113415D01*
X0168083Y0113338D01*
X0168052Y0113263D01*
X0168017Y0113189D01*
X0167979Y0113117D01*
X0167937Y0113047D01*
X0167892Y0112979D01*
X0167844Y0112914D01*
X0167793Y0112850D01*
X0167738Y0112790D01*
X0167681Y0112732D01*
X0167621Y0112676D01*
X0167559Y0112624D01*
X0167493Y0112575D01*
X0167426Y0112530D01*
X0167357Y0112487D01*
X0167285Y0112448D01*
X0167212Y0112413D01*
X0167137Y0112381D01*
X0167060Y0112353D01*
X0166982Y0112328D01*
X0166904Y0112308D01*
X0166824Y0112291D01*
X0166743Y0112278D01*
X0166662Y0112269D01*
X0166581Y0112264D01*
X0166500Y0112263D01*
X0166418Y0112266D01*
X0166337Y0112273D01*
X0166256Y0112284D01*
X0166176Y0112299D01*
X0166097Y0112317D01*
X0166019Y0112340D01*
X0165941Y0112366D01*
X0165866Y0112396D01*
X0165791Y0112430D01*
X0165719Y0112467D01*
X0165648Y0112508D01*
X0165580Y0112552D01*
X0165514Y0112599D01*
X0165450Y0112650D01*
X0165388Y0112704D01*
X0165330Y0112760D01*
X0165274Y0112820D01*
X0165221Y0112882D01*
X0165171Y0112946D01*
X0165125Y0113013D01*
X0165081Y0113082D01*
X0165042Y0113153D01*
X0165005Y0113226D01*
X0164972Y0113300D01*
X0164943Y0113377D01*
X0164918Y0113454D01*
X0164896Y0113533D01*
X0164879Y0113612D01*
X0164865Y0113692D01*
X0164855Y0113773D01*
X0164849Y0113855D01*
X0164847Y0113936D01*
X0167500Y0154994D02*
X0167502Y0155155D01*
X0167508Y0155315D01*
X0167518Y0155476D01*
X0167532Y0155636D01*
X0167550Y0155796D01*
X0167571Y0155955D01*
X0167597Y0156114D01*
X0167627Y0156272D01*
X0167660Y0156429D01*
X0167698Y0156586D01*
X0167739Y0156741D01*
X0167784Y0156895D01*
X0167833Y0157048D01*
X0167886Y0157200D01*
X0167942Y0157351D01*
X0168003Y0157500D01*
X0168066Y0157648D01*
X0168134Y0157794D01*
X0168205Y0157938D01*
X0168279Y0158080D01*
X0168357Y0158221D01*
X0168439Y0158359D01*
X0168524Y0158496D01*
X0168612Y0158630D01*
X0168704Y0158762D01*
X0168799Y0158892D01*
X0168897Y0159020D01*
X0168998Y0159145D01*
X0169102Y0159267D01*
X0169209Y0159387D01*
X0169319Y0159504D01*
X0169432Y0159619D01*
X0169548Y0159730D01*
X0169667Y0159839D01*
X0169788Y0159944D01*
X0169912Y0160047D01*
X0170038Y0160147D01*
X0170166Y0160243D01*
X0170297Y0160336D01*
X0170431Y0160426D01*
X0170566Y0160513D01*
X0170704Y0160596D01*
X0170843Y0160676D01*
X0170985Y0160752D01*
X0171128Y0160825D01*
X0171273Y0160894D01*
X0171420Y0160960D01*
X0171568Y0161022D01*
X0171718Y0161080D01*
X0171869Y0161135D01*
X0172022Y0161186D01*
X0172176Y0161233D01*
X0172331Y0161276D01*
X0172487Y0161315D01*
X0172643Y0161351D01*
X0172801Y0161382D01*
X0172959Y0161410D01*
X0173118Y0161434D01*
X0173278Y0161454D01*
X0173438Y0161470D01*
X0173598Y0161482D01*
X0173759Y0161490D01*
X0173920Y0161494D01*
X0174080Y0161494D01*
X0174241Y0161490D01*
X0174402Y0161482D01*
X0174562Y0161470D01*
X0174722Y0161454D01*
X0174882Y0161434D01*
X0175041Y0161410D01*
X0175199Y0161382D01*
X0175357Y0161351D01*
X0175513Y0161315D01*
X0175669Y0161276D01*
X0175824Y0161233D01*
X0175978Y0161186D01*
X0176131Y0161135D01*
X0176282Y0161080D01*
X0176432Y0161022D01*
X0176580Y0160960D01*
X0176727Y0160894D01*
X0176872Y0160825D01*
X0177015Y0160752D01*
X0177157Y0160676D01*
X0177296Y0160596D01*
X0177434Y0160513D01*
X0177569Y0160426D01*
X0177703Y0160336D01*
X0177834Y0160243D01*
X0177962Y0160147D01*
X0178088Y0160047D01*
X0178212Y0159944D01*
X0178333Y0159839D01*
X0178452Y0159730D01*
X0178568Y0159619D01*
X0178681Y0159504D01*
X0178791Y0159387D01*
X0178898Y0159267D01*
X0179002Y0159145D01*
X0179103Y0159020D01*
X0179201Y0158892D01*
X0179296Y0158762D01*
X0179388Y0158630D01*
X0179476Y0158496D01*
X0179561Y0158359D01*
X0179643Y0158221D01*
X0179721Y0158080D01*
X0179795Y0157938D01*
X0179866Y0157794D01*
X0179934Y0157648D01*
X0179997Y0157500D01*
X0180058Y0157351D01*
X0180114Y0157200D01*
X0180167Y0157048D01*
X0180216Y0156895D01*
X0180261Y0156741D01*
X0180302Y0156586D01*
X0180340Y0156429D01*
X0180373Y0156272D01*
X0180403Y0156114D01*
X0180429Y0155955D01*
X0180450Y0155796D01*
X0180468Y0155636D01*
X0180482Y0155476D01*
X0180492Y0155315D01*
X0180498Y0155155D01*
X0180500Y0154994D01*
X0180498Y0154833D01*
X0180492Y0154673D01*
X0180482Y0154512D01*
X0180468Y0154352D01*
X0180450Y0154192D01*
X0180429Y0154033D01*
X0180403Y0153874D01*
X0180373Y0153716D01*
X0180340Y0153559D01*
X0180302Y0153402D01*
X0180261Y0153247D01*
X0180216Y0153093D01*
X0180167Y0152940D01*
X0180114Y0152788D01*
X0180058Y0152637D01*
X0179997Y0152488D01*
X0179934Y0152340D01*
X0179866Y0152194D01*
X0179795Y0152050D01*
X0179721Y0151908D01*
X0179643Y0151767D01*
X0179561Y0151629D01*
X0179476Y0151492D01*
X0179388Y0151358D01*
X0179296Y0151226D01*
X0179201Y0151096D01*
X0179103Y0150968D01*
X0179002Y0150843D01*
X0178898Y0150721D01*
X0178791Y0150601D01*
X0178681Y0150484D01*
X0178568Y0150369D01*
X0178452Y0150258D01*
X0178333Y0150149D01*
X0178212Y0150044D01*
X0178088Y0149941D01*
X0177962Y0149841D01*
X0177834Y0149745D01*
X0177703Y0149652D01*
X0177569Y0149562D01*
X0177434Y0149475D01*
X0177296Y0149392D01*
X0177157Y0149312D01*
X0177015Y0149236D01*
X0176872Y0149163D01*
X0176727Y0149094D01*
X0176580Y0149028D01*
X0176432Y0148966D01*
X0176282Y0148908D01*
X0176131Y0148853D01*
X0175978Y0148802D01*
X0175824Y0148755D01*
X0175669Y0148712D01*
X0175513Y0148673D01*
X0175357Y0148637D01*
X0175199Y0148606D01*
X0175041Y0148578D01*
X0174882Y0148554D01*
X0174722Y0148534D01*
X0174562Y0148518D01*
X0174402Y0148506D01*
X0174241Y0148498D01*
X0174080Y0148494D01*
X0173920Y0148494D01*
X0173759Y0148498D01*
X0173598Y0148506D01*
X0173438Y0148518D01*
X0173278Y0148534D01*
X0173118Y0148554D01*
X0172959Y0148578D01*
X0172801Y0148606D01*
X0172643Y0148637D01*
X0172487Y0148673D01*
X0172331Y0148712D01*
X0172176Y0148755D01*
X0172022Y0148802D01*
X0171869Y0148853D01*
X0171718Y0148908D01*
X0171568Y0148966D01*
X0171420Y0149028D01*
X0171273Y0149094D01*
X0171128Y0149163D01*
X0170985Y0149236D01*
X0170843Y0149312D01*
X0170704Y0149392D01*
X0170566Y0149475D01*
X0170431Y0149562D01*
X0170297Y0149652D01*
X0170166Y0149745D01*
X0170038Y0149841D01*
X0169912Y0149941D01*
X0169788Y0150044D01*
X0169667Y0150149D01*
X0169548Y0150258D01*
X0169432Y0150369D01*
X0169319Y0150484D01*
X0169209Y0150601D01*
X0169102Y0150721D01*
X0168998Y0150843D01*
X0168897Y0150968D01*
X0168799Y0151096D01*
X0168704Y0151226D01*
X0168612Y0151358D01*
X0168524Y0151492D01*
X0168439Y0151629D01*
X0168357Y0151767D01*
X0168279Y0151908D01*
X0168205Y0152050D01*
X0168134Y0152194D01*
X0168066Y0152340D01*
X0168003Y0152488D01*
X0167942Y0152637D01*
X0167886Y0152788D01*
X0167833Y0152940D01*
X0167784Y0153093D01*
X0167739Y0153247D01*
X0167698Y0153402D01*
X0167660Y0153559D01*
X0167627Y0153716D01*
X0167597Y0153874D01*
X0167571Y0154033D01*
X0167550Y0154192D01*
X0167532Y0154352D01*
X0167518Y0154512D01*
X0167508Y0154673D01*
X0167502Y0154833D01*
X0167500Y0154994D01*
D20*
X0168882Y0115904D03*
X0171441Y0115904D03*
X0174000Y0115904D03*
X0176559Y0115904D03*
X0179118Y0115904D03*
D21*
X0188504Y0105274D03*
X0159496Y0105274D03*
D22*
X0174000Y0105274D03*
D23*
X0170063Y0185427D03*
X0177937Y0185427D03*
D24*
X0187386Y0205900D03*
X0160614Y0205900D03*
M02*
