G75*
G70*
%OFA0B0*%
%FSLAX25Y25*%
%IPPOS*%
%LPD*%
%AMOC8*
5,1,8,0,0,1.08239X$1,22.5*
%
%ADD10C,0.00800*%
%ADD17C,0.01000*%
%ADD19R,0.03150X0.03940*%
%ADD22R,0.03560X0.03560*%
%ADD26C,0.02400*%
%ADD27C,0.05150*%
%ADD30R,0.05910X0.02760*%
%ADD31C,0.03200*%
%ADD33OC8,0.06600*%
%ADD38C,0.06600*%
%ADD39C,0.00000*%
%ADD41R,0.05150X0.05150*%
X0011000Y0011000D02*
G75*
%LPD*%
D39*
X0011000Y0011000D02*
X0011000Y0199200D01*
X0080920Y0199200D01*
X0080920Y0011000D01*
X0011000Y0011000D01*
X0071730Y0023090D02*
X0071750Y0023350D01*
X0071810Y0023610D01*
X0071910Y0023860D01*
X0072040Y0024090D01*
X0072200Y0024290D01*
X0072400Y0024470D01*
X0072620Y0024620D01*
X0072850Y0024740D01*
X0073110Y0024820D01*
X0073370Y0024860D01*
X0073630Y0024860D01*
X0073890Y0024820D01*
X0074150Y0024740D01*
X0074390Y0024620D01*
X0074600Y0024470D01*
X0074800Y0024290D01*
X0074960Y0024090D01*
X0075090Y0023860D01*
X0075190Y0023610D01*
X0075250Y0023350D01*
X0075270Y0023090D01*
X0075250Y0022830D01*
X0075190Y0022570D01*
X0075090Y0022320D01*
X0074960Y0022090D01*
X0074800Y0021890D01*
X0074600Y0021710D01*
X0074380Y0021560D01*
X0074150Y0021440D01*
X0073890Y0021360D01*
X0073630Y0021320D01*
X0073370Y0021320D01*
X0073110Y0021360D01*
X0072850Y0021440D01*
X0072610Y0021560D01*
X0072400Y0021710D01*
X0072200Y0021890D01*
X0072040Y0022090D01*
X0071910Y0022320D01*
X0071810Y0022570D01*
X0071750Y0022830D01*
X0071730Y0023090D01*
X0071730Y0034910D02*
X0071750Y0035170D01*
X0071810Y0035430D01*
X0071910Y0035680D01*
X0072040Y0035910D01*
X0072200Y0036110D01*
X0072400Y0036290D01*
X0072620Y0036440D01*
X0072850Y0036560D01*
X0073110Y0036640D01*
X0073370Y0036680D01*
X0073630Y0036680D01*
X0073890Y0036640D01*
X0074150Y0036560D01*
X0074390Y0036440D01*
X0074600Y0036290D01*
X0074800Y0036110D01*
X0074960Y0035910D01*
X0075090Y0035680D01*
X0075190Y0035430D01*
X0075250Y0035170D01*
X0075270Y0034910D01*
X0075250Y0034650D01*
X0075190Y0034390D01*
X0075090Y0034140D01*
X0074960Y0033910D01*
X0074800Y0033710D01*
X0074600Y0033530D01*
X0074380Y0033380D01*
X0074150Y0033260D01*
X0073890Y0033180D01*
X0073630Y0033140D01*
X0073370Y0033140D01*
X0073110Y0033180D01*
X0072850Y0033260D01*
X0072610Y0033380D01*
X0072400Y0033530D01*
X0072200Y0033710D01*
X0072040Y0033910D01*
X0071910Y0034140D01*
X0071810Y0034390D01*
X0071750Y0034650D01*
X0071730Y0034910D01*
D27*
X0061000Y0170500D03*
X0051000Y0170500D03*
X0051000Y0180500D03*
X0041000Y0180500D03*
X0041000Y0170500D03*
X0031000Y0170500D03*
X0031000Y0180500D03*
D41*
X0061000Y0180500D03*
D38*
X0076000Y0180500D03*
X0076000Y0170500D03*
X0076000Y0160500D03*
X0076000Y0150500D03*
X0076000Y0140500D03*
X0076000Y0130500D03*
X0076000Y0120500D03*
X0076000Y0110500D03*
X0076000Y0100500D03*
X0076000Y0090500D03*
X0076000Y0080500D03*
X0076000Y0070500D03*
X0076000Y0060500D03*
X0076000Y0050500D03*
X0057500Y0020500D03*
X0047500Y0020500D03*
X0032500Y0020500D03*
X0022500Y0020500D03*
X0016000Y0031000D03*
X0016000Y0041000D03*
X0016000Y0050500D03*
X0016000Y0060500D03*
X0016000Y0070500D03*
X0016000Y0080500D03*
X0016000Y0090500D03*
X0016000Y0100500D03*
X0016000Y0110500D03*
X0016000Y0120500D03*
X0016000Y0130500D03*
X0016000Y0140500D03*
X0016000Y0150500D03*
X0016000Y0160500D03*
X0016000Y0170500D03*
X0016000Y0180500D03*
X0016000Y0190500D03*
X0076000Y0190500D03*
D33*
X0061000Y0150500D03*
X0061000Y0140500D03*
X0061000Y0130500D03*
X0061000Y0120500D03*
X0061000Y0110500D03*
X0061000Y0100500D03*
X0051000Y0100500D03*
X0051000Y0110500D03*
X0051000Y0120500D03*
X0051000Y0130500D03*
X0051000Y0140500D03*
X0051000Y0150500D03*
X0041000Y0150500D03*
X0041000Y0140500D03*
X0041000Y0130500D03*
X0041000Y0120500D03*
X0041000Y0110500D03*
X0041000Y0100500D03*
X0031000Y0100500D03*
X0031000Y0110500D03*
X0031000Y0120500D03*
X0031000Y0130500D03*
X0031000Y0140500D03*
X0031000Y0150500D03*
D19*
X0069560Y0043370D03*
X0077440Y0043370D03*
X0077440Y0014630D03*
X0069560Y0014630D03*
D30*
X0066610Y0020140D03*
X0066610Y0031950D03*
X0066610Y0037860D03*
D17*
X0067700Y0035380D02*
X0070020Y0035380D01*
X0070250Y0035610D01*
X0070230Y0035560D01*
X0070230Y0034250D01*
X0070250Y0034200D01*
X0070020Y0034430D01*
X0063200Y0034430D01*
X0063020Y0034250D01*
X0060460Y0034250D01*
X0059490Y0034650D01*
X0018570Y0034650D01*
X0018490Y0034730D01*
X0016880Y0035400D01*
X0015120Y0035400D01*
X0013510Y0034730D01*
X0012500Y0033720D01*
X0012500Y0037710D01*
X0012870Y0037340D01*
X0013480Y0036890D01*
X0014160Y0036550D01*
X0014880Y0036320D01*
X0015520Y0036220D01*
X0015520Y0040520D01*
X0016480Y0040520D01*
X0016480Y0041480D01*
X0015520Y0041480D01*
X0015520Y0045780D01*
X0014880Y0045680D01*
X0014160Y0045450D01*
X0013480Y0045110D01*
X0012870Y0044660D01*
X0012500Y0044290D01*
X0012500Y0047780D01*
X0013510Y0046770D01*
X0015120Y0046100D01*
X0016880Y0046100D01*
X0018490Y0046770D01*
X0019520Y0047800D01*
X0036540Y0047800D01*
X0037530Y0048210D01*
X0044440Y0055120D01*
X0045060Y0055120D01*
X0051970Y0048210D01*
X0052960Y0047800D01*
X0054040Y0047800D01*
X0055560Y0047800D01*
X0061800Y0038490D01*
X0061990Y0038130D01*
X0062090Y0038050D01*
X0062170Y0037940D01*
X0062510Y0037710D01*
X0062560Y0037670D01*
X0062560Y0036020D01*
X0063200Y0035380D01*
X0065470Y0035380D01*
X0066350Y0035120D01*
X0067420Y0035230D01*
X0067700Y0035380D01*
X0070660Y0039690D02*
X0070050Y0040300D01*
X0071590Y0040300D01*
X0072240Y0040950D01*
X0072240Y0045790D01*
X0071590Y0046440D01*
X0067530Y0046440D01*
X0066890Y0045790D01*
X0066890Y0041110D01*
X0066130Y0041730D01*
X0059390Y0051780D01*
X0059290Y0052030D01*
X0059100Y0052220D01*
X0058940Y0052450D01*
X0058720Y0052600D01*
X0058530Y0052790D01*
X0058280Y0052890D01*
X0058050Y0053040D01*
X0057790Y0053100D01*
X0057540Y0053200D01*
X0057260Y0053200D01*
X0057000Y0053250D01*
X0056730Y0053200D01*
X0054620Y0053200D01*
X0048880Y0058940D01*
X0048880Y0060240D01*
X0048240Y0060880D01*
X0043760Y0060880D01*
X0043580Y0060700D01*
X0042960Y0060700D01*
X0041970Y0060290D01*
X0041210Y0059530D01*
X0034880Y0053200D01*
X0019520Y0053200D01*
X0018490Y0054230D01*
X0016880Y0054900D01*
X0015120Y0054900D01*
X0013510Y0054230D01*
X0012500Y0053220D01*
X0012500Y0057210D01*
X0012870Y0056840D01*
X0013480Y0056390D01*
X0014160Y0056050D01*
X0014880Y0055820D01*
X0015520Y0055720D01*
X0015520Y0060020D01*
X0016480Y0060020D01*
X0016480Y0060980D01*
X0015520Y0060980D01*
X0015520Y0065280D01*
X0014880Y0065180D01*
X0014160Y0064950D01*
X0013480Y0064610D01*
X0012870Y0064160D01*
X0012500Y0063790D01*
X0012500Y0067780D01*
X0013510Y0066770D01*
X0015120Y0066100D01*
X0016880Y0066100D01*
X0018490Y0066770D01*
X0019730Y0068010D01*
X0020400Y0069620D01*
X0020400Y0071380D01*
X0019730Y0072990D01*
X0018490Y0074230D01*
X0016880Y0074900D01*
X0015120Y0074900D01*
X0013510Y0074230D01*
X0012500Y0073220D01*
X0012500Y0077780D01*
X0013510Y0076770D01*
X0015120Y0076100D01*
X0016880Y0076100D01*
X0017070Y0076180D01*
X0021700Y0071550D01*
X0023050Y0070200D01*
X0069550Y0070200D01*
X0070200Y0069550D01*
X0071550Y0068200D01*
X0072190Y0068200D01*
X0072270Y0068010D01*
X0073510Y0066770D01*
X0075120Y0066100D01*
X0076880Y0066100D01*
X0078490Y0066770D01*
X0079420Y0067700D01*
X0079420Y0063300D01*
X0078490Y0064230D01*
X0076880Y0064900D01*
X0075120Y0064900D01*
X0073510Y0064230D01*
X0072270Y0062990D01*
X0071600Y0061380D01*
X0071600Y0059620D01*
X0072270Y0058010D01*
X0073510Y0056770D01*
X0075120Y0056100D01*
X0076880Y0056100D01*
X0078490Y0056770D01*
X0079420Y0057700D01*
X0079420Y0053300D01*
X0078490Y0054230D01*
X0076880Y0054900D01*
X0075120Y0054900D01*
X0073510Y0054230D01*
X0072270Y0052990D01*
X0071600Y0051380D01*
X0071600Y0049620D01*
X0072270Y0048010D01*
X0073510Y0046770D01*
X0075080Y0046120D01*
X0074760Y0045790D01*
X0074760Y0040950D01*
X0075410Y0040300D01*
X0079420Y0040300D01*
X0079420Y0017700D01*
X0075410Y0017700D01*
X0074760Y0017050D01*
X0074760Y0012500D01*
X0072240Y0012500D01*
X0072240Y0017050D01*
X0071590Y0017700D01*
X0070050Y0017700D01*
X0070660Y0018310D01*
X0070660Y0021390D01*
X0070730Y0021240D01*
X0071650Y0020320D01*
X0072850Y0019820D01*
X0074150Y0019820D01*
X0075350Y0020320D01*
X0076270Y0021240D01*
X0076770Y0022440D01*
X0076770Y0023750D01*
X0076270Y0024950D01*
X0075350Y0025870D01*
X0074150Y0026370D01*
X0072850Y0026370D01*
X0071650Y0025870D01*
X0070730Y0024950D01*
X0070230Y0023750D01*
X0070230Y0022440D01*
X0070250Y0022390D01*
X0070020Y0022620D01*
X0063200Y0022620D01*
X0062560Y0021980D01*
X0062560Y0018310D01*
X0063200Y0017660D01*
X0067500Y0017660D01*
X0066890Y0017050D01*
X0066890Y0012500D01*
X0012500Y0012500D01*
X0012500Y0028280D01*
X0013510Y0027270D01*
X0015120Y0026600D01*
X0016880Y0026600D01*
X0018490Y0027270D01*
X0019730Y0028510D01*
X0020040Y0029250D01*
X0059490Y0029250D01*
X0060460Y0029650D01*
X0063020Y0029650D01*
X0063200Y0029470D01*
X0070020Y0029470D01*
X0070660Y0030120D01*
X0070660Y0033210D01*
X0070730Y0033050D01*
X0071650Y0032130D01*
X0072850Y0031630D01*
X0074150Y0031630D01*
X0075350Y0032130D01*
X0076270Y0033050D01*
X0076770Y0034250D01*
X0076770Y0035560D01*
X0076270Y0036760D01*
X0075350Y0037680D01*
X0074150Y0038180D01*
X0072850Y0038180D01*
X0071650Y0037680D01*
X0070730Y0036760D01*
X0070660Y0036610D01*
X0070660Y0039690D01*
X0070660Y0039510D02*
X0079420Y0039510D01*
X0079420Y0038530D02*
X0070660Y0038530D01*
X0070660Y0037540D02*
X0071510Y0037540D01*
X0070240Y0035570D02*
X0070210Y0035570D01*
X0070230Y0034590D02*
X0059640Y0034590D01*
X0061110Y0039510D02*
X0020560Y0039510D01*
X0020450Y0039160D02*
X0020680Y0039880D01*
X0020780Y0040520D01*
X0016480Y0040520D01*
X0016480Y0036220D01*
X0017120Y0036320D01*
X0017840Y0036550D01*
X0018520Y0036890D01*
X0019130Y0037340D01*
X0019660Y0037870D01*
X0020110Y0038480D01*
X0020450Y0039160D01*
X0020130Y0038530D02*
X0061770Y0038530D01*
X0062560Y0037540D02*
X0019330Y0037540D01*
X0017860Y0036560D02*
X0062560Y0036560D01*
X0063010Y0035570D02*
X0012500Y0035570D01*
X0012500Y0034590D02*
X0013370Y0034590D01*
X0014140Y0036560D02*
X0012500Y0036560D01*
X0012500Y0037540D02*
X0012670Y0037540D01*
X0015520Y0037540D02*
X0016480Y0037540D01*
X0016480Y0036560D02*
X0015520Y0036560D01*
X0015520Y0038530D02*
X0016480Y0038530D01*
X0016480Y0039510D02*
X0015520Y0039510D01*
X0015520Y0040500D02*
X0016480Y0040500D01*
X0016480Y0041480D02*
X0020780Y0041480D01*
X0020680Y0042120D01*
X0020450Y0042840D01*
X0020110Y0043520D01*
X0019660Y0044130D01*
X0019130Y0044660D01*
X0018520Y0045110D01*
X0017840Y0045450D01*
X0017120Y0045680D01*
X0016480Y0045780D01*
X0016480Y0041480D01*
X0016480Y0041490D02*
X0015520Y0041490D01*
X0015520Y0042470D02*
X0016480Y0042470D01*
X0016480Y0043460D02*
X0015520Y0043460D01*
X0015520Y0044440D02*
X0016480Y0044440D01*
X0016480Y0045430D02*
X0015520Y0045430D01*
X0014110Y0045430D02*
X0012500Y0045430D01*
X0012500Y0046410D02*
X0014380Y0046410D01*
X0012880Y0047400D02*
X0012500Y0047400D01*
X0012500Y0044440D02*
X0012650Y0044440D01*
X0012500Y0053310D02*
X0012580Y0053310D01*
X0012500Y0054290D02*
X0013650Y0054290D01*
X0013750Y0056260D02*
X0012500Y0056260D01*
X0012500Y0055280D02*
X0036960Y0055280D01*
X0035970Y0054290D02*
X0018350Y0054290D01*
X0019420Y0053310D02*
X0034990Y0053310D01*
X0037700Y0048380D02*
X0051800Y0048380D01*
X0050820Y0049370D02*
X0038680Y0049370D01*
X0039670Y0050350D02*
X0049830Y0050350D01*
X0048850Y0051340D02*
X0040650Y0051340D01*
X0041640Y0052320D02*
X0047860Y0052320D01*
X0046880Y0053310D02*
X0042620Y0053310D01*
X0043610Y0054290D02*
X0045890Y0054290D01*
X0048880Y0059220D02*
X0071770Y0059220D01*
X0071600Y0060200D02*
X0048880Y0060200D01*
X0049590Y0058230D02*
X0072180Y0058230D01*
X0073030Y0057250D02*
X0050570Y0057250D01*
X0051560Y0056260D02*
X0074740Y0056260D01*
X0073650Y0054290D02*
X0053530Y0054290D01*
X0054510Y0053310D02*
X0072580Y0053310D01*
X0071990Y0052320D02*
X0059030Y0052320D01*
X0059690Y0051340D02*
X0071600Y0051340D01*
X0071600Y0050350D02*
X0060350Y0050350D01*
X0061010Y0049370D02*
X0071710Y0049370D01*
X0072120Y0048380D02*
X0061670Y0048380D01*
X0062330Y0047400D02*
X0072880Y0047400D01*
X0072240Y0045430D02*
X0074760Y0045430D01*
X0074760Y0044440D02*
X0072240Y0044440D01*
X0072240Y0043460D02*
X0074760Y0043460D01*
X0074760Y0042470D02*
X0072240Y0042470D01*
X0072240Y0041490D02*
X0074760Y0041490D01*
X0075210Y0040500D02*
X0071790Y0040500D01*
X0071620Y0046410D02*
X0074380Y0046410D01*
X0078350Y0054290D02*
X0079420Y0054290D01*
X0079420Y0053310D02*
X0079420Y0053310D01*
X0079420Y0055280D02*
X0052540Y0055280D01*
X0055830Y0047400D02*
X0019120Y0047400D01*
X0019350Y0044440D02*
X0057810Y0044440D01*
X0057150Y0045430D02*
X0017890Y0045430D01*
X0017620Y0046410D02*
X0056490Y0046410D01*
X0058470Y0043460D02*
X0020140Y0043460D01*
X0020570Y0042470D02*
X0059130Y0042470D01*
X0059790Y0041490D02*
X0020780Y0041490D01*
X0020780Y0040500D02*
X0060450Y0040500D01*
X0062990Y0046410D02*
X0067500Y0046410D01*
X0066890Y0045430D02*
X0063650Y0045430D01*
X0064310Y0044440D02*
X0066890Y0044440D01*
X0066890Y0043460D02*
X0064970Y0043460D01*
X0065630Y0042470D02*
X0066890Y0042470D01*
X0066890Y0041490D02*
X0066430Y0041490D01*
X0070660Y0032620D02*
X0071160Y0032620D01*
X0070660Y0031630D02*
X0072850Y0031630D01*
X0074150Y0031630D02*
X0079420Y0031630D01*
X0079420Y0030650D02*
X0070660Y0030650D01*
X0070210Y0029660D02*
X0079420Y0029660D01*
X0079420Y0028680D02*
X0019800Y0028680D01*
X0018920Y0027690D02*
X0079420Y0027690D01*
X0079420Y0026710D02*
X0017140Y0026710D01*
X0018680Y0022770D02*
X0012500Y0022770D01*
X0012500Y0023750D02*
X0019530Y0023750D01*
X0020010Y0024230D02*
X0018770Y0022990D01*
X0018100Y0021380D01*
X0018100Y0019620D01*
X0018770Y0018010D01*
X0020010Y0016770D01*
X0021620Y0016100D01*
X0023380Y0016100D01*
X0024990Y0016770D01*
X0026230Y0018010D01*
X0026900Y0019620D01*
X0026900Y0021380D01*
X0026230Y0022990D01*
X0024990Y0024230D01*
X0023380Y0024900D01*
X0021620Y0024900D01*
X0020010Y0024230D01*
X0021240Y0024740D02*
X0012500Y0024740D01*
X0012500Y0025720D02*
X0071500Y0025720D01*
X0070640Y0024740D02*
X0058760Y0024740D01*
X0058380Y0024900D02*
X0059990Y0024230D01*
X0061230Y0022990D01*
X0061900Y0021380D01*
X0061900Y0019620D01*
X0061230Y0018010D01*
X0059990Y0016770D01*
X0058380Y0016100D01*
X0056620Y0016100D01*
X0055010Y0016770D01*
X0053770Y0018010D01*
X0053100Y0019620D01*
X0053100Y0021380D01*
X0053770Y0022990D01*
X0055010Y0024230D01*
X0056620Y0024900D01*
X0058380Y0024900D01*
X0056240Y0024740D02*
X0048760Y0024740D01*
X0048380Y0024900D02*
X0049990Y0024230D01*
X0051230Y0022990D01*
X0051900Y0021380D01*
X0051900Y0019620D01*
X0051230Y0018010D01*
X0049990Y0016770D01*
X0048380Y0016100D01*
X0046620Y0016100D01*
X0045010Y0016770D01*
X0043770Y0018010D01*
X0043100Y0019620D01*
X0043100Y0021380D01*
X0043770Y0022990D01*
X0045010Y0024230D01*
X0046620Y0024900D01*
X0048380Y0024900D01*
X0046240Y0024740D02*
X0033760Y0024740D01*
X0033380Y0024900D02*
X0031620Y0024900D01*
X0030010Y0024230D01*
X0028770Y0022990D01*
X0028100Y0021380D01*
X0028100Y0019620D01*
X0028770Y0018010D01*
X0030010Y0016770D01*
X0031620Y0016100D01*
X0033380Y0016100D01*
X0034990Y0016770D01*
X0036230Y0018010D01*
X0036900Y0019620D01*
X0036900Y0021380D01*
X0036230Y0022990D01*
X0034990Y0024230D01*
X0033380Y0024900D01*
X0035470Y0023750D02*
X0044530Y0023750D01*
X0043680Y0022770D02*
X0036320Y0022770D01*
X0036730Y0021780D02*
X0043270Y0021780D01*
X0043100Y0020800D02*
X0036900Y0020800D01*
X0036900Y0019810D02*
X0043100Y0019810D01*
X0043430Y0018830D02*
X0036570Y0018830D01*
X0036070Y0017840D02*
X0043930Y0017840D01*
X0044920Y0016860D02*
X0035080Y0016860D01*
X0031240Y0024740D02*
X0023760Y0024740D01*
X0025470Y0023750D02*
X0029530Y0023750D01*
X0028680Y0022770D02*
X0026320Y0022770D01*
X0026730Y0021780D02*
X0028270Y0021780D01*
X0028100Y0020800D02*
X0026900Y0020800D01*
X0026900Y0019810D02*
X0028100Y0019810D01*
X0028430Y0018830D02*
X0026570Y0018830D01*
X0026070Y0017840D02*
X0028930Y0017840D01*
X0029920Y0016860D02*
X0025080Y0016860D01*
X0019920Y0016860D02*
X0012500Y0016860D01*
X0012500Y0017840D02*
X0018930Y0017840D01*
X0018430Y0018830D02*
X0012500Y0018830D01*
X0012500Y0019810D02*
X0018100Y0019810D01*
X0018100Y0020800D02*
X0012500Y0020800D01*
X0012500Y0021780D02*
X0018270Y0021780D01*
X0014860Y0026710D02*
X0012500Y0026710D01*
X0012500Y0027690D02*
X0013080Y0027690D01*
X0012500Y0015870D02*
X0066890Y0015870D01*
X0066890Y0014890D02*
X0012500Y0014890D01*
X0012500Y0013900D02*
X0066890Y0013900D01*
X0066890Y0012920D02*
X0012500Y0012920D01*
X0016480Y0055720D02*
X0017120Y0055820D01*
X0017840Y0056050D01*
X0018520Y0056390D01*
X0019130Y0056840D01*
X0019660Y0057370D01*
X0020110Y0057980D01*
X0020450Y0058660D01*
X0020680Y0059380D01*
X0020780Y0060020D01*
X0016480Y0060020D01*
X0016480Y0055720D01*
X0016480Y0056260D02*
X0015520Y0056260D01*
X0015520Y0057250D02*
X0016480Y0057250D01*
X0016480Y0058230D02*
X0015520Y0058230D01*
X0015520Y0059220D02*
X0016480Y0059220D01*
X0016480Y0060200D02*
X0041880Y0060200D01*
X0040900Y0059220D02*
X0020630Y0059220D01*
X0020230Y0058230D02*
X0039910Y0058230D01*
X0038930Y0057250D02*
X0019530Y0057250D01*
X0020780Y0060980D02*
X0020680Y0061620D01*
X0020450Y0062340D01*
X0020110Y0063020D01*
X0019660Y0063630D01*
X0019130Y0064160D01*
X0018520Y0064610D01*
X0017840Y0064950D01*
X0017120Y0065180D01*
X0016480Y0065280D01*
X0016480Y0060980D01*
X0020780Y0060980D01*
X0020750Y0061190D02*
X0071600Y0061190D01*
X0071930Y0062170D02*
X0020500Y0062170D01*
X0020000Y0063160D02*
X0072430Y0063160D01*
X0073420Y0064140D02*
X0019150Y0064140D01*
X0017300Y0065130D02*
X0079420Y0065130D01*
X0079420Y0066110D02*
X0076900Y0066110D01*
X0075100Y0066110D02*
X0016900Y0066110D01*
X0016480Y0065130D02*
X0015520Y0065130D01*
X0014700Y0065130D02*
X0012500Y0065130D01*
X0012500Y0066110D02*
X0015100Y0066110D01*
X0015520Y0064140D02*
X0016480Y0064140D01*
X0016480Y0063160D02*
X0015520Y0063160D01*
X0015520Y0062170D02*
X0016480Y0062170D01*
X0016480Y0061190D02*
X0015520Y0061190D01*
X0012850Y0064140D02*
X0012500Y0064140D01*
X0012500Y0067100D02*
X0013180Y0067100D01*
X0013270Y0073990D02*
X0012500Y0073990D01*
X0012500Y0074980D02*
X0018270Y0074980D01*
X0018730Y0073990D02*
X0019260Y0073990D01*
X0019720Y0073010D02*
X0020240Y0073010D01*
X0020130Y0072020D02*
X0021230Y0072020D01*
X0020400Y0071040D02*
X0022210Y0071040D01*
X0020400Y0070050D02*
X0069700Y0070050D01*
X0070680Y0069070D02*
X0020170Y0069070D01*
X0019760Y0068080D02*
X0072240Y0068080D01*
X0073180Y0067100D02*
X0018820Y0067100D01*
X0017290Y0075960D02*
X0012500Y0075960D01*
X0012500Y0076950D02*
X0013330Y0076950D01*
X0012500Y0083220D02*
X0012500Y0087780D01*
X0013510Y0086770D01*
X0015120Y0086100D01*
X0016880Y0086100D01*
X0018490Y0086770D01*
X0019730Y0088010D01*
X0020400Y0089620D01*
X0020400Y0091380D01*
X0019730Y0092990D01*
X0018490Y0094230D01*
X0016880Y0094900D01*
X0015120Y0094900D01*
X0013510Y0094230D01*
X0012500Y0093220D01*
X0012500Y0097780D01*
X0013510Y0096770D01*
X0015120Y0096100D01*
X0016880Y0096100D01*
X0018490Y0096770D01*
X0019730Y0098010D01*
X0020400Y0099620D01*
X0020400Y0101380D01*
X0019730Y0102990D01*
X0018490Y0104230D01*
X0016880Y0104900D01*
X0015120Y0104900D01*
X0013510Y0104230D01*
X0012500Y0103220D01*
X0012500Y0107780D01*
X0013510Y0106770D01*
X0015120Y0106100D01*
X0016880Y0106100D01*
X0018490Y0106770D01*
X0019730Y0108010D01*
X0020400Y0109620D01*
X0020400Y0111380D01*
X0019730Y0112990D01*
X0018490Y0114230D01*
X0016880Y0114900D01*
X0015120Y0114900D01*
X0013510Y0114230D01*
X0012500Y0113220D01*
X0012500Y0117780D01*
X0013510Y0116770D01*
X0015120Y0116100D01*
X0016880Y0116100D01*
X0018490Y0116770D01*
X0019730Y0118010D01*
X0020400Y0119620D01*
X0020400Y0121380D01*
X0019730Y0122990D01*
X0018490Y0124230D01*
X0016880Y0124900D01*
X0015120Y0124900D01*
X0013510Y0124230D01*
X0012500Y0123220D01*
X0012500Y0127780D01*
X0013510Y0126770D01*
X0015120Y0126100D01*
X0016880Y0126100D01*
X0018490Y0126770D01*
X0019730Y0128010D01*
X0020400Y0129620D01*
X0020400Y0131380D01*
X0019730Y0132990D01*
X0018490Y0134230D01*
X0016880Y0134900D01*
X0015120Y0134900D01*
X0013510Y0134230D01*
X0012500Y0133220D01*
X0012500Y0137780D01*
X0013510Y0136770D01*
X0015120Y0136100D01*
X0016880Y0136100D01*
X0018490Y0136770D01*
X0019730Y0138010D01*
X0020400Y0139620D01*
X0020400Y0141380D01*
X0019730Y0142990D01*
X0018490Y0144230D01*
X0016880Y0144900D01*
X0015120Y0144900D01*
X0013510Y0144230D01*
X0012500Y0143220D01*
X0012500Y0147780D01*
X0013510Y0146770D01*
X0015120Y0146100D01*
X0016880Y0146100D01*
X0018490Y0146770D01*
X0019730Y0148010D01*
X0020400Y0149620D01*
X0020400Y0151380D01*
X0019730Y0152990D01*
X0018490Y0154230D01*
X0016880Y0154900D01*
X0015120Y0154900D01*
X0013510Y0154230D01*
X0012500Y0153220D01*
X0012500Y0157780D01*
X0013510Y0156770D01*
X0015120Y0156100D01*
X0016880Y0156100D01*
X0018490Y0156770D01*
X0019730Y0158010D01*
X0020400Y0159620D01*
X0020400Y0161380D01*
X0019730Y0162990D01*
X0018490Y0164230D01*
X0016880Y0164900D01*
X0015120Y0164900D01*
X0013510Y0164230D01*
X0012500Y0163220D01*
X0012500Y0167210D01*
X0012870Y0166840D01*
X0013480Y0166390D01*
X0014160Y0166050D01*
X0014880Y0165820D01*
X0015520Y0165720D01*
X0015520Y0170020D01*
X0016480Y0170020D01*
X0016480Y0170980D01*
X0015520Y0170980D01*
X0015520Y0175280D01*
X0014880Y0175180D01*
X0014160Y0174950D01*
X0013480Y0174610D01*
X0012870Y0174160D01*
X0012500Y0173790D01*
X0012500Y0177780D01*
X0013510Y0176770D01*
X0015120Y0176100D01*
X0016880Y0176100D01*
X0018490Y0176770D01*
X0019730Y0178010D01*
X0020400Y0179620D01*
X0020400Y0181380D01*
X0019730Y0182990D01*
X0018490Y0184230D01*
X0016880Y0184900D01*
X0015120Y0184900D01*
X0013510Y0184230D01*
X0012500Y0183220D01*
X0012500Y0187780D01*
X0013510Y0186770D01*
X0015120Y0186100D01*
X0016880Y0186100D01*
X0018490Y0186770D01*
X0019730Y0188010D01*
X0020400Y0189620D01*
X0020400Y0191380D01*
X0019730Y0192990D01*
X0018490Y0194230D01*
X0016880Y0194900D01*
X0015120Y0194900D01*
X0013510Y0194230D01*
X0012500Y0193220D01*
X0012500Y0197700D01*
X0079420Y0197700D01*
X0079420Y0193300D01*
X0078490Y0194230D01*
X0076880Y0194900D01*
X0075120Y0194900D01*
X0073510Y0194230D01*
X0072270Y0192990D01*
X0071600Y0191380D01*
X0071600Y0189620D01*
X0072270Y0188010D01*
X0073510Y0186770D01*
X0075120Y0186100D01*
X0076880Y0186100D01*
X0078490Y0186770D01*
X0079420Y0187700D01*
X0079420Y0183300D01*
X0078490Y0184230D01*
X0076880Y0184900D01*
X0075120Y0184900D01*
X0073910Y0184400D01*
X0070000Y0189510D01*
X0070000Y0189620D01*
X0069630Y0189990D01*
X0069310Y0190400D01*
X0069200Y0190420D01*
X0069120Y0190500D01*
X0068600Y0190500D01*
X0068080Y0190570D01*
X0067990Y0190500D01*
X0051080Y0190500D01*
X0050550Y0190560D01*
X0050470Y0190500D01*
X0050380Y0190500D01*
X0050000Y0190120D01*
X0045470Y0186500D01*
X0045380Y0186500D01*
X0045000Y0186120D01*
X0044580Y0185780D01*
X0044570Y0185690D01*
X0044500Y0185620D01*
X0044500Y0185080D01*
X0044440Y0184550D01*
X0044500Y0184470D01*
X0044500Y0181650D01*
X0044120Y0182580D01*
X0043080Y0183620D01*
X0041730Y0184170D01*
X0040270Y0184170D01*
X0038920Y0183620D01*
X0037880Y0182580D01*
X0037330Y0181230D01*
X0037330Y0179770D01*
X0037880Y0178420D01*
X0038920Y0177380D01*
X0040270Y0176830D01*
X0041000Y0176830D01*
X0041000Y0174170D01*
X0040270Y0174170D01*
X0038920Y0173620D01*
X0037880Y0172580D01*
X0037330Y0171230D01*
X0037330Y0169770D01*
X0037880Y0168420D01*
X0038920Y0167380D01*
X0040270Y0166830D01*
X0041730Y0166830D01*
X0043080Y0167380D01*
X0044120Y0168420D01*
X0044670Y0169770D01*
X0044670Y0171230D01*
X0044120Y0172580D01*
X0044000Y0172700D01*
X0044000Y0175000D01*
X0046120Y0175000D01*
X0046620Y0175500D01*
X0047500Y0176380D01*
X0047500Y0179350D01*
X0047880Y0178420D01*
X0048920Y0177380D01*
X0050270Y0176830D01*
X0051730Y0176830D01*
X0053080Y0177380D01*
X0054120Y0178420D01*
X0054670Y0179770D01*
X0054670Y0181230D01*
X0054120Y0182580D01*
X0053140Y0183560D01*
X0053230Y0184000D01*
X0057230Y0184000D01*
X0057220Y0184000D01*
X0057030Y0183650D01*
X0056930Y0183270D01*
X0056930Y0180790D01*
X0060710Y0180790D01*
X0060710Y0180210D01*
X0061290Y0180210D01*
X0061290Y0180790D01*
X0065070Y0180790D01*
X0065070Y0183270D01*
X0064970Y0183650D01*
X0064780Y0184000D01*
X0064770Y0184000D01*
X0065880Y0184000D01*
X0068000Y0181880D01*
X0068000Y0173380D01*
X0068880Y0172500D01*
X0071500Y0169880D01*
X0071500Y0169880D01*
X0071600Y0169780D01*
X0071600Y0169620D01*
X0072270Y0168010D01*
X0073510Y0166770D01*
X0075120Y0166100D01*
X0076880Y0166100D01*
X0078490Y0166770D01*
X0079420Y0167700D01*
X0079420Y0163300D01*
X0078490Y0164230D01*
X0076880Y0164900D01*
X0075120Y0164900D01*
X0073510Y0164230D01*
X0072270Y0162990D01*
X0071600Y0161380D01*
X0071600Y0159620D01*
X0072270Y0158010D01*
X0073510Y0156770D01*
X0075120Y0156100D01*
X0076880Y0156100D01*
X0078490Y0156770D01*
X0079420Y0157700D01*
X0079420Y0153300D01*
X0078490Y0154230D01*
X0076880Y0154900D01*
X0075120Y0154900D01*
X0073510Y0154230D01*
X0072270Y0152990D01*
X0071600Y0151380D01*
X0071600Y0149620D01*
X0072270Y0148010D01*
X0073510Y0146770D01*
X0075120Y0146100D01*
X0076880Y0146100D01*
X0078490Y0146770D01*
X0079420Y0147700D01*
X0079420Y0143300D01*
X0078490Y0144230D01*
X0076880Y0144900D01*
X0075120Y0144900D01*
X0073510Y0144230D01*
X0072270Y0142990D01*
X0071600Y0141380D01*
X0071600Y0139620D01*
X0072270Y0138010D01*
X0073510Y0136770D01*
X0075120Y0136100D01*
X0076880Y0136100D01*
X0078490Y0136770D01*
X0079420Y0137700D01*
X0079420Y0133300D01*
X0078490Y0134230D01*
X0076880Y0134900D01*
X0075120Y0134900D01*
X0073510Y0134230D01*
X0072270Y0132990D01*
X0071600Y0131380D01*
X0071600Y0129620D01*
X0072270Y0128010D01*
X0073510Y0126770D01*
X0075120Y0126100D01*
X0076880Y0126100D01*
X0078490Y0126770D01*
X0079420Y0127700D01*
X0079420Y0123300D01*
X0078490Y0124230D01*
X0076880Y0124900D01*
X0075120Y0124900D01*
X0073510Y0124230D01*
X0072270Y0122990D01*
X0071600Y0121380D01*
X0071600Y0119620D01*
X0072270Y0118010D01*
X0073510Y0116770D01*
X0075120Y0116100D01*
X0076880Y0116100D01*
X0078490Y0116770D01*
X0079420Y0117700D01*
X0079420Y0113300D01*
X0078490Y0114230D01*
X0076880Y0114900D01*
X0075120Y0114900D01*
X0073510Y0114230D01*
X0072270Y0112990D01*
X0071600Y0111380D01*
X0071600Y0109620D01*
X0072270Y0108010D01*
X0073510Y0106770D01*
X0075120Y0106100D01*
X0076880Y0106100D01*
X0078490Y0106770D01*
X0079420Y0107700D01*
X0079420Y0103300D01*
X0078490Y0104230D01*
X0076880Y0104900D01*
X0075120Y0104900D01*
X0073510Y0104230D01*
X0072270Y0102990D01*
X0071600Y0101380D01*
X0071600Y0099620D01*
X0072270Y0098010D01*
X0073510Y0096770D01*
X0075120Y0096100D01*
X0076880Y0096100D01*
X0078490Y0096770D01*
X0079420Y0097700D01*
X0079420Y0093300D01*
X0078490Y0094230D01*
X0076880Y0094900D01*
X0075120Y0094900D01*
X0073510Y0094230D01*
X0072270Y0092990D01*
X0071600Y0091380D01*
X0071600Y0089620D01*
X0072270Y0088010D01*
X0073510Y0086770D01*
X0075120Y0086100D01*
X0076880Y0086100D01*
X0078490Y0086770D01*
X0079420Y0087700D01*
X0079420Y0083870D01*
X0079130Y0084160D01*
X0078520Y0084610D01*
X0077840Y0084950D01*
X0077120Y0085180D01*
X0076480Y0085280D01*
X0076480Y0080980D01*
X0075520Y0080980D01*
X0075520Y0080020D01*
X0076480Y0080020D01*
X0076480Y0075720D01*
X0077120Y0075820D01*
X0077840Y0076050D01*
X0078520Y0076390D01*
X0079130Y0076840D01*
X0079420Y0077130D01*
X0079420Y0073300D01*
X0078490Y0074230D01*
X0076880Y0074900D01*
X0075120Y0074900D01*
X0073510Y0074230D01*
X0072770Y0073490D01*
X0071450Y0074800D01*
X0024950Y0074800D01*
X0020320Y0079430D01*
X0020400Y0079620D01*
X0020400Y0081380D01*
X0019730Y0082990D01*
X0018490Y0084230D01*
X0016880Y0084900D01*
X0015120Y0084900D01*
X0013510Y0084230D01*
X0012500Y0083220D01*
X0012500Y0083840D02*
X0013120Y0083840D01*
X0012500Y0084830D02*
X0014940Y0084830D01*
X0017060Y0084830D02*
X0073920Y0084830D01*
X0074160Y0084950D02*
X0073480Y0084610D01*
X0072870Y0084160D01*
X0072340Y0083630D01*
X0071890Y0083020D01*
X0071550Y0082340D01*
X0071320Y0081620D01*
X0071220Y0080980D01*
X0075520Y0080980D01*
X0075520Y0085280D01*
X0074880Y0085180D01*
X0074160Y0084950D01*
X0075520Y0084830D02*
X0076480Y0084830D01*
X0076480Y0083840D02*
X0075520Y0083840D01*
X0075520Y0082860D02*
X0076480Y0082860D01*
X0076480Y0081870D02*
X0075520Y0081870D01*
X0075520Y0080890D02*
X0020400Y0080890D01*
X0020400Y0079900D02*
X0071240Y0079900D01*
X0071220Y0080020D02*
X0071320Y0079380D01*
X0071550Y0078660D01*
X0071890Y0077980D01*
X0072340Y0077370D01*
X0072870Y0076840D01*
X0073480Y0076390D01*
X0074160Y0076050D01*
X0074880Y0075820D01*
X0075520Y0075720D01*
X0075520Y0080020D01*
X0071220Y0080020D01*
X0071470Y0078920D02*
X0020840Y0078920D01*
X0020200Y0081870D02*
X0071400Y0081870D01*
X0071810Y0082860D02*
X0019790Y0082860D01*
X0018880Y0083840D02*
X0072550Y0083840D01*
X0073480Y0086800D02*
X0018520Y0086800D01*
X0019500Y0087780D02*
X0072500Y0087780D01*
X0071960Y0088770D02*
X0020040Y0088770D01*
X0020400Y0089750D02*
X0071600Y0089750D01*
X0071600Y0090740D02*
X0020400Y0090740D01*
X0020260Y0091720D02*
X0071740Y0091720D01*
X0072150Y0092710D02*
X0019850Y0092710D01*
X0019030Y0093690D02*
X0072970Y0093690D01*
X0074580Y0094680D02*
X0017420Y0094680D01*
X0018190Y0096650D02*
X0028630Y0096650D01*
X0029180Y0096100D02*
X0032820Y0096100D01*
X0035400Y0098680D01*
X0035400Y0102320D01*
X0032820Y0104900D01*
X0029180Y0104900D01*
X0026600Y0102320D01*
X0026600Y0098680D01*
X0029180Y0096100D01*
X0027650Y0097630D02*
X0019350Y0097630D01*
X0019980Y0098620D02*
X0026660Y0098620D01*
X0026600Y0099600D02*
X0020390Y0099600D01*
X0020400Y0100590D02*
X0026600Y0100590D01*
X0026600Y0101570D02*
X0020320Y0101570D01*
X0019910Y0102560D02*
X0026830Y0102560D01*
X0027820Y0103540D02*
X0019180Y0103540D01*
X0017780Y0104530D02*
X0028800Y0104530D01*
X0029180Y0106100D02*
X0032820Y0106100D01*
X0035400Y0108680D01*
X0035400Y0112320D01*
X0032820Y0114900D01*
X0029180Y0114900D01*
X0026600Y0112320D01*
X0026600Y0108680D01*
X0029180Y0106100D01*
X0028780Y0106500D02*
X0017830Y0106500D01*
X0019200Y0107480D02*
X0027800Y0107480D01*
X0026810Y0108470D02*
X0019920Y0108470D01*
X0020330Y0109450D02*
X0026600Y0109450D01*
X0026600Y0110440D02*
X0020400Y0110440D01*
X0020380Y0111420D02*
X0026600Y0111420D01*
X0026680Y0112410D02*
X0019970Y0112410D01*
X0019330Y0113390D02*
X0027670Y0113390D01*
X0028650Y0114380D02*
X0018140Y0114380D01*
X0017470Y0116350D02*
X0028930Y0116350D01*
X0029180Y0116100D02*
X0032820Y0116100D01*
X0035400Y0118680D01*
X0035400Y0122320D01*
X0032820Y0124900D01*
X0029180Y0124900D01*
X0026600Y0122320D01*
X0026600Y0118680D01*
X0029180Y0116100D01*
X0027950Y0117330D02*
X0019050Y0117330D01*
X0019860Y0118320D02*
X0026960Y0118320D01*
X0026600Y0119300D02*
X0020270Y0119300D01*
X0020400Y0120290D02*
X0026600Y0120290D01*
X0026600Y0121270D02*
X0020400Y0121270D01*
X0020040Y0122260D02*
X0026600Y0122260D01*
X0027520Y0123240D02*
X0019480Y0123240D01*
X0018500Y0124230D02*
X0028500Y0124230D01*
X0029180Y0126100D02*
X0032820Y0126100D01*
X0035400Y0128680D01*
X0035400Y0132320D01*
X0032820Y0134900D01*
X0029180Y0134900D01*
X0026600Y0132320D01*
X0026600Y0128680D01*
X0029180Y0126100D01*
X0029080Y0126200D02*
X0017110Y0126200D01*
X0014890Y0126200D02*
X0012500Y0126200D01*
X0012500Y0127180D02*
X0013100Y0127180D01*
X0012500Y0125210D02*
X0079420Y0125210D01*
X0079420Y0124230D02*
X0078500Y0124230D01*
X0079420Y0126200D02*
X0077110Y0126200D01*
X0074890Y0126200D02*
X0062920Y0126200D01*
X0062820Y0126100D02*
X0065400Y0128680D01*
X0065400Y0132320D01*
X0062820Y0134900D01*
X0059180Y0134900D01*
X0056600Y0132320D01*
X0056600Y0128680D01*
X0059180Y0126100D01*
X0062820Y0126100D01*
X0062820Y0124900D02*
X0059180Y0124900D01*
X0056600Y0122320D01*
X0056600Y0118680D01*
X0059180Y0116100D01*
X0062820Y0116100D01*
X0065400Y0118680D01*
X0065400Y0122320D01*
X0062820Y0124900D01*
X0063500Y0124230D02*
X0073500Y0124230D01*
X0072520Y0123240D02*
X0064480Y0123240D01*
X0065400Y0122260D02*
X0071960Y0122260D01*
X0071600Y0121270D02*
X0065400Y0121270D01*
X0065400Y0120290D02*
X0071600Y0120290D01*
X0071730Y0119300D02*
X0065400Y0119300D01*
X0065040Y0118320D02*
X0072140Y0118320D01*
X0072950Y0117330D02*
X0064050Y0117330D01*
X0063070Y0116350D02*
X0074530Y0116350D01*
X0073860Y0114380D02*
X0063350Y0114380D01*
X0062820Y0114900D02*
X0059180Y0114900D01*
X0056600Y0112320D01*
X0056600Y0108680D01*
X0059180Y0106100D01*
X0062820Y0106100D01*
X0065400Y0108680D01*
X0065400Y0112320D01*
X0062820Y0114900D01*
X0064330Y0113390D02*
X0072670Y0113390D01*
X0072030Y0112410D02*
X0065320Y0112410D01*
X0065400Y0111420D02*
X0071620Y0111420D01*
X0071600Y0110440D02*
X0065400Y0110440D01*
X0065400Y0109450D02*
X0071670Y0109450D01*
X0072080Y0108470D02*
X0065190Y0108470D01*
X0064200Y0107480D02*
X0072800Y0107480D01*
X0074170Y0106500D02*
X0063220Y0106500D01*
X0062820Y0104900D02*
X0059180Y0104900D01*
X0056600Y0102320D01*
X0056600Y0098680D01*
X0059180Y0096100D01*
X0062820Y0096100D01*
X0065400Y0098680D01*
X0065400Y0102320D01*
X0062820Y0104900D01*
X0063200Y0104530D02*
X0074220Y0104530D01*
X0072820Y0103540D02*
X0064180Y0103540D01*
X0065170Y0102560D02*
X0072090Y0102560D01*
X0071680Y0101570D02*
X0065400Y0101570D01*
X0065400Y0100590D02*
X0071600Y0100590D01*
X0071610Y0099600D02*
X0065400Y0099600D01*
X0065340Y0098620D02*
X0072020Y0098620D01*
X0072650Y0097630D02*
X0064350Y0097630D01*
X0063370Y0096650D02*
X0073810Y0096650D01*
X0077420Y0094680D02*
X0079420Y0094680D01*
X0079420Y0095660D02*
X0012500Y0095660D01*
X0012500Y0094680D02*
X0014580Y0094680D01*
X0013810Y0096650D02*
X0012500Y0096650D01*
X0012500Y0097630D02*
X0012650Y0097630D01*
X0012500Y0093690D02*
X0012970Y0093690D01*
X0012500Y0086800D02*
X0013480Y0086800D01*
X0012500Y0085810D02*
X0079420Y0085810D01*
X0079420Y0084830D02*
X0078080Y0084830D01*
X0078520Y0086800D02*
X0079420Y0086800D01*
X0079420Y0093690D02*
X0079030Y0093690D01*
X0079420Y0096650D02*
X0078190Y0096650D01*
X0079350Y0097630D02*
X0079420Y0097630D01*
X0079180Y0103540D02*
X0079420Y0103540D01*
X0079420Y0104530D02*
X0077780Y0104530D01*
X0077830Y0106500D02*
X0079420Y0106500D01*
X0079420Y0107480D02*
X0079200Y0107480D01*
X0079420Y0105510D02*
X0012500Y0105510D01*
X0012500Y0104530D02*
X0014220Y0104530D01*
X0014170Y0106500D02*
X0012500Y0106500D01*
X0012500Y0107480D02*
X0012800Y0107480D01*
X0012820Y0103540D02*
X0012500Y0103540D01*
X0012500Y0113390D02*
X0012670Y0113390D01*
X0012500Y0114380D02*
X0013860Y0114380D01*
X0014530Y0116350D02*
X0012500Y0116350D01*
X0012500Y0117330D02*
X0012950Y0117330D01*
X0012500Y0115360D02*
X0079420Y0115360D01*
X0079420Y0114380D02*
X0078140Y0114380D01*
X0079330Y0113390D02*
X0079420Y0113390D01*
X0079420Y0116350D02*
X0077470Y0116350D01*
X0079050Y0117330D02*
X0079420Y0117330D01*
X0079420Y0127180D02*
X0078900Y0127180D01*
X0078650Y0134080D02*
X0079420Y0134080D01*
X0079420Y0135060D02*
X0012500Y0135060D01*
X0012500Y0134080D02*
X0013350Y0134080D01*
X0012500Y0136050D02*
X0079420Y0136050D01*
X0079420Y0137030D02*
X0078750Y0137030D01*
X0078800Y0143930D02*
X0079420Y0143930D01*
X0079420Y0144910D02*
X0012500Y0144910D01*
X0012500Y0143930D02*
X0013200Y0143930D01*
X0012500Y0145900D02*
X0079420Y0145900D01*
X0079420Y0146880D02*
X0078600Y0146880D01*
X0078950Y0153780D02*
X0079420Y0153780D01*
X0079420Y0154760D02*
X0077210Y0154760D01*
X0078400Y0156730D02*
X0079420Y0156730D01*
X0079420Y0155750D02*
X0038880Y0155750D01*
X0039180Y0154900D02*
X0038880Y0154600D01*
X0038880Y0158740D01*
X0038240Y0159380D01*
X0033760Y0159380D01*
X0033120Y0158740D01*
X0033120Y0154600D01*
X0032820Y0154900D01*
X0029180Y0154900D01*
X0026600Y0152320D01*
X0026600Y0148680D01*
X0029180Y0146100D01*
X0032820Y0146100D01*
X0035400Y0148680D01*
X0035400Y0152320D01*
X0034100Y0153620D01*
X0037900Y0153620D01*
X0036600Y0152320D01*
X0036600Y0148680D01*
X0039180Y0146100D01*
X0042820Y0146100D01*
X0045400Y0148680D01*
X0045400Y0152320D01*
X0042820Y0154900D01*
X0039180Y0154900D01*
X0039040Y0154760D02*
X0038880Y0154760D01*
X0038880Y0156730D02*
X0073600Y0156730D01*
X0072560Y0157720D02*
X0038880Y0157720D01*
X0038880Y0158700D02*
X0071980Y0158700D01*
X0071600Y0159690D02*
X0020400Y0159690D01*
X0020400Y0160670D02*
X0071600Y0160670D01*
X0071720Y0161660D02*
X0020280Y0161660D01*
X0019880Y0162640D02*
X0072120Y0162640D01*
X0072900Y0163630D02*
X0019100Y0163630D01*
X0017840Y0166050D02*
X0018520Y0166390D01*
X0019130Y0166840D01*
X0019660Y0167370D01*
X0020110Y0167980D01*
X0020450Y0168660D01*
X0020680Y0169380D01*
X0020780Y0170020D01*
X0016480Y0170020D01*
X0016480Y0165720D01*
X0017120Y0165820D01*
X0017840Y0166050D01*
X0016480Y0166580D02*
X0015520Y0166580D01*
X0015520Y0167570D02*
X0016480Y0167570D01*
X0016480Y0168550D02*
X0015520Y0168550D01*
X0015520Y0169540D02*
X0016480Y0169540D01*
X0016480Y0170520D02*
X0027330Y0170520D01*
X0027330Y0171230D02*
X0027330Y0169770D01*
X0027880Y0168420D01*
X0028920Y0167380D01*
X0030270Y0166830D01*
X0031730Y0166830D01*
X0033080Y0167380D01*
X0034120Y0168420D01*
X0034670Y0169770D01*
X0034670Y0171230D01*
X0034120Y0172580D01*
X0033080Y0173620D01*
X0031730Y0174170D01*
X0030270Y0174170D01*
X0028920Y0173620D01*
X0027880Y0172580D01*
X0027330Y0171230D01*
X0027440Y0171510D02*
X0020700Y0171510D01*
X0020680Y0171620D02*
X0020450Y0172340D01*
X0020110Y0173020D01*
X0019660Y0173630D01*
X0019130Y0174160D01*
X0018520Y0174610D01*
X0017840Y0174950D01*
X0017120Y0175180D01*
X0016480Y0175280D01*
X0016480Y0170980D01*
X0020780Y0170980D01*
X0020680Y0171620D01*
X0020370Y0172490D02*
X0027850Y0172490D01*
X0027420Y0169540D02*
X0020710Y0169540D01*
X0020390Y0168550D02*
X0027830Y0168550D01*
X0028740Y0167570D02*
X0019800Y0167570D01*
X0018770Y0166580D02*
X0073970Y0166580D01*
X0072710Y0167570D02*
X0063260Y0167570D01*
X0063080Y0167380D02*
X0064120Y0168420D01*
X0064670Y0169770D01*
X0064670Y0171230D01*
X0064120Y0172580D01*
X0063080Y0173620D01*
X0061730Y0174170D01*
X0060270Y0174170D01*
X0058920Y0173620D01*
X0057880Y0172580D01*
X0057330Y0171230D01*
X0057330Y0169770D01*
X0057880Y0168420D01*
X0058920Y0167380D01*
X0060270Y0166830D01*
X0061730Y0166830D01*
X0063080Y0167380D01*
X0064170Y0168550D02*
X0072050Y0168550D01*
X0071640Y0169540D02*
X0064580Y0169540D01*
X0064670Y0170520D02*
X0070860Y0170520D01*
X0069870Y0171510D02*
X0064560Y0171510D01*
X0064150Y0172490D02*
X0068890Y0172490D01*
X0068880Y0172500D02*
X0068880Y0172500D01*
X0068000Y0173480D02*
X0063220Y0173480D01*
X0063770Y0176430D02*
X0064150Y0176530D01*
X0064500Y0176720D01*
X0064780Y0177000D01*
X0064970Y0177350D01*
X0065070Y0177730D01*
X0065070Y0180210D01*
X0061290Y0180210D01*
X0061290Y0176430D01*
X0060710Y0176430D01*
X0060710Y0180210D01*
X0056930Y0180210D01*
X0056930Y0177730D01*
X0057030Y0177350D01*
X0057220Y0177000D01*
X0057500Y0176720D01*
X0057850Y0176530D01*
X0058230Y0176430D01*
X0060710Y0176430D01*
X0061290Y0176430D02*
X0063770Y0176430D01*
X0063790Y0176430D02*
X0068000Y0176430D01*
X0068000Y0175450D02*
X0046570Y0175450D01*
X0047500Y0176430D02*
X0058210Y0176430D01*
X0058780Y0173480D02*
X0053220Y0173480D01*
X0053080Y0173620D02*
X0051730Y0174170D01*
X0050270Y0174170D01*
X0048920Y0173620D01*
X0047880Y0172580D01*
X0047330Y0171230D01*
X0047330Y0169770D01*
X0047880Y0168420D01*
X0048920Y0167380D01*
X0050270Y0166830D01*
X0051730Y0166830D01*
X0053080Y0167380D01*
X0054120Y0168420D01*
X0054670Y0169770D01*
X0054670Y0171230D01*
X0054120Y0172580D01*
X0053080Y0173620D01*
X0054150Y0172490D02*
X0057850Y0172490D01*
X0057440Y0171510D02*
X0054560Y0171510D01*
X0054670Y0170520D02*
X0057330Y0170520D01*
X0057420Y0169540D02*
X0054580Y0169540D01*
X0054170Y0168550D02*
X0057830Y0168550D01*
X0058740Y0167570D02*
X0053260Y0167570D01*
X0048740Y0167570D02*
X0043260Y0167570D01*
X0044170Y0168550D02*
X0047830Y0168550D01*
X0047420Y0169540D02*
X0044580Y0169540D01*
X0044670Y0170520D02*
X0047330Y0170520D01*
X0047440Y0171510D02*
X0044560Y0171510D01*
X0044150Y0172490D02*
X0047850Y0172490D01*
X0048780Y0173480D02*
X0044000Y0173480D01*
X0044000Y0174460D02*
X0068000Y0174460D01*
X0068000Y0177420D02*
X0064990Y0177420D01*
X0065070Y0178400D02*
X0068000Y0178400D01*
X0068000Y0179390D02*
X0065070Y0179390D01*
X0065070Y0181360D02*
X0068000Y0181360D01*
X0068000Y0180370D02*
X0061290Y0180370D01*
X0060710Y0180370D02*
X0054670Y0180370D01*
X0054620Y0181360D02*
X0056930Y0181360D01*
X0056930Y0182340D02*
X0054220Y0182340D01*
X0053370Y0183330D02*
X0056940Y0183330D01*
X0056930Y0179390D02*
X0054520Y0179390D01*
X0054100Y0178400D02*
X0056930Y0178400D01*
X0057010Y0177420D02*
X0053110Y0177420D01*
X0048890Y0177420D02*
X0047500Y0177420D01*
X0047500Y0178400D02*
X0047900Y0178400D01*
X0044500Y0182340D02*
X0044220Y0182340D01*
X0044500Y0183330D02*
X0043370Y0183330D01*
X0044500Y0184310D02*
X0018300Y0184310D01*
X0019400Y0183330D02*
X0028630Y0183330D01*
X0028920Y0183620D02*
X0027880Y0182580D01*
X0027330Y0181230D01*
X0027330Y0179770D01*
X0027880Y0178420D01*
X0028920Y0177380D01*
X0030270Y0176830D01*
X0031730Y0176830D01*
X0033080Y0177380D01*
X0034120Y0178420D01*
X0034670Y0179770D01*
X0034670Y0181230D01*
X0034120Y0182580D01*
X0033080Y0183620D01*
X0031730Y0184170D01*
X0030270Y0184170D01*
X0028920Y0183620D01*
X0027780Y0182340D02*
X0020000Y0182340D01*
X0020400Y0181360D02*
X0027380Y0181360D01*
X0027330Y0180370D02*
X0020400Y0180370D01*
X0020300Y0179390D02*
X0027480Y0179390D01*
X0027900Y0178400D02*
X0019890Y0178400D01*
X0019140Y0177420D02*
X0028890Y0177420D01*
X0028780Y0173480D02*
X0019770Y0173480D01*
X0018720Y0174460D02*
X0041000Y0174460D01*
X0041000Y0175450D02*
X0012500Y0175450D01*
X0012500Y0176430D02*
X0014330Y0176430D01*
X0015520Y0174460D02*
X0016480Y0174460D01*
X0016480Y0173480D02*
X0015520Y0173480D01*
X0015520Y0172490D02*
X0016480Y0172490D01*
X0016480Y0171510D02*
X0015520Y0171510D01*
X0013280Y0174460D02*
X0012500Y0174460D01*
X0012500Y0177420D02*
X0012860Y0177420D01*
X0012600Y0183330D02*
X0012500Y0183330D01*
X0012500Y0184310D02*
X0013700Y0184310D01*
X0014690Y0186280D02*
X0012500Y0186280D01*
X0012500Y0185300D02*
X0044500Y0185300D01*
X0045160Y0186280D02*
X0017310Y0186280D01*
X0018990Y0187270D02*
X0046430Y0187270D01*
X0047660Y0188250D02*
X0019830Y0188250D01*
X0020240Y0189240D02*
X0048890Y0189240D01*
X0050100Y0190220D02*
X0020400Y0190220D01*
X0020400Y0191210D02*
X0071600Y0191210D01*
X0071600Y0190220D02*
X0069460Y0190220D01*
X0070210Y0189240D02*
X0071760Y0189240D01*
X0072170Y0188250D02*
X0070960Y0188250D01*
X0071710Y0187270D02*
X0073010Y0187270D01*
X0072470Y0186280D02*
X0074690Y0186280D01*
X0073220Y0185300D02*
X0079420Y0185300D01*
X0079420Y0186280D02*
X0077310Y0186280D01*
X0078300Y0184310D02*
X0079420Y0184310D01*
X0079400Y0183330D02*
X0079420Y0183330D01*
X0079420Y0187270D02*
X0078990Y0187270D01*
X0078560Y0194160D02*
X0079420Y0194160D01*
X0079420Y0195150D02*
X0012500Y0195150D01*
X0012500Y0196130D02*
X0079420Y0196130D01*
X0079420Y0197120D02*
X0012500Y0197120D01*
X0012500Y0194160D02*
X0013440Y0194160D01*
X0013010Y0187270D02*
X0012500Y0187270D01*
X0017670Y0176430D02*
X0041000Y0176430D01*
X0038890Y0177420D02*
X0033110Y0177420D01*
X0034100Y0178400D02*
X0037900Y0178400D01*
X0037480Y0179390D02*
X0034520Y0179390D01*
X0034670Y0180370D02*
X0037330Y0180370D01*
X0037380Y0181360D02*
X0034620Y0181360D01*
X0034220Y0182340D02*
X0037780Y0182340D01*
X0038630Y0183330D02*
X0033370Y0183330D01*
X0033220Y0173480D02*
X0038780Y0173480D01*
X0037850Y0172490D02*
X0034150Y0172490D01*
X0034560Y0171510D02*
X0037440Y0171510D01*
X0037330Y0170520D02*
X0034670Y0170520D01*
X0034580Y0169540D02*
X0037420Y0169540D01*
X0037830Y0168550D02*
X0034170Y0168550D01*
X0033260Y0167570D02*
X0038740Y0167570D01*
X0042960Y0154760D02*
X0049040Y0154760D01*
X0049180Y0154900D02*
X0046600Y0152320D01*
X0046600Y0148680D01*
X0049180Y0146100D01*
X0052820Y0146100D01*
X0055400Y0148680D01*
X0055400Y0152320D01*
X0052820Y0154900D01*
X0049180Y0154900D01*
X0048050Y0153780D02*
X0043950Y0153780D01*
X0044930Y0152790D02*
X0047070Y0152790D01*
X0046600Y0151810D02*
X0045400Y0151810D01*
X0045400Y0150820D02*
X0046600Y0150820D01*
X0046600Y0149840D02*
X0045400Y0149840D01*
X0045400Y0148850D02*
X0046600Y0148850D01*
X0047410Y0147870D02*
X0044590Y0147870D01*
X0043600Y0146880D02*
X0048400Y0146880D01*
X0049180Y0144900D02*
X0046600Y0142320D01*
X0046600Y0138680D01*
X0049180Y0136100D01*
X0052820Y0136100D01*
X0055400Y0138680D01*
X0055400Y0142320D01*
X0052820Y0144900D01*
X0049180Y0144900D01*
X0048200Y0143930D02*
X0043800Y0143930D01*
X0042820Y0144900D02*
X0039180Y0144900D01*
X0036600Y0142320D01*
X0036600Y0138680D01*
X0039180Y0136100D01*
X0042820Y0136100D01*
X0045400Y0138680D01*
X0045400Y0142320D01*
X0042820Y0144900D01*
X0044780Y0142940D02*
X0047220Y0142940D01*
X0046600Y0141960D02*
X0045400Y0141960D01*
X0045400Y0140970D02*
X0046600Y0140970D01*
X0046600Y0139990D02*
X0045400Y0139990D01*
X0045400Y0139000D02*
X0046600Y0139000D01*
X0047260Y0138020D02*
X0044740Y0138020D01*
X0043750Y0137030D02*
X0048250Y0137030D01*
X0049180Y0134900D02*
X0046600Y0132320D01*
X0046600Y0128680D01*
X0049180Y0126100D01*
X0052820Y0126100D01*
X0055400Y0128680D01*
X0055400Y0132320D01*
X0052820Y0134900D01*
X0049180Y0134900D01*
X0048350Y0134080D02*
X0043650Y0134080D01*
X0042820Y0134900D02*
X0039180Y0134900D01*
X0036600Y0132320D01*
X0036600Y0128680D01*
X0039180Y0126100D01*
X0042820Y0126100D01*
X0045400Y0128680D01*
X0045400Y0132320D01*
X0042820Y0134900D01*
X0044630Y0133090D02*
X0047370Y0133090D01*
X0046600Y0132110D02*
X0045400Y0132110D01*
X0045400Y0131120D02*
X0046600Y0131120D01*
X0046600Y0130140D02*
X0045400Y0130140D01*
X0045400Y0129150D02*
X0046600Y0129150D01*
X0047110Y0128170D02*
X0044890Y0128170D01*
X0043900Y0127180D02*
X0048100Y0127180D01*
X0049080Y0126200D02*
X0042920Y0126200D01*
X0042820Y0124900D02*
X0039180Y0124900D01*
X0036600Y0122320D01*
X0036600Y0118680D01*
X0039180Y0116100D01*
X0042820Y0116100D01*
X0045400Y0118680D01*
X0045400Y0122320D01*
X0042820Y0124900D01*
X0043500Y0124230D02*
X0048500Y0124230D01*
X0049180Y0124900D02*
X0046600Y0122320D01*
X0046600Y0118680D01*
X0049180Y0116100D01*
X0052820Y0116100D01*
X0055400Y0118680D01*
X0055400Y0122320D01*
X0052820Y0124900D01*
X0049180Y0124900D01*
X0047520Y0123240D02*
X0044480Y0123240D01*
X0045400Y0122260D02*
X0046600Y0122260D01*
X0046600Y0121270D02*
X0045400Y0121270D01*
X0045400Y0120290D02*
X0046600Y0120290D01*
X0046600Y0119300D02*
X0045400Y0119300D01*
X0045040Y0118320D02*
X0046960Y0118320D01*
X0047950Y0117330D02*
X0044050Y0117330D01*
X0043070Y0116350D02*
X0048930Y0116350D01*
X0049180Y0114900D02*
X0046600Y0112320D01*
X0046600Y0108680D01*
X0049180Y0106100D01*
X0052820Y0106100D01*
X0055400Y0108680D01*
X0055400Y0112320D01*
X0052820Y0114900D01*
X0049180Y0114900D01*
X0048650Y0114380D02*
X0043350Y0114380D01*
X0042820Y0114900D02*
X0039180Y0114900D01*
X0036600Y0112320D01*
X0036600Y0108680D01*
X0039180Y0106100D01*
X0042820Y0106100D01*
X0045400Y0108680D01*
X0045400Y0112320D01*
X0042820Y0114900D01*
X0044330Y0113390D02*
X0047670Y0113390D01*
X0046680Y0112410D02*
X0045320Y0112410D01*
X0045400Y0111420D02*
X0046600Y0111420D01*
X0046600Y0110440D02*
X0045400Y0110440D01*
X0045400Y0109450D02*
X0046600Y0109450D01*
X0046810Y0108470D02*
X0045190Y0108470D01*
X0044200Y0107480D02*
X0047800Y0107480D01*
X0048780Y0106500D02*
X0043220Y0106500D01*
X0042820Y0104900D02*
X0039180Y0104900D01*
X0036600Y0102320D01*
X0036600Y0098680D01*
X0039180Y0096100D01*
X0042820Y0096100D01*
X0045400Y0098680D01*
X0045400Y0102320D01*
X0042820Y0104900D01*
X0043200Y0104530D02*
X0048800Y0104530D01*
X0049180Y0104900D02*
X0046600Y0102320D01*
X0046600Y0098680D01*
X0049180Y0096100D01*
X0052820Y0096100D01*
X0055400Y0098680D01*
X0055400Y0102320D01*
X0052820Y0104900D01*
X0049180Y0104900D01*
X0047820Y0103540D02*
X0044180Y0103540D01*
X0045170Y0102560D02*
X0046830Y0102560D01*
X0046600Y0101570D02*
X0045400Y0101570D01*
X0045400Y0100590D02*
X0046600Y0100590D01*
X0046600Y0099600D02*
X0045400Y0099600D01*
X0045340Y0098620D02*
X0046660Y0098620D01*
X0047650Y0097630D02*
X0044350Y0097630D01*
X0043370Y0096650D02*
X0048630Y0096650D01*
X0053200Y0104530D02*
X0058800Y0104530D01*
X0058780Y0106500D02*
X0053220Y0106500D01*
X0054200Y0107480D02*
X0057800Y0107480D01*
X0056810Y0108470D02*
X0055190Y0108470D01*
X0055400Y0109450D02*
X0056600Y0109450D01*
X0056600Y0110440D02*
X0055400Y0110440D01*
X0055400Y0111420D02*
X0056600Y0111420D01*
X0056680Y0112410D02*
X0055320Y0112410D01*
X0054330Y0113390D02*
X0057670Y0113390D01*
X0058650Y0114380D02*
X0053350Y0114380D01*
X0053070Y0116350D02*
X0058930Y0116350D01*
X0057950Y0117330D02*
X0054050Y0117330D01*
X0055040Y0118320D02*
X0056960Y0118320D01*
X0056600Y0119300D02*
X0055400Y0119300D01*
X0055400Y0120290D02*
X0056600Y0120290D01*
X0056600Y0121270D02*
X0055400Y0121270D01*
X0055400Y0122260D02*
X0056600Y0122260D01*
X0057520Y0123240D02*
X0054480Y0123240D01*
X0053500Y0124230D02*
X0058500Y0124230D01*
X0059080Y0126200D02*
X0052920Y0126200D01*
X0053900Y0127180D02*
X0058100Y0127180D01*
X0057110Y0128170D02*
X0054890Y0128170D01*
X0055400Y0129150D02*
X0056600Y0129150D01*
X0056600Y0130140D02*
X0055400Y0130140D01*
X0055400Y0131120D02*
X0056600Y0131120D01*
X0056600Y0132110D02*
X0055400Y0132110D01*
X0054630Y0133090D02*
X0057370Y0133090D01*
X0058350Y0134080D02*
X0053650Y0134080D01*
X0053750Y0137030D02*
X0058250Y0137030D01*
X0059180Y0136100D02*
X0062820Y0136100D01*
X0065400Y0138680D01*
X0065400Y0142320D01*
X0062820Y0144900D01*
X0059180Y0144900D01*
X0056600Y0142320D01*
X0056600Y0138680D01*
X0059180Y0136100D01*
X0057260Y0138020D02*
X0054740Y0138020D01*
X0055400Y0139000D02*
X0056600Y0139000D01*
X0056600Y0139990D02*
X0055400Y0139990D01*
X0055400Y0140970D02*
X0056600Y0140970D01*
X0056600Y0141960D02*
X0055400Y0141960D01*
X0054780Y0142940D02*
X0057220Y0142940D01*
X0058200Y0143930D02*
X0053800Y0143930D01*
X0053600Y0146880D02*
X0058400Y0146880D01*
X0059180Y0146100D02*
X0062820Y0146100D01*
X0065400Y0148680D01*
X0065400Y0152320D01*
X0062820Y0154900D01*
X0059180Y0154900D01*
X0056600Y0152320D01*
X0056600Y0148680D01*
X0059180Y0146100D01*
X0057410Y0147870D02*
X0054590Y0147870D01*
X0055400Y0148850D02*
X0056600Y0148850D01*
X0056600Y0149840D02*
X0055400Y0149840D01*
X0055400Y0150820D02*
X0056600Y0150820D01*
X0056600Y0151810D02*
X0055400Y0151810D01*
X0054930Y0152790D02*
X0057070Y0152790D01*
X0058050Y0153780D02*
X0053950Y0153780D01*
X0052960Y0154760D02*
X0059040Y0154760D01*
X0062960Y0154760D02*
X0074790Y0154760D01*
X0073050Y0153780D02*
X0063950Y0153780D01*
X0064930Y0152790D02*
X0072190Y0152790D01*
X0071780Y0151810D02*
X0065400Y0151810D01*
X0065400Y0150820D02*
X0071600Y0150820D01*
X0071600Y0149840D02*
X0065400Y0149840D01*
X0065400Y0148850D02*
X0071920Y0148850D01*
X0072410Y0147870D02*
X0064590Y0147870D01*
X0063600Y0146880D02*
X0073400Y0146880D01*
X0073200Y0143930D02*
X0063800Y0143930D01*
X0064780Y0142940D02*
X0072250Y0142940D01*
X0071840Y0141960D02*
X0065400Y0141960D01*
X0065400Y0140970D02*
X0071600Y0140970D01*
X0071600Y0139990D02*
X0065400Y0139990D01*
X0065400Y0139000D02*
X0071860Y0139000D01*
X0072270Y0138020D02*
X0064740Y0138020D01*
X0063750Y0137030D02*
X0073250Y0137030D01*
X0073350Y0134080D02*
X0063650Y0134080D01*
X0064630Y0133090D02*
X0072370Y0133090D01*
X0071900Y0132110D02*
X0065400Y0132110D01*
X0065400Y0131120D02*
X0071600Y0131120D01*
X0071600Y0130140D02*
X0065400Y0130140D01*
X0065400Y0129150D02*
X0071800Y0129150D01*
X0072200Y0128170D02*
X0064890Y0128170D01*
X0063900Y0127180D02*
X0073100Y0127180D01*
X0058630Y0096650D02*
X0053370Y0096650D01*
X0054350Y0097630D02*
X0057650Y0097630D01*
X0056660Y0098620D02*
X0055340Y0098620D01*
X0055400Y0099600D02*
X0056600Y0099600D01*
X0056600Y0100590D02*
X0055400Y0100590D01*
X0055400Y0101570D02*
X0056600Y0101570D01*
X0056830Y0102560D02*
X0055170Y0102560D01*
X0054180Y0103540D02*
X0057820Y0103540D01*
X0071930Y0077930D02*
X0021820Y0077930D01*
X0022810Y0076950D02*
X0072770Y0076950D01*
X0074440Y0075960D02*
X0023790Y0075960D01*
X0024780Y0074980D02*
X0079420Y0074980D01*
X0079420Y0075960D02*
X0077560Y0075960D01*
X0076480Y0075960D02*
X0075520Y0075960D01*
X0075520Y0076950D02*
X0076480Y0076950D01*
X0076480Y0077930D02*
X0075520Y0077930D01*
X0075520Y0078920D02*
X0076480Y0078920D01*
X0076480Y0079900D02*
X0075520Y0079900D01*
X0073270Y0073990D02*
X0072260Y0073990D01*
X0078580Y0064140D02*
X0079420Y0064140D01*
X0079420Y0067100D02*
X0078820Y0067100D01*
X0078730Y0073990D02*
X0079420Y0073990D01*
X0079230Y0076950D02*
X0079420Y0076950D01*
X0078970Y0057250D02*
X0079420Y0057250D01*
X0079420Y0056260D02*
X0077260Y0056260D01*
X0075490Y0037540D02*
X0079420Y0037540D01*
X0079420Y0036560D02*
X0076360Y0036560D01*
X0076760Y0035570D02*
X0079420Y0035570D01*
X0079420Y0034590D02*
X0076770Y0034590D01*
X0076500Y0033600D02*
X0079420Y0033600D01*
X0079420Y0032620D02*
X0075840Y0032620D01*
X0075500Y0025720D02*
X0079420Y0025720D01*
X0079420Y0024740D02*
X0076360Y0024740D01*
X0076770Y0023750D02*
X0079420Y0023750D01*
X0079420Y0022770D02*
X0076770Y0022770D01*
X0076500Y0021780D02*
X0079420Y0021780D01*
X0079420Y0020800D02*
X0075830Y0020800D01*
X0074760Y0016860D02*
X0072240Y0016860D01*
X0072240Y0015870D02*
X0074760Y0015870D01*
X0074760Y0014890D02*
X0072240Y0014890D01*
X0072240Y0013900D02*
X0074760Y0013900D01*
X0074760Y0012920D02*
X0072240Y0012920D01*
X0070200Y0017840D02*
X0079420Y0017840D01*
X0079420Y0018830D02*
X0070660Y0018830D01*
X0070660Y0019810D02*
X0079420Y0019810D01*
X0071170Y0020800D02*
X0070660Y0020800D01*
X0070230Y0022770D02*
X0061320Y0022770D01*
X0061730Y0021780D02*
X0062560Y0021780D01*
X0062560Y0020800D02*
X0061900Y0020800D01*
X0061900Y0019810D02*
X0062560Y0019810D01*
X0062560Y0018830D02*
X0061570Y0018830D01*
X0061070Y0017840D02*
X0063020Y0017840D01*
X0060470Y0023750D02*
X0070230Y0023750D01*
X0066890Y0016860D02*
X0060080Y0016860D01*
X0054920Y0016860D02*
X0050080Y0016860D01*
X0051070Y0017840D02*
X0053930Y0017840D01*
X0053430Y0018830D02*
X0051570Y0018830D01*
X0051900Y0019810D02*
X0053100Y0019810D01*
X0053100Y0020800D02*
X0051900Y0020800D01*
X0051730Y0021780D02*
X0053270Y0021780D01*
X0053680Y0022770D02*
X0051320Y0022770D01*
X0050470Y0023750D02*
X0054530Y0023750D01*
X0037940Y0056260D02*
X0018250Y0056260D01*
X0033370Y0096650D02*
X0038630Y0096650D01*
X0037650Y0097630D02*
X0034350Y0097630D01*
X0035340Y0098620D02*
X0036660Y0098620D01*
X0036600Y0099600D02*
X0035400Y0099600D01*
X0035400Y0100590D02*
X0036600Y0100590D01*
X0036600Y0101570D02*
X0035400Y0101570D01*
X0035170Y0102560D02*
X0036830Y0102560D01*
X0037820Y0103540D02*
X0034180Y0103540D01*
X0033200Y0104530D02*
X0038800Y0104530D01*
X0038780Y0106500D02*
X0033220Y0106500D01*
X0034200Y0107480D02*
X0037800Y0107480D01*
X0036810Y0108470D02*
X0035190Y0108470D01*
X0035400Y0109450D02*
X0036600Y0109450D01*
X0036600Y0110440D02*
X0035400Y0110440D01*
X0035400Y0111420D02*
X0036600Y0111420D01*
X0036680Y0112410D02*
X0035320Y0112410D01*
X0034330Y0113390D02*
X0037670Y0113390D01*
X0038650Y0114380D02*
X0033350Y0114380D01*
X0033070Y0116350D02*
X0038930Y0116350D01*
X0037950Y0117330D02*
X0034050Y0117330D01*
X0035040Y0118320D02*
X0036960Y0118320D01*
X0036600Y0119300D02*
X0035400Y0119300D01*
X0035400Y0120290D02*
X0036600Y0120290D01*
X0036600Y0121270D02*
X0035400Y0121270D01*
X0035400Y0122260D02*
X0036600Y0122260D01*
X0037520Y0123240D02*
X0034480Y0123240D01*
X0033500Y0124230D02*
X0038500Y0124230D01*
X0039080Y0126200D02*
X0032920Y0126200D01*
X0033900Y0127180D02*
X0038100Y0127180D01*
X0037110Y0128170D02*
X0034890Y0128170D01*
X0035400Y0129150D02*
X0036600Y0129150D01*
X0036600Y0130140D02*
X0035400Y0130140D01*
X0035400Y0131120D02*
X0036600Y0131120D01*
X0036600Y0132110D02*
X0035400Y0132110D01*
X0034630Y0133090D02*
X0037370Y0133090D01*
X0038350Y0134080D02*
X0033650Y0134080D01*
X0032820Y0136100D02*
X0035400Y0138680D01*
X0035400Y0142320D01*
X0032820Y0144900D01*
X0029180Y0144900D01*
X0026600Y0142320D01*
X0026600Y0138680D01*
X0029180Y0136100D01*
X0032820Y0136100D01*
X0033750Y0137030D02*
X0038250Y0137030D01*
X0037260Y0138020D02*
X0034740Y0138020D01*
X0035400Y0139000D02*
X0036600Y0139000D01*
X0036600Y0139990D02*
X0035400Y0139990D01*
X0035400Y0140970D02*
X0036600Y0140970D01*
X0036600Y0141960D02*
X0035400Y0141960D01*
X0034780Y0142940D02*
X0037220Y0142940D01*
X0038200Y0143930D02*
X0033800Y0143930D01*
X0033600Y0146880D02*
X0038400Y0146880D01*
X0037410Y0147870D02*
X0034590Y0147870D01*
X0035400Y0148850D02*
X0036600Y0148850D01*
X0036600Y0149840D02*
X0035400Y0149840D01*
X0035400Y0150820D02*
X0036600Y0150820D01*
X0036600Y0151810D02*
X0035400Y0151810D01*
X0034930Y0152790D02*
X0037070Y0152790D01*
X0033120Y0154760D02*
X0032960Y0154760D01*
X0033120Y0155750D02*
X0012500Y0155750D01*
X0012500Y0156730D02*
X0013600Y0156730D01*
X0012500Y0154760D02*
X0014790Y0154760D01*
X0013050Y0153780D02*
X0012500Y0153780D01*
X0012500Y0157720D02*
X0012560Y0157720D01*
X0012500Y0163630D02*
X0012900Y0163630D01*
X0012500Y0164610D02*
X0014430Y0164610D01*
X0013230Y0166580D02*
X0012500Y0166580D01*
X0012500Y0165600D02*
X0079420Y0165600D01*
X0079420Y0166580D02*
X0078030Y0166580D01*
X0079290Y0167570D02*
X0079420Y0167570D01*
X0079420Y0164610D02*
X0077570Y0164610D01*
X0079100Y0163630D02*
X0079420Y0163630D01*
X0074430Y0164610D02*
X0017570Y0164610D01*
X0020020Y0158700D02*
X0033120Y0158700D01*
X0033120Y0157720D02*
X0019440Y0157720D01*
X0018400Y0156730D02*
X0033120Y0156730D01*
X0029040Y0154760D02*
X0017210Y0154760D01*
X0018950Y0153780D02*
X0028050Y0153780D01*
X0027070Y0152790D02*
X0019810Y0152790D01*
X0020220Y0151810D02*
X0026600Y0151810D01*
X0026600Y0150820D02*
X0020400Y0150820D01*
X0020400Y0149840D02*
X0026600Y0149840D01*
X0026600Y0148850D02*
X0020080Y0148850D01*
X0019590Y0147870D02*
X0027410Y0147870D01*
X0028400Y0146880D02*
X0018600Y0146880D01*
X0018800Y0143930D02*
X0028200Y0143930D01*
X0027220Y0142940D02*
X0019750Y0142940D01*
X0020160Y0141960D02*
X0026600Y0141960D01*
X0026600Y0140970D02*
X0020400Y0140970D01*
X0020400Y0139990D02*
X0026600Y0139990D01*
X0026600Y0139000D02*
X0020140Y0139000D01*
X0019730Y0138020D02*
X0027260Y0138020D01*
X0028250Y0137030D02*
X0018750Y0137030D01*
X0018650Y0134080D02*
X0028350Y0134080D01*
X0027370Y0133090D02*
X0019630Y0133090D01*
X0020100Y0132110D02*
X0026600Y0132110D01*
X0026600Y0131120D02*
X0020400Y0131120D01*
X0020400Y0130140D02*
X0026600Y0130140D01*
X0026600Y0129150D02*
X0020200Y0129150D01*
X0019800Y0128170D02*
X0027110Y0128170D01*
X0028100Y0127180D02*
X0018900Y0127180D01*
X0013500Y0124230D02*
X0012500Y0124230D01*
X0012500Y0123240D02*
X0012520Y0123240D01*
X0012500Y0137030D02*
X0013250Y0137030D01*
X0013400Y0146880D02*
X0012500Y0146880D01*
X0020060Y0192190D02*
X0071940Y0192190D01*
X0072450Y0193180D02*
X0019550Y0193180D01*
X0018560Y0194160D02*
X0073440Y0194160D01*
X0067540Y0182340D02*
X0065070Y0182340D01*
X0065060Y0183330D02*
X0066550Y0183330D01*
X0061290Y0179390D02*
X0060710Y0179390D01*
X0060710Y0178400D02*
X0061290Y0178400D01*
X0061290Y0177420D02*
X0060710Y0177420D01*
D26*
X0070500Y0072500D02*
X0024000Y0072500D01*
X0016000Y0080500D01*
X0058950Y0031950D02*
X0066610Y0031950D01*
X0072500Y0070500D02*
X0076000Y0070500D01*
X0072500Y0070500D02*
X0070500Y0072500D01*
D31*
X0057000Y0050500D02*
X0064110Y0039890D01*
X0066610Y0037860D01*
X0058950Y0031950D02*
X0016950Y0031950D01*
X0016000Y0031000D01*
X0016000Y0050500D02*
X0036000Y0050500D01*
X0043500Y0058000D01*
X0046000Y0058000D01*
X0053500Y0050500D01*
X0057000Y0050500D01*
D22*
X0046000Y0058000D03*
X0036000Y0156500D03*
D10*
X0041000Y0170500D02*
X0042500Y0172000D01*
X0042500Y0176500D01*
X0045500Y0176500D01*
X0046000Y0177000D01*
X0046000Y0185000D01*
X0051000Y0189000D01*
X0068500Y0189000D01*
X0075000Y0180500D01*
X0076000Y0180500D01*
X0069500Y0174000D02*
X0073000Y0170500D01*
X0076000Y0170500D01*
X0069500Y0174000D02*
X0069500Y0182500D01*
X0066500Y0185500D01*
X0052000Y0185500D01*
X0051000Y0180500D01*
X0097170Y0011000D02*
G75*
%LPD*%
D39*
X0097170Y0011000D02*
X0097170Y0199200D01*
X0167090Y0199200D01*
X0167090Y0011000D01*
X0097170Y0011000D01*
X0157900Y0023090D02*
X0157920Y0023350D01*
X0157980Y0023610D01*
X0158080Y0023860D01*
X0158210Y0024090D01*
X0158370Y0024290D01*
X0158570Y0024470D01*
X0158790Y0024620D01*
X0159020Y0024740D01*
X0159280Y0024820D01*
X0159540Y0024860D01*
X0159800Y0024860D01*
X0160060Y0024820D01*
X0160320Y0024740D01*
X0160560Y0024620D01*
X0160770Y0024470D01*
X0160970Y0024290D01*
X0161130Y0024090D01*
X0161260Y0023860D01*
X0161360Y0023610D01*
X0161420Y0023350D01*
X0161440Y0023090D01*
X0161420Y0022830D01*
X0161360Y0022570D01*
X0161260Y0022320D01*
X0161130Y0022090D01*
X0160970Y0021890D01*
X0160770Y0021710D01*
X0160550Y0021560D01*
X0160320Y0021440D01*
X0160060Y0021360D01*
X0159800Y0021320D01*
X0159540Y0021320D01*
X0159280Y0021360D01*
X0159020Y0021440D01*
X0158780Y0021560D01*
X0158570Y0021710D01*
X0158370Y0021890D01*
X0158210Y0022090D01*
X0158080Y0022320D01*
X0157980Y0022570D01*
X0157920Y0022830D01*
X0157900Y0023090D01*
X0157900Y0034910D02*
X0157920Y0035170D01*
X0157980Y0035430D01*
X0158080Y0035680D01*
X0158210Y0035910D01*
X0158370Y0036110D01*
X0158570Y0036290D01*
X0158790Y0036440D01*
X0159020Y0036560D01*
X0159280Y0036640D01*
X0159540Y0036680D01*
X0159800Y0036680D01*
X0160060Y0036640D01*
X0160320Y0036560D01*
X0160560Y0036440D01*
X0160770Y0036290D01*
X0160970Y0036110D01*
X0161130Y0035910D01*
X0161260Y0035680D01*
X0161360Y0035430D01*
X0161420Y0035170D01*
X0161440Y0034910D01*
X0161420Y0034650D01*
X0161360Y0034390D01*
X0161260Y0034140D01*
X0161130Y0033910D01*
X0160970Y0033710D01*
X0160770Y0033530D01*
X0160550Y0033380D01*
X0160320Y0033260D01*
X0160060Y0033180D01*
X0159800Y0033140D01*
X0159540Y0033140D01*
X0159280Y0033180D01*
X0159020Y0033260D01*
X0158780Y0033380D01*
X0158570Y0033530D01*
X0158370Y0033710D01*
X0158210Y0033910D01*
X0158080Y0034140D01*
X0157980Y0034390D01*
X0157920Y0034650D01*
X0157900Y0034910D01*
D27*
X0147170Y0170500D03*
X0137170Y0170500D03*
X0137170Y0180500D03*
X0127170Y0180500D03*
X0127170Y0170500D03*
X0117170Y0170500D03*
X0117170Y0180500D03*
D41*
X0147170Y0180500D03*
D38*
X0162170Y0180500D03*
X0162170Y0170500D03*
X0162170Y0160500D03*
X0162170Y0150500D03*
X0162170Y0140500D03*
X0162170Y0130500D03*
X0162170Y0120500D03*
X0162170Y0110500D03*
X0162170Y0100500D03*
X0162170Y0090500D03*
X0162170Y0080500D03*
X0162170Y0070500D03*
X0162170Y0060500D03*
X0162170Y0050500D03*
X0143670Y0020500D03*
X0133670Y0020500D03*
X0118670Y0020500D03*
X0108670Y0020500D03*
X0102170Y0031000D03*
X0102170Y0041000D03*
X0102170Y0050500D03*
X0102170Y0060500D03*
X0102170Y0070500D03*
X0102170Y0080500D03*
X0102170Y0090500D03*
X0102170Y0100500D03*
X0102170Y0110500D03*
X0102170Y0120500D03*
X0102170Y0130500D03*
X0102170Y0140500D03*
X0102170Y0150500D03*
X0102170Y0160500D03*
X0102170Y0170500D03*
X0102170Y0180500D03*
X0102170Y0190500D03*
X0162170Y0190500D03*
D33*
X0147170Y0150500D03*
X0147170Y0140500D03*
X0147170Y0130500D03*
X0147170Y0120500D03*
X0147170Y0110500D03*
X0147170Y0100500D03*
X0137170Y0100500D03*
X0137170Y0110500D03*
X0137170Y0120500D03*
X0137170Y0130500D03*
X0137170Y0140500D03*
X0137170Y0150500D03*
X0127170Y0150500D03*
X0127170Y0140500D03*
X0127170Y0130500D03*
X0127170Y0120500D03*
X0127170Y0110500D03*
X0127170Y0100500D03*
X0117170Y0100500D03*
X0117170Y0110500D03*
X0117170Y0120500D03*
X0117170Y0130500D03*
X0117170Y0140500D03*
X0117170Y0150500D03*
D19*
X0155730Y0043370D03*
X0163610Y0043370D03*
X0163610Y0014630D03*
X0155730Y0014630D03*
D30*
X0152780Y0020140D03*
X0152780Y0031950D03*
X0152780Y0037860D03*
D17*
X0153870Y0035380D02*
X0156190Y0035380D01*
X0156420Y0035610D01*
X0156400Y0035560D01*
X0156400Y0034250D01*
X0156420Y0034200D01*
X0156190Y0034430D01*
X0149370Y0034430D01*
X0149190Y0034250D01*
X0146630Y0034250D01*
X0145660Y0034650D01*
X0104740Y0034650D01*
X0104660Y0034730D01*
X0103050Y0035400D01*
X0101290Y0035400D01*
X0099680Y0034730D01*
X0098670Y0033720D01*
X0098670Y0037710D01*
X0099040Y0037340D01*
X0099650Y0036890D01*
X0100330Y0036550D01*
X0101050Y0036320D01*
X0101690Y0036220D01*
X0101690Y0040520D01*
X0102650Y0040520D01*
X0102650Y0041480D01*
X0101690Y0041480D01*
X0101690Y0045780D01*
X0101050Y0045680D01*
X0100330Y0045450D01*
X0099650Y0045110D01*
X0099040Y0044660D01*
X0098670Y0044290D01*
X0098670Y0047780D01*
X0099680Y0046770D01*
X0101290Y0046100D01*
X0103050Y0046100D01*
X0104660Y0046770D01*
X0105690Y0047800D01*
X0122710Y0047800D01*
X0123700Y0048210D01*
X0130610Y0055120D01*
X0131230Y0055120D01*
X0138140Y0048210D01*
X0139130Y0047800D01*
X0140210Y0047800D01*
X0141730Y0047800D01*
X0147970Y0038490D01*
X0148160Y0038130D01*
X0148260Y0038050D01*
X0148340Y0037940D01*
X0148680Y0037710D01*
X0148730Y0037670D01*
X0148730Y0036020D01*
X0149370Y0035380D01*
X0151640Y0035380D01*
X0152520Y0035120D01*
X0153590Y0035230D01*
X0153870Y0035380D01*
X0156830Y0039690D02*
X0156220Y0040300D01*
X0157760Y0040300D01*
X0158410Y0040950D01*
X0158410Y0045790D01*
X0157760Y0046440D01*
X0153700Y0046440D01*
X0153060Y0045790D01*
X0153060Y0041110D01*
X0152300Y0041730D01*
X0145560Y0051780D01*
X0145460Y0052030D01*
X0145270Y0052220D01*
X0145110Y0052450D01*
X0144890Y0052600D01*
X0144700Y0052790D01*
X0144450Y0052890D01*
X0144220Y0053040D01*
X0143960Y0053100D01*
X0143710Y0053200D01*
X0143430Y0053200D01*
X0143170Y0053250D01*
X0142900Y0053200D01*
X0140790Y0053200D01*
X0135050Y0058940D01*
X0135050Y0060240D01*
X0134410Y0060880D01*
X0129930Y0060880D01*
X0129750Y0060700D01*
X0129130Y0060700D01*
X0128140Y0060290D01*
X0127380Y0059530D01*
X0121050Y0053200D01*
X0105690Y0053200D01*
X0104660Y0054230D01*
X0103050Y0054900D01*
X0101290Y0054900D01*
X0099680Y0054230D01*
X0098670Y0053220D01*
X0098670Y0057210D01*
X0099040Y0056840D01*
X0099650Y0056390D01*
X0100330Y0056050D01*
X0101050Y0055820D01*
X0101690Y0055720D01*
X0101690Y0060020D01*
X0102650Y0060020D01*
X0102650Y0060980D01*
X0101690Y0060980D01*
X0101690Y0065280D01*
X0101050Y0065180D01*
X0100330Y0064950D01*
X0099650Y0064610D01*
X0099040Y0064160D01*
X0098670Y0063790D01*
X0098670Y0067780D01*
X0099680Y0066770D01*
X0101290Y0066100D01*
X0103050Y0066100D01*
X0104660Y0066770D01*
X0105900Y0068010D01*
X0106570Y0069620D01*
X0106570Y0071380D01*
X0105900Y0072990D01*
X0104660Y0074230D01*
X0103050Y0074900D01*
X0101290Y0074900D01*
X0099680Y0074230D01*
X0098670Y0073220D01*
X0098670Y0077780D01*
X0099680Y0076770D01*
X0101290Y0076100D01*
X0103050Y0076100D01*
X0103240Y0076180D01*
X0107870Y0071550D01*
X0109220Y0070200D01*
X0155720Y0070200D01*
X0156370Y0069550D01*
X0157720Y0068200D01*
X0158360Y0068200D01*
X0158440Y0068010D01*
X0159680Y0066770D01*
X0161290Y0066100D01*
X0163050Y0066100D01*
X0164660Y0066770D01*
X0165590Y0067700D01*
X0165590Y0063300D01*
X0164660Y0064230D01*
X0163050Y0064900D01*
X0161290Y0064900D01*
X0159680Y0064230D01*
X0158440Y0062990D01*
X0157770Y0061380D01*
X0157770Y0059620D01*
X0158440Y0058010D01*
X0159680Y0056770D01*
X0161290Y0056100D01*
X0163050Y0056100D01*
X0164660Y0056770D01*
X0165590Y0057700D01*
X0165590Y0053300D01*
X0164660Y0054230D01*
X0163050Y0054900D01*
X0161290Y0054900D01*
X0159680Y0054230D01*
X0158440Y0052990D01*
X0157770Y0051380D01*
X0157770Y0049620D01*
X0158440Y0048010D01*
X0159680Y0046770D01*
X0161250Y0046120D01*
X0160930Y0045790D01*
X0160930Y0040950D01*
X0161580Y0040300D01*
X0165590Y0040300D01*
X0165590Y0017700D01*
X0161580Y0017700D01*
X0160930Y0017050D01*
X0160930Y0012500D01*
X0158410Y0012500D01*
X0158410Y0017050D01*
X0157760Y0017700D01*
X0156220Y0017700D01*
X0156830Y0018310D01*
X0156830Y0021390D01*
X0156900Y0021240D01*
X0157820Y0020320D01*
X0159020Y0019820D01*
X0160320Y0019820D01*
X0161520Y0020320D01*
X0162440Y0021240D01*
X0162940Y0022440D01*
X0162940Y0023750D01*
X0162440Y0024950D01*
X0161520Y0025870D01*
X0160320Y0026370D01*
X0159020Y0026370D01*
X0157820Y0025870D01*
X0156900Y0024950D01*
X0156400Y0023750D01*
X0156400Y0022440D01*
X0156420Y0022390D01*
X0156190Y0022620D01*
X0149370Y0022620D01*
X0148730Y0021980D01*
X0148730Y0018310D01*
X0149370Y0017660D01*
X0153670Y0017660D01*
X0153060Y0017050D01*
X0153060Y0012500D01*
X0098670Y0012500D01*
X0098670Y0028280D01*
X0099680Y0027270D01*
X0101290Y0026600D01*
X0103050Y0026600D01*
X0104660Y0027270D01*
X0105900Y0028510D01*
X0106210Y0029250D01*
X0145660Y0029250D01*
X0146630Y0029650D01*
X0149190Y0029650D01*
X0149370Y0029470D01*
X0156190Y0029470D01*
X0156830Y0030120D01*
X0156830Y0033210D01*
X0156900Y0033050D01*
X0157820Y0032130D01*
X0159020Y0031630D01*
X0160320Y0031630D01*
X0161520Y0032130D01*
X0162440Y0033050D01*
X0162940Y0034250D01*
X0162940Y0035560D01*
X0162440Y0036760D01*
X0161520Y0037680D01*
X0160320Y0038180D01*
X0159020Y0038180D01*
X0157820Y0037680D01*
X0156900Y0036760D01*
X0156830Y0036610D01*
X0156830Y0039690D01*
X0156830Y0039510D02*
X0165590Y0039510D01*
X0165590Y0038530D02*
X0156830Y0038530D01*
X0156830Y0037540D02*
X0157680Y0037540D01*
X0156410Y0035570D02*
X0156380Y0035570D01*
X0156400Y0034590D02*
X0145810Y0034590D01*
X0147280Y0039510D02*
X0106730Y0039510D01*
X0106620Y0039160D02*
X0106850Y0039880D01*
X0106950Y0040520D01*
X0102650Y0040520D01*
X0102650Y0036220D01*
X0103290Y0036320D01*
X0104010Y0036550D01*
X0104690Y0036890D01*
X0105300Y0037340D01*
X0105830Y0037870D01*
X0106280Y0038480D01*
X0106620Y0039160D01*
X0106300Y0038530D02*
X0147940Y0038530D01*
X0148730Y0037540D02*
X0105500Y0037540D01*
X0104030Y0036560D02*
X0148730Y0036560D01*
X0149180Y0035570D02*
X0098670Y0035570D01*
X0098670Y0034590D02*
X0099540Y0034590D01*
X0100310Y0036560D02*
X0098670Y0036560D01*
X0098670Y0037540D02*
X0098840Y0037540D01*
X0101690Y0037540D02*
X0102650Y0037540D01*
X0102650Y0036560D02*
X0101690Y0036560D01*
X0101690Y0038530D02*
X0102650Y0038530D01*
X0102650Y0039510D02*
X0101690Y0039510D01*
X0101690Y0040500D02*
X0102650Y0040500D01*
X0102650Y0041480D02*
X0106950Y0041480D01*
X0106850Y0042120D01*
X0106620Y0042840D01*
X0106280Y0043520D01*
X0105830Y0044130D01*
X0105300Y0044660D01*
X0104690Y0045110D01*
X0104010Y0045450D01*
X0103290Y0045680D01*
X0102650Y0045780D01*
X0102650Y0041480D01*
X0102650Y0041490D02*
X0101690Y0041490D01*
X0101690Y0042470D02*
X0102650Y0042470D01*
X0102650Y0043460D02*
X0101690Y0043460D01*
X0101690Y0044440D02*
X0102650Y0044440D01*
X0102650Y0045430D02*
X0101690Y0045430D01*
X0100280Y0045430D02*
X0098670Y0045430D01*
X0098670Y0046410D02*
X0100550Y0046410D01*
X0099050Y0047400D02*
X0098670Y0047400D01*
X0098670Y0044440D02*
X0098820Y0044440D01*
X0098670Y0053310D02*
X0098750Y0053310D01*
X0098670Y0054290D02*
X0099820Y0054290D01*
X0099920Y0056260D02*
X0098670Y0056260D01*
X0098670Y0055280D02*
X0123130Y0055280D01*
X0122140Y0054290D02*
X0104520Y0054290D01*
X0105590Y0053310D02*
X0121160Y0053310D01*
X0123870Y0048380D02*
X0137970Y0048380D01*
X0136990Y0049370D02*
X0124850Y0049370D01*
X0125840Y0050350D02*
X0136000Y0050350D01*
X0135020Y0051340D02*
X0126820Y0051340D01*
X0127810Y0052320D02*
X0134030Y0052320D01*
X0133050Y0053310D02*
X0128790Y0053310D01*
X0129780Y0054290D02*
X0132060Y0054290D01*
X0135050Y0059220D02*
X0157940Y0059220D01*
X0157770Y0060200D02*
X0135050Y0060200D01*
X0135760Y0058230D02*
X0158350Y0058230D01*
X0159200Y0057250D02*
X0136740Y0057250D01*
X0137730Y0056260D02*
X0160910Y0056260D01*
X0159820Y0054290D02*
X0139700Y0054290D01*
X0140680Y0053310D02*
X0158750Y0053310D01*
X0158160Y0052320D02*
X0145200Y0052320D01*
X0145860Y0051340D02*
X0157770Y0051340D01*
X0157770Y0050350D02*
X0146520Y0050350D01*
X0147180Y0049370D02*
X0157880Y0049370D01*
X0158290Y0048380D02*
X0147840Y0048380D01*
X0148500Y0047400D02*
X0159050Y0047400D01*
X0158410Y0045430D02*
X0160930Y0045430D01*
X0160930Y0044440D02*
X0158410Y0044440D01*
X0158410Y0043460D02*
X0160930Y0043460D01*
X0160930Y0042470D02*
X0158410Y0042470D01*
X0158410Y0041490D02*
X0160930Y0041490D01*
X0161380Y0040500D02*
X0157960Y0040500D01*
X0157790Y0046410D02*
X0160550Y0046410D01*
X0164520Y0054290D02*
X0165590Y0054290D01*
X0165590Y0053310D02*
X0165590Y0053310D01*
X0165590Y0055280D02*
X0138710Y0055280D01*
X0142000Y0047400D02*
X0105290Y0047400D01*
X0105520Y0044440D02*
X0143980Y0044440D01*
X0143320Y0045430D02*
X0104060Y0045430D01*
X0103790Y0046410D02*
X0142660Y0046410D01*
X0144640Y0043460D02*
X0106310Y0043460D01*
X0106740Y0042470D02*
X0145300Y0042470D01*
X0145960Y0041490D02*
X0106950Y0041490D01*
X0106950Y0040500D02*
X0146620Y0040500D01*
X0149160Y0046410D02*
X0153670Y0046410D01*
X0153060Y0045430D02*
X0149820Y0045430D01*
X0150480Y0044440D02*
X0153060Y0044440D01*
X0153060Y0043460D02*
X0151140Y0043460D01*
X0151800Y0042470D02*
X0153060Y0042470D01*
X0153060Y0041490D02*
X0152600Y0041490D01*
X0156830Y0032620D02*
X0157330Y0032620D01*
X0156830Y0031630D02*
X0159020Y0031630D01*
X0160320Y0031630D02*
X0165590Y0031630D01*
X0165590Y0030650D02*
X0156830Y0030650D01*
X0156380Y0029660D02*
X0165590Y0029660D01*
X0165590Y0028680D02*
X0105970Y0028680D01*
X0105090Y0027690D02*
X0165590Y0027690D01*
X0165590Y0026710D02*
X0103310Y0026710D01*
X0104850Y0022770D02*
X0098670Y0022770D01*
X0098670Y0023750D02*
X0105700Y0023750D01*
X0106180Y0024230D02*
X0104940Y0022990D01*
X0104270Y0021380D01*
X0104270Y0019620D01*
X0104940Y0018010D01*
X0106180Y0016770D01*
X0107790Y0016100D01*
X0109550Y0016100D01*
X0111160Y0016770D01*
X0112400Y0018010D01*
X0113070Y0019620D01*
X0113070Y0021380D01*
X0112400Y0022990D01*
X0111160Y0024230D01*
X0109550Y0024900D01*
X0107790Y0024900D01*
X0106180Y0024230D01*
X0107410Y0024740D02*
X0098670Y0024740D01*
X0098670Y0025720D02*
X0157670Y0025720D01*
X0156810Y0024740D02*
X0144930Y0024740D01*
X0144550Y0024900D02*
X0146160Y0024230D01*
X0147400Y0022990D01*
X0148070Y0021380D01*
X0148070Y0019620D01*
X0147400Y0018010D01*
X0146160Y0016770D01*
X0144550Y0016100D01*
X0142790Y0016100D01*
X0141180Y0016770D01*
X0139940Y0018010D01*
X0139270Y0019620D01*
X0139270Y0021380D01*
X0139940Y0022990D01*
X0141180Y0024230D01*
X0142790Y0024900D01*
X0144550Y0024900D01*
X0142410Y0024740D02*
X0134930Y0024740D01*
X0134550Y0024900D02*
X0136160Y0024230D01*
X0137400Y0022990D01*
X0138070Y0021380D01*
X0138070Y0019620D01*
X0137400Y0018010D01*
X0136160Y0016770D01*
X0134550Y0016100D01*
X0132790Y0016100D01*
X0131180Y0016770D01*
X0129940Y0018010D01*
X0129270Y0019620D01*
X0129270Y0021380D01*
X0129940Y0022990D01*
X0131180Y0024230D01*
X0132790Y0024900D01*
X0134550Y0024900D01*
X0132410Y0024740D02*
X0119930Y0024740D01*
X0119550Y0024900D02*
X0117790Y0024900D01*
X0116180Y0024230D01*
X0114940Y0022990D01*
X0114270Y0021380D01*
X0114270Y0019620D01*
X0114940Y0018010D01*
X0116180Y0016770D01*
X0117790Y0016100D01*
X0119550Y0016100D01*
X0121160Y0016770D01*
X0122400Y0018010D01*
X0123070Y0019620D01*
X0123070Y0021380D01*
X0122400Y0022990D01*
X0121160Y0024230D01*
X0119550Y0024900D01*
X0121640Y0023750D02*
X0130700Y0023750D01*
X0129850Y0022770D02*
X0122490Y0022770D01*
X0122900Y0021780D02*
X0129440Y0021780D01*
X0129270Y0020800D02*
X0123070Y0020800D01*
X0123070Y0019810D02*
X0129270Y0019810D01*
X0129600Y0018830D02*
X0122740Y0018830D01*
X0122240Y0017840D02*
X0130100Y0017840D01*
X0131090Y0016860D02*
X0121250Y0016860D01*
X0117410Y0024740D02*
X0109930Y0024740D01*
X0111640Y0023750D02*
X0115700Y0023750D01*
X0114850Y0022770D02*
X0112490Y0022770D01*
X0112900Y0021780D02*
X0114440Y0021780D01*
X0114270Y0020800D02*
X0113070Y0020800D01*
X0113070Y0019810D02*
X0114270Y0019810D01*
X0114600Y0018830D02*
X0112740Y0018830D01*
X0112240Y0017840D02*
X0115100Y0017840D01*
X0116090Y0016860D02*
X0111250Y0016860D01*
X0106090Y0016860D02*
X0098670Y0016860D01*
X0098670Y0017840D02*
X0105100Y0017840D01*
X0104600Y0018830D02*
X0098670Y0018830D01*
X0098670Y0019810D02*
X0104270Y0019810D01*
X0104270Y0020800D02*
X0098670Y0020800D01*
X0098670Y0021780D02*
X0104440Y0021780D01*
X0101030Y0026710D02*
X0098670Y0026710D01*
X0098670Y0027690D02*
X0099250Y0027690D01*
X0098670Y0015870D02*
X0153060Y0015870D01*
X0153060Y0014890D02*
X0098670Y0014890D01*
X0098670Y0013900D02*
X0153060Y0013900D01*
X0153060Y0012920D02*
X0098670Y0012920D01*
X0102650Y0055720D02*
X0103290Y0055820D01*
X0104010Y0056050D01*
X0104690Y0056390D01*
X0105300Y0056840D01*
X0105830Y0057370D01*
X0106280Y0057980D01*
X0106620Y0058660D01*
X0106850Y0059380D01*
X0106950Y0060020D01*
X0102650Y0060020D01*
X0102650Y0055720D01*
X0102650Y0056260D02*
X0101690Y0056260D01*
X0101690Y0057250D02*
X0102650Y0057250D01*
X0102650Y0058230D02*
X0101690Y0058230D01*
X0101690Y0059220D02*
X0102650Y0059220D01*
X0102650Y0060200D02*
X0128050Y0060200D01*
X0127070Y0059220D02*
X0106800Y0059220D01*
X0106400Y0058230D02*
X0126080Y0058230D01*
X0125100Y0057250D02*
X0105700Y0057250D01*
X0106950Y0060980D02*
X0106850Y0061620D01*
X0106620Y0062340D01*
X0106280Y0063020D01*
X0105830Y0063630D01*
X0105300Y0064160D01*
X0104690Y0064610D01*
X0104010Y0064950D01*
X0103290Y0065180D01*
X0102650Y0065280D01*
X0102650Y0060980D01*
X0106950Y0060980D01*
X0106920Y0061190D02*
X0157770Y0061190D01*
X0158100Y0062170D02*
X0106670Y0062170D01*
X0106170Y0063160D02*
X0158600Y0063160D01*
X0159590Y0064140D02*
X0105320Y0064140D01*
X0103470Y0065130D02*
X0165590Y0065130D01*
X0165590Y0066110D02*
X0163070Y0066110D01*
X0161270Y0066110D02*
X0103070Y0066110D01*
X0102650Y0065130D02*
X0101690Y0065130D01*
X0100870Y0065130D02*
X0098670Y0065130D01*
X0098670Y0066110D02*
X0101270Y0066110D01*
X0101690Y0064140D02*
X0102650Y0064140D01*
X0102650Y0063160D02*
X0101690Y0063160D01*
X0101690Y0062170D02*
X0102650Y0062170D01*
X0102650Y0061190D02*
X0101690Y0061190D01*
X0099020Y0064140D02*
X0098670Y0064140D01*
X0098670Y0067100D02*
X0099350Y0067100D01*
X0099440Y0073990D02*
X0098670Y0073990D01*
X0098670Y0074980D02*
X0104440Y0074980D01*
X0104900Y0073990D02*
X0105430Y0073990D01*
X0105890Y0073010D02*
X0106410Y0073010D01*
X0106300Y0072020D02*
X0107400Y0072020D01*
X0106570Y0071040D02*
X0108380Y0071040D01*
X0106570Y0070050D02*
X0155870Y0070050D01*
X0156850Y0069070D02*
X0106340Y0069070D01*
X0105930Y0068080D02*
X0158410Y0068080D01*
X0159350Y0067100D02*
X0104990Y0067100D01*
X0103460Y0075960D02*
X0098670Y0075960D01*
X0098670Y0076950D02*
X0099500Y0076950D01*
X0098670Y0083220D02*
X0098670Y0087780D01*
X0099680Y0086770D01*
X0101290Y0086100D01*
X0103050Y0086100D01*
X0104660Y0086770D01*
X0105900Y0088010D01*
X0106570Y0089620D01*
X0106570Y0091380D01*
X0105900Y0092990D01*
X0104660Y0094230D01*
X0103050Y0094900D01*
X0101290Y0094900D01*
X0099680Y0094230D01*
X0098670Y0093220D01*
X0098670Y0097780D01*
X0099680Y0096770D01*
X0101290Y0096100D01*
X0103050Y0096100D01*
X0104660Y0096770D01*
X0105900Y0098010D01*
X0106570Y0099620D01*
X0106570Y0101380D01*
X0105900Y0102990D01*
X0104660Y0104230D01*
X0103050Y0104900D01*
X0101290Y0104900D01*
X0099680Y0104230D01*
X0098670Y0103220D01*
X0098670Y0107780D01*
X0099680Y0106770D01*
X0101290Y0106100D01*
X0103050Y0106100D01*
X0104660Y0106770D01*
X0105900Y0108010D01*
X0106570Y0109620D01*
X0106570Y0111380D01*
X0105900Y0112990D01*
X0104660Y0114230D01*
X0103050Y0114900D01*
X0101290Y0114900D01*
X0099680Y0114230D01*
X0098670Y0113220D01*
X0098670Y0117780D01*
X0099680Y0116770D01*
X0101290Y0116100D01*
X0103050Y0116100D01*
X0104660Y0116770D01*
X0105900Y0118010D01*
X0106570Y0119620D01*
X0106570Y0121380D01*
X0105900Y0122990D01*
X0104660Y0124230D01*
X0103050Y0124900D01*
X0101290Y0124900D01*
X0099680Y0124230D01*
X0098670Y0123220D01*
X0098670Y0127780D01*
X0099680Y0126770D01*
X0101290Y0126100D01*
X0103050Y0126100D01*
X0104660Y0126770D01*
X0105900Y0128010D01*
X0106570Y0129620D01*
X0106570Y0131380D01*
X0105900Y0132990D01*
X0104660Y0134230D01*
X0103050Y0134900D01*
X0101290Y0134900D01*
X0099680Y0134230D01*
X0098670Y0133220D01*
X0098670Y0137780D01*
X0099680Y0136770D01*
X0101290Y0136100D01*
X0103050Y0136100D01*
X0104660Y0136770D01*
X0105900Y0138010D01*
X0106570Y0139620D01*
X0106570Y0141380D01*
X0105900Y0142990D01*
X0104660Y0144230D01*
X0103050Y0144900D01*
X0101290Y0144900D01*
X0099680Y0144230D01*
X0098670Y0143220D01*
X0098670Y0147780D01*
X0099680Y0146770D01*
X0101290Y0146100D01*
X0103050Y0146100D01*
X0104660Y0146770D01*
X0105900Y0148010D01*
X0106570Y0149620D01*
X0106570Y0151380D01*
X0105900Y0152990D01*
X0104660Y0154230D01*
X0103050Y0154900D01*
X0101290Y0154900D01*
X0099680Y0154230D01*
X0098670Y0153220D01*
X0098670Y0157780D01*
X0099680Y0156770D01*
X0101290Y0156100D01*
X0103050Y0156100D01*
X0104660Y0156770D01*
X0105900Y0158010D01*
X0106570Y0159620D01*
X0106570Y0161380D01*
X0105900Y0162990D01*
X0104660Y0164230D01*
X0103050Y0164900D01*
X0101290Y0164900D01*
X0099680Y0164230D01*
X0098670Y0163220D01*
X0098670Y0167210D01*
X0099040Y0166840D01*
X0099650Y0166390D01*
X0100330Y0166050D01*
X0101050Y0165820D01*
X0101690Y0165720D01*
X0101690Y0170020D01*
X0102650Y0170020D01*
X0102650Y0170980D01*
X0101690Y0170980D01*
X0101690Y0175280D01*
X0101050Y0175180D01*
X0100330Y0174950D01*
X0099650Y0174610D01*
X0099040Y0174160D01*
X0098670Y0173790D01*
X0098670Y0177780D01*
X0099680Y0176770D01*
X0101290Y0176100D01*
X0103050Y0176100D01*
X0104660Y0176770D01*
X0105900Y0178010D01*
X0106570Y0179620D01*
X0106570Y0181380D01*
X0105900Y0182990D01*
X0104660Y0184230D01*
X0103050Y0184900D01*
X0101290Y0184900D01*
X0099680Y0184230D01*
X0098670Y0183220D01*
X0098670Y0187780D01*
X0099680Y0186770D01*
X0101290Y0186100D01*
X0103050Y0186100D01*
X0104660Y0186770D01*
X0105900Y0188010D01*
X0106570Y0189620D01*
X0106570Y0191380D01*
X0105900Y0192990D01*
X0104660Y0194230D01*
X0103050Y0194900D01*
X0101290Y0194900D01*
X0099680Y0194230D01*
X0098670Y0193220D01*
X0098670Y0197700D01*
X0165590Y0197700D01*
X0165590Y0193300D01*
X0164660Y0194230D01*
X0163050Y0194900D01*
X0161290Y0194900D01*
X0159680Y0194230D01*
X0158440Y0192990D01*
X0157770Y0191380D01*
X0157770Y0189620D01*
X0158440Y0188010D01*
X0159680Y0186770D01*
X0161290Y0186100D01*
X0163050Y0186100D01*
X0164660Y0186770D01*
X0165590Y0187700D01*
X0165590Y0183300D01*
X0164660Y0184230D01*
X0163050Y0184900D01*
X0161290Y0184900D01*
X0160080Y0184400D01*
X0156170Y0189510D01*
X0156170Y0189620D01*
X0155800Y0189990D01*
X0155480Y0190400D01*
X0155370Y0190420D01*
X0155290Y0190500D01*
X0154770Y0190500D01*
X0154250Y0190570D01*
X0154160Y0190500D01*
X0137250Y0190500D01*
X0136720Y0190560D01*
X0136640Y0190500D01*
X0136550Y0190500D01*
X0136170Y0190120D01*
X0131640Y0186500D01*
X0131550Y0186500D01*
X0131170Y0186120D01*
X0130750Y0185780D01*
X0130740Y0185690D01*
X0130670Y0185620D01*
X0130670Y0185080D01*
X0130610Y0184550D01*
X0130670Y0184470D01*
X0130670Y0181650D01*
X0130290Y0182580D01*
X0129250Y0183620D01*
X0127900Y0184170D01*
X0126440Y0184170D01*
X0125090Y0183620D01*
X0124050Y0182580D01*
X0123500Y0181230D01*
X0123500Y0179770D01*
X0124050Y0178420D01*
X0125090Y0177380D01*
X0126440Y0176830D01*
X0127170Y0176830D01*
X0127170Y0174170D01*
X0126440Y0174170D01*
X0125090Y0173620D01*
X0124050Y0172580D01*
X0123500Y0171230D01*
X0123500Y0169770D01*
X0124050Y0168420D01*
X0125090Y0167380D01*
X0126440Y0166830D01*
X0127900Y0166830D01*
X0129250Y0167380D01*
X0130290Y0168420D01*
X0130840Y0169770D01*
X0130840Y0171230D01*
X0130290Y0172580D01*
X0130170Y0172700D01*
X0130170Y0175000D01*
X0132290Y0175000D01*
X0132790Y0175500D01*
X0133670Y0176380D01*
X0133670Y0179350D01*
X0134050Y0178420D01*
X0135090Y0177380D01*
X0136440Y0176830D01*
X0137900Y0176830D01*
X0139250Y0177380D01*
X0140290Y0178420D01*
X0140840Y0179770D01*
X0140840Y0181230D01*
X0140290Y0182580D01*
X0139310Y0183560D01*
X0139400Y0184000D01*
X0143400Y0184000D01*
X0143390Y0184000D01*
X0143200Y0183650D01*
X0143100Y0183270D01*
X0143100Y0180790D01*
X0146880Y0180790D01*
X0146880Y0180210D01*
X0147460Y0180210D01*
X0147460Y0180790D01*
X0151240Y0180790D01*
X0151240Y0183270D01*
X0151140Y0183650D01*
X0150950Y0184000D01*
X0150940Y0184000D01*
X0152050Y0184000D01*
X0154170Y0181880D01*
X0154170Y0173380D01*
X0155050Y0172500D01*
X0157670Y0169880D01*
X0157670Y0169880D01*
X0157770Y0169780D01*
X0157770Y0169620D01*
X0158440Y0168010D01*
X0159680Y0166770D01*
X0161290Y0166100D01*
X0163050Y0166100D01*
X0164660Y0166770D01*
X0165590Y0167700D01*
X0165590Y0163300D01*
X0164660Y0164230D01*
X0163050Y0164900D01*
X0161290Y0164900D01*
X0159680Y0164230D01*
X0158440Y0162990D01*
X0157770Y0161380D01*
X0157770Y0159620D01*
X0158440Y0158010D01*
X0159680Y0156770D01*
X0161290Y0156100D01*
X0163050Y0156100D01*
X0164660Y0156770D01*
X0165590Y0157700D01*
X0165590Y0153300D01*
X0164660Y0154230D01*
X0163050Y0154900D01*
X0161290Y0154900D01*
X0159680Y0154230D01*
X0158440Y0152990D01*
X0157770Y0151380D01*
X0157770Y0149620D01*
X0158440Y0148010D01*
X0159680Y0146770D01*
X0161290Y0146100D01*
X0163050Y0146100D01*
X0164660Y0146770D01*
X0165590Y0147700D01*
X0165590Y0143300D01*
X0164660Y0144230D01*
X0163050Y0144900D01*
X0161290Y0144900D01*
X0159680Y0144230D01*
X0158440Y0142990D01*
X0157770Y0141380D01*
X0157770Y0139620D01*
X0158440Y0138010D01*
X0159680Y0136770D01*
X0161290Y0136100D01*
X0163050Y0136100D01*
X0164660Y0136770D01*
X0165590Y0137700D01*
X0165590Y0133300D01*
X0164660Y0134230D01*
X0163050Y0134900D01*
X0161290Y0134900D01*
X0159680Y0134230D01*
X0158440Y0132990D01*
X0157770Y0131380D01*
X0157770Y0129620D01*
X0158440Y0128010D01*
X0159680Y0126770D01*
X0161290Y0126100D01*
X0163050Y0126100D01*
X0164660Y0126770D01*
X0165590Y0127700D01*
X0165590Y0123300D01*
X0164660Y0124230D01*
X0163050Y0124900D01*
X0161290Y0124900D01*
X0159680Y0124230D01*
X0158440Y0122990D01*
X0157770Y0121380D01*
X0157770Y0119620D01*
X0158440Y0118010D01*
X0159680Y0116770D01*
X0161290Y0116100D01*
X0163050Y0116100D01*
X0164660Y0116770D01*
X0165590Y0117700D01*
X0165590Y0113300D01*
X0164660Y0114230D01*
X0163050Y0114900D01*
X0161290Y0114900D01*
X0159680Y0114230D01*
X0158440Y0112990D01*
X0157770Y0111380D01*
X0157770Y0109620D01*
X0158440Y0108010D01*
X0159680Y0106770D01*
X0161290Y0106100D01*
X0163050Y0106100D01*
X0164660Y0106770D01*
X0165590Y0107700D01*
X0165590Y0103300D01*
X0164660Y0104230D01*
X0163050Y0104900D01*
X0161290Y0104900D01*
X0159680Y0104230D01*
X0158440Y0102990D01*
X0157770Y0101380D01*
X0157770Y0099620D01*
X0158440Y0098010D01*
X0159680Y0096770D01*
X0161290Y0096100D01*
X0163050Y0096100D01*
X0164660Y0096770D01*
X0165590Y0097700D01*
X0165590Y0093300D01*
X0164660Y0094230D01*
X0163050Y0094900D01*
X0161290Y0094900D01*
X0159680Y0094230D01*
X0158440Y0092990D01*
X0157770Y0091380D01*
X0157770Y0089620D01*
X0158440Y0088010D01*
X0159680Y0086770D01*
X0161290Y0086100D01*
X0163050Y0086100D01*
X0164660Y0086770D01*
X0165590Y0087700D01*
X0165590Y0083870D01*
X0165300Y0084160D01*
X0164690Y0084610D01*
X0164010Y0084950D01*
X0163290Y0085180D01*
X0162650Y0085280D01*
X0162650Y0080980D01*
X0161690Y0080980D01*
X0161690Y0080020D01*
X0162650Y0080020D01*
X0162650Y0075720D01*
X0163290Y0075820D01*
X0164010Y0076050D01*
X0164690Y0076390D01*
X0165300Y0076840D01*
X0165590Y0077130D01*
X0165590Y0073300D01*
X0164660Y0074230D01*
X0163050Y0074900D01*
X0161290Y0074900D01*
X0159680Y0074230D01*
X0158940Y0073490D01*
X0157620Y0074800D01*
X0111120Y0074800D01*
X0106490Y0079430D01*
X0106570Y0079620D01*
X0106570Y0081380D01*
X0105900Y0082990D01*
X0104660Y0084230D01*
X0103050Y0084900D01*
X0101290Y0084900D01*
X0099680Y0084230D01*
X0098670Y0083220D01*
X0098670Y0083840D02*
X0099290Y0083840D01*
X0098670Y0084830D02*
X0101110Y0084830D01*
X0103230Y0084830D02*
X0160090Y0084830D01*
X0160330Y0084950D02*
X0159650Y0084610D01*
X0159040Y0084160D01*
X0158510Y0083630D01*
X0158060Y0083020D01*
X0157720Y0082340D01*
X0157490Y0081620D01*
X0157390Y0080980D01*
X0161690Y0080980D01*
X0161690Y0085280D01*
X0161050Y0085180D01*
X0160330Y0084950D01*
X0161690Y0084830D02*
X0162650Y0084830D01*
X0162650Y0083840D02*
X0161690Y0083840D01*
X0161690Y0082860D02*
X0162650Y0082860D01*
X0162650Y0081870D02*
X0161690Y0081870D01*
X0161690Y0080890D02*
X0106570Y0080890D01*
X0106570Y0079900D02*
X0157410Y0079900D01*
X0157390Y0080020D02*
X0157490Y0079380D01*
X0157720Y0078660D01*
X0158060Y0077980D01*
X0158510Y0077370D01*
X0159040Y0076840D01*
X0159650Y0076390D01*
X0160330Y0076050D01*
X0161050Y0075820D01*
X0161690Y0075720D01*
X0161690Y0080020D01*
X0157390Y0080020D01*
X0157640Y0078920D02*
X0107010Y0078920D01*
X0106370Y0081870D02*
X0157570Y0081870D01*
X0157980Y0082860D02*
X0105960Y0082860D01*
X0105050Y0083840D02*
X0158720Y0083840D01*
X0159650Y0086800D02*
X0104690Y0086800D01*
X0105670Y0087780D02*
X0158670Y0087780D01*
X0158130Y0088770D02*
X0106210Y0088770D01*
X0106570Y0089750D02*
X0157770Y0089750D01*
X0157770Y0090740D02*
X0106570Y0090740D01*
X0106430Y0091720D02*
X0157910Y0091720D01*
X0158320Y0092710D02*
X0106020Y0092710D01*
X0105200Y0093690D02*
X0159140Y0093690D01*
X0160750Y0094680D02*
X0103590Y0094680D01*
X0104360Y0096650D02*
X0114800Y0096650D01*
X0115350Y0096100D02*
X0118990Y0096100D01*
X0121570Y0098680D01*
X0121570Y0102320D01*
X0118990Y0104900D01*
X0115350Y0104900D01*
X0112770Y0102320D01*
X0112770Y0098680D01*
X0115350Y0096100D01*
X0113820Y0097630D02*
X0105520Y0097630D01*
X0106150Y0098620D02*
X0112830Y0098620D01*
X0112770Y0099600D02*
X0106560Y0099600D01*
X0106570Y0100590D02*
X0112770Y0100590D01*
X0112770Y0101570D02*
X0106490Y0101570D01*
X0106080Y0102560D02*
X0113000Y0102560D01*
X0113990Y0103540D02*
X0105350Y0103540D01*
X0103950Y0104530D02*
X0114970Y0104530D01*
X0115350Y0106100D02*
X0118990Y0106100D01*
X0121570Y0108680D01*
X0121570Y0112320D01*
X0118990Y0114900D01*
X0115350Y0114900D01*
X0112770Y0112320D01*
X0112770Y0108680D01*
X0115350Y0106100D01*
X0114950Y0106500D02*
X0104000Y0106500D01*
X0105370Y0107480D02*
X0113970Y0107480D01*
X0112980Y0108470D02*
X0106090Y0108470D01*
X0106500Y0109450D02*
X0112770Y0109450D01*
X0112770Y0110440D02*
X0106570Y0110440D01*
X0106550Y0111420D02*
X0112770Y0111420D01*
X0112850Y0112410D02*
X0106140Y0112410D01*
X0105500Y0113390D02*
X0113840Y0113390D01*
X0114820Y0114380D02*
X0104310Y0114380D01*
X0103640Y0116350D02*
X0115100Y0116350D01*
X0115350Y0116100D02*
X0118990Y0116100D01*
X0121570Y0118680D01*
X0121570Y0122320D01*
X0118990Y0124900D01*
X0115350Y0124900D01*
X0112770Y0122320D01*
X0112770Y0118680D01*
X0115350Y0116100D01*
X0114120Y0117330D02*
X0105220Y0117330D01*
X0106030Y0118320D02*
X0113130Y0118320D01*
X0112770Y0119300D02*
X0106440Y0119300D01*
X0106570Y0120290D02*
X0112770Y0120290D01*
X0112770Y0121270D02*
X0106570Y0121270D01*
X0106210Y0122260D02*
X0112770Y0122260D01*
X0113690Y0123240D02*
X0105650Y0123240D01*
X0104670Y0124230D02*
X0114670Y0124230D01*
X0115350Y0126100D02*
X0118990Y0126100D01*
X0121570Y0128680D01*
X0121570Y0132320D01*
X0118990Y0134900D01*
X0115350Y0134900D01*
X0112770Y0132320D01*
X0112770Y0128680D01*
X0115350Y0126100D01*
X0115250Y0126200D02*
X0103280Y0126200D01*
X0101060Y0126200D02*
X0098670Y0126200D01*
X0098670Y0127180D02*
X0099270Y0127180D01*
X0098670Y0125210D02*
X0165590Y0125210D01*
X0165590Y0124230D02*
X0164670Y0124230D01*
X0165590Y0126200D02*
X0163280Y0126200D01*
X0161060Y0126200D02*
X0149090Y0126200D01*
X0148990Y0126100D02*
X0151570Y0128680D01*
X0151570Y0132320D01*
X0148990Y0134900D01*
X0145350Y0134900D01*
X0142770Y0132320D01*
X0142770Y0128680D01*
X0145350Y0126100D01*
X0148990Y0126100D01*
X0148990Y0124900D02*
X0145350Y0124900D01*
X0142770Y0122320D01*
X0142770Y0118680D01*
X0145350Y0116100D01*
X0148990Y0116100D01*
X0151570Y0118680D01*
X0151570Y0122320D01*
X0148990Y0124900D01*
X0149670Y0124230D02*
X0159670Y0124230D01*
X0158690Y0123240D02*
X0150650Y0123240D01*
X0151570Y0122260D02*
X0158130Y0122260D01*
X0157770Y0121270D02*
X0151570Y0121270D01*
X0151570Y0120290D02*
X0157770Y0120290D01*
X0157900Y0119300D02*
X0151570Y0119300D01*
X0151210Y0118320D02*
X0158310Y0118320D01*
X0159120Y0117330D02*
X0150220Y0117330D01*
X0149240Y0116350D02*
X0160700Y0116350D01*
X0160030Y0114380D02*
X0149520Y0114380D01*
X0148990Y0114900D02*
X0145350Y0114900D01*
X0142770Y0112320D01*
X0142770Y0108680D01*
X0145350Y0106100D01*
X0148990Y0106100D01*
X0151570Y0108680D01*
X0151570Y0112320D01*
X0148990Y0114900D01*
X0150500Y0113390D02*
X0158840Y0113390D01*
X0158200Y0112410D02*
X0151490Y0112410D01*
X0151570Y0111420D02*
X0157790Y0111420D01*
X0157770Y0110440D02*
X0151570Y0110440D01*
X0151570Y0109450D02*
X0157840Y0109450D01*
X0158250Y0108470D02*
X0151360Y0108470D01*
X0150370Y0107480D02*
X0158970Y0107480D01*
X0160340Y0106500D02*
X0149390Y0106500D01*
X0148990Y0104900D02*
X0145350Y0104900D01*
X0142770Y0102320D01*
X0142770Y0098680D01*
X0145350Y0096100D01*
X0148990Y0096100D01*
X0151570Y0098680D01*
X0151570Y0102320D01*
X0148990Y0104900D01*
X0149370Y0104530D02*
X0160390Y0104530D01*
X0158990Y0103540D02*
X0150350Y0103540D01*
X0151340Y0102560D02*
X0158260Y0102560D01*
X0157850Y0101570D02*
X0151570Y0101570D01*
X0151570Y0100590D02*
X0157770Y0100590D01*
X0157780Y0099600D02*
X0151570Y0099600D01*
X0151510Y0098620D02*
X0158190Y0098620D01*
X0158820Y0097630D02*
X0150520Y0097630D01*
X0149540Y0096650D02*
X0159980Y0096650D01*
X0163590Y0094680D02*
X0165590Y0094680D01*
X0165590Y0095660D02*
X0098670Y0095660D01*
X0098670Y0094680D02*
X0100750Y0094680D01*
X0099980Y0096650D02*
X0098670Y0096650D01*
X0098670Y0097630D02*
X0098820Y0097630D01*
X0098670Y0093690D02*
X0099140Y0093690D01*
X0098670Y0086800D02*
X0099650Y0086800D01*
X0098670Y0085810D02*
X0165590Y0085810D01*
X0165590Y0084830D02*
X0164250Y0084830D01*
X0164690Y0086800D02*
X0165590Y0086800D01*
X0165590Y0093690D02*
X0165200Y0093690D01*
X0165590Y0096650D02*
X0164360Y0096650D01*
X0165520Y0097630D02*
X0165590Y0097630D01*
X0165350Y0103540D02*
X0165590Y0103540D01*
X0165590Y0104530D02*
X0163950Y0104530D01*
X0164000Y0106500D02*
X0165590Y0106500D01*
X0165590Y0107480D02*
X0165370Y0107480D01*
X0165590Y0105510D02*
X0098670Y0105510D01*
X0098670Y0104530D02*
X0100390Y0104530D01*
X0100340Y0106500D02*
X0098670Y0106500D01*
X0098670Y0107480D02*
X0098970Y0107480D01*
X0098990Y0103540D02*
X0098670Y0103540D01*
X0098670Y0113390D02*
X0098840Y0113390D01*
X0098670Y0114380D02*
X0100030Y0114380D01*
X0100700Y0116350D02*
X0098670Y0116350D01*
X0098670Y0117330D02*
X0099120Y0117330D01*
X0098670Y0115360D02*
X0165590Y0115360D01*
X0165590Y0114380D02*
X0164310Y0114380D01*
X0165500Y0113390D02*
X0165590Y0113390D01*
X0165590Y0116350D02*
X0163640Y0116350D01*
X0165220Y0117330D02*
X0165590Y0117330D01*
X0165590Y0127180D02*
X0165070Y0127180D01*
X0164820Y0134080D02*
X0165590Y0134080D01*
X0165590Y0135060D02*
X0098670Y0135060D01*
X0098670Y0134080D02*
X0099520Y0134080D01*
X0098670Y0136050D02*
X0165590Y0136050D01*
X0165590Y0137030D02*
X0164920Y0137030D01*
X0164970Y0143930D02*
X0165590Y0143930D01*
X0165590Y0144910D02*
X0098670Y0144910D01*
X0098670Y0143930D02*
X0099370Y0143930D01*
X0098670Y0145900D02*
X0165590Y0145900D01*
X0165590Y0146880D02*
X0164770Y0146880D01*
X0165120Y0153780D02*
X0165590Y0153780D01*
X0165590Y0154760D02*
X0163380Y0154760D01*
X0164570Y0156730D02*
X0165590Y0156730D01*
X0165590Y0155750D02*
X0125050Y0155750D01*
X0125350Y0154900D02*
X0125050Y0154600D01*
X0125050Y0158740D01*
X0124410Y0159380D01*
X0119930Y0159380D01*
X0119290Y0158740D01*
X0119290Y0154600D01*
X0118990Y0154900D01*
X0115350Y0154900D01*
X0112770Y0152320D01*
X0112770Y0148680D01*
X0115350Y0146100D01*
X0118990Y0146100D01*
X0121570Y0148680D01*
X0121570Y0152320D01*
X0120270Y0153620D01*
X0124070Y0153620D01*
X0122770Y0152320D01*
X0122770Y0148680D01*
X0125350Y0146100D01*
X0128990Y0146100D01*
X0131570Y0148680D01*
X0131570Y0152320D01*
X0128990Y0154900D01*
X0125350Y0154900D01*
X0125210Y0154760D02*
X0125050Y0154760D01*
X0125050Y0156730D02*
X0159770Y0156730D01*
X0158730Y0157720D02*
X0125050Y0157720D01*
X0125050Y0158700D02*
X0158150Y0158700D01*
X0157770Y0159690D02*
X0106570Y0159690D01*
X0106570Y0160670D02*
X0157770Y0160670D01*
X0157890Y0161660D02*
X0106450Y0161660D01*
X0106050Y0162640D02*
X0158290Y0162640D01*
X0159070Y0163630D02*
X0105270Y0163630D01*
X0104010Y0166050D02*
X0104690Y0166390D01*
X0105300Y0166840D01*
X0105830Y0167370D01*
X0106280Y0167980D01*
X0106620Y0168660D01*
X0106850Y0169380D01*
X0106950Y0170020D01*
X0102650Y0170020D01*
X0102650Y0165720D01*
X0103290Y0165820D01*
X0104010Y0166050D01*
X0102650Y0166580D02*
X0101690Y0166580D01*
X0101690Y0167570D02*
X0102650Y0167570D01*
X0102650Y0168550D02*
X0101690Y0168550D01*
X0101690Y0169540D02*
X0102650Y0169540D01*
X0102650Y0170520D02*
X0113500Y0170520D01*
X0113500Y0171230D02*
X0113500Y0169770D01*
X0114050Y0168420D01*
X0115090Y0167380D01*
X0116440Y0166830D01*
X0117900Y0166830D01*
X0119250Y0167380D01*
X0120290Y0168420D01*
X0120840Y0169770D01*
X0120840Y0171230D01*
X0120290Y0172580D01*
X0119250Y0173620D01*
X0117900Y0174170D01*
X0116440Y0174170D01*
X0115090Y0173620D01*
X0114050Y0172580D01*
X0113500Y0171230D01*
X0113610Y0171510D02*
X0106870Y0171510D01*
X0106850Y0171620D02*
X0106620Y0172340D01*
X0106280Y0173020D01*
X0105830Y0173630D01*
X0105300Y0174160D01*
X0104690Y0174610D01*
X0104010Y0174950D01*
X0103290Y0175180D01*
X0102650Y0175280D01*
X0102650Y0170980D01*
X0106950Y0170980D01*
X0106850Y0171620D01*
X0106540Y0172490D02*
X0114020Y0172490D01*
X0113590Y0169540D02*
X0106880Y0169540D01*
X0106560Y0168550D02*
X0114000Y0168550D01*
X0114910Y0167570D02*
X0105970Y0167570D01*
X0104940Y0166580D02*
X0160140Y0166580D01*
X0158880Y0167570D02*
X0149430Y0167570D01*
X0149250Y0167380D02*
X0150290Y0168420D01*
X0150840Y0169770D01*
X0150840Y0171230D01*
X0150290Y0172580D01*
X0149250Y0173620D01*
X0147900Y0174170D01*
X0146440Y0174170D01*
X0145090Y0173620D01*
X0144050Y0172580D01*
X0143500Y0171230D01*
X0143500Y0169770D01*
X0144050Y0168420D01*
X0145090Y0167380D01*
X0146440Y0166830D01*
X0147900Y0166830D01*
X0149250Y0167380D01*
X0150340Y0168550D02*
X0158220Y0168550D01*
X0157810Y0169540D02*
X0150750Y0169540D01*
X0150840Y0170520D02*
X0157030Y0170520D01*
X0156040Y0171510D02*
X0150730Y0171510D01*
X0150320Y0172490D02*
X0155060Y0172490D01*
X0155050Y0172500D02*
X0155050Y0172500D01*
X0154170Y0173480D02*
X0149390Y0173480D01*
X0149940Y0176430D02*
X0150320Y0176530D01*
X0150670Y0176720D01*
X0150950Y0177000D01*
X0151140Y0177350D01*
X0151240Y0177730D01*
X0151240Y0180210D01*
X0147460Y0180210D01*
X0147460Y0176430D01*
X0146880Y0176430D01*
X0146880Y0180210D01*
X0143100Y0180210D01*
X0143100Y0177730D01*
X0143200Y0177350D01*
X0143390Y0177000D01*
X0143670Y0176720D01*
X0144020Y0176530D01*
X0144400Y0176430D01*
X0146880Y0176430D01*
X0147460Y0176430D02*
X0149940Y0176430D01*
X0149960Y0176430D02*
X0154170Y0176430D01*
X0154170Y0175450D02*
X0132740Y0175450D01*
X0133670Y0176430D02*
X0144380Y0176430D01*
X0144950Y0173480D02*
X0139390Y0173480D01*
X0139250Y0173620D02*
X0137900Y0174170D01*
X0136440Y0174170D01*
X0135090Y0173620D01*
X0134050Y0172580D01*
X0133500Y0171230D01*
X0133500Y0169770D01*
X0134050Y0168420D01*
X0135090Y0167380D01*
X0136440Y0166830D01*
X0137900Y0166830D01*
X0139250Y0167380D01*
X0140290Y0168420D01*
X0140840Y0169770D01*
X0140840Y0171230D01*
X0140290Y0172580D01*
X0139250Y0173620D01*
X0140320Y0172490D02*
X0144020Y0172490D01*
X0143610Y0171510D02*
X0140730Y0171510D01*
X0140840Y0170520D02*
X0143500Y0170520D01*
X0143590Y0169540D02*
X0140750Y0169540D01*
X0140340Y0168550D02*
X0144000Y0168550D01*
X0144910Y0167570D02*
X0139430Y0167570D01*
X0134910Y0167570D02*
X0129430Y0167570D01*
X0130340Y0168550D02*
X0134000Y0168550D01*
X0133590Y0169540D02*
X0130750Y0169540D01*
X0130840Y0170520D02*
X0133500Y0170520D01*
X0133610Y0171510D02*
X0130730Y0171510D01*
X0130320Y0172490D02*
X0134020Y0172490D01*
X0134950Y0173480D02*
X0130170Y0173480D01*
X0130170Y0174460D02*
X0154170Y0174460D01*
X0154170Y0177420D02*
X0151160Y0177420D01*
X0151240Y0178400D02*
X0154170Y0178400D01*
X0154170Y0179390D02*
X0151240Y0179390D01*
X0151240Y0181360D02*
X0154170Y0181360D01*
X0154170Y0180370D02*
X0147460Y0180370D01*
X0146880Y0180370D02*
X0140840Y0180370D01*
X0140790Y0181360D02*
X0143100Y0181360D01*
X0143100Y0182340D02*
X0140390Y0182340D01*
X0139540Y0183330D02*
X0143110Y0183330D01*
X0143100Y0179390D02*
X0140690Y0179390D01*
X0140270Y0178400D02*
X0143100Y0178400D01*
X0143180Y0177420D02*
X0139280Y0177420D01*
X0135060Y0177420D02*
X0133670Y0177420D01*
X0133670Y0178400D02*
X0134070Y0178400D01*
X0130670Y0182340D02*
X0130390Y0182340D01*
X0130670Y0183330D02*
X0129540Y0183330D01*
X0130670Y0184310D02*
X0104470Y0184310D01*
X0105570Y0183330D02*
X0114800Y0183330D01*
X0115090Y0183620D02*
X0114050Y0182580D01*
X0113500Y0181230D01*
X0113500Y0179770D01*
X0114050Y0178420D01*
X0115090Y0177380D01*
X0116440Y0176830D01*
X0117900Y0176830D01*
X0119250Y0177380D01*
X0120290Y0178420D01*
X0120840Y0179770D01*
X0120840Y0181230D01*
X0120290Y0182580D01*
X0119250Y0183620D01*
X0117900Y0184170D01*
X0116440Y0184170D01*
X0115090Y0183620D01*
X0113950Y0182340D02*
X0106170Y0182340D01*
X0106570Y0181360D02*
X0113550Y0181360D01*
X0113500Y0180370D02*
X0106570Y0180370D01*
X0106470Y0179390D02*
X0113650Y0179390D01*
X0114070Y0178400D02*
X0106060Y0178400D01*
X0105310Y0177420D02*
X0115060Y0177420D01*
X0114950Y0173480D02*
X0105940Y0173480D01*
X0104890Y0174460D02*
X0127170Y0174460D01*
X0127170Y0175450D02*
X0098670Y0175450D01*
X0098670Y0176430D02*
X0100500Y0176430D01*
X0101690Y0174460D02*
X0102650Y0174460D01*
X0102650Y0173480D02*
X0101690Y0173480D01*
X0101690Y0172490D02*
X0102650Y0172490D01*
X0102650Y0171510D02*
X0101690Y0171510D01*
X0099450Y0174460D02*
X0098670Y0174460D01*
X0098670Y0177420D02*
X0099030Y0177420D01*
X0098770Y0183330D02*
X0098670Y0183330D01*
X0098670Y0184310D02*
X0099870Y0184310D01*
X0100860Y0186280D02*
X0098670Y0186280D01*
X0098670Y0185300D02*
X0130670Y0185300D01*
X0131330Y0186280D02*
X0103480Y0186280D01*
X0105160Y0187270D02*
X0132600Y0187270D01*
X0133830Y0188250D02*
X0106000Y0188250D01*
X0106410Y0189240D02*
X0135060Y0189240D01*
X0136270Y0190220D02*
X0106570Y0190220D01*
X0106570Y0191210D02*
X0157770Y0191210D01*
X0157770Y0190220D02*
X0155630Y0190220D01*
X0156380Y0189240D02*
X0157930Y0189240D01*
X0158340Y0188250D02*
X0157130Y0188250D01*
X0157880Y0187270D02*
X0159180Y0187270D01*
X0158640Y0186280D02*
X0160860Y0186280D01*
X0159390Y0185300D02*
X0165590Y0185300D01*
X0165590Y0186280D02*
X0163480Y0186280D01*
X0164470Y0184310D02*
X0165590Y0184310D01*
X0165570Y0183330D02*
X0165590Y0183330D01*
X0165590Y0187270D02*
X0165160Y0187270D01*
X0164730Y0194160D02*
X0165590Y0194160D01*
X0165590Y0195150D02*
X0098670Y0195150D01*
X0098670Y0196130D02*
X0165590Y0196130D01*
X0165590Y0197120D02*
X0098670Y0197120D01*
X0098670Y0194160D02*
X0099610Y0194160D01*
X0099180Y0187270D02*
X0098670Y0187270D01*
X0103840Y0176430D02*
X0127170Y0176430D01*
X0125060Y0177420D02*
X0119280Y0177420D01*
X0120270Y0178400D02*
X0124070Y0178400D01*
X0123650Y0179390D02*
X0120690Y0179390D01*
X0120840Y0180370D02*
X0123500Y0180370D01*
X0123550Y0181360D02*
X0120790Y0181360D01*
X0120390Y0182340D02*
X0123950Y0182340D01*
X0124800Y0183330D02*
X0119540Y0183330D01*
X0119390Y0173480D02*
X0124950Y0173480D01*
X0124020Y0172490D02*
X0120320Y0172490D01*
X0120730Y0171510D02*
X0123610Y0171510D01*
X0123500Y0170520D02*
X0120840Y0170520D01*
X0120750Y0169540D02*
X0123590Y0169540D01*
X0124000Y0168550D02*
X0120340Y0168550D01*
X0119430Y0167570D02*
X0124910Y0167570D01*
X0129130Y0154760D02*
X0135210Y0154760D01*
X0135350Y0154900D02*
X0132770Y0152320D01*
X0132770Y0148680D01*
X0135350Y0146100D01*
X0138990Y0146100D01*
X0141570Y0148680D01*
X0141570Y0152320D01*
X0138990Y0154900D01*
X0135350Y0154900D01*
X0134220Y0153780D02*
X0130120Y0153780D01*
X0131100Y0152790D02*
X0133240Y0152790D01*
X0132770Y0151810D02*
X0131570Y0151810D01*
X0131570Y0150820D02*
X0132770Y0150820D01*
X0132770Y0149840D02*
X0131570Y0149840D01*
X0131570Y0148850D02*
X0132770Y0148850D01*
X0133580Y0147870D02*
X0130760Y0147870D01*
X0129770Y0146880D02*
X0134570Y0146880D01*
X0135350Y0144900D02*
X0132770Y0142320D01*
X0132770Y0138680D01*
X0135350Y0136100D01*
X0138990Y0136100D01*
X0141570Y0138680D01*
X0141570Y0142320D01*
X0138990Y0144900D01*
X0135350Y0144900D01*
X0134370Y0143930D02*
X0129970Y0143930D01*
X0128990Y0144900D02*
X0125350Y0144900D01*
X0122770Y0142320D01*
X0122770Y0138680D01*
X0125350Y0136100D01*
X0128990Y0136100D01*
X0131570Y0138680D01*
X0131570Y0142320D01*
X0128990Y0144900D01*
X0130950Y0142940D02*
X0133390Y0142940D01*
X0132770Y0141960D02*
X0131570Y0141960D01*
X0131570Y0140970D02*
X0132770Y0140970D01*
X0132770Y0139990D02*
X0131570Y0139990D01*
X0131570Y0139000D02*
X0132770Y0139000D01*
X0133430Y0138020D02*
X0130910Y0138020D01*
X0129920Y0137030D02*
X0134420Y0137030D01*
X0135350Y0134900D02*
X0132770Y0132320D01*
X0132770Y0128680D01*
X0135350Y0126100D01*
X0138990Y0126100D01*
X0141570Y0128680D01*
X0141570Y0132320D01*
X0138990Y0134900D01*
X0135350Y0134900D01*
X0134520Y0134080D02*
X0129820Y0134080D01*
X0128990Y0134900D02*
X0125350Y0134900D01*
X0122770Y0132320D01*
X0122770Y0128680D01*
X0125350Y0126100D01*
X0128990Y0126100D01*
X0131570Y0128680D01*
X0131570Y0132320D01*
X0128990Y0134900D01*
X0130800Y0133090D02*
X0133540Y0133090D01*
X0132770Y0132110D02*
X0131570Y0132110D01*
X0131570Y0131120D02*
X0132770Y0131120D01*
X0132770Y0130140D02*
X0131570Y0130140D01*
X0131570Y0129150D02*
X0132770Y0129150D01*
X0133280Y0128170D02*
X0131060Y0128170D01*
X0130070Y0127180D02*
X0134270Y0127180D01*
X0135250Y0126200D02*
X0129090Y0126200D01*
X0128990Y0124900D02*
X0125350Y0124900D01*
X0122770Y0122320D01*
X0122770Y0118680D01*
X0125350Y0116100D01*
X0128990Y0116100D01*
X0131570Y0118680D01*
X0131570Y0122320D01*
X0128990Y0124900D01*
X0129670Y0124230D02*
X0134670Y0124230D01*
X0135350Y0124900D02*
X0132770Y0122320D01*
X0132770Y0118680D01*
X0135350Y0116100D01*
X0138990Y0116100D01*
X0141570Y0118680D01*
X0141570Y0122320D01*
X0138990Y0124900D01*
X0135350Y0124900D01*
X0133690Y0123240D02*
X0130650Y0123240D01*
X0131570Y0122260D02*
X0132770Y0122260D01*
X0132770Y0121270D02*
X0131570Y0121270D01*
X0131570Y0120290D02*
X0132770Y0120290D01*
X0132770Y0119300D02*
X0131570Y0119300D01*
X0131210Y0118320D02*
X0133130Y0118320D01*
X0134120Y0117330D02*
X0130220Y0117330D01*
X0129240Y0116350D02*
X0135100Y0116350D01*
X0135350Y0114900D02*
X0132770Y0112320D01*
X0132770Y0108680D01*
X0135350Y0106100D01*
X0138990Y0106100D01*
X0141570Y0108680D01*
X0141570Y0112320D01*
X0138990Y0114900D01*
X0135350Y0114900D01*
X0134820Y0114380D02*
X0129520Y0114380D01*
X0128990Y0114900D02*
X0125350Y0114900D01*
X0122770Y0112320D01*
X0122770Y0108680D01*
X0125350Y0106100D01*
X0128990Y0106100D01*
X0131570Y0108680D01*
X0131570Y0112320D01*
X0128990Y0114900D01*
X0130500Y0113390D02*
X0133840Y0113390D01*
X0132850Y0112410D02*
X0131490Y0112410D01*
X0131570Y0111420D02*
X0132770Y0111420D01*
X0132770Y0110440D02*
X0131570Y0110440D01*
X0131570Y0109450D02*
X0132770Y0109450D01*
X0132980Y0108470D02*
X0131360Y0108470D01*
X0130370Y0107480D02*
X0133970Y0107480D01*
X0134950Y0106500D02*
X0129390Y0106500D01*
X0128990Y0104900D02*
X0125350Y0104900D01*
X0122770Y0102320D01*
X0122770Y0098680D01*
X0125350Y0096100D01*
X0128990Y0096100D01*
X0131570Y0098680D01*
X0131570Y0102320D01*
X0128990Y0104900D01*
X0129370Y0104530D02*
X0134970Y0104530D01*
X0135350Y0104900D02*
X0132770Y0102320D01*
X0132770Y0098680D01*
X0135350Y0096100D01*
X0138990Y0096100D01*
X0141570Y0098680D01*
X0141570Y0102320D01*
X0138990Y0104900D01*
X0135350Y0104900D01*
X0133990Y0103540D02*
X0130350Y0103540D01*
X0131340Y0102560D02*
X0133000Y0102560D01*
X0132770Y0101570D02*
X0131570Y0101570D01*
X0131570Y0100590D02*
X0132770Y0100590D01*
X0132770Y0099600D02*
X0131570Y0099600D01*
X0131510Y0098620D02*
X0132830Y0098620D01*
X0133820Y0097630D02*
X0130520Y0097630D01*
X0129540Y0096650D02*
X0134800Y0096650D01*
X0139370Y0104530D02*
X0144970Y0104530D01*
X0144950Y0106500D02*
X0139390Y0106500D01*
X0140370Y0107480D02*
X0143970Y0107480D01*
X0142980Y0108470D02*
X0141360Y0108470D01*
X0141570Y0109450D02*
X0142770Y0109450D01*
X0142770Y0110440D02*
X0141570Y0110440D01*
X0141570Y0111420D02*
X0142770Y0111420D01*
X0142850Y0112410D02*
X0141490Y0112410D01*
X0140500Y0113390D02*
X0143840Y0113390D01*
X0144820Y0114380D02*
X0139520Y0114380D01*
X0139240Y0116350D02*
X0145100Y0116350D01*
X0144120Y0117330D02*
X0140220Y0117330D01*
X0141210Y0118320D02*
X0143130Y0118320D01*
X0142770Y0119300D02*
X0141570Y0119300D01*
X0141570Y0120290D02*
X0142770Y0120290D01*
X0142770Y0121270D02*
X0141570Y0121270D01*
X0141570Y0122260D02*
X0142770Y0122260D01*
X0143690Y0123240D02*
X0140650Y0123240D01*
X0139670Y0124230D02*
X0144670Y0124230D01*
X0145250Y0126200D02*
X0139090Y0126200D01*
X0140070Y0127180D02*
X0144270Y0127180D01*
X0143280Y0128170D02*
X0141060Y0128170D01*
X0141570Y0129150D02*
X0142770Y0129150D01*
X0142770Y0130140D02*
X0141570Y0130140D01*
X0141570Y0131120D02*
X0142770Y0131120D01*
X0142770Y0132110D02*
X0141570Y0132110D01*
X0140800Y0133090D02*
X0143540Y0133090D01*
X0144520Y0134080D02*
X0139820Y0134080D01*
X0139920Y0137030D02*
X0144420Y0137030D01*
X0145350Y0136100D02*
X0148990Y0136100D01*
X0151570Y0138680D01*
X0151570Y0142320D01*
X0148990Y0144900D01*
X0145350Y0144900D01*
X0142770Y0142320D01*
X0142770Y0138680D01*
X0145350Y0136100D01*
X0143430Y0138020D02*
X0140910Y0138020D01*
X0141570Y0139000D02*
X0142770Y0139000D01*
X0142770Y0139990D02*
X0141570Y0139990D01*
X0141570Y0140970D02*
X0142770Y0140970D01*
X0142770Y0141960D02*
X0141570Y0141960D01*
X0140950Y0142940D02*
X0143390Y0142940D01*
X0144370Y0143930D02*
X0139970Y0143930D01*
X0139770Y0146880D02*
X0144570Y0146880D01*
X0145350Y0146100D02*
X0148990Y0146100D01*
X0151570Y0148680D01*
X0151570Y0152320D01*
X0148990Y0154900D01*
X0145350Y0154900D01*
X0142770Y0152320D01*
X0142770Y0148680D01*
X0145350Y0146100D01*
X0143580Y0147870D02*
X0140760Y0147870D01*
X0141570Y0148850D02*
X0142770Y0148850D01*
X0142770Y0149840D02*
X0141570Y0149840D01*
X0141570Y0150820D02*
X0142770Y0150820D01*
X0142770Y0151810D02*
X0141570Y0151810D01*
X0141100Y0152790D02*
X0143240Y0152790D01*
X0144220Y0153780D02*
X0140120Y0153780D01*
X0139130Y0154760D02*
X0145210Y0154760D01*
X0149130Y0154760D02*
X0160960Y0154760D01*
X0159220Y0153780D02*
X0150120Y0153780D01*
X0151100Y0152790D02*
X0158360Y0152790D01*
X0157950Y0151810D02*
X0151570Y0151810D01*
X0151570Y0150820D02*
X0157770Y0150820D01*
X0157770Y0149840D02*
X0151570Y0149840D01*
X0151570Y0148850D02*
X0158090Y0148850D01*
X0158580Y0147870D02*
X0150760Y0147870D01*
X0149770Y0146880D02*
X0159570Y0146880D01*
X0159370Y0143930D02*
X0149970Y0143930D01*
X0150950Y0142940D02*
X0158420Y0142940D01*
X0158010Y0141960D02*
X0151570Y0141960D01*
X0151570Y0140970D02*
X0157770Y0140970D01*
X0157770Y0139990D02*
X0151570Y0139990D01*
X0151570Y0139000D02*
X0158030Y0139000D01*
X0158440Y0138020D02*
X0150910Y0138020D01*
X0149920Y0137030D02*
X0159420Y0137030D01*
X0159520Y0134080D02*
X0149820Y0134080D01*
X0150800Y0133090D02*
X0158540Y0133090D01*
X0158070Y0132110D02*
X0151570Y0132110D01*
X0151570Y0131120D02*
X0157770Y0131120D01*
X0157770Y0130140D02*
X0151570Y0130140D01*
X0151570Y0129150D02*
X0157970Y0129150D01*
X0158370Y0128170D02*
X0151060Y0128170D01*
X0150070Y0127180D02*
X0159270Y0127180D01*
X0144800Y0096650D02*
X0139540Y0096650D01*
X0140520Y0097630D02*
X0143820Y0097630D01*
X0142830Y0098620D02*
X0141510Y0098620D01*
X0141570Y0099600D02*
X0142770Y0099600D01*
X0142770Y0100590D02*
X0141570Y0100590D01*
X0141570Y0101570D02*
X0142770Y0101570D01*
X0143000Y0102560D02*
X0141340Y0102560D01*
X0140350Y0103540D02*
X0143990Y0103540D01*
X0158100Y0077930D02*
X0107990Y0077930D01*
X0108980Y0076950D02*
X0158940Y0076950D01*
X0160610Y0075960D02*
X0109960Y0075960D01*
X0110950Y0074980D02*
X0165590Y0074980D01*
X0165590Y0075960D02*
X0163730Y0075960D01*
X0162650Y0075960D02*
X0161690Y0075960D01*
X0161690Y0076950D02*
X0162650Y0076950D01*
X0162650Y0077930D02*
X0161690Y0077930D01*
X0161690Y0078920D02*
X0162650Y0078920D01*
X0162650Y0079900D02*
X0161690Y0079900D01*
X0159440Y0073990D02*
X0158430Y0073990D01*
X0164750Y0064140D02*
X0165590Y0064140D01*
X0165590Y0067100D02*
X0164990Y0067100D01*
X0164900Y0073990D02*
X0165590Y0073990D01*
X0165400Y0076950D02*
X0165590Y0076950D01*
X0165140Y0057250D02*
X0165590Y0057250D01*
X0165590Y0056260D02*
X0163430Y0056260D01*
X0161660Y0037540D02*
X0165590Y0037540D01*
X0165590Y0036560D02*
X0162530Y0036560D01*
X0162930Y0035570D02*
X0165590Y0035570D01*
X0165590Y0034590D02*
X0162940Y0034590D01*
X0162670Y0033600D02*
X0165590Y0033600D01*
X0165590Y0032620D02*
X0162010Y0032620D01*
X0161670Y0025720D02*
X0165590Y0025720D01*
X0165590Y0024740D02*
X0162530Y0024740D01*
X0162940Y0023750D02*
X0165590Y0023750D01*
X0165590Y0022770D02*
X0162940Y0022770D01*
X0162670Y0021780D02*
X0165590Y0021780D01*
X0165590Y0020800D02*
X0162000Y0020800D01*
X0160930Y0016860D02*
X0158410Y0016860D01*
X0158410Y0015870D02*
X0160930Y0015870D01*
X0160930Y0014890D02*
X0158410Y0014890D01*
X0158410Y0013900D02*
X0160930Y0013900D01*
X0160930Y0012920D02*
X0158410Y0012920D01*
X0156370Y0017840D02*
X0165590Y0017840D01*
X0165590Y0018830D02*
X0156830Y0018830D01*
X0156830Y0019810D02*
X0165590Y0019810D01*
X0157340Y0020800D02*
X0156830Y0020800D01*
X0156400Y0022770D02*
X0147490Y0022770D01*
X0147900Y0021780D02*
X0148730Y0021780D01*
X0148730Y0020800D02*
X0148070Y0020800D01*
X0148070Y0019810D02*
X0148730Y0019810D01*
X0148730Y0018830D02*
X0147740Y0018830D01*
X0147240Y0017840D02*
X0149190Y0017840D01*
X0146640Y0023750D02*
X0156400Y0023750D01*
X0153060Y0016860D02*
X0146250Y0016860D01*
X0141090Y0016860D02*
X0136250Y0016860D01*
X0137240Y0017840D02*
X0140100Y0017840D01*
X0139600Y0018830D02*
X0137740Y0018830D01*
X0138070Y0019810D02*
X0139270Y0019810D01*
X0139270Y0020800D02*
X0138070Y0020800D01*
X0137900Y0021780D02*
X0139440Y0021780D01*
X0139850Y0022770D02*
X0137490Y0022770D01*
X0136640Y0023750D02*
X0140700Y0023750D01*
X0124110Y0056260D02*
X0104420Y0056260D01*
X0119540Y0096650D02*
X0124800Y0096650D01*
X0123820Y0097630D02*
X0120520Y0097630D01*
X0121510Y0098620D02*
X0122830Y0098620D01*
X0122770Y0099600D02*
X0121570Y0099600D01*
X0121570Y0100590D02*
X0122770Y0100590D01*
X0122770Y0101570D02*
X0121570Y0101570D01*
X0121340Y0102560D02*
X0123000Y0102560D01*
X0123990Y0103540D02*
X0120350Y0103540D01*
X0119370Y0104530D02*
X0124970Y0104530D01*
X0124950Y0106500D02*
X0119390Y0106500D01*
X0120370Y0107480D02*
X0123970Y0107480D01*
X0122980Y0108470D02*
X0121360Y0108470D01*
X0121570Y0109450D02*
X0122770Y0109450D01*
X0122770Y0110440D02*
X0121570Y0110440D01*
X0121570Y0111420D02*
X0122770Y0111420D01*
X0122850Y0112410D02*
X0121490Y0112410D01*
X0120500Y0113390D02*
X0123840Y0113390D01*
X0124820Y0114380D02*
X0119520Y0114380D01*
X0119240Y0116350D02*
X0125100Y0116350D01*
X0124120Y0117330D02*
X0120220Y0117330D01*
X0121210Y0118320D02*
X0123130Y0118320D01*
X0122770Y0119300D02*
X0121570Y0119300D01*
X0121570Y0120290D02*
X0122770Y0120290D01*
X0122770Y0121270D02*
X0121570Y0121270D01*
X0121570Y0122260D02*
X0122770Y0122260D01*
X0123690Y0123240D02*
X0120650Y0123240D01*
X0119670Y0124230D02*
X0124670Y0124230D01*
X0125250Y0126200D02*
X0119090Y0126200D01*
X0120070Y0127180D02*
X0124270Y0127180D01*
X0123280Y0128170D02*
X0121060Y0128170D01*
X0121570Y0129150D02*
X0122770Y0129150D01*
X0122770Y0130140D02*
X0121570Y0130140D01*
X0121570Y0131120D02*
X0122770Y0131120D01*
X0122770Y0132110D02*
X0121570Y0132110D01*
X0120800Y0133090D02*
X0123540Y0133090D01*
X0124520Y0134080D02*
X0119820Y0134080D01*
X0118990Y0136100D02*
X0121570Y0138680D01*
X0121570Y0142320D01*
X0118990Y0144900D01*
X0115350Y0144900D01*
X0112770Y0142320D01*
X0112770Y0138680D01*
X0115350Y0136100D01*
X0118990Y0136100D01*
X0119920Y0137030D02*
X0124420Y0137030D01*
X0123430Y0138020D02*
X0120910Y0138020D01*
X0121570Y0139000D02*
X0122770Y0139000D01*
X0122770Y0139990D02*
X0121570Y0139990D01*
X0121570Y0140970D02*
X0122770Y0140970D01*
X0122770Y0141960D02*
X0121570Y0141960D01*
X0120950Y0142940D02*
X0123390Y0142940D01*
X0124370Y0143930D02*
X0119970Y0143930D01*
X0119770Y0146880D02*
X0124570Y0146880D01*
X0123580Y0147870D02*
X0120760Y0147870D01*
X0121570Y0148850D02*
X0122770Y0148850D01*
X0122770Y0149840D02*
X0121570Y0149840D01*
X0121570Y0150820D02*
X0122770Y0150820D01*
X0122770Y0151810D02*
X0121570Y0151810D01*
X0121100Y0152790D02*
X0123240Y0152790D01*
X0119290Y0154760D02*
X0119130Y0154760D01*
X0119290Y0155750D02*
X0098670Y0155750D01*
X0098670Y0156730D02*
X0099770Y0156730D01*
X0098670Y0154760D02*
X0100960Y0154760D01*
X0099220Y0153780D02*
X0098670Y0153780D01*
X0098670Y0157720D02*
X0098730Y0157720D01*
X0098670Y0163630D02*
X0099070Y0163630D01*
X0098670Y0164610D02*
X0100600Y0164610D01*
X0099400Y0166580D02*
X0098670Y0166580D01*
X0098670Y0165600D02*
X0165590Y0165600D01*
X0165590Y0166580D02*
X0164200Y0166580D01*
X0165460Y0167570D02*
X0165590Y0167570D01*
X0165590Y0164610D02*
X0163740Y0164610D01*
X0165270Y0163630D02*
X0165590Y0163630D01*
X0160600Y0164610D02*
X0103740Y0164610D01*
X0106190Y0158700D02*
X0119290Y0158700D01*
X0119290Y0157720D02*
X0105610Y0157720D01*
X0104570Y0156730D02*
X0119290Y0156730D01*
X0115210Y0154760D02*
X0103380Y0154760D01*
X0105120Y0153780D02*
X0114220Y0153780D01*
X0113240Y0152790D02*
X0105980Y0152790D01*
X0106390Y0151810D02*
X0112770Y0151810D01*
X0112770Y0150820D02*
X0106570Y0150820D01*
X0106570Y0149840D02*
X0112770Y0149840D01*
X0112770Y0148850D02*
X0106250Y0148850D01*
X0105760Y0147870D02*
X0113580Y0147870D01*
X0114570Y0146880D02*
X0104770Y0146880D01*
X0104970Y0143930D02*
X0114370Y0143930D01*
X0113390Y0142940D02*
X0105920Y0142940D01*
X0106330Y0141960D02*
X0112770Y0141960D01*
X0112770Y0140970D02*
X0106570Y0140970D01*
X0106570Y0139990D02*
X0112770Y0139990D01*
X0112770Y0139000D02*
X0106310Y0139000D01*
X0105900Y0138020D02*
X0113430Y0138020D01*
X0114420Y0137030D02*
X0104920Y0137030D01*
X0104820Y0134080D02*
X0114520Y0134080D01*
X0113540Y0133090D02*
X0105800Y0133090D01*
X0106270Y0132110D02*
X0112770Y0132110D01*
X0112770Y0131120D02*
X0106570Y0131120D01*
X0106570Y0130140D02*
X0112770Y0130140D01*
X0112770Y0129150D02*
X0106370Y0129150D01*
X0105970Y0128170D02*
X0113280Y0128170D01*
X0114270Y0127180D02*
X0105070Y0127180D01*
X0099670Y0124230D02*
X0098670Y0124230D01*
X0098670Y0123240D02*
X0098690Y0123240D01*
X0098670Y0137030D02*
X0099420Y0137030D01*
X0099570Y0146880D02*
X0098670Y0146880D01*
X0106230Y0192190D02*
X0158110Y0192190D01*
X0158620Y0193180D02*
X0105720Y0193180D01*
X0104730Y0194160D02*
X0159610Y0194160D01*
X0153710Y0182340D02*
X0151240Y0182340D01*
X0151230Y0183330D02*
X0152720Y0183330D01*
X0147460Y0179390D02*
X0146880Y0179390D01*
X0146880Y0178400D02*
X0147460Y0178400D01*
X0147460Y0177420D02*
X0146880Y0177420D01*
D26*
X0156670Y0072500D02*
X0110170Y0072500D01*
X0102170Y0080500D01*
X0145120Y0031950D02*
X0152780Y0031950D01*
X0158670Y0070500D02*
X0162170Y0070500D01*
X0158670Y0070500D02*
X0156670Y0072500D01*
D31*
X0143170Y0050500D02*
X0150280Y0039890D01*
X0152780Y0037860D01*
X0145120Y0031950D02*
X0103120Y0031950D01*
X0102170Y0031000D01*
X0102170Y0050500D02*
X0122170Y0050500D01*
X0129670Y0058000D01*
X0132170Y0058000D01*
X0139670Y0050500D01*
X0143170Y0050500D01*
D22*
X0132170Y0058000D03*
X0122170Y0156500D03*
D10*
X0127170Y0170500D02*
X0128670Y0172000D01*
X0128670Y0176500D01*
X0131670Y0176500D01*
X0132170Y0177000D01*
X0132170Y0185000D01*
X0137170Y0189000D01*
X0154670Y0189000D01*
X0161170Y0180500D01*
X0162170Y0180500D01*
X0155670Y0174000D02*
X0159170Y0170500D01*
X0162170Y0170500D01*
X0155670Y0174000D02*
X0155670Y0182500D01*
X0152670Y0185500D01*
X0138170Y0185500D01*
X0137170Y0180500D01*
M02*
