G75*
G70*
%OFA0B0*%
%FSLAX25Y25*%
%IPPOS*%
%LPD*%
%AMOC8*
5,1,8,0,0,1.08239X$1,22.5*
%
%ADD11C,0.07000*%
%ADD12C,0.00600*%
%ADD13OC8,0.07000*%
%ADD20C,0.03940*%
%ADD21C,0.05550*%
%ADD23R,0.02990X0.05000*%
%ADD25R,0.11420X0.05910*%
%ADD28R,0.01800X0.02300*%
%ADD34R,0.05120X0.03550*%
%ADD35R,0.05550X0.05550*%
%ADD37R,0.05120X0.05910*%
%ADD39C,0.00000*%
%ADD43R,0.05400X0.08670*%
X0011000Y0011000D02*
G75*
%LPD*%
D39*
X0011000Y0011000D02*
X0011000Y0199200D01*
X0080920Y0199200D01*
X0080920Y0011000D01*
X0011000Y0011000D01*
X0071730Y0023090D02*
X0071750Y0023350D01*
X0071810Y0023610D01*
X0071910Y0023860D01*
X0072040Y0024090D01*
X0072200Y0024290D01*
X0072400Y0024470D01*
X0072620Y0024620D01*
X0072850Y0024740D01*
X0073110Y0024820D01*
X0073370Y0024860D01*
X0073630Y0024860D01*
X0073890Y0024820D01*
X0074150Y0024740D01*
X0074390Y0024620D01*
X0074600Y0024470D01*
X0074800Y0024290D01*
X0074960Y0024090D01*
X0075090Y0023860D01*
X0075190Y0023610D01*
X0075250Y0023350D01*
X0075270Y0023090D01*
X0075250Y0022830D01*
X0075190Y0022570D01*
X0075090Y0022320D01*
X0074960Y0022090D01*
X0074800Y0021890D01*
X0074600Y0021710D01*
X0074380Y0021560D01*
X0074150Y0021440D01*
X0073890Y0021360D01*
X0073630Y0021320D01*
X0073370Y0021320D01*
X0073110Y0021360D01*
X0072850Y0021440D01*
X0072610Y0021560D01*
X0072400Y0021710D01*
X0072200Y0021890D01*
X0072040Y0022090D01*
X0071910Y0022320D01*
X0071810Y0022570D01*
X0071750Y0022830D01*
X0071730Y0023090D01*
X0071730Y0034910D02*
X0071750Y0035170D01*
X0071810Y0035430D01*
X0071910Y0035680D01*
X0072040Y0035910D01*
X0072200Y0036110D01*
X0072400Y0036290D01*
X0072620Y0036440D01*
X0072850Y0036560D01*
X0073110Y0036640D01*
X0073370Y0036680D01*
X0073630Y0036680D01*
X0073890Y0036640D01*
X0074150Y0036560D01*
X0074390Y0036440D01*
X0074600Y0036290D01*
X0074800Y0036110D01*
X0074960Y0035910D01*
X0075090Y0035680D01*
X0075190Y0035430D01*
X0075250Y0035170D01*
X0075270Y0034910D01*
X0075250Y0034650D01*
X0075190Y0034390D01*
X0075090Y0034140D01*
X0074960Y0033910D01*
X0074800Y0033710D01*
X0074600Y0033530D01*
X0074380Y0033380D01*
X0074150Y0033260D01*
X0073890Y0033180D01*
X0073630Y0033140D01*
X0073370Y0033140D01*
X0073110Y0033180D01*
X0072850Y0033260D01*
X0072610Y0033380D01*
X0072400Y0033530D01*
X0072200Y0033710D01*
X0072040Y0033910D01*
X0071910Y0034140D01*
X0071810Y0034390D01*
X0071750Y0034650D01*
X0071730Y0034910D01*
D21*
X0061000Y0170500D03*
X0051000Y0170500D03*
X0051000Y0180500D03*
X0041000Y0180500D03*
X0041000Y0170500D03*
X0031000Y0170500D03*
X0031000Y0180500D03*
D35*
X0061000Y0180500D03*
D12*
X0065690Y0086600D02*
X0053310Y0086600D01*
X0053310Y0081400D01*
X0065690Y0081400D01*
X0065690Y0086600D01*
X0066000Y0049750D02*
X0066000Y0038250D01*
X0048000Y0038250D02*
X0048000Y0049750D01*
X0043000Y0049750D02*
X0043000Y0038250D01*
X0037690Y0081900D02*
X0025310Y0081900D01*
X0025310Y0087100D01*
X0037690Y0087100D01*
X0037690Y0081900D01*
X0025000Y0049750D02*
X0025000Y0038250D01*
D25*
X0031500Y0079380D03*
X0059500Y0078880D03*
D37*
X0063830Y0089120D03*
X0055170Y0089120D03*
X0035830Y0089620D03*
X0027170Y0089620D03*
D28*
X0027800Y0088450D03*
X0031500Y0080550D03*
X0035200Y0088450D03*
X0055800Y0087950D03*
X0059500Y0080050D03*
X0063200Y0087950D03*
D43*
X0064800Y0044000D03*
X0049200Y0044000D03*
X0041800Y0044000D03*
X0026200Y0044000D03*
D23*
X0025990Y0044000D03*
X0042010Y0044000D03*
X0048990Y0044000D03*
X0065010Y0044000D03*
D11*
X0057500Y0020500D03*
X0047500Y0020500D03*
X0032500Y0020500D03*
X0022500Y0020500D03*
X0016000Y0031000D03*
X0016000Y0041000D03*
X0016000Y0050500D03*
X0016000Y0060500D03*
X0016000Y0070500D03*
X0016000Y0080500D03*
X0016000Y0090500D03*
X0016000Y0100500D03*
X0016000Y0110500D03*
X0016000Y0120500D03*
X0016000Y0130500D03*
X0016000Y0140500D03*
X0016000Y0150500D03*
X0016000Y0160500D03*
X0016000Y0170500D03*
X0016000Y0180500D03*
X0016000Y0190500D03*
X0076000Y0190500D03*
X0076000Y0180500D03*
X0076000Y0170500D03*
X0076000Y0160500D03*
X0076000Y0150500D03*
X0076000Y0140500D03*
X0076000Y0130500D03*
X0076000Y0120500D03*
X0076000Y0110500D03*
X0076000Y0100500D03*
X0076000Y0090500D03*
X0076000Y0080500D03*
X0076000Y0070500D03*
X0076000Y0060500D03*
X0076000Y0050500D03*
D34*
X0048000Y0078960D03*
X0048000Y0086040D03*
X0042500Y0086040D03*
X0042500Y0078960D03*
X0023500Y0116460D03*
X0023000Y0110040D03*
X0023000Y0102960D03*
X0023500Y0123540D03*
D13*
X0031000Y0120500D03*
X0031000Y0110500D03*
X0031000Y0100500D03*
X0041000Y0100500D03*
X0041000Y0110500D03*
X0041000Y0120500D03*
X0041000Y0130500D03*
X0041000Y0140500D03*
X0041000Y0150500D03*
X0031000Y0150500D03*
X0031000Y0140500D03*
X0031000Y0130500D03*
X0051000Y0130500D03*
X0051000Y0120500D03*
X0051000Y0110500D03*
X0051000Y0100500D03*
X0061000Y0100500D03*
X0061000Y0110500D03*
X0061000Y0120500D03*
X0061000Y0130500D03*
X0061000Y0140500D03*
X0061000Y0150500D03*
X0051000Y0150500D03*
X0051000Y0140500D03*
D20*
X0073500Y0034910D03*
X0073500Y0023090D03*
X0097170Y0011000D02*
G75*
%LPD*%
D39*
X0097170Y0011000D02*
X0097170Y0199200D01*
X0167090Y0199200D01*
X0167090Y0011000D01*
X0097170Y0011000D01*
X0157900Y0023090D02*
X0157920Y0023350D01*
X0157980Y0023610D01*
X0158080Y0023860D01*
X0158210Y0024090D01*
X0158370Y0024290D01*
X0158570Y0024470D01*
X0158790Y0024620D01*
X0159020Y0024740D01*
X0159280Y0024820D01*
X0159540Y0024860D01*
X0159800Y0024860D01*
X0160060Y0024820D01*
X0160320Y0024740D01*
X0160560Y0024620D01*
X0160770Y0024470D01*
X0160970Y0024290D01*
X0161130Y0024090D01*
X0161260Y0023860D01*
X0161360Y0023610D01*
X0161420Y0023350D01*
X0161440Y0023090D01*
X0161420Y0022830D01*
X0161360Y0022570D01*
X0161260Y0022320D01*
X0161130Y0022090D01*
X0160970Y0021890D01*
X0160770Y0021710D01*
X0160550Y0021560D01*
X0160320Y0021440D01*
X0160060Y0021360D01*
X0159800Y0021320D01*
X0159540Y0021320D01*
X0159280Y0021360D01*
X0159020Y0021440D01*
X0158780Y0021560D01*
X0158570Y0021710D01*
X0158370Y0021890D01*
X0158210Y0022090D01*
X0158080Y0022320D01*
X0157980Y0022570D01*
X0157920Y0022830D01*
X0157900Y0023090D01*
X0157900Y0034910D02*
X0157920Y0035170D01*
X0157980Y0035430D01*
X0158080Y0035680D01*
X0158210Y0035910D01*
X0158370Y0036110D01*
X0158570Y0036290D01*
X0158790Y0036440D01*
X0159020Y0036560D01*
X0159280Y0036640D01*
X0159540Y0036680D01*
X0159800Y0036680D01*
X0160060Y0036640D01*
X0160320Y0036560D01*
X0160560Y0036440D01*
X0160770Y0036290D01*
X0160970Y0036110D01*
X0161130Y0035910D01*
X0161260Y0035680D01*
X0161360Y0035430D01*
X0161420Y0035170D01*
X0161440Y0034910D01*
X0161420Y0034650D01*
X0161360Y0034390D01*
X0161260Y0034140D01*
X0161130Y0033910D01*
X0160970Y0033710D01*
X0160770Y0033530D01*
X0160550Y0033380D01*
X0160320Y0033260D01*
X0160060Y0033180D01*
X0159800Y0033140D01*
X0159540Y0033140D01*
X0159280Y0033180D01*
X0159020Y0033260D01*
X0158780Y0033380D01*
X0158570Y0033530D01*
X0158370Y0033710D01*
X0158210Y0033910D01*
X0158080Y0034140D01*
X0157980Y0034390D01*
X0157920Y0034650D01*
X0157900Y0034910D01*
D21*
X0147170Y0170500D03*
X0137170Y0170500D03*
X0137170Y0180500D03*
X0127170Y0180500D03*
X0127170Y0170500D03*
X0117170Y0170500D03*
X0117170Y0180500D03*
D35*
X0147170Y0180500D03*
D12*
X0151860Y0086600D02*
X0139480Y0086600D01*
X0139480Y0081400D01*
X0151860Y0081400D01*
X0151860Y0086600D01*
X0152170Y0049750D02*
X0152170Y0038250D01*
X0134170Y0038250D02*
X0134170Y0049750D01*
X0129170Y0049750D02*
X0129170Y0038250D01*
X0123860Y0081900D02*
X0111480Y0081900D01*
X0111480Y0087100D01*
X0123860Y0087100D01*
X0123860Y0081900D01*
X0111170Y0049750D02*
X0111170Y0038250D01*
D25*
X0117670Y0079380D03*
X0145670Y0078880D03*
D37*
X0150000Y0089120D03*
X0141340Y0089120D03*
X0122000Y0089620D03*
X0113340Y0089620D03*
D28*
X0113970Y0088450D03*
X0117670Y0080550D03*
X0121370Y0088450D03*
X0141970Y0087950D03*
X0145670Y0080050D03*
X0149370Y0087950D03*
D43*
X0150970Y0044000D03*
X0135370Y0044000D03*
X0127970Y0044000D03*
X0112370Y0044000D03*
D23*
X0112160Y0044000D03*
X0128180Y0044000D03*
X0135160Y0044000D03*
X0151180Y0044000D03*
D11*
X0143670Y0020500D03*
X0133670Y0020500D03*
X0118670Y0020500D03*
X0108670Y0020500D03*
X0102170Y0031000D03*
X0102170Y0041000D03*
X0102170Y0050500D03*
X0102170Y0060500D03*
X0102170Y0070500D03*
X0102170Y0080500D03*
X0102170Y0090500D03*
X0102170Y0100500D03*
X0102170Y0110500D03*
X0102170Y0120500D03*
X0102170Y0130500D03*
X0102170Y0140500D03*
X0102170Y0150500D03*
X0102170Y0160500D03*
X0102170Y0170500D03*
X0102170Y0180500D03*
X0102170Y0190500D03*
X0162170Y0190500D03*
X0162170Y0180500D03*
X0162170Y0170500D03*
X0162170Y0160500D03*
X0162170Y0150500D03*
X0162170Y0140500D03*
X0162170Y0130500D03*
X0162170Y0120500D03*
X0162170Y0110500D03*
X0162170Y0100500D03*
X0162170Y0090500D03*
X0162170Y0080500D03*
X0162170Y0070500D03*
X0162170Y0060500D03*
X0162170Y0050500D03*
D34*
X0134170Y0078960D03*
X0134170Y0086040D03*
X0128670Y0086040D03*
X0128670Y0078960D03*
X0109670Y0116460D03*
X0109170Y0110040D03*
X0109170Y0102960D03*
X0109670Y0123540D03*
D13*
X0117170Y0120500D03*
X0117170Y0110500D03*
X0117170Y0100500D03*
X0127170Y0100500D03*
X0127170Y0110500D03*
X0127170Y0120500D03*
X0127170Y0130500D03*
X0127170Y0140500D03*
X0127170Y0150500D03*
X0117170Y0150500D03*
X0117170Y0140500D03*
X0117170Y0130500D03*
X0137170Y0130500D03*
X0137170Y0120500D03*
X0137170Y0110500D03*
X0137170Y0100500D03*
X0147170Y0100500D03*
X0147170Y0110500D03*
X0147170Y0120500D03*
X0147170Y0130500D03*
X0147170Y0140500D03*
X0147170Y0150500D03*
X0137170Y0150500D03*
X0137170Y0140500D03*
D20*
X0159670Y0034910D03*
X0159670Y0023090D03*
M02*
