%
T01C0.023600
X4600Y5800
X3600Y15650
X13217Y5800
X12217Y15650
T02C0.033450
X7350Y3491
X7350Y2309
X3100Y17050
X3100Y18050
X4100Y18050
X4100Y17050
X5100Y17050
X5100Y18050
X6100Y18050
X6100Y17050
X15967Y3491
X15967Y2309
X11717Y17050
X11717Y18050
X12717Y18050
X12717Y17050
X13717Y17050
X13717Y18050
X14717Y18050
X14717Y17050
T03C0.039700
X3100Y10050
X3100Y11050
X3100Y12050
X3100Y13050
X3100Y14050
X3100Y15050
X4100Y15050
X4100Y14050
X4100Y13050
X4100Y12050
X4100Y11050
X4100Y10050
X5100Y10050
X5100Y11050
X5100Y12050
X5100Y13050
X5100Y14050
X5100Y15050
X6100Y15050
X6100Y14050
X6100Y13050
X6100Y12050
X6100Y11050
X6100Y10050
X1600Y3100
X1600Y4100
X1600Y5050
X1600Y6050
X1600Y7050
X1600Y8050
X1600Y9050
X1600Y10050
X1600Y11050
X1600Y12050
X1600Y13050
X1600Y14050
X1600Y15050
X1600Y16050
X1600Y17050
X1600Y18050
X1600Y19050
X7600Y19050
X7600Y18050
X7600Y17050
X7600Y16050
X7600Y15050
X7600Y14050
X7600Y13050
X7600Y12050
X7600Y11050
X7600Y10050
X7600Y9050
X7600Y8050
X7600Y7050
X7600Y6050
X7600Y5050
X5750Y2050
X4750Y2050
X3250Y2050
X2250Y2050
X11717Y10050
X11717Y11050
X11717Y12050
X11717Y13050
X11717Y14050
X11717Y15050
X12717Y15050
X12717Y14050
X12717Y13050
X12717Y12050
X12717Y11050
X12717Y10050
X13717Y10050
X13717Y11050
X13717Y12050
X13717Y13050
X13717Y14050
X13717Y15050
X14717Y15050
X14717Y14050
X14717Y13050
X14717Y12050
X14717Y11050
X14717Y10050
X10217Y3100
X10217Y4100
X10217Y5050
X10217Y6050
X10217Y7050
X10217Y8050
X10217Y9050
X10217Y10050
X10217Y11050
X10217Y12050
X10217Y13050
X10217Y14050
X10217Y15050
X10217Y16050
X10217Y17050
X10217Y18050
X10217Y19050
X16217Y19050
X16217Y18050
X16217Y17050
X16217Y16050
X16217Y15050
X16217Y14050
X16217Y13050
X16217Y12050
X16217Y11050
X16217Y10050
X16217Y9050
X16217Y8050
X16217Y7050
X16217Y6050
X16217Y5050
X14367Y2050
X13367Y2050
X11867Y2050
X10867Y2050
M30
