G75*
G70*
%OFA0B0*%
%FSLAX25Y25*%
%IPPOS*%
%LPD*%
%AMOC8*
5,1,8,0,0,1.08239X$1,22.5*
%
%ADD10C,0.00800*%
X0011000Y0011000D02*
G75*
%LPD*%
D10*
X0011000Y0011000D02*
X0011000Y0199200D01*
X0080920Y0199200D01*
X0080920Y0011000D01*
X0011000Y0011000D01*
X0071730Y0023090D02*
X0071750Y0023350D01*
X0071810Y0023610D01*
X0071910Y0023860D01*
X0072040Y0024090D01*
X0072200Y0024290D01*
X0072400Y0024470D01*
X0072620Y0024620D01*
X0072850Y0024740D01*
X0073110Y0024820D01*
X0073370Y0024860D01*
X0073630Y0024860D01*
X0073890Y0024820D01*
X0074150Y0024740D01*
X0074390Y0024620D01*
X0074600Y0024470D01*
X0074800Y0024290D01*
X0074960Y0024090D01*
X0075090Y0023860D01*
X0075190Y0023610D01*
X0075250Y0023350D01*
X0075270Y0023090D01*
X0075250Y0022830D01*
X0075190Y0022570D01*
X0075090Y0022320D01*
X0074960Y0022090D01*
X0074800Y0021890D01*
X0074600Y0021710D01*
X0074380Y0021560D01*
X0074150Y0021440D01*
X0073890Y0021360D01*
X0073630Y0021320D01*
X0073370Y0021320D01*
X0073110Y0021360D01*
X0072850Y0021440D01*
X0072610Y0021560D01*
X0072400Y0021710D01*
X0072200Y0021890D01*
X0072040Y0022090D01*
X0071910Y0022320D01*
X0071810Y0022570D01*
X0071750Y0022830D01*
X0071730Y0023090D01*
X0071730Y0034910D02*
X0071750Y0035170D01*
X0071810Y0035430D01*
X0071910Y0035680D01*
X0072040Y0035910D01*
X0072200Y0036110D01*
X0072400Y0036290D01*
X0072620Y0036440D01*
X0072850Y0036560D01*
X0073110Y0036640D01*
X0073370Y0036680D01*
X0073630Y0036680D01*
X0073890Y0036640D01*
X0074150Y0036560D01*
X0074390Y0036440D01*
X0074600Y0036290D01*
X0074800Y0036110D01*
X0074960Y0035910D01*
X0075090Y0035680D01*
X0075190Y0035430D01*
X0075250Y0035170D01*
X0075270Y0034910D01*
X0075250Y0034650D01*
X0075190Y0034390D01*
X0075090Y0034140D01*
X0074960Y0033910D01*
X0074800Y0033710D01*
X0074600Y0033530D01*
X0074380Y0033380D01*
X0074150Y0033260D01*
X0073890Y0033180D01*
X0073630Y0033140D01*
X0073370Y0033140D01*
X0073110Y0033180D01*
X0072850Y0033260D01*
X0072610Y0033380D01*
X0072400Y0033530D01*
X0072200Y0033710D01*
X0072040Y0033910D01*
X0071910Y0034140D01*
X0071810Y0034390D01*
X0071750Y0034650D01*
X0071730Y0034910D01*
D10*
X0066000Y0038250D02*
X0048000Y0038250D01*
X0048000Y0049750D02*
X0066000Y0049750D01*
X0059210Y0048180D02*
X0059210Y0039820D01*
X0055030Y0044000D01*
X0059210Y0048180D01*
X0055030Y0048180D02*
X0055030Y0044000D01*
X0055030Y0039820D01*
X0043000Y0038250D02*
X0025000Y0038250D01*
X0025000Y0049750D02*
X0043000Y0049750D01*
X0035970Y0048180D02*
X0035970Y0044000D01*
X0031790Y0048180D01*
X0031790Y0039820D01*
X0035970Y0044000D01*
X0035970Y0039820D01*
X0040140Y0081320D02*
X0040140Y0083680D01*
X0037690Y0081900D02*
X0037690Y0086070D01*
X0032660Y0087100D02*
X0030280Y0087100D01*
X0025310Y0086070D02*
X0025310Y0081900D01*
X0025360Y0105320D02*
X0025360Y0107680D01*
X0025860Y0118820D02*
X0025860Y0121180D01*
X0021140Y0121180D02*
X0021140Y0118820D01*
X0020640Y0107680D02*
X0020640Y0105320D01*
X0044860Y0083680D02*
X0044860Y0081320D01*
X0045640Y0081320D02*
X0045640Y0083680D01*
X0050360Y0083680D02*
X0050360Y0081320D01*
X0053310Y0081400D02*
X0053310Y0085570D01*
X0058280Y0086600D02*
X0060660Y0086600D01*
X0065690Y0085570D02*
X0065690Y0081400D01*
D10*
X0065100Y0074850D02*
X0063860Y0074850D01*
X0063250Y0074240D01*
X0063250Y0071770D01*
X0063860Y0071150D01*
X0065100Y0071150D01*
X0065720Y0071770D01*
X0065720Y0074240D01*
X0065100Y0074850D01*
X0064480Y0072380D02*
X0063250Y0071150D01*
X0062030Y0071150D02*
X0059560Y0071150D01*
X0060800Y0071150D02*
X0060800Y0074850D01*
X0062030Y0073620D01*
X0049850Y0089150D02*
X0049850Y0091000D01*
X0049240Y0091620D01*
X0048000Y0091620D01*
X0047380Y0091000D01*
X0047380Y0089150D01*
X0047380Y0090380D02*
X0046150Y0091620D01*
X0046150Y0092830D02*
X0046150Y0095300D01*
X0046150Y0094070D02*
X0049850Y0094070D01*
X0048620Y0092830D01*
X0049850Y0089150D02*
X0046150Y0089150D01*
X0044350Y0088650D02*
X0044350Y0090500D01*
X0043740Y0091120D01*
X0042500Y0091120D01*
X0041880Y0090500D01*
X0041880Y0088650D01*
X0041880Y0089880D02*
X0040650Y0091120D01*
X0040650Y0092330D02*
X0043120Y0094800D01*
X0043740Y0094800D01*
X0044350Y0094180D01*
X0044350Y0092950D01*
X0043740Y0092330D01*
X0044350Y0088650D02*
X0040650Y0088650D01*
X0040650Y0092330D02*
X0040650Y0094800D01*
X0031600Y0074850D02*
X0032220Y0074240D01*
X0032220Y0071770D01*
X0031600Y0071150D01*
X0030360Y0071150D01*
X0029750Y0071770D01*
X0029750Y0074240D01*
X0030360Y0074850D01*
X0031600Y0074850D01*
X0030980Y0072380D02*
X0029750Y0071150D01*
X0028530Y0071150D02*
X0026060Y0073620D01*
X0026060Y0074240D01*
X0026680Y0074850D01*
X0027920Y0074850D01*
X0028530Y0074240D01*
X0028530Y0071150D02*
X0026060Y0071150D01*
X0024800Y0095150D02*
X0021900Y0095150D01*
X0022870Y0095150D02*
X0022870Y0096600D01*
X0023350Y0097080D01*
X0024320Y0097080D01*
X0024800Y0096600D01*
X0024800Y0095150D01*
X0022870Y0096120D02*
X0021900Y0097080D01*
X0021900Y0099550D02*
X0024800Y0099550D01*
X0023350Y0098100D01*
X0023350Y0100030D01*
X0022670Y0125260D02*
X0022670Y0126710D01*
X0023150Y0127190D01*
X0024120Y0127190D01*
X0024600Y0126710D01*
X0024600Y0125260D01*
X0021700Y0125260D01*
X0022670Y0126220D02*
X0021700Y0127190D01*
X0022180Y0128200D02*
X0021700Y0128690D01*
X0021700Y0129650D01*
X0022180Y0130140D01*
X0022670Y0130140D01*
X0023150Y0129650D01*
X0023150Y0129170D01*
X0023150Y0129650D02*
X0023630Y0130140D01*
X0024120Y0130140D01*
X0024600Y0129650D01*
X0024600Y0128690D01*
X0024120Y0128200D01*
D10*
X0038650Y0054180D02*
X0039850Y0054180D01*
X0040450Y0053580D01*
X0041730Y0053580D02*
X0042330Y0054180D01*
X0044130Y0054180D01*
X0044130Y0050580D01*
X0042330Y0050580D01*
X0041730Y0051180D01*
X0041730Y0053580D01*
X0040450Y0050580D02*
X0038050Y0052980D01*
X0038050Y0053580D01*
X0038650Y0054180D01*
X0038050Y0050580D02*
X0040450Y0050580D01*
X0047250Y0050820D02*
X0049650Y0050820D01*
X0050930Y0051420D02*
X0050930Y0053820D01*
X0051530Y0054420D01*
X0053330Y0054420D01*
X0053330Y0050820D01*
X0051530Y0050820D01*
X0050930Y0051420D01*
X0049650Y0053220D02*
X0048450Y0054420D01*
X0048450Y0050820D01*
X0097170Y0011000D02*
G75*
%LPD*%
D10*
X0097170Y0011000D02*
X0097170Y0199200D01*
X0167090Y0199200D01*
X0167090Y0011000D01*
X0097170Y0011000D01*
X0157900Y0023090D02*
X0157920Y0023350D01*
X0157980Y0023610D01*
X0158080Y0023860D01*
X0158210Y0024090D01*
X0158370Y0024290D01*
X0158570Y0024470D01*
X0158790Y0024620D01*
X0159020Y0024740D01*
X0159280Y0024820D01*
X0159540Y0024860D01*
X0159800Y0024860D01*
X0160060Y0024820D01*
X0160320Y0024740D01*
X0160560Y0024620D01*
X0160770Y0024470D01*
X0160970Y0024290D01*
X0161130Y0024090D01*
X0161260Y0023860D01*
X0161360Y0023610D01*
X0161420Y0023350D01*
X0161440Y0023090D01*
X0161420Y0022830D01*
X0161360Y0022570D01*
X0161260Y0022320D01*
X0161130Y0022090D01*
X0160970Y0021890D01*
X0160770Y0021710D01*
X0160550Y0021560D01*
X0160320Y0021440D01*
X0160060Y0021360D01*
X0159800Y0021320D01*
X0159540Y0021320D01*
X0159280Y0021360D01*
X0159020Y0021440D01*
X0158780Y0021560D01*
X0158570Y0021710D01*
X0158370Y0021890D01*
X0158210Y0022090D01*
X0158080Y0022320D01*
X0157980Y0022570D01*
X0157920Y0022830D01*
X0157900Y0023090D01*
X0157900Y0034910D02*
X0157920Y0035170D01*
X0157980Y0035430D01*
X0158080Y0035680D01*
X0158210Y0035910D01*
X0158370Y0036110D01*
X0158570Y0036290D01*
X0158790Y0036440D01*
X0159020Y0036560D01*
X0159280Y0036640D01*
X0159540Y0036680D01*
X0159800Y0036680D01*
X0160060Y0036640D01*
X0160320Y0036560D01*
X0160560Y0036440D01*
X0160770Y0036290D01*
X0160970Y0036110D01*
X0161130Y0035910D01*
X0161260Y0035680D01*
X0161360Y0035430D01*
X0161420Y0035170D01*
X0161440Y0034910D01*
X0161420Y0034650D01*
X0161360Y0034390D01*
X0161260Y0034140D01*
X0161130Y0033910D01*
X0160970Y0033710D01*
X0160770Y0033530D01*
X0160550Y0033380D01*
X0160320Y0033260D01*
X0160060Y0033180D01*
X0159800Y0033140D01*
X0159540Y0033140D01*
X0159280Y0033180D01*
X0159020Y0033260D01*
X0158780Y0033380D01*
X0158570Y0033530D01*
X0158370Y0033710D01*
X0158210Y0033910D01*
X0158080Y0034140D01*
X0157980Y0034390D01*
X0157920Y0034650D01*
X0157900Y0034910D01*
D10*
X0152170Y0038250D02*
X0134170Y0038250D01*
X0134170Y0049750D02*
X0152170Y0049750D01*
X0145380Y0048180D02*
X0145380Y0039820D01*
X0141200Y0044000D01*
X0145380Y0048180D01*
X0141200Y0048180D02*
X0141200Y0044000D01*
X0141200Y0039820D01*
X0129170Y0038250D02*
X0111170Y0038250D01*
X0111170Y0049750D02*
X0129170Y0049750D01*
X0122140Y0048180D02*
X0122140Y0044000D01*
X0117960Y0048180D01*
X0117960Y0039820D01*
X0122140Y0044000D01*
X0122140Y0039820D01*
X0126310Y0081320D02*
X0126310Y0083680D01*
X0123860Y0081900D02*
X0123860Y0086070D01*
X0118830Y0087100D02*
X0116450Y0087100D01*
X0111480Y0086070D02*
X0111480Y0081900D01*
X0111530Y0105320D02*
X0111530Y0107680D01*
X0112030Y0118820D02*
X0112030Y0121180D01*
X0107310Y0121180D02*
X0107310Y0118820D01*
X0106810Y0107680D02*
X0106810Y0105320D01*
X0131030Y0083680D02*
X0131030Y0081320D01*
X0131810Y0081320D02*
X0131810Y0083680D01*
X0136530Y0083680D02*
X0136530Y0081320D01*
X0139480Y0081400D02*
X0139480Y0085570D01*
X0144450Y0086600D02*
X0146830Y0086600D01*
X0151860Y0085570D02*
X0151860Y0081400D01*
D10*
X0151270Y0074850D02*
X0150030Y0074850D01*
X0149420Y0074240D01*
X0149420Y0071770D01*
X0150030Y0071150D01*
X0151270Y0071150D01*
X0151890Y0071770D01*
X0151890Y0074240D01*
X0151270Y0074850D01*
X0150650Y0072380D02*
X0149420Y0071150D01*
X0148200Y0071150D02*
X0145730Y0071150D01*
X0146970Y0071150D02*
X0146970Y0074850D01*
X0148200Y0073620D01*
X0136020Y0089150D02*
X0136020Y0091000D01*
X0135410Y0091620D01*
X0134170Y0091620D01*
X0133550Y0091000D01*
X0133550Y0089150D01*
X0133550Y0090380D02*
X0132320Y0091620D01*
X0132320Y0092830D02*
X0132320Y0095300D01*
X0132320Y0094070D02*
X0136020Y0094070D01*
X0134790Y0092830D01*
X0136020Y0089150D02*
X0132320Y0089150D01*
X0130520Y0088650D02*
X0130520Y0090500D01*
X0129910Y0091120D01*
X0128670Y0091120D01*
X0128050Y0090500D01*
X0128050Y0088650D01*
X0128050Y0089880D02*
X0126820Y0091120D01*
X0126820Y0092330D02*
X0129290Y0094800D01*
X0129910Y0094800D01*
X0130520Y0094180D01*
X0130520Y0092950D01*
X0129910Y0092330D01*
X0130520Y0088650D02*
X0126820Y0088650D01*
X0126820Y0092330D02*
X0126820Y0094800D01*
X0117770Y0074850D02*
X0118390Y0074240D01*
X0118390Y0071770D01*
X0117770Y0071150D01*
X0116530Y0071150D01*
X0115920Y0071770D01*
X0115920Y0074240D01*
X0116530Y0074850D01*
X0117770Y0074850D01*
X0117150Y0072380D02*
X0115920Y0071150D01*
X0114700Y0071150D02*
X0112230Y0073620D01*
X0112230Y0074240D01*
X0112850Y0074850D01*
X0114090Y0074850D01*
X0114700Y0074240D01*
X0114700Y0071150D02*
X0112230Y0071150D01*
X0110970Y0095150D02*
X0108070Y0095150D01*
X0109040Y0095150D02*
X0109040Y0096600D01*
X0109520Y0097080D01*
X0110490Y0097080D01*
X0110970Y0096600D01*
X0110970Y0095150D01*
X0109040Y0096120D02*
X0108070Y0097080D01*
X0108070Y0099550D02*
X0110970Y0099550D01*
X0109520Y0098100D01*
X0109520Y0100030D01*
X0108840Y0125260D02*
X0108840Y0126710D01*
X0109320Y0127190D01*
X0110290Y0127190D01*
X0110770Y0126710D01*
X0110770Y0125260D01*
X0107870Y0125260D01*
X0108840Y0126220D02*
X0107870Y0127190D01*
X0108350Y0128200D02*
X0107870Y0128690D01*
X0107870Y0129650D01*
X0108350Y0130140D01*
X0108840Y0130140D01*
X0109320Y0129650D01*
X0109320Y0129170D01*
X0109320Y0129650D02*
X0109800Y0130140D01*
X0110290Y0130140D01*
X0110770Y0129650D01*
X0110770Y0128690D01*
X0110290Y0128200D01*
D10*
X0124820Y0054180D02*
X0126020Y0054180D01*
X0126620Y0053580D01*
X0127900Y0053580D02*
X0128500Y0054180D01*
X0130300Y0054180D01*
X0130300Y0050580D01*
X0128500Y0050580D01*
X0127900Y0051180D01*
X0127900Y0053580D01*
X0126620Y0050580D02*
X0124220Y0052980D01*
X0124220Y0053580D01*
X0124820Y0054180D01*
X0124220Y0050580D02*
X0126620Y0050580D01*
X0133420Y0050820D02*
X0135820Y0050820D01*
X0137100Y0051420D02*
X0137100Y0053820D01*
X0137700Y0054420D01*
X0139500Y0054420D01*
X0139500Y0050820D01*
X0137700Y0050820D01*
X0137100Y0051420D01*
X0135820Y0053220D02*
X0134620Y0054420D01*
X0134620Y0050820D01*
M02*
