G75*
G70*
%OFA0B0*%
%FSLAX25Y25*%
%IPPOS*%
%LPD*%
%AMOC8*
5,1,8,0,0,1.08239X$1,22.5*
%
%ADD10C,0.00800*%
%ADD15R,0.04720X0.05510*%
%ADD17C,0.01000*%
%ADD22R,0.03560X0.03560*%
%ADD26C,0.02400*%
%ADD27C,0.05150*%
%ADD31C,0.03200*%
%ADD33OC8,0.06600*%
%ADD36R,0.05000X0.08270*%
%ADD38C,0.06600*%
%ADD39C,0.00000*%
%ADD40R,0.04720X0.03150*%
%ADD41R,0.05150X0.05150*%
%ADD42R,0.11020X0.05510*%
X0011000Y0011000D02*
G75*
%LPD*%
D39*
X0011000Y0011000D02*
X0011000Y0199200D01*
X0080920Y0199200D01*
X0080920Y0011000D01*
X0011000Y0011000D01*
X0071730Y0023090D02*
X0071750Y0023350D01*
X0071810Y0023610D01*
X0071910Y0023860D01*
X0072040Y0024090D01*
X0072200Y0024290D01*
X0072400Y0024470D01*
X0072620Y0024620D01*
X0072850Y0024740D01*
X0073110Y0024820D01*
X0073370Y0024860D01*
X0073630Y0024860D01*
X0073890Y0024820D01*
X0074150Y0024740D01*
X0074390Y0024620D01*
X0074600Y0024470D01*
X0074800Y0024290D01*
X0074960Y0024090D01*
X0075090Y0023860D01*
X0075190Y0023610D01*
X0075250Y0023350D01*
X0075270Y0023090D01*
X0075250Y0022830D01*
X0075190Y0022570D01*
X0075090Y0022320D01*
X0074960Y0022090D01*
X0074800Y0021890D01*
X0074600Y0021710D01*
X0074380Y0021560D01*
X0074150Y0021440D01*
X0073890Y0021360D01*
X0073630Y0021320D01*
X0073370Y0021320D01*
X0073110Y0021360D01*
X0072850Y0021440D01*
X0072610Y0021560D01*
X0072400Y0021710D01*
X0072200Y0021890D01*
X0072040Y0022090D01*
X0071910Y0022320D01*
X0071810Y0022570D01*
X0071750Y0022830D01*
X0071730Y0023090D01*
X0071730Y0034910D02*
X0071750Y0035170D01*
X0071810Y0035430D01*
X0071910Y0035680D01*
X0072040Y0035910D01*
X0072200Y0036110D01*
X0072400Y0036290D01*
X0072620Y0036440D01*
X0072850Y0036560D01*
X0073110Y0036640D01*
X0073370Y0036680D01*
X0073630Y0036680D01*
X0073890Y0036640D01*
X0074150Y0036560D01*
X0074390Y0036440D01*
X0074600Y0036290D01*
X0074800Y0036110D01*
X0074960Y0035910D01*
X0075090Y0035680D01*
X0075190Y0035430D01*
X0075250Y0035170D01*
X0075270Y0034910D01*
X0075250Y0034650D01*
X0075190Y0034390D01*
X0075090Y0034140D01*
X0074960Y0033910D01*
X0074800Y0033710D01*
X0074600Y0033530D01*
X0074380Y0033380D01*
X0074150Y0033260D01*
X0073890Y0033180D01*
X0073630Y0033140D01*
X0073370Y0033140D01*
X0073110Y0033180D01*
X0072850Y0033260D01*
X0072610Y0033380D01*
X0072400Y0033530D01*
X0072200Y0033710D01*
X0072040Y0033910D01*
X0071910Y0034140D01*
X0071810Y0034390D01*
X0071750Y0034650D01*
X0071730Y0034910D01*
D27*
X0061000Y0170500D03*
X0051000Y0170500D03*
X0051000Y0180500D03*
X0041000Y0180500D03*
X0041000Y0170500D03*
X0031000Y0170500D03*
X0031000Y0180500D03*
D41*
X0061000Y0180500D03*
D42*
X0059500Y0078880D03*
X0031500Y0079380D03*
D15*
X0027170Y0089620D03*
X0035830Y0089620D03*
X0055170Y0089120D03*
X0063830Y0089120D03*
D36*
X0064800Y0044000D03*
X0049200Y0044000D03*
X0041800Y0044000D03*
X0026200Y0044000D03*
D38*
X0016000Y0041000D03*
X0016000Y0050500D03*
X0016000Y0060500D03*
X0016000Y0070500D03*
X0016000Y0080500D03*
X0016000Y0090500D03*
X0016000Y0100500D03*
X0016000Y0110500D03*
X0016000Y0120500D03*
X0016000Y0130500D03*
X0016000Y0140500D03*
X0016000Y0150500D03*
X0016000Y0160500D03*
X0016000Y0170500D03*
X0016000Y0180500D03*
X0016000Y0190500D03*
X0076000Y0190500D03*
X0076000Y0180500D03*
X0076000Y0170500D03*
X0076000Y0160500D03*
X0076000Y0150500D03*
X0076000Y0140500D03*
X0076000Y0130500D03*
X0076000Y0120500D03*
X0076000Y0110500D03*
X0076000Y0100500D03*
X0076000Y0090500D03*
X0076000Y0080500D03*
X0076000Y0070500D03*
X0076000Y0060500D03*
X0076000Y0050500D03*
X0057500Y0020500D03*
X0047500Y0020500D03*
X0032500Y0020500D03*
X0022500Y0020500D03*
X0016000Y0031000D03*
D40*
X0042500Y0078960D03*
X0042500Y0086040D03*
X0048000Y0086040D03*
X0048000Y0078960D03*
X0023500Y0116460D03*
X0023000Y0110040D03*
X0023000Y0102960D03*
X0023500Y0123540D03*
D33*
X0031000Y0120500D03*
X0031000Y0110500D03*
X0031000Y0100500D03*
X0041000Y0100500D03*
X0041000Y0110500D03*
X0041000Y0120500D03*
X0041000Y0130500D03*
X0041000Y0140500D03*
X0041000Y0150500D03*
X0031000Y0150500D03*
X0031000Y0140500D03*
X0031000Y0130500D03*
X0051000Y0130500D03*
X0051000Y0120500D03*
X0051000Y0110500D03*
X0051000Y0100500D03*
X0061000Y0100500D03*
X0061000Y0110500D03*
X0061000Y0120500D03*
X0061000Y0130500D03*
X0061000Y0140500D03*
X0061000Y0150500D03*
X0051000Y0150500D03*
X0051000Y0140500D03*
D17*
X0052820Y0144900D02*
X0049180Y0144900D01*
X0046600Y0142320D01*
X0046600Y0138680D01*
X0049180Y0136100D01*
X0052820Y0136100D01*
X0055400Y0138680D01*
X0055400Y0142320D01*
X0052820Y0144900D01*
X0052820Y0146100D02*
X0055400Y0148680D01*
X0055400Y0152320D01*
X0052820Y0154900D01*
X0049180Y0154900D01*
X0046600Y0152320D01*
X0046600Y0148680D01*
X0049180Y0146100D01*
X0052820Y0146100D01*
X0053600Y0146880D02*
X0058400Y0146880D01*
X0059180Y0146100D02*
X0062820Y0146100D01*
X0065400Y0148680D01*
X0065400Y0152320D01*
X0062820Y0154900D01*
X0059180Y0154900D01*
X0056600Y0152320D01*
X0056600Y0148680D01*
X0059180Y0146100D01*
X0059180Y0144900D02*
X0056600Y0142320D01*
X0056600Y0138680D01*
X0059180Y0136100D01*
X0062820Y0136100D01*
X0065400Y0138680D01*
X0065400Y0142320D01*
X0062820Y0144900D01*
X0059180Y0144900D01*
X0058200Y0143930D02*
X0053800Y0143930D01*
X0054780Y0142940D02*
X0057220Y0142940D01*
X0056600Y0141960D02*
X0055400Y0141960D01*
X0055400Y0140970D02*
X0056600Y0140970D01*
X0056600Y0139990D02*
X0055400Y0139990D01*
X0055400Y0139000D02*
X0056600Y0139000D01*
X0057260Y0138020D02*
X0054740Y0138020D01*
X0053750Y0137030D02*
X0058250Y0137030D01*
X0059180Y0134900D02*
X0056600Y0132320D01*
X0056600Y0128680D01*
X0059180Y0126100D01*
X0062820Y0126100D01*
X0065400Y0128680D01*
X0065400Y0132320D01*
X0062820Y0134900D01*
X0059180Y0134900D01*
X0058350Y0134080D02*
X0053650Y0134080D01*
X0052820Y0134900D02*
X0049180Y0134900D01*
X0046600Y0132320D01*
X0046600Y0128680D01*
X0049180Y0126100D01*
X0052820Y0126100D01*
X0055400Y0128680D01*
X0055400Y0132320D01*
X0052820Y0134900D01*
X0054630Y0133090D02*
X0057370Y0133090D01*
X0056600Y0132110D02*
X0055400Y0132110D01*
X0055400Y0131120D02*
X0056600Y0131120D01*
X0056600Y0130140D02*
X0055400Y0130140D01*
X0055400Y0129150D02*
X0056600Y0129150D01*
X0057110Y0128170D02*
X0054890Y0128170D01*
X0053900Y0127180D02*
X0058100Y0127180D01*
X0059080Y0126200D02*
X0052920Y0126200D01*
X0052820Y0124900D02*
X0049180Y0124900D01*
X0046600Y0122320D01*
X0046600Y0118680D01*
X0049180Y0116100D01*
X0052820Y0116100D01*
X0055400Y0118680D01*
X0055400Y0122320D01*
X0052820Y0124900D01*
X0053500Y0124230D02*
X0058500Y0124230D01*
X0059180Y0124900D02*
X0056600Y0122320D01*
X0056600Y0118680D01*
X0059180Y0116100D01*
X0062820Y0116100D01*
X0065400Y0118680D01*
X0065400Y0122320D01*
X0062820Y0124900D01*
X0059180Y0124900D01*
X0057520Y0123240D02*
X0054480Y0123240D01*
X0055400Y0122260D02*
X0056600Y0122260D01*
X0056600Y0121270D02*
X0055400Y0121270D01*
X0055400Y0120290D02*
X0056600Y0120290D01*
X0056600Y0119300D02*
X0055400Y0119300D01*
X0055040Y0118320D02*
X0056960Y0118320D01*
X0057950Y0117330D02*
X0054050Y0117330D01*
X0053070Y0116350D02*
X0058930Y0116350D01*
X0059180Y0114900D02*
X0056600Y0112320D01*
X0056600Y0108680D01*
X0058780Y0106500D01*
X0053220Y0106500D01*
X0055400Y0108680D01*
X0055400Y0112320D01*
X0052820Y0114900D01*
X0049180Y0114900D01*
X0046600Y0112320D01*
X0046600Y0108680D01*
X0048780Y0106500D01*
X0045380Y0106500D01*
X0044500Y0105620D01*
X0044500Y0103220D01*
X0042820Y0104900D01*
X0039180Y0104900D01*
X0036600Y0102320D01*
X0036600Y0098680D01*
X0039180Y0096100D01*
X0042820Y0096100D01*
X0044500Y0097780D01*
X0044500Y0088720D01*
X0039690Y0088720D01*
X0039690Y0089120D01*
X0036330Y0089120D01*
X0036330Y0090120D01*
X0035330Y0090120D01*
X0035330Y0093870D01*
X0033270Y0093870D01*
X0032890Y0093770D01*
X0032550Y0093570D01*
X0032270Y0093300D01*
X0032070Y0092950D01*
X0031970Y0092570D01*
X0031970Y0090120D01*
X0035330Y0090120D01*
X0035330Y0089120D01*
X0031970Y0089120D01*
X0031970Y0086660D01*
X0032070Y0086280D01*
X0032270Y0085940D01*
X0032550Y0085660D01*
X0032830Y0085500D01*
X0029120Y0085500D01*
X0028860Y0085760D01*
X0029990Y0085760D01*
X0030630Y0086410D01*
X0030630Y0092830D01*
X0029990Y0093470D01*
X0024350Y0093470D01*
X0023710Y0092830D01*
X0023710Y0086410D01*
X0024350Y0085760D01*
X0025670Y0085760D01*
X0025670Y0084710D01*
X0026550Y0083830D01*
X0027140Y0083240D01*
X0025530Y0083240D01*
X0024890Y0082590D01*
X0024890Y0076170D01*
X0024960Y0076100D01*
X0023900Y0075040D01*
X0023900Y0049230D01*
X0023250Y0049230D01*
X0022600Y0048590D01*
X0022600Y0039410D01*
X0023090Y0038930D01*
X0020850Y0024580D01*
X0020010Y0024230D01*
X0018770Y0022990D01*
X0018100Y0021380D01*
X0018100Y0019620D01*
X0018770Y0018010D01*
X0020010Y0016770D01*
X0021620Y0016100D01*
X0023380Y0016100D01*
X0024990Y0016770D01*
X0026230Y0018010D01*
X0026900Y0019620D01*
X0026900Y0021380D01*
X0026230Y0022990D01*
X0025390Y0023830D01*
X0027720Y0038770D01*
X0029160Y0038770D01*
X0029800Y0039410D01*
X0029800Y0048590D01*
X0029160Y0049230D01*
X0028500Y0049230D01*
X0028500Y0073130D01*
X0030900Y0075530D01*
X0037470Y0075530D01*
X0038110Y0076170D01*
X0038110Y0081220D01*
X0039040Y0080300D01*
X0039040Y0076930D01*
X0039680Y0076280D01*
X0050820Y0076280D01*
X0051460Y0076930D01*
X0051460Y0080050D01*
X0052890Y0081340D01*
X0052890Y0075670D01*
X0053530Y0075030D01*
X0060100Y0075030D01*
X0062980Y0072150D01*
X0062580Y0049230D01*
X0061840Y0049230D01*
X0061200Y0048590D01*
X0061200Y0039410D01*
X0061840Y0038770D01*
X0062500Y0038770D01*
X0062500Y0028750D01*
X0058570Y0024820D01*
X0058380Y0024900D01*
X0056620Y0024900D01*
X0055010Y0024230D01*
X0053770Y0022990D01*
X0053100Y0021380D01*
X0053100Y0019620D01*
X0053770Y0018010D01*
X0055010Y0016770D01*
X0056620Y0016100D01*
X0058380Y0016100D01*
X0059990Y0016770D01*
X0061230Y0018010D01*
X0061900Y0019620D01*
X0061900Y0021380D01*
X0061820Y0021570D01*
X0067100Y0026840D01*
X0067100Y0038770D01*
X0067750Y0038770D01*
X0068400Y0039410D01*
X0068400Y0048590D01*
X0067750Y0049230D01*
X0067190Y0049230D01*
X0067580Y0072120D01*
X0067600Y0072130D01*
X0067600Y0073070D01*
X0067610Y0074000D01*
X0067600Y0074020D01*
X0067600Y0074040D01*
X0066940Y0074700D01*
X0066290Y0075370D01*
X0066260Y0075370D01*
X0066040Y0075600D01*
X0066110Y0075670D01*
X0066110Y0082090D01*
X0065470Y0082740D01*
X0054440Y0082740D01*
X0054470Y0082760D01*
X0054470Y0082800D01*
X0054500Y0082840D01*
X0054500Y0082880D01*
X0055790Y0084170D01*
X0056670Y0085050D01*
X0056670Y0085260D01*
X0057990Y0085260D01*
X0058630Y0085910D01*
X0058630Y0092330D01*
X0057990Y0092970D01*
X0053300Y0092970D01*
X0054000Y0093500D01*
X0072120Y0093500D01*
X0074840Y0096220D01*
X0075120Y0096100D01*
X0076880Y0096100D01*
X0078490Y0096770D01*
X0079420Y0097700D01*
X0079420Y0093300D01*
X0078490Y0094230D01*
X0076880Y0094900D01*
X0075120Y0094900D01*
X0073510Y0094230D01*
X0072270Y0092990D01*
X0071600Y0091380D01*
X0071600Y0089620D01*
X0072270Y0088010D01*
X0073510Y0086770D01*
X0075120Y0086100D01*
X0076880Y0086100D01*
X0078490Y0086770D01*
X0079420Y0087700D01*
X0079420Y0083870D01*
X0079130Y0084160D01*
X0078520Y0084610D01*
X0077840Y0084950D01*
X0077120Y0085180D01*
X0076480Y0085280D01*
X0076480Y0080980D01*
X0075520Y0080980D01*
X0075520Y0080020D01*
X0076480Y0080020D01*
X0076480Y0075720D01*
X0077120Y0075820D01*
X0077840Y0076050D01*
X0078520Y0076390D01*
X0079130Y0076840D01*
X0079420Y0077130D01*
X0079420Y0073300D01*
X0078490Y0074230D01*
X0076880Y0074900D01*
X0075120Y0074900D01*
X0073510Y0074230D01*
X0072270Y0072990D01*
X0071600Y0071380D01*
X0071600Y0069620D01*
X0072270Y0068010D01*
X0073510Y0066770D01*
X0075120Y0066100D01*
X0076880Y0066100D01*
X0078490Y0066770D01*
X0079420Y0067700D01*
X0079420Y0063300D01*
X0078490Y0064230D01*
X0076880Y0064900D01*
X0075120Y0064900D01*
X0073510Y0064230D01*
X0072270Y0062990D01*
X0071600Y0061380D01*
X0071600Y0059620D01*
X0072270Y0058010D01*
X0073510Y0056770D01*
X0075120Y0056100D01*
X0076880Y0056100D01*
X0078490Y0056770D01*
X0079420Y0057700D01*
X0079420Y0053300D01*
X0078490Y0054230D01*
X0076880Y0054900D01*
X0075120Y0054900D01*
X0073510Y0054230D01*
X0072270Y0052990D01*
X0071600Y0051380D01*
X0071600Y0049620D01*
X0072270Y0048010D01*
X0073510Y0046770D01*
X0075120Y0046100D01*
X0076880Y0046100D01*
X0078490Y0046770D01*
X0079420Y0047700D01*
X0079420Y0012500D01*
X0012500Y0012500D01*
X0012500Y0028280D01*
X0013510Y0027270D01*
X0015120Y0026600D01*
X0016880Y0026600D01*
X0018490Y0027270D01*
X0019730Y0028510D01*
X0020400Y0030120D01*
X0020400Y0031880D01*
X0019730Y0033490D01*
X0018490Y0034730D01*
X0016880Y0035400D01*
X0015120Y0035400D01*
X0013510Y0034730D01*
X0012500Y0033720D01*
X0012500Y0037710D01*
X0012870Y0037340D01*
X0013480Y0036890D01*
X0014160Y0036550D01*
X0014880Y0036320D01*
X0015520Y0036220D01*
X0015520Y0040520D01*
X0016480Y0040520D01*
X0016480Y0041480D01*
X0015520Y0041480D01*
X0015520Y0045780D01*
X0014880Y0045680D01*
X0014160Y0045450D01*
X0013480Y0045110D01*
X0012870Y0044660D01*
X0012500Y0044290D01*
X0012500Y0047780D01*
X0013510Y0046770D01*
X0015120Y0046100D01*
X0016880Y0046100D01*
X0018490Y0046770D01*
X0019730Y0048010D01*
X0020400Y0049620D01*
X0020400Y0051380D01*
X0019730Y0052990D01*
X0018490Y0054230D01*
X0016880Y0054900D01*
X0015120Y0054900D01*
X0013510Y0054230D01*
X0012500Y0053220D01*
X0012500Y0057210D01*
X0012870Y0056840D01*
X0013480Y0056390D01*
X0014160Y0056050D01*
X0014880Y0055820D01*
X0015520Y0055720D01*
X0015520Y0060020D01*
X0016480Y0060020D01*
X0016480Y0060980D01*
X0015520Y0060980D01*
X0015520Y0065280D01*
X0014880Y0065180D01*
X0014160Y0064950D01*
X0013480Y0064610D01*
X0012870Y0064160D01*
X0012500Y0063790D01*
X0012500Y0067780D01*
X0013510Y0066770D01*
X0015120Y0066100D01*
X0016880Y0066100D01*
X0018490Y0066770D01*
X0019730Y0068010D01*
X0020400Y0069620D01*
X0020400Y0071380D01*
X0019730Y0072990D01*
X0018490Y0074230D01*
X0016880Y0074900D01*
X0015120Y0074900D01*
X0013510Y0074230D01*
X0012500Y0073220D01*
X0012500Y0077780D01*
X0013510Y0076770D01*
X0015120Y0076100D01*
X0016880Y0076100D01*
X0018490Y0076770D01*
X0019730Y0078010D01*
X0020400Y0079620D01*
X0020400Y0081380D01*
X0019730Y0082990D01*
X0018490Y0084230D01*
X0016880Y0084900D01*
X0015120Y0084900D01*
X0013510Y0084230D01*
X0012500Y0083220D01*
X0012500Y0087780D01*
X0013510Y0086770D01*
X0015120Y0086100D01*
X0016880Y0086100D01*
X0018490Y0086770D01*
X0019730Y0088010D01*
X0020400Y0089620D01*
X0020400Y0091380D01*
X0019730Y0092990D01*
X0018490Y0094230D01*
X0016880Y0094900D01*
X0015120Y0094900D01*
X0013510Y0094230D01*
X0012500Y0093220D01*
X0012500Y0097780D01*
X0013510Y0096770D01*
X0015120Y0096100D01*
X0016880Y0096100D01*
X0018490Y0096770D01*
X0019730Y0098010D01*
X0020400Y0099620D01*
X0020400Y0100280D01*
X0025820Y0100280D01*
X0026460Y0100930D01*
X0026460Y0103840D01*
X0028950Y0106330D01*
X0029180Y0106100D01*
X0032820Y0106100D01*
X0035400Y0108680D01*
X0035400Y0112320D01*
X0033720Y0114000D01*
X0036120Y0114000D01*
X0036620Y0114500D01*
X0037500Y0115380D01*
X0037500Y0117780D01*
X0039180Y0116100D01*
X0042820Y0116100D01*
X0045400Y0118680D01*
X0045400Y0122320D01*
X0042820Y0124900D01*
X0039180Y0124900D01*
X0037500Y0123220D01*
X0037500Y0127780D01*
X0039180Y0126100D01*
X0042820Y0126100D01*
X0045400Y0128680D01*
X0045400Y0132320D01*
X0042820Y0134900D01*
X0039180Y0134900D01*
X0037500Y0133220D01*
X0037500Y0137780D01*
X0039180Y0136100D01*
X0042820Y0136100D01*
X0045400Y0138680D01*
X0045400Y0142320D01*
X0042820Y0144900D01*
X0039180Y0144900D01*
X0037500Y0143220D01*
X0037500Y0147780D01*
X0039180Y0146100D01*
X0042820Y0146100D01*
X0045400Y0148680D01*
X0045400Y0152320D01*
X0042820Y0154900D01*
X0039180Y0154900D01*
X0038880Y0154600D01*
X0038880Y0156760D01*
X0047000Y0164880D01*
X0047000Y0171380D01*
X0047660Y0172040D01*
X0047330Y0171230D01*
X0047330Y0169770D01*
X0047880Y0168420D01*
X0048920Y0167380D01*
X0050270Y0166830D01*
X0051730Y0166830D01*
X0052310Y0167070D01*
X0059500Y0159880D01*
X0060380Y0159000D01*
X0071860Y0159000D01*
X0072270Y0158010D01*
X0073510Y0156770D01*
X0075120Y0156100D01*
X0076880Y0156100D01*
X0078490Y0156770D01*
X0079420Y0157700D01*
X0079420Y0153300D01*
X0078490Y0154230D01*
X0076880Y0154900D01*
X0075120Y0154900D01*
X0073510Y0154230D01*
X0072270Y0152990D01*
X0071600Y0151380D01*
X0071600Y0149620D01*
X0072270Y0148010D01*
X0073510Y0146770D01*
X0075120Y0146100D01*
X0076880Y0146100D01*
X0078490Y0146770D01*
X0079420Y0147700D01*
X0079420Y0143300D01*
X0078490Y0144230D01*
X0076880Y0144900D01*
X0075120Y0144900D01*
X0073510Y0144230D01*
X0072270Y0142990D01*
X0071600Y0141380D01*
X0071600Y0139620D01*
X0072270Y0138010D01*
X0073510Y0136770D01*
X0075120Y0136100D01*
X0076880Y0136100D01*
X0078490Y0136770D01*
X0079420Y0137700D01*
X0079420Y0133300D01*
X0078490Y0134230D01*
X0076880Y0134900D01*
X0075120Y0134900D01*
X0073510Y0134230D01*
X0072270Y0132990D01*
X0071600Y0131380D01*
X0071600Y0129620D01*
X0072270Y0128010D01*
X0073510Y0126770D01*
X0075120Y0126100D01*
X0076880Y0126100D01*
X0078490Y0126770D01*
X0079420Y0127700D01*
X0079420Y0123300D01*
X0078490Y0124230D01*
X0076880Y0124900D01*
X0075120Y0124900D01*
X0073510Y0124230D01*
X0072270Y0122990D01*
X0071860Y0122000D01*
X0068880Y0122000D01*
X0068000Y0121120D01*
X0068000Y0107620D01*
X0066880Y0106500D01*
X0063220Y0106500D01*
X0065400Y0108680D01*
X0065400Y0112320D01*
X0062820Y0114900D01*
X0059180Y0114900D01*
X0058650Y0114380D02*
X0053350Y0114380D01*
X0054330Y0113390D02*
X0057670Y0113390D01*
X0056680Y0112410D02*
X0055320Y0112410D01*
X0055400Y0111420D02*
X0056600Y0111420D01*
X0056600Y0110440D02*
X0055400Y0110440D01*
X0055400Y0109450D02*
X0056600Y0109450D01*
X0056810Y0108470D02*
X0055190Y0108470D01*
X0054200Y0107480D02*
X0057800Y0107480D01*
X0063070Y0116350D02*
X0068000Y0116350D01*
X0068000Y0117330D02*
X0064050Y0117330D01*
X0065040Y0118320D02*
X0068000Y0118320D01*
X0068000Y0119300D02*
X0065400Y0119300D01*
X0065400Y0120290D02*
X0068000Y0120290D01*
X0068150Y0121270D02*
X0065400Y0121270D01*
X0065400Y0122260D02*
X0071960Y0122260D01*
X0072520Y0123240D02*
X0064480Y0123240D01*
X0063500Y0124230D02*
X0073500Y0124230D01*
X0074890Y0126200D02*
X0062920Y0126200D01*
X0063900Y0127180D02*
X0073100Y0127180D01*
X0072200Y0128170D02*
X0064890Y0128170D01*
X0065400Y0129150D02*
X0071800Y0129150D01*
X0071600Y0130140D02*
X0065400Y0130140D01*
X0065400Y0131120D02*
X0071600Y0131120D01*
X0071900Y0132110D02*
X0065400Y0132110D01*
X0064630Y0133090D02*
X0072370Y0133090D01*
X0073350Y0134080D02*
X0063650Y0134080D01*
X0063750Y0137030D02*
X0073250Y0137030D01*
X0072270Y0138020D02*
X0064740Y0138020D01*
X0065400Y0139000D02*
X0071860Y0139000D01*
X0071600Y0139990D02*
X0065400Y0139990D01*
X0065400Y0140970D02*
X0071600Y0140970D01*
X0071840Y0141960D02*
X0065400Y0141960D01*
X0064780Y0142940D02*
X0072250Y0142940D01*
X0073200Y0143930D02*
X0063800Y0143930D01*
X0063600Y0146880D02*
X0073400Y0146880D01*
X0072410Y0147870D02*
X0064590Y0147870D01*
X0065400Y0148850D02*
X0071920Y0148850D01*
X0071600Y0149840D02*
X0065400Y0149840D01*
X0065400Y0150820D02*
X0071600Y0150820D01*
X0071780Y0151810D02*
X0065400Y0151810D01*
X0064930Y0152790D02*
X0072190Y0152790D01*
X0073050Y0153780D02*
X0063950Y0153780D01*
X0062960Y0154760D02*
X0074790Y0154760D01*
X0073600Y0156730D02*
X0038880Y0156730D01*
X0038880Y0155750D02*
X0079420Y0155750D01*
X0079420Y0156730D02*
X0078400Y0156730D01*
X0079420Y0154760D02*
X0077210Y0154760D01*
X0078950Y0153780D02*
X0079420Y0153780D01*
X0079420Y0146880D02*
X0078600Y0146880D01*
X0079420Y0145900D02*
X0037500Y0145900D01*
X0037500Y0146880D02*
X0038400Y0146880D01*
X0037500Y0144910D02*
X0079420Y0144910D01*
X0079420Y0143930D02*
X0078800Y0143930D01*
X0078750Y0137030D02*
X0079420Y0137030D01*
X0079420Y0136050D02*
X0037500Y0136050D01*
X0037500Y0137030D02*
X0038250Y0137030D01*
X0037500Y0135060D02*
X0079420Y0135060D01*
X0079420Y0134080D02*
X0078650Y0134080D01*
X0078900Y0127180D02*
X0079420Y0127180D01*
X0079420Y0126200D02*
X0077110Y0126200D01*
X0078500Y0124230D02*
X0079420Y0124230D01*
X0079420Y0125210D02*
X0037500Y0125210D01*
X0037500Y0124230D02*
X0038500Y0124230D01*
X0037520Y0123240D02*
X0037500Y0123240D01*
X0037500Y0126200D02*
X0039080Y0126200D01*
X0038100Y0127180D02*
X0037500Y0127180D01*
X0037500Y0134080D02*
X0038350Y0134080D01*
X0034500Y0134080D02*
X0033650Y0134080D01*
X0032820Y0134900D02*
X0029180Y0134900D01*
X0026600Y0132320D01*
X0026600Y0128680D01*
X0029180Y0126100D01*
X0032820Y0126100D01*
X0034500Y0127780D01*
X0034500Y0123220D01*
X0032820Y0124900D01*
X0029220Y0124900D01*
X0029120Y0125000D01*
X0026960Y0125000D01*
X0026960Y0125570D01*
X0026320Y0126220D01*
X0020680Y0126220D01*
X0020040Y0125570D01*
X0020040Y0125040D01*
X0018420Y0125040D01*
X0017870Y0124490D01*
X0016880Y0124900D01*
X0015120Y0124900D01*
X0013510Y0124230D01*
X0012500Y0123220D01*
X0012500Y0127780D01*
X0013510Y0126770D01*
X0015120Y0126100D01*
X0016880Y0126100D01*
X0018490Y0126770D01*
X0019730Y0128010D01*
X0020400Y0129620D01*
X0020400Y0131380D01*
X0019730Y0132990D01*
X0018490Y0134230D01*
X0016880Y0134900D01*
X0015120Y0134900D01*
X0013510Y0134230D01*
X0012500Y0133220D01*
X0012500Y0137780D01*
X0013510Y0136770D01*
X0015120Y0136100D01*
X0016880Y0136100D01*
X0018490Y0136770D01*
X0019730Y0138010D01*
X0020400Y0139620D01*
X0020400Y0141380D01*
X0019730Y0142990D01*
X0018490Y0144230D01*
X0016880Y0144900D01*
X0015120Y0144900D01*
X0013510Y0144230D01*
X0012500Y0143220D01*
X0012500Y0147780D01*
X0013510Y0146770D01*
X0015120Y0146100D01*
X0016880Y0146100D01*
X0018490Y0146770D01*
X0019730Y0148010D01*
X0020400Y0149620D01*
X0020400Y0151380D01*
X0019730Y0152990D01*
X0018490Y0154230D01*
X0016880Y0154900D01*
X0015120Y0154900D01*
X0013510Y0154230D01*
X0012500Y0153220D01*
X0012500Y0157780D01*
X0013510Y0156770D01*
X0015120Y0156100D01*
X0016880Y0156100D01*
X0018490Y0156770D01*
X0019730Y0158010D01*
X0020400Y0159620D01*
X0020400Y0161380D01*
X0019730Y0162990D01*
X0018490Y0164230D01*
X0016880Y0164900D01*
X0015120Y0164900D01*
X0013510Y0164230D01*
X0012500Y0163220D01*
X0012500Y0167210D01*
X0012870Y0166840D01*
X0013480Y0166390D01*
X0014160Y0166050D01*
X0014880Y0165820D01*
X0015520Y0165720D01*
X0015520Y0170020D01*
X0016480Y0170020D01*
X0016480Y0170980D01*
X0015520Y0170980D01*
X0015520Y0175280D01*
X0014880Y0175180D01*
X0014160Y0174950D01*
X0013480Y0174610D01*
X0012870Y0174160D01*
X0012500Y0173790D01*
X0012500Y0177780D01*
X0013510Y0176770D01*
X0015120Y0176100D01*
X0016880Y0176100D01*
X0018490Y0176770D01*
X0019550Y0177830D01*
X0023500Y0173880D01*
X0023500Y0166380D01*
X0024380Y0165500D01*
X0033120Y0156760D01*
X0033120Y0154600D01*
X0032820Y0154900D01*
X0029180Y0154900D01*
X0026600Y0152320D01*
X0026600Y0148680D01*
X0029180Y0146100D01*
X0032820Y0146100D01*
X0034500Y0147780D01*
X0034500Y0143220D01*
X0032820Y0144900D01*
X0029180Y0144900D01*
X0026600Y0142320D01*
X0026600Y0138680D01*
X0029180Y0136100D01*
X0032820Y0136100D01*
X0034500Y0137780D01*
X0034500Y0133220D01*
X0032820Y0134900D01*
X0033750Y0137030D02*
X0034500Y0137030D01*
X0034500Y0136050D02*
X0012500Y0136050D01*
X0012500Y0137030D02*
X0013250Y0137030D01*
X0012500Y0135060D02*
X0034500Y0135060D01*
X0034500Y0127180D02*
X0033900Y0127180D01*
X0034500Y0126200D02*
X0032920Y0126200D01*
X0033500Y0124230D02*
X0034500Y0124230D01*
X0034500Y0125210D02*
X0026960Y0125210D01*
X0026340Y0126200D02*
X0029080Y0126200D01*
X0028100Y0127180D02*
X0018900Y0127180D01*
X0019800Y0128170D02*
X0027110Y0128170D01*
X0026600Y0129150D02*
X0020200Y0129150D01*
X0020400Y0130140D02*
X0026600Y0130140D01*
X0026600Y0131120D02*
X0020400Y0131120D01*
X0020100Y0132110D02*
X0026600Y0132110D01*
X0027370Y0133090D02*
X0019630Y0133090D01*
X0018650Y0134080D02*
X0028350Y0134080D01*
X0028250Y0137030D02*
X0018750Y0137030D01*
X0019730Y0138020D02*
X0027260Y0138020D01*
X0026600Y0139000D02*
X0020140Y0139000D01*
X0020400Y0139990D02*
X0026600Y0139990D01*
X0026600Y0140970D02*
X0020400Y0140970D01*
X0020160Y0141960D02*
X0026600Y0141960D01*
X0027220Y0142940D02*
X0019750Y0142940D01*
X0018800Y0143930D02*
X0028200Y0143930D01*
X0028400Y0146880D02*
X0018600Y0146880D01*
X0019590Y0147870D02*
X0027410Y0147870D01*
X0026600Y0148850D02*
X0020080Y0148850D01*
X0020400Y0149840D02*
X0026600Y0149840D01*
X0026600Y0150820D02*
X0020400Y0150820D01*
X0020220Y0151810D02*
X0026600Y0151810D01*
X0027070Y0152790D02*
X0019810Y0152790D01*
X0018950Y0153780D02*
X0028050Y0153780D01*
X0029040Y0154760D02*
X0017210Y0154760D01*
X0018400Y0156730D02*
X0033120Y0156730D01*
X0033120Y0155750D02*
X0012500Y0155750D01*
X0012500Y0156730D02*
X0013600Y0156730D01*
X0012500Y0154760D02*
X0014790Y0154760D01*
X0013050Y0153780D02*
X0012500Y0153780D01*
X0012500Y0157720D02*
X0012560Y0157720D01*
X0012500Y0163630D02*
X0012900Y0163630D01*
X0012500Y0164610D02*
X0014430Y0164610D01*
X0015520Y0166580D02*
X0016480Y0166580D01*
X0016480Y0165720D02*
X0017120Y0165820D01*
X0017840Y0166050D01*
X0018520Y0166390D01*
X0019130Y0166840D01*
X0019660Y0167370D01*
X0020110Y0167980D01*
X0020450Y0168660D01*
X0020680Y0169380D01*
X0020780Y0170020D01*
X0016480Y0170020D01*
X0016480Y0165720D01*
X0017570Y0164610D02*
X0025270Y0164610D01*
X0026250Y0163630D02*
X0019100Y0163630D01*
X0019880Y0162640D02*
X0027240Y0162640D01*
X0028220Y0161660D02*
X0020280Y0161660D01*
X0020400Y0160670D02*
X0029210Y0160670D01*
X0030190Y0159690D02*
X0020400Y0159690D01*
X0020020Y0158700D02*
X0031180Y0158700D01*
X0032160Y0157720D02*
X0019440Y0157720D01*
X0018770Y0166580D02*
X0023500Y0166580D01*
X0023500Y0167570D02*
X0019800Y0167570D01*
X0020390Y0168550D02*
X0023500Y0168550D01*
X0023500Y0169540D02*
X0020710Y0169540D01*
X0020780Y0170980D02*
X0020680Y0171620D01*
X0020450Y0172340D01*
X0020110Y0173020D01*
X0019660Y0173630D01*
X0019130Y0174160D01*
X0018520Y0174610D01*
X0017840Y0174950D01*
X0017120Y0175180D01*
X0016480Y0175280D01*
X0016480Y0170980D01*
X0020780Y0170980D01*
X0020700Y0171510D02*
X0023500Y0171510D01*
X0023500Y0172490D02*
X0020370Y0172490D01*
X0019770Y0173480D02*
X0023500Y0173480D01*
X0022920Y0174460D02*
X0018720Y0174460D01*
X0017670Y0176430D02*
X0020950Y0176430D01*
X0019960Y0177420D02*
X0019140Y0177420D01*
X0020500Y0181120D02*
X0020400Y0181220D01*
X0020400Y0181380D01*
X0019730Y0182990D01*
X0018490Y0184230D01*
X0016880Y0184900D01*
X0015120Y0184900D01*
X0013510Y0184230D01*
X0012500Y0183220D01*
X0012500Y0187780D01*
X0013510Y0186770D01*
X0015120Y0186100D01*
X0016880Y0186100D01*
X0018490Y0186770D01*
X0019730Y0188010D01*
X0020140Y0189000D01*
X0030380Y0189000D01*
X0037570Y0181810D01*
X0037330Y0181230D01*
X0037330Y0179770D01*
X0037880Y0178420D01*
X0038800Y0177500D01*
X0036120Y0177500D01*
X0034430Y0179190D01*
X0034670Y0179770D01*
X0034670Y0181230D01*
X0034120Y0182580D01*
X0033080Y0183620D01*
X0031730Y0184170D01*
X0030270Y0184170D01*
X0028920Y0183620D01*
X0027880Y0182580D01*
X0027330Y0181230D01*
X0027330Y0179770D01*
X0027880Y0178420D01*
X0028920Y0177380D01*
X0030270Y0176830D01*
X0031730Y0176830D01*
X0032310Y0177070D01*
X0034000Y0175380D01*
X0034880Y0174500D01*
X0045620Y0174500D01*
X0046120Y0175000D01*
X0047000Y0175880D01*
X0047000Y0185880D01*
X0050120Y0189000D01*
X0071860Y0189000D01*
X0072270Y0188010D01*
X0073510Y0186770D01*
X0075120Y0186100D01*
X0076880Y0186100D01*
X0078490Y0186770D01*
X0079420Y0187700D01*
X0079420Y0183300D01*
X0078490Y0184230D01*
X0076880Y0184900D01*
X0075120Y0184900D01*
X0073510Y0184230D01*
X0072270Y0182990D01*
X0071600Y0181380D01*
X0071600Y0179620D01*
X0072270Y0178010D01*
X0073510Y0176770D01*
X0075120Y0176100D01*
X0076880Y0176100D01*
X0078490Y0176770D01*
X0079420Y0177700D01*
X0079420Y0173300D01*
X0078490Y0174230D01*
X0076880Y0174900D01*
X0075120Y0174900D01*
X0073510Y0174230D01*
X0072270Y0172990D01*
X0071600Y0171380D01*
X0071600Y0169620D01*
X0072270Y0168010D01*
X0073510Y0166770D01*
X0075120Y0166100D01*
X0076880Y0166100D01*
X0078490Y0166770D01*
X0079420Y0167700D01*
X0079420Y0163300D01*
X0078490Y0164230D01*
X0076880Y0164900D01*
X0075120Y0164900D01*
X0073510Y0164230D01*
X0072270Y0162990D01*
X0071860Y0162000D01*
X0061620Y0162000D01*
X0054430Y0169190D01*
X0054670Y0169770D01*
X0054670Y0171230D01*
X0054120Y0172580D01*
X0053200Y0173500D01*
X0055880Y0173500D01*
X0057570Y0171810D01*
X0057330Y0171230D01*
X0057330Y0169770D01*
X0057880Y0168420D01*
X0058920Y0167380D01*
X0060270Y0166830D01*
X0061730Y0166830D01*
X0063080Y0167380D01*
X0064120Y0168420D01*
X0064670Y0169770D01*
X0064670Y0171230D01*
X0064120Y0172580D01*
X0063080Y0173620D01*
X0061730Y0174170D01*
X0060270Y0174170D01*
X0059690Y0173930D01*
X0058000Y0175620D01*
X0057120Y0176500D01*
X0047880Y0176500D01*
X0044880Y0173500D01*
X0044040Y0172660D01*
X0043080Y0173620D01*
X0041730Y0174170D01*
X0040270Y0174170D01*
X0038920Y0173620D01*
X0037880Y0172580D01*
X0037330Y0171230D01*
X0037330Y0169770D01*
X0037880Y0168420D01*
X0038920Y0167380D01*
X0040270Y0166830D01*
X0041730Y0166830D01*
X0043080Y0167380D01*
X0044000Y0168300D01*
X0044000Y0166120D01*
X0037260Y0159380D01*
X0034740Y0159380D01*
X0026500Y0167620D01*
X0026500Y0175120D01*
X0020500Y0181120D01*
X0020400Y0181360D02*
X0027380Y0181360D01*
X0027330Y0180370D02*
X0021250Y0180370D01*
X0022240Y0179390D02*
X0027480Y0179390D01*
X0027900Y0178400D02*
X0023220Y0178400D01*
X0021930Y0175450D02*
X0012500Y0175450D01*
X0012500Y0176430D02*
X0014330Y0176430D01*
X0015520Y0174460D02*
X0016480Y0174460D01*
X0016480Y0173480D02*
X0015520Y0173480D01*
X0015520Y0172490D02*
X0016480Y0172490D01*
X0016480Y0171510D02*
X0015520Y0171510D01*
X0015520Y0169540D02*
X0016480Y0169540D01*
X0016480Y0170520D02*
X0023500Y0170520D01*
X0024280Y0165600D02*
X0012500Y0165600D01*
X0012500Y0166580D02*
X0013230Y0166580D01*
X0015520Y0167570D02*
X0016480Y0167570D01*
X0016480Y0168550D02*
X0015520Y0168550D01*
X0013280Y0174460D02*
X0012500Y0174460D01*
X0012500Y0177420D02*
X0012860Y0177420D01*
X0012600Y0183330D02*
X0012500Y0183330D01*
X0012500Y0184310D02*
X0013700Y0184310D01*
X0014690Y0186280D02*
X0012500Y0186280D01*
X0012500Y0185300D02*
X0034080Y0185300D01*
X0033100Y0186280D02*
X0017310Y0186280D01*
X0018300Y0184310D02*
X0035070Y0184310D01*
X0036050Y0183330D02*
X0033370Y0183330D01*
X0034220Y0182340D02*
X0037040Y0182340D01*
X0037380Y0181360D02*
X0034620Y0181360D01*
X0034670Y0180370D02*
X0037330Y0180370D01*
X0037480Y0179390D02*
X0034520Y0179390D01*
X0035220Y0178400D02*
X0037900Y0178400D01*
X0038780Y0173480D02*
X0033220Y0173480D01*
X0033080Y0173620D02*
X0031730Y0174170D01*
X0030270Y0174170D01*
X0028920Y0173620D01*
X0027880Y0172580D01*
X0027330Y0171230D01*
X0027330Y0169770D01*
X0027880Y0168420D01*
X0028920Y0167380D01*
X0030270Y0166830D01*
X0031730Y0166830D01*
X0033080Y0167380D01*
X0034120Y0168420D01*
X0034670Y0169770D01*
X0034670Y0171230D01*
X0034120Y0172580D01*
X0033080Y0173620D01*
X0033930Y0175450D02*
X0026180Y0175450D01*
X0026500Y0174460D02*
X0045840Y0174460D01*
X0046570Y0175450D02*
X0046820Y0175450D01*
X0047000Y0176430D02*
X0047810Y0176430D01*
X0047000Y0177420D02*
X0048890Y0177420D01*
X0048920Y0177380D02*
X0050270Y0176830D01*
X0051730Y0176830D01*
X0053080Y0177380D01*
X0054120Y0178420D01*
X0054670Y0179770D01*
X0054670Y0181230D01*
X0054120Y0182580D01*
X0053080Y0183620D01*
X0051730Y0184170D01*
X0050270Y0184170D01*
X0048920Y0183620D01*
X0047880Y0182580D01*
X0047330Y0181230D01*
X0047330Y0179770D01*
X0047880Y0178420D01*
X0048920Y0177380D01*
X0047900Y0178400D02*
X0047000Y0178400D01*
X0047000Y0179390D02*
X0047480Y0179390D01*
X0047330Y0180370D02*
X0047000Y0180370D01*
X0047000Y0181360D02*
X0047380Y0181360D01*
X0047000Y0182340D02*
X0047780Y0182340D01*
X0047000Y0183330D02*
X0048630Y0183330D01*
X0047400Y0186280D02*
X0074690Y0186280D01*
X0073700Y0184310D02*
X0064430Y0184310D01*
X0064500Y0184280D02*
X0064150Y0184470D01*
X0063770Y0184570D01*
X0061290Y0184570D01*
X0061290Y0180790D01*
X0065070Y0180790D01*
X0065070Y0183270D01*
X0064970Y0183650D01*
X0064780Y0184000D01*
X0064500Y0184280D01*
X0065060Y0183330D02*
X0072600Y0183330D01*
X0072000Y0182340D02*
X0065070Y0182340D01*
X0065070Y0181360D02*
X0071600Y0181360D01*
X0071600Y0180370D02*
X0061290Y0180370D01*
X0061290Y0180210D02*
X0061290Y0180790D01*
X0060710Y0180790D01*
X0060710Y0184570D01*
X0058230Y0184570D01*
X0057850Y0184470D01*
X0057500Y0184280D01*
X0057220Y0184000D01*
X0057030Y0183650D01*
X0056930Y0183270D01*
X0056930Y0180790D01*
X0060710Y0180790D01*
X0060710Y0180210D01*
X0061290Y0180210D01*
X0065070Y0180210D01*
X0065070Y0177730D01*
X0064970Y0177350D01*
X0064780Y0177000D01*
X0064500Y0176720D01*
X0064150Y0176530D01*
X0063770Y0176430D01*
X0061290Y0176430D01*
X0060710Y0176430D01*
X0060710Y0180210D01*
X0056930Y0180210D01*
X0056930Y0177730D01*
X0057030Y0177350D01*
X0057220Y0177000D01*
X0057500Y0176720D01*
X0057850Y0176530D01*
X0058230Y0176430D01*
X0060710Y0176430D01*
X0061290Y0176430D02*
X0061290Y0180210D01*
X0060710Y0180370D02*
X0054670Y0180370D01*
X0054620Y0181360D02*
X0056930Y0181360D01*
X0056930Y0182340D02*
X0054220Y0182340D01*
X0053370Y0183330D02*
X0056940Y0183330D01*
X0057570Y0184310D02*
X0047000Y0184310D01*
X0047000Y0185300D02*
X0079420Y0185300D01*
X0079420Y0186280D02*
X0077310Y0186280D01*
X0078300Y0184310D02*
X0079420Y0184310D01*
X0079400Y0183330D02*
X0079420Y0183330D01*
X0079420Y0187270D02*
X0078990Y0187270D01*
X0079140Y0177420D02*
X0079420Y0177420D01*
X0079420Y0176430D02*
X0077670Y0176430D01*
X0077940Y0174460D02*
X0079420Y0174460D01*
X0079420Y0173480D02*
X0079250Y0173480D01*
X0079420Y0175450D02*
X0058180Y0175450D01*
X0058210Y0176430D02*
X0057190Y0176430D01*
X0057010Y0177420D02*
X0053110Y0177420D01*
X0054100Y0178400D02*
X0056930Y0178400D01*
X0056930Y0179390D02*
X0054520Y0179390D01*
X0053220Y0173480D02*
X0055900Y0173480D01*
X0056890Y0172490D02*
X0054150Y0172490D01*
X0054560Y0171510D02*
X0057440Y0171510D01*
X0057330Y0170520D02*
X0054670Y0170520D01*
X0054580Y0169540D02*
X0057420Y0169540D01*
X0057830Y0168550D02*
X0055070Y0168550D01*
X0056060Y0167570D02*
X0058740Y0167570D01*
X0058030Y0165600D02*
X0079420Y0165600D01*
X0079420Y0166580D02*
X0078030Y0166580D01*
X0079290Y0167570D02*
X0079420Y0167570D01*
X0079420Y0164610D02*
X0077570Y0164610D01*
X0079100Y0163630D02*
X0079420Y0163630D01*
X0074430Y0164610D02*
X0059010Y0164610D01*
X0060000Y0163630D02*
X0072900Y0163630D01*
X0072120Y0162640D02*
X0060980Y0162640D01*
X0059690Y0159690D02*
X0041810Y0159690D01*
X0042790Y0160670D02*
X0058710Y0160670D01*
X0057720Y0161660D02*
X0043780Y0161660D01*
X0044760Y0162640D02*
X0056740Y0162640D01*
X0055750Y0163630D02*
X0045750Y0163630D01*
X0046730Y0164610D02*
X0054770Y0164610D01*
X0053780Y0165600D02*
X0047000Y0165600D01*
X0047000Y0166580D02*
X0052800Y0166580D01*
X0048740Y0167570D02*
X0047000Y0167570D01*
X0047000Y0168550D02*
X0047830Y0168550D01*
X0047420Y0169540D02*
X0047000Y0169540D01*
X0047000Y0170520D02*
X0047330Y0170520D01*
X0047440Y0171510D02*
X0047130Y0171510D01*
X0044850Y0173480D02*
X0043220Y0173480D01*
X0043260Y0167570D02*
X0044000Y0167570D01*
X0044000Y0166580D02*
X0027540Y0166580D01*
X0026560Y0167570D02*
X0028740Y0167570D01*
X0028530Y0165600D02*
X0043470Y0165600D01*
X0042490Y0164610D02*
X0029510Y0164610D01*
X0030500Y0163630D02*
X0041500Y0163630D01*
X0040520Y0162640D02*
X0031480Y0162640D01*
X0032470Y0161660D02*
X0039530Y0161660D01*
X0038550Y0160670D02*
X0033450Y0160670D01*
X0034440Y0159690D02*
X0037560Y0159690D01*
X0039840Y0157720D02*
X0072560Y0157720D01*
X0071980Y0158700D02*
X0040820Y0158700D01*
X0039040Y0154760D02*
X0038880Y0154760D01*
X0042960Y0154760D02*
X0049040Y0154760D01*
X0048050Y0153780D02*
X0043950Y0153780D01*
X0044930Y0152790D02*
X0047070Y0152790D01*
X0046600Y0151810D02*
X0045400Y0151810D01*
X0045400Y0150820D02*
X0046600Y0150820D01*
X0046600Y0149840D02*
X0045400Y0149840D01*
X0045400Y0148850D02*
X0046600Y0148850D01*
X0047410Y0147870D02*
X0044590Y0147870D01*
X0043600Y0146880D02*
X0048400Y0146880D01*
X0048200Y0143930D02*
X0043800Y0143930D01*
X0044780Y0142940D02*
X0047220Y0142940D01*
X0046600Y0141960D02*
X0045400Y0141960D01*
X0045400Y0140970D02*
X0046600Y0140970D01*
X0046600Y0139990D02*
X0045400Y0139990D01*
X0045400Y0139000D02*
X0046600Y0139000D01*
X0047260Y0138020D02*
X0044740Y0138020D01*
X0043750Y0137030D02*
X0048250Y0137030D01*
X0048350Y0134080D02*
X0043650Y0134080D01*
X0044630Y0133090D02*
X0047370Y0133090D01*
X0046600Y0132110D02*
X0045400Y0132110D01*
X0045400Y0131120D02*
X0046600Y0131120D01*
X0046600Y0130140D02*
X0045400Y0130140D01*
X0045400Y0129150D02*
X0046600Y0129150D01*
X0047110Y0128170D02*
X0044890Y0128170D01*
X0043900Y0127180D02*
X0048100Y0127180D01*
X0049080Y0126200D02*
X0042920Y0126200D01*
X0043500Y0124230D02*
X0048500Y0124230D01*
X0047520Y0123240D02*
X0044480Y0123240D01*
X0045400Y0122260D02*
X0046600Y0122260D01*
X0046600Y0121270D02*
X0045400Y0121270D01*
X0045400Y0120290D02*
X0046600Y0120290D01*
X0046600Y0119300D02*
X0045400Y0119300D01*
X0045040Y0118320D02*
X0046960Y0118320D01*
X0047950Y0117330D02*
X0044050Y0117330D01*
X0043070Y0116350D02*
X0048930Y0116350D01*
X0048650Y0114380D02*
X0043350Y0114380D01*
X0042820Y0114900D02*
X0039180Y0114900D01*
X0036600Y0112320D01*
X0036600Y0108680D01*
X0039180Y0106100D01*
X0042820Y0106100D01*
X0045400Y0108680D01*
X0045400Y0112320D01*
X0042820Y0114900D01*
X0044330Y0113390D02*
X0047670Y0113390D01*
X0046680Y0112410D02*
X0045320Y0112410D01*
X0045400Y0111420D02*
X0046600Y0111420D01*
X0046600Y0110440D02*
X0045400Y0110440D01*
X0045400Y0109450D02*
X0046600Y0109450D01*
X0046810Y0108470D02*
X0045190Y0108470D01*
X0044200Y0107480D02*
X0047800Y0107480D01*
X0045370Y0106500D02*
X0043220Y0106500D01*
X0043200Y0104530D02*
X0044500Y0104530D01*
X0044500Y0105510D02*
X0028130Y0105510D01*
X0028800Y0104530D02*
X0027150Y0104530D01*
X0027820Y0103540D02*
X0026460Y0103540D01*
X0026460Y0102560D02*
X0026830Y0102560D01*
X0026600Y0102320D02*
X0026600Y0098680D01*
X0029180Y0096100D01*
X0032820Y0096100D01*
X0035400Y0098680D01*
X0035400Y0102320D01*
X0032820Y0104900D01*
X0029180Y0104900D01*
X0026600Y0102320D01*
X0026600Y0101570D02*
X0026460Y0101570D01*
X0026600Y0100590D02*
X0026120Y0100590D01*
X0026600Y0099600D02*
X0020390Y0099600D01*
X0019980Y0098620D02*
X0026660Y0098620D01*
X0027650Y0097630D02*
X0019350Y0097630D01*
X0018190Y0096650D02*
X0028630Y0096650D01*
X0030630Y0092710D02*
X0032000Y0092710D01*
X0031970Y0091720D02*
X0030630Y0091720D01*
X0030630Y0090740D02*
X0031970Y0090740D01*
X0031970Y0088770D02*
X0030630Y0088770D01*
X0030630Y0089750D02*
X0035330Y0089750D01*
X0035330Y0090740D02*
X0036330Y0090740D01*
X0036330Y0090120D02*
X0036330Y0093870D01*
X0038390Y0093870D01*
X0038770Y0093770D01*
X0039110Y0093570D01*
X0039390Y0093300D01*
X0039590Y0092950D01*
X0039690Y0092570D01*
X0039690Y0090120D01*
X0036330Y0090120D01*
X0036330Y0089750D02*
X0044500Y0089750D01*
X0044500Y0088770D02*
X0039690Y0088770D01*
X0039690Y0090740D02*
X0044500Y0090740D01*
X0044500Y0091720D02*
X0039690Y0091720D01*
X0039660Y0092710D02*
X0044500Y0092710D01*
X0044500Y0093690D02*
X0038910Y0093690D01*
X0038630Y0096650D02*
X0033370Y0096650D01*
X0034350Y0097630D02*
X0037650Y0097630D01*
X0036660Y0098620D02*
X0035340Y0098620D01*
X0035400Y0099600D02*
X0036600Y0099600D01*
X0036600Y0100590D02*
X0035400Y0100590D01*
X0035400Y0101570D02*
X0036600Y0101570D01*
X0036830Y0102560D02*
X0035170Y0102560D01*
X0034180Y0103540D02*
X0037820Y0103540D01*
X0038800Y0104530D02*
X0033200Y0104530D01*
X0033220Y0106500D02*
X0038780Y0106500D01*
X0037800Y0107480D02*
X0034200Y0107480D01*
X0035190Y0108470D02*
X0036810Y0108470D01*
X0036600Y0109450D02*
X0035400Y0109450D01*
X0035400Y0110440D02*
X0036600Y0110440D01*
X0036600Y0111420D02*
X0035400Y0111420D01*
X0035320Y0112410D02*
X0036680Y0112410D01*
X0037670Y0113390D02*
X0034330Y0113390D01*
X0036500Y0114380D02*
X0038650Y0114380D01*
X0037480Y0115360D02*
X0068000Y0115360D01*
X0068000Y0114380D02*
X0063350Y0114380D01*
X0064330Y0113390D02*
X0068000Y0113390D01*
X0068000Y0112410D02*
X0065320Y0112410D01*
X0065400Y0111420D02*
X0068000Y0111420D01*
X0068000Y0110440D02*
X0065400Y0110440D01*
X0065400Y0109450D02*
X0068000Y0109450D01*
X0068000Y0108470D02*
X0065190Y0108470D01*
X0064200Y0107480D02*
X0067860Y0107480D01*
X0073300Y0094680D02*
X0074580Y0094680D01*
X0074280Y0095660D02*
X0079420Y0095660D01*
X0079420Y0094680D02*
X0077420Y0094680D01*
X0078190Y0096650D02*
X0079420Y0096650D01*
X0079350Y0097630D02*
X0079420Y0097630D01*
X0079420Y0093690D02*
X0079030Y0093690D01*
X0078520Y0086800D02*
X0079420Y0086800D01*
X0079420Y0085810D02*
X0067600Y0085810D01*
X0067590Y0085780D02*
X0067690Y0086160D01*
X0067690Y0088620D01*
X0064330Y0088620D01*
X0064330Y0089620D01*
X0063330Y0089620D01*
X0063330Y0093370D01*
X0061270Y0093370D01*
X0060890Y0093270D01*
X0060550Y0093070D01*
X0060270Y0092800D01*
X0060070Y0092450D01*
X0059970Y0092070D01*
X0059970Y0089620D01*
X0063330Y0089620D01*
X0063330Y0088620D01*
X0059970Y0088620D01*
X0059970Y0086160D01*
X0060070Y0085780D01*
X0060270Y0085440D01*
X0060550Y0085160D01*
X0060890Y0084960D01*
X0061270Y0084860D01*
X0063330Y0084860D01*
X0063330Y0088620D01*
X0064330Y0088620D01*
X0064330Y0084860D01*
X0066390Y0084860D01*
X0066770Y0084960D01*
X0067110Y0085160D01*
X0067390Y0085440D01*
X0067590Y0085780D01*
X0067690Y0086800D02*
X0073480Y0086800D01*
X0074160Y0084950D02*
X0073480Y0084610D01*
X0072870Y0084160D01*
X0072340Y0083630D01*
X0071890Y0083020D01*
X0071550Y0082340D01*
X0071320Y0081620D01*
X0071220Y0080980D01*
X0075520Y0080980D01*
X0075520Y0085280D01*
X0074880Y0085180D01*
X0074160Y0084950D01*
X0073920Y0084830D02*
X0056450Y0084830D01*
X0055460Y0083840D02*
X0072550Y0083840D01*
X0071810Y0082860D02*
X0054500Y0082860D01*
X0052890Y0080890D02*
X0052380Y0080890D01*
X0052890Y0079900D02*
X0051460Y0079900D01*
X0051460Y0078920D02*
X0052890Y0078920D01*
X0052890Y0077930D02*
X0051460Y0077930D01*
X0051460Y0076950D02*
X0052890Y0076950D01*
X0052890Y0075960D02*
X0037900Y0075960D01*
X0038110Y0076950D02*
X0039040Y0076950D01*
X0039040Y0077930D02*
X0038110Y0077930D01*
X0038110Y0078920D02*
X0039040Y0078920D01*
X0039040Y0079900D02*
X0038110Y0079900D01*
X0038110Y0080890D02*
X0038450Y0080890D01*
X0036330Y0091720D02*
X0035330Y0091720D01*
X0035330Y0092710D02*
X0036330Y0092710D01*
X0036330Y0093690D02*
X0035330Y0093690D01*
X0032750Y0093690D02*
X0019030Y0093690D01*
X0019850Y0092710D02*
X0023710Y0092710D01*
X0023710Y0091720D02*
X0020260Y0091720D01*
X0020400Y0090740D02*
X0023710Y0090740D01*
X0023710Y0089750D02*
X0020400Y0089750D01*
X0020040Y0088770D02*
X0023710Y0088770D01*
X0023710Y0087780D02*
X0019500Y0087780D01*
X0018520Y0086800D02*
X0023710Y0086800D01*
X0024300Y0085810D02*
X0012500Y0085810D01*
X0012500Y0084830D02*
X0014940Y0084830D01*
X0017060Y0084830D02*
X0025670Y0084830D01*
X0026540Y0083840D02*
X0018880Y0083840D01*
X0019790Y0082860D02*
X0025150Y0082860D01*
X0024890Y0081870D02*
X0020200Y0081870D01*
X0020400Y0080890D02*
X0024890Y0080890D01*
X0024890Y0079900D02*
X0020400Y0079900D01*
X0020110Y0078920D02*
X0024890Y0078920D01*
X0024890Y0077930D02*
X0019650Y0077930D01*
X0018670Y0076950D02*
X0024890Y0076950D01*
X0024830Y0075960D02*
X0012500Y0075960D01*
X0012500Y0074980D02*
X0023900Y0074980D01*
X0023900Y0073990D02*
X0018730Y0073990D01*
X0019720Y0073010D02*
X0023900Y0073010D01*
X0023900Y0072020D02*
X0020130Y0072020D01*
X0020400Y0071040D02*
X0023900Y0071040D01*
X0023900Y0070050D02*
X0020400Y0070050D01*
X0020170Y0069070D02*
X0023900Y0069070D01*
X0023900Y0068080D02*
X0019760Y0068080D01*
X0018820Y0067100D02*
X0023900Y0067100D01*
X0023900Y0066110D02*
X0016900Y0066110D01*
X0016480Y0065280D02*
X0016480Y0060980D01*
X0020780Y0060980D01*
X0020680Y0061620D01*
X0020450Y0062340D01*
X0020110Y0063020D01*
X0019660Y0063630D01*
X0019130Y0064160D01*
X0018520Y0064610D01*
X0017840Y0064950D01*
X0017120Y0065180D01*
X0016480Y0065280D01*
X0016480Y0065130D02*
X0015520Y0065130D01*
X0014700Y0065130D02*
X0012500Y0065130D01*
X0012500Y0066110D02*
X0015100Y0066110D01*
X0015520Y0064140D02*
X0016480Y0064140D01*
X0016480Y0063160D02*
X0015520Y0063160D01*
X0015520Y0062170D02*
X0016480Y0062170D01*
X0016480Y0061190D02*
X0015520Y0061190D01*
X0015520Y0059220D02*
X0016480Y0059220D01*
X0016480Y0060020D02*
X0016480Y0055720D01*
X0017120Y0055820D01*
X0017840Y0056050D01*
X0018520Y0056390D01*
X0019130Y0056840D01*
X0019660Y0057370D01*
X0020110Y0057980D01*
X0020450Y0058660D01*
X0020680Y0059380D01*
X0020780Y0060020D01*
X0016480Y0060020D01*
X0016480Y0060200D02*
X0023900Y0060200D01*
X0023900Y0059220D02*
X0020630Y0059220D01*
X0020230Y0058230D02*
X0023900Y0058230D01*
X0023900Y0057250D02*
X0019530Y0057250D01*
X0018250Y0056260D02*
X0023900Y0056260D01*
X0023900Y0055280D02*
X0012500Y0055280D01*
X0012500Y0056260D02*
X0013750Y0056260D01*
X0013650Y0054290D02*
X0012500Y0054290D01*
X0012500Y0053310D02*
X0012580Y0053310D01*
X0015520Y0056260D02*
X0016480Y0056260D01*
X0016480Y0057250D02*
X0015520Y0057250D01*
X0015520Y0058230D02*
X0016480Y0058230D01*
X0018350Y0054290D02*
X0023900Y0054290D01*
X0023900Y0053310D02*
X0019420Y0053310D01*
X0020010Y0052320D02*
X0023900Y0052320D01*
X0023900Y0051340D02*
X0020400Y0051340D01*
X0020400Y0050350D02*
X0023900Y0050350D01*
X0023900Y0049370D02*
X0020290Y0049370D01*
X0019880Y0048380D02*
X0022600Y0048380D01*
X0022600Y0047400D02*
X0019120Y0047400D01*
X0017840Y0045450D02*
X0018520Y0045110D01*
X0019130Y0044660D01*
X0019660Y0044130D01*
X0020110Y0043520D01*
X0020450Y0042840D01*
X0020680Y0042120D01*
X0020780Y0041480D01*
X0016480Y0041480D01*
X0016480Y0045780D01*
X0017120Y0045680D01*
X0017840Y0045450D01*
X0017890Y0045430D02*
X0022600Y0045430D01*
X0022600Y0046410D02*
X0017620Y0046410D01*
X0016480Y0045430D02*
X0015520Y0045430D01*
X0015520Y0044440D02*
X0016480Y0044440D01*
X0016480Y0043460D02*
X0015520Y0043460D01*
X0015520Y0042470D02*
X0016480Y0042470D01*
X0016480Y0041490D02*
X0015520Y0041490D01*
X0015520Y0040500D02*
X0016480Y0040500D01*
X0016480Y0040520D02*
X0016480Y0036220D01*
X0017120Y0036320D01*
X0017840Y0036550D01*
X0018520Y0036890D01*
X0019130Y0037340D01*
X0019660Y0037870D01*
X0020110Y0038480D01*
X0020450Y0039160D01*
X0020680Y0039880D01*
X0020780Y0040520D01*
X0016480Y0040520D01*
X0016480Y0039510D02*
X0015520Y0039510D01*
X0015520Y0038530D02*
X0016480Y0038530D01*
X0016480Y0037540D02*
X0015520Y0037540D01*
X0015520Y0036560D02*
X0016480Y0036560D01*
X0017860Y0036560D02*
X0022720Y0036560D01*
X0022870Y0037540D02*
X0019330Y0037540D01*
X0020130Y0038530D02*
X0023030Y0038530D01*
X0022600Y0039510D02*
X0020560Y0039510D01*
X0020780Y0040500D02*
X0022600Y0040500D01*
X0022600Y0041490D02*
X0020780Y0041490D01*
X0020570Y0042470D02*
X0022600Y0042470D01*
X0022600Y0043460D02*
X0020140Y0043460D01*
X0019350Y0044440D02*
X0022600Y0044440D01*
X0022570Y0035570D02*
X0012500Y0035570D01*
X0012500Y0034590D02*
X0013370Y0034590D01*
X0014140Y0036560D02*
X0012500Y0036560D01*
X0012500Y0037540D02*
X0012670Y0037540D01*
X0012500Y0044440D02*
X0012650Y0044440D01*
X0012500Y0045430D02*
X0014110Y0045430D01*
X0014380Y0046410D02*
X0012500Y0046410D01*
X0012500Y0047400D02*
X0012880Y0047400D01*
X0018630Y0034590D02*
X0022410Y0034590D01*
X0022260Y0033600D02*
X0019620Y0033600D01*
X0020090Y0032620D02*
X0022110Y0032620D01*
X0021950Y0031630D02*
X0020400Y0031630D01*
X0020400Y0030650D02*
X0021800Y0030650D01*
X0021650Y0029660D02*
X0020210Y0029660D01*
X0019800Y0028680D02*
X0021490Y0028680D01*
X0021340Y0027690D02*
X0018920Y0027690D01*
X0020880Y0024740D02*
X0012500Y0024740D01*
X0012500Y0025720D02*
X0021030Y0025720D01*
X0021190Y0026710D02*
X0017140Y0026710D01*
X0018680Y0022770D02*
X0012500Y0022770D01*
X0012500Y0023750D02*
X0019530Y0023750D01*
X0018270Y0021780D02*
X0012500Y0021780D01*
X0012500Y0020800D02*
X0018100Y0020800D01*
X0018100Y0019810D02*
X0012500Y0019810D01*
X0012500Y0018830D02*
X0018430Y0018830D01*
X0018930Y0017840D02*
X0012500Y0017840D01*
X0012500Y0016860D02*
X0019920Y0016860D01*
X0025080Y0016860D02*
X0029920Y0016860D01*
X0030010Y0016770D02*
X0031620Y0016100D01*
X0033380Y0016100D01*
X0034990Y0016770D01*
X0036020Y0017800D01*
X0043980Y0017800D01*
X0045010Y0016770D01*
X0046620Y0016100D01*
X0048380Y0016100D01*
X0049990Y0016770D01*
X0051230Y0018010D01*
X0051900Y0019620D01*
X0051900Y0021380D01*
X0051500Y0022330D01*
X0051500Y0038770D01*
X0052160Y0038770D01*
X0052800Y0039410D01*
X0052800Y0048590D01*
X0052160Y0049230D01*
X0048700Y0049230D01*
X0048700Y0055580D01*
X0048880Y0055760D01*
X0048880Y0060240D01*
X0048240Y0060880D01*
X0043760Y0060880D01*
X0043120Y0060240D01*
X0043120Y0055760D01*
X0043300Y0055580D01*
X0043300Y0049230D01*
X0038840Y0049230D01*
X0038200Y0048590D01*
X0038200Y0039410D01*
X0038840Y0038770D01*
X0044750Y0038770D01*
X0045400Y0039410D01*
X0045400Y0042580D01*
X0045600Y0042790D01*
X0045600Y0039410D01*
X0046250Y0038770D01*
X0046900Y0038770D01*
X0046900Y0024900D01*
X0046620Y0024900D01*
X0045010Y0024230D01*
X0043980Y0023200D01*
X0036020Y0023200D01*
X0034990Y0024230D01*
X0033380Y0024900D01*
X0031620Y0024900D01*
X0030010Y0024230D01*
X0028770Y0022990D01*
X0028100Y0021380D01*
X0028100Y0019620D01*
X0028770Y0018010D01*
X0030010Y0016770D01*
X0028930Y0017840D02*
X0026070Y0017840D01*
X0026570Y0018830D02*
X0028430Y0018830D01*
X0028100Y0019810D02*
X0026900Y0019810D01*
X0026900Y0020800D02*
X0028100Y0020800D01*
X0028270Y0021780D02*
X0026730Y0021780D01*
X0026320Y0022770D02*
X0028680Y0022770D01*
X0029530Y0023750D02*
X0025470Y0023750D01*
X0025530Y0024740D02*
X0031240Y0024740D01*
X0033760Y0024740D02*
X0046240Y0024740D01*
X0046900Y0025720D02*
X0025690Y0025720D01*
X0025840Y0026710D02*
X0046900Y0026710D01*
X0046900Y0027690D02*
X0025990Y0027690D01*
X0026150Y0028680D02*
X0046900Y0028680D01*
X0046900Y0029660D02*
X0026300Y0029660D01*
X0026450Y0030650D02*
X0046900Y0030650D01*
X0046900Y0031630D02*
X0026610Y0031630D01*
X0026760Y0032620D02*
X0046900Y0032620D01*
X0046900Y0033600D02*
X0026910Y0033600D01*
X0027070Y0034590D02*
X0046900Y0034590D01*
X0046900Y0035570D02*
X0027220Y0035570D01*
X0027370Y0036560D02*
X0046900Y0036560D01*
X0046900Y0037540D02*
X0027530Y0037540D01*
X0027680Y0038530D02*
X0046900Y0038530D01*
X0045600Y0039510D02*
X0045400Y0039510D01*
X0045400Y0040500D02*
X0045600Y0040500D01*
X0045600Y0041490D02*
X0045400Y0041490D01*
X0045400Y0042470D02*
X0045600Y0042470D01*
X0043300Y0049370D02*
X0028500Y0049370D01*
X0028500Y0050350D02*
X0043300Y0050350D01*
X0043300Y0051340D02*
X0028500Y0051340D01*
X0028500Y0052320D02*
X0043300Y0052320D01*
X0043300Y0053310D02*
X0028500Y0053310D01*
X0028500Y0054290D02*
X0043300Y0054290D01*
X0043300Y0055280D02*
X0028500Y0055280D01*
X0028500Y0056260D02*
X0043120Y0056260D01*
X0043120Y0057250D02*
X0028500Y0057250D01*
X0028500Y0058230D02*
X0043120Y0058230D01*
X0043120Y0059220D02*
X0028500Y0059220D01*
X0028500Y0060200D02*
X0043120Y0060200D01*
X0038200Y0048380D02*
X0029800Y0048380D01*
X0029800Y0047400D02*
X0038200Y0047400D01*
X0038200Y0046410D02*
X0029800Y0046410D01*
X0029800Y0045430D02*
X0038200Y0045430D01*
X0038200Y0044440D02*
X0029800Y0044440D01*
X0029800Y0043460D02*
X0038200Y0043460D01*
X0038200Y0042470D02*
X0029800Y0042470D01*
X0029800Y0041490D02*
X0038200Y0041490D01*
X0038200Y0040500D02*
X0029800Y0040500D01*
X0029800Y0039510D02*
X0038200Y0039510D01*
X0035470Y0023750D02*
X0044530Y0023750D01*
X0044920Y0016860D02*
X0035080Y0016860D01*
X0048700Y0049370D02*
X0062590Y0049370D01*
X0062600Y0050350D02*
X0048700Y0050350D01*
X0048700Y0051340D02*
X0062620Y0051340D01*
X0062640Y0052320D02*
X0048700Y0052320D01*
X0048700Y0053310D02*
X0062650Y0053310D01*
X0062670Y0054290D02*
X0048700Y0054290D01*
X0048700Y0055280D02*
X0062690Y0055280D01*
X0062710Y0056260D02*
X0048880Y0056260D01*
X0048880Y0057250D02*
X0062720Y0057250D01*
X0062740Y0058230D02*
X0048880Y0058230D01*
X0048880Y0059220D02*
X0062760Y0059220D01*
X0062770Y0060200D02*
X0048880Y0060200D01*
X0052800Y0048380D02*
X0061200Y0048380D01*
X0061200Y0047400D02*
X0052800Y0047400D01*
X0052800Y0046410D02*
X0061200Y0046410D01*
X0061200Y0045430D02*
X0052800Y0045430D01*
X0052800Y0044440D02*
X0061200Y0044440D01*
X0061200Y0043460D02*
X0052800Y0043460D01*
X0052800Y0042470D02*
X0061200Y0042470D01*
X0061200Y0041490D02*
X0052800Y0041490D01*
X0052800Y0040500D02*
X0061200Y0040500D01*
X0061200Y0039510D02*
X0052800Y0039510D01*
X0051500Y0038530D02*
X0062500Y0038530D01*
X0062500Y0037540D02*
X0051500Y0037540D01*
X0051500Y0036560D02*
X0062500Y0036560D01*
X0062500Y0035570D02*
X0051500Y0035570D01*
X0051500Y0034590D02*
X0062500Y0034590D01*
X0062500Y0033600D02*
X0051500Y0033600D01*
X0051500Y0032620D02*
X0062500Y0032620D01*
X0062500Y0031630D02*
X0051500Y0031630D01*
X0051500Y0030650D02*
X0062500Y0030650D01*
X0062500Y0029660D02*
X0051500Y0029660D01*
X0051500Y0028680D02*
X0062430Y0028680D01*
X0061440Y0027690D02*
X0051500Y0027690D01*
X0051500Y0026710D02*
X0060460Y0026710D01*
X0059470Y0025720D02*
X0051500Y0025720D01*
X0051500Y0024740D02*
X0056240Y0024740D01*
X0054530Y0023750D02*
X0051500Y0023750D01*
X0051500Y0022770D02*
X0053680Y0022770D01*
X0053270Y0021780D02*
X0051730Y0021780D01*
X0051900Y0020800D02*
X0053100Y0020800D01*
X0053100Y0019810D02*
X0051900Y0019810D01*
X0051570Y0018830D02*
X0053430Y0018830D01*
X0053930Y0017840D02*
X0051070Y0017840D01*
X0050080Y0016860D02*
X0054920Y0016860D01*
X0060080Y0016860D02*
X0079420Y0016860D01*
X0079420Y0017840D02*
X0061070Y0017840D01*
X0061570Y0018830D02*
X0079420Y0018830D01*
X0079420Y0019810D02*
X0061900Y0019810D01*
X0061900Y0020800D02*
X0071170Y0020800D01*
X0070730Y0021240D02*
X0071650Y0020320D01*
X0072850Y0019820D01*
X0074150Y0019820D01*
X0075350Y0020320D01*
X0076270Y0021240D01*
X0076770Y0022440D01*
X0076770Y0023750D01*
X0076270Y0024950D01*
X0075350Y0025870D01*
X0074150Y0026370D01*
X0072850Y0026370D01*
X0071650Y0025870D01*
X0070730Y0024950D01*
X0070230Y0023750D01*
X0070230Y0022440D01*
X0070730Y0021240D01*
X0070500Y0021780D02*
X0062040Y0021780D01*
X0063020Y0022770D02*
X0070230Y0022770D01*
X0070230Y0023750D02*
X0064010Y0023750D01*
X0064990Y0024740D02*
X0070640Y0024740D01*
X0071500Y0025720D02*
X0065980Y0025720D01*
X0066960Y0026710D02*
X0079420Y0026710D01*
X0079420Y0027690D02*
X0067100Y0027690D01*
X0067100Y0028680D02*
X0079420Y0028680D01*
X0079420Y0029660D02*
X0067100Y0029660D01*
X0067100Y0030650D02*
X0079420Y0030650D01*
X0079420Y0031630D02*
X0074150Y0031630D01*
X0075350Y0032130D01*
X0076270Y0033050D01*
X0076770Y0034250D01*
X0076770Y0035560D01*
X0076270Y0036760D01*
X0075350Y0037680D01*
X0074150Y0038180D01*
X0072850Y0038180D01*
X0071650Y0037680D01*
X0070730Y0036760D01*
X0070230Y0035560D01*
X0070230Y0034250D01*
X0070730Y0033050D01*
X0071650Y0032130D01*
X0072850Y0031630D01*
X0074150Y0031630D01*
X0072850Y0031630D02*
X0067100Y0031630D01*
X0067100Y0032620D02*
X0071160Y0032620D01*
X0070500Y0033600D02*
X0067100Y0033600D01*
X0067100Y0034590D02*
X0070230Y0034590D01*
X0070240Y0035570D02*
X0067100Y0035570D01*
X0067100Y0036560D02*
X0070640Y0036560D01*
X0071510Y0037540D02*
X0067100Y0037540D01*
X0067100Y0038530D02*
X0079420Y0038530D01*
X0079420Y0039510D02*
X0068400Y0039510D01*
X0068400Y0040500D02*
X0079420Y0040500D01*
X0079420Y0041490D02*
X0068400Y0041490D01*
X0068400Y0042470D02*
X0079420Y0042470D01*
X0079420Y0043460D02*
X0068400Y0043460D01*
X0068400Y0044440D02*
X0079420Y0044440D01*
X0079420Y0045430D02*
X0068400Y0045430D01*
X0068400Y0046410D02*
X0074380Y0046410D01*
X0072880Y0047400D02*
X0068400Y0047400D01*
X0068400Y0048380D02*
X0072120Y0048380D01*
X0071710Y0049370D02*
X0067190Y0049370D01*
X0067200Y0050350D02*
X0071600Y0050350D01*
X0071600Y0051340D02*
X0067220Y0051340D01*
X0067240Y0052320D02*
X0071990Y0052320D01*
X0072580Y0053310D02*
X0067260Y0053310D01*
X0067270Y0054290D02*
X0073650Y0054290D01*
X0074740Y0056260D02*
X0067310Y0056260D01*
X0067320Y0057250D02*
X0073030Y0057250D01*
X0072180Y0058230D02*
X0067340Y0058230D01*
X0067360Y0059220D02*
X0071770Y0059220D01*
X0071600Y0060200D02*
X0067370Y0060200D01*
X0067390Y0061190D02*
X0071600Y0061190D01*
X0071930Y0062170D02*
X0067410Y0062170D01*
X0067420Y0063160D02*
X0072430Y0063160D01*
X0073420Y0064140D02*
X0067440Y0064140D01*
X0067460Y0065130D02*
X0079420Y0065130D01*
X0079420Y0066110D02*
X0076900Y0066110D01*
X0075100Y0066110D02*
X0067480Y0066110D01*
X0067490Y0067100D02*
X0073180Y0067100D01*
X0072240Y0068080D02*
X0067510Y0068080D01*
X0067530Y0069070D02*
X0071830Y0069070D01*
X0071600Y0070050D02*
X0067540Y0070050D01*
X0067560Y0071040D02*
X0071600Y0071040D01*
X0071870Y0072020D02*
X0067580Y0072020D01*
X0067600Y0073010D02*
X0072280Y0073010D01*
X0073270Y0073990D02*
X0067610Y0073990D01*
X0066670Y0074980D02*
X0079420Y0074980D01*
X0079420Y0075960D02*
X0077560Y0075960D01*
X0076480Y0075960D02*
X0075520Y0075960D01*
X0075520Y0075720D02*
X0075520Y0080020D01*
X0071220Y0080020D01*
X0071320Y0079380D01*
X0071550Y0078660D01*
X0071890Y0077980D01*
X0072340Y0077370D01*
X0072870Y0076840D01*
X0073480Y0076390D01*
X0074160Y0076050D01*
X0074880Y0075820D01*
X0075520Y0075720D01*
X0074440Y0075960D02*
X0066110Y0075960D01*
X0066110Y0076950D02*
X0072770Y0076950D01*
X0071930Y0077930D02*
X0066110Y0077930D01*
X0066110Y0078920D02*
X0071470Y0078920D01*
X0071240Y0079900D02*
X0066110Y0079900D01*
X0066110Y0080890D02*
X0075520Y0080890D01*
X0075520Y0081870D02*
X0076480Y0081870D01*
X0076480Y0082860D02*
X0075520Y0082860D01*
X0075520Y0083840D02*
X0076480Y0083840D01*
X0076480Y0084830D02*
X0075520Y0084830D01*
X0075520Y0079900D02*
X0076480Y0079900D01*
X0076480Y0078920D02*
X0075520Y0078920D01*
X0075520Y0077930D02*
X0076480Y0077930D01*
X0076480Y0076950D02*
X0075520Y0076950D01*
X0078080Y0084830D02*
X0079420Y0084830D01*
X0079230Y0076950D02*
X0079420Y0076950D01*
X0079420Y0073990D02*
X0078730Y0073990D01*
X0078820Y0067100D02*
X0079420Y0067100D01*
X0079420Y0064140D02*
X0078580Y0064140D01*
X0078970Y0057250D02*
X0079420Y0057250D01*
X0079420Y0056260D02*
X0077260Y0056260D01*
X0078350Y0054290D02*
X0079420Y0054290D01*
X0079420Y0053310D02*
X0079420Y0053310D01*
X0079420Y0055280D02*
X0067290Y0055280D01*
X0062790Y0061190D02*
X0028500Y0061190D01*
X0028500Y0062170D02*
X0062810Y0062170D01*
X0062820Y0063160D02*
X0028500Y0063160D01*
X0028500Y0064140D02*
X0062840Y0064140D01*
X0062860Y0065130D02*
X0028500Y0065130D01*
X0028500Y0066110D02*
X0062880Y0066110D01*
X0062890Y0067100D02*
X0028500Y0067100D01*
X0028500Y0068080D02*
X0062910Y0068080D01*
X0062930Y0069070D02*
X0028500Y0069070D01*
X0028500Y0070050D02*
X0062940Y0070050D01*
X0062960Y0071040D02*
X0028500Y0071040D01*
X0028500Y0072020D02*
X0062980Y0072020D01*
X0062120Y0073010D02*
X0028500Y0073010D01*
X0029360Y0073990D02*
X0061140Y0073990D01*
X0060150Y0074980D02*
X0030350Y0074980D01*
X0030040Y0085810D02*
X0032400Y0085810D01*
X0031970Y0086800D02*
X0030630Y0086800D01*
X0030630Y0087780D02*
X0031970Y0087780D01*
X0023900Y0065130D02*
X0017300Y0065130D01*
X0019150Y0064140D02*
X0023900Y0064140D01*
X0023900Y0063160D02*
X0020000Y0063160D01*
X0020500Y0062170D02*
X0023900Y0062170D01*
X0023900Y0061190D02*
X0020750Y0061190D01*
X0012850Y0064140D02*
X0012500Y0064140D01*
X0012500Y0067100D02*
X0013180Y0067100D01*
X0013270Y0073990D02*
X0012500Y0073990D01*
X0012500Y0076950D02*
X0013330Y0076950D01*
X0013120Y0083840D02*
X0012500Y0083840D01*
X0012500Y0086800D02*
X0013480Y0086800D01*
X0012970Y0093690D02*
X0012500Y0093690D01*
X0012500Y0094680D02*
X0014580Y0094680D01*
X0013810Y0096650D02*
X0012500Y0096650D01*
X0012500Y0097630D02*
X0012650Y0097630D01*
X0012500Y0095660D02*
X0044500Y0095660D01*
X0044500Y0094680D02*
X0017420Y0094680D01*
X0012520Y0123240D02*
X0012500Y0123240D01*
X0012500Y0124230D02*
X0013500Y0124230D01*
X0012500Y0125210D02*
X0020040Y0125210D01*
X0020660Y0126200D02*
X0017110Y0126200D01*
X0014890Y0126200D02*
X0012500Y0126200D01*
X0012500Y0127180D02*
X0013100Y0127180D01*
X0013350Y0134080D02*
X0012500Y0134080D01*
X0012500Y0143930D02*
X0013200Y0143930D01*
X0012500Y0144910D02*
X0034500Y0144910D01*
X0034500Y0143930D02*
X0033800Y0143930D01*
X0034500Y0145900D02*
X0012500Y0145900D01*
X0012500Y0146880D02*
X0013400Y0146880D01*
X0025190Y0176430D02*
X0032950Y0176430D01*
X0034150Y0172490D02*
X0037850Y0172490D01*
X0037440Y0171510D02*
X0034560Y0171510D01*
X0034670Y0170520D02*
X0037330Y0170520D01*
X0037420Y0169540D02*
X0034580Y0169540D01*
X0034170Y0168550D02*
X0037830Y0168550D01*
X0038740Y0167570D02*
X0033260Y0167570D01*
X0028780Y0173480D02*
X0026500Y0173480D01*
X0026500Y0172490D02*
X0027850Y0172490D01*
X0027440Y0171510D02*
X0026500Y0171510D01*
X0026500Y0170520D02*
X0027330Y0170520D01*
X0027420Y0169540D02*
X0026500Y0169540D01*
X0026500Y0168550D02*
X0027830Y0168550D01*
X0028890Y0177420D02*
X0024210Y0177420D01*
X0027780Y0182340D02*
X0020000Y0182340D01*
X0019400Y0183330D02*
X0028630Y0183330D01*
X0031130Y0188250D02*
X0019830Y0188250D01*
X0018990Y0187270D02*
X0032110Y0187270D01*
X0032960Y0154760D02*
X0033120Y0154760D01*
X0033600Y0146880D02*
X0034500Y0146880D01*
X0037500Y0143930D02*
X0038200Y0143930D01*
X0034500Y0123240D02*
X0034480Y0123240D01*
X0037500Y0117330D02*
X0037950Y0117330D01*
X0037500Y0116350D02*
X0038930Y0116350D01*
X0044180Y0103540D02*
X0044500Y0103540D01*
X0044350Y0097630D02*
X0044500Y0097630D01*
X0044500Y0096650D02*
X0043370Y0096650D01*
X0058260Y0092710D02*
X0060220Y0092710D01*
X0059970Y0091720D02*
X0058630Y0091720D01*
X0058630Y0090740D02*
X0059970Y0090740D01*
X0059970Y0089750D02*
X0058630Y0089750D01*
X0058630Y0088770D02*
X0063330Y0088770D01*
X0063330Y0089750D02*
X0064330Y0089750D01*
X0064330Y0089620D02*
X0064330Y0093370D01*
X0066390Y0093370D01*
X0066770Y0093270D01*
X0067110Y0093070D01*
X0067390Y0092800D01*
X0067590Y0092450D01*
X0067690Y0092070D01*
X0067690Y0089620D01*
X0064330Y0089620D01*
X0064330Y0088770D02*
X0071960Y0088770D01*
X0071600Y0089750D02*
X0067690Y0089750D01*
X0067690Y0090740D02*
X0071600Y0090740D01*
X0071740Y0091720D02*
X0067690Y0091720D01*
X0067450Y0092710D02*
X0072150Y0092710D01*
X0072310Y0093690D02*
X0072970Y0093690D01*
X0072500Y0087780D02*
X0067690Y0087780D01*
X0066110Y0081870D02*
X0071400Y0081870D01*
X0064330Y0085810D02*
X0063330Y0085810D01*
X0063330Y0086800D02*
X0064330Y0086800D01*
X0064330Y0087780D02*
X0063330Y0087780D01*
X0063330Y0090740D02*
X0064330Y0090740D01*
X0064330Y0091720D02*
X0063330Y0091720D01*
X0063330Y0092710D02*
X0064330Y0092710D01*
X0059970Y0087780D02*
X0058630Y0087780D01*
X0058630Y0086800D02*
X0059970Y0086800D01*
X0060060Y0085810D02*
X0058540Y0085810D01*
X0077620Y0046410D02*
X0079420Y0046410D01*
X0079420Y0047400D02*
X0079120Y0047400D01*
X0079420Y0037540D02*
X0075490Y0037540D01*
X0076360Y0036560D02*
X0079420Y0036560D01*
X0079420Y0035570D02*
X0076760Y0035570D01*
X0076770Y0034590D02*
X0079420Y0034590D01*
X0079420Y0033600D02*
X0076500Y0033600D01*
X0075840Y0032620D02*
X0079420Y0032620D01*
X0079420Y0025720D02*
X0075500Y0025720D01*
X0076360Y0024740D02*
X0079420Y0024740D01*
X0079420Y0023750D02*
X0076770Y0023750D01*
X0076770Y0022770D02*
X0079420Y0022770D01*
X0079420Y0021780D02*
X0076500Y0021780D01*
X0075830Y0020800D02*
X0079420Y0020800D01*
X0079420Y0015870D02*
X0012500Y0015870D01*
X0012500Y0014890D02*
X0079420Y0014890D01*
X0079420Y0013900D02*
X0012500Y0013900D01*
X0012500Y0012920D02*
X0079420Y0012920D01*
X0057410Y0147870D02*
X0054590Y0147870D01*
X0055400Y0148850D02*
X0056600Y0148850D01*
X0056600Y0149840D02*
X0055400Y0149840D01*
X0055400Y0150820D02*
X0056600Y0150820D01*
X0056600Y0151810D02*
X0055400Y0151810D01*
X0054930Y0152790D02*
X0057070Y0152790D01*
X0058050Y0153780D02*
X0053950Y0153780D01*
X0052960Y0154760D02*
X0059040Y0154760D01*
X0057040Y0166580D02*
X0073970Y0166580D01*
X0072710Y0167570D02*
X0063260Y0167570D01*
X0064170Y0168550D02*
X0072050Y0168550D01*
X0071640Y0169540D02*
X0064580Y0169540D01*
X0064670Y0170520D02*
X0071600Y0170520D01*
X0071650Y0171510D02*
X0064560Y0171510D01*
X0064150Y0172490D02*
X0072060Y0172490D01*
X0072750Y0173480D02*
X0063220Y0173480D01*
X0063790Y0176430D02*
X0074330Y0176430D01*
X0074060Y0174460D02*
X0059160Y0174460D01*
X0060710Y0177420D02*
X0061290Y0177420D01*
X0061290Y0178400D02*
X0060710Y0178400D01*
X0060710Y0179390D02*
X0061290Y0179390D01*
X0061290Y0181360D02*
X0060710Y0181360D01*
X0060710Y0182340D02*
X0061290Y0182340D01*
X0061290Y0183330D02*
X0060710Y0183330D01*
X0060710Y0184310D02*
X0061290Y0184310D01*
X0065070Y0179390D02*
X0071700Y0179390D01*
X0072110Y0178400D02*
X0065070Y0178400D01*
X0064990Y0177420D02*
X0072860Y0177420D01*
X0073010Y0187270D02*
X0048390Y0187270D01*
X0049370Y0188250D02*
X0072170Y0188250D01*
X0013010Y0187270D02*
X0012500Y0187270D01*
X0012500Y0027690D02*
X0013080Y0027690D01*
X0012500Y0026710D02*
X0014860Y0026710D01*
D26*
X0022500Y0020500D02*
X0022500Y0020200D01*
X0026200Y0044000D01*
X0026200Y0074090D01*
X0031500Y0079380D01*
X0045000Y0047200D02*
X0045000Y0046000D01*
X0045000Y0047200D02*
X0046000Y0047200D01*
X0049200Y0044000D02*
X0049200Y0022200D01*
X0047500Y0020500D01*
X0047500Y0020200D01*
X0041000Y0042000D02*
X0041000Y0043200D01*
X0041800Y0044000D01*
X0064800Y0027800D02*
X0057500Y0020500D01*
X0058000Y0020200D01*
X0064800Y0027800D02*
X0064800Y0044000D01*
X0065300Y0073090D01*
X0059500Y0078880D01*
D10*
X0053000Y0083500D02*
X0055170Y0085670D01*
X0055170Y0089120D01*
X0051500Y0093500D02*
X0053500Y0095000D01*
X0071500Y0095000D01*
X0076000Y0099500D01*
X0076000Y0100500D01*
X0069500Y0107000D02*
X0069500Y0120500D01*
X0076000Y0120500D01*
X0069500Y0107000D02*
X0067500Y0105000D01*
X0046000Y0105000D01*
X0046000Y0088540D01*
X0048000Y0086040D01*
X0050000Y0083000D02*
X0051500Y0084000D01*
X0051500Y0093500D01*
X0053000Y0083500D02*
X0053000Y0083460D01*
X0048000Y0078960D01*
X0050000Y0083000D02*
X0042500Y0083000D01*
X0042500Y0086040D01*
X0037460Y0084000D02*
X0042500Y0078960D01*
X0037460Y0084000D02*
X0028500Y0084000D01*
X0027170Y0085330D01*
X0027170Y0089620D01*
X0023460Y0102960D02*
X0023000Y0102960D01*
X0021960Y0104000D01*
X0021000Y0104000D01*
X0016000Y0109000D01*
X0016000Y0110500D01*
X0016000Y0120500D02*
X0019040Y0123540D01*
X0023500Y0123540D01*
X0023540Y0123500D01*
X0028500Y0123500D01*
X0031000Y0121000D01*
X0031000Y0120500D01*
X0031000Y0110500D02*
X0023460Y0102960D01*
X0023000Y0110040D02*
X0023500Y0110540D01*
X0023500Y0116460D01*
X0024460Y0115500D01*
X0035500Y0115500D01*
X0036000Y0116000D01*
X0036000Y0156000D01*
X0035500Y0156500D01*
X0036000Y0156500D01*
X0036500Y0156500D01*
X0045500Y0165500D01*
X0045500Y0172000D01*
X0048500Y0175000D01*
X0056500Y0175000D01*
X0061000Y0170500D01*
X0061000Y0160500D02*
X0076000Y0160500D01*
X0076000Y0190500D02*
X0049500Y0190500D01*
X0045500Y0186500D01*
X0045500Y0176500D01*
X0045000Y0176000D01*
X0035500Y0176000D01*
X0031000Y0180500D01*
X0031000Y0190500D02*
X0016000Y0190500D01*
X0016000Y0180500D02*
X0019000Y0180500D01*
X0025000Y0174500D01*
X0025000Y0167000D01*
X0035500Y0156500D01*
X0041000Y0180500D02*
X0031000Y0190500D01*
X0051000Y0170500D02*
X0061000Y0160500D01*
D22*
X0036000Y0156500D03*
X0046000Y0058000D03*
D31*
X0046000Y0047200D01*
X0049200Y0044000D01*
X0045000Y0046000D02*
X0041000Y0042000D01*
X0047500Y0020500D02*
X0032500Y0020500D01*
X0097170Y0011000D02*
G75*
%LPD*%
D39*
X0097170Y0011000D02*
X0097170Y0199200D01*
X0167090Y0199200D01*
X0167090Y0011000D01*
X0097170Y0011000D01*
X0157900Y0023090D02*
X0157920Y0023350D01*
X0157980Y0023610D01*
X0158080Y0023860D01*
X0158210Y0024090D01*
X0158370Y0024290D01*
X0158570Y0024470D01*
X0158790Y0024620D01*
X0159020Y0024740D01*
X0159280Y0024820D01*
X0159540Y0024860D01*
X0159800Y0024860D01*
X0160060Y0024820D01*
X0160320Y0024740D01*
X0160560Y0024620D01*
X0160770Y0024470D01*
X0160970Y0024290D01*
X0161130Y0024090D01*
X0161260Y0023860D01*
X0161360Y0023610D01*
X0161420Y0023350D01*
X0161440Y0023090D01*
X0161420Y0022830D01*
X0161360Y0022570D01*
X0161260Y0022320D01*
X0161130Y0022090D01*
X0160970Y0021890D01*
X0160770Y0021710D01*
X0160550Y0021560D01*
X0160320Y0021440D01*
X0160060Y0021360D01*
X0159800Y0021320D01*
X0159540Y0021320D01*
X0159280Y0021360D01*
X0159020Y0021440D01*
X0158780Y0021560D01*
X0158570Y0021710D01*
X0158370Y0021890D01*
X0158210Y0022090D01*
X0158080Y0022320D01*
X0157980Y0022570D01*
X0157920Y0022830D01*
X0157900Y0023090D01*
X0157900Y0034910D02*
X0157920Y0035170D01*
X0157980Y0035430D01*
X0158080Y0035680D01*
X0158210Y0035910D01*
X0158370Y0036110D01*
X0158570Y0036290D01*
X0158790Y0036440D01*
X0159020Y0036560D01*
X0159280Y0036640D01*
X0159540Y0036680D01*
X0159800Y0036680D01*
X0160060Y0036640D01*
X0160320Y0036560D01*
X0160560Y0036440D01*
X0160770Y0036290D01*
X0160970Y0036110D01*
X0161130Y0035910D01*
X0161260Y0035680D01*
X0161360Y0035430D01*
X0161420Y0035170D01*
X0161440Y0034910D01*
X0161420Y0034650D01*
X0161360Y0034390D01*
X0161260Y0034140D01*
X0161130Y0033910D01*
X0160970Y0033710D01*
X0160770Y0033530D01*
X0160550Y0033380D01*
X0160320Y0033260D01*
X0160060Y0033180D01*
X0159800Y0033140D01*
X0159540Y0033140D01*
X0159280Y0033180D01*
X0159020Y0033260D01*
X0158780Y0033380D01*
X0158570Y0033530D01*
X0158370Y0033710D01*
X0158210Y0033910D01*
X0158080Y0034140D01*
X0157980Y0034390D01*
X0157920Y0034650D01*
X0157900Y0034910D01*
D27*
X0147170Y0170500D03*
X0137170Y0170500D03*
X0137170Y0180500D03*
X0127170Y0180500D03*
X0127170Y0170500D03*
X0117170Y0170500D03*
X0117170Y0180500D03*
D41*
X0147170Y0180500D03*
D42*
X0145670Y0078880D03*
X0117670Y0079380D03*
D15*
X0113340Y0089620D03*
X0122000Y0089620D03*
X0141340Y0089120D03*
X0150000Y0089120D03*
D36*
X0150970Y0044000D03*
X0135370Y0044000D03*
X0127970Y0044000D03*
X0112370Y0044000D03*
D38*
X0102170Y0041000D03*
X0102170Y0050500D03*
X0102170Y0060500D03*
X0102170Y0070500D03*
X0102170Y0080500D03*
X0102170Y0090500D03*
X0102170Y0100500D03*
X0102170Y0110500D03*
X0102170Y0120500D03*
X0102170Y0130500D03*
X0102170Y0140500D03*
X0102170Y0150500D03*
X0102170Y0160500D03*
X0102170Y0170500D03*
X0102170Y0180500D03*
X0102170Y0190500D03*
X0162170Y0190500D03*
X0162170Y0180500D03*
X0162170Y0170500D03*
X0162170Y0160500D03*
X0162170Y0150500D03*
X0162170Y0140500D03*
X0162170Y0130500D03*
X0162170Y0120500D03*
X0162170Y0110500D03*
X0162170Y0100500D03*
X0162170Y0090500D03*
X0162170Y0080500D03*
X0162170Y0070500D03*
X0162170Y0060500D03*
X0162170Y0050500D03*
X0143670Y0020500D03*
X0133670Y0020500D03*
X0118670Y0020500D03*
X0108670Y0020500D03*
X0102170Y0031000D03*
D40*
X0128670Y0078960D03*
X0128670Y0086040D03*
X0134170Y0086040D03*
X0134170Y0078960D03*
X0109670Y0116460D03*
X0109170Y0110040D03*
X0109170Y0102960D03*
X0109670Y0123540D03*
D33*
X0117170Y0120500D03*
X0117170Y0110500D03*
X0117170Y0100500D03*
X0127170Y0100500D03*
X0127170Y0110500D03*
X0127170Y0120500D03*
X0127170Y0130500D03*
X0127170Y0140500D03*
X0127170Y0150500D03*
X0117170Y0150500D03*
X0117170Y0140500D03*
X0117170Y0130500D03*
X0137170Y0130500D03*
X0137170Y0120500D03*
X0137170Y0110500D03*
X0137170Y0100500D03*
X0147170Y0100500D03*
X0147170Y0110500D03*
X0147170Y0120500D03*
X0147170Y0130500D03*
X0147170Y0140500D03*
X0147170Y0150500D03*
X0137170Y0150500D03*
X0137170Y0140500D03*
D17*
X0138990Y0144900D02*
X0135350Y0144900D01*
X0132770Y0142320D01*
X0132770Y0138680D01*
X0135350Y0136100D01*
X0138990Y0136100D01*
X0141570Y0138680D01*
X0141570Y0142320D01*
X0138990Y0144900D01*
X0138990Y0146100D02*
X0141570Y0148680D01*
X0141570Y0152320D01*
X0138990Y0154900D01*
X0135350Y0154900D01*
X0132770Y0152320D01*
X0132770Y0148680D01*
X0135350Y0146100D01*
X0138990Y0146100D01*
X0139770Y0146880D02*
X0144570Y0146880D01*
X0145350Y0146100D02*
X0148990Y0146100D01*
X0151570Y0148680D01*
X0151570Y0152320D01*
X0148990Y0154900D01*
X0145350Y0154900D01*
X0142770Y0152320D01*
X0142770Y0148680D01*
X0145350Y0146100D01*
X0145350Y0144900D02*
X0142770Y0142320D01*
X0142770Y0138680D01*
X0145350Y0136100D01*
X0148990Y0136100D01*
X0151570Y0138680D01*
X0151570Y0142320D01*
X0148990Y0144900D01*
X0145350Y0144900D01*
X0144370Y0143930D02*
X0139970Y0143930D01*
X0140950Y0142940D02*
X0143390Y0142940D01*
X0142770Y0141960D02*
X0141570Y0141960D01*
X0141570Y0140970D02*
X0142770Y0140970D01*
X0142770Y0139990D02*
X0141570Y0139990D01*
X0141570Y0139000D02*
X0142770Y0139000D01*
X0143430Y0138020D02*
X0140910Y0138020D01*
X0139920Y0137030D02*
X0144420Y0137030D01*
X0145350Y0134900D02*
X0142770Y0132320D01*
X0142770Y0128680D01*
X0145350Y0126100D01*
X0148990Y0126100D01*
X0151570Y0128680D01*
X0151570Y0132320D01*
X0148990Y0134900D01*
X0145350Y0134900D01*
X0144520Y0134080D02*
X0139820Y0134080D01*
X0138990Y0134900D02*
X0135350Y0134900D01*
X0132770Y0132320D01*
X0132770Y0128680D01*
X0135350Y0126100D01*
X0138990Y0126100D01*
X0141570Y0128680D01*
X0141570Y0132320D01*
X0138990Y0134900D01*
X0140800Y0133090D02*
X0143540Y0133090D01*
X0142770Y0132110D02*
X0141570Y0132110D01*
X0141570Y0131120D02*
X0142770Y0131120D01*
X0142770Y0130140D02*
X0141570Y0130140D01*
X0141570Y0129150D02*
X0142770Y0129150D01*
X0143280Y0128170D02*
X0141060Y0128170D01*
X0140070Y0127180D02*
X0144270Y0127180D01*
X0145250Y0126200D02*
X0139090Y0126200D01*
X0138990Y0124900D02*
X0135350Y0124900D01*
X0132770Y0122320D01*
X0132770Y0118680D01*
X0135350Y0116100D01*
X0138990Y0116100D01*
X0141570Y0118680D01*
X0141570Y0122320D01*
X0138990Y0124900D01*
X0139670Y0124230D02*
X0144670Y0124230D01*
X0145350Y0124900D02*
X0142770Y0122320D01*
X0142770Y0118680D01*
X0145350Y0116100D01*
X0148990Y0116100D01*
X0151570Y0118680D01*
X0151570Y0122320D01*
X0148990Y0124900D01*
X0145350Y0124900D01*
X0143690Y0123240D02*
X0140650Y0123240D01*
X0141570Y0122260D02*
X0142770Y0122260D01*
X0142770Y0121270D02*
X0141570Y0121270D01*
X0141570Y0120290D02*
X0142770Y0120290D01*
X0142770Y0119300D02*
X0141570Y0119300D01*
X0141210Y0118320D02*
X0143130Y0118320D01*
X0144120Y0117330D02*
X0140220Y0117330D01*
X0139240Y0116350D02*
X0145100Y0116350D01*
X0145350Y0114900D02*
X0142770Y0112320D01*
X0142770Y0108680D01*
X0144950Y0106500D01*
X0139390Y0106500D01*
X0141570Y0108680D01*
X0141570Y0112320D01*
X0138990Y0114900D01*
X0135350Y0114900D01*
X0132770Y0112320D01*
X0132770Y0108680D01*
X0134950Y0106500D01*
X0131550Y0106500D01*
X0130670Y0105620D01*
X0130670Y0103220D01*
X0128990Y0104900D01*
X0125350Y0104900D01*
X0122770Y0102320D01*
X0122770Y0098680D01*
X0125350Y0096100D01*
X0128990Y0096100D01*
X0130670Y0097780D01*
X0130670Y0088720D01*
X0125860Y0088720D01*
X0125860Y0089120D01*
X0122500Y0089120D01*
X0122500Y0090120D01*
X0121500Y0090120D01*
X0121500Y0093870D01*
X0119440Y0093870D01*
X0119060Y0093770D01*
X0118720Y0093570D01*
X0118440Y0093300D01*
X0118240Y0092950D01*
X0118140Y0092570D01*
X0118140Y0090120D01*
X0121500Y0090120D01*
X0121500Y0089120D01*
X0118140Y0089120D01*
X0118140Y0086660D01*
X0118240Y0086280D01*
X0118440Y0085940D01*
X0118720Y0085660D01*
X0119000Y0085500D01*
X0115290Y0085500D01*
X0115030Y0085760D01*
X0116160Y0085760D01*
X0116800Y0086410D01*
X0116800Y0092830D01*
X0116160Y0093470D01*
X0110520Y0093470D01*
X0109880Y0092830D01*
X0109880Y0086410D01*
X0110520Y0085760D01*
X0111840Y0085760D01*
X0111840Y0084710D01*
X0112720Y0083830D01*
X0113310Y0083240D01*
X0111700Y0083240D01*
X0111060Y0082590D01*
X0111060Y0076170D01*
X0111130Y0076100D01*
X0110070Y0075040D01*
X0110070Y0049230D01*
X0109420Y0049230D01*
X0108770Y0048590D01*
X0108770Y0039410D01*
X0109260Y0038930D01*
X0107020Y0024580D01*
X0106180Y0024230D01*
X0104940Y0022990D01*
X0104270Y0021380D01*
X0104270Y0019620D01*
X0104940Y0018010D01*
X0106180Y0016770D01*
X0107790Y0016100D01*
X0109550Y0016100D01*
X0111160Y0016770D01*
X0112400Y0018010D01*
X0113070Y0019620D01*
X0113070Y0021380D01*
X0112400Y0022990D01*
X0111560Y0023830D01*
X0113890Y0038770D01*
X0115330Y0038770D01*
X0115970Y0039410D01*
X0115970Y0048590D01*
X0115330Y0049230D01*
X0114670Y0049230D01*
X0114670Y0073130D01*
X0117070Y0075530D01*
X0123640Y0075530D01*
X0124280Y0076170D01*
X0124280Y0081220D01*
X0125210Y0080300D01*
X0125210Y0076930D01*
X0125850Y0076280D01*
X0136990Y0076280D01*
X0137630Y0076930D01*
X0137630Y0080050D01*
X0139060Y0081340D01*
X0139060Y0075670D01*
X0139700Y0075030D01*
X0146270Y0075030D01*
X0149150Y0072150D01*
X0148750Y0049230D01*
X0148010Y0049230D01*
X0147370Y0048590D01*
X0147370Y0039410D01*
X0148010Y0038770D01*
X0148670Y0038770D01*
X0148670Y0028750D01*
X0144740Y0024820D01*
X0144550Y0024900D01*
X0142790Y0024900D01*
X0141180Y0024230D01*
X0139940Y0022990D01*
X0139270Y0021380D01*
X0139270Y0019620D01*
X0139940Y0018010D01*
X0141180Y0016770D01*
X0142790Y0016100D01*
X0144550Y0016100D01*
X0146160Y0016770D01*
X0147400Y0018010D01*
X0148070Y0019620D01*
X0148070Y0021380D01*
X0147990Y0021570D01*
X0153270Y0026840D01*
X0153270Y0038770D01*
X0153920Y0038770D01*
X0154570Y0039410D01*
X0154570Y0048590D01*
X0153920Y0049230D01*
X0153360Y0049230D01*
X0153750Y0072120D01*
X0153770Y0072130D01*
X0153770Y0073070D01*
X0153780Y0074000D01*
X0153770Y0074020D01*
X0153770Y0074040D01*
X0153110Y0074700D01*
X0152460Y0075370D01*
X0152430Y0075370D01*
X0152210Y0075600D01*
X0152280Y0075670D01*
X0152280Y0082090D01*
X0151640Y0082740D01*
X0140610Y0082740D01*
X0140640Y0082760D01*
X0140640Y0082800D01*
X0140670Y0082840D01*
X0140670Y0082880D01*
X0141960Y0084170D01*
X0142840Y0085050D01*
X0142840Y0085260D01*
X0144160Y0085260D01*
X0144800Y0085910D01*
X0144800Y0092330D01*
X0144160Y0092970D01*
X0139470Y0092970D01*
X0140170Y0093500D01*
X0158290Y0093500D01*
X0161010Y0096220D01*
X0161290Y0096100D01*
X0163050Y0096100D01*
X0164660Y0096770D01*
X0165590Y0097700D01*
X0165590Y0093300D01*
X0164660Y0094230D01*
X0163050Y0094900D01*
X0161290Y0094900D01*
X0159680Y0094230D01*
X0158440Y0092990D01*
X0157770Y0091380D01*
X0157770Y0089620D01*
X0158440Y0088010D01*
X0159680Y0086770D01*
X0161290Y0086100D01*
X0163050Y0086100D01*
X0164660Y0086770D01*
X0165590Y0087700D01*
X0165590Y0083870D01*
X0165300Y0084160D01*
X0164690Y0084610D01*
X0164010Y0084950D01*
X0163290Y0085180D01*
X0162650Y0085280D01*
X0162650Y0080980D01*
X0161690Y0080980D01*
X0161690Y0080020D01*
X0162650Y0080020D01*
X0162650Y0075720D01*
X0163290Y0075820D01*
X0164010Y0076050D01*
X0164690Y0076390D01*
X0165300Y0076840D01*
X0165590Y0077130D01*
X0165590Y0073300D01*
X0164660Y0074230D01*
X0163050Y0074900D01*
X0161290Y0074900D01*
X0159680Y0074230D01*
X0158440Y0072990D01*
X0157770Y0071380D01*
X0157770Y0069620D01*
X0158440Y0068010D01*
X0159680Y0066770D01*
X0161290Y0066100D01*
X0163050Y0066100D01*
X0164660Y0066770D01*
X0165590Y0067700D01*
X0165590Y0063300D01*
X0164660Y0064230D01*
X0163050Y0064900D01*
X0161290Y0064900D01*
X0159680Y0064230D01*
X0158440Y0062990D01*
X0157770Y0061380D01*
X0157770Y0059620D01*
X0158440Y0058010D01*
X0159680Y0056770D01*
X0161290Y0056100D01*
X0163050Y0056100D01*
X0164660Y0056770D01*
X0165590Y0057700D01*
X0165590Y0053300D01*
X0164660Y0054230D01*
X0163050Y0054900D01*
X0161290Y0054900D01*
X0159680Y0054230D01*
X0158440Y0052990D01*
X0157770Y0051380D01*
X0157770Y0049620D01*
X0158440Y0048010D01*
X0159680Y0046770D01*
X0161290Y0046100D01*
X0163050Y0046100D01*
X0164660Y0046770D01*
X0165590Y0047700D01*
X0165590Y0012500D01*
X0098670Y0012500D01*
X0098670Y0028280D01*
X0099680Y0027270D01*
X0101290Y0026600D01*
X0103050Y0026600D01*
X0104660Y0027270D01*
X0105900Y0028510D01*
X0106570Y0030120D01*
X0106570Y0031880D01*
X0105900Y0033490D01*
X0104660Y0034730D01*
X0103050Y0035400D01*
X0101290Y0035400D01*
X0099680Y0034730D01*
X0098670Y0033720D01*
X0098670Y0037710D01*
X0099040Y0037340D01*
X0099650Y0036890D01*
X0100330Y0036550D01*
X0101050Y0036320D01*
X0101690Y0036220D01*
X0101690Y0040520D01*
X0102650Y0040520D01*
X0102650Y0041480D01*
X0101690Y0041480D01*
X0101690Y0045780D01*
X0101050Y0045680D01*
X0100330Y0045450D01*
X0099650Y0045110D01*
X0099040Y0044660D01*
X0098670Y0044290D01*
X0098670Y0047780D01*
X0099680Y0046770D01*
X0101290Y0046100D01*
X0103050Y0046100D01*
X0104660Y0046770D01*
X0105900Y0048010D01*
X0106570Y0049620D01*
X0106570Y0051380D01*
X0105900Y0052990D01*
X0104660Y0054230D01*
X0103050Y0054900D01*
X0101290Y0054900D01*
X0099680Y0054230D01*
X0098670Y0053220D01*
X0098670Y0057210D01*
X0099040Y0056840D01*
X0099650Y0056390D01*
X0100330Y0056050D01*
X0101050Y0055820D01*
X0101690Y0055720D01*
X0101690Y0060020D01*
X0102650Y0060020D01*
X0102650Y0060980D01*
X0101690Y0060980D01*
X0101690Y0065280D01*
X0101050Y0065180D01*
X0100330Y0064950D01*
X0099650Y0064610D01*
X0099040Y0064160D01*
X0098670Y0063790D01*
X0098670Y0067780D01*
X0099680Y0066770D01*
X0101290Y0066100D01*
X0103050Y0066100D01*
X0104660Y0066770D01*
X0105900Y0068010D01*
X0106570Y0069620D01*
X0106570Y0071380D01*
X0105900Y0072990D01*
X0104660Y0074230D01*
X0103050Y0074900D01*
X0101290Y0074900D01*
X0099680Y0074230D01*
X0098670Y0073220D01*
X0098670Y0077780D01*
X0099680Y0076770D01*
X0101290Y0076100D01*
X0103050Y0076100D01*
X0104660Y0076770D01*
X0105900Y0078010D01*
X0106570Y0079620D01*
X0106570Y0081380D01*
X0105900Y0082990D01*
X0104660Y0084230D01*
X0103050Y0084900D01*
X0101290Y0084900D01*
X0099680Y0084230D01*
X0098670Y0083220D01*
X0098670Y0087780D01*
X0099680Y0086770D01*
X0101290Y0086100D01*
X0103050Y0086100D01*
X0104660Y0086770D01*
X0105900Y0088010D01*
X0106570Y0089620D01*
X0106570Y0091380D01*
X0105900Y0092990D01*
X0104660Y0094230D01*
X0103050Y0094900D01*
X0101290Y0094900D01*
X0099680Y0094230D01*
X0098670Y0093220D01*
X0098670Y0097780D01*
X0099680Y0096770D01*
X0101290Y0096100D01*
X0103050Y0096100D01*
X0104660Y0096770D01*
X0105900Y0098010D01*
X0106570Y0099620D01*
X0106570Y0100280D01*
X0111990Y0100280D01*
X0112630Y0100930D01*
X0112630Y0103840D01*
X0115120Y0106330D01*
X0115350Y0106100D01*
X0118990Y0106100D01*
X0121570Y0108680D01*
X0121570Y0112320D01*
X0119890Y0114000D01*
X0122290Y0114000D01*
X0122790Y0114500D01*
X0123670Y0115380D01*
X0123670Y0117780D01*
X0125350Y0116100D01*
X0128990Y0116100D01*
X0131570Y0118680D01*
X0131570Y0122320D01*
X0128990Y0124900D01*
X0125350Y0124900D01*
X0123670Y0123220D01*
X0123670Y0127780D01*
X0125350Y0126100D01*
X0128990Y0126100D01*
X0131570Y0128680D01*
X0131570Y0132320D01*
X0128990Y0134900D01*
X0125350Y0134900D01*
X0123670Y0133220D01*
X0123670Y0137780D01*
X0125350Y0136100D01*
X0128990Y0136100D01*
X0131570Y0138680D01*
X0131570Y0142320D01*
X0128990Y0144900D01*
X0125350Y0144900D01*
X0123670Y0143220D01*
X0123670Y0147780D01*
X0125350Y0146100D01*
X0128990Y0146100D01*
X0131570Y0148680D01*
X0131570Y0152320D01*
X0128990Y0154900D01*
X0125350Y0154900D01*
X0125050Y0154600D01*
X0125050Y0156760D01*
X0133170Y0164880D01*
X0133170Y0171380D01*
X0133830Y0172040D01*
X0133500Y0171230D01*
X0133500Y0169770D01*
X0134050Y0168420D01*
X0135090Y0167380D01*
X0136440Y0166830D01*
X0137900Y0166830D01*
X0138480Y0167070D01*
X0145670Y0159880D01*
X0146550Y0159000D01*
X0158030Y0159000D01*
X0158440Y0158010D01*
X0159680Y0156770D01*
X0161290Y0156100D01*
X0163050Y0156100D01*
X0164660Y0156770D01*
X0165590Y0157700D01*
X0165590Y0153300D01*
X0164660Y0154230D01*
X0163050Y0154900D01*
X0161290Y0154900D01*
X0159680Y0154230D01*
X0158440Y0152990D01*
X0157770Y0151380D01*
X0157770Y0149620D01*
X0158440Y0148010D01*
X0159680Y0146770D01*
X0161290Y0146100D01*
X0163050Y0146100D01*
X0164660Y0146770D01*
X0165590Y0147700D01*
X0165590Y0143300D01*
X0164660Y0144230D01*
X0163050Y0144900D01*
X0161290Y0144900D01*
X0159680Y0144230D01*
X0158440Y0142990D01*
X0157770Y0141380D01*
X0157770Y0139620D01*
X0158440Y0138010D01*
X0159680Y0136770D01*
X0161290Y0136100D01*
X0163050Y0136100D01*
X0164660Y0136770D01*
X0165590Y0137700D01*
X0165590Y0133300D01*
X0164660Y0134230D01*
X0163050Y0134900D01*
X0161290Y0134900D01*
X0159680Y0134230D01*
X0158440Y0132990D01*
X0157770Y0131380D01*
X0157770Y0129620D01*
X0158440Y0128010D01*
X0159680Y0126770D01*
X0161290Y0126100D01*
X0163050Y0126100D01*
X0164660Y0126770D01*
X0165590Y0127700D01*
X0165590Y0123300D01*
X0164660Y0124230D01*
X0163050Y0124900D01*
X0161290Y0124900D01*
X0159680Y0124230D01*
X0158440Y0122990D01*
X0158030Y0122000D01*
X0155050Y0122000D01*
X0154170Y0121120D01*
X0154170Y0107620D01*
X0153050Y0106500D01*
X0149390Y0106500D01*
X0151570Y0108680D01*
X0151570Y0112320D01*
X0148990Y0114900D01*
X0145350Y0114900D01*
X0144820Y0114380D02*
X0139520Y0114380D01*
X0140500Y0113390D02*
X0143840Y0113390D01*
X0142850Y0112410D02*
X0141490Y0112410D01*
X0141570Y0111420D02*
X0142770Y0111420D01*
X0142770Y0110440D02*
X0141570Y0110440D01*
X0141570Y0109450D02*
X0142770Y0109450D01*
X0142980Y0108470D02*
X0141360Y0108470D01*
X0140370Y0107480D02*
X0143970Y0107480D01*
X0149240Y0116350D02*
X0154170Y0116350D01*
X0154170Y0117330D02*
X0150220Y0117330D01*
X0151210Y0118320D02*
X0154170Y0118320D01*
X0154170Y0119300D02*
X0151570Y0119300D01*
X0151570Y0120290D02*
X0154170Y0120290D01*
X0154320Y0121270D02*
X0151570Y0121270D01*
X0151570Y0122260D02*
X0158130Y0122260D01*
X0158690Y0123240D02*
X0150650Y0123240D01*
X0149670Y0124230D02*
X0159670Y0124230D01*
X0161060Y0126200D02*
X0149090Y0126200D01*
X0150070Y0127180D02*
X0159270Y0127180D01*
X0158370Y0128170D02*
X0151060Y0128170D01*
X0151570Y0129150D02*
X0157970Y0129150D01*
X0157770Y0130140D02*
X0151570Y0130140D01*
X0151570Y0131120D02*
X0157770Y0131120D01*
X0158070Y0132110D02*
X0151570Y0132110D01*
X0150800Y0133090D02*
X0158540Y0133090D01*
X0159520Y0134080D02*
X0149820Y0134080D01*
X0149920Y0137030D02*
X0159420Y0137030D01*
X0158440Y0138020D02*
X0150910Y0138020D01*
X0151570Y0139000D02*
X0158030Y0139000D01*
X0157770Y0139990D02*
X0151570Y0139990D01*
X0151570Y0140970D02*
X0157770Y0140970D01*
X0158010Y0141960D02*
X0151570Y0141960D01*
X0150950Y0142940D02*
X0158420Y0142940D01*
X0159370Y0143930D02*
X0149970Y0143930D01*
X0149770Y0146880D02*
X0159570Y0146880D01*
X0158580Y0147870D02*
X0150760Y0147870D01*
X0151570Y0148850D02*
X0158090Y0148850D01*
X0157770Y0149840D02*
X0151570Y0149840D01*
X0151570Y0150820D02*
X0157770Y0150820D01*
X0157950Y0151810D02*
X0151570Y0151810D01*
X0151100Y0152790D02*
X0158360Y0152790D01*
X0159220Y0153780D02*
X0150120Y0153780D01*
X0149130Y0154760D02*
X0160960Y0154760D01*
X0159770Y0156730D02*
X0125050Y0156730D01*
X0125050Y0155750D02*
X0165590Y0155750D01*
X0165590Y0156730D02*
X0164570Y0156730D01*
X0165590Y0154760D02*
X0163380Y0154760D01*
X0165120Y0153780D02*
X0165590Y0153780D01*
X0165590Y0146880D02*
X0164770Y0146880D01*
X0165590Y0145900D02*
X0123670Y0145900D01*
X0123670Y0146880D02*
X0124570Y0146880D01*
X0123670Y0144910D02*
X0165590Y0144910D01*
X0165590Y0143930D02*
X0164970Y0143930D01*
X0164920Y0137030D02*
X0165590Y0137030D01*
X0165590Y0136050D02*
X0123670Y0136050D01*
X0123670Y0137030D02*
X0124420Y0137030D01*
X0123670Y0135060D02*
X0165590Y0135060D01*
X0165590Y0134080D02*
X0164820Y0134080D01*
X0165070Y0127180D02*
X0165590Y0127180D01*
X0165590Y0126200D02*
X0163280Y0126200D01*
X0164670Y0124230D02*
X0165590Y0124230D01*
X0165590Y0125210D02*
X0123670Y0125210D01*
X0123670Y0124230D02*
X0124670Y0124230D01*
X0123690Y0123240D02*
X0123670Y0123240D01*
X0123670Y0126200D02*
X0125250Y0126200D01*
X0124270Y0127180D02*
X0123670Y0127180D01*
X0123670Y0134080D02*
X0124520Y0134080D01*
X0120670Y0134080D02*
X0119820Y0134080D01*
X0118990Y0134900D02*
X0115350Y0134900D01*
X0112770Y0132320D01*
X0112770Y0128680D01*
X0115350Y0126100D01*
X0118990Y0126100D01*
X0120670Y0127780D01*
X0120670Y0123220D01*
X0118990Y0124900D01*
X0115390Y0124900D01*
X0115290Y0125000D01*
X0113130Y0125000D01*
X0113130Y0125570D01*
X0112490Y0126220D01*
X0106850Y0126220D01*
X0106210Y0125570D01*
X0106210Y0125040D01*
X0104590Y0125040D01*
X0104040Y0124490D01*
X0103050Y0124900D01*
X0101290Y0124900D01*
X0099680Y0124230D01*
X0098670Y0123220D01*
X0098670Y0127780D01*
X0099680Y0126770D01*
X0101290Y0126100D01*
X0103050Y0126100D01*
X0104660Y0126770D01*
X0105900Y0128010D01*
X0106570Y0129620D01*
X0106570Y0131380D01*
X0105900Y0132990D01*
X0104660Y0134230D01*
X0103050Y0134900D01*
X0101290Y0134900D01*
X0099680Y0134230D01*
X0098670Y0133220D01*
X0098670Y0137780D01*
X0099680Y0136770D01*
X0101290Y0136100D01*
X0103050Y0136100D01*
X0104660Y0136770D01*
X0105900Y0138010D01*
X0106570Y0139620D01*
X0106570Y0141380D01*
X0105900Y0142990D01*
X0104660Y0144230D01*
X0103050Y0144900D01*
X0101290Y0144900D01*
X0099680Y0144230D01*
X0098670Y0143220D01*
X0098670Y0147780D01*
X0099680Y0146770D01*
X0101290Y0146100D01*
X0103050Y0146100D01*
X0104660Y0146770D01*
X0105900Y0148010D01*
X0106570Y0149620D01*
X0106570Y0151380D01*
X0105900Y0152990D01*
X0104660Y0154230D01*
X0103050Y0154900D01*
X0101290Y0154900D01*
X0099680Y0154230D01*
X0098670Y0153220D01*
X0098670Y0157780D01*
X0099680Y0156770D01*
X0101290Y0156100D01*
X0103050Y0156100D01*
X0104660Y0156770D01*
X0105900Y0158010D01*
X0106570Y0159620D01*
X0106570Y0161380D01*
X0105900Y0162990D01*
X0104660Y0164230D01*
X0103050Y0164900D01*
X0101290Y0164900D01*
X0099680Y0164230D01*
X0098670Y0163220D01*
X0098670Y0167210D01*
X0099040Y0166840D01*
X0099650Y0166390D01*
X0100330Y0166050D01*
X0101050Y0165820D01*
X0101690Y0165720D01*
X0101690Y0170020D01*
X0102650Y0170020D01*
X0102650Y0170980D01*
X0101690Y0170980D01*
X0101690Y0175280D01*
X0101050Y0175180D01*
X0100330Y0174950D01*
X0099650Y0174610D01*
X0099040Y0174160D01*
X0098670Y0173790D01*
X0098670Y0177780D01*
X0099680Y0176770D01*
X0101290Y0176100D01*
X0103050Y0176100D01*
X0104660Y0176770D01*
X0105720Y0177830D01*
X0109670Y0173880D01*
X0109670Y0166380D01*
X0110550Y0165500D01*
X0119290Y0156760D01*
X0119290Y0154600D01*
X0118990Y0154900D01*
X0115350Y0154900D01*
X0112770Y0152320D01*
X0112770Y0148680D01*
X0115350Y0146100D01*
X0118990Y0146100D01*
X0120670Y0147780D01*
X0120670Y0143220D01*
X0118990Y0144900D01*
X0115350Y0144900D01*
X0112770Y0142320D01*
X0112770Y0138680D01*
X0115350Y0136100D01*
X0118990Y0136100D01*
X0120670Y0137780D01*
X0120670Y0133220D01*
X0118990Y0134900D01*
X0119920Y0137030D02*
X0120670Y0137030D01*
X0120670Y0136050D02*
X0098670Y0136050D01*
X0098670Y0137030D02*
X0099420Y0137030D01*
X0098670Y0135060D02*
X0120670Y0135060D01*
X0120670Y0127180D02*
X0120070Y0127180D01*
X0120670Y0126200D02*
X0119090Y0126200D01*
X0119670Y0124230D02*
X0120670Y0124230D01*
X0120670Y0125210D02*
X0113130Y0125210D01*
X0112510Y0126200D02*
X0115250Y0126200D01*
X0114270Y0127180D02*
X0105070Y0127180D01*
X0105970Y0128170D02*
X0113280Y0128170D01*
X0112770Y0129150D02*
X0106370Y0129150D01*
X0106570Y0130140D02*
X0112770Y0130140D01*
X0112770Y0131120D02*
X0106570Y0131120D01*
X0106270Y0132110D02*
X0112770Y0132110D01*
X0113540Y0133090D02*
X0105800Y0133090D01*
X0104820Y0134080D02*
X0114520Y0134080D01*
X0114420Y0137030D02*
X0104920Y0137030D01*
X0105900Y0138020D02*
X0113430Y0138020D01*
X0112770Y0139000D02*
X0106310Y0139000D01*
X0106570Y0139990D02*
X0112770Y0139990D01*
X0112770Y0140970D02*
X0106570Y0140970D01*
X0106330Y0141960D02*
X0112770Y0141960D01*
X0113390Y0142940D02*
X0105920Y0142940D01*
X0104970Y0143930D02*
X0114370Y0143930D01*
X0114570Y0146880D02*
X0104770Y0146880D01*
X0105760Y0147870D02*
X0113580Y0147870D01*
X0112770Y0148850D02*
X0106250Y0148850D01*
X0106570Y0149840D02*
X0112770Y0149840D01*
X0112770Y0150820D02*
X0106570Y0150820D01*
X0106390Y0151810D02*
X0112770Y0151810D01*
X0113240Y0152790D02*
X0105980Y0152790D01*
X0105120Y0153780D02*
X0114220Y0153780D01*
X0115210Y0154760D02*
X0103380Y0154760D01*
X0104570Y0156730D02*
X0119290Y0156730D01*
X0119290Y0155750D02*
X0098670Y0155750D01*
X0098670Y0156730D02*
X0099770Y0156730D01*
X0098670Y0154760D02*
X0100960Y0154760D01*
X0099220Y0153780D02*
X0098670Y0153780D01*
X0098670Y0157720D02*
X0098730Y0157720D01*
X0098670Y0163630D02*
X0099070Y0163630D01*
X0098670Y0164610D02*
X0100600Y0164610D01*
X0101690Y0166580D02*
X0102650Y0166580D01*
X0102650Y0165720D02*
X0103290Y0165820D01*
X0104010Y0166050D01*
X0104690Y0166390D01*
X0105300Y0166840D01*
X0105830Y0167370D01*
X0106280Y0167980D01*
X0106620Y0168660D01*
X0106850Y0169380D01*
X0106950Y0170020D01*
X0102650Y0170020D01*
X0102650Y0165720D01*
X0103740Y0164610D02*
X0111440Y0164610D01*
X0112420Y0163630D02*
X0105270Y0163630D01*
X0106050Y0162640D02*
X0113410Y0162640D01*
X0114390Y0161660D02*
X0106450Y0161660D01*
X0106570Y0160670D02*
X0115380Y0160670D01*
X0116360Y0159690D02*
X0106570Y0159690D01*
X0106190Y0158700D02*
X0117350Y0158700D01*
X0118330Y0157720D02*
X0105610Y0157720D01*
X0104940Y0166580D02*
X0109670Y0166580D01*
X0109670Y0167570D02*
X0105970Y0167570D01*
X0106560Y0168550D02*
X0109670Y0168550D01*
X0109670Y0169540D02*
X0106880Y0169540D01*
X0106950Y0170980D02*
X0106850Y0171620D01*
X0106620Y0172340D01*
X0106280Y0173020D01*
X0105830Y0173630D01*
X0105300Y0174160D01*
X0104690Y0174610D01*
X0104010Y0174950D01*
X0103290Y0175180D01*
X0102650Y0175280D01*
X0102650Y0170980D01*
X0106950Y0170980D01*
X0106870Y0171510D02*
X0109670Y0171510D01*
X0109670Y0172490D02*
X0106540Y0172490D01*
X0105940Y0173480D02*
X0109670Y0173480D01*
X0109090Y0174460D02*
X0104890Y0174460D01*
X0103840Y0176430D02*
X0107120Y0176430D01*
X0106130Y0177420D02*
X0105310Y0177420D01*
X0106670Y0181120D02*
X0106570Y0181220D01*
X0106570Y0181380D01*
X0105900Y0182990D01*
X0104660Y0184230D01*
X0103050Y0184900D01*
X0101290Y0184900D01*
X0099680Y0184230D01*
X0098670Y0183220D01*
X0098670Y0187780D01*
X0099680Y0186770D01*
X0101290Y0186100D01*
X0103050Y0186100D01*
X0104660Y0186770D01*
X0105900Y0188010D01*
X0106310Y0189000D01*
X0116550Y0189000D01*
X0123740Y0181810D01*
X0123500Y0181230D01*
X0123500Y0179770D01*
X0124050Y0178420D01*
X0124970Y0177500D01*
X0122290Y0177500D01*
X0120600Y0179190D01*
X0120840Y0179770D01*
X0120840Y0181230D01*
X0120290Y0182580D01*
X0119250Y0183620D01*
X0117900Y0184170D01*
X0116440Y0184170D01*
X0115090Y0183620D01*
X0114050Y0182580D01*
X0113500Y0181230D01*
X0113500Y0179770D01*
X0114050Y0178420D01*
X0115090Y0177380D01*
X0116440Y0176830D01*
X0117900Y0176830D01*
X0118480Y0177070D01*
X0120170Y0175380D01*
X0121050Y0174500D01*
X0131790Y0174500D01*
X0132290Y0175000D01*
X0133170Y0175880D01*
X0133170Y0185880D01*
X0136290Y0189000D01*
X0158030Y0189000D01*
X0158440Y0188010D01*
X0159680Y0186770D01*
X0161290Y0186100D01*
X0163050Y0186100D01*
X0164660Y0186770D01*
X0165590Y0187700D01*
X0165590Y0183300D01*
X0164660Y0184230D01*
X0163050Y0184900D01*
X0161290Y0184900D01*
X0159680Y0184230D01*
X0158440Y0182990D01*
X0157770Y0181380D01*
X0157770Y0179620D01*
X0158440Y0178010D01*
X0159680Y0176770D01*
X0161290Y0176100D01*
X0163050Y0176100D01*
X0164660Y0176770D01*
X0165590Y0177700D01*
X0165590Y0173300D01*
X0164660Y0174230D01*
X0163050Y0174900D01*
X0161290Y0174900D01*
X0159680Y0174230D01*
X0158440Y0172990D01*
X0157770Y0171380D01*
X0157770Y0169620D01*
X0158440Y0168010D01*
X0159680Y0166770D01*
X0161290Y0166100D01*
X0163050Y0166100D01*
X0164660Y0166770D01*
X0165590Y0167700D01*
X0165590Y0163300D01*
X0164660Y0164230D01*
X0163050Y0164900D01*
X0161290Y0164900D01*
X0159680Y0164230D01*
X0158440Y0162990D01*
X0158030Y0162000D01*
X0147790Y0162000D01*
X0140600Y0169190D01*
X0140840Y0169770D01*
X0140840Y0171230D01*
X0140290Y0172580D01*
X0139370Y0173500D01*
X0142050Y0173500D01*
X0143740Y0171810D01*
X0143500Y0171230D01*
X0143500Y0169770D01*
X0144050Y0168420D01*
X0145090Y0167380D01*
X0146440Y0166830D01*
X0147900Y0166830D01*
X0149250Y0167380D01*
X0150290Y0168420D01*
X0150840Y0169770D01*
X0150840Y0171230D01*
X0150290Y0172580D01*
X0149250Y0173620D01*
X0147900Y0174170D01*
X0146440Y0174170D01*
X0145860Y0173930D01*
X0144170Y0175620D01*
X0143290Y0176500D01*
X0134050Y0176500D01*
X0131050Y0173500D01*
X0130210Y0172660D01*
X0129250Y0173620D01*
X0127900Y0174170D01*
X0126440Y0174170D01*
X0125090Y0173620D01*
X0124050Y0172580D01*
X0123500Y0171230D01*
X0123500Y0169770D01*
X0124050Y0168420D01*
X0125090Y0167380D01*
X0126440Y0166830D01*
X0127900Y0166830D01*
X0129250Y0167380D01*
X0130170Y0168300D01*
X0130170Y0166120D01*
X0123430Y0159380D01*
X0120910Y0159380D01*
X0112670Y0167620D01*
X0112670Y0175120D01*
X0106670Y0181120D01*
X0106570Y0181360D02*
X0113550Y0181360D01*
X0113500Y0180370D02*
X0107420Y0180370D01*
X0108410Y0179390D02*
X0113650Y0179390D01*
X0114070Y0178400D02*
X0109390Y0178400D01*
X0108100Y0175450D02*
X0098670Y0175450D01*
X0098670Y0176430D02*
X0100500Y0176430D01*
X0101690Y0174460D02*
X0102650Y0174460D01*
X0102650Y0173480D02*
X0101690Y0173480D01*
X0101690Y0172490D02*
X0102650Y0172490D01*
X0102650Y0171510D02*
X0101690Y0171510D01*
X0101690Y0169540D02*
X0102650Y0169540D01*
X0102650Y0170520D02*
X0109670Y0170520D01*
X0110450Y0165600D02*
X0098670Y0165600D01*
X0098670Y0166580D02*
X0099400Y0166580D01*
X0101690Y0167570D02*
X0102650Y0167570D01*
X0102650Y0168550D02*
X0101690Y0168550D01*
X0099450Y0174460D02*
X0098670Y0174460D01*
X0098670Y0177420D02*
X0099030Y0177420D01*
X0098770Y0183330D02*
X0098670Y0183330D01*
X0098670Y0184310D02*
X0099870Y0184310D01*
X0100860Y0186280D02*
X0098670Y0186280D01*
X0098670Y0185300D02*
X0120250Y0185300D01*
X0119270Y0186280D02*
X0103480Y0186280D01*
X0104470Y0184310D02*
X0121240Y0184310D01*
X0122220Y0183330D02*
X0119540Y0183330D01*
X0120390Y0182340D02*
X0123210Y0182340D01*
X0123550Y0181360D02*
X0120790Y0181360D01*
X0120840Y0180370D02*
X0123500Y0180370D01*
X0123650Y0179390D02*
X0120690Y0179390D01*
X0121390Y0178400D02*
X0124070Y0178400D01*
X0124950Y0173480D02*
X0119390Y0173480D01*
X0119250Y0173620D02*
X0117900Y0174170D01*
X0116440Y0174170D01*
X0115090Y0173620D01*
X0114050Y0172580D01*
X0113500Y0171230D01*
X0113500Y0169770D01*
X0114050Y0168420D01*
X0115090Y0167380D01*
X0116440Y0166830D01*
X0117900Y0166830D01*
X0119250Y0167380D01*
X0120290Y0168420D01*
X0120840Y0169770D01*
X0120840Y0171230D01*
X0120290Y0172580D01*
X0119250Y0173620D01*
X0120100Y0175450D02*
X0112350Y0175450D01*
X0112670Y0174460D02*
X0132010Y0174460D01*
X0132740Y0175450D02*
X0132990Y0175450D01*
X0133170Y0176430D02*
X0133980Y0176430D01*
X0133170Y0177420D02*
X0135060Y0177420D01*
X0135090Y0177380D02*
X0136440Y0176830D01*
X0137900Y0176830D01*
X0139250Y0177380D01*
X0140290Y0178420D01*
X0140840Y0179770D01*
X0140840Y0181230D01*
X0140290Y0182580D01*
X0139250Y0183620D01*
X0137900Y0184170D01*
X0136440Y0184170D01*
X0135090Y0183620D01*
X0134050Y0182580D01*
X0133500Y0181230D01*
X0133500Y0179770D01*
X0134050Y0178420D01*
X0135090Y0177380D01*
X0134070Y0178400D02*
X0133170Y0178400D01*
X0133170Y0179390D02*
X0133650Y0179390D01*
X0133500Y0180370D02*
X0133170Y0180370D01*
X0133170Y0181360D02*
X0133550Y0181360D01*
X0133170Y0182340D02*
X0133950Y0182340D01*
X0133170Y0183330D02*
X0134800Y0183330D01*
X0133570Y0186280D02*
X0160860Y0186280D01*
X0159870Y0184310D02*
X0150600Y0184310D01*
X0150670Y0184280D02*
X0150320Y0184470D01*
X0149940Y0184570D01*
X0147460Y0184570D01*
X0147460Y0180790D01*
X0151240Y0180790D01*
X0151240Y0183270D01*
X0151140Y0183650D01*
X0150950Y0184000D01*
X0150670Y0184280D01*
X0151230Y0183330D02*
X0158770Y0183330D01*
X0158170Y0182340D02*
X0151240Y0182340D01*
X0151240Y0181360D02*
X0157770Y0181360D01*
X0157770Y0180370D02*
X0147460Y0180370D01*
X0147460Y0180210D02*
X0147460Y0180790D01*
X0146880Y0180790D01*
X0146880Y0184570D01*
X0144400Y0184570D01*
X0144020Y0184470D01*
X0143670Y0184280D01*
X0143390Y0184000D01*
X0143200Y0183650D01*
X0143100Y0183270D01*
X0143100Y0180790D01*
X0146880Y0180790D01*
X0146880Y0180210D01*
X0147460Y0180210D01*
X0151240Y0180210D01*
X0151240Y0177730D01*
X0151140Y0177350D01*
X0150950Y0177000D01*
X0150670Y0176720D01*
X0150320Y0176530D01*
X0149940Y0176430D01*
X0147460Y0176430D01*
X0146880Y0176430D01*
X0146880Y0180210D01*
X0143100Y0180210D01*
X0143100Y0177730D01*
X0143200Y0177350D01*
X0143390Y0177000D01*
X0143670Y0176720D01*
X0144020Y0176530D01*
X0144400Y0176430D01*
X0146880Y0176430D01*
X0147460Y0176430D02*
X0147460Y0180210D01*
X0146880Y0180370D02*
X0140840Y0180370D01*
X0140790Y0181360D02*
X0143100Y0181360D01*
X0143100Y0182340D02*
X0140390Y0182340D01*
X0139540Y0183330D02*
X0143110Y0183330D01*
X0143740Y0184310D02*
X0133170Y0184310D01*
X0133170Y0185300D02*
X0165590Y0185300D01*
X0165590Y0186280D02*
X0163480Y0186280D01*
X0164470Y0184310D02*
X0165590Y0184310D01*
X0165570Y0183330D02*
X0165590Y0183330D01*
X0165590Y0187270D02*
X0165160Y0187270D01*
X0165310Y0177420D02*
X0165590Y0177420D01*
X0165590Y0176430D02*
X0163840Y0176430D01*
X0164110Y0174460D02*
X0165590Y0174460D01*
X0165590Y0173480D02*
X0165420Y0173480D01*
X0165590Y0175450D02*
X0144350Y0175450D01*
X0144380Y0176430D02*
X0143360Y0176430D01*
X0143180Y0177420D02*
X0139280Y0177420D01*
X0140270Y0178400D02*
X0143100Y0178400D01*
X0143100Y0179390D02*
X0140690Y0179390D01*
X0139390Y0173480D02*
X0142070Y0173480D01*
X0143060Y0172490D02*
X0140320Y0172490D01*
X0140730Y0171510D02*
X0143610Y0171510D01*
X0143500Y0170520D02*
X0140840Y0170520D01*
X0140750Y0169540D02*
X0143590Y0169540D01*
X0144000Y0168550D02*
X0141240Y0168550D01*
X0142230Y0167570D02*
X0144910Y0167570D01*
X0144200Y0165600D02*
X0165590Y0165600D01*
X0165590Y0166580D02*
X0164200Y0166580D01*
X0165460Y0167570D02*
X0165590Y0167570D01*
X0165590Y0164610D02*
X0163740Y0164610D01*
X0165270Y0163630D02*
X0165590Y0163630D01*
X0160600Y0164610D02*
X0145180Y0164610D01*
X0146170Y0163630D02*
X0159070Y0163630D01*
X0158290Y0162640D02*
X0147150Y0162640D01*
X0145860Y0159690D02*
X0127980Y0159690D01*
X0128960Y0160670D02*
X0144880Y0160670D01*
X0143890Y0161660D02*
X0129950Y0161660D01*
X0130930Y0162640D02*
X0142910Y0162640D01*
X0141920Y0163630D02*
X0131920Y0163630D01*
X0132900Y0164610D02*
X0140940Y0164610D01*
X0139950Y0165600D02*
X0133170Y0165600D01*
X0133170Y0166580D02*
X0138970Y0166580D01*
X0134910Y0167570D02*
X0133170Y0167570D01*
X0133170Y0168550D02*
X0134000Y0168550D01*
X0133590Y0169540D02*
X0133170Y0169540D01*
X0133170Y0170520D02*
X0133500Y0170520D01*
X0133610Y0171510D02*
X0133300Y0171510D01*
X0131020Y0173480D02*
X0129390Y0173480D01*
X0129430Y0167570D02*
X0130170Y0167570D01*
X0130170Y0166580D02*
X0113710Y0166580D01*
X0112730Y0167570D02*
X0114910Y0167570D01*
X0114700Y0165600D02*
X0129640Y0165600D01*
X0128660Y0164610D02*
X0115680Y0164610D01*
X0116670Y0163630D02*
X0127670Y0163630D01*
X0126690Y0162640D02*
X0117650Y0162640D01*
X0118640Y0161660D02*
X0125700Y0161660D01*
X0124720Y0160670D02*
X0119620Y0160670D01*
X0120610Y0159690D02*
X0123730Y0159690D01*
X0126010Y0157720D02*
X0158730Y0157720D01*
X0158150Y0158700D02*
X0126990Y0158700D01*
X0125210Y0154760D02*
X0125050Y0154760D01*
X0129130Y0154760D02*
X0135210Y0154760D01*
X0134220Y0153780D02*
X0130120Y0153780D01*
X0131100Y0152790D02*
X0133240Y0152790D01*
X0132770Y0151810D02*
X0131570Y0151810D01*
X0131570Y0150820D02*
X0132770Y0150820D01*
X0132770Y0149840D02*
X0131570Y0149840D01*
X0131570Y0148850D02*
X0132770Y0148850D01*
X0133580Y0147870D02*
X0130760Y0147870D01*
X0129770Y0146880D02*
X0134570Y0146880D01*
X0134370Y0143930D02*
X0129970Y0143930D01*
X0130950Y0142940D02*
X0133390Y0142940D01*
X0132770Y0141960D02*
X0131570Y0141960D01*
X0131570Y0140970D02*
X0132770Y0140970D01*
X0132770Y0139990D02*
X0131570Y0139990D01*
X0131570Y0139000D02*
X0132770Y0139000D01*
X0133430Y0138020D02*
X0130910Y0138020D01*
X0129920Y0137030D02*
X0134420Y0137030D01*
X0134520Y0134080D02*
X0129820Y0134080D01*
X0130800Y0133090D02*
X0133540Y0133090D01*
X0132770Y0132110D02*
X0131570Y0132110D01*
X0131570Y0131120D02*
X0132770Y0131120D01*
X0132770Y0130140D02*
X0131570Y0130140D01*
X0131570Y0129150D02*
X0132770Y0129150D01*
X0133280Y0128170D02*
X0131060Y0128170D01*
X0130070Y0127180D02*
X0134270Y0127180D01*
X0135250Y0126200D02*
X0129090Y0126200D01*
X0129670Y0124230D02*
X0134670Y0124230D01*
X0133690Y0123240D02*
X0130650Y0123240D01*
X0131570Y0122260D02*
X0132770Y0122260D01*
X0132770Y0121270D02*
X0131570Y0121270D01*
X0131570Y0120290D02*
X0132770Y0120290D01*
X0132770Y0119300D02*
X0131570Y0119300D01*
X0131210Y0118320D02*
X0133130Y0118320D01*
X0134120Y0117330D02*
X0130220Y0117330D01*
X0129240Y0116350D02*
X0135100Y0116350D01*
X0134820Y0114380D02*
X0129520Y0114380D01*
X0128990Y0114900D02*
X0125350Y0114900D01*
X0122770Y0112320D01*
X0122770Y0108680D01*
X0125350Y0106100D01*
X0128990Y0106100D01*
X0131570Y0108680D01*
X0131570Y0112320D01*
X0128990Y0114900D01*
X0130500Y0113390D02*
X0133840Y0113390D01*
X0132850Y0112410D02*
X0131490Y0112410D01*
X0131570Y0111420D02*
X0132770Y0111420D01*
X0132770Y0110440D02*
X0131570Y0110440D01*
X0131570Y0109450D02*
X0132770Y0109450D01*
X0132980Y0108470D02*
X0131360Y0108470D01*
X0130370Y0107480D02*
X0133970Y0107480D01*
X0131540Y0106500D02*
X0129390Y0106500D01*
X0129370Y0104530D02*
X0130670Y0104530D01*
X0130670Y0105510D02*
X0114300Y0105510D01*
X0114970Y0104530D02*
X0113320Y0104530D01*
X0113990Y0103540D02*
X0112630Y0103540D01*
X0112630Y0102560D02*
X0113000Y0102560D01*
X0112770Y0102320D02*
X0112770Y0098680D01*
X0115350Y0096100D01*
X0118990Y0096100D01*
X0121570Y0098680D01*
X0121570Y0102320D01*
X0118990Y0104900D01*
X0115350Y0104900D01*
X0112770Y0102320D01*
X0112770Y0101570D02*
X0112630Y0101570D01*
X0112770Y0100590D02*
X0112290Y0100590D01*
X0112770Y0099600D02*
X0106560Y0099600D01*
X0106150Y0098620D02*
X0112830Y0098620D01*
X0113820Y0097630D02*
X0105520Y0097630D01*
X0104360Y0096650D02*
X0114800Y0096650D01*
X0116800Y0092710D02*
X0118170Y0092710D01*
X0118140Y0091720D02*
X0116800Y0091720D01*
X0116800Y0090740D02*
X0118140Y0090740D01*
X0118140Y0088770D02*
X0116800Y0088770D01*
X0116800Y0089750D02*
X0121500Y0089750D01*
X0121500Y0090740D02*
X0122500Y0090740D01*
X0122500Y0090120D02*
X0122500Y0093870D01*
X0124560Y0093870D01*
X0124940Y0093770D01*
X0125280Y0093570D01*
X0125560Y0093300D01*
X0125760Y0092950D01*
X0125860Y0092570D01*
X0125860Y0090120D01*
X0122500Y0090120D01*
X0122500Y0089750D02*
X0130670Y0089750D01*
X0130670Y0088770D02*
X0125860Y0088770D01*
X0125860Y0090740D02*
X0130670Y0090740D01*
X0130670Y0091720D02*
X0125860Y0091720D01*
X0125830Y0092710D02*
X0130670Y0092710D01*
X0130670Y0093690D02*
X0125080Y0093690D01*
X0124800Y0096650D02*
X0119540Y0096650D01*
X0120520Y0097630D02*
X0123820Y0097630D01*
X0122830Y0098620D02*
X0121510Y0098620D01*
X0121570Y0099600D02*
X0122770Y0099600D01*
X0122770Y0100590D02*
X0121570Y0100590D01*
X0121570Y0101570D02*
X0122770Y0101570D01*
X0123000Y0102560D02*
X0121340Y0102560D01*
X0120350Y0103540D02*
X0123990Y0103540D01*
X0124970Y0104530D02*
X0119370Y0104530D01*
X0119390Y0106500D02*
X0124950Y0106500D01*
X0123970Y0107480D02*
X0120370Y0107480D01*
X0121360Y0108470D02*
X0122980Y0108470D01*
X0122770Y0109450D02*
X0121570Y0109450D01*
X0121570Y0110440D02*
X0122770Y0110440D01*
X0122770Y0111420D02*
X0121570Y0111420D01*
X0121490Y0112410D02*
X0122850Y0112410D01*
X0123840Y0113390D02*
X0120500Y0113390D01*
X0122670Y0114380D02*
X0124820Y0114380D01*
X0123650Y0115360D02*
X0154170Y0115360D01*
X0154170Y0114380D02*
X0149520Y0114380D01*
X0150500Y0113390D02*
X0154170Y0113390D01*
X0154170Y0112410D02*
X0151490Y0112410D01*
X0151570Y0111420D02*
X0154170Y0111420D01*
X0154170Y0110440D02*
X0151570Y0110440D01*
X0151570Y0109450D02*
X0154170Y0109450D01*
X0154170Y0108470D02*
X0151360Y0108470D01*
X0150370Y0107480D02*
X0154030Y0107480D01*
X0159470Y0094680D02*
X0160750Y0094680D01*
X0160450Y0095660D02*
X0165590Y0095660D01*
X0165590Y0094680D02*
X0163590Y0094680D01*
X0164360Y0096650D02*
X0165590Y0096650D01*
X0165520Y0097630D02*
X0165590Y0097630D01*
X0165590Y0093690D02*
X0165200Y0093690D01*
X0164690Y0086800D02*
X0165590Y0086800D01*
X0165590Y0085810D02*
X0153770Y0085810D01*
X0153760Y0085780D02*
X0153860Y0086160D01*
X0153860Y0088620D01*
X0150500Y0088620D01*
X0150500Y0089620D01*
X0149500Y0089620D01*
X0149500Y0093370D01*
X0147440Y0093370D01*
X0147060Y0093270D01*
X0146720Y0093070D01*
X0146440Y0092800D01*
X0146240Y0092450D01*
X0146140Y0092070D01*
X0146140Y0089620D01*
X0149500Y0089620D01*
X0149500Y0088620D01*
X0146140Y0088620D01*
X0146140Y0086160D01*
X0146240Y0085780D01*
X0146440Y0085440D01*
X0146720Y0085160D01*
X0147060Y0084960D01*
X0147440Y0084860D01*
X0149500Y0084860D01*
X0149500Y0088620D01*
X0150500Y0088620D01*
X0150500Y0084860D01*
X0152560Y0084860D01*
X0152940Y0084960D01*
X0153280Y0085160D01*
X0153560Y0085440D01*
X0153760Y0085780D01*
X0153860Y0086800D02*
X0159650Y0086800D01*
X0160330Y0084950D02*
X0159650Y0084610D01*
X0159040Y0084160D01*
X0158510Y0083630D01*
X0158060Y0083020D01*
X0157720Y0082340D01*
X0157490Y0081620D01*
X0157390Y0080980D01*
X0161690Y0080980D01*
X0161690Y0085280D01*
X0161050Y0085180D01*
X0160330Y0084950D01*
X0160090Y0084830D02*
X0142620Y0084830D01*
X0141630Y0083840D02*
X0158720Y0083840D01*
X0157980Y0082860D02*
X0140670Y0082860D01*
X0139060Y0080890D02*
X0138550Y0080890D01*
X0139060Y0079900D02*
X0137630Y0079900D01*
X0137630Y0078920D02*
X0139060Y0078920D01*
X0139060Y0077930D02*
X0137630Y0077930D01*
X0137630Y0076950D02*
X0139060Y0076950D01*
X0139060Y0075960D02*
X0124070Y0075960D01*
X0124280Y0076950D02*
X0125210Y0076950D01*
X0125210Y0077930D02*
X0124280Y0077930D01*
X0124280Y0078920D02*
X0125210Y0078920D01*
X0125210Y0079900D02*
X0124280Y0079900D01*
X0124280Y0080890D02*
X0124620Y0080890D01*
X0122500Y0091720D02*
X0121500Y0091720D01*
X0121500Y0092710D02*
X0122500Y0092710D01*
X0122500Y0093690D02*
X0121500Y0093690D01*
X0118920Y0093690D02*
X0105200Y0093690D01*
X0106020Y0092710D02*
X0109880Y0092710D01*
X0109880Y0091720D02*
X0106430Y0091720D01*
X0106570Y0090740D02*
X0109880Y0090740D01*
X0109880Y0089750D02*
X0106570Y0089750D01*
X0106210Y0088770D02*
X0109880Y0088770D01*
X0109880Y0087780D02*
X0105670Y0087780D01*
X0104690Y0086800D02*
X0109880Y0086800D01*
X0110470Y0085810D02*
X0098670Y0085810D01*
X0098670Y0084830D02*
X0101110Y0084830D01*
X0103230Y0084830D02*
X0111840Y0084830D01*
X0112710Y0083840D02*
X0105050Y0083840D01*
X0105960Y0082860D02*
X0111320Y0082860D01*
X0111060Y0081870D02*
X0106370Y0081870D01*
X0106570Y0080890D02*
X0111060Y0080890D01*
X0111060Y0079900D02*
X0106570Y0079900D01*
X0106280Y0078920D02*
X0111060Y0078920D01*
X0111060Y0077930D02*
X0105820Y0077930D01*
X0104840Y0076950D02*
X0111060Y0076950D01*
X0111000Y0075960D02*
X0098670Y0075960D01*
X0098670Y0074980D02*
X0110070Y0074980D01*
X0110070Y0073990D02*
X0104900Y0073990D01*
X0105890Y0073010D02*
X0110070Y0073010D01*
X0110070Y0072020D02*
X0106300Y0072020D01*
X0106570Y0071040D02*
X0110070Y0071040D01*
X0110070Y0070050D02*
X0106570Y0070050D01*
X0106340Y0069070D02*
X0110070Y0069070D01*
X0110070Y0068080D02*
X0105930Y0068080D01*
X0104990Y0067100D02*
X0110070Y0067100D01*
X0110070Y0066110D02*
X0103070Y0066110D01*
X0102650Y0065280D02*
X0102650Y0060980D01*
X0106950Y0060980D01*
X0106850Y0061620D01*
X0106620Y0062340D01*
X0106280Y0063020D01*
X0105830Y0063630D01*
X0105300Y0064160D01*
X0104690Y0064610D01*
X0104010Y0064950D01*
X0103290Y0065180D01*
X0102650Y0065280D01*
X0102650Y0065130D02*
X0101690Y0065130D01*
X0100870Y0065130D02*
X0098670Y0065130D01*
X0098670Y0066110D02*
X0101270Y0066110D01*
X0101690Y0064140D02*
X0102650Y0064140D01*
X0102650Y0063160D02*
X0101690Y0063160D01*
X0101690Y0062170D02*
X0102650Y0062170D01*
X0102650Y0061190D02*
X0101690Y0061190D01*
X0101690Y0059220D02*
X0102650Y0059220D01*
X0102650Y0060020D02*
X0102650Y0055720D01*
X0103290Y0055820D01*
X0104010Y0056050D01*
X0104690Y0056390D01*
X0105300Y0056840D01*
X0105830Y0057370D01*
X0106280Y0057980D01*
X0106620Y0058660D01*
X0106850Y0059380D01*
X0106950Y0060020D01*
X0102650Y0060020D01*
X0102650Y0060200D02*
X0110070Y0060200D01*
X0110070Y0059220D02*
X0106800Y0059220D01*
X0106400Y0058230D02*
X0110070Y0058230D01*
X0110070Y0057250D02*
X0105700Y0057250D01*
X0104420Y0056260D02*
X0110070Y0056260D01*
X0110070Y0055280D02*
X0098670Y0055280D01*
X0098670Y0056260D02*
X0099920Y0056260D01*
X0099820Y0054290D02*
X0098670Y0054290D01*
X0098670Y0053310D02*
X0098750Y0053310D01*
X0101690Y0056260D02*
X0102650Y0056260D01*
X0102650Y0057250D02*
X0101690Y0057250D01*
X0101690Y0058230D02*
X0102650Y0058230D01*
X0104520Y0054290D02*
X0110070Y0054290D01*
X0110070Y0053310D02*
X0105590Y0053310D01*
X0106180Y0052320D02*
X0110070Y0052320D01*
X0110070Y0051340D02*
X0106570Y0051340D01*
X0106570Y0050350D02*
X0110070Y0050350D01*
X0110070Y0049370D02*
X0106460Y0049370D01*
X0106050Y0048380D02*
X0108770Y0048380D01*
X0108770Y0047400D02*
X0105290Y0047400D01*
X0104010Y0045450D02*
X0104690Y0045110D01*
X0105300Y0044660D01*
X0105830Y0044130D01*
X0106280Y0043520D01*
X0106620Y0042840D01*
X0106850Y0042120D01*
X0106950Y0041480D01*
X0102650Y0041480D01*
X0102650Y0045780D01*
X0103290Y0045680D01*
X0104010Y0045450D01*
X0104060Y0045430D02*
X0108770Y0045430D01*
X0108770Y0046410D02*
X0103790Y0046410D01*
X0102650Y0045430D02*
X0101690Y0045430D01*
X0101690Y0044440D02*
X0102650Y0044440D01*
X0102650Y0043460D02*
X0101690Y0043460D01*
X0101690Y0042470D02*
X0102650Y0042470D01*
X0102650Y0041490D02*
X0101690Y0041490D01*
X0101690Y0040500D02*
X0102650Y0040500D01*
X0102650Y0040520D02*
X0102650Y0036220D01*
X0103290Y0036320D01*
X0104010Y0036550D01*
X0104690Y0036890D01*
X0105300Y0037340D01*
X0105830Y0037870D01*
X0106280Y0038480D01*
X0106620Y0039160D01*
X0106850Y0039880D01*
X0106950Y0040520D01*
X0102650Y0040520D01*
X0102650Y0039510D02*
X0101690Y0039510D01*
X0101690Y0038530D02*
X0102650Y0038530D01*
X0102650Y0037540D02*
X0101690Y0037540D01*
X0101690Y0036560D02*
X0102650Y0036560D01*
X0104030Y0036560D02*
X0108890Y0036560D01*
X0109040Y0037540D02*
X0105500Y0037540D01*
X0106300Y0038530D02*
X0109200Y0038530D01*
X0108770Y0039510D02*
X0106730Y0039510D01*
X0106950Y0040500D02*
X0108770Y0040500D01*
X0108770Y0041490D02*
X0106950Y0041490D01*
X0106740Y0042470D02*
X0108770Y0042470D01*
X0108770Y0043460D02*
X0106310Y0043460D01*
X0105520Y0044440D02*
X0108770Y0044440D01*
X0108740Y0035570D02*
X0098670Y0035570D01*
X0098670Y0034590D02*
X0099540Y0034590D01*
X0100310Y0036560D02*
X0098670Y0036560D01*
X0098670Y0037540D02*
X0098840Y0037540D01*
X0098670Y0044440D02*
X0098820Y0044440D01*
X0098670Y0045430D02*
X0100280Y0045430D01*
X0100550Y0046410D02*
X0098670Y0046410D01*
X0098670Y0047400D02*
X0099050Y0047400D01*
X0104800Y0034590D02*
X0108580Y0034590D01*
X0108430Y0033600D02*
X0105790Y0033600D01*
X0106260Y0032620D02*
X0108280Y0032620D01*
X0108120Y0031630D02*
X0106570Y0031630D01*
X0106570Y0030650D02*
X0107970Y0030650D01*
X0107820Y0029660D02*
X0106380Y0029660D01*
X0105970Y0028680D02*
X0107660Y0028680D01*
X0107510Y0027690D02*
X0105090Y0027690D01*
X0107050Y0024740D02*
X0098670Y0024740D01*
X0098670Y0025720D02*
X0107200Y0025720D01*
X0107360Y0026710D02*
X0103310Y0026710D01*
X0104850Y0022770D02*
X0098670Y0022770D01*
X0098670Y0023750D02*
X0105700Y0023750D01*
X0104440Y0021780D02*
X0098670Y0021780D01*
X0098670Y0020800D02*
X0104270Y0020800D01*
X0104270Y0019810D02*
X0098670Y0019810D01*
X0098670Y0018830D02*
X0104600Y0018830D01*
X0105100Y0017840D02*
X0098670Y0017840D01*
X0098670Y0016860D02*
X0106090Y0016860D01*
X0111250Y0016860D02*
X0116090Y0016860D01*
X0116180Y0016770D02*
X0117790Y0016100D01*
X0119550Y0016100D01*
X0121160Y0016770D01*
X0122190Y0017800D01*
X0130150Y0017800D01*
X0131180Y0016770D01*
X0132790Y0016100D01*
X0134550Y0016100D01*
X0136160Y0016770D01*
X0137400Y0018010D01*
X0138070Y0019620D01*
X0138070Y0021380D01*
X0137670Y0022330D01*
X0137670Y0038770D01*
X0138330Y0038770D01*
X0138970Y0039410D01*
X0138970Y0048590D01*
X0138330Y0049230D01*
X0134870Y0049230D01*
X0134870Y0055580D01*
X0135050Y0055760D01*
X0135050Y0060240D01*
X0134410Y0060880D01*
X0129930Y0060880D01*
X0129290Y0060240D01*
X0129290Y0055760D01*
X0129470Y0055580D01*
X0129470Y0049230D01*
X0125010Y0049230D01*
X0124370Y0048590D01*
X0124370Y0039410D01*
X0125010Y0038770D01*
X0130920Y0038770D01*
X0131570Y0039410D01*
X0131570Y0042580D01*
X0131770Y0042790D01*
X0131770Y0039410D01*
X0132420Y0038770D01*
X0133070Y0038770D01*
X0133070Y0024900D01*
X0132790Y0024900D01*
X0131180Y0024230D01*
X0130150Y0023200D01*
X0122190Y0023200D01*
X0121160Y0024230D01*
X0119550Y0024900D01*
X0117790Y0024900D01*
X0116180Y0024230D01*
X0114940Y0022990D01*
X0114270Y0021380D01*
X0114270Y0019620D01*
X0114940Y0018010D01*
X0116180Y0016770D01*
X0115100Y0017840D02*
X0112240Y0017840D01*
X0112740Y0018830D02*
X0114600Y0018830D01*
X0114270Y0019810D02*
X0113070Y0019810D01*
X0113070Y0020800D02*
X0114270Y0020800D01*
X0114440Y0021780D02*
X0112900Y0021780D01*
X0112490Y0022770D02*
X0114850Y0022770D01*
X0115700Y0023750D02*
X0111640Y0023750D01*
X0111700Y0024740D02*
X0117410Y0024740D01*
X0119930Y0024740D02*
X0132410Y0024740D01*
X0133070Y0025720D02*
X0111860Y0025720D01*
X0112010Y0026710D02*
X0133070Y0026710D01*
X0133070Y0027690D02*
X0112160Y0027690D01*
X0112320Y0028680D02*
X0133070Y0028680D01*
X0133070Y0029660D02*
X0112470Y0029660D01*
X0112620Y0030650D02*
X0133070Y0030650D01*
X0133070Y0031630D02*
X0112780Y0031630D01*
X0112930Y0032620D02*
X0133070Y0032620D01*
X0133070Y0033600D02*
X0113080Y0033600D01*
X0113240Y0034590D02*
X0133070Y0034590D01*
X0133070Y0035570D02*
X0113390Y0035570D01*
X0113540Y0036560D02*
X0133070Y0036560D01*
X0133070Y0037540D02*
X0113700Y0037540D01*
X0113850Y0038530D02*
X0133070Y0038530D01*
X0131770Y0039510D02*
X0131570Y0039510D01*
X0131570Y0040500D02*
X0131770Y0040500D01*
X0131770Y0041490D02*
X0131570Y0041490D01*
X0131570Y0042470D02*
X0131770Y0042470D01*
X0129470Y0049370D02*
X0114670Y0049370D01*
X0114670Y0050350D02*
X0129470Y0050350D01*
X0129470Y0051340D02*
X0114670Y0051340D01*
X0114670Y0052320D02*
X0129470Y0052320D01*
X0129470Y0053310D02*
X0114670Y0053310D01*
X0114670Y0054290D02*
X0129470Y0054290D01*
X0129470Y0055280D02*
X0114670Y0055280D01*
X0114670Y0056260D02*
X0129290Y0056260D01*
X0129290Y0057250D02*
X0114670Y0057250D01*
X0114670Y0058230D02*
X0129290Y0058230D01*
X0129290Y0059220D02*
X0114670Y0059220D01*
X0114670Y0060200D02*
X0129290Y0060200D01*
X0124370Y0048380D02*
X0115970Y0048380D01*
X0115970Y0047400D02*
X0124370Y0047400D01*
X0124370Y0046410D02*
X0115970Y0046410D01*
X0115970Y0045430D02*
X0124370Y0045430D01*
X0124370Y0044440D02*
X0115970Y0044440D01*
X0115970Y0043460D02*
X0124370Y0043460D01*
X0124370Y0042470D02*
X0115970Y0042470D01*
X0115970Y0041490D02*
X0124370Y0041490D01*
X0124370Y0040500D02*
X0115970Y0040500D01*
X0115970Y0039510D02*
X0124370Y0039510D01*
X0121640Y0023750D02*
X0130700Y0023750D01*
X0131090Y0016860D02*
X0121250Y0016860D01*
X0134870Y0049370D02*
X0148760Y0049370D01*
X0148770Y0050350D02*
X0134870Y0050350D01*
X0134870Y0051340D02*
X0148790Y0051340D01*
X0148810Y0052320D02*
X0134870Y0052320D01*
X0134870Y0053310D02*
X0148820Y0053310D01*
X0148840Y0054290D02*
X0134870Y0054290D01*
X0134870Y0055280D02*
X0148860Y0055280D01*
X0148880Y0056260D02*
X0135050Y0056260D01*
X0135050Y0057250D02*
X0148890Y0057250D01*
X0148910Y0058230D02*
X0135050Y0058230D01*
X0135050Y0059220D02*
X0148930Y0059220D01*
X0148940Y0060200D02*
X0135050Y0060200D01*
X0138970Y0048380D02*
X0147370Y0048380D01*
X0147370Y0047400D02*
X0138970Y0047400D01*
X0138970Y0046410D02*
X0147370Y0046410D01*
X0147370Y0045430D02*
X0138970Y0045430D01*
X0138970Y0044440D02*
X0147370Y0044440D01*
X0147370Y0043460D02*
X0138970Y0043460D01*
X0138970Y0042470D02*
X0147370Y0042470D01*
X0147370Y0041490D02*
X0138970Y0041490D01*
X0138970Y0040500D02*
X0147370Y0040500D01*
X0147370Y0039510D02*
X0138970Y0039510D01*
X0137670Y0038530D02*
X0148670Y0038530D01*
X0148670Y0037540D02*
X0137670Y0037540D01*
X0137670Y0036560D02*
X0148670Y0036560D01*
X0148670Y0035570D02*
X0137670Y0035570D01*
X0137670Y0034590D02*
X0148670Y0034590D01*
X0148670Y0033600D02*
X0137670Y0033600D01*
X0137670Y0032620D02*
X0148670Y0032620D01*
X0148670Y0031630D02*
X0137670Y0031630D01*
X0137670Y0030650D02*
X0148670Y0030650D01*
X0148670Y0029660D02*
X0137670Y0029660D01*
X0137670Y0028680D02*
X0148600Y0028680D01*
X0147610Y0027690D02*
X0137670Y0027690D01*
X0137670Y0026710D02*
X0146630Y0026710D01*
X0145640Y0025720D02*
X0137670Y0025720D01*
X0137670Y0024740D02*
X0142410Y0024740D01*
X0140700Y0023750D02*
X0137670Y0023750D01*
X0137670Y0022770D02*
X0139850Y0022770D01*
X0139440Y0021780D02*
X0137900Y0021780D01*
X0138070Y0020800D02*
X0139270Y0020800D01*
X0139270Y0019810D02*
X0138070Y0019810D01*
X0137740Y0018830D02*
X0139600Y0018830D01*
X0140100Y0017840D02*
X0137240Y0017840D01*
X0136250Y0016860D02*
X0141090Y0016860D01*
X0146250Y0016860D02*
X0165590Y0016860D01*
X0165590Y0017840D02*
X0147240Y0017840D01*
X0147740Y0018830D02*
X0165590Y0018830D01*
X0165590Y0019810D02*
X0148070Y0019810D01*
X0148070Y0020800D02*
X0157340Y0020800D01*
X0156900Y0021240D02*
X0157820Y0020320D01*
X0159020Y0019820D01*
X0160320Y0019820D01*
X0161520Y0020320D01*
X0162440Y0021240D01*
X0162940Y0022440D01*
X0162940Y0023750D01*
X0162440Y0024950D01*
X0161520Y0025870D01*
X0160320Y0026370D01*
X0159020Y0026370D01*
X0157820Y0025870D01*
X0156900Y0024950D01*
X0156400Y0023750D01*
X0156400Y0022440D01*
X0156900Y0021240D01*
X0156670Y0021780D02*
X0148210Y0021780D01*
X0149190Y0022770D02*
X0156400Y0022770D01*
X0156400Y0023750D02*
X0150180Y0023750D01*
X0151160Y0024740D02*
X0156810Y0024740D01*
X0157670Y0025720D02*
X0152150Y0025720D01*
X0153130Y0026710D02*
X0165590Y0026710D01*
X0165590Y0027690D02*
X0153270Y0027690D01*
X0153270Y0028680D02*
X0165590Y0028680D01*
X0165590Y0029660D02*
X0153270Y0029660D01*
X0153270Y0030650D02*
X0165590Y0030650D01*
X0165590Y0031630D02*
X0160320Y0031630D01*
X0161520Y0032130D01*
X0162440Y0033050D01*
X0162940Y0034250D01*
X0162940Y0035560D01*
X0162440Y0036760D01*
X0161520Y0037680D01*
X0160320Y0038180D01*
X0159020Y0038180D01*
X0157820Y0037680D01*
X0156900Y0036760D01*
X0156400Y0035560D01*
X0156400Y0034250D01*
X0156900Y0033050D01*
X0157820Y0032130D01*
X0159020Y0031630D01*
X0160320Y0031630D01*
X0159020Y0031630D02*
X0153270Y0031630D01*
X0153270Y0032620D02*
X0157330Y0032620D01*
X0156670Y0033600D02*
X0153270Y0033600D01*
X0153270Y0034590D02*
X0156400Y0034590D01*
X0156410Y0035570D02*
X0153270Y0035570D01*
X0153270Y0036560D02*
X0156810Y0036560D01*
X0157680Y0037540D02*
X0153270Y0037540D01*
X0153270Y0038530D02*
X0165590Y0038530D01*
X0165590Y0039510D02*
X0154570Y0039510D01*
X0154570Y0040500D02*
X0165590Y0040500D01*
X0165590Y0041490D02*
X0154570Y0041490D01*
X0154570Y0042470D02*
X0165590Y0042470D01*
X0165590Y0043460D02*
X0154570Y0043460D01*
X0154570Y0044440D02*
X0165590Y0044440D01*
X0165590Y0045430D02*
X0154570Y0045430D01*
X0154570Y0046410D02*
X0160550Y0046410D01*
X0159050Y0047400D02*
X0154570Y0047400D01*
X0154570Y0048380D02*
X0158290Y0048380D01*
X0157880Y0049370D02*
X0153360Y0049370D01*
X0153370Y0050350D02*
X0157770Y0050350D01*
X0157770Y0051340D02*
X0153390Y0051340D01*
X0153410Y0052320D02*
X0158160Y0052320D01*
X0158750Y0053310D02*
X0153430Y0053310D01*
X0153440Y0054290D02*
X0159820Y0054290D01*
X0160910Y0056260D02*
X0153480Y0056260D01*
X0153490Y0057250D02*
X0159200Y0057250D01*
X0158350Y0058230D02*
X0153510Y0058230D01*
X0153530Y0059220D02*
X0157940Y0059220D01*
X0157770Y0060200D02*
X0153540Y0060200D01*
X0153560Y0061190D02*
X0157770Y0061190D01*
X0158100Y0062170D02*
X0153580Y0062170D01*
X0153590Y0063160D02*
X0158600Y0063160D01*
X0159590Y0064140D02*
X0153610Y0064140D01*
X0153630Y0065130D02*
X0165590Y0065130D01*
X0165590Y0066110D02*
X0163070Y0066110D01*
X0161270Y0066110D02*
X0153650Y0066110D01*
X0153660Y0067100D02*
X0159350Y0067100D01*
X0158410Y0068080D02*
X0153680Y0068080D01*
X0153700Y0069070D02*
X0158000Y0069070D01*
X0157770Y0070050D02*
X0153710Y0070050D01*
X0153730Y0071040D02*
X0157770Y0071040D01*
X0158040Y0072020D02*
X0153750Y0072020D01*
X0153770Y0073010D02*
X0158450Y0073010D01*
X0159440Y0073990D02*
X0153780Y0073990D01*
X0152840Y0074980D02*
X0165590Y0074980D01*
X0165590Y0075960D02*
X0163730Y0075960D01*
X0162650Y0075960D02*
X0161690Y0075960D01*
X0161690Y0075720D02*
X0161690Y0080020D01*
X0157390Y0080020D01*
X0157490Y0079380D01*
X0157720Y0078660D01*
X0158060Y0077980D01*
X0158510Y0077370D01*
X0159040Y0076840D01*
X0159650Y0076390D01*
X0160330Y0076050D01*
X0161050Y0075820D01*
X0161690Y0075720D01*
X0160610Y0075960D02*
X0152280Y0075960D01*
X0152280Y0076950D02*
X0158940Y0076950D01*
X0158100Y0077930D02*
X0152280Y0077930D01*
X0152280Y0078920D02*
X0157640Y0078920D01*
X0157410Y0079900D02*
X0152280Y0079900D01*
X0152280Y0080890D02*
X0161690Y0080890D01*
X0161690Y0081870D02*
X0162650Y0081870D01*
X0162650Y0082860D02*
X0161690Y0082860D01*
X0161690Y0083840D02*
X0162650Y0083840D01*
X0162650Y0084830D02*
X0161690Y0084830D01*
X0161690Y0079900D02*
X0162650Y0079900D01*
X0162650Y0078920D02*
X0161690Y0078920D01*
X0161690Y0077930D02*
X0162650Y0077930D01*
X0162650Y0076950D02*
X0161690Y0076950D01*
X0164250Y0084830D02*
X0165590Y0084830D01*
X0165400Y0076950D02*
X0165590Y0076950D01*
X0165590Y0073990D02*
X0164900Y0073990D01*
X0164990Y0067100D02*
X0165590Y0067100D01*
X0165590Y0064140D02*
X0164750Y0064140D01*
X0165140Y0057250D02*
X0165590Y0057250D01*
X0165590Y0056260D02*
X0163430Y0056260D01*
X0164520Y0054290D02*
X0165590Y0054290D01*
X0165590Y0053310D02*
X0165590Y0053310D01*
X0165590Y0055280D02*
X0153460Y0055280D01*
X0148960Y0061190D02*
X0114670Y0061190D01*
X0114670Y0062170D02*
X0148980Y0062170D01*
X0148990Y0063160D02*
X0114670Y0063160D01*
X0114670Y0064140D02*
X0149010Y0064140D01*
X0149030Y0065130D02*
X0114670Y0065130D01*
X0114670Y0066110D02*
X0149050Y0066110D01*
X0149060Y0067100D02*
X0114670Y0067100D01*
X0114670Y0068080D02*
X0149080Y0068080D01*
X0149100Y0069070D02*
X0114670Y0069070D01*
X0114670Y0070050D02*
X0149110Y0070050D01*
X0149130Y0071040D02*
X0114670Y0071040D01*
X0114670Y0072020D02*
X0149150Y0072020D01*
X0148290Y0073010D02*
X0114670Y0073010D01*
X0115530Y0073990D02*
X0147310Y0073990D01*
X0146320Y0074980D02*
X0116520Y0074980D01*
X0116210Y0085810D02*
X0118570Y0085810D01*
X0118140Y0086800D02*
X0116800Y0086800D01*
X0116800Y0087780D02*
X0118140Y0087780D01*
X0110070Y0065130D02*
X0103470Y0065130D01*
X0105320Y0064140D02*
X0110070Y0064140D01*
X0110070Y0063160D02*
X0106170Y0063160D01*
X0106670Y0062170D02*
X0110070Y0062170D01*
X0110070Y0061190D02*
X0106920Y0061190D01*
X0099020Y0064140D02*
X0098670Y0064140D01*
X0098670Y0067100D02*
X0099350Y0067100D01*
X0099440Y0073990D02*
X0098670Y0073990D01*
X0098670Y0076950D02*
X0099500Y0076950D01*
X0099290Y0083840D02*
X0098670Y0083840D01*
X0098670Y0086800D02*
X0099650Y0086800D01*
X0099140Y0093690D02*
X0098670Y0093690D01*
X0098670Y0094680D02*
X0100750Y0094680D01*
X0099980Y0096650D02*
X0098670Y0096650D01*
X0098670Y0097630D02*
X0098820Y0097630D01*
X0098670Y0095660D02*
X0130670Y0095660D01*
X0130670Y0094680D02*
X0103590Y0094680D01*
X0098690Y0123240D02*
X0098670Y0123240D01*
X0098670Y0124230D02*
X0099670Y0124230D01*
X0098670Y0125210D02*
X0106210Y0125210D01*
X0106830Y0126200D02*
X0103280Y0126200D01*
X0101060Y0126200D02*
X0098670Y0126200D01*
X0098670Y0127180D02*
X0099270Y0127180D01*
X0099520Y0134080D02*
X0098670Y0134080D01*
X0098670Y0143930D02*
X0099370Y0143930D01*
X0098670Y0144910D02*
X0120670Y0144910D01*
X0120670Y0143930D02*
X0119970Y0143930D01*
X0120670Y0145900D02*
X0098670Y0145900D01*
X0098670Y0146880D02*
X0099570Y0146880D01*
X0111360Y0176430D02*
X0119120Y0176430D01*
X0120320Y0172490D02*
X0124020Y0172490D01*
X0123610Y0171510D02*
X0120730Y0171510D01*
X0120840Y0170520D02*
X0123500Y0170520D01*
X0123590Y0169540D02*
X0120750Y0169540D01*
X0120340Y0168550D02*
X0124000Y0168550D01*
X0124910Y0167570D02*
X0119430Y0167570D01*
X0114950Y0173480D02*
X0112670Y0173480D01*
X0112670Y0172490D02*
X0114020Y0172490D01*
X0113610Y0171510D02*
X0112670Y0171510D01*
X0112670Y0170520D02*
X0113500Y0170520D01*
X0113590Y0169540D02*
X0112670Y0169540D01*
X0112670Y0168550D02*
X0114000Y0168550D01*
X0115060Y0177420D02*
X0110380Y0177420D01*
X0113950Y0182340D02*
X0106170Y0182340D01*
X0105570Y0183330D02*
X0114800Y0183330D01*
X0117300Y0188250D02*
X0106000Y0188250D01*
X0105160Y0187270D02*
X0118280Y0187270D01*
X0119130Y0154760D02*
X0119290Y0154760D01*
X0119770Y0146880D02*
X0120670Y0146880D01*
X0123670Y0143930D02*
X0124370Y0143930D01*
X0120670Y0123240D02*
X0120650Y0123240D01*
X0123670Y0117330D02*
X0124120Y0117330D01*
X0123670Y0116350D02*
X0125100Y0116350D01*
X0130350Y0103540D02*
X0130670Y0103540D01*
X0130520Y0097630D02*
X0130670Y0097630D01*
X0130670Y0096650D02*
X0129540Y0096650D01*
X0144430Y0092710D02*
X0146390Y0092710D01*
X0146140Y0091720D02*
X0144800Y0091720D01*
X0144800Y0090740D02*
X0146140Y0090740D01*
X0146140Y0089750D02*
X0144800Y0089750D01*
X0144800Y0088770D02*
X0149500Y0088770D01*
X0149500Y0089750D02*
X0150500Y0089750D01*
X0150500Y0089620D02*
X0150500Y0093370D01*
X0152560Y0093370D01*
X0152940Y0093270D01*
X0153280Y0093070D01*
X0153560Y0092800D01*
X0153760Y0092450D01*
X0153860Y0092070D01*
X0153860Y0089620D01*
X0150500Y0089620D01*
X0150500Y0088770D02*
X0158130Y0088770D01*
X0157770Y0089750D02*
X0153860Y0089750D01*
X0153860Y0090740D02*
X0157770Y0090740D01*
X0157910Y0091720D02*
X0153860Y0091720D01*
X0153620Y0092710D02*
X0158320Y0092710D01*
X0158480Y0093690D02*
X0159140Y0093690D01*
X0158670Y0087780D02*
X0153860Y0087780D01*
X0152280Y0081870D02*
X0157570Y0081870D01*
X0150500Y0085810D02*
X0149500Y0085810D01*
X0149500Y0086800D02*
X0150500Y0086800D01*
X0150500Y0087780D02*
X0149500Y0087780D01*
X0149500Y0090740D02*
X0150500Y0090740D01*
X0150500Y0091720D02*
X0149500Y0091720D01*
X0149500Y0092710D02*
X0150500Y0092710D01*
X0146140Y0087780D02*
X0144800Y0087780D01*
X0144800Y0086800D02*
X0146140Y0086800D01*
X0146230Y0085810D02*
X0144710Y0085810D01*
X0163790Y0046410D02*
X0165590Y0046410D01*
X0165590Y0047400D02*
X0165290Y0047400D01*
X0165590Y0037540D02*
X0161660Y0037540D01*
X0162530Y0036560D02*
X0165590Y0036560D01*
X0165590Y0035570D02*
X0162930Y0035570D01*
X0162940Y0034590D02*
X0165590Y0034590D01*
X0165590Y0033600D02*
X0162670Y0033600D01*
X0162010Y0032620D02*
X0165590Y0032620D01*
X0165590Y0025720D02*
X0161670Y0025720D01*
X0162530Y0024740D02*
X0165590Y0024740D01*
X0165590Y0023750D02*
X0162940Y0023750D01*
X0162940Y0022770D02*
X0165590Y0022770D01*
X0165590Y0021780D02*
X0162670Y0021780D01*
X0162000Y0020800D02*
X0165590Y0020800D01*
X0165590Y0015870D02*
X0098670Y0015870D01*
X0098670Y0014890D02*
X0165590Y0014890D01*
X0165590Y0013900D02*
X0098670Y0013900D01*
X0098670Y0012920D02*
X0165590Y0012920D01*
X0143580Y0147870D02*
X0140760Y0147870D01*
X0141570Y0148850D02*
X0142770Y0148850D01*
X0142770Y0149840D02*
X0141570Y0149840D01*
X0141570Y0150820D02*
X0142770Y0150820D01*
X0142770Y0151810D02*
X0141570Y0151810D01*
X0141100Y0152790D02*
X0143240Y0152790D01*
X0144220Y0153780D02*
X0140120Y0153780D01*
X0139130Y0154760D02*
X0145210Y0154760D01*
X0143210Y0166580D02*
X0160140Y0166580D01*
X0158880Y0167570D02*
X0149430Y0167570D01*
X0150340Y0168550D02*
X0158220Y0168550D01*
X0157810Y0169540D02*
X0150750Y0169540D01*
X0150840Y0170520D02*
X0157770Y0170520D01*
X0157820Y0171510D02*
X0150730Y0171510D01*
X0150320Y0172490D02*
X0158230Y0172490D01*
X0158920Y0173480D02*
X0149390Y0173480D01*
X0149960Y0176430D02*
X0160500Y0176430D01*
X0160230Y0174460D02*
X0145330Y0174460D01*
X0146880Y0177420D02*
X0147460Y0177420D01*
X0147460Y0178400D02*
X0146880Y0178400D01*
X0146880Y0179390D02*
X0147460Y0179390D01*
X0147460Y0181360D02*
X0146880Y0181360D01*
X0146880Y0182340D02*
X0147460Y0182340D01*
X0147460Y0183330D02*
X0146880Y0183330D01*
X0146880Y0184310D02*
X0147460Y0184310D01*
X0151240Y0179390D02*
X0157870Y0179390D01*
X0158280Y0178400D02*
X0151240Y0178400D01*
X0151160Y0177420D02*
X0159030Y0177420D01*
X0159180Y0187270D02*
X0134560Y0187270D01*
X0135540Y0188250D02*
X0158340Y0188250D01*
X0099180Y0187270D02*
X0098670Y0187270D01*
X0098670Y0027690D02*
X0099250Y0027690D01*
X0098670Y0026710D02*
X0101030Y0026710D01*
D26*
X0108670Y0020500D02*
X0108670Y0020200D01*
X0112370Y0044000D01*
X0112370Y0074090D01*
X0117670Y0079380D01*
X0131170Y0047200D02*
X0131170Y0046000D01*
X0131170Y0047200D02*
X0132170Y0047200D01*
X0135370Y0044000D02*
X0135370Y0022200D01*
X0133670Y0020500D01*
X0133670Y0020200D01*
X0127170Y0042000D02*
X0127170Y0043200D01*
X0127970Y0044000D01*
X0150970Y0027800D02*
X0143670Y0020500D01*
X0144170Y0020200D01*
X0150970Y0027800D02*
X0150970Y0044000D01*
X0151470Y0073090D01*
X0145670Y0078880D01*
D10*
X0139170Y0083500D02*
X0141340Y0085670D01*
X0141340Y0089120D01*
X0137670Y0093500D02*
X0139670Y0095000D01*
X0157670Y0095000D01*
X0162170Y0099500D01*
X0162170Y0100500D01*
X0155670Y0107000D02*
X0155670Y0120500D01*
X0162170Y0120500D01*
X0155670Y0107000D02*
X0153670Y0105000D01*
X0132170Y0105000D01*
X0132170Y0088540D01*
X0134170Y0086040D01*
X0136170Y0083000D02*
X0137670Y0084000D01*
X0137670Y0093500D01*
X0139170Y0083500D02*
X0139170Y0083460D01*
X0134170Y0078960D01*
X0136170Y0083000D02*
X0128670Y0083000D01*
X0128670Y0086040D01*
X0123630Y0084000D02*
X0128670Y0078960D01*
X0123630Y0084000D02*
X0114670Y0084000D01*
X0113340Y0085330D01*
X0113340Y0089620D01*
X0109630Y0102960D02*
X0109170Y0102960D01*
X0108130Y0104000D01*
X0107170Y0104000D01*
X0102170Y0109000D01*
X0102170Y0110500D01*
X0102170Y0120500D02*
X0105210Y0123540D01*
X0109670Y0123540D01*
X0109710Y0123500D01*
X0114670Y0123500D01*
X0117170Y0121000D01*
X0117170Y0120500D01*
X0117170Y0110500D02*
X0109630Y0102960D01*
X0109170Y0110040D02*
X0109670Y0110540D01*
X0109670Y0116460D01*
X0110630Y0115500D01*
X0121670Y0115500D01*
X0122170Y0116000D01*
X0122170Y0156000D01*
X0121670Y0156500D01*
X0122170Y0156500D01*
X0122670Y0156500D01*
X0131670Y0165500D01*
X0131670Y0172000D01*
X0134670Y0175000D01*
X0142670Y0175000D01*
X0147170Y0170500D01*
X0147170Y0160500D02*
X0162170Y0160500D01*
X0162170Y0190500D02*
X0135670Y0190500D01*
X0131670Y0186500D01*
X0131670Y0176500D01*
X0131170Y0176000D01*
X0121670Y0176000D01*
X0117170Y0180500D01*
X0117170Y0190500D02*
X0102170Y0190500D01*
X0102170Y0180500D02*
X0105170Y0180500D01*
X0111170Y0174500D01*
X0111170Y0167000D01*
X0121670Y0156500D01*
X0127170Y0180500D02*
X0117170Y0190500D01*
X0137170Y0170500D02*
X0147170Y0160500D01*
D22*
X0122170Y0156500D03*
X0132170Y0058000D03*
D31*
X0132170Y0047200D01*
X0135370Y0044000D01*
X0131170Y0046000D02*
X0127170Y0042000D01*
X0133670Y0020500D02*
X0118670Y0020500D01*
M02*
