G04 EAGLE Gerber RS-274X export*
G75*
%MOMM*%
%FSLAX34Y34*%
%LPD*%
%INSilkscreen Top*%
%IPPOS*%
%AMOC8*
5,1,8,0,0,1.08239X$1,22.5*%
G01*
%ADD10C,0.152400*%
%ADD11C,0.127000*%


D10*
X74594Y97282D02*
X80017Y97282D01*
X82729Y99994D01*
X82729Y105417D01*
X80017Y108129D01*
X74594Y108129D01*
X71882Y105417D01*
X71882Y99994D01*
X74594Y97282D01*
X88254Y99994D02*
X88254Y108129D01*
X88254Y99994D02*
X90965Y97282D01*
X99100Y97282D01*
X99100Y108129D01*
X107337Y110840D02*
X107337Y99994D01*
X110048Y97282D01*
X110048Y108129D02*
X104625Y108129D01*
X35739Y112282D02*
X24892Y112282D01*
X24892Y104147D01*
X30315Y106859D01*
X33027Y106859D01*
X35739Y104147D01*
X35739Y98724D01*
X33027Y96012D01*
X27604Y96012D01*
X24892Y98724D01*
X41264Y106859D02*
X46687Y96012D01*
X52110Y106859D01*
D11*
X154509Y18844D02*
X155314Y18039D01*
X156119Y18039D01*
X156924Y18844D01*
X156924Y22869D01*
X156119Y22869D02*
X157729Y22869D01*
X160122Y21259D02*
X161732Y22869D01*
X161732Y18039D01*
X160122Y18039D02*
X163342Y18039D01*
X91814Y18039D02*
X91009Y18844D01*
X91814Y18039D02*
X92619Y18039D01*
X93424Y18844D01*
X93424Y22869D01*
X92619Y22869D02*
X94229Y22869D01*
X96622Y18039D02*
X99842Y18039D01*
X96622Y18039D02*
X99842Y21259D01*
X99842Y22064D01*
X99037Y22869D01*
X97427Y22869D01*
X96622Y22064D01*
X28314Y18039D02*
X27509Y18844D01*
X28314Y18039D02*
X29119Y18039D01*
X29924Y18844D01*
X29924Y22869D01*
X29119Y22869D02*
X30729Y22869D01*
X33122Y22064D02*
X33927Y22869D01*
X35537Y22869D01*
X36342Y22064D01*
X36342Y21259D01*
X35537Y20454D01*
X34732Y20454D01*
X35537Y20454D02*
X36342Y19649D01*
X36342Y18844D01*
X35537Y18039D01*
X33927Y18039D01*
X33122Y18844D01*
M02*
