G04 EAGLE Gerber RS-274X export*
G75*
%MOMM*%
%FSLAX34Y34*%
%LPD*%
%INSilkscreen Bottom*%
%IPPOS*%
%AMOC8*
5,1,8,0,0,1.08239X$1,22.5*%
G01*
%ADD10C,0.076200*%
%ADD11C,0.101600*%
%ADD12C,0.152400*%


D10*
X144407Y114413D02*
X149620Y119626D01*
X151358Y117888D02*
X147882Y121364D01*
X146066Y123181D02*
X137377Y121443D01*
X140853Y117968D02*
X142590Y126656D01*
X146653Y134773D02*
X151866Y139986D01*
X149259Y142593D01*
X147522Y142593D01*
X145784Y140855D01*
X145784Y139118D01*
X148390Y136511D01*
X146653Y138249D02*
X143177Y138249D01*
X137885Y143541D02*
X146574Y145279D01*
X143098Y148754D02*
X141361Y140066D01*
X140081Y162207D02*
X147453Y162207D01*
X147453Y165893D01*
X146225Y167122D01*
X143767Y167122D01*
X142538Y165893D01*
X142538Y162207D01*
X142538Y164664D02*
X140081Y167122D01*
X147453Y173377D02*
X146225Y174606D01*
X147453Y173377D02*
X147453Y170920D01*
X146225Y169691D01*
X144996Y169691D01*
X143767Y170920D01*
X143767Y173377D01*
X142538Y174606D01*
X141310Y174606D01*
X140081Y173377D01*
X140081Y170920D01*
X141310Y169691D01*
X140081Y179633D02*
X147453Y179633D01*
X147453Y182090D02*
X147453Y177175D01*
X148215Y193579D02*
X146987Y194808D01*
X148215Y193579D02*
X148215Y191122D01*
X146987Y189893D01*
X142072Y189893D01*
X140843Y191122D01*
X140843Y193579D01*
X142072Y194808D01*
X144529Y194808D01*
X144529Y192350D01*
X140843Y197377D02*
X148215Y197377D01*
X140843Y202292D01*
X148215Y202292D01*
X148215Y204861D02*
X140843Y204861D01*
X140843Y208547D01*
X142072Y209776D01*
X146987Y209776D01*
X148215Y208547D01*
X148215Y204861D01*
X147961Y222151D02*
X140589Y222151D01*
X140589Y225837D01*
X141818Y227066D01*
X146733Y227066D01*
X147961Y225837D01*
X147961Y222151D01*
X140589Y229635D02*
X140589Y234550D01*
X140589Y229635D02*
X145504Y234550D01*
X146733Y234550D01*
X147961Y233321D01*
X147961Y230864D01*
X146733Y229635D01*
X147453Y246535D02*
X140081Y246535D01*
X140081Y250221D01*
X141310Y251450D01*
X146225Y251450D01*
X147453Y250221D01*
X147453Y246535D01*
X146225Y254019D02*
X147453Y255248D01*
X147453Y257705D01*
X146225Y258934D01*
X144996Y258934D01*
X143767Y257705D01*
X143767Y256477D01*
X143767Y257705D02*
X142538Y258934D01*
X141310Y258934D01*
X140081Y257705D01*
X140081Y255248D01*
X141310Y254019D01*
X140589Y272189D02*
X147961Y272189D01*
X140589Y272189D02*
X140589Y275875D01*
X141818Y277104D01*
X146733Y277104D01*
X147961Y275875D01*
X147961Y272189D01*
X147961Y283359D02*
X140589Y283359D01*
X144275Y279673D02*
X147961Y283359D01*
X144275Y284588D02*
X144275Y279673D01*
X147707Y297335D02*
X140335Y297335D01*
X140335Y301021D01*
X141564Y302250D01*
X146479Y302250D01*
X147707Y301021D01*
X147707Y297335D01*
X147707Y304819D02*
X147707Y309734D01*
X147707Y304819D02*
X144021Y304819D01*
X145250Y307277D01*
X145250Y308505D01*
X144021Y309734D01*
X141564Y309734D01*
X140335Y308505D01*
X140335Y306048D01*
X141564Y304819D01*
X140335Y322989D02*
X147707Y322989D01*
X140335Y322989D02*
X140335Y326675D01*
X141564Y327904D01*
X146479Y327904D01*
X147707Y326675D01*
X147707Y322989D01*
X146479Y332931D02*
X147707Y335388D01*
X146479Y332931D02*
X144021Y330473D01*
X141564Y330473D01*
X140335Y331702D01*
X140335Y334159D01*
X141564Y335388D01*
X142792Y335388D01*
X144021Y334159D01*
X144021Y330473D01*
X140589Y351437D02*
X147961Y351437D01*
X140589Y351437D02*
X140589Y355123D01*
X141818Y356352D01*
X146733Y356352D01*
X147961Y355123D01*
X147961Y351437D01*
X147961Y358921D02*
X147961Y363836D01*
X146733Y363836D01*
X141818Y358921D01*
X140589Y358921D01*
X141351Y373789D02*
X148723Y373789D01*
X141351Y373789D02*
X141351Y377475D01*
X142580Y378704D01*
X147495Y378704D01*
X148723Y377475D01*
X148723Y373789D01*
X147495Y381273D02*
X148723Y382502D01*
X148723Y384959D01*
X147495Y386188D01*
X146266Y386188D01*
X145037Y384959D01*
X143808Y386188D01*
X142580Y386188D01*
X141351Y384959D01*
X141351Y382502D01*
X142580Y381273D01*
X143808Y381273D01*
X145037Y382502D01*
X146266Y381273D01*
X147495Y381273D01*
X145037Y382502D02*
X145037Y384959D01*
X148723Y397919D02*
X141351Y397919D01*
X141351Y401605D01*
X142580Y402834D01*
X147495Y402834D01*
X148723Y401605D01*
X148723Y397919D01*
X142580Y405403D02*
X141351Y406632D01*
X141351Y409089D01*
X142580Y410318D01*
X147495Y410318D01*
X148723Y409089D01*
X148723Y406632D01*
X147495Y405403D01*
X146266Y405403D01*
X145037Y406632D01*
X145037Y410318D01*
X158539Y433731D02*
X153801Y439378D01*
X158539Y433731D02*
X155716Y431361D01*
X153985Y431513D01*
X150826Y435278D01*
X150977Y437009D01*
X153801Y439378D01*
X149647Y432685D02*
X146185Y432988D01*
X150924Y427340D01*
X152806Y428920D02*
X149041Y425761D01*
X146283Y425050D02*
X143124Y428815D01*
X141393Y428967D01*
X139511Y427387D01*
X139359Y425656D01*
X142518Y421891D01*
X144249Y421740D01*
X146132Y423319D01*
X146283Y425050D01*
X139359Y425656D01*
X158793Y459893D02*
X154055Y465540D01*
X158793Y459893D02*
X155970Y457523D01*
X154239Y457675D01*
X151080Y461440D01*
X151231Y463171D01*
X154055Y465540D01*
X149901Y458847D02*
X146439Y459150D01*
X151178Y453502D01*
X153060Y455082D02*
X149295Y451923D01*
X144168Y454036D02*
X140706Y454339D01*
X145445Y448692D01*
X147327Y450271D02*
X143562Y447112D01*
X158793Y483515D02*
X154055Y489162D01*
X158793Y483515D02*
X155970Y481145D01*
X154239Y481297D01*
X151080Y485062D01*
X151231Y486793D01*
X154055Y489162D01*
X149901Y482469D02*
X146439Y482772D01*
X151178Y477124D01*
X153060Y478704D02*
X149295Y475545D01*
X147327Y473893D02*
X143562Y470734D01*
X147327Y473893D02*
X140403Y474499D01*
X139613Y475440D01*
X139765Y477171D01*
X141647Y478751D01*
X143378Y478599D01*
X46852Y115460D02*
X43377Y111985D01*
X39901Y111985D01*
X39901Y115460D01*
X43377Y118935D01*
X36347Y115539D02*
X34609Y117277D01*
X35478Y116408D02*
X40691Y121621D01*
X41560Y120752D02*
X39822Y122490D01*
X38032Y124280D02*
X32819Y119067D01*
X29343Y122543D02*
X38032Y124280D01*
X34556Y127756D02*
X29343Y122543D01*
X31115Y168557D02*
X38487Y168557D01*
X38487Y172243D01*
X37259Y173472D01*
X34801Y173472D01*
X33572Y172243D01*
X33572Y168557D01*
X33572Y171014D02*
X31115Y173472D01*
X38487Y179727D02*
X37259Y180956D01*
X38487Y179727D02*
X38487Y177270D01*
X37259Y176041D01*
X36030Y176041D01*
X34801Y177270D01*
X34801Y179727D01*
X33572Y180956D01*
X32344Y180956D01*
X31115Y179727D01*
X31115Y177270D01*
X32344Y176041D01*
X31115Y185983D02*
X38487Y185983D01*
X38487Y188440D02*
X38487Y183525D01*
X38487Y196497D02*
X38487Y201412D01*
X38487Y196497D02*
X34801Y196497D01*
X36030Y198954D01*
X36030Y200183D01*
X34801Y201412D01*
X32344Y201412D01*
X31115Y200183D01*
X31115Y197726D01*
X32344Y196497D01*
X33572Y203981D02*
X38487Y203981D01*
X33572Y203981D02*
X31115Y206439D01*
X33572Y208896D01*
X38487Y208896D01*
X36030Y219357D02*
X31115Y219357D01*
X36030Y219357D02*
X38487Y221814D01*
X36030Y224272D01*
X31115Y224272D01*
X34801Y224272D02*
X34801Y219357D01*
X38487Y226841D02*
X38487Y231756D01*
X37259Y231756D01*
X32344Y226841D01*
X31115Y226841D01*
X31115Y246027D02*
X36030Y246027D01*
X38487Y248484D01*
X36030Y250942D01*
X31115Y250942D01*
X34801Y250942D02*
X34801Y246027D01*
X37259Y255969D02*
X38487Y258426D01*
X37259Y255969D02*
X34801Y253511D01*
X32344Y253511D01*
X31115Y254740D01*
X31115Y257197D01*
X32344Y258426D01*
X33572Y258426D01*
X34801Y257197D01*
X34801Y253511D01*
X35776Y270919D02*
X30861Y270919D01*
X35776Y270919D02*
X38233Y273376D01*
X35776Y275834D01*
X30861Y275834D01*
X34547Y275834D02*
X34547Y270919D01*
X38233Y278403D02*
X38233Y283318D01*
X38233Y278403D02*
X34547Y278403D01*
X35776Y280861D01*
X35776Y282089D01*
X34547Y283318D01*
X32090Y283318D01*
X30861Y282089D01*
X30861Y279632D01*
X32090Y278403D01*
X31115Y298097D02*
X36030Y298097D01*
X38487Y300554D01*
X36030Y303012D01*
X31115Y303012D01*
X34801Y303012D02*
X34801Y298097D01*
X31115Y309267D02*
X38487Y309267D01*
X34801Y305581D01*
X34801Y310496D01*
X36030Y323497D02*
X31115Y323497D01*
X36030Y323497D02*
X38487Y325954D01*
X36030Y328412D01*
X31115Y328412D01*
X34801Y328412D02*
X34801Y323497D01*
X37259Y330981D02*
X38487Y332210D01*
X38487Y334667D01*
X37259Y335896D01*
X36030Y335896D01*
X34801Y334667D01*
X34801Y333439D01*
X34801Y334667D02*
X33572Y335896D01*
X32344Y335896D01*
X31115Y334667D01*
X31115Y332210D01*
X32344Y330981D01*
X31115Y350167D02*
X36030Y350167D01*
X38487Y352624D01*
X36030Y355082D01*
X31115Y355082D01*
X34801Y355082D02*
X34801Y350167D01*
X31115Y357651D02*
X31115Y362566D01*
X31115Y357651D02*
X36030Y362566D01*
X37259Y362566D01*
X38487Y361337D01*
X38487Y358880D01*
X37259Y357651D01*
X36030Y375567D02*
X31115Y375567D01*
X36030Y375567D02*
X38487Y378024D01*
X36030Y380482D01*
X31115Y380482D01*
X34801Y380482D02*
X34801Y375567D01*
X36030Y383051D02*
X38487Y385509D01*
X31115Y385509D01*
X31115Y387966D02*
X31115Y383051D01*
X31115Y399697D02*
X36030Y399697D01*
X38487Y402154D01*
X36030Y404612D01*
X31115Y404612D01*
X34801Y404612D02*
X34801Y399697D01*
X32344Y407181D02*
X37259Y407181D01*
X38487Y408410D01*
X38487Y410867D01*
X37259Y412096D01*
X32344Y412096D01*
X31115Y410867D01*
X31115Y408410D01*
X32344Y407181D01*
X37259Y412096D01*
X37338Y415603D02*
X40813Y419078D01*
X40813Y422553D01*
X37338Y422553D01*
X33863Y419078D01*
X36469Y421685D02*
X39945Y418209D01*
X32046Y420895D02*
X37259Y426108D01*
X34652Y428714D01*
X32915Y428714D01*
X31177Y426977D01*
X31177Y425239D01*
X33784Y422633D01*
X32046Y424370D02*
X28571Y424370D01*
X31967Y431400D02*
X28492Y434875D01*
X31967Y431400D02*
X26754Y426187D01*
X23279Y429662D01*
X27623Y430531D02*
X29360Y428793D01*
X21462Y431479D02*
X26675Y436692D01*
X23199Y440167D01*
X22331Y435823D02*
X24068Y434086D01*
X43206Y448141D02*
X43206Y449879D01*
X41469Y451616D01*
X39731Y451616D01*
X38862Y450747D01*
X38862Y449010D01*
X39731Y448141D01*
X38862Y449010D02*
X37124Y449010D01*
X36256Y448141D01*
X36256Y446403D01*
X37993Y444666D01*
X39731Y444666D01*
X35308Y450827D02*
X38783Y454302D01*
X35308Y450827D02*
X31832Y450827D01*
X31832Y454302D01*
X35308Y457777D01*
X32622Y458725D02*
X32622Y460463D01*
X30884Y462200D01*
X29147Y462200D01*
X28278Y461332D01*
X28278Y459594D01*
X29147Y458725D01*
X28278Y459594D02*
X26540Y459594D01*
X25671Y458725D01*
X25671Y456987D01*
X27409Y455250D01*
X29147Y455250D01*
X30607Y471325D02*
X37979Y471325D01*
X30607Y471325D02*
X30607Y475011D01*
X31836Y476240D01*
X36751Y476240D01*
X37979Y475011D01*
X37979Y471325D01*
X35522Y478809D02*
X37979Y481267D01*
X30607Y481267D01*
X30607Y483724D02*
X30607Y478809D01*
X36751Y486293D02*
X37979Y487522D01*
X37979Y489979D01*
X36751Y491208D01*
X35522Y491208D01*
X34293Y489979D01*
X34293Y488751D01*
X34293Y489979D02*
X33064Y491208D01*
X31836Y491208D01*
X30607Y489979D01*
X30607Y487522D01*
X31836Y486293D01*
X38529Y141976D02*
X39757Y140747D01*
X39757Y138290D01*
X38529Y137061D01*
X33614Y137061D01*
X32385Y138290D01*
X32385Y140747D01*
X33614Y141976D01*
X36071Y141976D01*
X36071Y139518D01*
X32385Y144545D02*
X39757Y144545D01*
X32385Y149460D01*
X39757Y149460D01*
X39757Y152029D02*
X32385Y152029D01*
X32385Y155715D01*
X33614Y156944D01*
X38529Y156944D01*
X39757Y155715D01*
X39757Y152029D01*
D11*
X125536Y155448D02*
X125536Y167142D01*
X117740Y155448D01*
X117740Y167142D01*
X111893Y163244D02*
X107995Y163244D01*
X106046Y161295D01*
X106046Y155448D01*
X111893Y155448D01*
X113842Y157397D01*
X111893Y159346D01*
X106046Y159346D01*
X102148Y155448D02*
X102148Y163244D01*
X96301Y163244D01*
X94352Y161295D01*
X94352Y155448D01*
X88505Y155448D02*
X84607Y155448D01*
X82658Y157397D01*
X82658Y161295D01*
X84607Y163244D01*
X88505Y163244D01*
X90454Y161295D01*
X90454Y157397D01*
X88505Y155448D01*
X78760Y155448D02*
X78760Y167142D01*
X72913Y167142D01*
X70964Y165193D01*
X70964Y161295D01*
X72913Y159346D01*
X78760Y159346D01*
X74862Y159346D02*
X70964Y155448D01*
X67066Y155448D02*
X67066Y167142D01*
X59270Y167142D01*
X63168Y161295D02*
X67066Y161295D01*
D10*
X111269Y141351D02*
X114404Y147622D01*
X108133Y147622D02*
X111269Y141351D01*
X105049Y141351D02*
X98778Y141351D01*
X105049Y141351D02*
X98778Y147622D01*
X98778Y149189D01*
X100346Y150757D01*
X103481Y150757D01*
X105049Y149189D01*
X95694Y142919D02*
X95694Y141351D01*
X95694Y142919D02*
X94126Y142919D01*
X94126Y141351D01*
X95694Y141351D01*
X91016Y142919D02*
X91016Y149189D01*
X89449Y150757D01*
X86313Y150757D01*
X84746Y149189D01*
X84746Y142919D01*
X86313Y141351D01*
X89449Y141351D01*
X91016Y142919D01*
X84746Y149189D01*
D12*
X100323Y97282D02*
X105746Y97282D01*
X100323Y97282D02*
X97611Y99994D01*
X97611Y105417D01*
X100323Y108129D01*
X105746Y108129D01*
X108458Y105417D01*
X108458Y99994D01*
X105746Y97282D01*
X92086Y99994D02*
X92086Y108129D01*
X92086Y99994D02*
X89375Y97282D01*
X81240Y97282D01*
X81240Y108129D01*
X73003Y110840D02*
X73003Y99994D01*
X70292Y97282D01*
X70292Y108129D02*
X75715Y108129D01*
X151466Y106859D02*
X154178Y106859D01*
X151466Y106859D02*
X151466Y96012D01*
X148755Y96012D02*
X154178Y96012D01*
X151466Y112282D02*
X151466Y114994D01*
X143264Y106859D02*
X143264Y96012D01*
X143264Y106859D02*
X135129Y106859D01*
X132417Y104147D01*
X132417Y96012D01*
X36068Y112282D02*
X25221Y112282D01*
X36068Y112282D02*
X36068Y104147D01*
X30645Y106859D01*
X27933Y106859D01*
X25221Y104147D01*
X25221Y98724D01*
X27933Y96012D01*
X33356Y96012D01*
X36068Y98724D01*
X19696Y106859D02*
X14273Y96012D01*
X8850Y106859D01*
X143002Y106859D02*
X145714Y106859D01*
X145714Y96012D01*
X148425Y96012D02*
X143002Y96012D01*
X145714Y112282D02*
X145714Y114994D01*
X153916Y106859D02*
X153916Y96012D01*
X153916Y106859D02*
X162051Y106859D01*
X164763Y104147D01*
X164763Y96012D01*
M02*
