M48
;GenerationSoftware,Autodesk,EAGLE,9.3.2*%
;CreationDate,2019-04-25T07:35:23Z*%
FMAT,2
ICI,OFF
METRIC,TZ,000.000
T2C0.700
T1C1.000
%
G90
M71
T1
X1270Y48260
X1270Y45720
X1270Y43180
X1270Y40640
X1270Y38100
X1270Y35560
X1270Y33020
X1270Y30480
X1270Y27940
X1270Y25400
X1270Y22860
X1270Y20320
X1270Y17780
X1270Y15240
X1270Y12700
X16510Y48260
X16510Y45720
X16510Y43180
X16510Y40640
X16510Y38100
X16510Y35560
X16510Y33020
X16510Y30480
X16510Y27940
X16510Y25400
X16510Y22860
X16510Y20320
X16510Y17780
X16510Y15240
X16510Y12700
T2
X16240Y7620
X14240Y7620
X9890Y7620
X7890Y7620
X3540Y7620
X1540Y7620
M30