G75*
%MOIN*%
%OFA0B0*%
%FSLAX24Y24*%
%IPPOS*%
%LPD*%
%AMOC8*
5,1,8,0,0,1.08239X$1,22.5*
%
%ADD10C,0.0000*%
%ADD11C,0.0160*%
%ADD12C,0.0080*%
%ADD13R,0.1142X0.0591*%
%ADD14R,0.0512X0.0591*%
%ADD15R,0.0540X0.0867*%
%ADD16C,0.0700*%
%ADD17R,0.0355X0.0512*%
%ADD18C,0.0000*%
%ADD19C,0.1340*%
%ADD20C,0.0780*%
%ADD21C,0.0375*%
%ADD22C,0.0800*%
D10*
X030992Y033994D02*
X030992Y053680D01*
X050677Y053680D01*
X050677Y033994D01*
X030992Y033994D01*
D11*
X038192Y034394D02*
X038192Y034805D01*
X038192Y035198D02*
X038192Y035609D01*
X038192Y036002D02*
X038192Y036413D01*
X038192Y036806D02*
X038192Y037216D01*
X038192Y037610D02*
X038192Y038020D01*
X038192Y038414D02*
X038192Y038824D01*
X038192Y039218D02*
X038192Y039628D01*
X038192Y040022D02*
X038192Y040432D01*
X038192Y040826D02*
X038192Y041236D01*
X038192Y041630D02*
X038192Y042040D01*
X038192Y042434D02*
X038192Y042844D01*
X038192Y043237D02*
X038192Y043648D01*
X038192Y044041D02*
X038192Y044452D01*
X038192Y044845D02*
X038192Y045255D01*
X038192Y045649D02*
X038192Y046059D01*
X038192Y046453D02*
X038192Y046863D01*
X038192Y047257D02*
X038192Y047667D01*
X038192Y048061D02*
X038192Y048471D01*
X038192Y048865D02*
X038192Y049275D01*
X038192Y049669D02*
X038192Y050079D01*
X038192Y050473D02*
X038192Y050883D01*
X038192Y051276D02*
X038192Y051687D01*
X038192Y052080D02*
X038192Y052491D01*
X038192Y052884D02*
X038192Y053294D01*
X045692Y053394D02*
X045692Y052984D01*
X045692Y052591D02*
X045692Y052180D01*
X045692Y051787D02*
X045692Y051376D01*
X045692Y050983D02*
X045692Y050573D01*
X045692Y050179D02*
X045692Y049769D01*
X045692Y049375D02*
X045692Y048965D01*
X045692Y048571D02*
X045692Y048161D01*
X045692Y047767D02*
X045692Y047357D01*
X045692Y046963D02*
X045692Y046553D01*
X045692Y046159D02*
X045692Y045749D01*
X045692Y045355D02*
X045692Y044945D01*
X045692Y044552D02*
X045692Y044141D01*
X045692Y043748D02*
X045692Y043337D01*
X045692Y042944D02*
X045692Y042534D01*
X045692Y042140D02*
X045692Y041730D01*
X045692Y041336D02*
X045692Y040926D01*
X045692Y040532D02*
X045692Y040122D01*
X045692Y039728D02*
X045692Y039318D01*
X045692Y038924D02*
X045692Y038514D01*
X045692Y038120D02*
X045692Y037710D01*
X045692Y037316D02*
X045692Y036906D01*
X045692Y036513D02*
X045692Y036102D01*
X045692Y035709D02*
X045692Y035298D01*
X045692Y034905D02*
X045692Y034494D01*
D12*
X046092Y038094D02*
X050092Y038094D01*
X050092Y049594D01*
X046092Y049594D01*
X046092Y038094D01*
D13*
X042842Y044914D03*
X042842Y048364D03*
X041042Y048714D03*
X040992Y045345D03*
X035442Y044914D03*
X033592Y045345D03*
X033642Y048714D03*
X035442Y048364D03*
D14*
X035009Y049387D03*
X034075Y049737D03*
X033209Y049737D03*
X033159Y046369D03*
X034025Y046369D03*
X035009Y045937D03*
X035875Y045937D03*
X035875Y049387D03*
X040609Y049737D03*
X041475Y049737D03*
X042409Y049387D03*
X043275Y049387D03*
X043275Y045937D03*
X042409Y045937D03*
X041425Y046369D03*
X040559Y046369D03*
D15*
X040000Y043294D03*
X040131Y041244D03*
X041559Y043294D03*
X042194Y043294D03*
X042275Y041244D03*
X041691Y041244D03*
X043834Y041244D03*
X043753Y043294D03*
X036353Y043294D03*
X036434Y041244D03*
X034875Y041244D03*
X034291Y041244D03*
X034159Y043294D03*
X034794Y043294D03*
X032600Y043294D03*
X032731Y041244D03*
D16*
X031492Y041126D03*
X031492Y042126D03*
X031492Y043126D03*
X031492Y044126D03*
X031492Y045126D03*
X031492Y046126D03*
X031492Y047126D03*
X031492Y048126D03*
X031492Y049126D03*
X031492Y050126D03*
X031492Y051126D03*
X031492Y052126D03*
X031492Y053126D03*
X037492Y053126D03*
X037492Y052126D03*
X037492Y051126D03*
X037492Y050126D03*
X037492Y049126D03*
X037492Y048126D03*
X037492Y047126D03*
X037492Y046126D03*
X037492Y045126D03*
X037492Y044126D03*
X037492Y043126D03*
X037492Y042126D03*
X037492Y041126D03*
X037492Y040126D03*
X037492Y039126D03*
X038892Y039126D03*
X038892Y040126D03*
X038892Y041126D03*
X038892Y042126D03*
X038892Y043126D03*
X038892Y044126D03*
X038892Y045126D03*
X038892Y046126D03*
X038892Y047126D03*
X038892Y048126D03*
X038892Y049126D03*
X038892Y050126D03*
X038892Y051126D03*
X038892Y052126D03*
X038892Y053126D03*
X044892Y053126D03*
X044892Y052126D03*
X044892Y051126D03*
X044892Y050126D03*
X044892Y049126D03*
X044892Y048126D03*
X044892Y047126D03*
X044892Y046126D03*
X044892Y045126D03*
X044892Y044126D03*
X044892Y043126D03*
X044892Y042126D03*
X044892Y041126D03*
X044892Y040126D03*
X044892Y039126D03*
X031492Y039126D03*
X031492Y040126D03*
D17*
X033188Y047201D03*
X033896Y047201D03*
X035088Y046776D03*
X035796Y046776D03*
X035796Y050276D03*
X035088Y050276D03*
X034046Y050576D03*
X033338Y050576D03*
X040588Y047201D03*
X041296Y047201D03*
X042488Y046776D03*
X043196Y046776D03*
X043196Y050276D03*
X042488Y050276D03*
X041446Y050576D03*
X040738Y050576D03*
D18*
X047177Y039489D02*
X047179Y039514D01*
X047185Y039539D01*
X047194Y039563D01*
X047207Y039585D01*
X047224Y039605D01*
X047243Y039622D01*
X047264Y039636D01*
X047288Y039646D01*
X047312Y039653D01*
X047338Y039656D01*
X047363Y039655D01*
X047388Y039650D01*
X047412Y039641D01*
X047435Y039629D01*
X047455Y039614D01*
X047473Y039595D01*
X047488Y039574D01*
X047499Y039551D01*
X047507Y039527D01*
X047511Y039502D01*
X047511Y039476D01*
X047507Y039451D01*
X047499Y039427D01*
X047488Y039404D01*
X047473Y039383D01*
X047455Y039364D01*
X047435Y039349D01*
X047412Y039337D01*
X047388Y039328D01*
X047363Y039323D01*
X047338Y039322D01*
X047312Y039325D01*
X047288Y039332D01*
X047264Y039342D01*
X047243Y039356D01*
X047224Y039373D01*
X047207Y039393D01*
X047194Y039415D01*
X047185Y039439D01*
X047179Y039464D01*
X047177Y039489D01*
X047442Y043594D02*
X047444Y043644D01*
X047450Y043694D01*
X047460Y043744D01*
X047473Y043792D01*
X047490Y043840D01*
X047511Y043886D01*
X047535Y043930D01*
X047563Y043972D01*
X047594Y044012D01*
X047628Y044049D01*
X047665Y044084D01*
X047704Y044115D01*
X047745Y044144D01*
X047789Y044169D01*
X047835Y044191D01*
X047882Y044209D01*
X047930Y044223D01*
X047979Y044234D01*
X048029Y044241D01*
X048079Y044244D01*
X048130Y044243D01*
X048180Y044238D01*
X048230Y044229D01*
X048278Y044217D01*
X048326Y044200D01*
X048372Y044180D01*
X048417Y044157D01*
X048460Y044130D01*
X048500Y044100D01*
X048538Y044067D01*
X048573Y044031D01*
X048606Y043992D01*
X048635Y043951D01*
X048661Y043908D01*
X048684Y043863D01*
X048703Y043816D01*
X048718Y043768D01*
X048730Y043719D01*
X048738Y043669D01*
X048742Y043619D01*
X048742Y043569D01*
X048738Y043519D01*
X048730Y043469D01*
X048718Y043420D01*
X048703Y043372D01*
X048684Y043325D01*
X048661Y043280D01*
X048635Y043237D01*
X048606Y043196D01*
X048573Y043157D01*
X048538Y043121D01*
X048500Y043088D01*
X048460Y043058D01*
X048417Y043031D01*
X048372Y043008D01*
X048326Y042988D01*
X048278Y042971D01*
X048230Y042959D01*
X048180Y042950D01*
X048130Y042945D01*
X048079Y042944D01*
X048029Y042947D01*
X047979Y042954D01*
X047930Y042965D01*
X047882Y042979D01*
X047835Y042997D01*
X047789Y043019D01*
X047745Y043044D01*
X047704Y043073D01*
X047665Y043104D01*
X047628Y043139D01*
X047594Y043176D01*
X047563Y043216D01*
X047535Y043258D01*
X047511Y043302D01*
X047490Y043348D01*
X047473Y043396D01*
X047460Y043444D01*
X047450Y043494D01*
X047444Y043544D01*
X047442Y043594D01*
X048673Y039489D02*
X048675Y039514D01*
X048681Y039539D01*
X048690Y039563D01*
X048703Y039585D01*
X048720Y039605D01*
X048739Y039622D01*
X048760Y039636D01*
X048784Y039646D01*
X048808Y039653D01*
X048834Y039656D01*
X048859Y039655D01*
X048884Y039650D01*
X048908Y039641D01*
X048931Y039629D01*
X048951Y039614D01*
X048969Y039595D01*
X048984Y039574D01*
X048995Y039551D01*
X049003Y039527D01*
X049007Y039502D01*
X049007Y039476D01*
X049003Y039451D01*
X048995Y039427D01*
X048984Y039404D01*
X048969Y039383D01*
X048951Y039364D01*
X048931Y039349D01*
X048908Y039337D01*
X048884Y039328D01*
X048859Y039323D01*
X048834Y039322D01*
X048808Y039325D01*
X048784Y039332D01*
X048760Y039342D01*
X048739Y039356D01*
X048720Y039373D01*
X048703Y039393D01*
X048690Y039415D01*
X048681Y039439D01*
X048675Y039464D01*
X048673Y039489D01*
D19*
X048092Y043594D03*
D20*
X047592Y045094D03*
X048592Y045094D03*
D21*
X048840Y039489D03*
X047344Y039489D03*
D22*
X049592Y041094D03*
X049592Y042094D03*
M02*
