%
M48
M72
T01C0.0157
T02C0.0200
T03C0.0335
T04C0.0354
T05C0.0394
T06C0.0400
%
T01
X31982Y38844
X32671Y36596
X35990Y39526
X36540Y40059
X36563Y38234
X36595Y36387
X39382Y38844
X40071Y36596
X43390Y39526
X43940Y40059
X43963Y38234
X43995Y36387
X43286Y43729
X43289Y47759
X41744Y47544
X41934Y48843
X35889Y47759
X34534Y48843
X34344Y47544
X35886Y43729
T02
X46587Y42672
X46653Y44073
X48631Y42273
X48280Y41127
T03
X48840Y39489
X47344Y39489
T04
X49592Y41094
X49592Y42094
T05
X31492Y39126
X31492Y40126
X31492Y41126
X31492Y42126
X31492Y43126
X31492Y44126
X31492Y45126
X31492Y46126
X31492Y47126
X31492Y48126
X31492Y49126
X31492Y50126
X31492Y51126
X31492Y52126
X31492Y53126
X37492Y53126
X37492Y52126
X37492Y51126
X37492Y50126
X37492Y49126
X37492Y48126
X37492Y47126
X37492Y46126
X37492Y45126
X37492Y44126
X37492Y43126
X37492Y42126
X37492Y41126
X37492Y40126
X37492Y39126
X38892Y39126
X38892Y40126
X38892Y41126
X38892Y42126
X38892Y43126
X38892Y44126
X38892Y45126
X38892Y46126
X38892Y47126
X38892Y48126
X38892Y49126
X38892Y50126
X38892Y51126
X38892Y52126
X38892Y53126
X44892Y53126
X44892Y52126
X44892Y51126
X44892Y50126
X44892Y49126
X44892Y48126
X44892Y47126
X44892Y46126
X44892Y45126
X44892Y44126
X44892Y43126
X44892Y42126
X44892Y41126
X44892Y40126
X44892Y39126
T06
X47592Y45094
X48592Y45094
M30
