G75*
%MOIN*%
%OFA0B0*%
%FSLAX24Y24*%
%IPPOS*%
%LPD*%
%AMOC8*
5,1,8,0,0,1.08239X$1,22.5*
%
%ADD10C,0.0000*%
%ADD11R,0.0500X0.0800*%
%ADD12R,0.0354X0.0984*%
%ADD13R,0.0800X0.0800*%
%ADD14R,0.0472X0.0315*%
%ADD15C,0.0118*%
%ADD16R,0.0394X0.0433*%
%ADD17R,0.0217X0.0472*%
%ADD18R,0.0157X0.0551*%
%ADD19C,0.0000*%
%ADD20R,0.0709X0.0591*%
%ADD21R,0.0591X0.0276*%
%ADD22R,0.0394X0.1811*%
%ADD23R,0.0630X0.1339*%
D10*
X030992Y033994D02*
X030992Y053680D01*
X050677Y053680D01*
X050677Y033994D01*
X030992Y033994D01*
D11*
X033492Y037476D03*
X034492Y037476D03*
X035492Y037476D03*
X035492Y039776D03*
X034492Y039776D03*
X033492Y039776D03*
X040892Y039776D03*
X041892Y039776D03*
X042892Y039776D03*
X042892Y037476D03*
X041892Y037476D03*
X040892Y037476D03*
D12*
X041100Y035967D03*
X040600Y035967D03*
X041600Y035967D03*
X042100Y035967D03*
X042600Y035967D03*
X043100Y035967D03*
X043600Y035967D03*
X036200Y035967D03*
X035700Y035967D03*
X035200Y035967D03*
X034700Y035967D03*
X034200Y035967D03*
X033700Y035967D03*
X033200Y035967D03*
D13*
X031492Y035994D03*
X031492Y034994D03*
X031492Y036994D03*
X031492Y037994D03*
X037492Y037994D03*
X037492Y036994D03*
X037492Y035994D03*
X037492Y034994D03*
X038892Y034994D03*
X038892Y035994D03*
X038892Y036994D03*
X038892Y037994D03*
X044892Y037994D03*
X044892Y036994D03*
X044892Y035994D03*
X044892Y034994D03*
D14*
X043842Y036921D03*
X043842Y037630D03*
X039842Y037680D03*
X039842Y036971D03*
X036442Y036921D03*
X036442Y037630D03*
X032442Y037680D03*
X032442Y036971D03*
D15*
X046454Y041338D02*
X046730Y041338D01*
X046454Y041338D02*
X046454Y041614D01*
X046730Y041614D01*
X046730Y041338D01*
X046730Y041455D02*
X046454Y041455D01*
X046454Y041572D02*
X046730Y041572D01*
X046730Y042029D02*
X046454Y042029D01*
X046454Y042305D01*
X046730Y042305D01*
X046730Y042029D01*
X046730Y042146D02*
X046454Y042146D01*
X046454Y042263D02*
X046730Y042263D01*
D16*
X047137Y042120D03*
X047137Y041451D03*
X047136Y040906D03*
X046587Y040907D03*
X046587Y040238D03*
X047136Y040237D03*
X049597Y043057D03*
X049597Y043726D03*
D17*
X048656Y041643D03*
X048282Y041643D03*
X047908Y041643D03*
X047908Y040620D03*
X048656Y040620D03*
D18*
X048604Y039685D03*
X048348Y039685D03*
X048092Y039685D03*
X047836Y039685D03*
X047580Y039685D03*
D19*
X047177Y039489D02*
X047179Y039514D01*
X047185Y039539D01*
X047194Y039563D01*
X047207Y039585D01*
X047224Y039605D01*
X047243Y039622D01*
X047264Y039636D01*
X047288Y039646D01*
X047312Y039653D01*
X047338Y039656D01*
X047363Y039655D01*
X047388Y039650D01*
X047412Y039641D01*
X047435Y039629D01*
X047455Y039614D01*
X047473Y039595D01*
X047488Y039574D01*
X047499Y039551D01*
X047507Y039527D01*
X047511Y039502D01*
X047511Y039476D01*
X047507Y039451D01*
X047499Y039427D01*
X047488Y039404D01*
X047473Y039383D01*
X047455Y039364D01*
X047435Y039349D01*
X047412Y039337D01*
X047388Y039328D01*
X047363Y039323D01*
X047338Y039322D01*
X047312Y039325D01*
X047288Y039332D01*
X047264Y039342D01*
X047243Y039356D01*
X047224Y039373D01*
X047207Y039393D01*
X047194Y039415D01*
X047185Y039439D01*
X047179Y039464D01*
X047177Y039489D01*
X048673Y039489D02*
X048675Y039514D01*
X048681Y039539D01*
X048690Y039563D01*
X048703Y039585D01*
X048720Y039605D01*
X048739Y039622D01*
X048760Y039636D01*
X048784Y039646D01*
X048808Y039653D01*
X048834Y039656D01*
X048859Y039655D01*
X048884Y039650D01*
X048908Y039641D01*
X048931Y039629D01*
X048951Y039614D01*
X048969Y039595D01*
X048984Y039574D01*
X048995Y039551D01*
X049003Y039527D01*
X049007Y039502D01*
X049007Y039476D01*
X049003Y039451D01*
X048995Y039427D01*
X048984Y039404D01*
X048969Y039383D01*
X048951Y039364D01*
X048931Y039349D01*
X048908Y039337D01*
X048884Y039328D01*
X048859Y039323D01*
X048834Y039322D01*
X048808Y039325D01*
X048784Y039332D01*
X048760Y039342D01*
X048739Y039356D01*
X048720Y039373D01*
X048703Y039393D01*
X048690Y039415D01*
X048681Y039439D01*
X048675Y039464D01*
X048673Y039489D01*
D20*
X049543Y038622D03*
X046642Y038622D03*
D21*
X048092Y038622D03*
D22*
X047698Y046638D03*
X048486Y046638D03*
D23*
X049431Y048685D03*
X046754Y048685D03*
M02*
