G75*
%MOIN*%
%OFA0B0*%
%FSLAX24Y24*%
%IPPOS*%
%LPD*%
%AMOC8*
5,1,8,0,0,1.08239X$1,22.5*
%
%ADD10C,0.0000*%
%ADD11C,0.0160*%
%ADD12C,0.0080*%
%ADD13R,0.1102X0.0551*%
%ADD14R,0.0472X0.0551*%
%ADD15R,0.0500X0.0827*%
%ADD16C,0.0660*%
%ADD17R,0.0315X0.0472*%
%ADD18C,0.0000*%
%ADD19C,0.0740*%
%ADD20C,0.0277*%
%ADD21C,0.0100*%
%ADD22C,0.0320*%
D10*
X030992Y033994D02*
X030992Y053680D01*
X050677Y053680D01*
X050677Y033994D01*
X030992Y033994D01*
D11*
X038192Y034394D02*
X038192Y034805D01*
X038192Y035198D02*
X038192Y035609D01*
X038192Y036002D02*
X038192Y036413D01*
X038192Y036806D02*
X038192Y037216D01*
X038192Y037610D02*
X038192Y038020D01*
X038192Y038414D02*
X038192Y038824D01*
X038192Y039218D02*
X038192Y039628D01*
X038192Y040022D02*
X038192Y040432D01*
X038192Y040826D02*
X038192Y041236D01*
X038192Y041630D02*
X038192Y042040D01*
X038192Y042434D02*
X038192Y042844D01*
X038192Y043237D02*
X038192Y043648D01*
X038192Y044041D02*
X038192Y044452D01*
X038192Y044845D02*
X038192Y045255D01*
X038192Y045649D02*
X038192Y046059D01*
X038192Y046453D02*
X038192Y046863D01*
X038192Y047257D02*
X038192Y047667D01*
X038192Y048061D02*
X038192Y048471D01*
X038192Y048865D02*
X038192Y049275D01*
X038192Y049669D02*
X038192Y050079D01*
X038192Y050473D02*
X038192Y050883D01*
X038192Y051276D02*
X038192Y051687D01*
X038192Y052080D02*
X038192Y052491D01*
X038192Y052884D02*
X038192Y053294D01*
X045692Y053394D02*
X045692Y052984D01*
X045692Y052591D02*
X045692Y052180D01*
X045692Y051787D02*
X045692Y051376D01*
X045692Y050983D02*
X045692Y050573D01*
X045692Y050179D02*
X045692Y049769D01*
X045692Y049375D02*
X045692Y048965D01*
X045692Y048571D02*
X045692Y048161D01*
X045692Y047767D02*
X045692Y047357D01*
X045692Y046963D02*
X045692Y046553D01*
X045692Y046159D02*
X045692Y045749D01*
X045692Y045355D02*
X045692Y044945D01*
X045692Y044552D02*
X045692Y044141D01*
X045692Y043748D02*
X045692Y043337D01*
X045692Y042944D02*
X045692Y042534D01*
X045692Y042140D02*
X045692Y041730D01*
X045692Y041336D02*
X045692Y040926D01*
X045692Y040532D02*
X045692Y040122D01*
X045692Y039728D02*
X045692Y039318D01*
X045692Y038924D02*
X045692Y038514D01*
X045692Y038120D02*
X045692Y037710D01*
X045692Y037316D02*
X045692Y036906D01*
X045692Y036513D02*
X045692Y036102D01*
X045692Y035709D02*
X045692Y035298D01*
X045692Y034905D02*
X045692Y034494D01*
X046986Y042273D02*
X046587Y042672D01*
X046986Y042273D02*
X048631Y042273D01*
X048592Y045094D02*
X048592Y045594D01*
X048092Y046094D01*
X047092Y046094D01*
X046592Y045594D01*
X046592Y044134D01*
X046653Y044073D01*
D12*
X044454Y043022D02*
X044464Y042988D01*
X044476Y042955D01*
X044490Y042923D01*
X044892Y042126D01*
X044454Y043021D02*
X044276Y043773D01*
X044262Y043815D02*
X043653Y045296D01*
X043643Y045317D02*
X043476Y045644D01*
X043471Y045662D02*
X043471Y045702D01*
X043275Y045937D01*
X043079Y045702D01*
X043039Y045702D01*
X043023Y045698D02*
X042694Y045552D01*
X042645Y045542D02*
X042173Y045542D01*
X042085Y045580D02*
X041632Y046066D01*
X041621Y046093D02*
X041621Y046133D01*
X041425Y046369D01*
X041361Y046604D01*
X041361Y047005D01*
X041296Y047201D01*
X041414Y047397D01*
X041454Y047397D01*
X041480Y047406D02*
X041744Y047544D01*
X041897Y047796D02*
X044892Y047126D01*
X044892Y046126D02*
X043421Y047112D01*
X043354Y047132D02*
X043039Y047132D01*
X043014Y047129D02*
X042637Y047051D01*
X042627Y047048D01*
X042618Y047041D01*
X042611Y047033D01*
X042606Y047023D01*
X042605Y047012D01*
X042605Y046972D01*
X042488Y046776D01*
X042448Y046579D01*
X042448Y046539D01*
X042448Y046213D01*
X042448Y046173D01*
X042409Y045937D01*
X042173Y045542D02*
X042153Y045544D01*
X042134Y045548D01*
X042116Y045556D01*
X042100Y045567D01*
X042085Y045580D01*
X042645Y045542D02*
X042662Y045543D01*
X042678Y045547D01*
X042694Y045552D01*
X043023Y045699D02*
X043031Y045701D01*
X043039Y045702D01*
X043275Y045937D02*
X043236Y046173D01*
X043236Y046579D01*
X043196Y046776D01*
X043039Y047132D02*
X043027Y047131D01*
X043015Y047129D01*
X043354Y047132D02*
X043372Y047131D01*
X043389Y047127D01*
X043405Y047120D01*
X043421Y047112D01*
X043289Y047759D02*
X043289Y048128D01*
X042842Y048364D01*
X042768Y048894D02*
X042970Y048994D01*
X043047Y049073D01*
X043057Y049076D01*
X043066Y049083D01*
X043073Y049091D01*
X043078Y049101D01*
X043079Y049112D01*
X043079Y049152D01*
X043275Y049387D01*
X043236Y049623D01*
X043236Y050079D01*
X043196Y050276D01*
X043039Y050632D02*
X043022Y050631D01*
X043006Y050627D01*
X042990Y050622D01*
X042662Y050475D01*
X042645Y050472D02*
X042605Y050472D01*
X042488Y050276D01*
X042448Y050079D01*
X042448Y050039D01*
X042448Y049663D01*
X042448Y049623D01*
X042409Y049387D01*
X042768Y048894D02*
X041934Y048843D01*
X041681Y049436D01*
X041671Y049462D02*
X041671Y049502D01*
X041475Y049737D01*
X041461Y049973D01*
X041461Y050379D01*
X041446Y050576D01*
X040187Y049277D02*
X040131Y049331D01*
X040079Y049386D01*
X040079Y049387D02*
X038892Y051126D01*
X037492Y051126D02*
X033883Y050932D01*
X033840Y050922D02*
X033512Y050775D01*
X033495Y050772D02*
X033455Y050772D01*
X033338Y050576D01*
X033273Y050379D01*
X033273Y050339D01*
X033273Y050013D01*
X033273Y049973D01*
X033209Y049737D01*
X032943Y049218D02*
X032877Y049129D01*
X032943Y049218D02*
X033849Y049423D01*
X033859Y049427D01*
X033867Y049434D01*
X033874Y049442D01*
X033878Y049452D01*
X033879Y049462D01*
X033879Y049502D01*
X034075Y049737D01*
X034061Y049973D01*
X034061Y050379D01*
X034046Y050576D01*
X032787Y049277D02*
X032731Y049331D01*
X032679Y049386D01*
X032679Y049387D02*
X031492Y051126D01*
X032787Y049278D02*
X032943Y049218D01*
X032872Y049007D02*
X032893Y048467D01*
X032893Y048466D01*
X032753Y047476D01*
X032753Y047476D01*
X032231Y043724D01*
X032231Y043721D01*
X031940Y041076D01*
X031894Y040923D02*
X031492Y040126D01*
X031894Y040923D02*
X031910Y040960D01*
X031923Y040998D01*
X031933Y041037D01*
X031939Y041077D01*
X032731Y041244D02*
X032941Y041618D01*
X032941Y041658D01*
X032944Y041673D02*
X033798Y043754D01*
X033832Y043800D02*
X034865Y044669D01*
X034891Y044678D02*
X034931Y044678D01*
X035442Y044914D01*
X035628Y044678D01*
X035628Y044638D01*
X035628Y043729D01*
X035631Y043691D02*
X036065Y040813D01*
X036066Y040808D02*
X036563Y038234D01*
X036595Y036387D02*
X032671Y036596D01*
X031982Y038844D02*
X032390Y042877D01*
X032390Y042881D02*
X032390Y042921D01*
X032600Y043294D01*
X032803Y043668D01*
X032803Y046644D01*
X032804Y046661D02*
X032911Y047453D01*
X032911Y047454D01*
X033051Y048444D01*
X033055Y048455D01*
X033061Y048464D01*
X033069Y048472D01*
X033080Y048476D01*
X033091Y048478D01*
X033131Y048478D01*
X033642Y048714D01*
X032873Y049007D02*
X032872Y049047D01*
X032874Y049088D01*
X032878Y049129D01*
X033495Y050772D02*
X033503Y050773D01*
X033511Y050775D01*
X033840Y050922D02*
X033854Y050927D01*
X033868Y050930D01*
X033883Y050932D01*
X034075Y049737D02*
X034271Y049502D01*
X034271Y049462D01*
X034281Y049436D02*
X034534Y048843D01*
X035368Y048894D01*
X035570Y048994D01*
X035647Y049073D01*
X035657Y049076D01*
X035666Y049083D01*
X035673Y049091D01*
X035678Y049101D01*
X035679Y049112D01*
X035679Y049152D01*
X035875Y049387D01*
X035836Y049623D01*
X035836Y050079D01*
X035796Y050276D01*
X035639Y050632D02*
X035622Y050631D01*
X035606Y050627D01*
X035590Y050622D01*
X035262Y050475D01*
X035245Y050472D02*
X035205Y050472D01*
X035088Y050276D01*
X035048Y050079D01*
X035048Y050039D01*
X035048Y049663D01*
X035048Y049623D01*
X035009Y049387D01*
X034280Y049436D02*
X034275Y049444D01*
X034272Y049453D01*
X034271Y049462D01*
X034497Y047796D02*
X037492Y047126D01*
X037492Y046126D02*
X036021Y047112D01*
X035954Y047132D02*
X035639Y047132D01*
X035614Y047129D02*
X035237Y047051D01*
X035227Y047048D01*
X035218Y047041D01*
X035211Y047033D01*
X035206Y047023D01*
X035205Y047012D01*
X035205Y046972D01*
X035088Y046776D01*
X035048Y046579D01*
X035048Y046539D01*
X035048Y046213D01*
X035048Y046173D01*
X035009Y045937D01*
X034773Y045542D02*
X034753Y045544D01*
X034734Y045548D01*
X034716Y045556D01*
X034700Y045567D01*
X034685Y045580D01*
X034232Y046066D01*
X034221Y046093D02*
X034221Y046133D01*
X034025Y046369D01*
X033961Y046604D01*
X033961Y047005D01*
X033896Y047201D01*
X034014Y047397D01*
X034054Y047397D01*
X034080Y047406D02*
X034344Y047544D01*
X034152Y047785D02*
X033331Y047474D01*
X033320Y047468D01*
X033312Y047460D01*
X033307Y047449D01*
X033305Y047437D01*
X033305Y047397D01*
X033188Y047201D01*
X033173Y047005D01*
X033173Y046604D01*
X033159Y046369D01*
X032803Y046644D02*
X032804Y046660D01*
X033592Y045345D02*
X034103Y045310D01*
X035993Y045310D01*
X036242Y045317D02*
X036252Y045296D01*
X036253Y045296D02*
X036862Y043815D01*
X036876Y043773D02*
X037054Y043021D01*
X037090Y042923D02*
X037492Y042126D01*
X036644Y041660D02*
X036723Y042873D01*
X036723Y042881D02*
X036723Y043708D01*
X036714Y043754D02*
X036104Y045235D01*
X036095Y045253D01*
X036083Y045269D01*
X036068Y045283D01*
X036051Y045294D01*
X036033Y045302D01*
X036013Y045307D01*
X035993Y045309D01*
X036243Y045317D02*
X036076Y045644D01*
X036071Y045662D02*
X036071Y045702D01*
X035875Y045937D01*
X035679Y045702D01*
X035639Y045702D01*
X035623Y045698D02*
X035294Y045552D01*
X035245Y045542D02*
X034773Y045542D01*
X035245Y045542D02*
X035262Y045543D01*
X035278Y045547D01*
X035294Y045552D01*
X035623Y045699D02*
X035631Y045701D01*
X035639Y045702D01*
X035875Y045937D02*
X035836Y046173D01*
X035836Y046579D01*
X035796Y046776D01*
X035639Y047132D02*
X035627Y047131D01*
X035615Y047129D01*
X035954Y047132D02*
X035972Y047131D01*
X035989Y047127D01*
X036005Y047120D01*
X036021Y047112D01*
X035889Y047759D02*
X035889Y048128D01*
X035442Y048364D01*
X034497Y047797D02*
X034454Y047806D01*
X034411Y047812D01*
X034368Y047816D01*
X034324Y047816D01*
X034281Y047813D01*
X034237Y047807D01*
X034195Y047798D01*
X034153Y047785D01*
X034080Y047406D02*
X034072Y047401D01*
X034063Y047398D01*
X034054Y047397D01*
X034221Y046093D02*
X034222Y046083D01*
X034226Y046074D01*
X034232Y046066D01*
X034865Y044669D02*
X034873Y044674D01*
X034882Y044677D01*
X034891Y044678D01*
X035886Y043729D02*
X036092Y043669D01*
X036103Y043668D02*
X036143Y043668D01*
X036353Y043294D01*
X036723Y042881D02*
X036723Y042873D01*
X037054Y043022D02*
X037064Y042988D01*
X037076Y042955D01*
X037090Y042923D01*
X036875Y043773D02*
X036869Y043794D01*
X036862Y043815D01*
X036714Y043754D02*
X036719Y043739D01*
X036722Y043724D01*
X036723Y043708D01*
X036103Y043668D02*
X036092Y043670D01*
X035631Y043691D02*
X035629Y043710D01*
X035628Y043729D01*
X036075Y045644D02*
X036072Y045653D01*
X036071Y045662D01*
X036644Y041660D02*
X036644Y041658D01*
X036644Y041618D01*
X036434Y041244D01*
X036644Y040871D01*
X036644Y040831D01*
X036645Y040823D02*
X036540Y040059D01*
X036645Y040823D02*
X036644Y040831D01*
X036066Y040808D02*
X036065Y040813D01*
X039294Y040923D02*
X039310Y040960D01*
X039323Y040998D01*
X039333Y041037D01*
X039339Y041077D01*
X039340Y041076D02*
X039631Y043721D01*
X039631Y043724D01*
X040153Y047476D01*
X040293Y048466D01*
X040293Y048467D01*
X040272Y049007D01*
X040277Y049129D02*
X040343Y049218D01*
X041249Y049423D01*
X041259Y049427D01*
X041267Y049434D01*
X041274Y049442D01*
X041278Y049452D01*
X041279Y049462D01*
X041279Y049502D01*
X041475Y049737D01*
X041671Y049462D02*
X041672Y049453D01*
X041675Y049444D01*
X041680Y049436D01*
X041283Y050932D02*
X041268Y050930D01*
X041254Y050927D01*
X041240Y050922D01*
X040912Y050775D01*
X040895Y050772D02*
X040855Y050772D01*
X040738Y050576D01*
X040673Y050379D01*
X040673Y050339D01*
X040673Y050013D01*
X040673Y049973D01*
X040609Y049737D01*
X040343Y049218D02*
X040187Y049278D01*
X040278Y049129D02*
X040274Y049088D01*
X040272Y049047D01*
X040273Y049007D01*
X040491Y048478D02*
X040531Y048478D01*
X041042Y048714D01*
X040491Y048478D02*
X040480Y048476D01*
X040469Y048472D01*
X040461Y048464D01*
X040455Y048455D01*
X040451Y048444D01*
X040311Y047454D01*
X040311Y047453D01*
X040204Y046661D01*
X040203Y046644D02*
X040203Y043668D01*
X040000Y043294D01*
X039790Y042921D01*
X039790Y042881D01*
X039790Y042877D02*
X039382Y038844D01*
X038892Y040126D02*
X039294Y040923D01*
X040131Y041244D02*
X040341Y041618D01*
X040341Y041658D01*
X040344Y041673D02*
X041198Y043754D01*
X041232Y043800D02*
X042265Y044669D01*
X042291Y044678D02*
X042331Y044678D01*
X042842Y044914D01*
X043028Y044678D01*
X043028Y044638D01*
X043028Y043729D01*
X043031Y043691D02*
X043465Y040813D01*
X043466Y040808D02*
X043963Y038234D01*
X043995Y036387D02*
X040071Y036596D01*
X040342Y041658D02*
X040343Y041666D01*
X040345Y041673D01*
X039790Y042877D02*
X039790Y042881D01*
X040992Y045345D02*
X041503Y045310D01*
X043393Y045310D01*
X043642Y045317D02*
X043652Y045296D01*
X043504Y045235D02*
X044114Y043754D01*
X044123Y043708D02*
X044123Y042881D01*
X044123Y042873D02*
X044044Y041660D01*
X044044Y041658D01*
X044044Y041618D01*
X043834Y041244D01*
X044044Y040871D01*
X044044Y040831D01*
X044045Y040823D02*
X043940Y040059D01*
X044045Y040823D02*
X044044Y040831D01*
X043466Y040808D02*
X043465Y040813D01*
X044123Y042873D02*
X044123Y042881D01*
X043753Y043294D02*
X043543Y043668D01*
X043503Y043668D01*
X043492Y043669D02*
X043286Y043729D01*
X043031Y043691D02*
X043029Y043710D01*
X043028Y043729D01*
X043492Y043670D02*
X043503Y043668D01*
X044114Y043754D02*
X044119Y043739D01*
X044122Y043724D01*
X044123Y043708D01*
X044275Y043773D02*
X044269Y043794D01*
X044262Y043815D01*
X043504Y045235D02*
X043495Y045253D01*
X043483Y045269D01*
X043468Y045283D01*
X043451Y045294D01*
X043433Y045302D01*
X043413Y045307D01*
X043393Y045309D01*
X043475Y045644D02*
X043472Y045653D01*
X043471Y045662D01*
X042291Y044678D02*
X042282Y044677D01*
X042273Y044674D01*
X042265Y044669D01*
X041632Y046066D02*
X041626Y046074D01*
X041622Y046083D01*
X041621Y046093D01*
X041553Y047785D02*
X041595Y047798D01*
X041637Y047807D01*
X041681Y047813D01*
X041724Y047816D01*
X041768Y047816D01*
X041811Y047812D01*
X041854Y047806D01*
X041897Y047797D01*
X041552Y047785D02*
X040731Y047474D01*
X040720Y047468D01*
X040712Y047460D01*
X040707Y047449D01*
X040705Y047437D01*
X040705Y047397D01*
X040588Y047201D01*
X040573Y047005D01*
X040573Y046604D01*
X040559Y046369D01*
X040203Y046644D02*
X040204Y046660D01*
X040153Y047476D02*
X040153Y047476D01*
X041454Y047397D02*
X041463Y047398D01*
X041472Y047401D01*
X041480Y047406D01*
X042645Y050472D02*
X042653Y050473D01*
X042661Y050475D01*
X043039Y050632D02*
X043354Y050632D01*
X043392Y050626D02*
X044892Y050126D01*
X044892Y051126D02*
X041283Y050932D01*
X040911Y050775D02*
X040903Y050773D01*
X040895Y050772D01*
X043354Y050632D02*
X043373Y050630D01*
X043392Y050626D01*
X046092Y049594D02*
X046092Y038094D01*
X050092Y038094D01*
X050092Y049594D01*
X046092Y049594D01*
X041232Y043800D02*
X041218Y043786D01*
X041207Y043771D01*
X041198Y043754D01*
X037492Y050126D02*
X035992Y050626D01*
X035954Y050632D02*
X035639Y050632D01*
X035954Y050632D02*
X035973Y050630D01*
X035992Y050626D01*
X035261Y050475D02*
X035253Y050473D01*
X035245Y050472D01*
X033832Y043800D02*
X033818Y043786D01*
X033807Y043771D01*
X033798Y043754D01*
X032945Y041673D02*
X032943Y041666D01*
X032942Y041658D01*
X032390Y042877D02*
X032390Y042881D01*
D13*
X033592Y045345D03*
X035442Y044914D03*
X035442Y048364D03*
X033642Y048714D03*
X041042Y048714D03*
X040992Y045345D03*
X042842Y044914D03*
X042842Y048364D03*
D14*
X042409Y049387D03*
X043275Y049387D03*
X043275Y045937D03*
X042409Y045937D03*
X041425Y046369D03*
X040559Y046369D03*
X040609Y049737D03*
X041475Y049737D03*
X035875Y049387D03*
X035009Y049387D03*
X034075Y049737D03*
X033209Y049737D03*
X033159Y046369D03*
X034025Y046369D03*
X035009Y045937D03*
X035875Y045937D03*
D15*
X036353Y043294D03*
X036434Y041244D03*
X034875Y041244D03*
X034291Y041244D03*
X034159Y043294D03*
X034794Y043294D03*
X032600Y043294D03*
X032731Y041244D03*
X040000Y043294D03*
X040131Y041244D03*
X041559Y043294D03*
X042194Y043294D03*
X042275Y041244D03*
X041691Y041244D03*
X043834Y041244D03*
X043753Y043294D03*
D16*
X044892Y043126D03*
X044892Y044126D03*
X044892Y045126D03*
X044892Y046126D03*
X044892Y047126D03*
X044892Y048126D03*
X044892Y049126D03*
X044892Y050126D03*
X044892Y051126D03*
X044892Y052126D03*
X044892Y053126D03*
X044892Y042126D03*
X044892Y041126D03*
X044892Y040126D03*
X044892Y039126D03*
X038892Y039126D03*
X038892Y040126D03*
X038892Y041126D03*
X038892Y042126D03*
X038892Y043126D03*
X038892Y044126D03*
X038892Y045126D03*
X038892Y046126D03*
X038892Y047126D03*
X038892Y048126D03*
X038892Y049126D03*
X038892Y050126D03*
X038892Y051126D03*
X038892Y052126D03*
X038892Y053126D03*
X037492Y053126D03*
X037492Y052126D03*
X037492Y051126D03*
X037492Y050126D03*
X037492Y049126D03*
X037492Y048126D03*
X037492Y047126D03*
X037492Y046126D03*
X037492Y045126D03*
X037492Y044126D03*
X037492Y043126D03*
X037492Y042126D03*
X037492Y041126D03*
X037492Y040126D03*
X037492Y039126D03*
X031492Y039126D03*
X031492Y040126D03*
X031492Y041126D03*
X031492Y042126D03*
X031492Y043126D03*
X031492Y044126D03*
X031492Y045126D03*
X031492Y046126D03*
X031492Y047126D03*
X031492Y048126D03*
X031492Y049126D03*
X031492Y050126D03*
X031492Y051126D03*
X031492Y052126D03*
X031492Y053126D03*
D17*
X033338Y050576D03*
X034046Y050576D03*
X035088Y050276D03*
X035796Y050276D03*
X035796Y046776D03*
X035088Y046776D03*
X033896Y047201D03*
X033188Y047201D03*
X040588Y047201D03*
X041296Y047201D03*
X042488Y046776D03*
X043196Y046776D03*
X043196Y050276D03*
X042488Y050276D03*
X041446Y050576D03*
X040738Y050576D03*
D18*
X047177Y039489D02*
X047179Y039514D01*
X047185Y039539D01*
X047194Y039563D01*
X047207Y039585D01*
X047224Y039605D01*
X047243Y039622D01*
X047264Y039636D01*
X047288Y039646D01*
X047312Y039653D01*
X047338Y039656D01*
X047363Y039655D01*
X047388Y039650D01*
X047412Y039641D01*
X047435Y039629D01*
X047455Y039614D01*
X047473Y039595D01*
X047488Y039574D01*
X047499Y039551D01*
X047507Y039527D01*
X047511Y039502D01*
X047511Y039476D01*
X047507Y039451D01*
X047499Y039427D01*
X047488Y039404D01*
X047473Y039383D01*
X047455Y039364D01*
X047435Y039349D01*
X047412Y039337D01*
X047388Y039328D01*
X047363Y039323D01*
X047338Y039322D01*
X047312Y039325D01*
X047288Y039332D01*
X047264Y039342D01*
X047243Y039356D01*
X047224Y039373D01*
X047207Y039393D01*
X047194Y039415D01*
X047185Y039439D01*
X047179Y039464D01*
X047177Y039489D01*
X047442Y043594D02*
X047444Y043644D01*
X047450Y043694D01*
X047460Y043744D01*
X047473Y043792D01*
X047490Y043840D01*
X047511Y043886D01*
X047535Y043930D01*
X047563Y043972D01*
X047594Y044012D01*
X047628Y044049D01*
X047665Y044084D01*
X047704Y044115D01*
X047745Y044144D01*
X047789Y044169D01*
X047835Y044191D01*
X047882Y044209D01*
X047930Y044223D01*
X047979Y044234D01*
X048029Y044241D01*
X048079Y044244D01*
X048130Y044243D01*
X048180Y044238D01*
X048230Y044229D01*
X048278Y044217D01*
X048326Y044200D01*
X048372Y044180D01*
X048417Y044157D01*
X048460Y044130D01*
X048500Y044100D01*
X048538Y044067D01*
X048573Y044031D01*
X048606Y043992D01*
X048635Y043951D01*
X048661Y043908D01*
X048684Y043863D01*
X048703Y043816D01*
X048718Y043768D01*
X048730Y043719D01*
X048738Y043669D01*
X048742Y043619D01*
X048742Y043569D01*
X048738Y043519D01*
X048730Y043469D01*
X048718Y043420D01*
X048703Y043372D01*
X048684Y043325D01*
X048661Y043280D01*
X048635Y043237D01*
X048606Y043196D01*
X048573Y043157D01*
X048538Y043121D01*
X048500Y043088D01*
X048460Y043058D01*
X048417Y043031D01*
X048372Y043008D01*
X048326Y042988D01*
X048278Y042971D01*
X048230Y042959D01*
X048180Y042950D01*
X048130Y042945D01*
X048079Y042944D01*
X048029Y042947D01*
X047979Y042954D01*
X047930Y042965D01*
X047882Y042979D01*
X047835Y042997D01*
X047789Y043019D01*
X047745Y043044D01*
X047704Y043073D01*
X047665Y043104D01*
X047628Y043139D01*
X047594Y043176D01*
X047563Y043216D01*
X047535Y043258D01*
X047511Y043302D01*
X047490Y043348D01*
X047473Y043396D01*
X047460Y043444D01*
X047450Y043494D01*
X047444Y043544D01*
X047442Y043594D01*
X048673Y039489D02*
X048675Y039514D01*
X048681Y039539D01*
X048690Y039563D01*
X048703Y039585D01*
X048720Y039605D01*
X048739Y039622D01*
X048760Y039636D01*
X048784Y039646D01*
X048808Y039653D01*
X048834Y039656D01*
X048859Y039655D01*
X048884Y039650D01*
X048908Y039641D01*
X048931Y039629D01*
X048951Y039614D01*
X048969Y039595D01*
X048984Y039574D01*
X048995Y039551D01*
X049003Y039527D01*
X049007Y039502D01*
X049007Y039476D01*
X049003Y039451D01*
X048995Y039427D01*
X048984Y039404D01*
X048969Y039383D01*
X048951Y039364D01*
X048931Y039349D01*
X048908Y039337D01*
X048884Y039328D01*
X048859Y039323D01*
X048834Y039322D01*
X048808Y039325D01*
X048784Y039332D01*
X048760Y039342D01*
X048739Y039356D01*
X048720Y039373D01*
X048703Y039393D01*
X048690Y039415D01*
X048681Y039439D01*
X048675Y039464D01*
X048673Y039489D01*
D19*
X049592Y041094D03*
X049592Y042094D03*
X048592Y045094D03*
X047592Y045094D03*
D20*
X043940Y040059D03*
X043390Y039526D03*
X043963Y038234D03*
X043995Y036387D03*
X043286Y043729D03*
X043289Y047759D03*
X041744Y047544D03*
X041934Y048843D03*
X039382Y038844D03*
X040071Y036596D03*
X036595Y036387D03*
X036563Y038234D03*
X035990Y039526D03*
X036540Y040059D03*
X035886Y043729D03*
X035889Y047759D03*
X034534Y048843D03*
X034344Y047544D03*
X031982Y038844D03*
X032671Y036596D03*
D21*
X032172Y038635D02*
X034078Y040798D01*
X034091Y040831D02*
X034091Y040881D01*
X034291Y041244D01*
X034875Y041244D01*
X035075Y040881D01*
X035075Y040831D01*
X035084Y040802D02*
X035990Y039526D01*
X035084Y040802D02*
X035079Y040811D01*
X035076Y040821D01*
X035075Y040831D01*
X034491Y041658D02*
X034491Y041662D01*
X034594Y042877D01*
X034594Y042881D02*
X034594Y042931D01*
X034794Y043294D01*
X034159Y043294D01*
X034594Y042881D02*
X034594Y042877D01*
X034491Y041658D02*
X034491Y041608D01*
X034291Y041244D01*
X034091Y040831D02*
X034090Y040819D01*
X034085Y040808D01*
X034078Y040798D01*
X032171Y038635D02*
X032149Y038613D01*
X032124Y038593D01*
X032097Y038577D01*
X032068Y038564D01*
X032038Y038554D01*
X032007Y038548D01*
X031975Y038546D01*
X031944Y038547D01*
X031913Y038553D01*
X031882Y038561D01*
X031853Y038574D01*
X031826Y038589D01*
X031800Y038608D01*
X031777Y038630D01*
X031757Y038654D01*
X031740Y038681D01*
X031492Y039126D01*
X038892Y039126D02*
X039140Y038681D01*
X039157Y038654D01*
X039177Y038630D01*
X039200Y038608D01*
X039226Y038589D01*
X039253Y038574D01*
X039282Y038561D01*
X039313Y038553D01*
X039344Y038547D01*
X039375Y038546D01*
X039407Y038548D01*
X039438Y038554D01*
X039468Y038564D01*
X039497Y038577D01*
X039524Y038593D01*
X039549Y038613D01*
X039571Y038635D01*
X039572Y038635D02*
X041478Y040798D01*
X041491Y040831D02*
X041491Y040881D01*
X041691Y041244D01*
X042275Y041244D01*
X042475Y040881D01*
X042475Y040831D01*
X042484Y040802D02*
X043390Y039526D01*
X042484Y040802D02*
X042479Y040811D01*
X042476Y040821D01*
X042475Y040831D01*
X041691Y041244D02*
X041891Y041608D01*
X041891Y041658D01*
X041891Y041662D02*
X041994Y042877D01*
X041994Y042881D02*
X041994Y042931D01*
X042194Y043294D01*
X041559Y043294D01*
X041994Y042881D02*
X041994Y042877D01*
X041891Y041662D02*
X041891Y041658D01*
X041491Y040831D02*
X041490Y040819D01*
X041485Y040808D01*
X041478Y040798D01*
X046302Y040791D02*
X049170Y040791D01*
X049147Y040822D02*
X049195Y040756D01*
X049253Y040698D01*
X049320Y040650D01*
X049393Y040613D01*
X049470Y040587D01*
X049551Y040574D01*
X049554Y040574D01*
X049554Y041056D01*
X049631Y041056D01*
X049631Y040574D01*
X049633Y040574D01*
X049714Y040587D01*
X049792Y040613D01*
X049865Y040650D01*
X049882Y040662D01*
X049882Y038304D01*
X046302Y038304D01*
X046302Y042498D01*
X046307Y042486D01*
X046400Y042393D01*
X046521Y042342D01*
X046564Y042342D01*
X046845Y042062D01*
X046936Y042023D01*
X048414Y042023D01*
X048444Y041994D01*
X048565Y041943D01*
X048697Y041943D01*
X048818Y041994D01*
X048911Y042087D01*
X048961Y042208D01*
X048961Y042339D01*
X048911Y042460D01*
X048818Y042553D01*
X048697Y042603D01*
X048565Y042603D01*
X048444Y042553D01*
X048414Y042523D01*
X047090Y042523D01*
X046917Y042696D01*
X046917Y042738D01*
X046867Y042859D01*
X046774Y042952D01*
X046653Y043002D01*
X046521Y043002D01*
X046400Y042952D01*
X046307Y042859D01*
X046302Y042847D01*
X046302Y049384D01*
X049882Y049384D01*
X049882Y042559D01*
X049700Y042634D01*
X049485Y042634D01*
X049286Y042552D01*
X049134Y042400D01*
X049052Y042202D01*
X049052Y041987D01*
X049134Y041789D01*
X049286Y041637D01*
X049415Y041584D01*
X049393Y041576D01*
X049320Y041539D01*
X049253Y041491D01*
X049195Y041433D01*
X049147Y041367D01*
X049110Y041294D01*
X049085Y041216D01*
X049072Y041135D01*
X049072Y041133D01*
X049554Y041133D01*
X049554Y041056D01*
X049072Y041056D01*
X049072Y041054D01*
X049085Y040973D01*
X049110Y040895D01*
X049147Y040822D01*
X049113Y040890D02*
X046302Y040890D01*
X046302Y040988D02*
X049083Y040988D01*
X049080Y041185D02*
X046302Y041185D01*
X046302Y041087D02*
X049554Y041087D01*
X049554Y040988D02*
X049631Y040988D01*
X049631Y040890D02*
X049554Y040890D01*
X049554Y040791D02*
X049631Y040791D01*
X049631Y040693D02*
X049554Y040693D01*
X049554Y040594D02*
X049631Y040594D01*
X049735Y040594D02*
X049882Y040594D01*
X049882Y040496D02*
X046302Y040496D01*
X046302Y040594D02*
X049450Y040594D01*
X049261Y040693D02*
X046302Y040693D01*
X046302Y040397D02*
X049882Y040397D01*
X049882Y040299D02*
X046302Y040299D01*
X046302Y040200D02*
X049882Y040200D01*
X049882Y040102D02*
X046302Y040102D01*
X046302Y040003D02*
X049882Y040003D01*
X049882Y039905D02*
X046302Y039905D01*
X046302Y039806D02*
X047229Y039806D01*
X047277Y039826D02*
X047153Y039775D01*
X047058Y039680D01*
X047007Y039556D01*
X047007Y039422D01*
X047058Y039298D01*
X047153Y039203D01*
X047277Y039151D01*
X047411Y039151D01*
X047535Y039203D01*
X047630Y039298D01*
X047681Y039422D01*
X047681Y039556D01*
X047630Y039680D01*
X047535Y039775D01*
X047411Y039826D01*
X047277Y039826D01*
X047459Y039806D02*
X048725Y039806D01*
X048773Y039826D02*
X048649Y039775D01*
X048554Y039680D01*
X048503Y039556D01*
X048503Y039422D01*
X048554Y039298D01*
X048649Y039203D01*
X048773Y039151D01*
X048907Y039151D01*
X049031Y039203D01*
X049126Y039298D01*
X049177Y039422D01*
X049177Y039556D01*
X049126Y039680D01*
X049031Y039775D01*
X048907Y039826D01*
X048773Y039826D01*
X048955Y039806D02*
X049882Y039806D01*
X049882Y039708D02*
X049098Y039708D01*
X049155Y039609D02*
X049882Y039609D01*
X049882Y039511D02*
X049177Y039511D01*
X049174Y039412D02*
X049882Y039412D01*
X049882Y039314D02*
X049133Y039314D01*
X049044Y039215D02*
X049882Y039215D01*
X049882Y039117D02*
X046302Y039117D01*
X046302Y039215D02*
X047141Y039215D01*
X047052Y039314D02*
X046302Y039314D01*
X046302Y039412D02*
X047011Y039412D01*
X047007Y039511D02*
X046302Y039511D01*
X046302Y039609D02*
X047029Y039609D01*
X047086Y039708D02*
X046302Y039708D01*
X046302Y039018D02*
X049882Y039018D01*
X049882Y038920D02*
X046302Y038920D01*
X046302Y038821D02*
X049882Y038821D01*
X049882Y038723D02*
X046302Y038723D01*
X046302Y038624D02*
X049882Y038624D01*
X049882Y038525D02*
X046302Y038525D01*
X046302Y038427D02*
X049882Y038427D01*
X049882Y038328D02*
X046302Y038328D01*
X047548Y039215D02*
X048637Y039215D01*
X048548Y039314D02*
X047637Y039314D01*
X047677Y039412D02*
X048507Y039412D01*
X048503Y039511D02*
X047681Y039511D01*
X047659Y039609D02*
X048525Y039609D01*
X048582Y039708D02*
X047602Y039708D01*
X046302Y041284D02*
X049107Y041284D01*
X049158Y041382D02*
X046302Y041382D01*
X046302Y041481D02*
X049243Y041481D01*
X049401Y041579D02*
X046302Y041579D01*
X046302Y041678D02*
X049245Y041678D01*
X049147Y041776D02*
X046302Y041776D01*
X046302Y041875D02*
X049099Y041875D01*
X049058Y041973D02*
X048768Y041973D01*
X048896Y042072D02*
X049052Y042072D01*
X049052Y042170D02*
X048945Y042170D01*
X048961Y042269D02*
X049080Y042269D01*
X049121Y042367D02*
X048950Y042367D01*
X048906Y042466D02*
X049199Y042466D01*
X049315Y042564D02*
X048792Y042564D01*
X048699Y042860D02*
X049882Y042860D01*
X049882Y042958D02*
X048785Y042958D01*
X048706Y042863D02*
X048919Y043117D01*
X048919Y043117D01*
X049032Y043429D01*
X049032Y043508D01*
X049032Y043760D01*
X048919Y044072D01*
X048706Y044326D01*
X048706Y044326D01*
X048706Y044326D01*
X048419Y044491D01*
X048092Y044549D01*
X047766Y044491D01*
X047479Y044326D01*
X047479Y044326D01*
X047266Y044072D01*
X047266Y044072D01*
X047152Y043760D01*
X047152Y043429D01*
X047266Y043117D01*
X047479Y042863D01*
X047766Y042698D01*
X048092Y042640D01*
X048092Y042640D01*
X048419Y042698D01*
X048706Y042863D01*
X048706Y042863D01*
X048528Y042761D02*
X049882Y042761D01*
X049882Y042663D02*
X048220Y042663D01*
X048419Y042698D02*
X048419Y042698D01*
X048470Y042564D02*
X047049Y042564D01*
X046951Y042663D02*
X047964Y042663D01*
X047766Y042698D02*
X047766Y042698D01*
X047656Y042761D02*
X046908Y042761D01*
X046867Y042860D02*
X047485Y042860D01*
X047479Y042863D02*
X047479Y042863D01*
X047479Y042863D01*
X047399Y042958D02*
X046760Y042958D01*
X046414Y042958D02*
X046302Y042958D01*
X046302Y042860D02*
X046307Y042860D01*
X046302Y043057D02*
X047316Y043057D01*
X047266Y043117D02*
X047266Y043117D01*
X047252Y043155D02*
X046302Y043155D01*
X046302Y043254D02*
X047216Y043254D01*
X047180Y043352D02*
X046302Y043352D01*
X046302Y043451D02*
X047152Y043451D01*
X047152Y043549D02*
X046302Y043549D01*
X046302Y043648D02*
X047152Y043648D01*
X047152Y043746D02*
X046725Y043746D01*
X046719Y043743D02*
X046840Y043794D01*
X046933Y043887D01*
X046983Y044008D01*
X046983Y044139D01*
X046933Y044260D01*
X046842Y044351D01*
X046842Y045491D01*
X047196Y045844D01*
X047989Y045844D01*
X048284Y045550D01*
X048134Y045400D01*
X048081Y045272D01*
X048074Y045294D01*
X048037Y045367D01*
X047989Y045433D01*
X047931Y045491D01*
X047865Y045539D01*
X047792Y045576D01*
X047714Y045602D01*
X047642Y045613D01*
X047642Y045144D01*
X047542Y045144D01*
X047542Y045044D01*
X047642Y045044D01*
X047642Y044576D01*
X047714Y044587D01*
X047792Y044613D01*
X047865Y044650D01*
X047931Y044698D01*
X047989Y044756D01*
X048037Y044822D01*
X048074Y044895D01*
X048081Y044917D01*
X048134Y044789D01*
X048286Y044637D01*
X048485Y044554D01*
X048700Y044554D01*
X048898Y044637D01*
X049050Y044789D01*
X049132Y044987D01*
X049132Y045202D01*
X049050Y045400D01*
X048898Y045552D01*
X048842Y045575D01*
X048842Y045644D01*
X048804Y045736D01*
X048734Y045806D01*
X048234Y046306D01*
X048142Y046344D01*
X047042Y046344D01*
X046951Y046306D01*
X046880Y046236D01*
X046380Y045736D01*
X046342Y045644D01*
X046342Y044185D01*
X046323Y044139D01*
X046323Y044008D01*
X046373Y043887D01*
X046466Y043794D01*
X046587Y043743D01*
X046719Y043743D01*
X046581Y043746D02*
X046302Y043746D01*
X046302Y043845D02*
X046415Y043845D01*
X046350Y043943D02*
X046302Y043943D01*
X046302Y044042D02*
X046323Y044042D01*
X046323Y044140D02*
X046302Y044140D01*
X046302Y044239D02*
X046342Y044239D01*
X046342Y044337D02*
X046302Y044337D01*
X046302Y044436D02*
X046342Y044436D01*
X046342Y044534D02*
X046302Y044534D01*
X046302Y044633D02*
X046342Y044633D01*
X046342Y044731D02*
X046302Y044731D01*
X046302Y044830D02*
X046342Y044830D01*
X046342Y044928D02*
X046302Y044928D01*
X046302Y045027D02*
X046342Y045027D01*
X046342Y045125D02*
X046302Y045125D01*
X046302Y045224D02*
X046342Y045224D01*
X046342Y045322D02*
X046302Y045322D01*
X046302Y045421D02*
X046342Y045421D01*
X046342Y045519D02*
X046302Y045519D01*
X046302Y045618D02*
X046342Y045618D01*
X046372Y045716D02*
X046302Y045716D01*
X046302Y045815D02*
X046459Y045815D01*
X046557Y045913D02*
X046302Y045913D01*
X046302Y046012D02*
X046656Y046012D01*
X046754Y046110D02*
X046302Y046110D01*
X046302Y046209D02*
X046853Y046209D01*
X046952Y046307D02*
X046302Y046307D01*
X046302Y046406D02*
X049882Y046406D01*
X049882Y046504D02*
X046302Y046504D01*
X046302Y046603D02*
X049882Y046603D01*
X049882Y046701D02*
X046302Y046701D01*
X046302Y046800D02*
X049882Y046800D01*
X049882Y046898D02*
X046302Y046898D01*
X046302Y046997D02*
X049882Y046997D01*
X049882Y047095D02*
X046302Y047095D01*
X046302Y047194D02*
X049882Y047194D01*
X049882Y047292D02*
X046302Y047292D01*
X046302Y047391D02*
X049882Y047391D01*
X049882Y047489D02*
X046302Y047489D01*
X046302Y047588D02*
X049882Y047588D01*
X049882Y047686D02*
X046302Y047686D01*
X046302Y047785D02*
X049882Y047785D01*
X049882Y047883D02*
X046302Y047883D01*
X046302Y047982D02*
X049882Y047982D01*
X049882Y048080D02*
X046302Y048080D01*
X046302Y048179D02*
X049882Y048179D01*
X049882Y048277D02*
X046302Y048277D01*
X046302Y048376D02*
X049882Y048376D01*
X049882Y048474D02*
X046302Y048474D01*
X046302Y048573D02*
X049882Y048573D01*
X049882Y048671D02*
X046302Y048671D01*
X046302Y048770D02*
X049882Y048770D01*
X049882Y048868D02*
X046302Y048868D01*
X046302Y048967D02*
X049882Y048967D01*
X049882Y049065D02*
X046302Y049065D01*
X046302Y049164D02*
X049882Y049164D01*
X049882Y049262D02*
X046302Y049262D01*
X046302Y049361D02*
X049882Y049361D01*
X049882Y046307D02*
X048232Y046307D01*
X048332Y046209D02*
X049882Y046209D01*
X049882Y046110D02*
X048430Y046110D01*
X048529Y046012D02*
X049882Y046012D01*
X049882Y045913D02*
X048627Y045913D01*
X048726Y045815D02*
X049882Y045815D01*
X049882Y045716D02*
X048812Y045716D01*
X048842Y045618D02*
X049882Y045618D01*
X049882Y045519D02*
X048931Y045519D01*
X049030Y045421D02*
X049882Y045421D01*
X049882Y045322D02*
X049082Y045322D01*
X049123Y045224D02*
X049882Y045224D01*
X049882Y045125D02*
X049132Y045125D01*
X049132Y045027D02*
X049882Y045027D01*
X049882Y044928D02*
X049108Y044928D01*
X049067Y044830D02*
X049882Y044830D01*
X049882Y044731D02*
X048992Y044731D01*
X048888Y044633D02*
X049882Y044633D01*
X049882Y044534D02*
X048177Y044534D01*
X048296Y044633D02*
X047831Y044633D01*
X047964Y044731D02*
X048192Y044731D01*
X048117Y044830D02*
X048041Y044830D01*
X048007Y044534D02*
X046842Y044534D01*
X046842Y044436D02*
X047669Y044436D01*
X047542Y044576D02*
X047542Y045044D01*
X047074Y045044D01*
X047085Y044973D01*
X047110Y044895D01*
X047147Y044822D01*
X047195Y044756D01*
X047253Y044698D01*
X047320Y044650D01*
X047393Y044613D01*
X047470Y044587D01*
X047542Y044576D01*
X047542Y044633D02*
X047642Y044633D01*
X047642Y044731D02*
X047542Y044731D01*
X047542Y044830D02*
X047642Y044830D01*
X047642Y044928D02*
X047542Y044928D01*
X047542Y045027D02*
X047642Y045027D01*
X047542Y045125D02*
X046842Y045125D01*
X046842Y045027D02*
X047076Y045027D01*
X047099Y044928D02*
X046842Y044928D01*
X046842Y044830D02*
X047144Y044830D01*
X047220Y044731D02*
X046842Y044731D01*
X046842Y044633D02*
X047353Y044633D01*
X047498Y044337D02*
X046856Y044337D01*
X046942Y044239D02*
X047405Y044239D01*
X047323Y044140D02*
X046983Y044140D01*
X046983Y044042D02*
X047255Y044042D01*
X047219Y043943D02*
X046956Y043943D01*
X046891Y043845D02*
X047183Y043845D01*
X047074Y045144D02*
X047542Y045144D01*
X047542Y045613D01*
X047470Y045602D01*
X047393Y045576D01*
X047320Y045539D01*
X047253Y045491D01*
X047195Y045433D01*
X047147Y045367D01*
X047110Y045294D01*
X047085Y045216D01*
X047074Y045144D01*
X047087Y045224D02*
X046842Y045224D01*
X046842Y045322D02*
X047124Y045322D01*
X047186Y045421D02*
X046842Y045421D01*
X046870Y045519D02*
X047292Y045519D01*
X047542Y045519D02*
X047642Y045519D01*
X047642Y045421D02*
X047542Y045421D01*
X047542Y045322D02*
X047642Y045322D01*
X047642Y045224D02*
X047542Y045224D01*
X047892Y045519D02*
X048253Y045519D01*
X048216Y045618D02*
X046969Y045618D01*
X047067Y045716D02*
X048117Y045716D01*
X048019Y045815D02*
X047166Y045815D01*
X047998Y045421D02*
X048154Y045421D01*
X048102Y045322D02*
X048060Y045322D01*
X048515Y044436D02*
X049882Y044436D01*
X049882Y044337D02*
X048686Y044337D01*
X048779Y044239D02*
X049882Y044239D01*
X049882Y044140D02*
X048861Y044140D01*
X048919Y044072D02*
X048919Y044072D01*
X048930Y044042D02*
X049882Y044042D01*
X049882Y043943D02*
X048966Y043943D01*
X049001Y043845D02*
X049882Y043845D01*
X049882Y043746D02*
X049032Y043746D01*
X049032Y043648D02*
X049882Y043648D01*
X049882Y043549D02*
X049032Y043549D01*
X049032Y043451D02*
X049882Y043451D01*
X049882Y043352D02*
X049004Y043352D01*
X048968Y043254D02*
X049882Y043254D01*
X049882Y043155D02*
X048932Y043155D01*
X048868Y043057D02*
X049882Y043057D01*
X049870Y042564D02*
X049882Y042564D01*
X048494Y041973D02*
X046302Y041973D01*
X046302Y042072D02*
X046835Y042072D01*
X046736Y042170D02*
X046302Y042170D01*
X046302Y042269D02*
X046638Y042269D01*
X046462Y042367D02*
X046302Y042367D01*
X046302Y042466D02*
X046327Y042466D01*
D22*
X046587Y042672D03*
X046653Y044073D03*
X048631Y042273D03*
X048280Y041127D03*
M02*
