G75*
%MOIN*%
%OFA0B0*%
%FSLAX24Y24*%
%IPPOS*%
%LPD*%
%AMOC8*
5,1,8,0,0,1.08239X$1,22.5*
%
%ADD10C,0.0000*%
%ADD11R,0.1102X0.0551*%
%ADD12R,0.0472X0.0551*%
%ADD13R,0.0500X0.0827*%
%ADD14R,0.0315X0.0472*%
%ADD15C,0.0000*%
D10*
X030992Y033994D02*
X030992Y053680D01*
X050677Y053680D01*
X050677Y033994D01*
X030992Y033994D01*
D11*
X033592Y045345D03*
X035442Y044914D03*
X035442Y048364D03*
X033642Y048714D03*
X041042Y048714D03*
X040992Y045345D03*
X042842Y044914D03*
X042842Y048364D03*
D12*
X042409Y049387D03*
X043275Y049387D03*
X043275Y045937D03*
X042409Y045937D03*
X041425Y046369D03*
X040559Y046369D03*
X040609Y049737D03*
X041475Y049737D03*
X035875Y049387D03*
X035009Y049387D03*
X034075Y049737D03*
X033209Y049737D03*
X033159Y046369D03*
X034025Y046369D03*
X035009Y045937D03*
X035875Y045937D03*
D13*
X036353Y043294D03*
X036434Y041244D03*
X034875Y041244D03*
X034291Y041244D03*
X034159Y043294D03*
X034794Y043294D03*
X032600Y043294D03*
X032731Y041244D03*
X040000Y043294D03*
X040131Y041244D03*
X041559Y043294D03*
X042194Y043294D03*
X042275Y041244D03*
X041691Y041244D03*
X043834Y041244D03*
X043753Y043294D03*
D14*
X043196Y046776D03*
X042488Y046776D03*
X041296Y047201D03*
X040588Y047201D03*
X040738Y050576D03*
X041446Y050576D03*
X042488Y050276D03*
X043196Y050276D03*
X035796Y050276D03*
X035088Y050276D03*
X034046Y050576D03*
X033338Y050576D03*
X033188Y047201D03*
X033896Y047201D03*
X035088Y046776D03*
X035796Y046776D03*
D15*
X047177Y039489D02*
X047179Y039514D01*
X047185Y039539D01*
X047194Y039563D01*
X047207Y039585D01*
X047224Y039605D01*
X047243Y039622D01*
X047264Y039636D01*
X047288Y039646D01*
X047312Y039653D01*
X047338Y039656D01*
X047363Y039655D01*
X047388Y039650D01*
X047412Y039641D01*
X047435Y039629D01*
X047455Y039614D01*
X047473Y039595D01*
X047488Y039574D01*
X047499Y039551D01*
X047507Y039527D01*
X047511Y039502D01*
X047511Y039476D01*
X047507Y039451D01*
X047499Y039427D01*
X047488Y039404D01*
X047473Y039383D01*
X047455Y039364D01*
X047435Y039349D01*
X047412Y039337D01*
X047388Y039328D01*
X047363Y039323D01*
X047338Y039322D01*
X047312Y039325D01*
X047288Y039332D01*
X047264Y039342D01*
X047243Y039356D01*
X047224Y039373D01*
X047207Y039393D01*
X047194Y039415D01*
X047185Y039439D01*
X047179Y039464D01*
X047177Y039489D01*
X048673Y039489D02*
X048675Y039514D01*
X048681Y039539D01*
X048690Y039563D01*
X048703Y039585D01*
X048720Y039605D01*
X048739Y039622D01*
X048760Y039636D01*
X048784Y039646D01*
X048808Y039653D01*
X048834Y039656D01*
X048859Y039655D01*
X048884Y039650D01*
X048908Y039641D01*
X048931Y039629D01*
X048951Y039614D01*
X048969Y039595D01*
X048984Y039574D01*
X048995Y039551D01*
X049003Y039527D01*
X049007Y039502D01*
X049007Y039476D01*
X049003Y039451D01*
X048995Y039427D01*
X048984Y039404D01*
X048969Y039383D01*
X048951Y039364D01*
X048931Y039349D01*
X048908Y039337D01*
X048884Y039328D01*
X048859Y039323D01*
X048834Y039322D01*
X048808Y039325D01*
X048784Y039332D01*
X048760Y039342D01*
X048739Y039356D01*
X048720Y039373D01*
X048703Y039393D01*
X048690Y039415D01*
X048681Y039439D01*
X048675Y039464D01*
X048673Y039489D01*
M02*
