G75*
%MOIN*%
%OFA0B0*%
%FSLAX24Y24*%
%IPPOS*%
%LPD*%
%AMOC8*
5,1,8,0,0,1.08239X$1,22.5*
%
%ADD10C,0.0000*%
%ADD11C,0.0040*%
%ADD12C,0.0030*%
%ADD13C,0.0100*%
%ADD14C,0.0160*%
%ADD15C,0.0080*%
%ADD16C,0.0110*%
%ADD17C,0.0060*%
%ADD18C,0.0000*%
%ADD19C,0.0050*%
%ADD20C,0.0059*%
D10*
X030992Y033994D02*
X030992Y053680D01*
X050677Y053680D01*
X050677Y033994D01*
X030992Y033994D01*
D11*
X031262Y035636D02*
X031262Y035841D01*
X031331Y035909D01*
X031604Y035909D01*
X031672Y035841D01*
X031672Y035636D01*
X031262Y035636D01*
X031331Y036050D02*
X031262Y036119D01*
X031262Y036255D01*
X031331Y036324D01*
X031604Y036324D01*
X031672Y036255D01*
X031672Y036119D01*
X031604Y036050D01*
X031536Y036050D01*
X031467Y036119D01*
X031467Y036324D01*
X037312Y036255D02*
X037312Y036119D01*
X037381Y036050D01*
X037517Y036050D02*
X037586Y036187D01*
X037586Y036255D01*
X037517Y036324D01*
X037381Y036324D01*
X037312Y036255D01*
X037517Y036050D02*
X037722Y036050D01*
X037722Y036324D01*
X037654Y035909D02*
X037722Y035841D01*
X037722Y035636D01*
X037312Y035636D01*
X037312Y035841D01*
X037381Y035909D01*
X037654Y035909D01*
X038662Y035841D02*
X038731Y035909D01*
X039004Y035909D01*
X039072Y035841D01*
X039072Y035636D01*
X038662Y035636D01*
X038662Y035841D01*
X038731Y036050D02*
X038662Y036119D01*
X038662Y036255D01*
X038731Y036324D01*
X039004Y036324D01*
X039072Y036255D01*
X039072Y036119D01*
X039004Y036050D01*
X038936Y036050D01*
X038867Y036119D01*
X038867Y036324D01*
X037722Y037636D02*
X037722Y037841D01*
X037654Y037909D01*
X037381Y037909D01*
X037312Y037841D01*
X037312Y037636D01*
X037722Y037636D01*
X037517Y038050D02*
X037654Y038187D01*
X037722Y038324D01*
X037517Y038255D02*
X037517Y038050D01*
X037381Y038050D01*
X037312Y038119D01*
X037312Y038255D01*
X037381Y038324D01*
X037449Y038324D01*
X037517Y038255D01*
X044712Y038255D02*
X044781Y038324D01*
X044849Y038324D01*
X044917Y038255D01*
X044917Y038050D01*
X044781Y038050D01*
X044712Y038119D01*
X044712Y038255D01*
X044917Y038050D02*
X045054Y038187D01*
X045122Y038324D01*
X045054Y037909D02*
X045122Y037841D01*
X045122Y037636D01*
X044712Y037636D01*
X044712Y037841D01*
X044781Y037909D01*
X045054Y037909D01*
X045122Y036324D02*
X045122Y036050D01*
X044917Y036050D01*
X044986Y036187D01*
X044986Y036255D01*
X044917Y036324D01*
X044781Y036324D01*
X044712Y036255D01*
X044712Y036119D01*
X044781Y036050D01*
X044781Y035909D02*
X045054Y035909D01*
X045122Y035841D01*
X045122Y035636D01*
X044712Y035636D01*
X044712Y035841D01*
X044781Y035909D01*
X047226Y045864D02*
X047226Y046325D01*
X047226Y046095D02*
X047533Y046095D01*
X047533Y046325D02*
X047533Y045864D01*
X047839Y045864D02*
X047839Y046325D01*
X047686Y046325D02*
X047993Y046325D01*
X048146Y046248D02*
X048146Y046095D01*
X048223Y046018D01*
X048453Y046018D01*
X048453Y045864D02*
X048453Y046325D01*
X048223Y046325D01*
X048146Y046248D01*
X048607Y046248D02*
X048684Y046325D01*
X048837Y046325D01*
X048914Y046248D01*
X049067Y046248D02*
X049374Y045941D01*
X049297Y045864D01*
X049144Y045864D01*
X049067Y045941D01*
X049067Y046248D01*
X049144Y046325D01*
X049297Y046325D01*
X049374Y046248D01*
X049374Y045941D01*
X049528Y045864D02*
X049528Y046325D01*
X049681Y046171D01*
X049834Y046325D01*
X049834Y045864D01*
X048914Y045864D02*
X048607Y046171D01*
X048607Y046248D01*
X048607Y045864D02*
X048914Y045864D01*
D12*
X039077Y038426D02*
X039077Y038303D01*
X039016Y038241D01*
X038769Y038241D01*
X039016Y038488D01*
X038769Y038488D01*
X038707Y038426D01*
X038707Y038303D01*
X038769Y038241D01*
X038707Y038120D02*
X038707Y037873D01*
X038707Y037996D02*
X039077Y037996D01*
X038954Y037873D01*
X039016Y037751D02*
X039077Y037690D01*
X039077Y037505D01*
X038707Y037505D01*
X038707Y037690D01*
X038769Y037751D01*
X039016Y037751D01*
X039077Y038426D02*
X039016Y038488D01*
X031677Y038426D02*
X031677Y038303D01*
X031616Y038241D01*
X031369Y038241D01*
X031616Y038488D01*
X031369Y038488D01*
X031307Y038426D01*
X031307Y038303D01*
X031369Y038241D01*
X031307Y038120D02*
X031307Y037873D01*
X031307Y037996D02*
X031677Y037996D01*
X031554Y037873D01*
X031616Y037751D02*
X031677Y037690D01*
X031677Y037505D01*
X031307Y037505D01*
X031307Y037690D01*
X031369Y037751D01*
X031616Y037751D01*
X031677Y038426D02*
X031616Y038488D01*
D13*
X031492Y037244D02*
X031492Y036744D01*
X031742Y036994D02*
X031192Y036994D01*
X031192Y035294D02*
X031192Y034744D01*
X031392Y034894D02*
X031392Y035194D01*
X031592Y035044D02*
X031692Y035044D01*
X037292Y034994D02*
X037392Y034994D01*
X037592Y034844D02*
X037592Y035144D01*
X037792Y035294D02*
X037792Y034744D01*
X038592Y034744D02*
X038592Y035294D01*
X038792Y035194D02*
X038792Y034894D01*
X038992Y035044D02*
X039092Y035044D01*
X038892Y036744D02*
X038892Y037244D01*
X039142Y036994D02*
X038592Y036994D01*
X037792Y036994D02*
X037242Y036994D01*
X037492Y036794D02*
X037492Y037244D01*
X044642Y036994D02*
X045192Y036994D01*
X044892Y036794D02*
X044892Y037244D01*
X045192Y035294D02*
X045192Y034744D01*
X044992Y034844D02*
X044992Y035144D01*
X044792Y034994D02*
X044692Y034994D01*
D14*
X045692Y034905D02*
X045692Y034494D01*
X045692Y035298D02*
X045692Y035709D01*
X045692Y036102D02*
X045692Y036513D01*
X045692Y036906D02*
X045692Y037316D01*
X045692Y037710D02*
X045692Y038120D01*
X045692Y038514D02*
X045692Y038924D01*
X045692Y039318D02*
X045692Y039728D01*
X045692Y040122D02*
X045692Y040532D01*
X045692Y040926D02*
X045692Y041336D01*
X045692Y041730D02*
X045692Y042140D01*
X045692Y042534D02*
X045692Y042944D01*
X045692Y043337D02*
X045692Y043748D01*
X045692Y044141D02*
X045692Y044552D01*
X045692Y044945D02*
X045692Y045355D01*
X045692Y045749D02*
X045692Y046159D01*
X045692Y046553D02*
X045692Y046963D01*
X045692Y047357D02*
X045692Y047767D01*
X045692Y048161D02*
X045692Y048571D01*
X045692Y048965D02*
X045692Y049375D01*
X045692Y049769D02*
X045692Y050179D01*
X045692Y050573D02*
X045692Y050983D01*
X045692Y051376D02*
X045692Y051787D01*
X045692Y052180D02*
X045692Y052591D01*
X045692Y052984D02*
X045692Y053394D01*
X038192Y053294D02*
X038192Y052884D01*
X038192Y052491D02*
X038192Y052080D01*
X038192Y051687D02*
X038192Y051276D01*
X038192Y050883D02*
X038192Y050473D01*
X038192Y050079D02*
X038192Y049669D01*
X038192Y049275D02*
X038192Y048865D01*
X038192Y048471D02*
X038192Y048061D01*
X038192Y047667D02*
X038192Y047257D01*
X038192Y046863D02*
X038192Y046453D01*
X038192Y046059D02*
X038192Y045649D01*
X038192Y045255D02*
X038192Y044845D01*
X038192Y044452D02*
X038192Y044041D01*
X038192Y043648D02*
X038192Y043237D01*
X038192Y042844D02*
X038192Y042434D01*
X038192Y042040D02*
X038192Y041630D01*
X038192Y041236D02*
X038192Y040826D01*
X038192Y040432D02*
X038192Y040022D01*
X038192Y039628D02*
X038192Y039218D01*
X038192Y038824D02*
X038192Y038414D01*
X038192Y038020D02*
X038192Y037610D01*
X038192Y037216D02*
X038192Y036806D01*
X038192Y036413D02*
X038192Y036002D01*
X038192Y035609D02*
X038192Y035198D01*
X038192Y034805D02*
X038192Y034394D01*
D15*
X046092Y038094D02*
X050092Y038094D01*
X050092Y049594D01*
X046092Y049594D01*
X046092Y038094D01*
X047342Y044594D02*
X047092Y044844D01*
X047092Y045344D01*
X047342Y045594D01*
X047842Y045594D01*
X048092Y045344D01*
X048342Y045594D01*
X048842Y045594D01*
X049092Y045344D01*
X049092Y044844D01*
X048842Y044594D01*
X048342Y044594D01*
X048092Y044844D01*
X047842Y044594D01*
X047342Y044594D01*
D16*
X047592Y045755D02*
X047592Y046149D01*
X048396Y045952D02*
X048789Y045952D01*
X048592Y045755D02*
X048592Y046149D01*
D17*
X049359Y046257D02*
X049359Y046314D01*
X049415Y046371D01*
X049699Y046371D01*
X049699Y046201D01*
X049642Y046144D01*
X049529Y046144D01*
X049472Y046201D01*
X049472Y046371D01*
X049529Y046512D02*
X049642Y046512D01*
X049699Y046569D01*
X049699Y046682D01*
X049642Y046739D01*
X049586Y046739D01*
X049586Y046512D01*
X049529Y046512D02*
X049472Y046569D01*
X049472Y046682D01*
X049472Y046880D02*
X049699Y046880D01*
X049586Y046880D02*
X049699Y046994D01*
X049699Y047051D01*
X049642Y047556D02*
X049642Y047726D01*
X049586Y047783D01*
X049529Y047783D01*
X049472Y047726D01*
X049472Y047556D01*
X049812Y047556D01*
X049812Y047726D01*
X049756Y047783D01*
X049699Y047783D01*
X049642Y047726D01*
X049529Y047924D02*
X049586Y047981D01*
X049586Y048151D01*
X049642Y048151D02*
X049472Y048151D01*
X049472Y047981D01*
X049529Y047924D01*
X049699Y047981D02*
X049699Y048094D01*
X049642Y048151D01*
X049642Y048292D02*
X049699Y048349D01*
X049699Y048519D01*
X049586Y048462D02*
X049586Y048349D01*
X049642Y048292D01*
X049472Y048292D02*
X049472Y048462D01*
X049529Y048519D01*
X049586Y048462D01*
X049699Y048661D02*
X049699Y048717D01*
X049472Y048717D01*
X049472Y048661D02*
X049472Y048774D01*
X049529Y048906D02*
X049472Y048963D01*
X049472Y049133D01*
X049699Y049133D02*
X049699Y048963D01*
X049642Y048906D01*
X049529Y048906D01*
X049812Y048717D02*
X049869Y048717D01*
X049699Y046007D02*
X049699Y045950D01*
X049586Y045837D01*
X049699Y045837D02*
X049472Y045837D01*
X049472Y045695D02*
X049472Y045525D01*
X049529Y045469D01*
X049586Y045525D01*
X049586Y045695D01*
X049642Y045695D02*
X049472Y045695D01*
X049642Y045695D02*
X049699Y045639D01*
X049699Y045525D01*
X049642Y045327D02*
X049472Y045327D01*
X049642Y045327D02*
X049699Y045270D01*
X049699Y045157D01*
X049642Y045100D01*
X049812Y045100D02*
X049472Y045100D01*
X049529Y044959D02*
X049472Y044902D01*
X049472Y044789D01*
X049529Y044732D01*
X049756Y044732D01*
X049812Y044789D01*
X049812Y044902D01*
X049756Y044959D01*
X049642Y044222D02*
X049699Y044165D01*
X049699Y044052D01*
X049642Y043995D01*
X049529Y043995D01*
X049472Y044052D01*
X049472Y044165D01*
X049529Y044222D01*
X049642Y044222D01*
X049642Y043854D02*
X049586Y043797D01*
X049586Y043627D01*
X049472Y043627D02*
X049812Y043627D01*
X049812Y043797D01*
X049756Y043854D01*
X049642Y043854D01*
X049472Y043495D02*
X049472Y043381D01*
X049472Y043438D02*
X049699Y043438D01*
X049699Y043381D01*
X049812Y043438D02*
X049869Y043438D01*
X049812Y043013D02*
X049472Y043013D01*
X049472Y043240D01*
X043873Y042720D02*
X042074Y042720D01*
X041679Y042720D02*
X039880Y042720D01*
X040559Y042877D02*
X040559Y043712D01*
X040976Y043294D01*
X040559Y042877D01*
X040976Y042877D02*
X040976Y043294D01*
X040976Y043712D01*
X040373Y045597D02*
X040373Y046014D01*
X040870Y046117D02*
X041108Y046117D01*
X041611Y046014D02*
X041611Y045597D01*
X041679Y043869D02*
X039880Y043869D01*
X040011Y041819D02*
X041811Y041819D01*
X042155Y041819D02*
X043954Y041819D01*
X043275Y041662D02*
X043275Y040827D01*
X042858Y041244D01*
X043275Y041662D01*
X042858Y041662D02*
X042858Y041244D01*
X042858Y040827D01*
X042155Y040670D02*
X043954Y040670D01*
X043194Y042877D02*
X042776Y043294D01*
X043194Y043712D01*
X043194Y042877D01*
X042776Y042877D02*
X042776Y043294D01*
X042776Y043712D01*
X042223Y045166D02*
X042223Y045582D01*
X042720Y045686D02*
X042958Y045686D01*
X043461Y045582D02*
X043461Y045166D01*
X043873Y043869D02*
X042074Y043869D01*
X041108Y041662D02*
X041108Y041244D01*
X040690Y041662D01*
X040690Y040827D01*
X041108Y041244D01*
X041108Y040827D01*
X041811Y040670D02*
X040011Y040670D01*
X040824Y046965D02*
X041060Y046965D01*
X041060Y047437D02*
X040824Y047437D01*
X040423Y048966D02*
X040423Y049382D01*
X040920Y049486D02*
X041158Y049486D01*
X041661Y049382D02*
X041661Y048966D01*
X042223Y049032D02*
X042223Y048616D01*
X042720Y049136D02*
X042958Y049136D01*
X043461Y049032D02*
X043461Y048616D01*
X042960Y047012D02*
X042724Y047012D01*
X042724Y046539D02*
X042960Y046539D01*
X042960Y050039D02*
X042724Y050039D01*
X042724Y050512D02*
X042960Y050512D01*
X041210Y050339D02*
X040974Y050339D01*
X040974Y050812D02*
X041210Y050812D01*
X036061Y049032D02*
X036061Y048616D01*
X035558Y049136D02*
X035320Y049136D01*
X034823Y049032D02*
X034823Y048616D01*
X034261Y048966D02*
X034261Y049382D01*
X033758Y049486D02*
X033520Y049486D01*
X033023Y049382D02*
X033023Y048966D01*
X033574Y050339D02*
X033810Y050339D01*
X033810Y050812D02*
X033574Y050812D01*
X035324Y050512D02*
X035560Y050512D01*
X035560Y050039D02*
X035324Y050039D01*
X035324Y047012D02*
X035560Y047012D01*
X035560Y046539D02*
X035324Y046539D01*
X035320Y045686D02*
X035558Y045686D01*
X036061Y045582D02*
X036061Y045166D01*
X036473Y043869D02*
X034674Y043869D01*
X034279Y043869D02*
X032480Y043869D01*
X032480Y042720D02*
X034279Y042720D01*
X034674Y042720D02*
X036473Y042720D01*
X035794Y042877D02*
X035794Y043712D01*
X035376Y043294D01*
X035794Y042877D01*
X035376Y042877D02*
X035376Y043294D01*
X035376Y043712D01*
X034823Y045166D02*
X034823Y045582D01*
X034211Y045597D02*
X034211Y046014D01*
X033708Y046117D02*
X033470Y046117D01*
X032973Y046014D02*
X032973Y045597D01*
X033159Y043712D02*
X033159Y042877D01*
X033576Y043294D01*
X033159Y043712D01*
X033576Y043712D02*
X033576Y043294D01*
X033576Y042877D01*
X033708Y041662D02*
X033708Y041244D01*
X033290Y041662D01*
X033290Y040827D01*
X033708Y041244D01*
X033708Y040827D01*
X034411Y040670D02*
X032611Y040670D01*
X032611Y041819D02*
X034411Y041819D01*
X034755Y041819D02*
X036554Y041819D01*
X035875Y041662D02*
X035875Y040827D01*
X035458Y041244D01*
X035875Y041662D01*
X035458Y041662D02*
X035458Y041244D01*
X035458Y040827D01*
X034755Y040670D02*
X036554Y040670D01*
X033660Y046965D02*
X033424Y046965D01*
X033424Y047437D02*
X033660Y047437D01*
D18*
X047177Y039489D02*
X047179Y039514D01*
X047185Y039539D01*
X047194Y039563D01*
X047207Y039585D01*
X047224Y039605D01*
X047243Y039622D01*
X047264Y039636D01*
X047288Y039646D01*
X047312Y039653D01*
X047338Y039656D01*
X047363Y039655D01*
X047388Y039650D01*
X047412Y039641D01*
X047435Y039629D01*
X047455Y039614D01*
X047473Y039595D01*
X047488Y039574D01*
X047499Y039551D01*
X047507Y039527D01*
X047511Y039502D01*
X047511Y039476D01*
X047507Y039451D01*
X047499Y039427D01*
X047488Y039404D01*
X047473Y039383D01*
X047455Y039364D01*
X047435Y039349D01*
X047412Y039337D01*
X047388Y039328D01*
X047363Y039323D01*
X047338Y039322D01*
X047312Y039325D01*
X047288Y039332D01*
X047264Y039342D01*
X047243Y039356D01*
X047224Y039373D01*
X047207Y039393D01*
X047194Y039415D01*
X047185Y039439D01*
X047179Y039464D01*
X047177Y039489D01*
X047442Y043594D02*
X047444Y043644D01*
X047450Y043694D01*
X047460Y043744D01*
X047473Y043792D01*
X047490Y043840D01*
X047511Y043886D01*
X047535Y043930D01*
X047563Y043972D01*
X047594Y044012D01*
X047628Y044049D01*
X047665Y044084D01*
X047704Y044115D01*
X047745Y044144D01*
X047789Y044169D01*
X047835Y044191D01*
X047882Y044209D01*
X047930Y044223D01*
X047979Y044234D01*
X048029Y044241D01*
X048079Y044244D01*
X048130Y044243D01*
X048180Y044238D01*
X048230Y044229D01*
X048278Y044217D01*
X048326Y044200D01*
X048372Y044180D01*
X048417Y044157D01*
X048460Y044130D01*
X048500Y044100D01*
X048538Y044067D01*
X048573Y044031D01*
X048606Y043992D01*
X048635Y043951D01*
X048661Y043908D01*
X048684Y043863D01*
X048703Y043816D01*
X048718Y043768D01*
X048730Y043719D01*
X048738Y043669D01*
X048742Y043619D01*
X048742Y043569D01*
X048738Y043519D01*
X048730Y043469D01*
X048718Y043420D01*
X048703Y043372D01*
X048684Y043325D01*
X048661Y043280D01*
X048635Y043237D01*
X048606Y043196D01*
X048573Y043157D01*
X048538Y043121D01*
X048500Y043088D01*
X048460Y043058D01*
X048417Y043031D01*
X048372Y043008D01*
X048326Y042988D01*
X048278Y042971D01*
X048230Y042959D01*
X048180Y042950D01*
X048130Y042945D01*
X048079Y042944D01*
X048029Y042947D01*
X047979Y042954D01*
X047930Y042965D01*
X047882Y042979D01*
X047835Y042997D01*
X047789Y043019D01*
X047745Y043044D01*
X047704Y043073D01*
X047665Y043104D01*
X047628Y043139D01*
X047594Y043176D01*
X047563Y043216D01*
X047535Y043258D01*
X047511Y043302D01*
X047490Y043348D01*
X047473Y043396D01*
X047460Y043444D01*
X047450Y043494D01*
X047444Y043544D01*
X047442Y043594D01*
X048673Y039489D02*
X048675Y039514D01*
X048681Y039539D01*
X048690Y039563D01*
X048703Y039585D01*
X048720Y039605D01*
X048739Y039622D01*
X048760Y039636D01*
X048784Y039646D01*
X048808Y039653D01*
X048834Y039656D01*
X048859Y039655D01*
X048884Y039650D01*
X048908Y039641D01*
X048931Y039629D01*
X048951Y039614D01*
X048969Y039595D01*
X048984Y039574D01*
X048995Y039551D01*
X049003Y039527D01*
X049007Y039502D01*
X049007Y039476D01*
X049003Y039451D01*
X048995Y039427D01*
X048984Y039404D01*
X048969Y039383D01*
X048951Y039364D01*
X048931Y039349D01*
X048908Y039337D01*
X048884Y039328D01*
X048859Y039323D01*
X048834Y039322D01*
X048808Y039325D01*
X048784Y039332D01*
X048760Y039342D01*
X048739Y039356D01*
X048720Y039373D01*
X048703Y039393D01*
X048690Y039415D01*
X048681Y039439D01*
X048675Y039464D01*
X048673Y039489D01*
D19*
X048343Y043899D02*
X048268Y043899D01*
X048193Y043975D01*
X048193Y044350D01*
X048268Y044350D02*
X048118Y044350D01*
X047958Y044350D02*
X047733Y044350D01*
X047658Y044275D01*
X047658Y044125D01*
X047733Y044050D01*
X047958Y044050D01*
X047958Y043899D02*
X047958Y044350D01*
X047498Y044275D02*
X047498Y044200D01*
X047422Y044125D01*
X047272Y044125D01*
X047197Y044050D01*
X047197Y043975D01*
X047272Y043899D01*
X047422Y043899D01*
X047498Y043975D01*
X047498Y044050D01*
X047422Y044125D01*
X047272Y044125D02*
X047197Y044200D01*
X047197Y044275D01*
X047272Y044350D01*
X047422Y044350D01*
X047498Y044275D01*
X048343Y043899D02*
X048418Y043975D01*
D20*
X048456Y048129D02*
X048307Y048250D01*
X048248Y048219D01*
X048163Y048424D01*
X048201Y048445D01*
X048232Y048475D01*
X048257Y048511D01*
X048272Y048551D01*
X048277Y048594D01*
X048271Y048638D01*
X048256Y048680D01*
X048231Y048716D01*
X048198Y048746D01*
X048159Y048766D01*
X048116Y048777D01*
X048072Y048778D01*
X048029Y048768D01*
X047990Y048748D01*
X047956Y048719D01*
X047930Y048683D01*
X047914Y048642D01*
X047908Y048598D01*
X047912Y048555D01*
X047927Y048513D01*
X047951Y048476D01*
X047983Y048446D01*
X048021Y048424D01*
X047937Y048219D01*
X047877Y048250D01*
X047729Y048129D01*
X047627Y048231D01*
X047748Y048379D01*
X047717Y048439D01*
X047696Y048503D01*
X047506Y048523D01*
X047506Y048666D01*
X047696Y048686D01*
X047717Y048750D01*
X047748Y048810D01*
X047627Y048958D01*
X047729Y049060D01*
X047877Y048939D01*
X047937Y048970D01*
X048001Y048990D01*
X048020Y049181D01*
X048164Y049181D01*
X048183Y048990D01*
X048248Y048970D01*
X048307Y048939D01*
X048456Y049060D01*
X048557Y048958D01*
X048436Y048810D01*
X048467Y048750D01*
X048488Y048686D01*
X048678Y048666D01*
X048678Y048523D01*
X048488Y048503D01*
X048467Y048439D01*
X048436Y048379D01*
X048557Y048231D01*
X048456Y048129D01*
X048480Y048153D02*
X048426Y048153D01*
X048356Y048211D02*
X048537Y048211D01*
X048527Y048268D02*
X048227Y048268D01*
X048203Y048326D02*
X048480Y048326D01*
X048439Y048383D02*
X048180Y048383D01*
X048193Y048441D02*
X048468Y048441D01*
X048486Y048498D02*
X048248Y048498D01*
X048272Y048556D02*
X048678Y048556D01*
X048678Y048614D02*
X048274Y048614D01*
X048259Y048671D02*
X048633Y048671D01*
X048474Y048729D02*
X048217Y048729D01*
X048268Y048959D02*
X047916Y048959D01*
X047852Y048959D02*
X047628Y048959D01*
X047673Y048901D02*
X048511Y048901D01*
X048557Y048959D02*
X048332Y048959D01*
X048402Y049016D02*
X048499Y049016D01*
X048464Y048844D02*
X047720Y048844D01*
X047736Y048786D02*
X048449Y048786D01*
X048181Y049016D02*
X048003Y049016D01*
X048009Y049074D02*
X048175Y049074D01*
X048169Y049132D02*
X048015Y049132D01*
X047782Y049016D02*
X047685Y049016D01*
X047710Y048729D02*
X047967Y048729D01*
X047926Y048671D02*
X047552Y048671D01*
X047506Y048614D02*
X047910Y048614D01*
X047912Y048556D02*
X047506Y048556D01*
X047698Y048498D02*
X047936Y048498D01*
X047991Y048441D02*
X047716Y048441D01*
X047746Y048383D02*
X048005Y048383D01*
X047981Y048326D02*
X047704Y048326D01*
X047657Y048268D02*
X047957Y048268D01*
X047829Y048211D02*
X047647Y048211D01*
X047705Y048153D02*
X047758Y048153D01*
M02*
