G75*
%MOIN*%
%OFA0B0*%
%FSLAX24Y24*%
%IPPOS*%
%LPD*%
%AMOC8*
5,1,8,0,0,1.08239X$1,22.5*
%
%ADD10C,0.0000*%
%ADD11C,0.0660*%
%ADD12R,0.0500X0.0800*%
%ADD13R,0.0354X0.0984*%
%ADD14R,0.0800X0.0800*%
%ADD15R,0.0472X0.0315*%
%ADD16C,0.0118*%
%ADD17R,0.0394X0.0433*%
%ADD18R,0.0217X0.0472*%
%ADD19C,0.0740*%
%ADD20R,0.0709X0.0591*%
%ADD21R,0.0984X0.0591*%
%ADD22R,0.0157X0.0551*%
%ADD23C,0.0000*%
%ADD24C,0.0394*%
%ADD25R,0.0394X0.1811*%
%ADD26R,0.0630X0.1339*%
%ADD27C,0.0080*%
%ADD28C,0.0277*%
%ADD29C,0.0100*%
%ADD30C,0.0320*%
%ADD31C,0.0160*%
%ADD32C,0.0120*%
D10*
X030992Y033994D02*
X030992Y053680D01*
X050677Y053680D01*
X050677Y033994D01*
X030992Y033994D01*
D11*
X031492Y039126D03*
X031492Y040126D03*
X031492Y041126D03*
X031492Y042126D03*
X031492Y043126D03*
X031492Y044126D03*
X031492Y045126D03*
X031492Y046126D03*
X031492Y047126D03*
X031492Y048126D03*
X031492Y049126D03*
X031492Y050126D03*
X031492Y051126D03*
X031492Y052126D03*
X031492Y053126D03*
X037492Y053126D03*
X037492Y052126D03*
X037492Y051126D03*
X037492Y050126D03*
X037492Y049126D03*
X037492Y048126D03*
X037492Y047126D03*
X037492Y046126D03*
X037492Y045126D03*
X037492Y044126D03*
X037492Y043126D03*
X037492Y042126D03*
X037492Y041126D03*
X037492Y040126D03*
X037492Y039126D03*
X038892Y039126D03*
X038892Y040126D03*
X038892Y041126D03*
X038892Y042126D03*
X038892Y043126D03*
X038892Y044126D03*
X038892Y045126D03*
X038892Y046126D03*
X038892Y047126D03*
X038892Y048126D03*
X038892Y049126D03*
X038892Y050126D03*
X038892Y051126D03*
X038892Y052126D03*
X038892Y053126D03*
X044892Y053126D03*
X044892Y052126D03*
X044892Y051126D03*
X044892Y050126D03*
X044892Y049126D03*
X044892Y048126D03*
X044892Y047126D03*
X044892Y046126D03*
X044892Y045126D03*
X044892Y044126D03*
X044892Y043126D03*
X044892Y042126D03*
X044892Y041126D03*
X044892Y040126D03*
X044892Y039126D03*
D12*
X042892Y039776D03*
X041892Y039776D03*
X040892Y039776D03*
X040892Y037476D03*
X041892Y037476D03*
X042892Y037476D03*
X035492Y037476D03*
X034492Y037476D03*
X033492Y037476D03*
X033492Y039776D03*
X034492Y039776D03*
X035492Y039776D03*
D13*
X035700Y035967D03*
X035200Y035967D03*
X034700Y035967D03*
X034200Y035967D03*
X033700Y035967D03*
X033200Y035967D03*
X036200Y035967D03*
X040600Y035967D03*
X041100Y035967D03*
X041600Y035967D03*
X042100Y035967D03*
X042600Y035967D03*
X043100Y035967D03*
X043600Y035967D03*
D14*
X044892Y035994D03*
X044892Y034994D03*
X044892Y036994D03*
X044892Y037994D03*
X038892Y037994D03*
X038892Y036994D03*
X038892Y035994D03*
X038892Y034994D03*
X037492Y034994D03*
X037492Y035994D03*
X037492Y036994D03*
X037492Y037994D03*
X031492Y037994D03*
X031492Y036994D03*
X031492Y035994D03*
X031492Y034994D03*
D15*
X032442Y036971D03*
X032442Y037680D03*
X036442Y037630D03*
X036442Y036921D03*
X039842Y036971D03*
X039842Y037680D03*
X043842Y037630D03*
X043842Y036921D03*
D16*
X046454Y041338D02*
X046730Y041338D01*
X046454Y041338D02*
X046454Y041614D01*
X046730Y041614D01*
X046730Y041338D01*
X046730Y041455D02*
X046454Y041455D01*
X046454Y041572D02*
X046730Y041572D01*
X046730Y042029D02*
X046454Y042029D01*
X046454Y042305D01*
X046730Y042305D01*
X046730Y042029D01*
X046730Y042146D02*
X046454Y042146D01*
X046454Y042263D02*
X046730Y042263D01*
D17*
X047137Y042120D03*
X047137Y041451D03*
X047136Y040906D03*
X046587Y040907D03*
X046587Y040238D03*
X047136Y040237D03*
X049597Y043057D03*
X049597Y043726D03*
D18*
X048656Y041643D03*
X048282Y041643D03*
X047908Y041643D03*
X047908Y040620D03*
X048656Y040620D03*
D19*
X049592Y041094D03*
X049592Y042094D03*
X048592Y045094D03*
X047592Y045094D03*
D20*
X046642Y038622D03*
X049543Y038622D03*
D21*
X048092Y038622D03*
D22*
X048092Y039685D03*
X047836Y039685D03*
X047580Y039685D03*
X048348Y039685D03*
X048604Y039685D03*
D23*
X048673Y039489D02*
X048675Y039514D01*
X048681Y039539D01*
X048690Y039563D01*
X048703Y039585D01*
X048720Y039605D01*
X048739Y039622D01*
X048760Y039636D01*
X048784Y039646D01*
X048808Y039653D01*
X048834Y039656D01*
X048859Y039655D01*
X048884Y039650D01*
X048908Y039641D01*
X048931Y039629D01*
X048951Y039614D01*
X048969Y039595D01*
X048984Y039574D01*
X048995Y039551D01*
X049003Y039527D01*
X049007Y039502D01*
X049007Y039476D01*
X049003Y039451D01*
X048995Y039427D01*
X048984Y039404D01*
X048969Y039383D01*
X048951Y039364D01*
X048931Y039349D01*
X048908Y039337D01*
X048884Y039328D01*
X048859Y039323D01*
X048834Y039322D01*
X048808Y039325D01*
X048784Y039332D01*
X048760Y039342D01*
X048739Y039356D01*
X048720Y039373D01*
X048703Y039393D01*
X048690Y039415D01*
X048681Y039439D01*
X048675Y039464D01*
X048673Y039489D01*
X047177Y039489D02*
X047179Y039514D01*
X047185Y039539D01*
X047194Y039563D01*
X047207Y039585D01*
X047224Y039605D01*
X047243Y039622D01*
X047264Y039636D01*
X047288Y039646D01*
X047312Y039653D01*
X047338Y039656D01*
X047363Y039655D01*
X047388Y039650D01*
X047412Y039641D01*
X047435Y039629D01*
X047455Y039614D01*
X047473Y039595D01*
X047488Y039574D01*
X047499Y039551D01*
X047507Y039527D01*
X047511Y039502D01*
X047511Y039476D01*
X047507Y039451D01*
X047499Y039427D01*
X047488Y039404D01*
X047473Y039383D01*
X047455Y039364D01*
X047435Y039349D01*
X047412Y039337D01*
X047388Y039328D01*
X047363Y039323D01*
X047338Y039322D01*
X047312Y039325D01*
X047288Y039332D01*
X047264Y039342D01*
X047243Y039356D01*
X047224Y039373D01*
X047207Y039393D01*
X047194Y039415D01*
X047185Y039439D01*
X047179Y039464D01*
X047177Y039489D01*
D24*
X049677Y040189D03*
X046592Y045594D03*
D25*
X047698Y046638D03*
X048486Y046638D03*
D26*
X049431Y048685D03*
X046754Y048685D03*
D27*
X044892Y049126D02*
X044490Y048328D01*
X044451Y048214D02*
X043539Y043679D01*
X043530Y043646D02*
X042377Y040266D01*
X042362Y040176D02*
X042362Y037076D01*
X042366Y037028D02*
X042463Y036466D01*
X042463Y036459D02*
X042463Y036419D01*
X042600Y035967D01*
X042100Y035967D02*
X041963Y035515D01*
X041963Y035475D01*
X041945Y035442D02*
X041844Y035375D01*
X041797Y035357D02*
X040822Y035198D01*
X040778Y035195D02*
X039292Y035195D01*
X039252Y035195D01*
X038892Y034994D01*
X038892Y035994D02*
X039252Y036354D01*
X039292Y036354D01*
X039303Y036356D01*
X039314Y036361D01*
X039323Y036368D01*
X039329Y036378D01*
X039402Y036546D01*
X039411Y036579D02*
X039487Y037145D01*
X039491Y037164D01*
X039498Y037182D01*
X039509Y037199D01*
X039521Y037214D01*
X039536Y037227D01*
X039553Y037237D01*
X039571Y037244D01*
X040113Y037407D01*
X040130Y037414D01*
X040147Y037424D01*
X040161Y037436D01*
X040174Y037450D01*
X040184Y037466D01*
X040192Y037484D01*
X040196Y037502D01*
X040198Y037521D01*
X040199Y037521D02*
X040202Y037879D01*
X040362Y037878D02*
X040359Y037520D01*
X040359Y037513D02*
X040328Y036588D01*
X040311Y036503D02*
X040311Y036503D01*
X040303Y036459D02*
X040303Y035475D01*
X040305Y035454D01*
X040310Y035434D01*
X040319Y035415D01*
X040331Y035398D01*
X040346Y035383D01*
X040363Y035371D01*
X040382Y035362D01*
X040402Y035357D01*
X040423Y035355D01*
X040778Y035355D01*
X040844Y035375D02*
X040945Y035442D01*
X040963Y035475D02*
X040963Y035515D01*
X041100Y035967D01*
X040600Y035967D02*
X040522Y036419D01*
X040522Y036459D01*
X040522Y037876D01*
X040201Y037880D02*
X040203Y037917D01*
X040208Y037954D01*
X040216Y037990D01*
X040227Y038026D01*
X040241Y038060D01*
X040258Y038093D01*
X040278Y038125D01*
X040300Y038155D01*
X040301Y038154D02*
X041235Y039300D01*
X041257Y039340D02*
X041527Y040211D01*
X041535Y040229D02*
X043286Y043729D01*
X043530Y043646D02*
X043535Y043662D01*
X043539Y043678D01*
X043695Y043643D02*
X044452Y047219D01*
X044490Y047328D02*
X044892Y048126D01*
X044451Y048215D02*
X044461Y048254D01*
X044474Y048292D01*
X044490Y048329D01*
X044490Y047328D02*
X044474Y047293D01*
X044461Y047257D01*
X044452Y047219D01*
X043289Y047759D02*
X043286Y043729D01*
X043695Y043643D02*
X043689Y043618D01*
X043682Y043594D01*
X042528Y040214D01*
X042522Y040176D02*
X042522Y037076D01*
X042548Y037001D02*
X042955Y036484D01*
X042963Y036459D02*
X042963Y036419D01*
X043100Y035967D01*
X043600Y035967D02*
X043738Y036387D01*
X043778Y036387D01*
X043995Y036387D01*
X044250Y036424D02*
X044246Y036445D01*
X044241Y036466D01*
X044233Y036486D01*
X044234Y036486D02*
X044233Y036487D01*
X044251Y036424D02*
X044373Y035577D01*
X044382Y035546D02*
X044455Y035378D01*
X044461Y035368D01*
X044470Y035361D01*
X044481Y035356D01*
X044492Y035354D01*
X044532Y035354D01*
X044892Y034994D01*
X044382Y035547D02*
X044377Y035562D01*
X044373Y035578D01*
X044892Y035994D02*
X044532Y036354D01*
X044492Y036354D01*
X044481Y036356D01*
X044470Y036361D01*
X044461Y036368D01*
X044455Y036378D01*
X044382Y036546D01*
X044372Y036591D02*
X044359Y037086D01*
X044343Y037171D02*
X044227Y037502D01*
X044212Y037577D02*
X044198Y037795D01*
X044183Y037847D02*
X043963Y038234D01*
X044289Y038070D02*
X044348Y037864D01*
X044358Y037805D02*
X044372Y037587D01*
X044382Y037546D02*
X044455Y037378D01*
X044461Y037368D01*
X044470Y037361D01*
X044481Y037356D01*
X044492Y037354D01*
X044532Y037354D01*
X044892Y036994D01*
X044372Y036591D02*
X044373Y036575D01*
X044377Y036560D01*
X044382Y036546D01*
X044233Y036487D02*
X044225Y036511D01*
X044218Y036536D01*
X044214Y036561D01*
X044212Y036587D01*
X044199Y037082D01*
X044188Y037128D02*
X044042Y037456D01*
X044038Y037472D02*
X044038Y037512D01*
X043842Y037630D01*
X043646Y037747D01*
X043646Y037787D01*
X043644Y037800D02*
X043104Y039363D01*
X043102Y039376D02*
X043102Y039416D01*
X042892Y039776D01*
X043102Y040136D01*
X043102Y040176D01*
X043113Y040203D02*
X044892Y042126D01*
X043940Y040059D02*
X044531Y038402D01*
X044532Y038394D02*
X044532Y038354D01*
X044892Y037994D01*
X044372Y037587D02*
X044375Y037567D01*
X044382Y037547D01*
X044228Y037502D02*
X044220Y037526D01*
X044215Y037551D01*
X044213Y037576D01*
X044038Y037472D02*
X044039Y037464D01*
X044041Y037456D01*
X044198Y037795D02*
X044195Y037813D01*
X044190Y037830D01*
X044182Y037846D01*
X044347Y037865D02*
X044354Y037835D01*
X044357Y037806D01*
X044532Y038394D02*
X044531Y038402D01*
X044342Y037171D02*
X044350Y037144D01*
X044356Y037115D01*
X044358Y037087D01*
X044198Y037082D02*
X044197Y037098D01*
X044193Y037113D01*
X044188Y037128D01*
X043995Y036804D02*
X043842Y036921D01*
X043995Y036804D02*
X043995Y036764D01*
X043995Y036387D01*
X043646Y037787D02*
X043645Y037794D01*
X043644Y037800D01*
X042954Y036484D02*
X042959Y036476D01*
X042962Y036468D01*
X042963Y036459D01*
X042463Y036459D02*
X042462Y036466D01*
X042548Y037002D02*
X042537Y037018D01*
X042529Y037037D01*
X042524Y037056D01*
X042522Y037076D01*
X042362Y037076D02*
X042363Y037052D01*
X042366Y037028D01*
X041892Y037476D02*
X041682Y037836D01*
X041642Y037836D01*
X041629Y037838D02*
X041181Y037989D01*
X041142Y037996D02*
X040642Y037996D01*
X040621Y037994D01*
X040601Y037989D01*
X040582Y037980D01*
X040565Y037968D01*
X040550Y037953D01*
X040538Y037936D01*
X040529Y037917D01*
X040524Y037897D01*
X040522Y037876D01*
X040362Y037878D02*
X040364Y037909D01*
X040369Y037939D01*
X040377Y037968D01*
X040389Y037996D01*
X040403Y038022D01*
X040421Y038047D01*
X040440Y038070D01*
X041671Y039348D01*
X041682Y039376D02*
X041682Y039416D01*
X041892Y039776D01*
X041527Y040211D02*
X041535Y040229D01*
X040892Y039776D02*
X040682Y039416D01*
X040682Y039376D01*
X040678Y039359D02*
X040099Y038132D01*
X040042Y037909D02*
X040038Y037840D01*
X040038Y037837D01*
X040038Y037797D01*
X039842Y037680D01*
X040358Y037520D02*
X040358Y037513D01*
X040042Y037909D02*
X040046Y037956D01*
X040054Y038001D01*
X040066Y038046D01*
X040080Y038090D01*
X040099Y038133D01*
X039252Y038394D02*
X039253Y038404D01*
X039382Y038844D01*
X039252Y038394D02*
X039252Y038354D01*
X038892Y037994D01*
X039411Y036578D02*
X039408Y036562D01*
X039402Y036546D01*
X039842Y036971D02*
X040038Y036854D01*
X040038Y036814D01*
X040039Y036808D02*
X040071Y036596D01*
X040312Y036503D02*
X040321Y036531D01*
X040326Y036559D01*
X040329Y036587D01*
X040311Y036502D02*
X040307Y036488D01*
X040304Y036474D01*
X040303Y036459D01*
X040038Y036808D02*
X040038Y036814D01*
X040892Y037476D02*
X041102Y037116D01*
X041102Y037076D01*
X041108Y037055D02*
X041457Y036480D01*
X041463Y036459D02*
X041463Y036419D01*
X041600Y035967D01*
X041844Y035375D02*
X041829Y035367D01*
X041814Y035360D01*
X041797Y035357D01*
X041945Y035442D02*
X041953Y035448D01*
X041958Y035456D01*
X041962Y035465D01*
X041963Y035475D01*
X041463Y036459D02*
X041462Y036470D01*
X041457Y036480D01*
X041108Y037055D02*
X041103Y037065D01*
X041102Y037076D01*
X041180Y037990D02*
X041161Y037994D01*
X041142Y037996D01*
X041629Y037838D02*
X041635Y037837D01*
X041642Y037836D01*
X041671Y039348D02*
X041677Y039356D01*
X041681Y039366D01*
X041682Y039376D01*
X041257Y039340D02*
X041251Y039326D01*
X041244Y039313D01*
X041235Y039300D01*
X040682Y039376D02*
X040681Y039367D01*
X040678Y039359D01*
X042522Y040176D02*
X042524Y040196D01*
X042528Y040215D01*
X042377Y040266D02*
X042369Y040237D01*
X042364Y040207D01*
X042362Y040176D01*
X043102Y040176D02*
X043103Y040186D01*
X043107Y040195D01*
X043113Y040203D01*
X043102Y039376D02*
X043103Y039369D01*
X043104Y039363D01*
X040963Y035475D02*
X040962Y035465D01*
X040958Y035456D01*
X040953Y035448D01*
X040945Y035442D01*
X040844Y035375D02*
X040829Y035366D01*
X040812Y035360D01*
X040795Y035356D01*
X040778Y035355D01*
X040778Y035195D02*
X040801Y035196D01*
X040823Y035199D01*
X037492Y034994D02*
X037132Y035354D01*
X037092Y035354D01*
X037081Y035356D01*
X037070Y035361D01*
X037061Y035368D01*
X037055Y035378D01*
X036982Y035546D01*
X036973Y035577D02*
X036851Y036424D01*
X036834Y036486D02*
X036833Y036487D01*
X036812Y036587D02*
X036799Y037082D01*
X036788Y037128D02*
X036642Y037456D01*
X036638Y037472D02*
X036638Y037512D01*
X036442Y037630D01*
X036246Y037747D01*
X036246Y037787D01*
X036244Y037800D02*
X035704Y039363D01*
X035702Y039376D02*
X035702Y039416D01*
X035492Y039776D01*
X035702Y040136D01*
X035702Y040176D01*
X035713Y040203D02*
X037492Y042126D01*
X036282Y043594D02*
X035128Y040214D01*
X035122Y040176D02*
X035122Y037076D01*
X035148Y037001D02*
X035555Y036484D01*
X035563Y036459D02*
X035563Y036419D01*
X035700Y035967D01*
X035200Y035967D02*
X035063Y036419D01*
X035063Y036459D01*
X035063Y036466D02*
X034966Y037028D01*
X034962Y037076D02*
X034962Y040176D01*
X034977Y040266D02*
X036130Y043646D01*
X036139Y043679D02*
X037051Y048214D01*
X037090Y048328D02*
X037492Y049126D01*
X037492Y048126D02*
X037090Y047328D01*
X037052Y047219D02*
X036295Y043643D01*
X035886Y043729D02*
X034135Y040229D01*
X034127Y040211D02*
X033857Y039340D01*
X033835Y039300D02*
X032901Y038154D01*
X033040Y038070D02*
X034271Y039348D01*
X034282Y039376D02*
X034282Y039416D01*
X034492Y039776D01*
X034127Y040211D02*
X034135Y040229D01*
X034282Y039376D02*
X034281Y039366D01*
X034277Y039356D01*
X034271Y039348D01*
X033857Y039340D02*
X033851Y039326D01*
X033844Y039313D01*
X033835Y039300D01*
X033282Y039376D02*
X033282Y039416D01*
X033492Y039776D01*
X033278Y039359D02*
X032699Y038132D01*
X032642Y037909D02*
X032638Y037840D01*
X032638Y037837D01*
X032638Y037797D01*
X032442Y037680D01*
X032958Y037520D02*
X032958Y037513D01*
X032959Y037513D02*
X032928Y036588D01*
X032911Y036503D02*
X032911Y036503D01*
X032903Y036459D02*
X032903Y035475D01*
X032905Y035454D01*
X032910Y035434D01*
X032919Y035415D01*
X032931Y035398D01*
X032946Y035383D01*
X032963Y035371D01*
X032982Y035362D01*
X033002Y035357D01*
X033023Y035355D01*
X033378Y035355D01*
X033444Y035375D02*
X033545Y035442D01*
X033563Y035475D02*
X033563Y035515D01*
X033700Y035967D01*
X033200Y035967D02*
X033122Y036419D01*
X033122Y036459D01*
X033122Y037876D01*
X032801Y037880D02*
X032803Y037917D01*
X032808Y037954D01*
X032816Y037990D01*
X032827Y038026D01*
X032841Y038060D01*
X032858Y038093D01*
X032878Y038125D01*
X032900Y038155D01*
X032962Y037878D02*
X032959Y037520D01*
X032799Y037521D02*
X032802Y037879D01*
X032798Y037521D02*
X032796Y037502D01*
X032792Y037484D01*
X032784Y037466D01*
X032774Y037450D01*
X032761Y037436D01*
X032747Y037424D01*
X032730Y037414D01*
X032713Y037407D01*
X032171Y037244D01*
X032153Y037237D01*
X032136Y037227D01*
X032121Y037214D01*
X032109Y037199D01*
X032098Y037182D01*
X032091Y037164D01*
X032087Y037145D01*
X032011Y036579D01*
X032002Y036546D02*
X031929Y036378D01*
X031923Y036368D01*
X031914Y036361D01*
X031903Y036356D01*
X031892Y036354D01*
X031852Y036354D01*
X031492Y035994D01*
X032002Y036546D02*
X032008Y036562D01*
X032011Y036578D01*
X032442Y036971D02*
X032638Y036854D01*
X032638Y036814D01*
X032639Y036808D02*
X032671Y036596D01*
X032912Y036503D02*
X032921Y036531D01*
X032926Y036559D01*
X032929Y036587D01*
X032911Y036502D02*
X032907Y036488D01*
X032904Y036474D01*
X032903Y036459D01*
X032638Y036808D02*
X032638Y036814D01*
X033492Y037476D02*
X033702Y037116D01*
X033702Y037076D01*
X033708Y037055D02*
X034057Y036480D01*
X034063Y036459D02*
X034063Y036419D01*
X034200Y035967D01*
X034700Y035967D02*
X034563Y035515D01*
X034563Y035475D01*
X034545Y035442D02*
X034444Y035375D01*
X034397Y035357D02*
X033422Y035198D01*
X033378Y035195D02*
X031892Y035195D01*
X031852Y035195D01*
X031492Y034994D01*
X033378Y035195D02*
X033401Y035196D01*
X033423Y035199D01*
X033378Y035355D02*
X033395Y035356D01*
X033412Y035360D01*
X033429Y035366D01*
X033444Y035375D01*
X033545Y035442D02*
X033553Y035448D01*
X033558Y035456D01*
X033562Y035465D01*
X033563Y035475D01*
X034397Y035357D02*
X034414Y035360D01*
X034429Y035367D01*
X034444Y035375D01*
X034545Y035442D02*
X034553Y035448D01*
X034558Y035456D01*
X034562Y035465D01*
X034563Y035475D01*
X035063Y036459D02*
X035062Y036466D01*
X035554Y036484D02*
X035559Y036476D01*
X035562Y036468D01*
X035563Y036459D01*
X035148Y037002D02*
X035137Y037018D01*
X035129Y037037D01*
X035124Y037056D01*
X035122Y037076D01*
X034962Y037076D02*
X034963Y037052D01*
X034966Y037028D01*
X034492Y037476D02*
X034282Y037836D01*
X034242Y037836D01*
X034229Y037838D02*
X033781Y037989D01*
X033742Y037996D02*
X033242Y037996D01*
X033221Y037994D01*
X033201Y037989D01*
X033182Y037980D01*
X033165Y037968D01*
X033150Y037953D01*
X033138Y037936D01*
X033129Y037917D01*
X033124Y037897D01*
X033122Y037876D01*
X032962Y037878D02*
X032964Y037909D01*
X032969Y037939D01*
X032977Y037968D01*
X032989Y037996D01*
X033003Y038022D01*
X033021Y038047D01*
X033040Y038070D01*
X032699Y038133D02*
X032680Y038090D01*
X032666Y038046D01*
X032654Y038001D01*
X032646Y037956D01*
X032642Y037909D01*
X033278Y039359D02*
X033281Y039367D01*
X033282Y039376D01*
X033742Y037996D02*
X033761Y037994D01*
X033780Y037990D01*
X034229Y037838D02*
X034235Y037837D01*
X034242Y037836D01*
X033702Y037076D02*
X033703Y037065D01*
X033708Y037055D01*
X034057Y036480D02*
X034062Y036470D01*
X034063Y036459D01*
X035704Y039363D02*
X035703Y039369D01*
X035702Y039376D01*
X035702Y040176D02*
X035703Y040186D01*
X035707Y040195D01*
X035713Y040203D01*
X034977Y040266D02*
X034969Y040237D01*
X034964Y040207D01*
X034962Y040176D01*
X035122Y040176D02*
X035124Y040196D01*
X035128Y040215D01*
X036540Y040059D02*
X037131Y038402D01*
X037132Y038394D02*
X037132Y038354D01*
X037492Y037994D01*
X036948Y037864D02*
X036889Y038070D01*
X036783Y037847D02*
X036563Y038234D01*
X036947Y037865D02*
X036954Y037835D01*
X036957Y037806D01*
X036958Y037805D02*
X036972Y037587D01*
X036982Y037546D02*
X037055Y037378D01*
X037061Y037368D01*
X037070Y037361D01*
X037081Y037356D01*
X037092Y037354D01*
X037132Y037354D01*
X037492Y036994D01*
X036959Y037086D02*
X036972Y036591D01*
X036982Y036546D02*
X037055Y036378D01*
X037061Y036368D01*
X037070Y036361D01*
X037081Y036356D01*
X037092Y036354D01*
X037132Y036354D01*
X037492Y035994D01*
X036973Y035578D02*
X036977Y035562D01*
X036982Y035547D01*
X036200Y035967D02*
X036338Y036387D01*
X036378Y036387D01*
X036595Y036387D01*
X036850Y036424D02*
X036846Y036445D01*
X036841Y036466D01*
X036833Y036486D01*
X036595Y036387D02*
X036595Y036764D01*
X036595Y036804D01*
X036442Y036921D01*
X036798Y037082D02*
X036797Y037098D01*
X036793Y037113D01*
X036788Y037128D01*
X036942Y037171D02*
X036950Y037144D01*
X036956Y037115D01*
X036958Y037087D01*
X036943Y037171D02*
X036827Y037502D01*
X036812Y037577D02*
X036798Y037795D01*
X036795Y037813D01*
X036790Y037830D01*
X036782Y037846D01*
X036638Y037472D02*
X036639Y037464D01*
X036641Y037456D01*
X036828Y037502D02*
X036820Y037526D01*
X036815Y037551D01*
X036813Y037576D01*
X036972Y037587D02*
X036975Y037567D01*
X036982Y037547D01*
X036246Y037787D02*
X036245Y037794D01*
X036244Y037800D01*
X037132Y038394D02*
X037131Y038402D01*
X036972Y036591D02*
X036973Y036575D01*
X036977Y036560D01*
X036982Y036546D01*
X036833Y036487D02*
X036825Y036511D01*
X036818Y036536D01*
X036814Y036561D01*
X036812Y036587D01*
X036130Y043646D02*
X036135Y043662D01*
X036139Y043678D01*
X035886Y043729D02*
X035889Y047759D01*
X034344Y047544D02*
X034534Y048843D01*
X037051Y048215D02*
X037061Y048254D01*
X037074Y048292D01*
X037090Y048329D01*
X037090Y047328D02*
X037074Y047293D01*
X037061Y047257D01*
X037052Y047219D01*
X036295Y043643D02*
X036289Y043618D01*
X036282Y043594D01*
X031982Y038844D02*
X031853Y038404D01*
X031852Y038394D02*
X031852Y038354D01*
X031492Y037994D01*
X031852Y038394D02*
X031853Y038404D01*
X041744Y047544D02*
X041934Y048843D01*
D28*
X041934Y048843D03*
X041744Y047544D03*
X043289Y047759D03*
X043286Y043729D03*
X043940Y040059D03*
X043390Y039526D03*
X043963Y038234D03*
X043995Y036387D03*
X040071Y036596D03*
X039382Y038844D03*
X036563Y038234D03*
X036595Y036387D03*
X035990Y039526D03*
X036540Y040059D03*
X035886Y043729D03*
X035889Y047759D03*
X034534Y048843D03*
X034344Y047544D03*
X031982Y038844D03*
X032671Y036596D03*
D29*
X031938Y037374D02*
X032011Y037542D01*
X032011Y037543D02*
X032017Y037558D01*
X032020Y037573D01*
X031938Y037374D02*
X031932Y037364D01*
X031924Y037356D01*
X031914Y037349D01*
X031903Y037345D01*
X031892Y037344D01*
X031842Y037344D01*
X031492Y036994D01*
X032132Y038084D02*
X032237Y038750D01*
X032236Y038750D02*
X032245Y038781D01*
X032251Y038812D01*
X032253Y038844D01*
X032251Y038876D01*
X032246Y038908D01*
X032237Y038939D01*
X032225Y038969D01*
X032209Y038997D01*
X032191Y039023D01*
X032169Y039047D01*
X032145Y039068D01*
X032119Y039086D01*
X032090Y039102D01*
X032060Y039113D01*
X032029Y039122D01*
X032030Y039122D02*
X031492Y039126D01*
X035990Y039526D02*
X036783Y038487D01*
X036871Y038308D02*
X036889Y038070D01*
X036871Y038308D02*
X036858Y038346D01*
X036843Y038383D01*
X036826Y038419D01*
X036806Y038454D01*
X036784Y038487D01*
X032132Y038084D02*
X032100Y037957D01*
X032070Y037830D01*
X032044Y037702D01*
X032021Y037573D01*
X038892Y036994D02*
X039242Y037344D01*
X039292Y037344D01*
X039303Y037345D01*
X039314Y037349D01*
X039324Y037356D01*
X039332Y037364D01*
X039338Y037374D01*
X039411Y037542D01*
X039411Y037543D02*
X039417Y037558D01*
X039420Y037573D01*
X039532Y038084D02*
X039637Y038750D01*
X039636Y038750D02*
X039645Y038781D01*
X039651Y038812D01*
X039653Y038844D01*
X039651Y038876D01*
X039646Y038908D01*
X039637Y038939D01*
X039625Y038969D01*
X039609Y038997D01*
X039591Y039023D01*
X039569Y039047D01*
X039545Y039068D01*
X039519Y039086D01*
X039490Y039102D01*
X039460Y039113D01*
X039429Y039122D01*
X039430Y039122D02*
X038892Y039126D01*
X043390Y039526D02*
X044183Y038487D01*
X044271Y038308D02*
X044289Y038070D01*
X044271Y038308D02*
X044258Y038346D01*
X044243Y038383D01*
X044226Y038419D01*
X044206Y038454D01*
X044184Y038487D01*
X039532Y038084D02*
X039500Y037957D01*
X039470Y037830D01*
X039444Y037702D01*
X039421Y037573D01*
X046092Y038094D02*
X046092Y049594D01*
X050092Y049594D01*
X050092Y042298D01*
X050050Y042400D01*
X049898Y042552D01*
X049842Y042575D01*
X049842Y042670D01*
X049864Y042670D01*
X049964Y042770D01*
X049964Y043344D01*
X049902Y043406D01*
X049914Y043417D01*
X049934Y043452D01*
X049944Y043490D01*
X049944Y043678D01*
X049646Y043678D01*
X049646Y043775D01*
X049549Y043775D01*
X049549Y044093D01*
X049381Y044093D01*
X049342Y044082D01*
X049308Y044063D01*
X049280Y044035D01*
X049260Y044001D01*
X049250Y043962D01*
X049250Y043775D01*
X049549Y043775D01*
X049549Y043678D01*
X049250Y043678D01*
X049250Y043490D01*
X049260Y043452D01*
X049280Y043417D01*
X049292Y043406D01*
X049230Y043344D01*
X049230Y042770D01*
X049330Y042670D01*
X049342Y042670D01*
X049342Y042575D01*
X049286Y042552D01*
X049134Y042400D01*
X049052Y042202D01*
X049052Y041987D01*
X049075Y041931D01*
X048934Y041790D01*
X048934Y041950D01*
X048906Y041978D01*
X048906Y042082D01*
X048911Y042087D01*
X048961Y042208D01*
X048961Y042339D01*
X048911Y042460D01*
X048818Y042553D01*
X048697Y042603D01*
X048565Y042603D01*
X048444Y042553D01*
X048351Y042460D01*
X048301Y042339D01*
X048301Y042208D01*
X048351Y042087D01*
X048406Y042032D01*
X048406Y042030D01*
X048286Y042030D01*
X048286Y041647D01*
X048278Y041647D01*
X048278Y042030D01*
X048158Y042030D01*
X048158Y042063D01*
X048120Y042155D01*
X047932Y042343D01*
X047862Y042413D01*
X047770Y042451D01*
X047460Y042451D01*
X047404Y042507D01*
X047387Y042507D01*
X047387Y043118D01*
X047349Y043210D01*
X047279Y043280D01*
X046903Y043656D01*
X046903Y043857D01*
X046933Y043887D01*
X046983Y044008D01*
X046983Y044139D01*
X046933Y044260D01*
X046840Y044353D01*
X046719Y044403D01*
X046587Y044403D01*
X046466Y044353D01*
X046373Y044260D01*
X046323Y044139D01*
X046323Y044008D01*
X046373Y043887D01*
X046403Y043857D01*
X046403Y043503D01*
X046441Y043411D01*
X046512Y043341D01*
X046887Y042965D01*
X046887Y042811D01*
X046867Y042859D01*
X046774Y042952D01*
X046653Y043002D01*
X046521Y043002D01*
X046400Y042952D01*
X046307Y042859D01*
X046257Y042738D01*
X046257Y042607D01*
X046307Y042486D01*
X046309Y042484D01*
X046225Y042399D01*
X046225Y041934D01*
X046338Y041821D01*
X046225Y041709D01*
X046225Y041244D01*
X046248Y041221D01*
X046220Y041194D01*
X046220Y040620D01*
X046268Y040572D01*
X046220Y040525D01*
X046220Y039951D01*
X046320Y039851D01*
X046854Y039851D01*
X046861Y039858D01*
X046869Y039850D01*
X047330Y039850D01*
X047330Y039826D01*
X047277Y039826D01*
X047153Y039775D01*
X047058Y039680D01*
X047007Y039556D01*
X047007Y039422D01*
X047058Y039298D01*
X047153Y039203D01*
X047277Y039151D01*
X047411Y039151D01*
X047535Y039203D01*
X047572Y039240D01*
X048497Y039240D01*
X048517Y039260D01*
X048592Y039260D01*
X048649Y039203D01*
X048773Y039151D01*
X048907Y039151D01*
X049031Y039203D01*
X049126Y039298D01*
X049177Y039422D01*
X049177Y039556D01*
X049126Y039680D01*
X049031Y039775D01*
X048907Y039826D01*
X048833Y039826D01*
X048833Y039981D01*
X048822Y040019D01*
X048803Y040053D01*
X048775Y040081D01*
X048741Y040101D01*
X048702Y040111D01*
X048604Y040111D01*
X048604Y039729D01*
X048604Y040111D01*
X048517Y040111D01*
X048497Y040131D01*
X048126Y040131D01*
X048158Y040208D01*
X048158Y040285D01*
X048186Y040313D01*
X048186Y040926D01*
X048087Y041026D01*
X047729Y041026D01*
X047630Y040926D01*
X047630Y040397D01*
X047503Y040397D01*
X047503Y040524D01*
X047441Y040586D01*
X047453Y040597D01*
X047473Y040632D01*
X047483Y040670D01*
X047483Y040858D01*
X047185Y040858D01*
X047185Y040955D01*
X047483Y040955D01*
X047483Y041142D01*
X047474Y041177D01*
X047484Y041215D01*
X047484Y041402D01*
X047186Y041402D01*
X047186Y041499D01*
X047484Y041499D01*
X047484Y041687D01*
X047474Y041725D01*
X047454Y041759D01*
X047442Y041771D01*
X047504Y041833D01*
X047504Y041951D01*
X047617Y041951D01*
X047630Y041938D01*
X047630Y041337D01*
X047729Y041237D01*
X048087Y041237D01*
X048117Y041267D01*
X048154Y041257D01*
X048278Y041257D01*
X048278Y041639D01*
X048286Y041639D01*
X048286Y041257D01*
X048410Y041257D01*
X048447Y041267D01*
X048477Y041237D01*
X048792Y041237D01*
X048792Y041026D01*
X048477Y041026D01*
X048378Y040926D01*
X048378Y040313D01*
X048477Y040213D01*
X048835Y040213D01*
X048934Y040313D01*
X048934Y040377D01*
X049009Y040408D01*
X049184Y040583D01*
X049254Y040653D01*
X049268Y040687D01*
X049320Y040650D01*
X049393Y040613D01*
X049470Y040587D01*
X049551Y040574D01*
X049554Y040574D01*
X049554Y041056D01*
X049631Y041056D01*
X049631Y040574D01*
X049633Y040574D01*
X049714Y040587D01*
X049792Y040613D01*
X049865Y040650D01*
X049931Y040698D01*
X049989Y040756D01*
X050037Y040822D01*
X050074Y040895D01*
X050092Y040951D01*
X050092Y038094D01*
X046092Y038094D01*
X046092Y038131D02*
X050092Y038131D01*
X050092Y038230D02*
X050040Y038230D01*
X050067Y038257D02*
X050067Y038988D01*
X049967Y039088D01*
X049118Y039088D01*
X049018Y038988D01*
X049018Y038257D01*
X049118Y038157D01*
X049967Y038157D01*
X050067Y038257D01*
X050067Y038328D02*
X050092Y038328D01*
X050092Y038427D02*
X050067Y038427D01*
X050067Y038525D02*
X050092Y038525D01*
X050092Y038624D02*
X050067Y038624D01*
X050067Y038723D02*
X050092Y038723D01*
X050092Y038821D02*
X050067Y038821D01*
X050067Y038920D02*
X050092Y038920D01*
X050092Y039018D02*
X050037Y039018D01*
X050092Y039117D02*
X046092Y039117D01*
X046092Y039215D02*
X047141Y039215D01*
X047052Y039314D02*
X046092Y039314D01*
X046092Y039412D02*
X047011Y039412D01*
X047007Y039511D02*
X046092Y039511D01*
X046092Y039609D02*
X047029Y039609D01*
X047086Y039708D02*
X046092Y039708D01*
X046092Y039806D02*
X047229Y039806D01*
X047548Y039215D02*
X048637Y039215D01*
X048655Y039088D02*
X048754Y038988D01*
X048754Y038257D01*
X048655Y038157D01*
X047530Y038157D01*
X047430Y038257D01*
X047430Y038988D01*
X047530Y039088D01*
X048655Y039088D01*
X048724Y039018D02*
X049048Y039018D01*
X049018Y038920D02*
X048754Y038920D01*
X048754Y038821D02*
X049018Y038821D01*
X049018Y038723D02*
X048754Y038723D01*
X048754Y038624D02*
X049018Y038624D01*
X049018Y038525D02*
X048754Y038525D01*
X048754Y038427D02*
X049018Y038427D01*
X049018Y038328D02*
X048754Y038328D01*
X048727Y038230D02*
X049045Y038230D01*
X049044Y039215D02*
X050092Y039215D01*
X050092Y039314D02*
X049133Y039314D01*
X049174Y039412D02*
X050092Y039412D01*
X050092Y039511D02*
X049177Y039511D01*
X049155Y039609D02*
X050092Y039609D01*
X050092Y039708D02*
X049098Y039708D01*
X048955Y039806D02*
X050092Y039806D01*
X050092Y039905D02*
X049911Y039905D01*
X049885Y039878D02*
X049988Y039982D01*
X050044Y040117D01*
X050044Y040262D01*
X049988Y040397D01*
X050092Y040397D01*
X050092Y040299D02*
X050029Y040299D01*
X050044Y040200D02*
X050092Y040200D01*
X050092Y040102D02*
X050038Y040102D01*
X049997Y040003D02*
X050092Y040003D01*
X049885Y039878D02*
X049750Y039823D01*
X049604Y039823D01*
X049469Y039878D01*
X049366Y039982D01*
X049310Y040117D01*
X049310Y040262D01*
X049366Y040397D01*
X048983Y040397D01*
X048920Y040299D02*
X049325Y040299D01*
X049310Y040200D02*
X048155Y040200D01*
X048172Y040299D02*
X048392Y040299D01*
X048378Y040397D02*
X048186Y040397D01*
X048186Y040496D02*
X048378Y040496D01*
X048378Y040594D02*
X048186Y040594D01*
X048186Y040693D02*
X048378Y040693D01*
X048378Y040791D02*
X048186Y040791D01*
X048186Y040890D02*
X048378Y040890D01*
X048440Y040988D02*
X048125Y040988D01*
X048278Y041284D02*
X048286Y041284D01*
X048278Y041382D02*
X048286Y041382D01*
X048278Y041481D02*
X048286Y041481D01*
X048278Y041579D02*
X048286Y041579D01*
X048278Y041678D02*
X048286Y041678D01*
X048278Y041776D02*
X048286Y041776D01*
X048278Y041875D02*
X048286Y041875D01*
X048278Y041973D02*
X048286Y041973D01*
X048366Y042072D02*
X048155Y042072D01*
X048105Y042170D02*
X048317Y042170D01*
X048301Y042269D02*
X048007Y042269D01*
X047908Y042367D02*
X048313Y042367D01*
X048356Y042466D02*
X047446Y042466D01*
X047387Y042564D02*
X048470Y042564D01*
X048792Y042564D02*
X049315Y042564D01*
X049342Y042663D02*
X047387Y042663D01*
X047387Y042761D02*
X049239Y042761D01*
X049230Y042860D02*
X047387Y042860D01*
X047387Y042958D02*
X049230Y042958D01*
X049230Y043057D02*
X047387Y043057D01*
X047372Y043155D02*
X049230Y043155D01*
X049230Y043254D02*
X047306Y043254D01*
X047207Y043352D02*
X049238Y043352D01*
X049261Y043451D02*
X047109Y043451D01*
X047010Y043549D02*
X049250Y043549D01*
X049250Y043648D02*
X046912Y043648D01*
X046903Y043746D02*
X049549Y043746D01*
X049646Y043746D02*
X050092Y043746D01*
X050092Y043648D02*
X049944Y043648D01*
X049944Y043549D02*
X050092Y043549D01*
X050092Y043451D02*
X049933Y043451D01*
X049956Y043352D02*
X050092Y043352D01*
X050092Y043254D02*
X049964Y043254D01*
X049964Y043155D02*
X050092Y043155D01*
X050092Y043057D02*
X049964Y043057D01*
X049964Y042958D02*
X050092Y042958D01*
X050092Y042860D02*
X049964Y042860D01*
X049955Y042761D02*
X050092Y042761D01*
X050092Y042663D02*
X049842Y042663D01*
X049870Y042564D02*
X050092Y042564D01*
X050092Y042466D02*
X049985Y042466D01*
X050064Y042367D02*
X050092Y042367D01*
X049631Y040988D02*
X049554Y040988D01*
X049554Y040890D02*
X049631Y040890D01*
X049631Y040791D02*
X049554Y040791D01*
X049554Y040693D02*
X049631Y040693D01*
X049631Y040594D02*
X049554Y040594D01*
X049604Y040556D02*
X049469Y040500D01*
X049366Y040397D01*
X049464Y040496D02*
X049097Y040496D01*
X049184Y040583D02*
X049184Y040583D01*
X049195Y040594D02*
X049450Y040594D01*
X049604Y040556D02*
X049750Y040556D01*
X049885Y040500D01*
X049988Y040397D01*
X049890Y040496D02*
X050092Y040496D01*
X050092Y040594D02*
X049735Y040594D01*
X049924Y040693D02*
X050092Y040693D01*
X050092Y040791D02*
X050014Y040791D01*
X050071Y040890D02*
X050092Y040890D01*
X049316Y040102D02*
X048738Y040102D01*
X048827Y040003D02*
X049357Y040003D01*
X049443Y039905D02*
X048833Y039905D01*
X048604Y039905D02*
X048604Y039905D01*
X048604Y040003D02*
X048604Y040003D01*
X048604Y040102D02*
X048604Y040102D01*
X048604Y039806D02*
X048604Y039806D01*
X048604Y039729D02*
X048604Y039729D01*
X048792Y041087D02*
X047483Y041087D01*
X047476Y041185D02*
X048792Y041185D01*
X048934Y041875D02*
X049019Y041875D01*
X049058Y041973D02*
X048911Y041973D01*
X048906Y042072D02*
X049052Y042072D01*
X049052Y042170D02*
X048945Y042170D01*
X048961Y042269D02*
X049080Y042269D01*
X049121Y042367D02*
X048950Y042367D01*
X048906Y042466D02*
X049199Y042466D01*
X049250Y043845D02*
X046903Y043845D01*
X046956Y043943D02*
X049250Y043943D01*
X049287Y044042D02*
X046983Y044042D01*
X046983Y044140D02*
X050092Y044140D01*
X050092Y044042D02*
X049907Y044042D01*
X049914Y044035D02*
X049886Y044063D01*
X049852Y044082D01*
X049814Y044093D01*
X049646Y044093D01*
X049646Y043775D01*
X049944Y043775D01*
X049944Y043962D01*
X049934Y044001D01*
X049914Y044035D01*
X049944Y043943D02*
X050092Y043943D01*
X050092Y043845D02*
X049944Y043845D01*
X049646Y043845D02*
X049549Y043845D01*
X049549Y043943D02*
X049646Y043943D01*
X049646Y044042D02*
X049549Y044042D01*
X050092Y044239D02*
X046942Y044239D01*
X046856Y044337D02*
X050092Y044337D01*
X050092Y044436D02*
X046092Y044436D01*
X046092Y044534D02*
X050092Y044534D01*
X050092Y044633D02*
X048888Y044633D01*
X048898Y044637D02*
X049050Y044789D01*
X049132Y044987D01*
X049132Y045202D01*
X049050Y045400D01*
X048898Y045552D01*
X048788Y045598D01*
X048853Y045662D01*
X048853Y047614D01*
X048753Y047713D01*
X048219Y047713D01*
X048119Y047614D01*
X048119Y045662D01*
X048219Y045562D01*
X048236Y045562D01*
X048236Y045502D01*
X048134Y045400D01*
X048081Y045272D01*
X048074Y045294D01*
X048037Y045367D01*
X047989Y045433D01*
X047931Y045491D01*
X047865Y045539D01*
X047792Y045576D01*
X047774Y045582D01*
X047915Y045582D01*
X047953Y045593D01*
X047987Y045612D01*
X048015Y045640D01*
X048035Y045674D01*
X048045Y045713D01*
X048045Y046589D01*
X047747Y046589D01*
X047747Y046686D01*
X048045Y046686D01*
X048045Y047563D01*
X048035Y047601D01*
X048015Y047635D01*
X047987Y047663D01*
X047953Y047683D01*
X047915Y047693D01*
X047747Y047693D01*
X047747Y046686D01*
X047650Y046686D01*
X047650Y046589D01*
X047352Y046589D01*
X047352Y045713D01*
X047362Y045674D01*
X047382Y045640D01*
X047409Y045612D01*
X047443Y045593D01*
X047393Y045576D01*
X047320Y045539D01*
X047253Y045491D01*
X047195Y045433D01*
X047147Y045367D01*
X047110Y045294D01*
X047085Y045216D01*
X047074Y045144D01*
X047542Y045144D01*
X047542Y045044D01*
X047642Y045044D01*
X047642Y044576D01*
X047714Y044587D01*
X047792Y044613D01*
X047865Y044650D01*
X047931Y044698D01*
X047989Y044756D01*
X048037Y044822D01*
X048074Y044895D01*
X048081Y044917D01*
X048134Y044789D01*
X048286Y044637D01*
X048485Y044554D01*
X048700Y044554D01*
X048898Y044637D01*
X048992Y044731D02*
X050092Y044731D01*
X050092Y044830D02*
X049067Y044830D01*
X049108Y044928D02*
X050092Y044928D01*
X050092Y045027D02*
X049132Y045027D01*
X049132Y045125D02*
X050092Y045125D01*
X050092Y045224D02*
X049123Y045224D01*
X049082Y045322D02*
X050092Y045322D01*
X050092Y045421D02*
X049030Y045421D01*
X048931Y045519D02*
X050092Y045519D01*
X050092Y045618D02*
X048808Y045618D01*
X048853Y045716D02*
X050092Y045716D01*
X050092Y045815D02*
X048853Y045815D01*
X048853Y045913D02*
X050092Y045913D01*
X050092Y046012D02*
X048853Y046012D01*
X048853Y046110D02*
X050092Y046110D01*
X050092Y046209D02*
X048853Y046209D01*
X048853Y046307D02*
X050092Y046307D01*
X050092Y046406D02*
X048853Y046406D01*
X048853Y046504D02*
X050092Y046504D01*
X050092Y046603D02*
X048853Y046603D01*
X048853Y046701D02*
X050092Y046701D01*
X050092Y046800D02*
X048853Y046800D01*
X048853Y046898D02*
X050092Y046898D01*
X050092Y046997D02*
X048853Y046997D01*
X048853Y047095D02*
X050092Y047095D01*
X050092Y047194D02*
X048853Y047194D01*
X048853Y047292D02*
X050092Y047292D01*
X050092Y047391D02*
X048853Y047391D01*
X048853Y047489D02*
X050092Y047489D01*
X050092Y047588D02*
X048853Y047588D01*
X048780Y047686D02*
X050092Y047686D01*
X050092Y047785D02*
X046092Y047785D01*
X046092Y047883D02*
X046331Y047883D01*
X046368Y047846D02*
X047139Y047846D01*
X047239Y047945D01*
X047239Y049425D01*
X047139Y049524D01*
X046368Y049524D01*
X046269Y049425D01*
X046269Y047945D01*
X046368Y047846D01*
X046269Y047982D02*
X046092Y047982D01*
X046092Y048080D02*
X046269Y048080D01*
X046269Y048179D02*
X046092Y048179D01*
X046092Y048277D02*
X046269Y048277D01*
X046269Y048376D02*
X046092Y048376D01*
X046092Y048474D02*
X046269Y048474D01*
X046269Y048573D02*
X046092Y048573D01*
X046092Y048671D02*
X046269Y048671D01*
X046269Y048770D02*
X046092Y048770D01*
X046092Y048868D02*
X046269Y048868D01*
X046269Y048967D02*
X046092Y048967D01*
X046092Y049065D02*
X046269Y049065D01*
X046269Y049164D02*
X046092Y049164D01*
X046092Y049262D02*
X046269Y049262D01*
X046269Y049361D02*
X046092Y049361D01*
X046092Y049459D02*
X046303Y049459D01*
X046092Y049558D02*
X050092Y049558D01*
X050092Y049459D02*
X049881Y049459D01*
X049916Y049425D02*
X049816Y049524D01*
X049045Y049524D01*
X048946Y049425D01*
X048946Y047945D01*
X049045Y047846D01*
X049816Y047846D01*
X049916Y047945D01*
X049916Y049425D01*
X049916Y049361D02*
X050092Y049361D01*
X050092Y049262D02*
X049916Y049262D01*
X049916Y049164D02*
X050092Y049164D01*
X050092Y049065D02*
X049916Y049065D01*
X049916Y048967D02*
X050092Y048967D01*
X050092Y048868D02*
X049916Y048868D01*
X049916Y048770D02*
X050092Y048770D01*
X050092Y048671D02*
X049916Y048671D01*
X049916Y048573D02*
X050092Y048573D01*
X050092Y048474D02*
X049916Y048474D01*
X049916Y048376D02*
X050092Y048376D01*
X050092Y048277D02*
X049916Y048277D01*
X049916Y048179D02*
X050092Y048179D01*
X050092Y048080D02*
X049916Y048080D01*
X049916Y047982D02*
X050092Y047982D01*
X050092Y047883D02*
X049853Y047883D01*
X049008Y047883D02*
X047176Y047883D01*
X047239Y047982D02*
X048946Y047982D01*
X048946Y048080D02*
X047239Y048080D01*
X047239Y048179D02*
X048946Y048179D01*
X048946Y048277D02*
X047239Y048277D01*
X047239Y048376D02*
X048946Y048376D01*
X048946Y048474D02*
X047239Y048474D01*
X047239Y048573D02*
X048946Y048573D01*
X048946Y048671D02*
X047239Y048671D01*
X047239Y048770D02*
X048946Y048770D01*
X048946Y048868D02*
X047239Y048868D01*
X047239Y048967D02*
X048946Y048967D01*
X048946Y049065D02*
X047239Y049065D01*
X047239Y049164D02*
X048946Y049164D01*
X048946Y049262D02*
X047239Y049262D01*
X047239Y049361D02*
X048946Y049361D01*
X048980Y049459D02*
X047204Y049459D01*
X047482Y047693D02*
X047444Y047683D01*
X047409Y047663D01*
X047382Y047635D01*
X047362Y047601D01*
X047352Y047563D01*
X047352Y046686D01*
X047650Y046686D01*
X047650Y047693D01*
X047482Y047693D01*
X047455Y047686D02*
X046092Y047686D01*
X046092Y047588D02*
X047358Y047588D01*
X047352Y047489D02*
X046092Y047489D01*
X046092Y047391D02*
X047352Y047391D01*
X047352Y047292D02*
X046092Y047292D01*
X046092Y047194D02*
X047352Y047194D01*
X047352Y047095D02*
X046092Y047095D01*
X046092Y046997D02*
X047352Y046997D01*
X047352Y046898D02*
X046092Y046898D01*
X046092Y046800D02*
X047352Y046800D01*
X047352Y046701D02*
X046092Y046701D01*
X046092Y046603D02*
X047650Y046603D01*
X047747Y046603D02*
X048119Y046603D01*
X048119Y046701D02*
X048045Y046701D01*
X048045Y046800D02*
X048119Y046800D01*
X048119Y046898D02*
X048045Y046898D01*
X048045Y046997D02*
X048119Y046997D01*
X048119Y047095D02*
X048045Y047095D01*
X048045Y047194D02*
X048119Y047194D01*
X048119Y047292D02*
X048045Y047292D01*
X048045Y047391D02*
X048119Y047391D01*
X048119Y047489D02*
X048045Y047489D01*
X048039Y047588D02*
X048119Y047588D01*
X048191Y047686D02*
X047942Y047686D01*
X047747Y047686D02*
X047650Y047686D01*
X047650Y047588D02*
X047747Y047588D01*
X047747Y047489D02*
X047650Y047489D01*
X047650Y047391D02*
X047747Y047391D01*
X047747Y047292D02*
X047650Y047292D01*
X047650Y047194D02*
X047747Y047194D01*
X047747Y047095D02*
X047650Y047095D01*
X047650Y046997D02*
X047747Y046997D01*
X047747Y046898D02*
X047650Y046898D01*
X047650Y046800D02*
X047747Y046800D01*
X047747Y046701D02*
X047650Y046701D01*
X047352Y046504D02*
X046092Y046504D01*
X046092Y046406D02*
X047352Y046406D01*
X047352Y046307D02*
X046092Y046307D01*
X046092Y046209D02*
X047352Y046209D01*
X047352Y046110D02*
X046092Y046110D01*
X046092Y046012D02*
X047352Y046012D01*
X047352Y045913D02*
X046782Y045913D01*
X046800Y045905D02*
X046665Y045961D01*
X046519Y045961D01*
X046384Y045905D01*
X046281Y045802D01*
X046225Y045667D01*
X046225Y045522D01*
X046281Y045387D01*
X046384Y045283D01*
X046519Y045228D01*
X046665Y045228D01*
X046800Y045283D01*
X046903Y045387D01*
X046959Y045522D01*
X046959Y045667D01*
X046903Y045802D01*
X046800Y045905D01*
X046891Y045815D02*
X047352Y045815D01*
X047352Y045716D02*
X046939Y045716D01*
X046959Y045618D02*
X047404Y045618D01*
X047292Y045519D02*
X046958Y045519D01*
X046917Y045421D02*
X047186Y045421D01*
X047124Y045322D02*
X046838Y045322D01*
X047087Y045224D02*
X046092Y045224D01*
X046092Y045322D02*
X046346Y045322D01*
X046267Y045421D02*
X046092Y045421D01*
X046092Y045519D02*
X046226Y045519D01*
X046225Y045618D02*
X046092Y045618D01*
X046092Y045716D02*
X046245Y045716D01*
X046293Y045815D02*
X046092Y045815D01*
X046092Y045913D02*
X046403Y045913D01*
X046092Y045125D02*
X047542Y045125D01*
X047542Y045044D02*
X047074Y045044D01*
X047085Y044973D01*
X047110Y044895D01*
X047147Y044822D01*
X047195Y044756D01*
X047253Y044698D01*
X047320Y044650D01*
X047393Y044613D01*
X047470Y044587D01*
X047542Y044576D01*
X047542Y045044D01*
X047542Y045027D02*
X047642Y045027D01*
X047642Y044928D02*
X047542Y044928D01*
X047542Y044830D02*
X047642Y044830D01*
X047642Y044731D02*
X047542Y044731D01*
X047542Y044633D02*
X047642Y044633D01*
X047831Y044633D02*
X048296Y044633D01*
X048192Y044731D02*
X047964Y044731D01*
X048041Y044830D02*
X048117Y044830D01*
X048102Y045322D02*
X048060Y045322D01*
X047998Y045421D02*
X048154Y045421D01*
X048236Y045519D02*
X047892Y045519D01*
X047993Y045618D02*
X048163Y045618D01*
X048119Y045716D02*
X048045Y045716D01*
X048045Y045815D02*
X048119Y045815D01*
X048119Y045913D02*
X048045Y045913D01*
X048045Y046012D02*
X048119Y046012D01*
X048119Y046110D02*
X048045Y046110D01*
X048045Y046209D02*
X048119Y046209D01*
X048119Y046307D02*
X048045Y046307D01*
X048045Y046406D02*
X048119Y046406D01*
X048119Y046504D02*
X048045Y046504D01*
X047076Y045027D02*
X046092Y045027D01*
X046092Y044928D02*
X047099Y044928D01*
X047144Y044830D02*
X046092Y044830D01*
X046092Y044731D02*
X047220Y044731D01*
X047353Y044633D02*
X046092Y044633D01*
X046092Y044337D02*
X046450Y044337D01*
X046364Y044239D02*
X046092Y044239D01*
X046092Y044140D02*
X046323Y044140D01*
X046323Y044042D02*
X046092Y044042D01*
X046092Y043943D02*
X046350Y043943D01*
X046403Y043845D02*
X046092Y043845D01*
X046092Y043746D02*
X046403Y043746D01*
X046403Y043648D02*
X046092Y043648D01*
X046092Y043549D02*
X046403Y043549D01*
X046425Y043451D02*
X046092Y043451D01*
X046092Y043352D02*
X046500Y043352D01*
X046599Y043254D02*
X046092Y043254D01*
X046092Y043155D02*
X046697Y043155D01*
X046796Y043057D02*
X046092Y043057D01*
X046092Y042958D02*
X046414Y042958D01*
X046307Y042860D02*
X046092Y042860D01*
X046092Y042761D02*
X046267Y042761D01*
X046257Y042663D02*
X046092Y042663D01*
X046092Y042564D02*
X046275Y042564D01*
X046291Y042466D02*
X046092Y042466D01*
X046092Y042367D02*
X046225Y042367D01*
X046225Y042269D02*
X046092Y042269D01*
X046092Y042170D02*
X046225Y042170D01*
X046225Y042072D02*
X046092Y042072D01*
X046092Y041973D02*
X046225Y041973D01*
X046285Y041875D02*
X046092Y041875D01*
X046092Y041776D02*
X046292Y041776D01*
X046225Y041678D02*
X046092Y041678D01*
X046092Y041579D02*
X046225Y041579D01*
X046225Y041481D02*
X046092Y041481D01*
X046092Y041382D02*
X046225Y041382D01*
X046225Y041284D02*
X046092Y041284D01*
X046092Y041185D02*
X046220Y041185D01*
X046220Y041087D02*
X046092Y041087D01*
X046092Y040988D02*
X046220Y040988D01*
X046220Y040890D02*
X046092Y040890D01*
X046092Y040791D02*
X046220Y040791D01*
X046220Y040693D02*
X046092Y040693D01*
X046092Y040594D02*
X046246Y040594D01*
X046220Y040496D02*
X046092Y040496D01*
X046092Y040397D02*
X046220Y040397D01*
X046220Y040299D02*
X046092Y040299D01*
X046092Y040200D02*
X046220Y040200D01*
X046220Y040102D02*
X046092Y040102D01*
X046092Y040003D02*
X046220Y040003D01*
X046267Y039905D02*
X046092Y039905D01*
X046217Y039088D02*
X046117Y038988D01*
X046117Y038257D01*
X046217Y038157D01*
X047066Y038157D01*
X047166Y038257D01*
X047166Y038988D01*
X047066Y039088D01*
X046217Y039088D01*
X046147Y039018D02*
X046092Y039018D01*
X046092Y038920D02*
X046117Y038920D01*
X046117Y038821D02*
X046092Y038821D01*
X046092Y038723D02*
X046117Y038723D01*
X046117Y038624D02*
X046092Y038624D01*
X046092Y038525D02*
X046117Y038525D01*
X046117Y038427D02*
X046092Y038427D01*
X046092Y038328D02*
X046117Y038328D01*
X046092Y038230D02*
X046144Y038230D01*
X047139Y038230D02*
X047457Y038230D01*
X047430Y038328D02*
X047166Y038328D01*
X047166Y038427D02*
X047430Y038427D01*
X047430Y038525D02*
X047166Y038525D01*
X047166Y038624D02*
X047430Y038624D01*
X047430Y038723D02*
X047166Y038723D01*
X047166Y038821D02*
X047430Y038821D01*
X047430Y038920D02*
X047166Y038920D01*
X047136Y039018D02*
X047460Y039018D01*
X047503Y040496D02*
X047630Y040496D01*
X047630Y040594D02*
X047450Y040594D01*
X047483Y040693D02*
X047630Y040693D01*
X047630Y040791D02*
X047483Y040791D01*
X047630Y040890D02*
X047185Y040890D01*
X047185Y040955D02*
X047088Y040955D01*
X047088Y041084D01*
X047089Y041084D01*
X047089Y041402D01*
X047186Y041402D01*
X047186Y041273D01*
X047185Y041273D01*
X047185Y040955D01*
X047185Y040988D02*
X047088Y040988D01*
X047089Y041087D02*
X047185Y041087D01*
X047185Y041185D02*
X047089Y041185D01*
X047089Y041284D02*
X047186Y041284D01*
X047186Y041382D02*
X047089Y041382D01*
X047186Y041481D02*
X047630Y041481D01*
X047630Y041579D02*
X047484Y041579D01*
X047484Y041678D02*
X047630Y041678D01*
X047630Y041776D02*
X047447Y041776D01*
X047504Y041875D02*
X047630Y041875D01*
X047630Y041382D02*
X047484Y041382D01*
X047484Y041284D02*
X047683Y041284D01*
X047692Y040988D02*
X047483Y040988D01*
X046887Y042860D02*
X046867Y042860D01*
X046887Y042958D02*
X046760Y042958D01*
D30*
X046587Y042672D03*
X046653Y044073D03*
X048631Y042273D03*
X048280Y041127D03*
D31*
X047908Y040620D02*
X047908Y040257D01*
X047798Y040147D01*
X047592Y040147D01*
X047580Y040136D01*
X047580Y039685D01*
X047592Y040147D02*
X047225Y040147D01*
X047136Y040237D01*
X046588Y040237D01*
X046587Y040238D01*
X046587Y040907D02*
X046587Y041471D01*
X046592Y041476D01*
X046592Y042167D02*
X046592Y042667D01*
X047137Y043068D02*
X046653Y043552D01*
X046653Y044073D01*
X047137Y043068D02*
X047137Y042120D01*
X047218Y042201D01*
X047720Y042201D01*
X047908Y042014D01*
X047908Y041643D01*
X048656Y041643D02*
X048656Y042248D01*
X048631Y042273D01*
X049042Y041544D02*
X049042Y040794D01*
X048867Y040620D01*
X048656Y040620D01*
X049042Y041544D02*
X049592Y042094D01*
X049592Y043052D01*
X049597Y043057D01*
X048592Y045094D02*
X048486Y045201D01*
X048486Y046638D01*
X045559Y046675D02*
X045031Y046675D01*
X044986Y046656D02*
X045158Y046727D01*
X045291Y046859D01*
X045362Y047032D01*
X045362Y047219D01*
X045291Y047392D01*
X045158Y047524D01*
X044986Y047596D01*
X044826Y047596D01*
X044857Y047656D01*
X044986Y047656D01*
X045158Y047727D01*
X045291Y047859D01*
X045362Y048032D01*
X045362Y048219D01*
X045291Y048392D01*
X045158Y048524D01*
X044986Y048596D01*
X044826Y048596D01*
X044857Y048656D01*
X044986Y048656D01*
X045158Y048727D01*
X045291Y048859D01*
X045362Y049032D01*
X045362Y049219D01*
X045291Y049392D01*
X045158Y049524D01*
X044986Y049596D01*
X044799Y049596D01*
X044626Y049524D01*
X044494Y049392D01*
X044422Y049219D01*
X044422Y049032D01*
X044494Y048859D01*
X044535Y048818D01*
X044363Y048476D01*
X044363Y048476D01*
X044329Y048409D01*
X044319Y048388D01*
X044296Y048343D01*
X044296Y048343D01*
X044291Y048333D01*
X044289Y048323D01*
X044289Y048323D01*
X044278Y048268D01*
X044274Y048250D01*
X044260Y048177D01*
X043466Y044231D01*
X043469Y047545D01*
X043526Y047601D01*
X043568Y047703D01*
X043568Y047814D01*
X043526Y047917D01*
X043447Y047995D01*
X043345Y048038D01*
X043234Y048038D01*
X043131Y047995D01*
X043053Y047917D01*
X043010Y047814D01*
X043010Y047703D01*
X043053Y047601D01*
X043109Y047545D01*
X043106Y043944D01*
X043050Y043887D01*
X043007Y043785D01*
X043007Y043674D01*
X043030Y043620D01*
X041390Y040342D01*
X041378Y040336D01*
X041363Y040288D01*
X041340Y040243D01*
X041345Y040230D01*
X041333Y040194D01*
X041333Y040193D01*
X041282Y040028D01*
X041282Y040234D01*
X041200Y040316D01*
X040584Y040316D01*
X040502Y040234D01*
X040502Y039464D01*
X040489Y039442D01*
X040500Y039402D01*
X039921Y038177D01*
X039871Y038071D01*
X039867Y037993D01*
X039866Y037977D01*
X039728Y037977D01*
X039738Y038041D01*
X039758Y038114D01*
X039751Y038125D01*
X039841Y038698D01*
X039871Y038779D01*
X039853Y038992D01*
X039750Y039179D01*
X039750Y039179D01*
X039750Y039179D01*
X039578Y039306D01*
X039578Y039306D01*
X039535Y039315D01*
X039518Y039332D01*
X039452Y039332D01*
X039388Y039346D01*
X039368Y039333D01*
X039337Y039333D01*
X039308Y039403D01*
X039170Y039541D01*
X038990Y039616D01*
X038795Y039616D01*
X038615Y039541D01*
X038477Y039403D01*
X038402Y039223D01*
X038402Y039028D01*
X038477Y038848D01*
X038615Y038710D01*
X038795Y038636D01*
X038990Y038636D01*
X039141Y038698D01*
X039146Y038687D01*
X039148Y038685D01*
X039104Y038534D01*
X038434Y038534D01*
X038352Y038452D01*
X038352Y037536D01*
X038380Y037509D01*
X038332Y037461D01*
X038332Y036528D01*
X038380Y036480D01*
X038352Y036452D01*
X038352Y035536D01*
X038394Y035494D01*
X038352Y035452D01*
X038352Y034536D01*
X038434Y034454D01*
X039350Y034454D01*
X039432Y034536D01*
X039432Y035015D01*
X040769Y035015D01*
X040778Y035009D01*
X040815Y035015D01*
X040852Y035015D01*
X040859Y035022D01*
X041847Y035182D01*
X041869Y035186D01*
X041881Y035184D01*
X041889Y035189D01*
X041899Y035191D01*
X041906Y035200D01*
X041943Y035225D01*
X042005Y035266D01*
X042045Y035292D01*
X042091Y035322D01*
X042107Y035333D01*
X042107Y035335D01*
X042336Y035335D01*
X042350Y035350D01*
X042365Y035335D01*
X042836Y035335D01*
X042850Y035350D01*
X042865Y035335D01*
X043336Y035335D01*
X043350Y035350D01*
X043365Y035335D01*
X043836Y035335D01*
X043918Y035417D01*
X043918Y036117D01*
X043940Y036108D01*
X044051Y036108D01*
X044111Y036133D01*
X044184Y035625D01*
X044194Y035559D01*
X044187Y035542D01*
X044201Y035511D01*
X044206Y035478D01*
X044220Y035467D01*
X044291Y035304D01*
X044317Y035246D01*
X044320Y035238D01*
X044343Y035229D01*
X044352Y035223D01*
X044352Y034536D01*
X044434Y034454D01*
X045350Y034454D01*
X045432Y034536D01*
X045432Y035452D01*
X045390Y035494D01*
X045432Y035536D01*
X045432Y036452D01*
X045404Y036480D01*
X045452Y036528D01*
X045452Y037461D01*
X045404Y037509D01*
X045432Y037536D01*
X045432Y038452D01*
X045350Y038534D01*
X044675Y038534D01*
X044596Y038757D01*
X044626Y038727D01*
X044799Y038656D01*
X044986Y038656D01*
X045158Y038727D01*
X045291Y038859D01*
X045362Y039032D01*
X045362Y039219D01*
X045291Y039392D01*
X045158Y039524D01*
X044986Y039596D01*
X044799Y039596D01*
X044626Y039524D01*
X044494Y039392D01*
X044427Y039230D01*
X044182Y039916D01*
X044219Y040004D01*
X044219Y040114D01*
X044176Y040217D01*
X044098Y040295D01*
X043995Y040338D01*
X043884Y040338D01*
X043782Y040295D01*
X043703Y040217D01*
X043661Y040114D01*
X043661Y040004D01*
X043703Y039901D01*
X043782Y039823D01*
X043842Y039798D01*
X044189Y038825D01*
X043688Y039481D01*
X043688Y039586D01*
X043643Y039696D01*
X043559Y039780D01*
X043449Y039825D01*
X043330Y039825D01*
X043282Y039805D01*
X043282Y040087D01*
X043295Y040109D01*
X043290Y040129D01*
X044729Y041684D01*
X044799Y041656D01*
X044986Y041656D01*
X045158Y041727D01*
X045291Y041859D01*
X045362Y042032D01*
X045362Y042219D01*
X045291Y042392D01*
X045158Y042524D01*
X044986Y042596D01*
X044799Y042596D01*
X044626Y042524D01*
X044494Y042392D01*
X044422Y042219D01*
X044422Y042032D01*
X044465Y041929D01*
X043031Y040380D01*
X042981Y040326D01*
X042972Y040316D01*
X042753Y040316D01*
X043828Y043466D01*
X043850Y043529D01*
X043856Y043533D01*
X043864Y043570D01*
X043876Y043607D01*
X043873Y043613D01*
X044422Y046209D01*
X044422Y046032D01*
X044494Y045859D01*
X044626Y045727D01*
X044799Y045656D01*
X044986Y045656D01*
X045158Y045727D01*
X045291Y045859D01*
X045362Y046032D01*
X045362Y046219D01*
X045291Y046392D01*
X045158Y046524D01*
X044986Y046596D01*
X044799Y046596D01*
X044626Y046524D01*
X044494Y046392D01*
X044426Y046229D01*
X044548Y046805D01*
X044626Y046727D01*
X044799Y046656D01*
X044986Y046656D01*
X045166Y046516D02*
X045559Y046516D01*
X045559Y046358D02*
X045305Y046358D01*
X045362Y046199D02*
X045559Y046199D01*
X045559Y046041D02*
X045362Y046041D01*
X045300Y045882D02*
X045559Y045882D01*
X045559Y045724D02*
X045150Y045724D01*
X045059Y045565D02*
X045559Y045565D01*
X045559Y045407D02*
X045276Y045407D01*
X045291Y045392D02*
X045158Y045524D01*
X044986Y045596D01*
X044799Y045596D01*
X044626Y045524D01*
X044494Y045392D01*
X044422Y045219D01*
X044422Y045032D01*
X044494Y044859D01*
X044626Y044727D01*
X044799Y044656D01*
X044986Y044656D01*
X045158Y044727D01*
X045291Y044859D01*
X045362Y045032D01*
X045362Y045219D01*
X045291Y045392D01*
X045350Y045248D02*
X045559Y045248D01*
X045559Y045090D02*
X045362Y045090D01*
X045320Y044931D02*
X045559Y044931D01*
X045559Y044773D02*
X045204Y044773D01*
X045158Y044524D02*
X044986Y044596D01*
X044799Y044596D01*
X044626Y044524D01*
X044494Y044392D01*
X044422Y044219D01*
X044422Y044032D01*
X044494Y043859D01*
X044626Y043727D01*
X044799Y043656D01*
X044986Y043656D01*
X045158Y043727D01*
X045291Y043859D01*
X045362Y044032D01*
X045362Y044219D01*
X045291Y044392D01*
X045158Y044524D01*
X045227Y044456D02*
X045559Y044456D01*
X045559Y044614D02*
X044085Y044614D01*
X044118Y044773D02*
X044581Y044773D01*
X044464Y044931D02*
X044152Y044931D01*
X044185Y045090D02*
X044422Y045090D01*
X044434Y045248D02*
X044219Y045248D01*
X044252Y045407D02*
X044508Y045407D01*
X044725Y045565D02*
X044286Y045565D01*
X044319Y045724D02*
X044635Y045724D01*
X044484Y045882D02*
X044353Y045882D01*
X044386Y046041D02*
X044422Y046041D01*
X044420Y046199D02*
X044422Y046199D01*
X044453Y046358D02*
X044479Y046358D01*
X044487Y046516D02*
X044618Y046516D01*
X044521Y046675D02*
X044753Y046675D01*
X045264Y046833D02*
X045559Y046833D01*
X045559Y046992D02*
X045345Y046992D01*
X045362Y047150D02*
X045559Y047150D01*
X045559Y047309D02*
X045325Y047309D01*
X045215Y047467D02*
X045559Y047467D01*
X045559Y047626D02*
X044842Y047626D01*
X045215Y047784D02*
X045559Y047784D01*
X045559Y047943D02*
X045325Y047943D01*
X045362Y048101D02*
X045559Y048101D01*
X045559Y048260D02*
X045345Y048260D01*
X045264Y048418D02*
X045559Y048418D01*
X045559Y048577D02*
X045032Y048577D01*
X045166Y048735D02*
X045559Y048735D01*
X045559Y048894D02*
X045305Y048894D01*
X045362Y049052D02*
X045559Y049052D01*
X045559Y049211D02*
X045362Y049211D01*
X045300Y049369D02*
X045559Y049369D01*
X045559Y049528D02*
X045150Y049528D01*
X045059Y049686D02*
X045559Y049686D01*
X045559Y049845D02*
X045276Y049845D01*
X045291Y049859D02*
X045362Y050032D01*
X045362Y050219D01*
X045291Y050392D01*
X045158Y050524D01*
X044986Y050596D01*
X044799Y050596D01*
X044626Y050524D01*
X044494Y050392D01*
X044422Y050219D01*
X044422Y050032D01*
X044494Y049859D01*
X044626Y049727D01*
X044799Y049656D01*
X044986Y049656D01*
X045158Y049727D01*
X045291Y049859D01*
X045350Y050003D02*
X045559Y050003D01*
X045559Y050162D02*
X045362Y050162D01*
X045320Y050320D02*
X045559Y050320D01*
X045559Y050479D02*
X045204Y050479D01*
X045158Y050727D02*
X045291Y050859D01*
X045362Y051032D01*
X045362Y051219D01*
X045291Y051392D01*
X045158Y051524D01*
X044986Y051596D01*
X044799Y051596D01*
X044626Y051524D01*
X044494Y051392D01*
X044422Y051219D01*
X044422Y051032D01*
X044494Y050859D01*
X044626Y050727D01*
X044799Y050656D01*
X044986Y050656D01*
X045158Y050727D01*
X045227Y050796D02*
X045559Y050796D01*
X045559Y050954D02*
X045330Y050954D01*
X045362Y051113D02*
X045559Y051113D01*
X045559Y051271D02*
X045341Y051271D01*
X045253Y051430D02*
X045559Y051430D01*
X045559Y051588D02*
X045004Y051588D01*
X044986Y051656D02*
X045158Y051727D01*
X045291Y051859D01*
X045362Y052032D01*
X045362Y052219D01*
X045291Y052392D01*
X045158Y052524D01*
X044986Y052596D01*
X044799Y052596D01*
X044626Y052524D01*
X044494Y052392D01*
X044422Y052219D01*
X044422Y052032D01*
X044494Y051859D01*
X044626Y051727D01*
X044799Y051656D01*
X044986Y051656D01*
X045178Y051747D02*
X045559Y051747D01*
X045559Y051905D02*
X045309Y051905D01*
X045362Y052064D02*
X045559Y052064D01*
X045559Y052222D02*
X045361Y052222D01*
X045295Y052381D02*
X045559Y052381D01*
X045559Y052539D02*
X045122Y052539D01*
X045087Y052698D02*
X045559Y052698D01*
X045559Y052856D02*
X045287Y052856D01*
X045291Y052859D02*
X045362Y053032D01*
X045362Y053219D01*
X045291Y053392D01*
X045183Y053499D01*
X045559Y053499D01*
X045559Y034175D01*
X031172Y034175D01*
X031172Y034454D01*
X031950Y034454D01*
X032032Y034536D01*
X032032Y035015D01*
X033369Y035015D01*
X033378Y035009D01*
X033415Y035015D01*
X033452Y035015D01*
X033459Y035022D01*
X034444Y035182D01*
X034469Y035186D01*
X034481Y035184D01*
X034489Y035189D01*
X034499Y035191D01*
X034506Y035200D01*
X034543Y035225D01*
X034605Y035266D01*
X034644Y035291D01*
X034644Y035291D01*
X034691Y035322D01*
X034707Y035333D01*
X034707Y035335D01*
X034936Y035335D01*
X034950Y035350D01*
X034965Y035335D01*
X035436Y035335D01*
X035450Y035350D01*
X035465Y035335D01*
X035936Y035335D01*
X035950Y035350D01*
X035965Y035335D01*
X036436Y035335D01*
X036518Y035417D01*
X036518Y036117D01*
X036540Y036108D01*
X036651Y036108D01*
X036711Y036133D01*
X036784Y035625D01*
X036794Y035559D01*
X036787Y035542D01*
X036801Y035511D01*
X036806Y035478D01*
X036820Y035467D01*
X036891Y035305D01*
X036917Y035246D01*
X036920Y035238D01*
X036943Y035229D01*
X036952Y035223D01*
X036952Y034536D01*
X037034Y034454D01*
X037950Y034454D01*
X038032Y034536D01*
X038032Y035452D01*
X037990Y035494D01*
X038032Y035536D01*
X038032Y036452D01*
X038004Y036480D01*
X038052Y036528D01*
X038052Y037461D01*
X038004Y037509D01*
X038032Y037536D01*
X038032Y038452D01*
X037950Y038534D01*
X037275Y038534D01*
X037196Y038757D01*
X037226Y038727D01*
X037399Y038656D01*
X037586Y038656D01*
X037758Y038727D01*
X037891Y038859D01*
X037962Y039032D01*
X037962Y039219D01*
X037891Y039392D01*
X037758Y039524D01*
X037586Y039596D01*
X037399Y039596D01*
X037226Y039524D01*
X037094Y039392D01*
X037027Y039230D01*
X036782Y039916D01*
X036819Y040004D01*
X036819Y040114D01*
X036776Y040217D01*
X036698Y040295D01*
X036595Y040338D01*
X036484Y040338D01*
X036382Y040295D01*
X036303Y040217D01*
X036261Y040114D01*
X036261Y040004D01*
X036303Y039901D01*
X036382Y039823D01*
X036442Y039798D01*
X036789Y038825D01*
X036288Y039481D01*
X036288Y039586D01*
X036243Y039696D01*
X036159Y039780D01*
X036049Y039825D01*
X035930Y039825D01*
X035882Y039805D01*
X035882Y040087D01*
X035895Y040109D01*
X035890Y040129D01*
X037329Y041684D01*
X037399Y041656D01*
X037586Y041656D01*
X037758Y041727D01*
X037891Y041859D01*
X037962Y042032D01*
X037962Y042219D01*
X037891Y042392D01*
X037758Y042524D01*
X037586Y042596D01*
X037399Y042596D01*
X037226Y042524D01*
X037094Y042392D01*
X037022Y042219D01*
X037022Y042032D01*
X037065Y041929D01*
X035631Y040380D01*
X035581Y040326D01*
X035572Y040316D01*
X035353Y040316D01*
X036428Y043466D01*
X036450Y043529D01*
X036456Y043533D01*
X036464Y043570D01*
X036476Y043607D01*
X036473Y043613D01*
X037022Y046209D01*
X037022Y046032D01*
X037094Y045859D01*
X037226Y045727D01*
X037399Y045656D01*
X037586Y045656D01*
X037758Y045727D01*
X037891Y045859D01*
X037962Y046032D01*
X037962Y046219D01*
X037891Y046392D01*
X037758Y046524D01*
X037586Y046596D01*
X037399Y046596D01*
X037226Y046524D01*
X037094Y046392D01*
X037026Y046229D01*
X037148Y046805D01*
X037226Y046727D01*
X037399Y046656D01*
X037586Y046656D01*
X037758Y046727D01*
X037891Y046859D01*
X037962Y047032D01*
X037962Y047219D01*
X037891Y047392D01*
X037758Y047524D01*
X037586Y047596D01*
X037426Y047596D01*
X037457Y047656D01*
X037586Y047656D01*
X037758Y047727D01*
X037891Y047859D01*
X037962Y048032D01*
X037962Y048219D01*
X037891Y048392D01*
X037758Y048524D01*
X037586Y048596D01*
X037426Y048596D01*
X037457Y048656D01*
X037586Y048656D01*
X037758Y048727D01*
X037891Y048859D01*
X037962Y049032D01*
X037962Y049219D01*
X037891Y049392D01*
X037758Y049524D01*
X037586Y049596D01*
X037399Y049596D01*
X037226Y049524D01*
X037094Y049392D01*
X037022Y049219D01*
X037022Y049032D01*
X037094Y048859D01*
X037135Y048818D01*
X036963Y048476D01*
X036963Y048476D01*
X036929Y048409D01*
X036920Y048390D01*
X036896Y048343D01*
X036896Y048343D01*
X036891Y048333D01*
X036889Y048323D01*
X036889Y048323D01*
X036878Y048266D01*
X036874Y048250D01*
X036860Y048177D01*
X036066Y044231D01*
X036069Y047545D01*
X036126Y047601D01*
X036168Y047703D01*
X036168Y047814D01*
X036126Y047917D01*
X036047Y047995D01*
X035945Y048038D01*
X035834Y048038D01*
X035731Y047995D01*
X035653Y047917D01*
X035610Y047814D01*
X035610Y047703D01*
X035653Y047601D01*
X035709Y047545D01*
X035706Y043944D01*
X035650Y043887D01*
X035607Y043785D01*
X035607Y043674D01*
X035630Y043620D01*
X033990Y040342D01*
X033978Y040336D01*
X033963Y040288D01*
X033940Y040243D01*
X033945Y040230D01*
X033933Y040194D01*
X033933Y040193D01*
X033882Y040028D01*
X033882Y040234D01*
X033800Y040316D01*
X033184Y040316D01*
X033102Y040234D01*
X033102Y039464D01*
X033089Y039442D01*
X033100Y039402D01*
X032522Y038180D01*
X032471Y038071D01*
X032467Y037993D01*
X032466Y037977D01*
X032328Y037977D01*
X032338Y038041D01*
X032358Y038114D01*
X032351Y038125D01*
X032441Y038698D01*
X032471Y038779D01*
X032453Y038992D01*
X032350Y039179D01*
X032350Y039179D01*
X032350Y039179D01*
X032178Y039306D01*
X032178Y039306D01*
X032135Y039315D01*
X032118Y039332D01*
X032052Y039332D01*
X031988Y039346D01*
X031968Y039333D01*
X031937Y039333D01*
X031908Y039403D01*
X031770Y039541D01*
X031590Y039616D01*
X031395Y039616D01*
X031215Y039541D01*
X031172Y039499D01*
X031172Y039781D01*
X031226Y039727D01*
X031399Y039656D01*
X031586Y039656D01*
X031758Y039727D01*
X031891Y039859D01*
X031962Y040032D01*
X031962Y040219D01*
X031891Y040392D01*
X031758Y040524D01*
X031586Y040596D01*
X031399Y040596D01*
X031226Y040524D01*
X031172Y040470D01*
X031172Y040781D01*
X031226Y040727D01*
X031399Y040656D01*
X031586Y040656D01*
X031758Y040727D01*
X031891Y040859D01*
X031962Y041032D01*
X031962Y041219D01*
X031891Y041392D01*
X031758Y041524D01*
X031586Y041596D01*
X031399Y041596D01*
X031226Y041524D01*
X031172Y041470D01*
X031172Y041781D01*
X031226Y041727D01*
X031399Y041656D01*
X031586Y041656D01*
X031758Y041727D01*
X031891Y041859D01*
X031962Y042032D01*
X031962Y042219D01*
X031891Y042392D01*
X031758Y042524D01*
X031586Y042596D01*
X031399Y042596D01*
X031226Y042524D01*
X031172Y042470D01*
X031172Y042781D01*
X031226Y042727D01*
X031399Y042656D01*
X031586Y042656D01*
X031758Y042727D01*
X031891Y042859D01*
X031962Y043032D01*
X031962Y043219D01*
X031891Y043392D01*
X031758Y043524D01*
X031586Y043596D01*
X031399Y043596D01*
X031226Y043524D01*
X031172Y043470D01*
X031172Y043781D01*
X031226Y043727D01*
X031399Y043656D01*
X031586Y043656D01*
X031758Y043727D01*
X031891Y043859D01*
X031962Y044032D01*
X031962Y044219D01*
X031891Y044392D01*
X031758Y044524D01*
X031586Y044596D01*
X031399Y044596D01*
X031226Y044524D01*
X031172Y044470D01*
X031172Y044781D01*
X031226Y044727D01*
X031399Y044656D01*
X031586Y044656D01*
X031758Y044727D01*
X031891Y044859D01*
X031962Y045032D01*
X031962Y045219D01*
X031891Y045392D01*
X031758Y045524D01*
X031586Y045596D01*
X031399Y045596D01*
X031226Y045524D01*
X031172Y045470D01*
X031172Y045781D01*
X031226Y045727D01*
X031399Y045656D01*
X031586Y045656D01*
X031758Y045727D01*
X031891Y045859D01*
X031962Y046032D01*
X031962Y046219D01*
X031891Y046392D01*
X031758Y046524D01*
X031586Y046596D01*
X031399Y046596D01*
X031226Y046524D01*
X031172Y046470D01*
X031172Y046781D01*
X031226Y046727D01*
X031399Y046656D01*
X031586Y046656D01*
X031758Y046727D01*
X031891Y046859D01*
X031962Y047032D01*
X031962Y047219D01*
X031891Y047392D01*
X031758Y047524D01*
X031586Y047596D01*
X031399Y047596D01*
X031226Y047524D01*
X031172Y047470D01*
X031172Y047781D01*
X031226Y047727D01*
X031399Y047656D01*
X031586Y047656D01*
X031758Y047727D01*
X031891Y047859D01*
X031962Y048032D01*
X031962Y048219D01*
X031891Y048392D01*
X031758Y048524D01*
X031586Y048596D01*
X031399Y048596D01*
X031226Y048524D01*
X031172Y048470D01*
X031172Y048781D01*
X031226Y048727D01*
X031399Y048656D01*
X031586Y048656D01*
X031758Y048727D01*
X031891Y048859D01*
X031962Y049032D01*
X031962Y049219D01*
X031891Y049392D01*
X031758Y049524D01*
X031586Y049596D01*
X031399Y049596D01*
X031226Y049524D01*
X031172Y049470D01*
X031172Y049781D01*
X031226Y049727D01*
X031399Y049656D01*
X031586Y049656D01*
X031758Y049727D01*
X031891Y049859D01*
X031962Y050032D01*
X031962Y050219D01*
X031891Y050392D01*
X031758Y050524D01*
X031586Y050596D01*
X031399Y050596D01*
X031226Y050524D01*
X031172Y050470D01*
X031172Y050781D01*
X031226Y050727D01*
X031399Y050656D01*
X031586Y050656D01*
X031758Y050727D01*
X031891Y050859D01*
X031962Y051032D01*
X031962Y051219D01*
X031891Y051392D01*
X031758Y051524D01*
X031586Y051596D01*
X031399Y051596D01*
X031226Y051524D01*
X031172Y051470D01*
X031172Y051781D01*
X031226Y051727D01*
X031399Y051656D01*
X031586Y051656D01*
X031758Y051727D01*
X031891Y051859D01*
X031962Y052032D01*
X031962Y052219D01*
X031891Y052392D01*
X031758Y052524D01*
X031586Y052596D01*
X031399Y052596D01*
X031226Y052524D01*
X031172Y052470D01*
X031172Y052781D01*
X031226Y052727D01*
X031399Y052656D01*
X031586Y052656D01*
X031758Y052727D01*
X031891Y052859D01*
X031962Y053032D01*
X031962Y053219D01*
X031891Y053392D01*
X031783Y053499D01*
X037201Y053499D01*
X037094Y053392D01*
X037022Y053219D01*
X037022Y053032D01*
X037094Y052859D01*
X037226Y052727D01*
X037399Y052656D01*
X037586Y052656D01*
X037758Y052727D01*
X037891Y052859D01*
X037962Y053032D01*
X037962Y053219D01*
X037891Y053392D01*
X037783Y053499D01*
X038601Y053499D01*
X038494Y053392D01*
X038422Y053219D01*
X038422Y053032D01*
X038494Y052859D01*
X038626Y052727D01*
X038799Y052656D01*
X038986Y052656D01*
X039158Y052727D01*
X039291Y052859D01*
X039362Y053032D01*
X039362Y053219D01*
X039291Y053392D01*
X039183Y053499D01*
X044601Y053499D01*
X044494Y053392D01*
X044422Y053219D01*
X044422Y053032D01*
X044494Y052859D01*
X044626Y052727D01*
X044799Y052656D01*
X044986Y052656D01*
X045158Y052727D01*
X045291Y052859D01*
X045355Y053015D02*
X045559Y053015D01*
X045559Y053173D02*
X045362Y053173D01*
X045316Y053332D02*
X045559Y053332D01*
X045559Y053490D02*
X045192Y053490D01*
X044697Y052698D02*
X039087Y052698D01*
X038986Y052596D02*
X038799Y052596D01*
X038626Y052524D01*
X038494Y052392D01*
X038422Y052219D01*
X038422Y052032D01*
X038494Y051859D01*
X038626Y051727D01*
X038799Y051656D01*
X038986Y051656D01*
X039158Y051727D01*
X039291Y051859D01*
X039362Y052032D01*
X039362Y052219D01*
X039291Y052392D01*
X039158Y052524D01*
X038986Y052596D01*
X039122Y052539D02*
X044662Y052539D01*
X044489Y052381D02*
X039295Y052381D01*
X039361Y052222D02*
X044423Y052222D01*
X044422Y052064D02*
X039362Y052064D01*
X039309Y051905D02*
X044475Y051905D01*
X044607Y051747D02*
X039178Y051747D01*
X039158Y051524D02*
X038986Y051596D01*
X038799Y051596D01*
X038626Y051524D01*
X038494Y051392D01*
X038422Y051219D01*
X038422Y051032D01*
X038494Y050859D01*
X038626Y050727D01*
X038799Y050656D01*
X038986Y050656D01*
X039158Y050727D01*
X039291Y050859D01*
X039362Y051032D01*
X039362Y051219D01*
X039291Y051392D01*
X039158Y051524D01*
X039253Y051430D02*
X044531Y051430D01*
X044444Y051271D02*
X039341Y051271D01*
X039362Y051113D02*
X044422Y051113D01*
X044454Y050954D02*
X039330Y050954D01*
X039227Y050796D02*
X044558Y050796D01*
X044580Y050479D02*
X039204Y050479D01*
X039158Y050524D02*
X038986Y050596D01*
X038799Y050596D01*
X038626Y050524D01*
X038494Y050392D01*
X038422Y050219D01*
X038422Y050032D01*
X038494Y049859D01*
X038626Y049727D01*
X038799Y049656D01*
X038986Y049656D01*
X039158Y049727D01*
X039291Y049859D01*
X039362Y050032D01*
X039362Y050219D01*
X039291Y050392D01*
X039158Y050524D01*
X039320Y050320D02*
X044464Y050320D01*
X044422Y050162D02*
X039362Y050162D01*
X039350Y050003D02*
X044434Y050003D01*
X044509Y049845D02*
X039276Y049845D01*
X039059Y049686D02*
X044725Y049686D01*
X044634Y049528D02*
X039150Y049528D01*
X039158Y049524D02*
X038986Y049596D01*
X038799Y049596D01*
X038626Y049524D01*
X038494Y049392D01*
X038422Y049219D01*
X038422Y049032D01*
X038494Y048859D01*
X038626Y048727D01*
X038799Y048656D01*
X038986Y048656D01*
X039158Y048727D01*
X039291Y048859D01*
X039362Y049032D01*
X039362Y049219D01*
X039291Y049392D01*
X039158Y049524D01*
X039300Y049369D02*
X044484Y049369D01*
X044422Y049211D02*
X039362Y049211D01*
X039362Y049052D02*
X041749Y049052D01*
X041776Y049079D02*
X041698Y049001D01*
X041656Y048898D01*
X041656Y048787D01*
X041698Y048685D01*
X041725Y048658D01*
X041597Y047785D01*
X041586Y047780D01*
X041507Y047702D01*
X041465Y047599D01*
X041465Y047489D01*
X041507Y047386D01*
X041586Y047308D01*
X041688Y047265D01*
X041799Y047265D01*
X041902Y047308D01*
X041980Y047386D01*
X042022Y047489D01*
X042022Y047599D01*
X041980Y047702D01*
X041953Y047729D01*
X042081Y048602D01*
X042092Y048606D01*
X042171Y048685D01*
X042213Y048787D01*
X042213Y048898D01*
X042171Y049001D01*
X042092Y049079D01*
X041990Y049121D01*
X041879Y049121D01*
X041776Y049079D01*
X041656Y048894D02*
X039305Y048894D01*
X039166Y048735D02*
X041677Y048735D01*
X041713Y048577D02*
X039032Y048577D01*
X038986Y048596D02*
X038799Y048596D01*
X038626Y048524D01*
X038494Y048392D01*
X038422Y048219D01*
X038422Y048032D01*
X038494Y047859D01*
X038626Y047727D01*
X038799Y047656D01*
X038986Y047656D01*
X039158Y047727D01*
X039291Y047859D01*
X039362Y048032D01*
X039362Y048219D01*
X039291Y048392D01*
X039158Y048524D01*
X038986Y048596D01*
X038753Y048577D02*
X037632Y048577D01*
X037766Y048735D02*
X038618Y048735D01*
X038480Y048894D02*
X037905Y048894D01*
X037962Y049052D02*
X038422Y049052D01*
X038422Y049211D02*
X037962Y049211D01*
X037900Y049369D02*
X038484Y049369D01*
X038634Y049528D02*
X037750Y049528D01*
X037659Y049686D02*
X038725Y049686D01*
X038509Y049845D02*
X037876Y049845D01*
X037891Y049859D02*
X037758Y049727D01*
X037586Y049656D01*
X037399Y049656D01*
X037226Y049727D01*
X037094Y049859D01*
X037022Y050032D01*
X037022Y050219D01*
X037094Y050392D01*
X037226Y050524D01*
X037399Y050596D01*
X037586Y050596D01*
X037758Y050524D01*
X037891Y050392D01*
X037962Y050219D01*
X037962Y050032D01*
X037891Y049859D01*
X037950Y050003D02*
X038434Y050003D01*
X038422Y050162D02*
X037962Y050162D01*
X037920Y050320D02*
X038464Y050320D01*
X038580Y050479D02*
X037804Y050479D01*
X037758Y050727D02*
X037891Y050859D01*
X037962Y051032D01*
X037962Y051219D01*
X037891Y051392D01*
X037758Y051524D01*
X037586Y051596D01*
X037399Y051596D01*
X037226Y051524D01*
X037094Y051392D01*
X037022Y051219D01*
X037022Y051032D01*
X037094Y050859D01*
X037226Y050727D01*
X037399Y050656D01*
X037586Y050656D01*
X037758Y050727D01*
X037827Y050796D02*
X038558Y050796D01*
X038454Y050954D02*
X037930Y050954D01*
X037962Y051113D02*
X038422Y051113D01*
X038444Y051271D02*
X037941Y051271D01*
X037853Y051430D02*
X038531Y051430D01*
X038780Y051588D02*
X037604Y051588D01*
X037586Y051656D02*
X037758Y051727D01*
X037891Y051859D01*
X037962Y052032D01*
X037962Y052219D01*
X037891Y052392D01*
X037758Y052524D01*
X037586Y052596D01*
X037399Y052596D01*
X037226Y052524D01*
X037094Y052392D01*
X037022Y052219D01*
X037022Y052032D01*
X037094Y051859D01*
X037226Y051727D01*
X037399Y051656D01*
X037586Y051656D01*
X037778Y051747D02*
X038607Y051747D01*
X038475Y051905D02*
X037909Y051905D01*
X037962Y052064D02*
X038422Y052064D01*
X038423Y052222D02*
X037961Y052222D01*
X037895Y052381D02*
X038489Y052381D01*
X038662Y052539D02*
X037722Y052539D01*
X037687Y052698D02*
X038697Y052698D01*
X038497Y052856D02*
X037887Y052856D01*
X037955Y053015D02*
X038429Y053015D01*
X038422Y053173D02*
X037962Y053173D01*
X037916Y053332D02*
X038469Y053332D01*
X038592Y053490D02*
X037792Y053490D01*
X037192Y053490D02*
X031792Y053490D01*
X031916Y053332D02*
X037069Y053332D01*
X037022Y053173D02*
X031962Y053173D01*
X031955Y053015D02*
X037029Y053015D01*
X037097Y052856D02*
X031887Y052856D01*
X031687Y052698D02*
X037297Y052698D01*
X037262Y052539D02*
X031722Y052539D01*
X031895Y052381D02*
X037089Y052381D01*
X037023Y052222D02*
X031961Y052222D01*
X031962Y052064D02*
X037022Y052064D01*
X037075Y051905D02*
X031909Y051905D01*
X031778Y051747D02*
X037207Y051747D01*
X037380Y051588D02*
X031604Y051588D01*
X031380Y051588D02*
X031172Y051588D01*
X031172Y051747D02*
X031207Y051747D01*
X031853Y051430D02*
X037131Y051430D01*
X037044Y051271D02*
X031941Y051271D01*
X031962Y051113D02*
X037022Y051113D01*
X037054Y050954D02*
X031930Y050954D01*
X031827Y050796D02*
X037158Y050796D01*
X037180Y050479D02*
X031804Y050479D01*
X031920Y050320D02*
X037064Y050320D01*
X037022Y050162D02*
X031962Y050162D01*
X031950Y050003D02*
X037034Y050003D01*
X037109Y049845D02*
X031876Y049845D01*
X031659Y049686D02*
X037325Y049686D01*
X037234Y049528D02*
X031750Y049528D01*
X031900Y049369D02*
X037084Y049369D01*
X037022Y049211D02*
X031962Y049211D01*
X031962Y049052D02*
X034349Y049052D01*
X034376Y049079D02*
X034298Y049001D01*
X034256Y048898D01*
X034256Y048787D01*
X034298Y048685D01*
X034325Y048658D01*
X034197Y047785D01*
X034186Y047780D01*
X034107Y047702D01*
X034065Y047599D01*
X034065Y047489D01*
X034107Y047386D01*
X034186Y047308D01*
X034288Y047265D01*
X034399Y047265D01*
X034502Y047308D01*
X034580Y047386D01*
X034622Y047489D01*
X034622Y047599D01*
X034580Y047702D01*
X034553Y047729D01*
X034681Y048602D01*
X034692Y048606D01*
X034771Y048685D01*
X034813Y048787D01*
X034813Y048898D01*
X034771Y049001D01*
X034692Y049079D01*
X034590Y049121D01*
X034479Y049121D01*
X034376Y049079D01*
X034256Y048894D02*
X031905Y048894D01*
X031766Y048735D02*
X034277Y048735D01*
X034313Y048577D02*
X031632Y048577D01*
X031353Y048577D02*
X031172Y048577D01*
X031172Y048735D02*
X031218Y048735D01*
X031864Y048418D02*
X034290Y048418D01*
X034267Y048260D02*
X031945Y048260D01*
X031962Y048101D02*
X034243Y048101D01*
X034220Y047943D02*
X031925Y047943D01*
X031815Y047784D02*
X034195Y047784D01*
X034076Y047626D02*
X031172Y047626D01*
X031815Y047467D02*
X034074Y047467D01*
X034185Y047309D02*
X031925Y047309D01*
X031962Y047150D02*
X035709Y047150D01*
X035709Y046992D02*
X031945Y046992D01*
X031864Y046833D02*
X035708Y046833D01*
X035708Y046675D02*
X031631Y046675D01*
X031766Y046516D02*
X035708Y046516D01*
X035708Y046358D02*
X031905Y046358D01*
X031962Y046199D02*
X035708Y046199D01*
X035708Y046041D02*
X031962Y046041D01*
X031900Y045882D02*
X035708Y045882D01*
X035708Y045724D02*
X031750Y045724D01*
X031659Y045565D02*
X035707Y045565D01*
X035707Y045407D02*
X031876Y045407D01*
X031950Y045248D02*
X035707Y045248D01*
X035707Y045090D02*
X031962Y045090D01*
X031920Y044931D02*
X035707Y044931D01*
X035707Y044773D02*
X031804Y044773D01*
X031827Y044456D02*
X035707Y044456D01*
X035707Y044614D02*
X031172Y044614D01*
X031172Y044773D02*
X031181Y044773D01*
X031172Y045565D02*
X031325Y045565D01*
X031235Y045724D02*
X031172Y045724D01*
X031172Y046516D02*
X031218Y046516D01*
X031172Y046675D02*
X031353Y046675D01*
X031930Y044297D02*
X035706Y044297D01*
X035706Y044139D02*
X031962Y044139D01*
X031941Y043980D02*
X035706Y043980D01*
X035622Y043822D02*
X031853Y043822D01*
X031604Y043663D02*
X035612Y043663D01*
X035572Y043505D02*
X031778Y043505D01*
X031910Y043346D02*
X035493Y043346D01*
X035414Y043188D02*
X031962Y043188D01*
X031961Y043029D02*
X035334Y043029D01*
X035255Y042871D02*
X031895Y042871D01*
X031722Y042712D02*
X035176Y042712D01*
X035096Y042554D02*
X031687Y042554D01*
X031887Y042395D02*
X035017Y042395D01*
X034938Y042237D02*
X031955Y042237D01*
X031962Y042078D02*
X034858Y042078D01*
X034779Y041920D02*
X031915Y041920D01*
X031792Y041761D02*
X034700Y041761D01*
X034620Y041603D02*
X031172Y041603D01*
X031172Y041761D02*
X031192Y041761D01*
X031838Y041444D02*
X034541Y041444D01*
X034462Y041285D02*
X031935Y041285D01*
X031962Y041127D02*
X034383Y041127D01*
X034303Y040968D02*
X031936Y040968D01*
X031841Y040810D02*
X034224Y040810D01*
X034145Y040651D02*
X031172Y040651D01*
X031172Y040493D02*
X031195Y040493D01*
X031789Y040493D02*
X034065Y040493D01*
X033977Y040334D02*
X031914Y040334D01*
X031962Y040176D02*
X033102Y040176D01*
X033102Y040017D02*
X031956Y040017D01*
X031890Y039859D02*
X033102Y039859D01*
X033102Y039700D02*
X031694Y039700D01*
X031767Y039542D02*
X033102Y039542D01*
X033091Y039383D02*
X031916Y039383D01*
X032287Y039225D02*
X033016Y039225D01*
X032941Y039066D02*
X032412Y039066D01*
X032453Y038992D02*
X032453Y038992D01*
X032460Y038908D02*
X032866Y038908D01*
X032791Y038749D02*
X032460Y038749D01*
X032471Y038779D02*
X032471Y038779D01*
X032424Y038591D02*
X032717Y038591D01*
X032642Y038432D02*
X032399Y038432D01*
X032374Y038274D02*
X032567Y038274D01*
X032492Y038115D02*
X032357Y038115D01*
X032471Y038071D02*
X032471Y038071D01*
X032467Y037993D02*
X032467Y037993D01*
X032769Y037236D02*
X032769Y037236D01*
X032769Y037236D01*
X032769Y037236D01*
X033302Y036936D02*
X033570Y036936D01*
X033774Y036599D01*
X033465Y036599D01*
X033450Y036585D01*
X033436Y036599D01*
X033302Y036599D01*
X033302Y036936D01*
X033302Y036847D02*
X033623Y036847D01*
X033720Y036689D02*
X033302Y036689D01*
X032723Y036317D02*
X032723Y035401D01*
X032723Y035395D01*
X032735Y035375D01*
X032032Y035375D01*
X032032Y035452D01*
X031990Y035494D01*
X032032Y035536D01*
X032032Y036223D01*
X032041Y036229D01*
X032064Y036238D01*
X032067Y036246D01*
X032067Y036246D01*
X032067Y036246D01*
X032067Y036246D01*
X032093Y036306D01*
X032137Y036406D01*
X032137Y036406D01*
X032165Y036470D01*
X032180Y036481D01*
X032184Y036513D01*
X032197Y036542D01*
X032190Y036560D01*
X032206Y036674D01*
X032401Y036674D01*
X032392Y036652D01*
X032392Y036541D01*
X032434Y036438D01*
X032513Y036360D01*
X032615Y036317D01*
X032723Y036317D01*
X032723Y036213D02*
X032032Y036213D01*
X032032Y036055D02*
X032723Y036055D01*
X032723Y035896D02*
X032032Y035896D01*
X032032Y035738D02*
X032723Y035738D01*
X032723Y035579D02*
X032032Y035579D01*
X032032Y035421D02*
X032723Y035421D01*
X032032Y034945D02*
X036952Y034945D01*
X036952Y034787D02*
X032032Y034787D01*
X032032Y034628D02*
X036952Y034628D01*
X037019Y034470D02*
X031966Y034470D01*
X031172Y034311D02*
X045559Y034311D01*
X045559Y034470D02*
X045366Y034470D01*
X045432Y034628D02*
X045559Y034628D01*
X045559Y034787D02*
X045432Y034787D01*
X045432Y034945D02*
X045559Y034945D01*
X045559Y035104D02*
X045432Y035104D01*
X045432Y035262D02*
X045559Y035262D01*
X045559Y035421D02*
X045432Y035421D01*
X045432Y035579D02*
X045559Y035579D01*
X045559Y035738D02*
X045432Y035738D01*
X045432Y035896D02*
X045559Y035896D01*
X045559Y036055D02*
X045432Y036055D01*
X045432Y036213D02*
X045559Y036213D01*
X045559Y036372D02*
X045432Y036372D01*
X045452Y036530D02*
X045559Y036530D01*
X045559Y036689D02*
X045452Y036689D01*
X045452Y036847D02*
X045559Y036847D01*
X045559Y037006D02*
X045452Y037006D01*
X045452Y037164D02*
X045559Y037164D01*
X045559Y037323D02*
X045452Y037323D01*
X045431Y037481D02*
X045559Y037481D01*
X045559Y037640D02*
X045432Y037640D01*
X045432Y037798D02*
X045559Y037798D01*
X045559Y037957D02*
X045432Y037957D01*
X045432Y038115D02*
X045559Y038115D01*
X045559Y038274D02*
X045432Y038274D01*
X045432Y038432D02*
X045559Y038432D01*
X045559Y038591D02*
X044655Y038591D01*
X044604Y038749D02*
X044599Y038749D01*
X044160Y038908D02*
X044126Y038908D01*
X044103Y039066D02*
X044005Y039066D01*
X044046Y039225D02*
X043884Y039225D01*
X043990Y039383D02*
X043763Y039383D01*
X043688Y039542D02*
X043933Y039542D01*
X043877Y039700D02*
X043638Y039700D01*
X043746Y039859D02*
X043282Y039859D01*
X043282Y040017D02*
X043661Y040017D01*
X043687Y040176D02*
X043333Y040176D01*
X043480Y040334D02*
X043876Y040334D01*
X044003Y040334D02*
X044470Y040334D01*
X044494Y040392D02*
X044422Y040219D01*
X044422Y040032D01*
X044494Y039859D01*
X044202Y039859D01*
X044219Y040017D02*
X044428Y040017D01*
X044422Y040176D02*
X044193Y040176D01*
X044494Y040392D02*
X044626Y040524D01*
X044799Y040596D01*
X044986Y040596D01*
X045158Y040524D01*
X045291Y040392D01*
X045362Y040219D01*
X045362Y040032D01*
X045291Y039859D01*
X045158Y039727D01*
X044986Y039656D01*
X044799Y039656D01*
X044626Y039727D01*
X044494Y039859D01*
X044690Y039700D02*
X044259Y039700D01*
X044316Y039542D02*
X044669Y039542D01*
X044490Y039383D02*
X044372Y039383D01*
X045115Y039542D02*
X045559Y039542D01*
X045559Y039700D02*
X045094Y039700D01*
X045290Y039859D02*
X045559Y039859D01*
X045559Y040017D02*
X045356Y040017D01*
X045362Y040176D02*
X045559Y040176D01*
X045559Y040334D02*
X045314Y040334D01*
X045189Y040493D02*
X045559Y040493D01*
X045559Y040651D02*
X043773Y040651D01*
X043627Y040493D02*
X044595Y040493D01*
X044626Y040727D02*
X044799Y040656D01*
X044986Y040656D01*
X045158Y040727D01*
X045291Y040859D01*
X045362Y041032D01*
X045362Y041219D01*
X045291Y041392D01*
X045158Y041524D01*
X044986Y041596D01*
X044799Y041596D01*
X044626Y041524D01*
X044494Y041392D01*
X044422Y041219D01*
X044422Y041032D01*
X044494Y040859D01*
X044626Y040727D01*
X044543Y040810D02*
X043920Y040810D01*
X044067Y040968D02*
X044448Y040968D01*
X044422Y041127D02*
X044213Y041127D01*
X044360Y041285D02*
X044450Y041285D01*
X044507Y041444D02*
X044546Y041444D01*
X044653Y041603D02*
X045559Y041603D01*
X045559Y041761D02*
X045192Y041761D01*
X045315Y041920D02*
X045559Y041920D01*
X045559Y042078D02*
X045362Y042078D01*
X045355Y042237D02*
X045559Y042237D01*
X045559Y042395D02*
X045287Y042395D01*
X045087Y042554D02*
X045559Y042554D01*
X045559Y042712D02*
X045122Y042712D01*
X045158Y042727D02*
X045291Y042859D01*
X045362Y043032D01*
X045362Y043219D01*
X045291Y043392D01*
X045158Y043524D01*
X044986Y043596D01*
X044799Y043596D01*
X044626Y043524D01*
X044494Y043392D01*
X044422Y043219D01*
X044422Y043032D01*
X044494Y042859D01*
X044626Y042727D01*
X044799Y042656D01*
X044986Y042656D01*
X045158Y042727D01*
X045295Y042871D02*
X045559Y042871D01*
X045559Y043029D02*
X045361Y043029D01*
X045362Y043188D02*
X045559Y043188D01*
X045559Y043346D02*
X045310Y043346D01*
X045178Y043505D02*
X045559Y043505D01*
X045559Y043663D02*
X045004Y043663D01*
X044781Y043663D02*
X043883Y043663D01*
X043917Y043822D02*
X044532Y043822D01*
X044444Y043980D02*
X043950Y043980D01*
X043984Y044139D02*
X044422Y044139D01*
X044454Y044297D02*
X044018Y044297D01*
X044051Y044456D02*
X044557Y044456D01*
X044606Y043505D02*
X043841Y043505D01*
X043828Y043466D02*
X043828Y043466D01*
X043787Y043346D02*
X044475Y043346D01*
X044422Y043188D02*
X043733Y043188D01*
X043679Y043029D02*
X044423Y043029D01*
X044489Y042871D02*
X043625Y042871D01*
X043571Y042712D02*
X044662Y042712D01*
X044697Y042554D02*
X043517Y042554D01*
X043463Y042395D02*
X044497Y042395D01*
X044429Y042237D02*
X043409Y042237D01*
X043355Y042078D02*
X044422Y042078D01*
X044456Y041920D02*
X043300Y041920D01*
X043246Y041761D02*
X044309Y041761D01*
X044163Y041603D02*
X043192Y041603D01*
X043138Y041444D02*
X044016Y041444D01*
X043869Y041285D02*
X043084Y041285D01*
X043030Y041127D02*
X043723Y041127D01*
X043576Y040968D02*
X042976Y040968D01*
X042922Y040810D02*
X043429Y040810D01*
X043283Y040651D02*
X042868Y040651D01*
X042814Y040493D02*
X043136Y040493D01*
X043031Y040380D02*
X043031Y040380D01*
X042989Y040334D02*
X042760Y040334D01*
X042264Y040493D02*
X041868Y040493D01*
X041947Y040651D02*
X042318Y040651D01*
X042372Y040810D02*
X042026Y040810D01*
X042106Y040968D02*
X042426Y040968D01*
X042480Y041127D02*
X042185Y041127D01*
X042264Y041285D02*
X042534Y041285D01*
X042589Y041444D02*
X042344Y041444D01*
X042423Y041603D02*
X042643Y041603D01*
X042697Y041761D02*
X042502Y041761D01*
X042582Y041920D02*
X042751Y041920D01*
X042805Y042078D02*
X042661Y042078D01*
X042740Y042237D02*
X042859Y042237D01*
X042820Y042395D02*
X042913Y042395D01*
X042899Y042554D02*
X042967Y042554D01*
X042978Y042712D02*
X043021Y042712D01*
X043058Y042871D02*
X043075Y042871D01*
X043114Y042982D02*
X042205Y040320D01*
X042203Y040313D01*
X042200Y040316D01*
X041779Y040316D01*
X043114Y042982D01*
X042814Y043188D02*
X039362Y043188D01*
X039362Y043219D02*
X039291Y043392D01*
X039158Y043524D01*
X038986Y043596D01*
X038799Y043596D01*
X038626Y043524D01*
X038494Y043392D01*
X038422Y043219D01*
X038422Y043032D01*
X038494Y042859D01*
X038626Y042727D01*
X038799Y042656D01*
X038986Y042656D01*
X039158Y042727D01*
X039291Y042859D01*
X039362Y043032D01*
X039362Y043219D01*
X039310Y043346D02*
X042893Y043346D01*
X042972Y043505D02*
X039178Y043505D01*
X039158Y043727D02*
X038986Y043656D01*
X038799Y043656D01*
X038626Y043727D01*
X038494Y043859D01*
X038422Y044032D01*
X038422Y044219D01*
X038494Y044392D01*
X038626Y044524D01*
X038799Y044596D01*
X038986Y044596D01*
X039158Y044524D01*
X039291Y044392D01*
X039362Y044219D01*
X039362Y044032D01*
X039291Y043859D01*
X039158Y043727D01*
X039253Y043822D02*
X043022Y043822D01*
X043012Y043663D02*
X039004Y043663D01*
X038781Y043663D02*
X037604Y043663D01*
X037586Y043656D02*
X037758Y043727D01*
X037891Y043859D01*
X037962Y044032D01*
X037962Y044219D01*
X037891Y044392D01*
X037758Y044524D01*
X037586Y044596D01*
X037399Y044596D01*
X037226Y044524D01*
X037094Y044392D01*
X037022Y044219D01*
X037022Y044032D01*
X037094Y043859D01*
X037226Y043727D01*
X037399Y043656D01*
X037586Y043656D01*
X037586Y043596D02*
X037399Y043596D01*
X037226Y043524D01*
X037094Y043392D01*
X037022Y043219D01*
X037022Y043032D01*
X037094Y042859D01*
X037226Y042727D01*
X037399Y042656D01*
X037586Y042656D01*
X037758Y042727D01*
X037891Y042859D01*
X037962Y043032D01*
X037962Y043219D01*
X037891Y043392D01*
X037758Y043524D01*
X037586Y043596D01*
X037778Y043505D02*
X038606Y043505D01*
X038475Y043346D02*
X037910Y043346D01*
X037962Y043188D02*
X038422Y043188D01*
X038423Y043029D02*
X037961Y043029D01*
X037895Y042871D02*
X038489Y042871D01*
X038662Y042712D02*
X037722Y042712D01*
X037687Y042554D02*
X038697Y042554D01*
X038626Y042524D02*
X038494Y042392D01*
X038422Y042219D01*
X038422Y042032D01*
X038494Y041859D01*
X038626Y041727D01*
X038799Y041656D01*
X038986Y041656D01*
X039158Y041727D01*
X039291Y041859D01*
X039362Y042032D01*
X039362Y042219D01*
X039291Y042392D01*
X039158Y042524D01*
X038986Y042596D01*
X038799Y042596D01*
X038626Y042524D01*
X038497Y042395D02*
X037887Y042395D01*
X037955Y042237D02*
X038429Y042237D01*
X038422Y042078D02*
X037962Y042078D01*
X037915Y041920D02*
X038469Y041920D01*
X038592Y041761D02*
X037792Y041761D01*
X037758Y041524D02*
X037586Y041596D01*
X037399Y041596D01*
X037226Y041524D01*
X037094Y041392D01*
X037022Y041219D01*
X037022Y041032D01*
X037094Y040859D01*
X037226Y040727D01*
X037399Y040656D01*
X037586Y040656D01*
X037758Y040727D01*
X037891Y040859D01*
X037962Y041032D01*
X037962Y041219D01*
X037891Y041392D01*
X037758Y041524D01*
X037838Y041444D02*
X038546Y041444D01*
X038494Y041392D02*
X038422Y041219D01*
X038422Y041032D01*
X038494Y040859D01*
X038626Y040727D01*
X038799Y040656D01*
X038986Y040656D01*
X039158Y040727D01*
X039291Y040859D01*
X039362Y041032D01*
X039362Y041219D01*
X039291Y041392D01*
X039158Y041524D01*
X038986Y041596D01*
X038799Y041596D01*
X038626Y041524D01*
X038494Y041392D01*
X038450Y041285D02*
X037935Y041285D01*
X037962Y041127D02*
X038422Y041127D01*
X038448Y040968D02*
X037936Y040968D01*
X037841Y040810D02*
X038543Y040810D01*
X038626Y040524D02*
X038494Y040392D01*
X038422Y040219D01*
X038422Y040032D01*
X038494Y039859D01*
X037890Y039859D01*
X037891Y039859D02*
X037962Y040032D01*
X037962Y040219D01*
X037891Y040392D01*
X037758Y040524D01*
X037586Y040596D01*
X037399Y040596D01*
X037226Y040524D01*
X037094Y040392D01*
X037022Y040219D01*
X037022Y040032D01*
X037094Y039859D01*
X036802Y039859D01*
X036819Y040017D02*
X037028Y040017D01*
X037022Y040176D02*
X036793Y040176D01*
X036603Y040334D02*
X037070Y040334D01*
X037195Y040493D02*
X036227Y040493D01*
X036373Y040651D02*
X041545Y040651D01*
X041465Y040493D02*
X039189Y040493D01*
X039158Y040524D02*
X039291Y040392D01*
X039362Y040219D01*
X039362Y040032D01*
X039291Y039859D01*
X039158Y039727D01*
X038986Y039656D01*
X038799Y039656D01*
X038626Y039727D01*
X038494Y039859D01*
X038428Y040017D02*
X037956Y040017D01*
X037962Y040176D02*
X038422Y040176D01*
X038470Y040334D02*
X037914Y040334D01*
X037789Y040493D02*
X038595Y040493D01*
X038626Y040524D02*
X038799Y040596D01*
X038986Y040596D01*
X039158Y040524D01*
X039314Y040334D02*
X041377Y040334D01*
X041328Y040176D02*
X041282Y040176D01*
X041789Y040334D02*
X042210Y040334D01*
X041703Y040968D02*
X039336Y040968D01*
X039362Y041127D02*
X041783Y041127D01*
X041862Y041285D02*
X039335Y041285D01*
X039238Y041444D02*
X041941Y041444D01*
X042020Y041603D02*
X037253Y041603D01*
X037146Y041444D02*
X037107Y041444D01*
X037050Y041285D02*
X036960Y041285D01*
X037022Y041127D02*
X036813Y041127D01*
X036667Y040968D02*
X037048Y040968D01*
X037143Y040810D02*
X036520Y040810D01*
X036323Y041127D02*
X035630Y041127D01*
X035576Y040968D02*
X036176Y040968D01*
X036029Y040810D02*
X035522Y040810D01*
X035468Y040651D02*
X035883Y040651D01*
X035736Y040493D02*
X035414Y040493D01*
X035360Y040334D02*
X035589Y040334D01*
X035631Y040380D02*
X035631Y040380D01*
X035933Y040176D02*
X036287Y040176D01*
X036261Y040017D02*
X035882Y040017D01*
X035882Y039859D02*
X036346Y039859D01*
X036238Y039700D02*
X036477Y039700D01*
X036533Y039542D02*
X036288Y039542D01*
X036363Y039383D02*
X036590Y039383D01*
X036646Y039225D02*
X036484Y039225D01*
X036605Y039066D02*
X036703Y039066D01*
X036726Y038908D02*
X036760Y038908D01*
X036439Y038591D02*
X036161Y038591D01*
X036106Y038749D02*
X036318Y038749D01*
X036197Y038908D02*
X036052Y038908D01*
X036076Y039066D02*
X035997Y039066D01*
X035955Y039225D02*
X035942Y039225D01*
X035941Y039228D02*
X036284Y038234D01*
X036284Y038289D01*
X036327Y038392D01*
X036405Y038470D01*
X036501Y038510D01*
X035953Y039228D01*
X035941Y039228D01*
X035616Y039066D02*
X035302Y039066D01*
X035302Y038908D02*
X035671Y038908D01*
X035726Y038749D02*
X035302Y038749D01*
X035302Y038591D02*
X035780Y038591D01*
X035835Y038432D02*
X035302Y038432D01*
X035302Y038274D02*
X035890Y038274D01*
X035944Y038115D02*
X035302Y038115D01*
X035302Y038016D02*
X035302Y039236D01*
X035558Y039236D01*
X036049Y037812D01*
X036059Y037785D01*
X036053Y037776D01*
X036066Y037725D01*
X036066Y037414D01*
X036148Y037332D01*
X036500Y037332D01*
X036551Y037219D01*
X036148Y037219D01*
X036066Y037137D01*
X036066Y036706D01*
X036148Y036624D01*
X036415Y036624D01*
X036415Y036601D01*
X036414Y036599D01*
X035965Y036599D01*
X035950Y036585D01*
X035936Y036599D01*
X035693Y036599D01*
X035428Y036936D01*
X035800Y036936D01*
X035882Y037018D01*
X035882Y037934D01*
X035800Y038016D01*
X035302Y038016D01*
X034782Y038016D02*
X034782Y039236D01*
X034413Y039236D01*
X034401Y039224D01*
X034401Y039223D01*
X034401Y039223D01*
X034349Y039169D01*
X034349Y039169D01*
X033392Y038176D01*
X033668Y038176D01*
X033668Y038176D01*
X033742Y038176D01*
X033751Y038176D01*
X033768Y038184D01*
X033791Y038176D01*
X033817Y038176D01*
X033830Y038163D01*
X033835Y038161D01*
X034216Y038032D01*
X034217Y038032D01*
X034245Y038022D01*
X034256Y038029D01*
X034305Y038016D01*
X034782Y038016D01*
X034782Y038115D02*
X033970Y038115D01*
X033882Y037765D02*
X034102Y037691D01*
X034102Y037018D01*
X034184Y036936D01*
X034799Y036936D01*
X034857Y036599D01*
X034465Y036599D01*
X034450Y036585D01*
X034436Y036599D01*
X034196Y036599D01*
X033900Y037085D01*
X033886Y037108D01*
X033895Y037142D01*
X033882Y037164D01*
X033882Y037765D01*
X033882Y037640D02*
X034102Y037640D01*
X034102Y037481D02*
X033882Y037481D01*
X033882Y037323D02*
X034102Y037323D01*
X034102Y037164D02*
X033882Y037164D01*
X033900Y037085D02*
X033900Y037085D01*
X033948Y037006D02*
X034114Y037006D01*
X034045Y036847D02*
X034814Y036847D01*
X034842Y036689D02*
X034141Y036689D01*
X034691Y035322D02*
X034691Y035322D01*
X034691Y035322D01*
X034691Y035322D01*
X034605Y035266D02*
X034605Y035266D01*
X034600Y035262D02*
X036910Y035262D01*
X036917Y035246D02*
X036917Y035246D01*
X036917Y035246D01*
X036952Y035104D02*
X033964Y035104D01*
X032501Y036372D02*
X032122Y036372D01*
X032192Y036530D02*
X032396Y036530D01*
X032190Y036560D02*
X032190Y036560D01*
X031704Y038534D02*
X031172Y038534D01*
X031172Y038752D01*
X031215Y038710D01*
X031395Y038636D01*
X031590Y038636D01*
X031741Y038698D01*
X031746Y038687D01*
X031748Y038685D01*
X031704Y038534D01*
X031721Y038591D02*
X031172Y038591D01*
X031172Y038749D02*
X031175Y038749D01*
X031172Y039542D02*
X031217Y039542D01*
X031172Y039700D02*
X031290Y039700D01*
X031297Y042554D02*
X031172Y042554D01*
X031172Y042712D02*
X031262Y042712D01*
X031206Y043505D02*
X031172Y043505D01*
X031172Y043663D02*
X031381Y043663D01*
X033882Y040176D02*
X033928Y040176D01*
X034379Y040316D02*
X035714Y042982D01*
X034805Y040319D01*
X034803Y040313D01*
X034800Y040316D01*
X034379Y040316D01*
X034389Y040334D02*
X034810Y040334D01*
X034864Y040493D02*
X034468Y040493D01*
X034547Y040651D02*
X034918Y040651D01*
X034972Y040810D02*
X034626Y040810D01*
X034706Y040968D02*
X035026Y040968D01*
X035080Y041127D02*
X034785Y041127D01*
X034864Y041285D02*
X035134Y041285D01*
X035189Y041444D02*
X034944Y041444D01*
X035023Y041603D02*
X035243Y041603D01*
X035297Y041761D02*
X035102Y041761D01*
X035182Y041920D02*
X035351Y041920D01*
X035405Y042078D02*
X035261Y042078D01*
X035340Y042237D02*
X035459Y042237D01*
X035420Y042395D02*
X035513Y042395D01*
X035499Y042554D02*
X035567Y042554D01*
X035578Y042712D02*
X035621Y042712D01*
X035658Y042871D02*
X035675Y042871D01*
X036171Y042712D02*
X037262Y042712D01*
X037297Y042554D02*
X036117Y042554D01*
X036063Y042395D02*
X037097Y042395D01*
X037029Y042237D02*
X036009Y042237D01*
X035955Y042078D02*
X037022Y042078D01*
X037056Y041920D02*
X035900Y041920D01*
X035846Y041761D02*
X036909Y041761D01*
X036763Y041603D02*
X035792Y041603D01*
X035738Y041444D02*
X036616Y041444D01*
X036469Y041285D02*
X035684Y041285D01*
X036080Y040334D02*
X036476Y040334D01*
X036859Y039700D02*
X037290Y039700D01*
X037226Y039727D02*
X037399Y039656D01*
X037586Y039656D01*
X037758Y039727D01*
X037891Y039859D01*
X037694Y039700D02*
X038690Y039700D01*
X038617Y039542D02*
X037715Y039542D01*
X037894Y039383D02*
X038469Y039383D01*
X038403Y039225D02*
X037960Y039225D01*
X037962Y039066D02*
X038402Y039066D01*
X038452Y038908D02*
X037911Y038908D01*
X037781Y038749D02*
X038575Y038749D01*
X038352Y038432D02*
X038032Y038432D01*
X038032Y038274D02*
X038352Y038274D01*
X038352Y038115D02*
X038032Y038115D01*
X038032Y037957D02*
X038352Y037957D01*
X038352Y037798D02*
X038032Y037798D01*
X038032Y037640D02*
X038352Y037640D01*
X038353Y037481D02*
X038031Y037481D01*
X038052Y037323D02*
X038332Y037323D01*
X038332Y037164D02*
X038052Y037164D01*
X038052Y037006D02*
X038332Y037006D01*
X038332Y036847D02*
X038052Y036847D01*
X038052Y036689D02*
X038332Y036689D01*
X038332Y036530D02*
X038052Y036530D01*
X038032Y036372D02*
X038352Y036372D01*
X038352Y036213D02*
X038032Y036213D01*
X038032Y036055D02*
X038352Y036055D01*
X038352Y035896D02*
X038032Y035896D01*
X038032Y035738D02*
X038352Y035738D01*
X038352Y035579D02*
X038032Y035579D01*
X038032Y035421D02*
X038352Y035421D01*
X038352Y035262D02*
X038032Y035262D01*
X038032Y035104D02*
X038352Y035104D01*
X038352Y034945D02*
X038032Y034945D01*
X038032Y034787D02*
X038352Y034787D01*
X038352Y034628D02*
X038032Y034628D01*
X037966Y034470D02*
X038419Y034470D01*
X039366Y034470D02*
X044419Y034470D01*
X044352Y034628D02*
X039432Y034628D01*
X039432Y034787D02*
X044352Y034787D01*
X044352Y034945D02*
X039432Y034945D01*
X039432Y035375D02*
X039432Y035452D01*
X039390Y035494D01*
X039432Y035536D01*
X039432Y036223D01*
X039441Y036229D01*
X039464Y036238D01*
X039467Y036246D01*
X039467Y036246D01*
X039467Y036246D01*
X039467Y036246D01*
X039493Y036305D01*
X039537Y036406D01*
X039537Y036406D01*
X039565Y036470D01*
X039580Y036481D01*
X039584Y036513D01*
X039597Y036542D01*
X039590Y036560D01*
X039606Y036674D01*
X039801Y036674D01*
X039792Y036652D01*
X039792Y036541D01*
X039834Y036438D01*
X039913Y036360D01*
X040015Y036317D01*
X040123Y036317D01*
X040123Y035401D01*
X040123Y035395D01*
X040135Y035375D01*
X039432Y035375D01*
X039432Y035421D02*
X040123Y035421D01*
X040123Y035579D02*
X039432Y035579D01*
X039432Y035738D02*
X040123Y035738D01*
X040123Y035896D02*
X039432Y035896D01*
X039432Y036055D02*
X040123Y036055D01*
X040123Y036213D02*
X039432Y036213D01*
X039522Y036372D02*
X039901Y036372D01*
X039796Y036530D02*
X039592Y036530D01*
X039867Y037993D02*
X039867Y037993D01*
X039871Y038071D02*
X039871Y038071D01*
X039892Y038115D02*
X039757Y038115D01*
X039774Y038274D02*
X039967Y038274D01*
X040042Y038432D02*
X039799Y038432D01*
X039824Y038591D02*
X040117Y038591D01*
X040191Y038749D02*
X039860Y038749D01*
X039871Y038779D02*
X039871Y038779D01*
X039860Y038908D02*
X040266Y038908D01*
X040341Y039066D02*
X039812Y039066D01*
X039853Y038992D02*
X039853Y038992D01*
X039687Y039225D02*
X040416Y039225D01*
X040491Y039383D02*
X039316Y039383D01*
X039167Y039542D02*
X040502Y039542D01*
X040502Y039700D02*
X039094Y039700D01*
X039290Y039859D02*
X040502Y039859D01*
X040502Y040017D02*
X039356Y040017D01*
X039362Y040176D02*
X040502Y040176D01*
X040819Y039236D02*
X040951Y039236D01*
X040638Y038853D01*
X040809Y039214D01*
X040809Y039214D01*
X040819Y039236D01*
X040814Y039225D02*
X040942Y039225D01*
X040813Y039066D02*
X040739Y039066D01*
X040683Y038908D02*
X040665Y038908D01*
X041039Y038432D02*
X042182Y038432D01*
X042182Y038274D02*
X040886Y038274D01*
X040792Y038176D02*
X041749Y039169D01*
X041801Y039223D01*
X041801Y039224D01*
X041813Y039236D01*
X042182Y039236D01*
X042182Y038016D01*
X041705Y038016D01*
X041656Y038029D01*
X041645Y038022D01*
X041617Y038032D01*
X041616Y038032D01*
X041235Y038161D01*
X041230Y038163D01*
X041217Y038176D01*
X041191Y038176D01*
X041168Y038184D01*
X041151Y038176D01*
X041142Y038176D01*
X041068Y038176D01*
X041068Y038176D01*
X040792Y038176D01*
X041192Y038591D02*
X042182Y038591D01*
X042182Y038749D02*
X041345Y038749D01*
X041497Y038908D02*
X042182Y038908D01*
X042182Y039066D02*
X041650Y039066D01*
X041749Y039169D02*
X041749Y039169D01*
X041803Y039225D02*
X042182Y039225D01*
X042702Y039225D02*
X042961Y039225D01*
X042958Y039236D02*
X043449Y037812D01*
X043459Y037785D01*
X043453Y037776D01*
X043466Y037725D01*
X043466Y037414D01*
X043548Y037332D01*
X043900Y037332D01*
X043951Y037219D01*
X043548Y037219D01*
X043466Y037137D01*
X043466Y036706D01*
X043548Y036624D01*
X043815Y036624D01*
X043815Y036601D01*
X043814Y036599D01*
X043365Y036599D01*
X043350Y036585D01*
X043336Y036599D01*
X043093Y036599D01*
X042828Y036936D01*
X043200Y036936D01*
X043282Y037018D01*
X043282Y037934D01*
X043200Y038016D01*
X042702Y038016D01*
X042702Y039236D01*
X042958Y039236D01*
X043016Y039066D02*
X042702Y039066D01*
X042702Y038908D02*
X043071Y038908D01*
X043126Y038749D02*
X042702Y038749D01*
X042702Y038591D02*
X043180Y038591D01*
X043235Y038432D02*
X042702Y038432D01*
X042702Y038274D02*
X043290Y038274D01*
X043344Y038115D02*
X042702Y038115D01*
X042182Y038115D02*
X041370Y038115D01*
X041282Y037765D02*
X041502Y037691D01*
X041502Y037018D01*
X041584Y036936D01*
X042199Y036936D01*
X042257Y036599D01*
X041865Y036599D01*
X041850Y036585D01*
X041836Y036599D01*
X041596Y036599D01*
X041300Y037085D01*
X041286Y037108D01*
X041295Y037142D01*
X041282Y037164D01*
X041282Y037765D01*
X041282Y037640D02*
X041502Y037640D01*
X041502Y037481D02*
X041282Y037481D01*
X041282Y037323D02*
X041502Y037323D01*
X041502Y037164D02*
X041282Y037164D01*
X041300Y037085D02*
X041300Y037085D01*
X041348Y037006D02*
X041514Y037006D01*
X041445Y036847D02*
X042214Y036847D01*
X042242Y036689D02*
X041541Y036689D01*
X041174Y036599D02*
X040865Y036599D01*
X040850Y036585D01*
X040836Y036599D01*
X040702Y036599D01*
X040702Y036936D01*
X040970Y036936D01*
X041174Y036599D01*
X041120Y036689D02*
X040702Y036689D01*
X040702Y036847D02*
X041023Y036847D01*
X040169Y037236D02*
X040169Y037236D01*
X040169Y037236D01*
X040169Y037236D01*
X039121Y038591D02*
X037255Y038591D01*
X037204Y038749D02*
X037199Y038749D01*
X037090Y039383D02*
X036972Y039383D01*
X036916Y039542D02*
X037269Y039542D01*
X037226Y039727D02*
X037094Y039859D01*
X036368Y038432D02*
X036216Y038432D01*
X036271Y038274D02*
X036284Y038274D01*
X036345Y038057D02*
X036405Y037998D01*
X036508Y037955D01*
X036514Y037955D01*
X036530Y037927D01*
X036390Y037927D01*
X036345Y038057D01*
X036380Y037957D02*
X036503Y037957D01*
X036054Y037798D02*
X035882Y037798D01*
X035882Y037640D02*
X036066Y037640D01*
X036066Y037481D02*
X035882Y037481D01*
X035882Y037323D02*
X036504Y037323D01*
X036094Y037164D02*
X035882Y037164D01*
X035871Y037006D02*
X036066Y037006D01*
X036066Y036847D02*
X035498Y036847D01*
X035623Y036689D02*
X036083Y036689D01*
X036518Y036055D02*
X036722Y036055D01*
X036745Y035896D02*
X036518Y035896D01*
X036518Y035738D02*
X036768Y035738D01*
X036784Y035625D02*
X036784Y035625D01*
X036791Y035579D02*
X036518Y035579D01*
X036518Y035421D02*
X036840Y035421D01*
X036049Y037812D02*
X036049Y037812D01*
X035999Y037957D02*
X035859Y037957D01*
X035561Y039225D02*
X035302Y039225D01*
X034782Y039225D02*
X034403Y039225D01*
X034250Y039066D02*
X034782Y039066D01*
X034782Y038908D02*
X034097Y038908D01*
X033945Y038749D02*
X034782Y038749D01*
X034782Y038591D02*
X033792Y038591D01*
X033639Y038432D02*
X034782Y038432D01*
X034782Y038274D02*
X033486Y038274D01*
X033238Y038853D02*
X033409Y039214D01*
X033409Y039214D01*
X033419Y039236D01*
X033551Y039236D01*
X033238Y038853D01*
X033265Y038908D02*
X033283Y038908D01*
X033339Y039066D02*
X033413Y039066D01*
X033414Y039225D02*
X033542Y039225D01*
X034061Y039389D02*
X034102Y039523D01*
X034102Y039490D01*
X034102Y039464D01*
X034089Y039442D01*
X034094Y039424D01*
X034061Y039389D01*
X035219Y036620D02*
X035235Y036599D01*
X035222Y036599D01*
X035219Y036620D01*
X036225Y042871D02*
X037089Y042871D01*
X037023Y043029D02*
X036279Y043029D01*
X036333Y043188D02*
X037022Y043188D01*
X037075Y043346D02*
X036387Y043346D01*
X036428Y043466D02*
X036428Y043466D01*
X036441Y043505D02*
X037206Y043505D01*
X037381Y043663D02*
X036483Y043663D01*
X036517Y043822D02*
X037132Y043822D01*
X037044Y043980D02*
X036550Y043980D01*
X036584Y044139D02*
X037022Y044139D01*
X037054Y044297D02*
X036618Y044297D01*
X036651Y044456D02*
X037157Y044456D01*
X037226Y044727D02*
X037399Y044656D01*
X037586Y044656D01*
X037758Y044727D01*
X037891Y044859D01*
X037962Y045032D01*
X037962Y045219D01*
X037891Y045392D01*
X037758Y045524D01*
X037586Y045596D01*
X037399Y045596D01*
X037226Y045524D01*
X037094Y045392D01*
X037022Y045219D01*
X037022Y045032D01*
X037094Y044859D01*
X037226Y044727D01*
X037181Y044773D02*
X036718Y044773D01*
X036752Y044931D02*
X037064Y044931D01*
X037022Y045090D02*
X036785Y045090D01*
X036819Y045248D02*
X037034Y045248D01*
X037108Y045407D02*
X036852Y045407D01*
X036886Y045565D02*
X037325Y045565D01*
X037235Y045724D02*
X036919Y045724D01*
X036953Y045882D02*
X037084Y045882D01*
X037022Y046041D02*
X036986Y046041D01*
X037020Y046199D02*
X037022Y046199D01*
X037053Y046358D02*
X037079Y046358D01*
X037087Y046516D02*
X037218Y046516D01*
X037121Y046675D02*
X037353Y046675D01*
X037631Y046675D02*
X038753Y046675D01*
X038799Y046656D02*
X038986Y046656D01*
X039158Y046727D01*
X039291Y046859D01*
X039362Y047032D01*
X039362Y047219D01*
X039291Y047392D01*
X039158Y047524D01*
X038986Y047596D01*
X038799Y047596D01*
X038626Y047524D01*
X038494Y047392D01*
X038422Y047219D01*
X038422Y047032D01*
X038494Y046859D01*
X038626Y046727D01*
X038799Y046656D01*
X038799Y046596D02*
X038626Y046524D01*
X038494Y046392D01*
X038422Y046219D01*
X038422Y046032D01*
X038494Y045859D01*
X038626Y045727D01*
X038799Y045656D01*
X038986Y045656D01*
X039158Y045727D01*
X039291Y045859D01*
X039362Y046032D01*
X039362Y046219D01*
X039291Y046392D01*
X039158Y046524D01*
X038986Y046596D01*
X038799Y046596D01*
X038618Y046516D02*
X037766Y046516D01*
X037905Y046358D02*
X038479Y046358D01*
X038422Y046199D02*
X037962Y046199D01*
X037962Y046041D02*
X038422Y046041D01*
X038484Y045882D02*
X037900Y045882D01*
X037750Y045724D02*
X038635Y045724D01*
X038725Y045565D02*
X037659Y045565D01*
X037876Y045407D02*
X038508Y045407D01*
X038494Y045392D02*
X038422Y045219D01*
X038422Y045032D01*
X038494Y044859D01*
X038626Y044727D01*
X038799Y044656D01*
X038986Y044656D01*
X039158Y044727D01*
X039291Y044859D01*
X039362Y045032D01*
X039362Y045219D01*
X039291Y045392D01*
X039158Y045524D01*
X038986Y045596D01*
X038799Y045596D01*
X038626Y045524D01*
X038494Y045392D01*
X038434Y045248D02*
X037950Y045248D01*
X037962Y045090D02*
X038422Y045090D01*
X038464Y044931D02*
X037920Y044931D01*
X037804Y044773D02*
X038581Y044773D01*
X038557Y044456D02*
X037827Y044456D01*
X037930Y044297D02*
X038454Y044297D01*
X038422Y044139D02*
X037962Y044139D01*
X037941Y043980D02*
X038444Y043980D01*
X038532Y043822D02*
X037853Y043822D01*
X036685Y044614D02*
X043107Y044614D01*
X043107Y044456D02*
X039227Y044456D01*
X039330Y044297D02*
X043106Y044297D01*
X043106Y044139D02*
X039362Y044139D01*
X039341Y043980D02*
X043106Y043980D01*
X043466Y044297D02*
X043480Y044297D01*
X043467Y044456D02*
X043512Y044456D01*
X043543Y044614D02*
X043467Y044614D01*
X043467Y044773D02*
X043575Y044773D01*
X043607Y044931D02*
X043467Y044931D01*
X043467Y045090D02*
X043639Y045090D01*
X043671Y045248D02*
X043467Y045248D01*
X043467Y045407D02*
X043703Y045407D01*
X043735Y045565D02*
X043467Y045565D01*
X043468Y045724D02*
X043766Y045724D01*
X043798Y045882D02*
X043468Y045882D01*
X043468Y046041D02*
X043830Y046041D01*
X043862Y046199D02*
X043468Y046199D01*
X043468Y046358D02*
X043894Y046358D01*
X043926Y046516D02*
X043468Y046516D01*
X043468Y046675D02*
X043958Y046675D01*
X043989Y046833D02*
X043468Y046833D01*
X043469Y046992D02*
X044021Y046992D01*
X044053Y047150D02*
X043469Y047150D01*
X043469Y047309D02*
X044085Y047309D01*
X044117Y047467D02*
X043469Y047467D01*
X043536Y047626D02*
X044149Y047626D01*
X044181Y047784D02*
X043568Y047784D01*
X043500Y047943D02*
X044213Y047943D01*
X044244Y048101D02*
X042007Y048101D01*
X041984Y047943D02*
X043079Y047943D01*
X043010Y047784D02*
X041961Y047784D01*
X042012Y047626D02*
X043043Y047626D01*
X043109Y047467D02*
X042013Y047467D01*
X041902Y047309D02*
X043109Y047309D01*
X043109Y047150D02*
X039362Y047150D01*
X039345Y046992D02*
X043109Y046992D01*
X043108Y046833D02*
X039264Y046833D01*
X039031Y046675D02*
X043108Y046675D01*
X043108Y046516D02*
X039166Y046516D01*
X039305Y046358D02*
X043108Y046358D01*
X043108Y046199D02*
X039362Y046199D01*
X039362Y046041D02*
X043108Y046041D01*
X043108Y045882D02*
X039300Y045882D01*
X039150Y045724D02*
X043108Y045724D01*
X043107Y045565D02*
X039059Y045565D01*
X039276Y045407D02*
X043107Y045407D01*
X043107Y045248D02*
X039350Y045248D01*
X039362Y045090D02*
X043107Y045090D01*
X043107Y044931D02*
X039320Y044931D01*
X039204Y044773D02*
X043107Y044773D01*
X042734Y043029D02*
X039361Y043029D01*
X039295Y042871D02*
X042655Y042871D01*
X042576Y042712D02*
X039122Y042712D01*
X039087Y042554D02*
X042496Y042554D01*
X042417Y042395D02*
X039287Y042395D01*
X039355Y042237D02*
X042338Y042237D01*
X042258Y042078D02*
X039362Y042078D01*
X039315Y041920D02*
X042179Y041920D01*
X042100Y041761D02*
X039192Y041761D01*
X039241Y040810D02*
X041624Y040810D01*
X041502Y039523D02*
X041502Y039490D01*
X041502Y039464D01*
X041489Y039442D01*
X041494Y039424D01*
X041461Y039389D01*
X041502Y039523D01*
X042898Y036847D02*
X043466Y036847D01*
X043483Y036689D02*
X043023Y036689D01*
X042635Y036599D02*
X042619Y036620D01*
X042622Y036599D01*
X042635Y036599D01*
X042091Y035322D02*
X042091Y035322D01*
X042091Y035322D01*
X042005Y035266D02*
X042005Y035266D01*
X042000Y035262D02*
X044310Y035262D01*
X044317Y035246D02*
X044317Y035246D01*
X044317Y035246D01*
X044317Y035246D01*
X044352Y035104D02*
X041364Y035104D01*
X043271Y037006D02*
X043466Y037006D01*
X043494Y037164D02*
X043282Y037164D01*
X043282Y037323D02*
X043904Y037323D01*
X043466Y037481D02*
X043282Y037481D01*
X043282Y037640D02*
X043466Y037640D01*
X043454Y037798D02*
X043282Y037798D01*
X043259Y037957D02*
X043399Y037957D01*
X043449Y037812D02*
X043449Y037812D01*
X043790Y037927D02*
X043930Y037927D01*
X043914Y037955D01*
X043908Y037955D01*
X043805Y037998D01*
X043745Y038057D01*
X043790Y037927D01*
X043780Y037957D02*
X043903Y037957D01*
X043684Y038234D02*
X043341Y039228D01*
X043353Y039228D01*
X043901Y038510D01*
X043805Y038470D01*
X043727Y038392D01*
X043684Y038289D01*
X043684Y038234D01*
X043684Y038274D02*
X043671Y038274D01*
X043616Y038432D02*
X043768Y038432D01*
X043839Y038591D02*
X043561Y038591D01*
X043506Y038749D02*
X043718Y038749D01*
X043597Y038908D02*
X043452Y038908D01*
X043476Y039066D02*
X043397Y039066D01*
X043355Y039225D02*
X043342Y039225D01*
X045181Y038749D02*
X045559Y038749D01*
X045559Y038908D02*
X045311Y038908D01*
X045362Y039066D02*
X045559Y039066D01*
X045559Y039225D02*
X045360Y039225D01*
X045294Y039383D02*
X045559Y039383D01*
X045559Y040810D02*
X045241Y040810D01*
X045336Y040968D02*
X045559Y040968D01*
X045559Y041127D02*
X045362Y041127D01*
X045335Y041285D02*
X045559Y041285D01*
X045559Y041444D02*
X045238Y041444D01*
X045253Y043822D02*
X045559Y043822D01*
X045559Y043980D02*
X045341Y043980D01*
X045362Y044139D02*
X045559Y044139D01*
X045559Y044297D02*
X045330Y044297D01*
X044260Y048177D02*
X044260Y048177D01*
X044276Y048260D02*
X042031Y048260D01*
X042054Y048418D02*
X044334Y048418D01*
X044291Y048333D02*
X044291Y048333D01*
X044414Y048577D02*
X042077Y048577D01*
X042191Y048735D02*
X044494Y048735D01*
X044480Y048894D02*
X042213Y048894D01*
X042119Y049052D02*
X044422Y049052D01*
X045559Y050637D02*
X031172Y050637D01*
X031172Y050479D02*
X031180Y050479D01*
X031172Y049686D02*
X031325Y049686D01*
X031234Y049528D02*
X031172Y049528D01*
X031172Y052539D02*
X031262Y052539D01*
X031297Y052698D02*
X031172Y052698D01*
X031172Y053470D02*
X031172Y053499D01*
X031201Y053499D01*
X031172Y053470D01*
X031172Y053490D02*
X031192Y053490D01*
X034502Y047309D02*
X035709Y047309D01*
X035709Y047467D02*
X034613Y047467D01*
X034612Y047626D02*
X035643Y047626D01*
X035610Y047784D02*
X034561Y047784D01*
X034584Y047943D02*
X035679Y047943D01*
X036100Y047943D02*
X036813Y047943D01*
X036844Y048101D02*
X034607Y048101D01*
X034631Y048260D02*
X036876Y048260D01*
X036891Y048333D02*
X036891Y048333D01*
X036934Y048418D02*
X034654Y048418D01*
X034677Y048577D02*
X037014Y048577D01*
X037094Y048735D02*
X034791Y048735D01*
X034813Y048894D02*
X037080Y048894D01*
X037022Y049052D02*
X034719Y049052D01*
X036168Y047784D02*
X036781Y047784D01*
X036749Y047626D02*
X036136Y047626D01*
X036069Y047467D02*
X036717Y047467D01*
X036685Y047309D02*
X036069Y047309D01*
X036069Y047150D02*
X036653Y047150D01*
X036621Y046992D02*
X036069Y046992D01*
X036068Y046833D02*
X036589Y046833D01*
X036558Y046675D02*
X036068Y046675D01*
X036068Y046516D02*
X036526Y046516D01*
X036494Y046358D02*
X036068Y046358D01*
X036068Y046199D02*
X036462Y046199D01*
X036430Y046041D02*
X036068Y046041D01*
X036068Y045882D02*
X036398Y045882D01*
X036366Y045724D02*
X036068Y045724D01*
X036067Y045565D02*
X036335Y045565D01*
X036303Y045407D02*
X036067Y045407D01*
X036067Y045248D02*
X036271Y045248D01*
X036239Y045090D02*
X036067Y045090D01*
X036067Y044931D02*
X036207Y044931D01*
X036175Y044773D02*
X036067Y044773D01*
X036067Y044614D02*
X036143Y044614D01*
X036112Y044456D02*
X036067Y044456D01*
X036066Y044297D02*
X036080Y044297D01*
X037864Y046833D02*
X038520Y046833D01*
X038439Y046992D02*
X037945Y046992D01*
X037962Y047150D02*
X038422Y047150D01*
X038459Y047309D02*
X037925Y047309D01*
X037815Y047467D02*
X038569Y047467D01*
X038569Y047784D02*
X037815Y047784D01*
X037925Y047943D02*
X038459Y047943D01*
X038422Y048101D02*
X037962Y048101D01*
X037945Y048260D02*
X038439Y048260D01*
X038520Y048418D02*
X037864Y048418D01*
X037442Y047626D02*
X041476Y047626D01*
X041474Y047467D02*
X039215Y047467D01*
X039325Y047309D02*
X041585Y047309D01*
X041595Y047784D02*
X039215Y047784D01*
X039325Y047943D02*
X041620Y047943D01*
X041643Y048101D02*
X039362Y048101D01*
X039345Y048260D02*
X041667Y048260D01*
X041690Y048418D02*
X039264Y048418D01*
X039004Y051588D02*
X044780Y051588D01*
X044497Y052856D02*
X039287Y052856D01*
X039355Y053015D02*
X044429Y053015D01*
X044422Y053173D02*
X039362Y053173D01*
X039316Y053332D02*
X044469Y053332D01*
X044592Y053490D02*
X039192Y053490D01*
X036860Y048177D02*
X036860Y048177D01*
X043918Y036055D02*
X044122Y036055D01*
X044145Y035896D02*
X043918Y035896D01*
X043918Y035738D02*
X044168Y035738D01*
X044184Y035625D02*
X044184Y035625D01*
X044191Y035579D02*
X043918Y035579D01*
X043918Y035421D02*
X044240Y035421D01*
D32*
X046592Y042667D02*
X046587Y042672D01*
M02*
