%
M48
M72
T01C0.0236
T02C0.0315
T03C0.0394
%
T01
X2310Y4891
X2370Y4001
X4340Y6111
X4840Y6321
X5350Y6181
X6240Y5351
X6330Y4331
X5680Y4021
X5160Y8401
X5440Y9401
X5990Y9401
X4890Y10801
X4590Y10051
X4640Y12301
X4640Y14301
X4640Y15801
X4440Y16551
X3730Y18351
X4640Y19701
X5590Y18401
X6340Y18401
X6790Y18201
X7040Y19251
X2970Y12171
X2640Y13301
T02
X640Y13801
X640Y14801
X640Y15801
X640Y16801
X640Y17801
X640Y18801
X640Y19801
X640Y20801
X640Y21801
X640Y12801
X640Y11801
X640Y10801
X640Y9801
X640Y8801
X640Y7801
X8640Y7801
X8640Y8801
X8640Y9801
X8640Y10801
X8640Y11801
X8640Y12801
X8640Y13801
X8640Y14801
X8640Y15801
X8640Y16801
X8640Y17801
X8640Y18801
X8640Y19801
X8640Y20801
X8640Y21801
T03
X7640Y21801
X7640Y20801
X7640Y19801
X7640Y18801
X7640Y17801
X7640Y16801
X7640Y15801
X7640Y14801
X7640Y13801
X7640Y12801
X7640Y11801
X7640Y10801
X7640Y9801
X7640Y8801
X7640Y7801
X1640Y7801
X1640Y8801
X1640Y9801
X1640Y10801
X1640Y11801
X1640Y12801
X1640Y13801
X1640Y14801
X1640Y15801
X1640Y16801
X1640Y17801
X1640Y18801
X1640Y19801
X1640Y20801
X1640Y21801
M30
