G75*
%MOIN*%
%OFA0B0*%
%FSLAX25Y25*%
%IPPOS*%
%LPD*%
%AMOC8*
5,1,8,0,0,1.08239X$1,22.5*
%
%ADD10C,0.00000*%
%ADD11C,0.00300*%
%ADD12C,0.00400*%
%ADD13R,0.01063X0.00024*%
%ADD14R,0.00969X0.00024*%
%ADD15R,0.00874X0.00024*%
%ADD16R,0.00780X0.00024*%
%ADD17R,0.00661X0.00024*%
%ADD18R,0.00543X0.00024*%
%ADD19R,0.00307X0.00024*%
%ADD20C,0.00600*%
D10*
X0001400Y0028010D02*
X0001400Y0223010D01*
X0091400Y0223010D01*
X0091400Y0028010D01*
X0001400Y0028010D01*
D11*
X0019323Y0072098D02*
X0020691Y0072098D01*
X0020691Y0073467D01*
X0019323Y0074835D01*
X0020038Y0075550D02*
X0020722Y0076234D01*
X0020380Y0075892D02*
X0022432Y0073840D01*
X0022090Y0073498D02*
X0022774Y0074182D01*
X0023479Y0074887D02*
X0021427Y0076939D01*
X0024847Y0076255D01*
X0022795Y0078307D01*
X0023166Y0081971D02*
X0023650Y0082455D01*
X0023650Y0083422D01*
X0023166Y0083906D01*
X0022199Y0083906D01*
X0022199Y0082938D01*
X0023166Y0081971D02*
X0021231Y0081971D01*
X0020748Y0082455D01*
X0020748Y0083422D01*
X0021231Y0083906D01*
X0020748Y0084917D02*
X0023650Y0086852D01*
X0020748Y0086852D01*
X0020748Y0087864D02*
X0020748Y0089315D01*
X0021231Y0089799D01*
X0023166Y0089799D01*
X0023650Y0089315D01*
X0023650Y0087864D01*
X0020748Y0087864D01*
X0020748Y0084917D02*
X0023650Y0084917D01*
X0023183Y0094371D02*
X0023183Y0095822D01*
X0022699Y0096306D01*
X0021731Y0096306D01*
X0021248Y0095822D01*
X0021248Y0094371D01*
X0024150Y0094371D01*
X0023183Y0095338D02*
X0024150Y0096306D01*
X0023666Y0097317D02*
X0024150Y0097801D01*
X0024150Y0098769D01*
X0023666Y0099252D01*
X0023183Y0099252D01*
X0022699Y0098769D01*
X0022699Y0097801D01*
X0022215Y0097317D01*
X0021731Y0097317D01*
X0021248Y0097801D01*
X0021248Y0098769D01*
X0021731Y0099252D01*
X0021248Y0100264D02*
X0021248Y0102199D01*
X0021248Y0101231D02*
X0024150Y0101231D01*
X0023666Y0105371D02*
X0024150Y0105855D01*
X0024150Y0106822D01*
X0023666Y0107306D01*
X0022699Y0107306D01*
X0022215Y0106822D01*
X0022215Y0106338D01*
X0022699Y0105371D01*
X0021248Y0105371D01*
X0021248Y0107306D01*
X0021248Y0108317D02*
X0023183Y0108317D01*
X0024150Y0109285D01*
X0023183Y0110252D01*
X0021248Y0110252D01*
X0022215Y0114371D02*
X0021248Y0115338D01*
X0022215Y0116306D01*
X0024150Y0116306D01*
X0024150Y0117317D02*
X0023666Y0117317D01*
X0021731Y0119252D01*
X0021248Y0119252D01*
X0021248Y0117317D01*
X0022215Y0114371D02*
X0024150Y0114371D01*
X0022699Y0114371D02*
X0022699Y0116306D01*
X0022699Y0124871D02*
X0022699Y0126806D01*
X0022215Y0126806D02*
X0024150Y0126806D01*
X0023666Y0127817D02*
X0022699Y0127817D01*
X0022699Y0129269D01*
X0023183Y0129752D01*
X0023666Y0129752D01*
X0024150Y0129269D01*
X0024150Y0128301D01*
X0023666Y0127817D01*
X0022699Y0127817D02*
X0021731Y0128785D01*
X0021248Y0129752D01*
X0022215Y0126806D02*
X0021248Y0125838D01*
X0022215Y0124871D01*
X0024150Y0124871D01*
X0024250Y0134671D02*
X0022315Y0134671D01*
X0021348Y0135638D01*
X0022315Y0136606D01*
X0024250Y0136606D01*
X0023766Y0137617D02*
X0024250Y0138101D01*
X0024250Y0139069D01*
X0023766Y0139552D01*
X0022799Y0139552D01*
X0022315Y0139069D01*
X0022315Y0138585D01*
X0022799Y0137617D01*
X0021348Y0137617D01*
X0021348Y0139552D01*
X0022799Y0136606D02*
X0022799Y0134671D01*
X0022699Y0145371D02*
X0022699Y0147306D01*
X0022215Y0147306D02*
X0024150Y0147306D01*
X0022699Y0148317D02*
X0022699Y0150252D01*
X0024150Y0149769D02*
X0021248Y0149769D01*
X0022699Y0148317D01*
X0022215Y0147306D02*
X0021248Y0146338D01*
X0022215Y0145371D01*
X0024150Y0145371D01*
X0024150Y0155371D02*
X0022215Y0155371D01*
X0021248Y0156338D01*
X0022215Y0157306D01*
X0024150Y0157306D01*
X0023666Y0158317D02*
X0024150Y0158801D01*
X0024150Y0159769D01*
X0023666Y0160252D01*
X0023183Y0160252D01*
X0022699Y0159769D01*
X0022699Y0159285D01*
X0022699Y0159769D02*
X0022215Y0160252D01*
X0021731Y0160252D01*
X0021248Y0159769D01*
X0021248Y0158801D01*
X0021731Y0158317D01*
X0022699Y0157306D02*
X0022699Y0155371D01*
X0022699Y0165871D02*
X0022699Y0167806D01*
X0022215Y0167806D02*
X0024150Y0167806D01*
X0024150Y0168817D02*
X0022215Y0170752D01*
X0021731Y0170752D01*
X0021248Y0170269D01*
X0021248Y0169301D01*
X0021731Y0168817D01*
X0022215Y0167806D02*
X0021248Y0166838D01*
X0022215Y0165871D01*
X0024150Y0165871D01*
X0024150Y0168817D02*
X0024150Y0170752D01*
X0024150Y0175871D02*
X0022215Y0175871D01*
X0021248Y0176838D01*
X0022215Y0177806D01*
X0024150Y0177806D01*
X0024150Y0178817D02*
X0024150Y0180752D01*
X0024150Y0179785D02*
X0021248Y0179785D01*
X0022215Y0178817D01*
X0022699Y0177806D02*
X0022699Y0175871D01*
X0022699Y0185371D02*
X0022699Y0187306D01*
X0022215Y0187306D02*
X0024150Y0187306D01*
X0023666Y0188317D02*
X0021731Y0190252D01*
X0023666Y0190252D01*
X0024150Y0189769D01*
X0024150Y0188801D01*
X0023666Y0188317D01*
X0021731Y0188317D01*
X0021248Y0188801D01*
X0021248Y0189769D01*
X0021731Y0190252D01*
X0022215Y0187306D02*
X0021248Y0186338D01*
X0022215Y0185371D01*
X0024150Y0185371D01*
X0022742Y0193975D02*
X0022058Y0193975D01*
X0020690Y0195343D01*
X0020690Y0196027D01*
X0021374Y0196712D01*
X0022058Y0196712D01*
X0022742Y0196027D02*
X0022058Y0195343D01*
X0022742Y0196027D02*
X0023426Y0195343D01*
X0023426Y0194659D01*
X0022742Y0193975D01*
X0024484Y0195716D02*
X0022431Y0197769D01*
X0025852Y0197085D01*
X0023799Y0199137D01*
X0024515Y0199852D02*
X0025541Y0200879D01*
X0026225Y0200879D01*
X0027593Y0199510D01*
X0027593Y0198826D01*
X0026567Y0197800D01*
X0024515Y0199852D01*
X0021442Y0203075D02*
X0022126Y0203759D01*
X0022126Y0204443D01*
X0021784Y0204785D01*
X0021100Y0204785D01*
X0020758Y0204443D01*
X0021100Y0204785D02*
X0021100Y0205469D01*
X0020758Y0205812D01*
X0020074Y0205812D01*
X0019390Y0205127D01*
X0019390Y0204443D01*
X0020758Y0203075D02*
X0021442Y0203075D01*
X0022499Y0205501D02*
X0021131Y0206869D01*
X0022499Y0208237D02*
X0023868Y0206869D01*
X0023868Y0205501D01*
X0022499Y0205501D01*
X0023557Y0208610D02*
X0023557Y0209294D01*
X0024241Y0209979D01*
X0024925Y0209979D01*
X0025267Y0209636D01*
X0025267Y0208952D01*
X0025951Y0208952D01*
X0026293Y0208610D01*
X0026293Y0207926D01*
X0025609Y0207242D01*
X0024925Y0207242D01*
X0024925Y0208610D02*
X0025267Y0208952D01*
X0024350Y0213571D02*
X0024350Y0215022D01*
X0023866Y0215506D01*
X0021931Y0215506D01*
X0021448Y0215022D01*
X0021448Y0213571D01*
X0024350Y0213571D01*
X0024350Y0216517D02*
X0024350Y0218452D01*
X0024350Y0217485D02*
X0021448Y0217485D01*
X0022415Y0216517D01*
X0021931Y0219464D02*
X0021448Y0219948D01*
X0021448Y0220915D01*
X0021931Y0221399D01*
X0022415Y0221399D01*
X0022899Y0220915D01*
X0023383Y0221399D01*
X0023866Y0221399D01*
X0024350Y0220915D01*
X0024350Y0219948D01*
X0023866Y0219464D01*
X0022899Y0220431D02*
X0022899Y0220915D01*
X0063883Y0218370D02*
X0064995Y0217437D01*
X0065676Y0217497D01*
X0066920Y0218979D01*
X0066860Y0219661D01*
X0065749Y0220593D01*
X0063883Y0218370D01*
X0066140Y0216476D02*
X0067622Y0215232D01*
X0066881Y0215854D02*
X0068747Y0218077D01*
X0067384Y0217958D01*
X0068397Y0214582D02*
X0071123Y0214820D01*
X0071434Y0215191D01*
X0071375Y0215873D01*
X0070633Y0216494D01*
X0069952Y0216435D01*
X0068397Y0214582D02*
X0069879Y0213338D01*
X0068747Y0208777D02*
X0067384Y0208658D01*
X0066920Y0209679D02*
X0066860Y0210361D01*
X0065749Y0211293D01*
X0063883Y0209070D01*
X0064995Y0208137D01*
X0065676Y0208197D01*
X0066920Y0209679D01*
X0068747Y0208777D02*
X0066881Y0206554D01*
X0066140Y0207176D02*
X0067622Y0205932D01*
X0068397Y0205282D02*
X0069879Y0204038D01*
X0069138Y0204660D02*
X0071004Y0206883D01*
X0069641Y0206764D01*
X0065849Y0200993D02*
X0066960Y0200061D01*
X0067020Y0199379D01*
X0065776Y0197897D01*
X0065095Y0197837D01*
X0063983Y0198770D01*
X0065849Y0200993D01*
X0067484Y0198358D02*
X0068847Y0198477D01*
X0066981Y0196254D01*
X0066240Y0196876D02*
X0067722Y0195632D01*
X0068808Y0195353D02*
X0071534Y0195591D01*
X0070290Y0194109D01*
X0069609Y0194049D01*
X0068868Y0194671D01*
X0068808Y0195353D01*
X0070052Y0196835D01*
X0070733Y0196894D01*
X0071475Y0196273D01*
X0071534Y0195591D01*
X0070266Y0189552D02*
X0068331Y0189552D01*
X0067848Y0189069D01*
X0067848Y0188101D01*
X0068331Y0187617D01*
X0068815Y0187617D01*
X0069299Y0188101D01*
X0069299Y0189552D01*
X0070266Y0189552D02*
X0070750Y0189069D01*
X0070750Y0188101D01*
X0070266Y0187617D01*
X0070266Y0186606D02*
X0068331Y0186606D01*
X0067848Y0186122D01*
X0067848Y0184671D01*
X0070750Y0184671D01*
X0070750Y0186122D01*
X0070266Y0186606D01*
X0070266Y0180052D02*
X0069783Y0180052D01*
X0069299Y0179569D01*
X0069299Y0178601D01*
X0068815Y0178117D01*
X0068331Y0178117D01*
X0067848Y0178601D01*
X0067848Y0179569D01*
X0068331Y0180052D01*
X0068815Y0180052D01*
X0069299Y0179569D01*
X0069299Y0178601D02*
X0069783Y0178117D01*
X0070266Y0178117D01*
X0070750Y0178601D01*
X0070750Y0179569D01*
X0070266Y0180052D01*
X0070266Y0177106D02*
X0068331Y0177106D01*
X0067848Y0176622D01*
X0067848Y0175171D01*
X0070750Y0175171D01*
X0070750Y0176622D01*
X0070266Y0177106D01*
X0068631Y0171252D02*
X0070566Y0169317D01*
X0071050Y0169317D01*
X0070566Y0168306D02*
X0068631Y0168306D01*
X0068148Y0167822D01*
X0068148Y0166371D01*
X0071050Y0166371D01*
X0071050Y0167822D01*
X0070566Y0168306D01*
X0068631Y0171252D02*
X0068148Y0171252D01*
X0068148Y0169317D01*
X0068248Y0160052D02*
X0068731Y0159085D01*
X0069699Y0158117D01*
X0069699Y0159569D01*
X0070183Y0160052D01*
X0070666Y0160052D01*
X0071150Y0159569D01*
X0071150Y0158601D01*
X0070666Y0158117D01*
X0069699Y0158117D01*
X0070666Y0157106D02*
X0068731Y0157106D01*
X0068248Y0156622D01*
X0068248Y0155171D01*
X0071150Y0155171D01*
X0071150Y0156622D01*
X0070666Y0157106D01*
X0070666Y0149952D02*
X0069699Y0149952D01*
X0069215Y0149469D01*
X0069215Y0148985D01*
X0069699Y0148017D01*
X0068248Y0148017D01*
X0068248Y0149952D01*
X0068731Y0147006D02*
X0068248Y0146522D01*
X0068248Y0145071D01*
X0071150Y0145071D01*
X0071150Y0146522D01*
X0070666Y0147006D01*
X0068731Y0147006D01*
X0070666Y0148017D02*
X0071150Y0148501D01*
X0071150Y0149469D01*
X0070666Y0149952D01*
X0069599Y0140052D02*
X0069599Y0138117D01*
X0068148Y0139569D01*
X0071050Y0139569D01*
X0070566Y0137106D02*
X0068631Y0137106D01*
X0068148Y0136622D01*
X0068148Y0135171D01*
X0071050Y0135171D01*
X0071050Y0136622D01*
X0070566Y0137106D01*
X0070766Y0129952D02*
X0071250Y0129469D01*
X0071250Y0128501D01*
X0070766Y0128017D01*
X0070766Y0127006D02*
X0068831Y0127006D01*
X0068348Y0126522D01*
X0068348Y0125071D01*
X0071250Y0125071D01*
X0071250Y0126522D01*
X0070766Y0127006D01*
X0069799Y0128985D02*
X0069799Y0129469D01*
X0070283Y0129952D01*
X0070766Y0129952D01*
X0069799Y0129469D02*
X0069315Y0129952D01*
X0068831Y0129952D01*
X0068348Y0129469D01*
X0068348Y0128501D01*
X0068831Y0128017D01*
X0068631Y0120352D02*
X0068148Y0119869D01*
X0068148Y0118901D01*
X0068631Y0118417D01*
X0068631Y0117406D02*
X0068148Y0116922D01*
X0068148Y0115471D01*
X0071050Y0115471D01*
X0071050Y0116922D01*
X0070566Y0117406D01*
X0068631Y0117406D01*
X0071050Y0118417D02*
X0069115Y0120352D01*
X0068631Y0120352D01*
X0071050Y0120352D02*
X0071050Y0118417D01*
X0070466Y0110599D02*
X0068531Y0110599D01*
X0068048Y0110115D01*
X0068048Y0108664D01*
X0070950Y0108664D01*
X0070950Y0110115D01*
X0070466Y0110599D01*
X0070950Y0107652D02*
X0068048Y0107652D01*
X0068048Y0105717D02*
X0070950Y0107652D01*
X0070950Y0105717D02*
X0068048Y0105717D01*
X0068531Y0104706D02*
X0068048Y0104222D01*
X0068048Y0103255D01*
X0068531Y0102771D01*
X0070466Y0102771D01*
X0070950Y0103255D01*
X0070950Y0104222D01*
X0070466Y0104706D01*
X0069499Y0104706D01*
X0069499Y0103738D01*
X0070283Y0099252D02*
X0068348Y0099252D01*
X0068348Y0097317D02*
X0070283Y0097317D01*
X0071250Y0098285D01*
X0070283Y0099252D01*
X0069799Y0096306D02*
X0070766Y0096306D01*
X0071250Y0095822D01*
X0071250Y0094855D01*
X0070766Y0094371D01*
X0069799Y0094371D02*
X0069315Y0095338D01*
X0069315Y0095822D01*
X0069799Y0096306D01*
X0068348Y0096306D02*
X0068348Y0094371D01*
X0069799Y0094371D01*
X0070062Y0086574D02*
X0070746Y0083154D01*
X0070031Y0082438D02*
X0068663Y0082438D01*
X0069005Y0082781D02*
X0067979Y0081754D01*
X0068663Y0081070D02*
X0066610Y0083123D01*
X0067637Y0084149D01*
X0068321Y0084149D01*
X0069005Y0083465D01*
X0069005Y0082781D01*
X0068694Y0085206D02*
X0072114Y0084522D01*
X0070262Y0077874D02*
X0070946Y0074454D01*
X0069547Y0073054D02*
X0067494Y0075107D01*
X0066810Y0074423D02*
X0068179Y0075791D01*
X0068894Y0076506D02*
X0072314Y0075822D01*
X0072233Y0068495D02*
X0069764Y0068495D01*
X0069147Y0067878D01*
X0069147Y0066026D01*
X0072850Y0066026D01*
X0072850Y0067878D01*
X0072233Y0068495D01*
X0072850Y0064812D02*
X0069147Y0064812D01*
X0069147Y0062343D02*
X0072850Y0064812D01*
X0072850Y0062343D02*
X0069147Y0062343D01*
X0069764Y0061129D02*
X0069147Y0060511D01*
X0069147Y0059277D01*
X0069764Y0058660D01*
X0072233Y0058660D01*
X0072850Y0059277D01*
X0072850Y0060511D01*
X0072233Y0061129D01*
X0070998Y0061129D01*
X0070998Y0059894D01*
X0070798Y0054729D02*
X0070798Y0052877D01*
X0070181Y0052260D01*
X0069564Y0052260D01*
X0068947Y0052877D01*
X0068947Y0054111D01*
X0069564Y0054729D01*
X0072033Y0054729D01*
X0072650Y0054111D01*
X0072650Y0052877D01*
X0072033Y0052260D01*
X0071816Y0043929D02*
X0069347Y0043929D01*
X0069347Y0041460D02*
X0071816Y0041460D01*
X0073050Y0042694D01*
X0071816Y0043929D01*
X0072533Y0036712D02*
X0070064Y0036712D01*
X0072533Y0034243D01*
X0073150Y0034860D01*
X0073150Y0036095D01*
X0072533Y0036712D01*
X0072533Y0034243D02*
X0070064Y0034243D01*
X0069447Y0034860D01*
X0069447Y0036095D01*
X0070064Y0036712D01*
X0069447Y0031794D02*
X0073150Y0031794D01*
X0073150Y0030560D02*
X0073150Y0033029D01*
X0070681Y0030560D02*
X0069447Y0031794D01*
X0025753Y0042691D02*
X0023284Y0042691D01*
X0022050Y0043925D01*
X0023284Y0045160D01*
X0025753Y0045160D01*
X0024053Y0051291D02*
X0024053Y0053760D01*
X0022202Y0053760D01*
X0022819Y0052525D01*
X0022819Y0051908D01*
X0022202Y0051291D01*
X0020967Y0051291D01*
X0020350Y0051908D01*
X0020350Y0053143D01*
X0020967Y0053760D01*
X0021067Y0057925D02*
X0020450Y0058542D01*
X0020450Y0060394D01*
X0024153Y0060394D01*
X0024153Y0058542D01*
X0023536Y0057925D01*
X0021067Y0057925D01*
X0020450Y0061608D02*
X0024153Y0061608D01*
X0024153Y0064077D02*
X0020450Y0061608D01*
X0020450Y0064077D02*
X0024153Y0064077D01*
X0023536Y0065291D02*
X0024153Y0065908D01*
X0024153Y0067143D01*
X0023536Y0067760D01*
X0021067Y0067760D01*
X0020450Y0067143D01*
X0020450Y0065908D01*
X0021067Y0065291D01*
X0022302Y0065291D01*
X0022302Y0066525D01*
X0019323Y0072098D02*
X0017954Y0073467D01*
X0021867Y0034760D02*
X0021250Y0034143D01*
X0021250Y0032908D01*
X0021867Y0032291D01*
X0022484Y0032291D01*
X0023102Y0032908D01*
X0023102Y0034760D01*
X0021867Y0034760D01*
X0023102Y0034760D02*
X0024336Y0033525D01*
X0024953Y0032291D01*
D12*
X0030703Y0035714D02*
X0033773Y0035714D01*
X0033773Y0031110D01*
X0035307Y0031110D02*
X0036842Y0032644D01*
X0036074Y0032644D02*
X0038376Y0032644D01*
X0038376Y0031110D02*
X0038376Y0035714D01*
X0036074Y0035714D01*
X0035307Y0034946D01*
X0035307Y0033412D01*
X0036074Y0032644D01*
X0033773Y0033412D02*
X0032238Y0033412D01*
X0039911Y0033412D02*
X0042980Y0033412D01*
X0040678Y0035714D01*
X0040678Y0031110D01*
X0044515Y0031110D02*
X0047584Y0031110D01*
X0044515Y0034179D01*
X0044515Y0034946D01*
X0045282Y0035714D01*
X0046817Y0035714D01*
X0047584Y0034946D01*
X0049119Y0033412D02*
X0049119Y0031877D01*
X0049886Y0031110D01*
X0051421Y0031110D01*
X0052188Y0031877D01*
X0052188Y0033412D01*
X0051421Y0034179D01*
X0049886Y0034179D01*
X0049119Y0033412D01*
X0053723Y0033412D02*
X0053723Y0031110D01*
X0053723Y0033412D02*
X0054490Y0034179D01*
X0056792Y0034179D01*
X0056792Y0031110D01*
X0058327Y0031110D02*
X0060629Y0031110D01*
X0061396Y0031877D01*
X0060629Y0032644D01*
X0058327Y0032644D01*
X0058327Y0033412D02*
X0058327Y0031110D01*
X0058327Y0033412D02*
X0059094Y0034179D01*
X0060629Y0034179D01*
X0062931Y0033412D02*
X0062931Y0031110D01*
X0062931Y0033412D02*
X0063698Y0034179D01*
X0066000Y0034179D01*
X0066000Y0031110D01*
X0064619Y0058379D02*
X0064619Y0062983D01*
X0062317Y0060681D01*
X0065387Y0060681D01*
X0060783Y0061448D02*
X0060783Y0062216D01*
X0060015Y0062983D01*
X0058481Y0062983D01*
X0057713Y0062216D01*
X0056179Y0062983D02*
X0053109Y0062983D01*
X0053109Y0058379D01*
X0051575Y0058379D02*
X0050040Y0059914D01*
X0050807Y0059914D02*
X0048506Y0059914D01*
X0048506Y0058379D02*
X0048506Y0062983D01*
X0050807Y0062983D01*
X0051575Y0062216D01*
X0051575Y0060681D01*
X0050807Y0059914D01*
X0053109Y0060681D02*
X0054644Y0060681D01*
X0057713Y0058379D02*
X0060783Y0061448D01*
X0060783Y0058379D02*
X0057713Y0058379D01*
X0057224Y0217210D02*
X0057224Y0221814D01*
X0059526Y0221814D01*
X0060293Y0221046D01*
X0060293Y0219512D01*
X0059526Y0218744D01*
X0057224Y0218744D01*
X0058758Y0218744D02*
X0060293Y0217210D01*
X0061827Y0217210D02*
X0061827Y0221814D01*
X0064897Y0221814D01*
X0063362Y0219512D02*
X0061827Y0219512D01*
X0055689Y0219512D02*
X0052620Y0219512D01*
X0054922Y0221814D01*
X0054922Y0217210D01*
X0051085Y0217210D02*
X0048016Y0217210D01*
X0051085Y0220279D01*
X0051085Y0221046D01*
X0050318Y0221814D01*
X0048783Y0221814D01*
X0048016Y0221046D01*
X0046481Y0219512D02*
X0046481Y0217977D01*
X0045714Y0217210D01*
X0044179Y0217210D01*
X0043412Y0217977D01*
X0043412Y0219512D01*
X0044179Y0220279D01*
X0045714Y0220279D01*
X0046481Y0219512D01*
X0041877Y0219512D02*
X0041877Y0217210D01*
X0041877Y0219512D02*
X0041110Y0220279D01*
X0038808Y0220279D01*
X0038808Y0217210D01*
X0037273Y0217210D02*
X0034971Y0217210D01*
X0034204Y0217977D01*
X0034971Y0218744D01*
X0037273Y0218744D01*
X0037273Y0219512D02*
X0037273Y0217210D01*
X0037273Y0219512D02*
X0036506Y0220279D01*
X0034971Y0220279D01*
X0032669Y0219512D02*
X0032669Y0217210D01*
X0032669Y0219512D02*
X0031902Y0220279D01*
X0029600Y0220279D01*
X0029600Y0217210D01*
D13*
X0042001Y0206791D03*
D14*
X0042024Y0206815D03*
D15*
X0042024Y0206838D03*
D16*
X0042024Y0206862D03*
D17*
X0042013Y0206885D03*
D18*
X0042001Y0206909D03*
D19*
X0041977Y0206933D03*
D20*
X0037581Y0207648D02*
X0035219Y0207648D01*
X0035219Y0212372D02*
X0037581Y0212372D01*
X0037618Y0197610D02*
X0035237Y0197610D01*
X0030209Y0196578D02*
X0030209Y0192410D01*
X0030652Y0177006D02*
X0030652Y0159014D01*
X0032224Y0166041D02*
X0036400Y0166041D01*
X0032224Y0170217D01*
X0040576Y0170217D01*
X0036400Y0166041D01*
X0040576Y0166041D01*
X0042148Y0159014D02*
X0042148Y0177006D01*
X0042591Y0192410D02*
X0042591Y0196578D01*
X0050209Y0196578D02*
X0050209Y0192410D01*
X0055237Y0197610D02*
X0057618Y0197610D01*
X0062591Y0196578D02*
X0062591Y0192410D01*
X0062148Y0177006D02*
X0062148Y0159014D01*
X0060576Y0166041D02*
X0056400Y0166041D01*
X0052224Y0170217D01*
X0060576Y0170217D01*
X0056400Y0166041D01*
X0052224Y0166041D01*
X0050652Y0159014D02*
X0050652Y0177006D01*
X0055219Y0150372D02*
X0057581Y0150372D01*
X0057581Y0145648D02*
X0055219Y0145648D01*
X0055237Y0135610D02*
X0057618Y0135610D01*
X0062591Y0134578D02*
X0062591Y0130410D01*
X0062148Y0117006D02*
X0062148Y0099014D01*
X0060576Y0106041D02*
X0056400Y0106041D01*
X0052224Y0110217D01*
X0060576Y0110217D01*
X0056400Y0106041D01*
X0052224Y0106041D01*
X0050652Y0099014D02*
X0050652Y0117006D01*
X0050209Y0130410D02*
X0050209Y0134578D01*
X0042591Y0134578D02*
X0042591Y0130410D01*
X0037618Y0135610D02*
X0035237Y0135610D01*
X0035219Y0145648D02*
X0037581Y0145648D01*
X0037581Y0150372D02*
X0035219Y0150372D01*
X0030209Y0134578D02*
X0030209Y0130410D01*
X0030652Y0117006D02*
X0030652Y0099014D01*
X0032224Y0106041D02*
X0036400Y0106041D01*
X0032224Y0110217D01*
X0040576Y0110217D01*
X0036400Y0106041D01*
X0040576Y0106041D01*
X0042148Y0099014D02*
X0042148Y0117006D01*
X0055219Y0207648D02*
X0057581Y0207648D01*
X0057581Y0212372D02*
X0055219Y0212372D01*
M02*
