G75*
%MOIN*%
%OFA0B0*%
%FSLAX25Y25*%
%IPPOS*%
%LPD*%
%AMOC8*
5,1,8,0,0,1.08239X$1,22.5*
%
%ADD10C,0.00000*%
%ADD11C,0.07100*%
%ADD12C,0.05224*%
%ADD13C,0.04262*%
D10*
X0001400Y0028010D02*
X0001400Y0223010D01*
X0091400Y0223010D01*
X0091400Y0028010D01*
X0001400Y0028010D01*
D11*
X0016400Y0078010D03*
X0016400Y0088010D03*
X0016400Y0098010D03*
X0016400Y0108010D03*
X0016400Y0118010D03*
X0016400Y0128010D03*
X0016400Y0138010D03*
X0016400Y0148010D03*
X0016400Y0158010D03*
X0016400Y0168010D03*
X0016400Y0178010D03*
X0016400Y0188010D03*
X0016400Y0198010D03*
X0016400Y0208010D03*
X0016400Y0218010D03*
X0076400Y0218010D03*
X0076400Y0208010D03*
X0076400Y0198010D03*
X0076400Y0188010D03*
X0076400Y0178010D03*
X0076400Y0168010D03*
X0076400Y0158010D03*
X0076400Y0148010D03*
X0076400Y0138010D03*
X0076400Y0128010D03*
X0076400Y0118010D03*
X0076400Y0108010D03*
X0076400Y0098010D03*
X0076400Y0088010D03*
X0076400Y0078010D03*
D12*
X0081676Y0078010D02*
X0086400Y0078010D01*
X0086400Y0088010D02*
X0081676Y0088010D01*
X0081676Y0098010D02*
X0086400Y0098010D01*
X0086400Y0108010D02*
X0081676Y0108010D01*
X0081676Y0118010D02*
X0086400Y0118010D01*
X0086400Y0128010D02*
X0081676Y0128010D01*
X0081676Y0138010D02*
X0086400Y0138010D01*
X0086400Y0148010D02*
X0081676Y0148010D01*
X0081676Y0158010D02*
X0086400Y0158010D01*
X0086400Y0168010D02*
X0081676Y0168010D01*
X0081676Y0178010D02*
X0086400Y0178010D01*
X0086400Y0188010D02*
X0081676Y0188010D01*
X0081676Y0198010D02*
X0086400Y0198010D01*
X0086400Y0208010D02*
X0081676Y0208010D01*
X0081676Y0218010D02*
X0086400Y0218010D01*
X0011124Y0218010D02*
X0006400Y0218010D01*
X0006400Y0208010D02*
X0011124Y0208010D01*
X0011124Y0198010D02*
X0006400Y0198010D01*
X0006400Y0188010D02*
X0011124Y0188010D01*
X0011124Y0178010D02*
X0006400Y0178010D01*
X0006400Y0168010D02*
X0011124Y0168010D01*
X0011124Y0158010D02*
X0006400Y0158010D01*
X0006400Y0148010D02*
X0011124Y0148010D01*
X0011124Y0138010D02*
X0006400Y0138010D01*
X0006400Y0128010D02*
X0011124Y0128010D01*
X0011124Y0118010D02*
X0006400Y0118010D01*
X0006400Y0108010D02*
X0011124Y0108010D01*
X0011124Y0098010D02*
X0006400Y0098010D01*
X0006400Y0088010D02*
X0011124Y0088010D01*
X0011124Y0078010D02*
X0006400Y0078010D01*
D13*
X0023100Y0048910D03*
X0023700Y0040010D03*
X0043400Y0061110D03*
X0048400Y0063210D03*
X0053500Y0061810D03*
X0062400Y0053510D03*
X0063300Y0043310D03*
X0056800Y0040210D03*
X0051600Y0084010D03*
X0054400Y0094010D03*
X0059900Y0094010D03*
X0048900Y0108010D03*
X0045900Y0100510D03*
X0046400Y0123010D03*
X0046400Y0143010D03*
X0046400Y0158010D03*
X0044400Y0165510D03*
X0037300Y0183510D03*
X0046400Y0197010D03*
X0055900Y0184010D03*
X0063400Y0184010D03*
X0067900Y0182010D03*
X0070400Y0192510D03*
X0029700Y0121710D03*
X0026400Y0133010D03*
M02*
