G75*
%MOIN*%
%OFA0B0*%
%FSLAX25Y25*%
%IPPOS*%
%LPD*%
%AMOC8*
5,1,8,0,0,1.08239X$1,22.5*
%
%ADD10C,0.00000*%
%ADD11R,0.08268X0.05000*%
%ADD12C,0.06600*%
%ADD13R,0.11024X0.05512*%
%ADD14R,0.04724X0.05512*%
%ADD15R,0.03150X0.04724*%
%ADD16R,0.16000X0.08000*%
%ADD17R,0.03543X0.09843*%
%ADD18C,0.04724*%
%ADD19C,0.00800*%
%ADD20C,0.03762*%
%ADD21C,0.01600*%
%ADD22C,0.01200*%
%ADD23C,0.04000*%
%ADD24C,0.01000*%
%ADD25C,0.03200*%
D10*
X0001400Y0028010D02*
X0001400Y0223010D01*
X0091400Y0223010D01*
X0091400Y0028010D01*
X0001400Y0028010D01*
D11*
X0036400Y0100215D03*
X0036400Y0115805D03*
X0036400Y0160215D03*
X0036400Y0175805D03*
X0056400Y0175805D03*
X0056400Y0160215D03*
X0056400Y0115805D03*
X0056400Y0100215D03*
D12*
X0076400Y0098010D03*
X0076400Y0108010D03*
X0076400Y0118010D03*
X0076400Y0128010D03*
X0076400Y0138010D03*
X0076400Y0148010D03*
X0076400Y0158010D03*
X0076400Y0168010D03*
X0076400Y0178010D03*
X0076400Y0188010D03*
X0076400Y0198010D03*
X0076400Y0208010D03*
X0076400Y0218010D03*
X0076400Y0088010D03*
X0076400Y0078010D03*
X0016400Y0078010D03*
X0016400Y0088010D03*
X0016400Y0098010D03*
X0016400Y0108010D03*
X0016400Y0118010D03*
X0016400Y0128010D03*
X0016400Y0138010D03*
X0016400Y0148010D03*
X0016400Y0158010D03*
X0016400Y0168010D03*
X0016400Y0178010D03*
X0016400Y0188010D03*
X0016400Y0198010D03*
X0016400Y0208010D03*
X0016400Y0218010D03*
D13*
X0036400Y0189892D03*
X0056400Y0189892D03*
X0056400Y0127892D03*
X0036400Y0127892D03*
D14*
X0032069Y0138128D03*
X0040731Y0138128D03*
X0052069Y0138128D03*
X0060731Y0138128D03*
X0060731Y0200128D03*
X0052069Y0200128D03*
X0040731Y0200128D03*
X0032069Y0200128D03*
D15*
X0032857Y0210010D03*
X0039943Y0210010D03*
X0052857Y0210010D03*
X0059943Y0210010D03*
X0059943Y0148010D03*
X0052857Y0148010D03*
X0039943Y0148010D03*
X0032857Y0148010D03*
D16*
X0011300Y0063010D03*
X0011300Y0053010D03*
X0011300Y0043010D03*
X0011300Y0033010D03*
X0082700Y0033410D03*
X0082700Y0043410D03*
X0082700Y0053410D03*
X0082700Y0063410D03*
D17*
X0063502Y0071762D03*
X0058502Y0071762D03*
X0053502Y0071762D03*
X0048502Y0071762D03*
X0043502Y0071762D03*
X0038502Y0071762D03*
X0033502Y0071762D03*
D18*
X0011124Y0078010D02*
X0006400Y0078010D01*
X0006400Y0088010D02*
X0011124Y0088010D01*
X0011124Y0098010D02*
X0006400Y0098010D01*
X0006400Y0108010D02*
X0011124Y0108010D01*
X0011124Y0118010D02*
X0006400Y0118010D01*
X0006400Y0128010D02*
X0011124Y0128010D01*
X0011124Y0138010D02*
X0006400Y0138010D01*
X0006400Y0148010D02*
X0011124Y0148010D01*
X0011124Y0158010D02*
X0006400Y0158010D01*
X0006400Y0168010D02*
X0011124Y0168010D01*
X0011124Y0178010D02*
X0006400Y0178010D01*
X0006400Y0188010D02*
X0011124Y0188010D01*
X0011124Y0198010D02*
X0006400Y0198010D01*
X0006400Y0208010D02*
X0011124Y0208010D01*
X0011124Y0218010D02*
X0006400Y0218010D01*
X0081676Y0218010D02*
X0086400Y0218010D01*
X0086400Y0208010D02*
X0081676Y0208010D01*
X0081676Y0198010D02*
X0086400Y0198010D01*
X0086400Y0188010D02*
X0081676Y0188010D01*
X0081676Y0178010D02*
X0086400Y0178010D01*
X0086400Y0168010D02*
X0081676Y0168010D01*
X0081676Y0158010D02*
X0086400Y0158010D01*
X0086400Y0148010D02*
X0081676Y0148010D01*
X0081676Y0138010D02*
X0086400Y0138010D01*
X0086400Y0128010D02*
X0081676Y0128010D01*
X0081676Y0118010D02*
X0086400Y0118010D01*
X0086400Y0108010D02*
X0081676Y0108010D01*
X0081676Y0098010D02*
X0086400Y0098010D01*
X0086400Y0088010D02*
X0081676Y0088010D01*
X0081676Y0078010D02*
X0086400Y0078010D01*
D19*
X0087069Y0081372D02*
X0081007Y0081372D01*
X0080132Y0081010D01*
X0079481Y0081010D01*
X0078836Y0081655D01*
X0077255Y0082310D01*
X0075545Y0082310D01*
X0073964Y0081655D01*
X0072755Y0080446D01*
X0072100Y0078865D01*
X0072100Y0077155D01*
X0072755Y0075574D01*
X0073964Y0074364D01*
X0075545Y0073710D01*
X0077255Y0073710D01*
X0078836Y0074364D01*
X0079481Y0075010D01*
X0080132Y0075010D01*
X0081007Y0074648D01*
X0087069Y0074648D01*
X0088305Y0075159D01*
X0089250Y0076105D01*
X0089500Y0076708D01*
X0089500Y0068810D01*
X0083100Y0068810D01*
X0083100Y0063810D01*
X0082300Y0063810D01*
X0082300Y0068810D01*
X0074516Y0068810D01*
X0074160Y0068714D01*
X0073840Y0068530D01*
X0073580Y0068269D01*
X0073395Y0067950D01*
X0073300Y0067594D01*
X0073300Y0063810D01*
X0082300Y0063810D01*
X0082300Y0063010D01*
X0073300Y0063010D01*
X0073300Y0059226D01*
X0073395Y0058869D01*
X0073580Y0058550D01*
X0073840Y0058290D01*
X0074047Y0058171D01*
X0073700Y0057824D01*
X0073700Y0055310D01*
X0064674Y0055310D01*
X0064032Y0055952D01*
X0062973Y0056391D01*
X0061827Y0056391D01*
X0060768Y0055952D01*
X0059958Y0055142D01*
X0059519Y0054083D01*
X0059519Y0052937D01*
X0059958Y0051878D01*
X0060768Y0051067D01*
X0061827Y0050629D01*
X0062973Y0050629D01*
X0064032Y0051067D01*
X0064674Y0051710D01*
X0073700Y0051710D01*
X0073700Y0048996D01*
X0074286Y0048410D01*
X0073700Y0047824D01*
X0073700Y0045963D01*
X0064536Y0045916D01*
X0063873Y0046191D01*
X0062727Y0046191D01*
X0061668Y0045752D01*
X0060858Y0044942D01*
X0060419Y0043883D01*
X0060419Y0042737D01*
X0060858Y0041678D01*
X0061668Y0040867D01*
X0062727Y0040429D01*
X0063873Y0040429D01*
X0064567Y0040716D01*
X0073700Y0040763D01*
X0073700Y0038996D01*
X0074286Y0038410D01*
X0073700Y0037824D01*
X0073700Y0036474D01*
X0059506Y0041205D01*
X0059242Y0041842D01*
X0058432Y0042652D01*
X0057373Y0043091D01*
X0056227Y0043091D01*
X0055168Y0042652D01*
X0054358Y0041842D01*
X0053919Y0040783D01*
X0053919Y0039637D01*
X0054358Y0038578D01*
X0055168Y0037767D01*
X0056227Y0037329D01*
X0057373Y0037329D01*
X0058432Y0037767D01*
X0058433Y0037768D01*
X0073700Y0032679D01*
X0073700Y0029910D01*
X0020300Y0029910D01*
X0020300Y0030939D01*
X0021085Y0030915D01*
X0021658Y0030795D01*
X0021810Y0030894D01*
X0021991Y0030888D01*
X0022417Y0031289D01*
X0028435Y0035210D01*
X0028646Y0035210D01*
X0029040Y0035604D01*
X0029507Y0035909D01*
X0029551Y0036115D01*
X0029700Y0036264D01*
X0029700Y0036822D01*
X0029815Y0037368D01*
X0029700Y0037544D01*
X0029700Y0103273D01*
X0035557Y0108210D01*
X0044146Y0108210D01*
X0045200Y0109264D01*
X0045200Y0109264D01*
X0049646Y0113710D01*
X0051266Y0113710D01*
X0051266Y0112891D01*
X0051852Y0112305D01*
X0060948Y0112305D01*
X0061534Y0112891D01*
X0061534Y0118719D01*
X0060948Y0119305D01*
X0058200Y0119305D01*
X0058200Y0124136D01*
X0062326Y0124136D01*
X0062912Y0124722D01*
X0062912Y0131062D01*
X0062364Y0131610D01*
X0064480Y0131610D01*
X0066980Y0134110D01*
X0067800Y0134930D01*
X0067800Y0142430D01*
X0069480Y0144110D01*
X0074480Y0144110D01*
X0074509Y0144139D01*
X0075545Y0143710D01*
X0077255Y0143710D01*
X0078836Y0144364D01*
X0079481Y0145010D01*
X0080132Y0145010D01*
X0081007Y0144648D01*
X0087069Y0144648D01*
X0088305Y0145159D01*
X0089250Y0146105D01*
X0089500Y0146708D01*
X0089500Y0139312D01*
X0089250Y0139914D01*
X0088305Y0140860D01*
X0087069Y0141372D01*
X0081007Y0141372D01*
X0080132Y0141010D01*
X0079481Y0141010D01*
X0078836Y0141655D01*
X0077255Y0142310D01*
X0075545Y0142310D01*
X0073964Y0141655D01*
X0072755Y0140446D01*
X0072100Y0138865D01*
X0072100Y0137155D01*
X0072755Y0135574D01*
X0073964Y0134364D01*
X0075545Y0133710D01*
X0077255Y0133710D01*
X0078836Y0134364D01*
X0079481Y0135010D01*
X0080132Y0135010D01*
X0081007Y0134648D01*
X0087069Y0134648D01*
X0088305Y0135159D01*
X0089250Y0136105D01*
X0089500Y0136708D01*
X0089500Y0129312D01*
X0089250Y0129914D01*
X0088305Y0130860D01*
X0087069Y0131372D01*
X0081007Y0131372D01*
X0080132Y0131010D01*
X0079481Y0131010D01*
X0078836Y0131655D01*
X0077255Y0132310D01*
X0075545Y0132310D01*
X0073964Y0131655D01*
X0072755Y0130446D01*
X0072100Y0128865D01*
X0072100Y0127155D01*
X0072755Y0125574D01*
X0073964Y0124364D01*
X0075545Y0123710D01*
X0077255Y0123710D01*
X0078836Y0124364D01*
X0079481Y0125010D01*
X0080132Y0125010D01*
X0081007Y0124648D01*
X0087069Y0124648D01*
X0088305Y0125159D01*
X0089250Y0126105D01*
X0089500Y0126708D01*
X0089500Y0119312D01*
X0089250Y0119914D01*
X0088305Y0120860D01*
X0087069Y0121372D01*
X0081007Y0121372D01*
X0080132Y0121010D01*
X0079481Y0121010D01*
X0078836Y0121655D01*
X0077255Y0122310D01*
X0075545Y0122310D01*
X0073964Y0121655D01*
X0072755Y0120446D01*
X0072100Y0118865D01*
X0072100Y0117155D01*
X0072755Y0115574D01*
X0073964Y0114364D01*
X0075545Y0113710D01*
X0077255Y0113710D01*
X0078836Y0114364D01*
X0079481Y0115010D01*
X0080132Y0115010D01*
X0081007Y0114648D01*
X0087069Y0114648D01*
X0088305Y0115159D01*
X0089250Y0116105D01*
X0089500Y0116708D01*
X0089500Y0110142D01*
X0089322Y0110408D01*
X0088798Y0110932D01*
X0088182Y0111344D01*
X0087497Y0111627D01*
X0086787Y0111769D01*
X0086787Y0108397D01*
X0086013Y0108397D01*
X0086013Y0111772D01*
X0081305Y0111772D01*
X0080578Y0111627D01*
X0079894Y0111344D01*
X0079785Y0111271D01*
X0079462Y0111595D01*
X0078863Y0112030D01*
X0078204Y0112365D01*
X0077501Y0112594D01*
X0076800Y0112705D01*
X0076800Y0108410D01*
X0076000Y0108410D01*
X0076000Y0112705D01*
X0075299Y0112594D01*
X0074596Y0112365D01*
X0073937Y0112030D01*
X0073338Y0111595D01*
X0072815Y0111072D01*
X0072380Y0110473D01*
X0072044Y0109814D01*
X0071816Y0109110D01*
X0071705Y0108410D01*
X0076000Y0108410D01*
X0076000Y0107610D01*
X0071705Y0107610D01*
X0071816Y0106909D01*
X0072044Y0106206D01*
X0072380Y0105547D01*
X0072815Y0104948D01*
X0073338Y0104425D01*
X0073937Y0103990D01*
X0074596Y0103654D01*
X0075299Y0103426D01*
X0076000Y0103315D01*
X0076000Y0107610D01*
X0076800Y0107610D01*
X0076800Y0108410D01*
X0077919Y0108410D01*
X0077917Y0108397D01*
X0086013Y0108397D01*
X0086013Y0107622D01*
X0086787Y0107622D01*
X0086787Y0104251D01*
X0087497Y0104392D01*
X0088182Y0104676D01*
X0088798Y0105088D01*
X0089322Y0105612D01*
X0089500Y0105878D01*
X0089500Y0099312D01*
X0089250Y0099914D01*
X0088305Y0100860D01*
X0087069Y0101372D01*
X0081007Y0101372D01*
X0080132Y0101010D01*
X0079481Y0101010D01*
X0078836Y0101655D01*
X0077255Y0102310D01*
X0075545Y0102310D01*
X0073964Y0101655D01*
X0072755Y0100446D01*
X0072100Y0098865D01*
X0072100Y0097155D01*
X0072755Y0095574D01*
X0073964Y0094364D01*
X0075545Y0093710D01*
X0077255Y0093710D01*
X0078836Y0094364D01*
X0079481Y0095010D01*
X0080132Y0095010D01*
X0081007Y0094648D01*
X0087069Y0094648D01*
X0088305Y0095159D01*
X0089250Y0096105D01*
X0089500Y0096708D01*
X0089500Y0089312D01*
X0089250Y0089914D01*
X0088305Y0090860D01*
X0087069Y0091372D01*
X0081007Y0091372D01*
X0080132Y0091010D01*
X0079481Y0091010D01*
X0078836Y0091655D01*
X0077255Y0092310D01*
X0075545Y0092310D01*
X0073964Y0091655D01*
X0072755Y0090446D01*
X0072100Y0088865D01*
X0072100Y0087155D01*
X0072755Y0085574D01*
X0073964Y0084364D01*
X0075545Y0083710D01*
X0077255Y0083710D01*
X0078836Y0084364D01*
X0079481Y0085010D01*
X0080132Y0085010D01*
X0081007Y0084648D01*
X0087069Y0084648D01*
X0088305Y0085159D01*
X0089250Y0086105D01*
X0089500Y0086708D01*
X0089500Y0079312D01*
X0089250Y0079914D01*
X0088305Y0080860D01*
X0087069Y0081372D01*
X0088453Y0080712D02*
X0089500Y0080712D01*
X0089500Y0081510D02*
X0078981Y0081510D01*
X0077728Y0083906D02*
X0089500Y0083906D01*
X0089500Y0084704D02*
X0087205Y0084704D01*
X0088648Y0085503D02*
X0089500Y0085503D01*
X0089500Y0086301D02*
X0089331Y0086301D01*
X0089500Y0083107D02*
X0058488Y0083107D01*
X0059155Y0079913D02*
X0041914Y0079913D01*
X0042376Y0080712D02*
X0056848Y0080712D01*
X0056546Y0078083D02*
X0056190Y0077988D01*
X0055871Y0077803D01*
X0055720Y0077652D01*
X0055688Y0077683D01*
X0051316Y0077683D01*
X0051002Y0077369D01*
X0050688Y0077683D01*
X0046316Y0077683D01*
X0046002Y0077369D01*
X0045688Y0077683D01*
X0041316Y0077683D01*
X0041002Y0077369D01*
X0040688Y0077683D01*
X0040624Y0077683D01*
X0047407Y0089410D01*
X0058326Y0089410D01*
X0058610Y0089295D01*
X0058883Y0089410D01*
X0059180Y0089410D01*
X0059397Y0089626D01*
X0059679Y0089746D01*
X0059790Y0090020D01*
X0060000Y0090230D01*
X0060000Y0090536D01*
X0060241Y0091129D01*
X0060473Y0091129D01*
X0061532Y0091567D01*
X0062342Y0092378D01*
X0062781Y0093437D01*
X0062781Y0094583D01*
X0062342Y0095642D01*
X0061532Y0096452D01*
X0060899Y0096715D01*
X0060948Y0096715D01*
X0061534Y0097300D01*
X0061534Y0103129D01*
X0060948Y0103715D01*
X0051852Y0103715D01*
X0051266Y0103129D01*
X0051266Y0101815D01*
X0048478Y0101815D01*
X0048342Y0102142D01*
X0047532Y0102952D01*
X0046473Y0103391D01*
X0045327Y0103391D01*
X0044268Y0102952D01*
X0043458Y0102142D01*
X0043322Y0101815D01*
X0041534Y0101815D01*
X0041534Y0103129D01*
X0040948Y0103715D01*
X0031852Y0103715D01*
X0031266Y0103129D01*
X0031266Y0097300D01*
X0031852Y0096715D01*
X0040948Y0096715D01*
X0041534Y0097300D01*
X0041534Y0098615D01*
X0043721Y0098615D01*
X0044268Y0098067D01*
X0045327Y0097629D01*
X0046473Y0097629D01*
X0047532Y0098067D01*
X0048079Y0098615D01*
X0051266Y0098615D01*
X0051266Y0097300D01*
X0051852Y0096715D01*
X0053401Y0096715D01*
X0052768Y0096452D01*
X0051958Y0095642D01*
X0051861Y0095410D01*
X0045324Y0095410D01*
X0045194Y0095496D01*
X0044761Y0095410D01*
X0044320Y0095410D01*
X0044210Y0095299D01*
X0044057Y0095269D01*
X0043812Y0094902D01*
X0043500Y0094590D01*
X0043500Y0094434D01*
X0032629Y0078126D01*
X0032325Y0077843D01*
X0032319Y0077683D01*
X0031316Y0077683D01*
X0030731Y0077097D01*
X0030731Y0066426D01*
X0031316Y0065841D01*
X0035688Y0065841D01*
X0036002Y0066155D01*
X0036316Y0065841D01*
X0040688Y0065841D01*
X0041002Y0066155D01*
X0041316Y0065841D01*
X0042101Y0065841D01*
X0042100Y0063690D01*
X0041768Y0063552D01*
X0040958Y0062742D01*
X0040519Y0061683D01*
X0040519Y0060537D01*
X0040958Y0059478D01*
X0041768Y0058667D01*
X0042827Y0058229D01*
X0043973Y0058229D01*
X0045032Y0058667D01*
X0045842Y0059478D01*
X0046281Y0060537D01*
X0046281Y0061254D01*
X0046768Y0060767D01*
X0047827Y0060329D01*
X0048973Y0060329D01*
X0050032Y0060767D01*
X0050619Y0061354D01*
X0050619Y0061237D01*
X0051058Y0060178D01*
X0051868Y0059367D01*
X0052927Y0058929D01*
X0054073Y0058929D01*
X0055132Y0059367D01*
X0055942Y0060178D01*
X0056381Y0061237D01*
X0056381Y0062383D01*
X0055942Y0063442D01*
X0055132Y0064252D01*
X0055073Y0064277D01*
X0055163Y0065582D01*
X0055229Y0065655D01*
X0055219Y0065841D01*
X0055688Y0065841D01*
X0055720Y0065872D01*
X0055871Y0065720D01*
X0056190Y0065536D01*
X0056546Y0065441D01*
X0058102Y0065441D01*
X0058102Y0071362D01*
X0058902Y0071362D01*
X0058902Y0065441D01*
X0060458Y0065441D01*
X0060814Y0065536D01*
X0061134Y0065720D01*
X0061285Y0065872D01*
X0061316Y0065841D01*
X0065688Y0065841D01*
X0066274Y0066426D01*
X0066274Y0077097D01*
X0065688Y0077683D01*
X0064902Y0077683D01*
X0064902Y0079117D01*
X0064082Y0079937D01*
X0062590Y0081429D01*
X0062439Y0081739D01*
X0062196Y0081824D01*
X0062013Y0082006D01*
X0061669Y0082006D01*
X0054481Y0084494D01*
X0054481Y0084583D01*
X0054042Y0085642D01*
X0053232Y0086452D01*
X0052173Y0086891D01*
X0051027Y0086891D01*
X0049968Y0086452D01*
X0049158Y0085642D01*
X0048719Y0084583D01*
X0048719Y0083437D01*
X0049158Y0082378D01*
X0049968Y0081567D01*
X0051027Y0081129D01*
X0052173Y0081129D01*
X0053232Y0081567D01*
X0053526Y0081862D01*
X0060671Y0079388D01*
X0062102Y0077957D01*
X0062102Y0077683D01*
X0061316Y0077683D01*
X0061285Y0077652D01*
X0061134Y0077803D01*
X0060814Y0077988D01*
X0060458Y0078083D01*
X0058902Y0078083D01*
X0058902Y0072162D01*
X0058102Y0072162D01*
X0058102Y0078083D01*
X0056546Y0078083D01*
X0058102Y0077518D02*
X0058902Y0077518D01*
X0058902Y0076719D02*
X0058102Y0076719D01*
X0058102Y0075921D02*
X0058902Y0075921D01*
X0058902Y0075122D02*
X0058102Y0075122D01*
X0058102Y0074323D02*
X0058902Y0074323D01*
X0058902Y0073525D02*
X0058102Y0073525D01*
X0058102Y0072726D02*
X0058902Y0072726D01*
X0058902Y0071129D02*
X0058102Y0071129D01*
X0058102Y0070331D02*
X0058902Y0070331D01*
X0058902Y0069532D02*
X0058102Y0069532D01*
X0058102Y0068734D02*
X0058902Y0068734D01*
X0058902Y0067935D02*
X0058102Y0067935D01*
X0058102Y0067137D02*
X0058902Y0067137D01*
X0058902Y0066338D02*
X0058102Y0066338D01*
X0058102Y0065540D02*
X0058902Y0065540D01*
X0056184Y0065540D02*
X0055161Y0065540D01*
X0055105Y0064741D02*
X0073300Y0064741D01*
X0073300Y0063943D02*
X0055441Y0063943D01*
X0056066Y0063144D02*
X0082300Y0063144D01*
X0082300Y0063943D02*
X0083100Y0063943D01*
X0083100Y0064741D02*
X0082300Y0064741D01*
X0082300Y0065540D02*
X0083100Y0065540D01*
X0083100Y0066338D02*
X0082300Y0066338D01*
X0082300Y0067137D02*
X0083100Y0067137D01*
X0083100Y0067935D02*
X0082300Y0067935D01*
X0082300Y0068734D02*
X0083100Y0068734D01*
X0078737Y0074323D02*
X0089500Y0074323D01*
X0089500Y0073525D02*
X0066274Y0073525D01*
X0066274Y0074323D02*
X0074063Y0074323D01*
X0073207Y0075122D02*
X0066274Y0075122D01*
X0066274Y0075921D02*
X0072611Y0075921D01*
X0072280Y0076719D02*
X0066274Y0076719D01*
X0065854Y0077518D02*
X0072100Y0077518D01*
X0072100Y0078316D02*
X0064902Y0078316D01*
X0064902Y0079115D02*
X0072203Y0079115D01*
X0072534Y0079913D02*
X0064106Y0079913D01*
X0063308Y0080712D02*
X0073021Y0080712D01*
X0073819Y0081510D02*
X0062551Y0081510D01*
X0061433Y0080606D02*
X0063502Y0078537D01*
X0063502Y0071762D01*
X0066274Y0071928D02*
X0089500Y0071928D01*
X0089500Y0072726D02*
X0066274Y0072726D01*
X0066274Y0071129D02*
X0089500Y0071129D01*
X0089500Y0070331D02*
X0066274Y0070331D01*
X0066274Y0069532D02*
X0089500Y0069532D01*
X0089500Y0075122D02*
X0088214Y0075122D01*
X0089066Y0075921D02*
X0089500Y0075921D01*
X0089500Y0079913D02*
X0089251Y0079913D01*
X0089500Y0082309D02*
X0077258Y0082309D01*
X0075542Y0082309D02*
X0060795Y0082309D01*
X0061433Y0080606D02*
X0051600Y0084010D01*
X0053094Y0081510D02*
X0054542Y0081510D01*
X0056181Y0083906D02*
X0075072Y0083906D01*
X0073625Y0084704D02*
X0054431Y0084704D01*
X0054100Y0085503D02*
X0072826Y0085503D01*
X0072453Y0086301D02*
X0053383Y0086301D01*
X0051151Y0077518D02*
X0050854Y0077518D01*
X0050106Y0081510D02*
X0042837Y0081510D01*
X0043299Y0082309D02*
X0049227Y0082309D01*
X0048855Y0083107D02*
X0043761Y0083107D01*
X0044223Y0083906D02*
X0048719Y0083906D01*
X0048769Y0084704D02*
X0044685Y0084704D01*
X0045147Y0085503D02*
X0049100Y0085503D01*
X0049817Y0086301D02*
X0045609Y0086301D01*
X0046071Y0087100D02*
X0072123Y0087100D01*
X0072100Y0087898D02*
X0046533Y0087898D01*
X0046995Y0088697D02*
X0072100Y0088697D01*
X0072361Y0089495D02*
X0059265Y0089495D01*
X0060000Y0090294D02*
X0072692Y0090294D01*
X0073401Y0091092D02*
X0060226Y0091092D01*
X0058600Y0090810D02*
X0059900Y0094010D01*
X0060978Y0096682D02*
X0072296Y0096682D01*
X0072100Y0097480D02*
X0061534Y0097480D01*
X0061534Y0098279D02*
X0072100Y0098279D01*
X0072188Y0099077D02*
X0061534Y0099077D01*
X0061534Y0099876D02*
X0072519Y0099876D01*
X0072983Y0100674D02*
X0061534Y0100674D01*
X0061534Y0101473D02*
X0073782Y0101473D01*
X0074175Y0103868D02*
X0030407Y0103868D01*
X0029700Y0103070D02*
X0031266Y0103070D01*
X0031266Y0102271D02*
X0029700Y0102271D01*
X0029700Y0101473D02*
X0031266Y0101473D01*
X0031266Y0100674D02*
X0029700Y0100674D01*
X0029700Y0099876D02*
X0031266Y0099876D01*
X0031266Y0099077D02*
X0029700Y0099077D01*
X0029700Y0098279D02*
X0031266Y0098279D01*
X0031266Y0097480D02*
X0029700Y0097480D01*
X0029700Y0096682D02*
X0053322Y0096682D01*
X0054400Y0094010D02*
X0044900Y0094010D01*
X0033702Y0077212D01*
X0033502Y0071762D01*
X0030731Y0071928D02*
X0029700Y0071928D01*
X0029700Y0072726D02*
X0030731Y0072726D01*
X0030731Y0073525D02*
X0029700Y0073525D01*
X0029700Y0074323D02*
X0030731Y0074323D01*
X0030731Y0075122D02*
X0029700Y0075122D01*
X0029700Y0075921D02*
X0030731Y0075921D01*
X0030731Y0076719D02*
X0029700Y0076719D01*
X0029700Y0077518D02*
X0031151Y0077518D01*
X0029700Y0078316D02*
X0032756Y0078316D01*
X0033288Y0079115D02*
X0029700Y0079115D01*
X0029700Y0079913D02*
X0033820Y0079913D01*
X0034353Y0080712D02*
X0029700Y0080712D01*
X0029700Y0081510D02*
X0034885Y0081510D01*
X0035417Y0082309D02*
X0029700Y0082309D01*
X0029700Y0083107D02*
X0035949Y0083107D01*
X0036482Y0083906D02*
X0029700Y0083906D01*
X0029700Y0084704D02*
X0037014Y0084704D01*
X0037546Y0085503D02*
X0029700Y0085503D01*
X0029700Y0086301D02*
X0038079Y0086301D01*
X0038611Y0087100D02*
X0029700Y0087100D01*
X0029700Y0087898D02*
X0039143Y0087898D01*
X0039676Y0088697D02*
X0029700Y0088697D01*
X0029700Y0089495D02*
X0040208Y0089495D01*
X0040740Y0090294D02*
X0029700Y0090294D01*
X0029700Y0091092D02*
X0041273Y0091092D01*
X0041805Y0091891D02*
X0029700Y0091891D01*
X0029700Y0092689D02*
X0042337Y0092689D01*
X0042869Y0093488D02*
X0029700Y0093488D01*
X0029700Y0094286D02*
X0043402Y0094286D01*
X0043934Y0095085D02*
X0029700Y0095085D01*
X0029700Y0095883D02*
X0052199Y0095883D01*
X0051266Y0097480D02*
X0041534Y0097480D01*
X0041534Y0098279D02*
X0044057Y0098279D01*
X0043587Y0102271D02*
X0041534Y0102271D01*
X0041534Y0103070D02*
X0044552Y0103070D01*
X0044595Y0108659D02*
X0071744Y0108659D01*
X0071929Y0109458D02*
X0045394Y0109458D01*
X0046192Y0110257D02*
X0072270Y0110257D01*
X0072803Y0111055D02*
X0046991Y0111055D01*
X0047789Y0111854D02*
X0073694Y0111854D01*
X0074243Y0114249D02*
X0061534Y0114249D01*
X0061534Y0113451D02*
X0089500Y0113451D01*
X0089500Y0114249D02*
X0078557Y0114249D01*
X0079106Y0111854D02*
X0089500Y0111854D01*
X0089500Y0112652D02*
X0077135Y0112652D01*
X0076800Y0112652D02*
X0076000Y0112652D01*
X0075665Y0112652D02*
X0061295Y0112652D01*
X0061534Y0115048D02*
X0073281Y0115048D01*
X0072642Y0115846D02*
X0061534Y0115846D01*
X0061534Y0116645D02*
X0072311Y0116645D01*
X0072100Y0117443D02*
X0061534Y0117443D01*
X0061534Y0118242D02*
X0072100Y0118242D01*
X0072172Y0119040D02*
X0061213Y0119040D01*
X0062820Y0124630D02*
X0073699Y0124630D01*
X0072900Y0125428D02*
X0062912Y0125428D01*
X0062912Y0126227D02*
X0072484Y0126227D01*
X0072154Y0127025D02*
X0062912Y0127025D01*
X0062912Y0127824D02*
X0072100Y0127824D01*
X0072100Y0128622D02*
X0062912Y0128622D01*
X0062912Y0129421D02*
X0072330Y0129421D01*
X0072661Y0130219D02*
X0062912Y0130219D01*
X0062912Y0131018D02*
X0073327Y0131018D01*
X0074353Y0131816D02*
X0064686Y0131816D01*
X0065485Y0132615D02*
X0089500Y0132615D01*
X0089500Y0133413D02*
X0066283Y0133413D01*
X0067082Y0134212D02*
X0074333Y0134212D01*
X0073318Y0135010D02*
X0067800Y0135010D01*
X0067800Y0135809D02*
X0072657Y0135809D01*
X0072327Y0136607D02*
X0067800Y0136607D01*
X0067800Y0137406D02*
X0072100Y0137406D01*
X0072100Y0138204D02*
X0067800Y0138204D01*
X0067800Y0139003D02*
X0072157Y0139003D01*
X0072488Y0139801D02*
X0067800Y0139801D01*
X0067800Y0140600D02*
X0072909Y0140600D01*
X0073707Y0141398D02*
X0067800Y0141398D01*
X0067800Y0142197D02*
X0075272Y0142197D01*
X0075342Y0143794D02*
X0069164Y0143794D01*
X0068366Y0142995D02*
X0089500Y0142995D01*
X0089500Y0142197D02*
X0077528Y0142197D01*
X0077458Y0143794D02*
X0089500Y0143794D01*
X0089500Y0144592D02*
X0079064Y0144592D01*
X0079092Y0141398D02*
X0089500Y0141398D01*
X0089500Y0140600D02*
X0088565Y0140600D01*
X0089297Y0139801D02*
X0089500Y0139801D01*
X0089458Y0136607D02*
X0089500Y0136607D01*
X0089500Y0135809D02*
X0088954Y0135809D01*
X0089500Y0135010D02*
X0087944Y0135010D01*
X0089500Y0134212D02*
X0078467Y0134212D01*
X0078447Y0131816D02*
X0089500Y0131816D01*
X0089500Y0131018D02*
X0087924Y0131018D01*
X0088945Y0130219D02*
X0089500Y0130219D01*
X0089500Y0129421D02*
X0089455Y0129421D01*
X0089500Y0126227D02*
X0089301Y0126227D01*
X0089500Y0125428D02*
X0088573Y0125428D01*
X0089500Y0124630D02*
X0079101Y0124630D01*
X0079055Y0121436D02*
X0089500Y0121436D01*
X0089500Y0122234D02*
X0077438Y0122234D01*
X0077548Y0123831D02*
X0089500Y0123831D01*
X0089500Y0123033D02*
X0058200Y0123033D01*
X0058200Y0123831D02*
X0075252Y0123831D01*
X0075362Y0122234D02*
X0058200Y0122234D01*
X0058200Y0121436D02*
X0073745Y0121436D01*
X0072946Y0120637D02*
X0058200Y0120637D01*
X0058200Y0119839D02*
X0072503Y0119839D01*
X0076000Y0111854D02*
X0076800Y0111854D01*
X0076800Y0111055D02*
X0076000Y0111055D01*
X0076000Y0110257D02*
X0076800Y0110257D01*
X0076800Y0109458D02*
X0076000Y0109458D01*
X0076000Y0108659D02*
X0076800Y0108659D01*
X0076400Y0108010D02*
X0048900Y0108010D01*
X0048588Y0112652D02*
X0051505Y0112652D01*
X0051266Y0113451D02*
X0049386Y0113451D01*
X0047100Y0116255D02*
X0042654Y0111810D01*
X0034977Y0111810D01*
X0034310Y0111867D01*
X0034243Y0111810D01*
X0034154Y0111810D01*
X0033681Y0111337D01*
X0027243Y0105910D01*
X0027154Y0105910D01*
X0026681Y0105437D01*
X0026170Y0105006D01*
X0026162Y0104918D01*
X0026100Y0104855D01*
X0026100Y0104186D01*
X0026043Y0103520D01*
X0026100Y0103452D01*
X0026100Y0041684D01*
X0025332Y0042452D01*
X0024273Y0042891D01*
X0023127Y0042891D01*
X0022123Y0042475D01*
X0020300Y0043119D01*
X0020300Y0047424D01*
X0019714Y0048010D01*
X0019715Y0048011D01*
X0020440Y0047802D01*
X0020658Y0047278D01*
X0021468Y0046467D01*
X0022527Y0046029D01*
X0023673Y0046029D01*
X0024732Y0046467D01*
X0025542Y0047278D01*
X0025981Y0048337D01*
X0025981Y0049483D01*
X0025542Y0050542D01*
X0024732Y0051352D01*
X0023673Y0051791D01*
X0022527Y0051791D01*
X0021468Y0051352D01*
X0021390Y0051275D01*
X0020300Y0051589D01*
X0020300Y0057424D01*
X0019953Y0057771D01*
X0020160Y0057890D01*
X0020420Y0058150D01*
X0020605Y0058469D01*
X0020700Y0058826D01*
X0020700Y0062610D01*
X0011700Y0062610D01*
X0011700Y0063410D01*
X0010900Y0063410D01*
X0010900Y0068410D01*
X0003300Y0068410D01*
X0003300Y0076708D01*
X0003550Y0076105D01*
X0004495Y0075159D01*
X0005731Y0074648D01*
X0011793Y0074648D01*
X0013029Y0075159D01*
X0013099Y0075230D01*
X0013964Y0074364D01*
X0015545Y0073710D01*
X0017255Y0073710D01*
X0018836Y0074364D01*
X0020045Y0075574D01*
X0020700Y0077155D01*
X0020700Y0078865D01*
X0020045Y0080446D01*
X0018836Y0081655D01*
X0017255Y0082310D01*
X0015545Y0082310D01*
X0013964Y0081655D01*
X0013099Y0080790D01*
X0013029Y0080860D01*
X0011793Y0081372D01*
X0005731Y0081372D01*
X0004495Y0080860D01*
X0003550Y0079914D01*
X0003300Y0079312D01*
X0003300Y0085878D01*
X0003478Y0085612D01*
X0004002Y0085088D01*
X0004618Y0084676D01*
X0005303Y0084392D01*
X0006013Y0084251D01*
X0006013Y0087622D01*
X0006787Y0087622D01*
X0006787Y0084248D01*
X0011495Y0084248D01*
X0012222Y0084392D01*
X0012906Y0084676D01*
X0013015Y0084748D01*
X0013338Y0084425D01*
X0013937Y0083990D01*
X0014596Y0083654D01*
X0015299Y0083426D01*
X0016000Y0083315D01*
X0016000Y0087610D01*
X0014881Y0087610D01*
X0014883Y0087622D01*
X0006787Y0087622D01*
X0006787Y0088397D01*
X0006013Y0088397D01*
X0006013Y0091769D01*
X0005303Y0091627D01*
X0004618Y0091344D01*
X0004002Y0090932D01*
X0003478Y0090408D01*
X0003300Y0090142D01*
X0003300Y0096708D01*
X0003550Y0096105D01*
X0004495Y0095159D01*
X0005731Y0094648D01*
X0011793Y0094648D01*
X0013029Y0095159D01*
X0013099Y0095230D01*
X0013964Y0094364D01*
X0015545Y0093710D01*
X0017255Y0093710D01*
X0018836Y0094364D01*
X0020045Y0095574D01*
X0020700Y0097155D01*
X0020700Y0098865D01*
X0020045Y0100446D01*
X0018836Y0101655D01*
X0017255Y0102310D01*
X0015545Y0102310D01*
X0013964Y0101655D01*
X0013099Y0100790D01*
X0013029Y0100860D01*
X0011793Y0101372D01*
X0005731Y0101372D01*
X0004495Y0100860D01*
X0003550Y0099914D01*
X0003300Y0099312D01*
X0003300Y0106708D01*
X0003550Y0106105D01*
X0004495Y0105159D01*
X0005731Y0104648D01*
X0011793Y0104648D01*
X0013029Y0105159D01*
X0013099Y0105230D01*
X0013964Y0104364D01*
X0015545Y0103710D01*
X0017255Y0103710D01*
X0018836Y0104364D01*
X0020045Y0105574D01*
X0020700Y0107155D01*
X0020700Y0108865D01*
X0020045Y0110446D01*
X0018836Y0111655D01*
X0017255Y0112310D01*
X0015545Y0112310D01*
X0013964Y0111655D01*
X0013099Y0110790D01*
X0013029Y0110860D01*
X0011793Y0111372D01*
X0005731Y0111372D01*
X0004495Y0110860D01*
X0003550Y0109914D01*
X0003300Y0109312D01*
X0003300Y0116708D01*
X0003550Y0116105D01*
X0004495Y0115159D01*
X0005731Y0114648D01*
X0011793Y0114648D01*
X0013029Y0115159D01*
X0013099Y0115230D01*
X0013964Y0114364D01*
X0015545Y0113710D01*
X0017255Y0113710D01*
X0018836Y0114364D01*
X0020045Y0115574D01*
X0020700Y0117155D01*
X0020700Y0118865D01*
X0020045Y0120446D01*
X0018836Y0121655D01*
X0017255Y0122310D01*
X0015545Y0122310D01*
X0013964Y0121655D01*
X0013099Y0120790D01*
X0013029Y0120860D01*
X0011793Y0121372D01*
X0005731Y0121372D01*
X0004495Y0120860D01*
X0003550Y0119914D01*
X0003300Y0119312D01*
X0003300Y0126708D01*
X0003550Y0126105D01*
X0004495Y0125159D01*
X0005731Y0124648D01*
X0011793Y0124648D01*
X0013029Y0125159D01*
X0013099Y0125230D01*
X0013964Y0124364D01*
X0015545Y0123710D01*
X0017255Y0123710D01*
X0018836Y0124364D01*
X0020045Y0125574D01*
X0020700Y0127155D01*
X0020700Y0128865D01*
X0020045Y0130446D01*
X0018836Y0131655D01*
X0017255Y0132310D01*
X0015545Y0132310D01*
X0013964Y0131655D01*
X0013099Y0130790D01*
X0013029Y0130860D01*
X0011793Y0131372D01*
X0005731Y0131372D01*
X0004495Y0130860D01*
X0003550Y0129914D01*
X0003300Y0129312D01*
X0003300Y0136708D01*
X0003550Y0136105D01*
X0004495Y0135159D01*
X0005731Y0134648D01*
X0011793Y0134648D01*
X0013029Y0135159D01*
X0013099Y0135230D01*
X0013964Y0134364D01*
X0015545Y0133710D01*
X0017255Y0133710D01*
X0018836Y0134364D01*
X0020045Y0135574D01*
X0020700Y0137155D01*
X0020700Y0138865D01*
X0020045Y0140446D01*
X0018836Y0141655D01*
X0017255Y0142310D01*
X0015545Y0142310D01*
X0013964Y0141655D01*
X0013099Y0140790D01*
X0013029Y0140860D01*
X0011793Y0141372D01*
X0005731Y0141372D01*
X0004495Y0140860D01*
X0003550Y0139914D01*
X0003300Y0139312D01*
X0003300Y0146708D01*
X0003550Y0146105D01*
X0004495Y0145159D01*
X0005731Y0144648D01*
X0011793Y0144648D01*
X0013029Y0145159D01*
X0013099Y0145230D01*
X0013964Y0144364D01*
X0015545Y0143710D01*
X0017255Y0143710D01*
X0018836Y0144364D01*
X0020045Y0145574D01*
X0020700Y0147155D01*
X0020700Y0148865D01*
X0020045Y0150446D01*
X0018836Y0151655D01*
X0017255Y0152310D01*
X0015545Y0152310D01*
X0013964Y0151655D01*
X0013099Y0150790D01*
X0013029Y0150860D01*
X0011793Y0151372D01*
X0005731Y0151372D01*
X0004495Y0150860D01*
X0003550Y0149914D01*
X0003300Y0149312D01*
X0003300Y0156708D01*
X0003550Y0156105D01*
X0004495Y0155159D01*
X0005731Y0154648D01*
X0011793Y0154648D01*
X0013029Y0155159D01*
X0013099Y0155230D01*
X0013964Y0154364D01*
X0015545Y0153710D01*
X0017255Y0153710D01*
X0018836Y0154364D01*
X0020045Y0155574D01*
X0020700Y0157155D01*
X0020700Y0158865D01*
X0020045Y0160446D01*
X0018836Y0161655D01*
X0017255Y0162310D01*
X0015545Y0162310D01*
X0013964Y0161655D01*
X0013099Y0160790D01*
X0013029Y0160860D01*
X0011793Y0161372D01*
X0005731Y0161372D01*
X0004495Y0160860D01*
X0003550Y0159914D01*
X0003300Y0159312D01*
X0003300Y0166708D01*
X0003550Y0166105D01*
X0004495Y0165159D01*
X0005731Y0164648D01*
X0011793Y0164648D01*
X0013029Y0165159D01*
X0013099Y0165230D01*
X0013964Y0164364D01*
X0015545Y0163710D01*
X0017255Y0163710D01*
X0018836Y0164364D01*
X0020045Y0165574D01*
X0020700Y0167155D01*
X0020700Y0168865D01*
X0020045Y0170446D01*
X0018836Y0171655D01*
X0017255Y0172310D01*
X0015545Y0172310D01*
X0013964Y0171655D01*
X0013099Y0170790D01*
X0013029Y0170860D01*
X0011793Y0171372D01*
X0005731Y0171372D01*
X0004495Y0170860D01*
X0003550Y0169914D01*
X0003300Y0169312D01*
X0003300Y0176708D01*
X0003550Y0176105D01*
X0004495Y0175159D01*
X0005731Y0174648D01*
X0011793Y0174648D01*
X0013029Y0175159D01*
X0013099Y0175230D01*
X0013964Y0174364D01*
X0015545Y0173710D01*
X0017255Y0173710D01*
X0018836Y0174364D01*
X0020045Y0175574D01*
X0020700Y0177155D01*
X0020700Y0178865D01*
X0020045Y0180446D01*
X0018836Y0181655D01*
X0017255Y0182310D01*
X0015545Y0182310D01*
X0013964Y0181655D01*
X0013099Y0180790D01*
X0013029Y0180860D01*
X0011793Y0181372D01*
X0005731Y0181372D01*
X0004495Y0180860D01*
X0003550Y0179914D01*
X0003300Y0179312D01*
X0003300Y0186708D01*
X0003550Y0186105D01*
X0004495Y0185159D01*
X0005731Y0184648D01*
X0011793Y0184648D01*
X0013029Y0185159D01*
X0013099Y0185230D01*
X0013964Y0184364D01*
X0015545Y0183710D01*
X0017255Y0183710D01*
X0018836Y0184364D01*
X0020045Y0185574D01*
X0020700Y0187155D01*
X0020700Y0188865D01*
X0020045Y0190446D01*
X0018836Y0191655D01*
X0017255Y0192310D01*
X0015545Y0192310D01*
X0013964Y0191655D01*
X0013099Y0190790D01*
X0013029Y0190860D01*
X0011793Y0191372D01*
X0005731Y0191372D01*
X0004495Y0190860D01*
X0003550Y0189914D01*
X0003300Y0189312D01*
X0003300Y0195878D01*
X0003478Y0195612D01*
X0004002Y0195088D01*
X0004618Y0194676D01*
X0005303Y0194392D01*
X0006013Y0194251D01*
X0006013Y0197622D01*
X0006787Y0197622D01*
X0006787Y0194248D01*
X0011495Y0194248D01*
X0012222Y0194392D01*
X0012906Y0194676D01*
X0013015Y0194748D01*
X0013338Y0194425D01*
X0013937Y0193990D01*
X0014596Y0193654D01*
X0015299Y0193426D01*
X0016000Y0193315D01*
X0016000Y0197610D01*
X0014881Y0197610D01*
X0014883Y0197622D01*
X0006787Y0197622D01*
X0006787Y0198397D01*
X0006013Y0198397D01*
X0006013Y0201769D01*
X0005303Y0201627D01*
X0004618Y0201344D01*
X0004002Y0200932D01*
X0003478Y0200408D01*
X0003300Y0200142D01*
X0003300Y0206708D01*
X0003550Y0206105D01*
X0004495Y0205159D01*
X0005731Y0204648D01*
X0011793Y0204648D01*
X0013029Y0205159D01*
X0013099Y0205230D01*
X0013964Y0204364D01*
X0015545Y0203710D01*
X0017255Y0203710D01*
X0018836Y0204364D01*
X0020045Y0205574D01*
X0020700Y0207155D01*
X0020700Y0208865D01*
X0020045Y0210446D01*
X0018836Y0211655D01*
X0017255Y0212310D01*
X0015545Y0212310D01*
X0013964Y0211655D01*
X0013099Y0210790D01*
X0013029Y0210860D01*
X0011793Y0211372D01*
X0005731Y0211372D01*
X0004495Y0210860D01*
X0003550Y0209914D01*
X0003300Y0209312D01*
X0003300Y0216708D01*
X0003550Y0216105D01*
X0004495Y0215159D01*
X0005731Y0214648D01*
X0011793Y0214648D01*
X0013029Y0215159D01*
X0013099Y0215230D01*
X0013964Y0214364D01*
X0015545Y0213710D01*
X0017255Y0213710D01*
X0018836Y0214364D01*
X0020045Y0215574D01*
X0020474Y0216610D01*
X0041207Y0216610D01*
X0051281Y0213772D01*
X0051098Y0213772D01*
X0050741Y0213677D01*
X0050422Y0213492D01*
X0050162Y0213232D01*
X0049977Y0212912D01*
X0049882Y0212556D01*
X0049882Y0210397D01*
X0052469Y0210397D01*
X0052469Y0209622D01*
X0053244Y0209622D01*
X0053244Y0206248D01*
X0054200Y0206248D01*
X0054200Y0204580D01*
X0054170Y0204284D01*
X0052469Y0204284D01*
X0052469Y0200528D01*
X0051669Y0200528D01*
X0051669Y0199728D01*
X0048307Y0199728D01*
X0048307Y0199177D01*
X0048032Y0199452D01*
X0046973Y0199891D01*
X0045827Y0199891D01*
X0044768Y0199452D01*
X0044093Y0198777D01*
X0044093Y0203298D01*
X0043507Y0203884D01*
X0042131Y0203884D01*
X0042131Y0206846D01*
X0042518Y0207233D01*
X0042518Y0212786D01*
X0041932Y0213372D01*
X0037954Y0213372D01*
X0037369Y0212786D01*
X0037369Y0207233D01*
X0037954Y0206648D01*
X0039331Y0206648D01*
X0039331Y0203884D01*
X0037954Y0203884D01*
X0037369Y0203298D01*
X0037369Y0196958D01*
X0037954Y0196372D01*
X0042507Y0196372D01*
X0043269Y0195610D01*
X0043861Y0195610D01*
X0043958Y0195378D01*
X0044768Y0194567D01*
X0045827Y0194129D01*
X0046973Y0194129D01*
X0047939Y0194529D01*
X0047320Y0193910D01*
X0046500Y0193090D01*
X0046500Y0169590D01*
X0045205Y0168295D01*
X0044973Y0168391D01*
X0043827Y0168391D01*
X0042768Y0167952D01*
X0041958Y0167142D01*
X0041519Y0166083D01*
X0041519Y0164937D01*
X0041958Y0163878D01*
X0042768Y0163067D01*
X0043827Y0162629D01*
X0044973Y0162629D01*
X0046032Y0163067D01*
X0046842Y0163878D01*
X0047281Y0164937D01*
X0047281Y0166083D01*
X0047185Y0166315D01*
X0049300Y0168430D01*
X0049300Y0191930D01*
X0049888Y0192518D01*
X0049888Y0186722D01*
X0050474Y0186136D01*
X0053952Y0186136D01*
X0053458Y0185642D01*
X0053019Y0184583D01*
X0053019Y0183437D01*
X0053458Y0182378D01*
X0054268Y0181567D01*
X0054600Y0181430D01*
X0054600Y0179305D01*
X0051852Y0179305D01*
X0051266Y0178719D01*
X0051266Y0172891D01*
X0051852Y0172305D01*
X0060948Y0172305D01*
X0061534Y0172891D01*
X0061534Y0178719D01*
X0060948Y0179305D01*
X0058200Y0179305D01*
X0058200Y0182235D01*
X0058342Y0182378D01*
X0058781Y0183437D01*
X0058781Y0184583D01*
X0058342Y0185642D01*
X0058200Y0185784D01*
X0058200Y0186136D01*
X0061452Y0186136D01*
X0060958Y0185642D01*
X0060519Y0184583D01*
X0060519Y0183437D01*
X0060958Y0182378D01*
X0061768Y0181567D01*
X0062827Y0181129D01*
X0063973Y0181129D01*
X0065019Y0181562D01*
X0065019Y0181437D01*
X0065458Y0180378D01*
X0066268Y0179567D01*
X0067327Y0179129D01*
X0068473Y0179129D01*
X0069532Y0179567D01*
X0070342Y0180378D01*
X0070781Y0181437D01*
X0070781Y0182583D01*
X0070342Y0183642D01*
X0069532Y0184452D01*
X0069300Y0184548D01*
X0069300Y0188561D01*
X0070063Y0189629D01*
X0070973Y0189629D01*
X0072032Y0190067D01*
X0072842Y0190878D01*
X0073281Y0191937D01*
X0073281Y0193083D01*
X0072842Y0194142D01*
X0072032Y0194952D01*
X0070973Y0195391D01*
X0069827Y0195391D01*
X0068768Y0194952D01*
X0067958Y0194142D01*
X0067519Y0193083D01*
X0067519Y0191937D01*
X0067795Y0191271D01*
X0066828Y0189918D01*
X0066500Y0189590D01*
X0066500Y0189458D01*
X0066424Y0189352D01*
X0066500Y0188894D01*
X0066500Y0184548D01*
X0066281Y0184458D01*
X0066281Y0184583D01*
X0065842Y0185642D01*
X0065032Y0186452D01*
X0064800Y0186548D01*
X0064800Y0193086D01*
X0064887Y0193216D01*
X0064800Y0193648D01*
X0064800Y0194090D01*
X0064690Y0194200D01*
X0064659Y0194353D01*
X0064292Y0194598D01*
X0063980Y0194910D01*
X0063824Y0194910D01*
X0062792Y0195598D01*
X0062480Y0195910D01*
X0062324Y0195910D01*
X0062194Y0195996D01*
X0061761Y0195910D01*
X0059212Y0195910D01*
X0058948Y0196372D01*
X0063507Y0196372D01*
X0063745Y0196610D01*
X0072326Y0196610D01*
X0072755Y0195574D01*
X0073964Y0194364D01*
X0075545Y0193710D01*
X0077255Y0193710D01*
X0078836Y0194364D01*
X0079481Y0195010D01*
X0080132Y0195010D01*
X0081007Y0194648D01*
X0087069Y0194648D01*
X0088305Y0195159D01*
X0089250Y0196105D01*
X0089500Y0196708D01*
X0089500Y0189312D01*
X0089250Y0189914D01*
X0088305Y0190860D01*
X0087069Y0191372D01*
X0081007Y0191372D01*
X0080132Y0191010D01*
X0079481Y0191010D01*
X0078836Y0191655D01*
X0077255Y0192310D01*
X0075545Y0192310D01*
X0073964Y0191655D01*
X0072755Y0190446D01*
X0072100Y0188865D01*
X0072100Y0187155D01*
X0072755Y0185574D01*
X0073964Y0184364D01*
X0075545Y0183710D01*
X0077255Y0183710D01*
X0078836Y0184364D01*
X0079481Y0185010D01*
X0080132Y0185010D01*
X0081007Y0184648D01*
X0087069Y0184648D01*
X0088305Y0185159D01*
X0089250Y0186105D01*
X0089500Y0186708D01*
X0089500Y0179312D01*
X0089250Y0179914D01*
X0088305Y0180860D01*
X0087069Y0181372D01*
X0081007Y0181372D01*
X0080132Y0181010D01*
X0079481Y0181010D01*
X0078836Y0181655D01*
X0077255Y0182310D01*
X0075545Y0182310D01*
X0073964Y0181655D01*
X0072755Y0180446D01*
X0072100Y0178865D01*
X0072100Y0177155D01*
X0072755Y0175574D01*
X0073964Y0174364D01*
X0075545Y0173710D01*
X0077255Y0173710D01*
X0078836Y0174364D01*
X0079481Y0175010D01*
X0080132Y0175010D01*
X0081007Y0174648D01*
X0087069Y0174648D01*
X0088305Y0175159D01*
X0089250Y0176105D01*
X0089500Y0176708D01*
X0089500Y0169312D01*
X0089250Y0169914D01*
X0088305Y0170860D01*
X0087069Y0171372D01*
X0081007Y0171372D01*
X0080132Y0171010D01*
X0079481Y0171010D01*
X0078836Y0171655D01*
X0077255Y0172310D01*
X0075545Y0172310D01*
X0073964Y0171655D01*
X0072755Y0170446D01*
X0072100Y0168865D01*
X0072100Y0167155D01*
X0072755Y0165574D01*
X0073964Y0164364D01*
X0075545Y0163710D01*
X0077255Y0163710D01*
X0078836Y0164364D01*
X0079481Y0165010D01*
X0080132Y0165010D01*
X0081007Y0164648D01*
X0087069Y0164648D01*
X0088305Y0165159D01*
X0089250Y0166105D01*
X0089500Y0166708D01*
X0089500Y0159312D01*
X0089250Y0159914D01*
X0088305Y0160860D01*
X0087069Y0161372D01*
X0081007Y0161372D01*
X0080132Y0161010D01*
X0079481Y0161010D01*
X0078836Y0161655D01*
X0077255Y0162310D01*
X0075545Y0162310D01*
X0073964Y0161655D01*
X0072755Y0160446D01*
X0072100Y0158865D01*
X0072100Y0158637D01*
X0066148Y0156895D01*
X0065717Y0156863D01*
X0065609Y0156737D01*
X0065450Y0156691D01*
X0065243Y0156311D01*
X0060990Y0151372D01*
X0057954Y0151372D01*
X0057369Y0150786D01*
X0057369Y0145233D01*
X0057954Y0144648D01*
X0059331Y0144648D01*
X0059331Y0141884D01*
X0057954Y0141884D01*
X0057369Y0141298D01*
X0057369Y0134958D01*
X0057917Y0134410D01*
X0055449Y0134410D01*
X0055552Y0134512D01*
X0055736Y0134832D01*
X0055831Y0135188D01*
X0055831Y0137728D01*
X0052469Y0137728D01*
X0052469Y0138528D01*
X0051669Y0138528D01*
X0051669Y0137728D01*
X0048307Y0137728D01*
X0048307Y0135583D01*
X0047800Y0136090D01*
X0047800Y0138590D01*
X0046980Y0139410D01*
X0044093Y0139410D01*
X0044093Y0141298D01*
X0043507Y0141884D01*
X0041343Y0141884D01*
X0041343Y0144648D01*
X0041932Y0144648D01*
X0042518Y0145233D01*
X0042518Y0147148D01*
X0042800Y0147430D01*
X0042800Y0148590D01*
X0042518Y0148872D01*
X0042518Y0150786D01*
X0041932Y0151372D01*
X0037954Y0151372D01*
X0037369Y0150786D01*
X0037369Y0145233D01*
X0037954Y0144648D01*
X0038543Y0144648D01*
X0038543Y0141884D01*
X0037954Y0141884D01*
X0037369Y0141298D01*
X0037369Y0134958D01*
X0037917Y0134410D01*
X0035449Y0134410D01*
X0035552Y0134512D01*
X0035736Y0134832D01*
X0035831Y0135188D01*
X0035831Y0137728D01*
X0032469Y0137728D01*
X0032469Y0138528D01*
X0031669Y0138528D01*
X0031669Y0137728D01*
X0028307Y0137728D01*
X0028307Y0135188D01*
X0028311Y0135173D01*
X0028032Y0135452D01*
X0026973Y0135891D01*
X0025827Y0135891D01*
X0024768Y0135452D01*
X0023958Y0134642D01*
X0023519Y0133583D01*
X0023519Y0132437D01*
X0023958Y0131378D01*
X0024768Y0130567D01*
X0025827Y0130129D01*
X0026973Y0130129D01*
X0028032Y0130567D01*
X0028842Y0131378D01*
X0028897Y0131510D01*
X0029521Y0131510D01*
X0029621Y0131610D01*
X0030436Y0131610D01*
X0029888Y0131062D01*
X0029888Y0124722D01*
X0030019Y0124591D01*
X0029127Y0124591D01*
X0028068Y0124152D01*
X0027258Y0123342D01*
X0026819Y0122283D01*
X0026819Y0121137D01*
X0027258Y0120078D01*
X0028068Y0119267D01*
X0029127Y0118829D01*
X0030273Y0118829D01*
X0031332Y0119267D01*
X0032142Y0120078D01*
X0032302Y0120463D01*
X0033363Y0120708D01*
X0033441Y0120668D01*
X0034079Y0120873D01*
X0034600Y0120993D01*
X0034600Y0119305D01*
X0031852Y0119305D01*
X0031266Y0118719D01*
X0031266Y0112891D01*
X0031852Y0112305D01*
X0040948Y0112305D01*
X0041534Y0112891D01*
X0041534Y0118719D01*
X0040948Y0119305D01*
X0038200Y0119305D01*
X0038200Y0123075D01*
X0038342Y0123351D01*
X0038200Y0123792D01*
X0038200Y0124136D01*
X0042326Y0124136D01*
X0042912Y0124722D01*
X0042912Y0131062D01*
X0042364Y0131610D01*
X0043320Y0131610D01*
X0045000Y0129930D01*
X0045000Y0125548D01*
X0044768Y0125452D01*
X0043958Y0124642D01*
X0043519Y0123583D01*
X0043519Y0122437D01*
X0043958Y0121378D01*
X0044768Y0120567D01*
X0045827Y0120129D01*
X0046973Y0120129D01*
X0048032Y0120567D01*
X0048842Y0121378D01*
X0049281Y0122437D01*
X0049281Y0123583D01*
X0048842Y0124642D01*
X0048032Y0125452D01*
X0047800Y0125548D01*
X0047800Y0131090D01*
X0046980Y0131910D01*
X0044480Y0134410D01*
X0043545Y0134410D01*
X0044093Y0134958D01*
X0044093Y0136610D01*
X0045000Y0136610D01*
X0045000Y0134930D01*
X0045820Y0134110D01*
X0048320Y0131610D01*
X0050436Y0131610D01*
X0049888Y0131062D01*
X0049888Y0124722D01*
X0050474Y0124136D01*
X0054600Y0124136D01*
X0054600Y0119305D01*
X0051852Y0119305D01*
X0051266Y0118719D01*
X0051266Y0117310D01*
X0048154Y0117310D01*
X0047100Y0116255D01*
X0047100Y0116255D01*
X0047489Y0116645D02*
X0041534Y0116645D01*
X0041534Y0117443D02*
X0051266Y0117443D01*
X0051266Y0118242D02*
X0041534Y0118242D01*
X0041213Y0119040D02*
X0051587Y0119040D01*
X0049980Y0124630D02*
X0048848Y0124630D01*
X0049178Y0123831D02*
X0054600Y0123831D01*
X0054600Y0123033D02*
X0049281Y0123033D01*
X0049197Y0122234D02*
X0054600Y0122234D01*
X0054600Y0121436D02*
X0048866Y0121436D01*
X0048102Y0120637D02*
X0054600Y0120637D01*
X0054600Y0119839D02*
X0038200Y0119839D01*
X0038200Y0120637D02*
X0044698Y0120637D01*
X0043934Y0121436D02*
X0038200Y0121436D01*
X0038200Y0122234D02*
X0043603Y0122234D01*
X0043519Y0123033D02*
X0038200Y0123033D01*
X0038200Y0123831D02*
X0043622Y0123831D01*
X0043952Y0124630D02*
X0042820Y0124630D01*
X0042912Y0125428D02*
X0044744Y0125428D01*
X0045000Y0126227D02*
X0042912Y0126227D01*
X0042912Y0127025D02*
X0045000Y0127025D01*
X0045000Y0127824D02*
X0042912Y0127824D01*
X0042912Y0128622D02*
X0045000Y0128622D01*
X0045000Y0129421D02*
X0042912Y0129421D01*
X0042912Y0130219D02*
X0044711Y0130219D01*
X0043912Y0131018D02*
X0042912Y0131018D01*
X0043900Y0133010D02*
X0046400Y0130510D01*
X0046400Y0123010D01*
X0048056Y0125428D02*
X0049888Y0125428D01*
X0049888Y0126227D02*
X0047800Y0126227D01*
X0047800Y0127025D02*
X0049888Y0127025D01*
X0049888Y0127824D02*
X0047800Y0127824D01*
X0047800Y0128622D02*
X0049888Y0128622D01*
X0049888Y0129421D02*
X0047800Y0129421D01*
X0047800Y0130219D02*
X0049888Y0130219D01*
X0049888Y0131018D02*
X0047800Y0131018D01*
X0048114Y0131816D02*
X0047073Y0131816D01*
X0047315Y0132615D02*
X0046275Y0132615D01*
X0046517Y0133413D02*
X0045476Y0133413D01*
X0045718Y0134212D02*
X0044678Y0134212D01*
X0045000Y0135010D02*
X0044093Y0135010D01*
X0044093Y0135809D02*
X0045000Y0135809D01*
X0045000Y0136607D02*
X0044093Y0136607D01*
X0043900Y0133010D02*
X0028900Y0133010D01*
X0028482Y0131018D02*
X0029888Y0131018D01*
X0029888Y0130219D02*
X0027192Y0130219D01*
X0025608Y0130219D02*
X0020139Y0130219D01*
X0020470Y0129421D02*
X0029888Y0129421D01*
X0029888Y0128622D02*
X0020700Y0128622D01*
X0020700Y0127824D02*
X0029888Y0127824D01*
X0029888Y0127025D02*
X0020646Y0127025D01*
X0020316Y0126227D02*
X0029888Y0126227D01*
X0029888Y0125428D02*
X0019899Y0125428D01*
X0019101Y0124630D02*
X0029980Y0124630D01*
X0031903Y0119839D02*
X0034600Y0119839D01*
X0034600Y0120637D02*
X0033057Y0120637D01*
X0031587Y0119040D02*
X0030783Y0119040D01*
X0031266Y0118242D02*
X0020700Y0118242D01*
X0020700Y0117443D02*
X0031266Y0117443D01*
X0031266Y0116645D02*
X0020489Y0116645D01*
X0020158Y0115846D02*
X0031266Y0115846D01*
X0031266Y0115048D02*
X0019519Y0115048D01*
X0018557Y0114249D02*
X0031266Y0114249D01*
X0031266Y0113451D02*
X0003300Y0113451D01*
X0003300Y0114249D02*
X0014243Y0114249D01*
X0013281Y0115048D02*
X0012759Y0115048D01*
X0014443Y0111854D02*
X0003300Y0111854D01*
X0003300Y0112652D02*
X0031505Y0112652D01*
X0032400Y0110257D02*
X0020124Y0110257D01*
X0020454Y0109458D02*
X0031452Y0109458D01*
X0030505Y0108659D02*
X0020700Y0108659D01*
X0020700Y0107861D02*
X0029558Y0107861D01*
X0028610Y0107062D02*
X0020662Y0107062D01*
X0020331Y0106264D02*
X0027663Y0106264D01*
X0026710Y0105465D02*
X0019937Y0105465D01*
X0019138Y0104667D02*
X0026100Y0104667D01*
X0026073Y0103868D02*
X0017638Y0103868D01*
X0017348Y0102271D02*
X0026100Y0102271D01*
X0026100Y0101473D02*
X0019018Y0101473D01*
X0019817Y0100674D02*
X0026100Y0100674D01*
X0026100Y0099876D02*
X0020281Y0099876D01*
X0020612Y0099077D02*
X0026100Y0099077D01*
X0026100Y0098279D02*
X0020700Y0098279D01*
X0020700Y0097480D02*
X0026100Y0097480D01*
X0026100Y0096682D02*
X0020504Y0096682D01*
X0020173Y0095883D02*
X0026100Y0095883D01*
X0026100Y0095085D02*
X0019556Y0095085D01*
X0018647Y0094286D02*
X0026100Y0094286D01*
X0026100Y0093488D02*
X0003300Y0093488D01*
X0003300Y0094286D02*
X0014153Y0094286D01*
X0013244Y0095085D02*
X0012849Y0095085D01*
X0014596Y0092365D02*
X0013937Y0092030D01*
X0013338Y0091595D01*
X0013015Y0091271D01*
X0012906Y0091344D01*
X0012222Y0091627D01*
X0011495Y0091772D01*
X0006787Y0091772D01*
X0006787Y0088397D01*
X0014883Y0088397D01*
X0014881Y0088410D01*
X0016000Y0088410D01*
X0016000Y0092705D01*
X0015299Y0092594D01*
X0014596Y0092365D01*
X0013745Y0091891D02*
X0003300Y0091891D01*
X0003300Y0092689D02*
X0015900Y0092689D01*
X0016000Y0092689D02*
X0016800Y0092689D01*
X0016800Y0092705D02*
X0016800Y0088410D01*
X0016000Y0088410D01*
X0016000Y0087610D01*
X0016800Y0087610D01*
X0016800Y0088410D01*
X0021095Y0088410D01*
X0020984Y0089110D01*
X0020756Y0089814D01*
X0020420Y0090473D01*
X0019985Y0091072D01*
X0019462Y0091595D01*
X0018863Y0092030D01*
X0018204Y0092365D01*
X0017501Y0092594D01*
X0016800Y0092705D01*
X0016900Y0092689D02*
X0026100Y0092689D01*
X0026100Y0091891D02*
X0019055Y0091891D01*
X0019964Y0091092D02*
X0026100Y0091092D01*
X0026100Y0090294D02*
X0020511Y0090294D01*
X0020859Y0089495D02*
X0026100Y0089495D01*
X0026100Y0088697D02*
X0021050Y0088697D01*
X0021095Y0087610D02*
X0016800Y0087610D01*
X0016800Y0083315D01*
X0017501Y0083426D01*
X0018204Y0083654D01*
X0018863Y0083990D01*
X0019462Y0084425D01*
X0019985Y0084948D01*
X0020420Y0085547D01*
X0020756Y0086206D01*
X0020984Y0086909D01*
X0021095Y0087610D01*
X0021014Y0087100D02*
X0026100Y0087100D01*
X0026100Y0087898D02*
X0016800Y0087898D01*
X0016800Y0087100D02*
X0016000Y0087100D01*
X0016000Y0087898D02*
X0006787Y0087898D01*
X0006787Y0087100D02*
X0006013Y0087100D01*
X0006013Y0086301D02*
X0006787Y0086301D01*
X0006787Y0085503D02*
X0006013Y0085503D01*
X0006013Y0084704D02*
X0006787Y0084704D01*
X0006787Y0088697D02*
X0006013Y0088697D01*
X0006013Y0089495D02*
X0006787Y0089495D01*
X0006787Y0090294D02*
X0006013Y0090294D01*
X0006013Y0091092D02*
X0006787Y0091092D01*
X0004676Y0095085D02*
X0003300Y0095085D01*
X0003300Y0095883D02*
X0003772Y0095883D01*
X0003311Y0096682D02*
X0003300Y0096682D01*
X0003300Y0099876D02*
X0003534Y0099876D01*
X0003300Y0100674D02*
X0004310Y0100674D01*
X0003300Y0101473D02*
X0013782Y0101473D01*
X0013662Y0104667D02*
X0011840Y0104667D01*
X0012559Y0111055D02*
X0013364Y0111055D01*
X0015162Y0103868D02*
X0003300Y0103868D01*
X0003300Y0103070D02*
X0026100Y0103070D01*
X0031354Y0104667D02*
X0073096Y0104667D01*
X0072439Y0105465D02*
X0032301Y0105465D01*
X0033249Y0106264D02*
X0072025Y0106264D01*
X0071791Y0107062D02*
X0034196Y0107062D01*
X0035143Y0107861D02*
X0076000Y0107861D01*
X0076000Y0107062D02*
X0076800Y0107062D01*
X0076800Y0107610D02*
X0076800Y0103315D01*
X0077501Y0103426D01*
X0078204Y0103654D01*
X0078863Y0103990D01*
X0079462Y0104425D01*
X0079785Y0104748D01*
X0079894Y0104676D01*
X0080578Y0104392D01*
X0081305Y0104248D01*
X0086013Y0104248D01*
X0086013Y0107622D01*
X0077917Y0107622D01*
X0077919Y0107610D01*
X0076800Y0107610D01*
X0076800Y0107861D02*
X0086013Y0107861D01*
X0086013Y0108659D02*
X0086787Y0108659D01*
X0086787Y0109458D02*
X0086013Y0109458D01*
X0086013Y0110257D02*
X0086787Y0110257D01*
X0086787Y0111055D02*
X0086013Y0111055D01*
X0086013Y0107062D02*
X0086787Y0107062D01*
X0086787Y0106264D02*
X0086013Y0106264D01*
X0086013Y0105465D02*
X0086787Y0105465D01*
X0086787Y0104667D02*
X0086013Y0104667D01*
X0088161Y0104667D02*
X0089500Y0104667D01*
X0089500Y0105465D02*
X0089176Y0105465D01*
X0089500Y0103868D02*
X0078625Y0103868D01*
X0079704Y0104667D02*
X0079915Y0104667D01*
X0079018Y0101473D02*
X0089500Y0101473D01*
X0089500Y0102271D02*
X0077348Y0102271D01*
X0076800Y0103868D02*
X0076000Y0103868D01*
X0076000Y0104667D02*
X0076800Y0104667D01*
X0076800Y0105465D02*
X0076000Y0105465D01*
X0076000Y0106264D02*
X0076800Y0106264D01*
X0075452Y0102271D02*
X0061534Y0102271D01*
X0061534Y0103070D02*
X0089500Y0103070D01*
X0089500Y0100674D02*
X0088490Y0100674D01*
X0089266Y0099876D02*
X0089500Y0099876D01*
X0089489Y0096682D02*
X0089500Y0096682D01*
X0089500Y0095883D02*
X0089028Y0095883D01*
X0089500Y0095085D02*
X0088124Y0095085D01*
X0089500Y0094286D02*
X0078647Y0094286D01*
X0078267Y0091891D02*
X0089500Y0091891D01*
X0089500Y0092689D02*
X0062471Y0092689D01*
X0062781Y0093488D02*
X0089500Y0093488D01*
X0089500Y0091092D02*
X0087744Y0091092D01*
X0088871Y0090294D02*
X0089500Y0090294D01*
X0089500Y0089495D02*
X0089424Y0089495D01*
X0080870Y0084704D02*
X0079175Y0084704D01*
X0079399Y0091092D02*
X0080331Y0091092D01*
X0074533Y0091891D02*
X0061855Y0091891D01*
X0062781Y0094286D02*
X0074153Y0094286D01*
X0073244Y0095085D02*
X0062573Y0095085D01*
X0062101Y0095883D02*
X0072627Y0095883D01*
X0061743Y0078316D02*
X0040990Y0078316D01*
X0040854Y0077518D02*
X0041151Y0077518D01*
X0041452Y0079115D02*
X0060945Y0079115D01*
X0066274Y0068734D02*
X0074232Y0068734D01*
X0073391Y0067935D02*
X0066274Y0067935D01*
X0066274Y0067137D02*
X0073300Y0067137D01*
X0073300Y0066338D02*
X0066186Y0066338D01*
X0060821Y0065540D02*
X0073300Y0065540D01*
X0073300Y0062346D02*
X0056381Y0062346D01*
X0056381Y0061547D02*
X0073300Y0061547D01*
X0073300Y0060749D02*
X0056179Y0060749D01*
X0055715Y0059950D02*
X0073300Y0059950D01*
X0073320Y0059152D02*
X0054612Y0059152D01*
X0052388Y0059152D02*
X0045516Y0059152D01*
X0046038Y0059950D02*
X0051285Y0059950D01*
X0050821Y0060749D02*
X0049987Y0060749D01*
X0048400Y0063210D02*
X0048500Y0065259D01*
X0048502Y0071762D01*
X0046151Y0077518D02*
X0045854Y0077518D01*
X0043502Y0071762D02*
X0043500Y0062764D01*
X0043400Y0061110D01*
X0044274Y0058353D02*
X0073777Y0058353D01*
X0073700Y0057555D02*
X0029700Y0057555D01*
X0029700Y0058353D02*
X0042526Y0058353D01*
X0041284Y0059152D02*
X0029700Y0059152D01*
X0029700Y0059950D02*
X0040762Y0059950D01*
X0040519Y0060749D02*
X0029700Y0060749D01*
X0029700Y0061547D02*
X0040519Y0061547D01*
X0040793Y0062346D02*
X0029700Y0062346D01*
X0029700Y0063144D02*
X0041360Y0063144D01*
X0042100Y0063943D02*
X0029700Y0063943D01*
X0029700Y0064741D02*
X0042101Y0064741D01*
X0042101Y0065540D02*
X0029700Y0065540D01*
X0029700Y0066338D02*
X0030819Y0066338D01*
X0030731Y0067137D02*
X0029700Y0067137D01*
X0029700Y0067935D02*
X0030731Y0067935D01*
X0030731Y0068734D02*
X0029700Y0068734D01*
X0029700Y0069532D02*
X0030731Y0069532D01*
X0030731Y0070331D02*
X0029700Y0070331D01*
X0029700Y0071129D02*
X0030731Y0071129D01*
X0026100Y0071129D02*
X0003300Y0071129D01*
X0003300Y0070331D02*
X0026100Y0070331D01*
X0026100Y0069532D02*
X0003300Y0069532D01*
X0003300Y0068734D02*
X0026100Y0068734D01*
X0026100Y0067935D02*
X0020354Y0067935D01*
X0020420Y0067869D02*
X0020160Y0068130D01*
X0019840Y0068314D01*
X0019484Y0068410D01*
X0011700Y0068410D01*
X0011700Y0063410D01*
X0020700Y0063410D01*
X0020700Y0067194D01*
X0020605Y0067550D01*
X0020420Y0067869D01*
X0020700Y0067137D02*
X0026100Y0067137D01*
X0026100Y0066338D02*
X0020700Y0066338D01*
X0020700Y0065540D02*
X0026100Y0065540D01*
X0026100Y0064741D02*
X0020700Y0064741D01*
X0020700Y0063943D02*
X0026100Y0063943D01*
X0026100Y0063144D02*
X0011700Y0063144D01*
X0011700Y0063943D02*
X0010900Y0063943D01*
X0010900Y0064741D02*
X0011700Y0064741D01*
X0011700Y0065540D02*
X0010900Y0065540D01*
X0010900Y0066338D02*
X0011700Y0066338D01*
X0011700Y0067137D02*
X0010900Y0067137D01*
X0010900Y0067935D02*
X0011700Y0067935D01*
X0014063Y0074323D02*
X0003300Y0074323D01*
X0003300Y0073525D02*
X0026100Y0073525D01*
X0026100Y0074323D02*
X0018737Y0074323D01*
X0019593Y0075122D02*
X0026100Y0075122D01*
X0026100Y0075921D02*
X0020189Y0075921D01*
X0020520Y0076719D02*
X0026100Y0076719D01*
X0026100Y0077518D02*
X0020700Y0077518D01*
X0020700Y0078316D02*
X0026100Y0078316D01*
X0026100Y0079115D02*
X0020597Y0079115D01*
X0020266Y0079913D02*
X0026100Y0079913D01*
X0026100Y0080712D02*
X0019779Y0080712D01*
X0018981Y0081510D02*
X0026100Y0081510D01*
X0026100Y0082309D02*
X0017258Y0082309D01*
X0016800Y0083906D02*
X0016000Y0083906D01*
X0016000Y0084704D02*
X0016800Y0084704D01*
X0016800Y0085503D02*
X0016000Y0085503D01*
X0016000Y0086301D02*
X0016800Y0086301D01*
X0016800Y0088697D02*
X0016000Y0088697D01*
X0016000Y0089495D02*
X0016800Y0089495D01*
X0016800Y0090294D02*
X0016000Y0090294D01*
X0016000Y0091092D02*
X0016800Y0091092D01*
X0016800Y0091891D02*
X0016000Y0091891D01*
X0020388Y0085503D02*
X0026100Y0085503D01*
X0026100Y0086301D02*
X0020787Y0086301D01*
X0019741Y0084704D02*
X0026100Y0084704D01*
X0026100Y0083906D02*
X0018698Y0083906D01*
X0015542Y0082309D02*
X0003300Y0082309D01*
X0003300Y0083107D02*
X0026100Y0083107D01*
X0026100Y0072726D02*
X0003300Y0072726D01*
X0003300Y0071928D02*
X0026100Y0071928D01*
X0026100Y0062346D02*
X0020700Y0062346D01*
X0020700Y0061547D02*
X0026100Y0061547D01*
X0026100Y0060749D02*
X0020700Y0060749D01*
X0020700Y0059950D02*
X0026100Y0059950D01*
X0026100Y0059152D02*
X0020700Y0059152D01*
X0020537Y0058353D02*
X0026100Y0058353D01*
X0026100Y0057555D02*
X0020169Y0057555D01*
X0020300Y0056756D02*
X0026100Y0056756D01*
X0026100Y0055958D02*
X0020300Y0055958D01*
X0020300Y0055159D02*
X0026100Y0055159D01*
X0026100Y0054361D02*
X0020300Y0054361D01*
X0020300Y0053562D02*
X0026100Y0053562D01*
X0026100Y0052764D02*
X0020300Y0052764D01*
X0020300Y0051965D02*
X0026100Y0051965D01*
X0026100Y0051167D02*
X0024918Y0051167D01*
X0025614Y0050368D02*
X0026100Y0050368D01*
X0026100Y0049570D02*
X0025945Y0049570D01*
X0025981Y0048771D02*
X0026100Y0048771D01*
X0026100Y0047973D02*
X0025830Y0047973D01*
X0026100Y0047174D02*
X0025439Y0047174D01*
X0026100Y0046376D02*
X0024510Y0046376D01*
X0026100Y0045577D02*
X0020300Y0045577D01*
X0020300Y0044779D02*
X0026100Y0044779D01*
X0026100Y0043980D02*
X0020300Y0043980D01*
X0020300Y0043182D02*
X0026100Y0043182D01*
X0026100Y0042383D02*
X0025401Y0042383D01*
X0028414Y0035196D02*
X0066148Y0035196D01*
X0063753Y0035995D02*
X0029525Y0035995D01*
X0029700Y0036793D02*
X0061357Y0036793D01*
X0061864Y0040786D02*
X0060764Y0040786D01*
X0060951Y0041585D02*
X0059349Y0041585D01*
X0058701Y0042383D02*
X0060565Y0042383D01*
X0060419Y0043182D02*
X0029700Y0043182D01*
X0029700Y0043980D02*
X0060459Y0043980D01*
X0060790Y0044779D02*
X0029700Y0044779D01*
X0029700Y0045577D02*
X0061493Y0045577D01*
X0060669Y0051167D02*
X0029700Y0051167D01*
X0029700Y0051965D02*
X0059921Y0051965D01*
X0059591Y0052764D02*
X0029700Y0052764D01*
X0029700Y0053562D02*
X0059519Y0053562D01*
X0059634Y0054361D02*
X0029700Y0054361D01*
X0029700Y0055159D02*
X0059975Y0055159D01*
X0060781Y0055958D02*
X0029700Y0055958D01*
X0029700Y0056756D02*
X0073700Y0056756D01*
X0073700Y0055958D02*
X0064019Y0055958D01*
X0064131Y0051167D02*
X0073700Y0051167D01*
X0073700Y0050368D02*
X0029700Y0050368D01*
X0029700Y0049570D02*
X0073700Y0049570D01*
X0073924Y0048771D02*
X0029700Y0048771D01*
X0029700Y0047973D02*
X0073849Y0047973D01*
X0074286Y0048410D02*
X0089500Y0048410D01*
X0089500Y0048410D01*
X0074286Y0048410D01*
X0073700Y0047174D02*
X0029700Y0047174D01*
X0029700Y0046376D02*
X0073700Y0046376D01*
X0073700Y0039988D02*
X0063159Y0039988D01*
X0065555Y0039189D02*
X0073700Y0039189D01*
X0074286Y0038410D02*
X0089500Y0038410D01*
X0089500Y0038410D01*
X0074286Y0038410D01*
X0074266Y0038390D02*
X0067950Y0038390D01*
X0068544Y0034398D02*
X0027188Y0034398D01*
X0025963Y0033599D02*
X0070939Y0033599D01*
X0072741Y0036793D02*
X0073700Y0036793D01*
X0073700Y0037592D02*
X0070346Y0037592D01*
X0073335Y0032801D02*
X0024737Y0032801D01*
X0023512Y0032002D02*
X0073700Y0032002D01*
X0073700Y0031204D02*
X0022326Y0031204D01*
X0020300Y0030405D02*
X0073700Y0030405D01*
X0075400Y0034010D02*
X0082700Y0033410D01*
X0082700Y0053410D02*
X0075900Y0053510D01*
X0058961Y0037592D02*
X0058009Y0037592D01*
X0055591Y0037592D02*
X0029700Y0037592D01*
X0029700Y0038390D02*
X0054545Y0038390D01*
X0054104Y0039189D02*
X0029700Y0039189D01*
X0029700Y0039988D02*
X0053919Y0039988D01*
X0053920Y0040786D02*
X0029700Y0040786D01*
X0029700Y0041585D02*
X0054251Y0041585D01*
X0054899Y0042383D02*
X0029700Y0042383D01*
X0021690Y0046376D02*
X0020300Y0046376D01*
X0020300Y0047174D02*
X0020761Y0047174D01*
X0019848Y0047973D02*
X0019751Y0047973D01*
X0019714Y0048010D02*
X0003300Y0048010D01*
X0019714Y0048010D01*
X0013207Y0075122D02*
X0012938Y0075122D01*
X0013819Y0081510D02*
X0003300Y0081510D01*
X0003300Y0080712D02*
X0004347Y0080712D01*
X0003549Y0079913D02*
X0003300Y0079913D01*
X0003300Y0083906D02*
X0014102Y0083906D01*
X0013059Y0084704D02*
X0012949Y0084704D01*
X0015452Y0102271D02*
X0003300Y0102271D01*
X0003300Y0104667D02*
X0005685Y0104667D01*
X0004190Y0105465D02*
X0003300Y0105465D01*
X0003300Y0106264D02*
X0003484Y0106264D01*
X0003361Y0109458D02*
X0003300Y0109458D01*
X0003300Y0110257D02*
X0003892Y0110257D01*
X0003300Y0111055D02*
X0004966Y0111055D01*
X0004766Y0115048D02*
X0003300Y0115048D01*
X0003300Y0115846D02*
X0003809Y0115846D01*
X0003326Y0116645D02*
X0003300Y0116645D01*
X0003300Y0119839D02*
X0003518Y0119839D01*
X0003300Y0120637D02*
X0004272Y0120637D01*
X0003300Y0121436D02*
X0013745Y0121436D01*
X0013699Y0124630D02*
X0003300Y0124630D01*
X0003300Y0125428D02*
X0004227Y0125428D01*
X0003499Y0126227D02*
X0003300Y0126227D01*
X0003300Y0123831D02*
X0015252Y0123831D01*
X0015362Y0122234D02*
X0003300Y0122234D01*
X0003300Y0123033D02*
X0027129Y0123033D01*
X0026819Y0122234D02*
X0017438Y0122234D01*
X0017548Y0123831D02*
X0027747Y0123831D01*
X0026819Y0121436D02*
X0019055Y0121436D01*
X0019854Y0120637D02*
X0027026Y0120637D01*
X0027497Y0119839D02*
X0020297Y0119839D01*
X0020628Y0119040D02*
X0028617Y0119040D01*
X0033347Y0111055D02*
X0019436Y0111055D01*
X0018357Y0111854D02*
X0034294Y0111854D01*
X0034464Y0111854D02*
X0042698Y0111854D01*
X0043497Y0112652D02*
X0041295Y0112652D01*
X0041534Y0113451D02*
X0044295Y0113451D01*
X0045094Y0114249D02*
X0041534Y0114249D01*
X0041534Y0115048D02*
X0045892Y0115048D01*
X0046691Y0115846D02*
X0041534Y0115846D01*
X0047248Y0103070D02*
X0051266Y0103070D01*
X0051266Y0102271D02*
X0048213Y0102271D01*
X0047743Y0098279D02*
X0051266Y0098279D01*
X0046600Y0090810D02*
X0058600Y0090810D01*
X0053502Y0071762D02*
X0053800Y0066159D01*
X0053500Y0061810D01*
X0046813Y0060749D02*
X0046281Y0060749D01*
X0038502Y0071762D02*
X0038502Y0076812D01*
X0046600Y0090810D01*
X0048900Y0133010D02*
X0046400Y0135510D01*
X0046400Y0138010D01*
X0040849Y0138010D01*
X0040731Y0138128D01*
X0039943Y0138915D01*
X0039943Y0148010D01*
X0041400Y0148010D01*
X0042800Y0147787D02*
X0052469Y0147787D01*
X0052469Y0147622D02*
X0049882Y0147622D01*
X0049882Y0145463D01*
X0049977Y0145107D01*
X0050162Y0144788D01*
X0050422Y0144527D01*
X0050741Y0144343D01*
X0051098Y0144248D01*
X0052469Y0144248D01*
X0052469Y0147622D01*
X0053244Y0147622D01*
X0053244Y0144248D01*
X0054616Y0144248D01*
X0054972Y0144343D01*
X0055291Y0144527D01*
X0055552Y0144788D01*
X0055736Y0145107D01*
X0055831Y0145463D01*
X0055831Y0147622D01*
X0053244Y0147622D01*
X0053244Y0148397D01*
X0055831Y0148397D01*
X0055831Y0150556D01*
X0055736Y0150912D01*
X0055552Y0151232D01*
X0055291Y0151492D01*
X0054972Y0151677D01*
X0054616Y0151772D01*
X0053244Y0151772D01*
X0053244Y0148397D01*
X0052469Y0148397D01*
X0052469Y0147622D01*
X0052469Y0146988D02*
X0053244Y0146988D01*
X0053244Y0146190D02*
X0052469Y0146190D01*
X0052469Y0145391D02*
X0053244Y0145391D01*
X0053244Y0144592D02*
X0052469Y0144592D01*
X0052469Y0142284D02*
X0052469Y0138528D01*
X0055831Y0138528D01*
X0055831Y0141068D01*
X0055736Y0141424D01*
X0055552Y0141743D01*
X0055291Y0142004D01*
X0054972Y0142188D01*
X0054616Y0142284D01*
X0052469Y0142284D01*
X0052469Y0142197D02*
X0051669Y0142197D01*
X0051669Y0142284D02*
X0049523Y0142284D01*
X0049167Y0142188D01*
X0048847Y0142004D01*
X0048587Y0141743D01*
X0048402Y0141424D01*
X0048307Y0141068D01*
X0048307Y0138528D01*
X0051669Y0138528D01*
X0051669Y0142284D01*
X0051669Y0141398D02*
X0052469Y0141398D01*
X0052469Y0140600D02*
X0051669Y0140600D01*
X0051669Y0139801D02*
X0052469Y0139801D01*
X0052469Y0139003D02*
X0051669Y0139003D01*
X0051669Y0138204D02*
X0047800Y0138204D01*
X0047800Y0137406D02*
X0048307Y0137406D01*
X0048307Y0136607D02*
X0047800Y0136607D01*
X0048081Y0135809D02*
X0048307Y0135809D01*
X0048900Y0133010D02*
X0063900Y0133010D01*
X0066400Y0135510D01*
X0066400Y0143010D01*
X0068900Y0145510D01*
X0073900Y0145510D01*
X0076400Y0148010D01*
X0076400Y0158010D02*
X0074943Y0158010D01*
X0066400Y0155510D01*
X0059943Y0148010D01*
X0060731Y0147222D01*
X0060731Y0138128D01*
X0059331Y0142197D02*
X0054940Y0142197D01*
X0055743Y0141398D02*
X0057469Y0141398D01*
X0057369Y0140600D02*
X0055831Y0140600D01*
X0055831Y0139801D02*
X0057369Y0139801D01*
X0057369Y0139003D02*
X0055831Y0139003D01*
X0055831Y0137406D02*
X0057369Y0137406D01*
X0057369Y0138204D02*
X0052469Y0138204D01*
X0052069Y0138128D02*
X0047187Y0143010D01*
X0046400Y0143010D01*
X0047387Y0139003D02*
X0048307Y0139003D01*
X0048307Y0139801D02*
X0044093Y0139801D01*
X0044093Y0140600D02*
X0048307Y0140600D01*
X0048396Y0141398D02*
X0043993Y0141398D01*
X0042518Y0145391D02*
X0049901Y0145391D01*
X0049882Y0146190D02*
X0042518Y0146190D01*
X0042518Y0146988D02*
X0049882Y0146988D01*
X0049882Y0148397D02*
X0052469Y0148397D01*
X0052469Y0151772D01*
X0051098Y0151772D01*
X0050741Y0151677D01*
X0050422Y0151492D01*
X0050162Y0151232D01*
X0049977Y0150912D01*
X0049882Y0150556D01*
X0049882Y0148397D01*
X0049882Y0148585D02*
X0042800Y0148585D01*
X0042518Y0149384D02*
X0049882Y0149384D01*
X0049882Y0150182D02*
X0042518Y0150182D01*
X0042324Y0150981D02*
X0050017Y0150981D01*
X0048032Y0155567D02*
X0048842Y0156378D01*
X0049281Y0157437D01*
X0049281Y0158583D01*
X0049270Y0158610D01*
X0051266Y0158610D01*
X0051266Y0157300D01*
X0051852Y0156715D01*
X0060948Y0156715D01*
X0061534Y0157300D01*
X0061534Y0163129D01*
X0060948Y0163715D01*
X0051852Y0163715D01*
X0051266Y0163129D01*
X0051266Y0161410D01*
X0041534Y0161410D01*
X0041534Y0163129D01*
X0040948Y0163715D01*
X0031852Y0163715D01*
X0031266Y0163129D01*
X0031266Y0157300D01*
X0031852Y0156715D01*
X0040948Y0156715D01*
X0041534Y0157300D01*
X0041534Y0158610D01*
X0043530Y0158610D01*
X0043519Y0158583D01*
X0043519Y0157437D01*
X0043958Y0156378D01*
X0044768Y0155567D01*
X0045827Y0155129D01*
X0046973Y0155129D01*
X0048032Y0155567D01*
X0048236Y0155772D02*
X0064778Y0155772D01*
X0065384Y0156570D02*
X0048922Y0156570D01*
X0049253Y0157369D02*
X0051266Y0157369D01*
X0051266Y0158167D02*
X0049281Y0158167D01*
X0046900Y0160010D02*
X0046400Y0159510D01*
X0045900Y0160010D01*
X0036605Y0160010D01*
X0036400Y0160215D01*
X0034616Y0151772D02*
X0033244Y0151772D01*
X0033244Y0148397D01*
X0035831Y0148397D01*
X0035831Y0150556D01*
X0035736Y0150912D01*
X0035552Y0151232D01*
X0035291Y0151492D01*
X0034972Y0151677D01*
X0034616Y0151772D01*
X0035697Y0150981D02*
X0037563Y0150981D01*
X0037369Y0150182D02*
X0035831Y0150182D01*
X0035831Y0149384D02*
X0037369Y0149384D01*
X0037369Y0148585D02*
X0035831Y0148585D01*
X0035831Y0147622D02*
X0033244Y0147622D01*
X0033244Y0144248D01*
X0034616Y0144248D01*
X0034972Y0144343D01*
X0035291Y0144527D01*
X0035552Y0144788D01*
X0035736Y0145107D01*
X0035831Y0145463D01*
X0035831Y0147622D01*
X0035831Y0146988D02*
X0037369Y0146988D01*
X0037369Y0146190D02*
X0035831Y0146190D01*
X0035812Y0145391D02*
X0037369Y0145391D01*
X0037369Y0147787D02*
X0033244Y0147787D01*
X0033244Y0147622D02*
X0033244Y0148397D01*
X0032469Y0148397D01*
X0032469Y0147622D01*
X0033244Y0147622D01*
X0033244Y0146988D02*
X0032469Y0146988D01*
X0032469Y0147622D02*
X0032469Y0144248D01*
X0031098Y0144248D01*
X0030741Y0144343D01*
X0030422Y0144527D01*
X0030162Y0144788D01*
X0029977Y0145107D01*
X0029882Y0145463D01*
X0029882Y0147622D01*
X0032469Y0147622D01*
X0032469Y0147787D02*
X0020700Y0147787D01*
X0020700Y0148585D02*
X0029882Y0148585D01*
X0029882Y0148397D02*
X0032469Y0148397D01*
X0032469Y0151772D01*
X0031098Y0151772D01*
X0030741Y0151677D01*
X0030422Y0151492D01*
X0030162Y0151232D01*
X0029977Y0150912D01*
X0029882Y0150556D01*
X0029882Y0148397D01*
X0029882Y0149384D02*
X0020485Y0149384D01*
X0020155Y0150182D02*
X0029882Y0150182D01*
X0030017Y0150981D02*
X0019510Y0150981D01*
X0018537Y0151779D02*
X0061341Y0151779D01*
X0062028Y0152578D02*
X0003300Y0152578D01*
X0003300Y0153376D02*
X0062716Y0153376D01*
X0063403Y0154175D02*
X0018377Y0154175D01*
X0019444Y0154973D02*
X0064091Y0154973D01*
X0061534Y0157369D02*
X0067767Y0157369D01*
X0070496Y0158167D02*
X0061534Y0158167D01*
X0061534Y0158966D02*
X0072142Y0158966D01*
X0072472Y0159764D02*
X0061534Y0159764D01*
X0061534Y0160563D02*
X0072872Y0160563D01*
X0073670Y0161361D02*
X0061534Y0161361D01*
X0061534Y0162160D02*
X0075182Y0162160D01*
X0075431Y0163757D02*
X0046721Y0163757D01*
X0047123Y0164555D02*
X0073773Y0164555D01*
X0072975Y0165354D02*
X0047281Y0165354D01*
X0047252Y0166152D02*
X0072515Y0166152D01*
X0072184Y0166951D02*
X0047821Y0166951D01*
X0048619Y0167749D02*
X0072100Y0167749D01*
X0072100Y0168548D02*
X0049300Y0168548D01*
X0049300Y0169346D02*
X0072299Y0169346D01*
X0072630Y0170145D02*
X0049300Y0170145D01*
X0049300Y0170943D02*
X0073252Y0170943D01*
X0074174Y0171742D02*
X0049300Y0171742D01*
X0049300Y0172540D02*
X0051617Y0172540D01*
X0051266Y0173339D02*
X0049300Y0173339D01*
X0049300Y0174137D02*
X0051266Y0174137D01*
X0051266Y0174936D02*
X0049300Y0174936D01*
X0049300Y0175734D02*
X0051266Y0175734D01*
X0051266Y0176533D02*
X0049300Y0176533D01*
X0049300Y0177331D02*
X0051266Y0177331D01*
X0051266Y0178130D02*
X0049300Y0178130D01*
X0049300Y0178928D02*
X0051475Y0178928D01*
X0049300Y0182123D02*
X0053713Y0182123D01*
X0053233Y0182921D02*
X0049300Y0182921D01*
X0049300Y0183720D02*
X0053019Y0183720D01*
X0053019Y0184518D02*
X0049300Y0184518D01*
X0049300Y0185317D02*
X0053323Y0185317D01*
X0053931Y0186115D02*
X0049300Y0186115D01*
X0049300Y0186914D02*
X0049888Y0186914D01*
X0049888Y0187712D02*
X0049300Y0187712D01*
X0049300Y0188511D02*
X0049888Y0188511D01*
X0049888Y0189309D02*
X0049300Y0189309D01*
X0049300Y0190108D02*
X0049888Y0190108D01*
X0049888Y0190906D02*
X0049300Y0190906D01*
X0049300Y0191705D02*
X0049888Y0191705D01*
X0049873Y0192503D02*
X0049888Y0192503D01*
X0047900Y0192510D02*
X0050400Y0195010D01*
X0054400Y0195010D01*
X0055500Y0196010D01*
X0055500Y0203510D01*
X0055600Y0204510D01*
X0055600Y0214010D01*
X0041400Y0218010D01*
X0016400Y0218010D01*
X0018108Y0214063D02*
X0050248Y0214063D01*
X0050194Y0213264D02*
X0042040Y0213264D01*
X0042518Y0212466D02*
X0049882Y0212466D01*
X0049882Y0211667D02*
X0042518Y0211667D01*
X0042518Y0210869D02*
X0049882Y0210869D01*
X0049882Y0209622D02*
X0049882Y0207463D01*
X0049977Y0207107D01*
X0050162Y0206788D01*
X0050422Y0206527D01*
X0050741Y0206343D01*
X0051098Y0206248D01*
X0052469Y0206248D01*
X0052469Y0209622D01*
X0049882Y0209622D01*
X0049882Y0209272D02*
X0042518Y0209272D01*
X0042518Y0210070D02*
X0052469Y0210070D01*
X0052469Y0209272D02*
X0053244Y0209272D01*
X0053244Y0208473D02*
X0052469Y0208473D01*
X0052469Y0207675D02*
X0053244Y0207675D01*
X0053244Y0206876D02*
X0052469Y0206876D01*
X0054200Y0206078D02*
X0042131Y0206078D01*
X0042131Y0205279D02*
X0054200Y0205279D01*
X0054190Y0204481D02*
X0042131Y0204481D01*
X0043709Y0203682D02*
X0048552Y0203682D01*
X0048587Y0203743D02*
X0048402Y0203424D01*
X0048307Y0203068D01*
X0048307Y0200528D01*
X0051669Y0200528D01*
X0051669Y0204284D01*
X0049523Y0204284D01*
X0049167Y0204188D01*
X0048847Y0204004D01*
X0048587Y0203743D01*
X0048307Y0202884D02*
X0044093Y0202884D01*
X0044093Y0202085D02*
X0048307Y0202085D01*
X0048307Y0201287D02*
X0044093Y0201287D01*
X0044093Y0200488D02*
X0051669Y0200488D01*
X0051669Y0201287D02*
X0052469Y0201287D01*
X0052469Y0202085D02*
X0051669Y0202085D01*
X0051669Y0202884D02*
X0052469Y0202884D01*
X0052469Y0203682D02*
X0051669Y0203682D01*
X0050111Y0206876D02*
X0042161Y0206876D01*
X0042518Y0207675D02*
X0049882Y0207675D01*
X0049882Y0208473D02*
X0042518Y0208473D01*
X0040731Y0209222D02*
X0040731Y0200128D01*
X0043849Y0197010D01*
X0046400Y0197010D01*
X0045341Y0199690D02*
X0044093Y0199690D01*
X0044093Y0198891D02*
X0044207Y0198891D01*
X0043182Y0195697D02*
X0020497Y0195697D01*
X0020420Y0195547D02*
X0020756Y0196206D01*
X0020984Y0196909D01*
X0021095Y0197610D01*
X0016800Y0197610D01*
X0016800Y0198410D01*
X0016000Y0198410D01*
X0016000Y0202705D01*
X0015299Y0202594D01*
X0014596Y0202365D01*
X0013937Y0202030D01*
X0013338Y0201595D01*
X0013015Y0201271D01*
X0012906Y0201344D01*
X0012222Y0201627D01*
X0011495Y0201772D01*
X0006787Y0201772D01*
X0006787Y0198397D01*
X0014883Y0198397D01*
X0014881Y0198410D01*
X0016000Y0198410D01*
X0016000Y0197610D01*
X0016800Y0197610D01*
X0016800Y0193315D01*
X0017501Y0193426D01*
X0018204Y0193654D01*
X0018863Y0193990D01*
X0019462Y0194425D01*
X0019985Y0194948D01*
X0020420Y0195547D01*
X0019936Y0194899D02*
X0044437Y0194899D01*
X0042672Y0193302D02*
X0046712Y0193302D01*
X0046500Y0192503D02*
X0042912Y0192503D01*
X0042912Y0193062D02*
X0042326Y0193648D01*
X0030474Y0193648D01*
X0029888Y0193062D01*
X0029888Y0186722D01*
X0030474Y0186136D01*
X0034600Y0186136D01*
X0034600Y0185231D01*
X0034473Y0184723D01*
X0034598Y0184515D01*
X0034419Y0184083D01*
X0034419Y0182937D01*
X0034598Y0182505D01*
X0034473Y0182297D01*
X0034800Y0180988D01*
X0034800Y0179305D01*
X0031852Y0179305D01*
X0031266Y0178719D01*
X0031266Y0172891D01*
X0031852Y0172305D01*
X0040948Y0172305D01*
X0041534Y0172891D01*
X0041534Y0178719D01*
X0040948Y0179305D01*
X0038000Y0179305D01*
X0038000Y0180681D01*
X0038932Y0181067D01*
X0039742Y0181878D01*
X0040181Y0182937D01*
X0040181Y0184083D01*
X0039742Y0185142D01*
X0038932Y0185952D01*
X0038489Y0186136D01*
X0042326Y0186136D01*
X0042912Y0186722D01*
X0042912Y0193062D01*
X0042912Y0191705D02*
X0046500Y0191705D01*
X0046500Y0190906D02*
X0042912Y0190906D01*
X0042912Y0190108D02*
X0046500Y0190108D01*
X0046500Y0189309D02*
X0042912Y0189309D01*
X0042912Y0188511D02*
X0046500Y0188511D01*
X0046500Y0187712D02*
X0042912Y0187712D01*
X0042912Y0186914D02*
X0046500Y0186914D01*
X0046500Y0186115D02*
X0038539Y0186115D01*
X0039568Y0185317D02*
X0046500Y0185317D01*
X0046500Y0184518D02*
X0040001Y0184518D01*
X0040181Y0183720D02*
X0046500Y0183720D01*
X0046500Y0182921D02*
X0040175Y0182921D01*
X0039844Y0182123D02*
X0046500Y0182123D01*
X0046500Y0181324D02*
X0039189Y0181324D01*
X0038000Y0180526D02*
X0046500Y0180526D01*
X0046500Y0179727D02*
X0038000Y0179727D01*
X0034800Y0179727D02*
X0020343Y0179727D01*
X0020674Y0178928D02*
X0031475Y0178928D01*
X0031266Y0178130D02*
X0020700Y0178130D01*
X0020700Y0177331D02*
X0031266Y0177331D01*
X0031266Y0176533D02*
X0020443Y0176533D01*
X0020112Y0175734D02*
X0031266Y0175734D01*
X0031266Y0174936D02*
X0019407Y0174936D01*
X0018288Y0174137D02*
X0031266Y0174137D01*
X0031266Y0173339D02*
X0003300Y0173339D01*
X0003300Y0174137D02*
X0014512Y0174137D01*
X0013393Y0174936D02*
X0012489Y0174936D01*
X0012828Y0170943D02*
X0013252Y0170943D01*
X0014174Y0171742D02*
X0003300Y0171742D01*
X0003300Y0172540D02*
X0031617Y0172540D01*
X0034800Y0180526D02*
X0019965Y0180526D01*
X0019167Y0181324D02*
X0034716Y0181324D01*
X0034516Y0182123D02*
X0017708Y0182123D01*
X0017279Y0183720D02*
X0034419Y0183720D01*
X0034425Y0182921D02*
X0003300Y0182921D01*
X0003300Y0182123D02*
X0015092Y0182123D01*
X0015521Y0183720D02*
X0003300Y0183720D01*
X0003300Y0184518D02*
X0013811Y0184518D01*
X0013633Y0181324D02*
X0011909Y0181324D01*
X0012918Y0190906D02*
X0013215Y0190906D01*
X0014084Y0191705D02*
X0003300Y0191705D01*
X0003300Y0192503D02*
X0029888Y0192503D01*
X0029888Y0191705D02*
X0018716Y0191705D01*
X0019585Y0190906D02*
X0029888Y0190906D01*
X0029888Y0190108D02*
X0020185Y0190108D01*
X0020516Y0189309D02*
X0029888Y0189309D01*
X0029888Y0188511D02*
X0020700Y0188511D01*
X0020700Y0187712D02*
X0029888Y0187712D01*
X0029888Y0186914D02*
X0020600Y0186914D01*
X0020269Y0186115D02*
X0034600Y0186115D01*
X0034600Y0185317D02*
X0019788Y0185317D01*
X0018989Y0184518D02*
X0034596Y0184518D01*
X0030128Y0193302D02*
X0003300Y0193302D01*
X0003300Y0194100D02*
X0013785Y0194100D01*
X0016000Y0194100D02*
X0016800Y0194100D01*
X0016800Y0194899D02*
X0016000Y0194899D01*
X0016000Y0195697D02*
X0016800Y0195697D01*
X0016800Y0196496D02*
X0016000Y0196496D01*
X0016000Y0197294D02*
X0016800Y0197294D01*
X0016800Y0198093D02*
X0028307Y0198093D01*
X0028307Y0198891D02*
X0021019Y0198891D01*
X0020984Y0199110D02*
X0020756Y0199814D01*
X0020420Y0200473D01*
X0019985Y0201072D01*
X0019462Y0201595D01*
X0018863Y0202030D01*
X0018204Y0202365D01*
X0017501Y0202594D01*
X0016800Y0202705D01*
X0016800Y0198410D01*
X0021095Y0198410D01*
X0020984Y0199110D01*
X0020796Y0199690D02*
X0028307Y0199690D01*
X0028307Y0199728D02*
X0028307Y0197188D01*
X0028402Y0196832D01*
X0028587Y0196512D01*
X0028847Y0196252D01*
X0029167Y0196067D01*
X0029523Y0195972D01*
X0031669Y0195972D01*
X0031669Y0199728D01*
X0028307Y0199728D01*
X0028307Y0200528D02*
X0031669Y0200528D01*
X0031669Y0199728D01*
X0032469Y0199728D01*
X0032469Y0195972D01*
X0034616Y0195972D01*
X0034972Y0196067D01*
X0035291Y0196252D01*
X0035552Y0196512D01*
X0035736Y0196832D01*
X0035831Y0197188D01*
X0035831Y0199728D01*
X0032469Y0199728D01*
X0032469Y0200528D01*
X0031669Y0200528D01*
X0031669Y0204284D01*
X0029523Y0204284D01*
X0029167Y0204188D01*
X0028847Y0204004D01*
X0028587Y0203743D01*
X0028402Y0203424D01*
X0028307Y0203068D01*
X0028307Y0200528D01*
X0028307Y0201287D02*
X0019770Y0201287D01*
X0020409Y0200488D02*
X0031669Y0200488D01*
X0031669Y0199690D02*
X0032469Y0199690D01*
X0032469Y0200488D02*
X0037369Y0200488D01*
X0037369Y0199690D02*
X0035831Y0199690D01*
X0035831Y0198891D02*
X0037369Y0198891D01*
X0037369Y0198093D02*
X0035831Y0198093D01*
X0035831Y0197294D02*
X0037369Y0197294D01*
X0037831Y0196496D02*
X0035535Y0196496D01*
X0035831Y0200528D02*
X0035831Y0203068D01*
X0035736Y0203424D01*
X0035552Y0203743D01*
X0035291Y0204004D01*
X0034972Y0204188D01*
X0034616Y0204284D01*
X0032469Y0204284D01*
X0032469Y0200528D01*
X0035831Y0200528D01*
X0035831Y0201287D02*
X0037369Y0201287D01*
X0037369Y0202085D02*
X0035831Y0202085D01*
X0035831Y0202884D02*
X0037369Y0202884D01*
X0037753Y0203682D02*
X0035587Y0203682D01*
X0034972Y0206343D02*
X0035291Y0206527D01*
X0035552Y0206788D01*
X0035736Y0207107D01*
X0035831Y0207463D01*
X0035831Y0209622D01*
X0033244Y0209622D01*
X0033244Y0206248D01*
X0034616Y0206248D01*
X0034972Y0206343D01*
X0035603Y0206876D02*
X0037726Y0206876D01*
X0037369Y0207675D02*
X0035831Y0207675D01*
X0035831Y0208473D02*
X0037369Y0208473D01*
X0037369Y0209272D02*
X0035831Y0209272D01*
X0035831Y0210397D02*
X0035831Y0212556D01*
X0035736Y0212912D01*
X0035552Y0213232D01*
X0035291Y0213492D01*
X0034972Y0213677D01*
X0034616Y0213772D01*
X0033244Y0213772D01*
X0033244Y0210397D01*
X0035831Y0210397D01*
X0035831Y0210869D02*
X0037369Y0210869D01*
X0037369Y0211667D02*
X0035831Y0211667D01*
X0035831Y0212466D02*
X0037369Y0212466D01*
X0037847Y0213264D02*
X0035519Y0213264D01*
X0033244Y0213264D02*
X0032469Y0213264D01*
X0032469Y0213772D02*
X0031098Y0213772D01*
X0030741Y0213677D01*
X0030422Y0213492D01*
X0030162Y0213232D01*
X0029977Y0212912D01*
X0029882Y0212556D01*
X0029882Y0210397D01*
X0032469Y0210397D01*
X0032469Y0209622D01*
X0033244Y0209622D01*
X0033244Y0210397D01*
X0032469Y0210397D01*
X0032469Y0213772D01*
X0032469Y0212466D02*
X0033244Y0212466D01*
X0033244Y0211667D02*
X0032469Y0211667D01*
X0032469Y0210869D02*
X0033244Y0210869D01*
X0033244Y0210070D02*
X0037369Y0210070D01*
X0039943Y0210009D02*
X0039997Y0210007D01*
X0040050Y0210002D01*
X0040103Y0209993D01*
X0040155Y0209980D01*
X0040207Y0209964D01*
X0040257Y0209944D01*
X0040305Y0209921D01*
X0040352Y0209894D01*
X0040397Y0209865D01*
X0040440Y0209832D01*
X0040480Y0209797D01*
X0040518Y0209759D01*
X0040553Y0209719D01*
X0040586Y0209676D01*
X0040615Y0209631D01*
X0040642Y0209584D01*
X0040665Y0209536D01*
X0040685Y0209486D01*
X0040701Y0209434D01*
X0040714Y0209382D01*
X0040723Y0209329D01*
X0040728Y0209276D01*
X0040730Y0209222D01*
X0039331Y0206078D02*
X0020254Y0206078D01*
X0020585Y0206876D02*
X0030111Y0206876D01*
X0030162Y0206788D02*
X0030422Y0206527D01*
X0030741Y0206343D01*
X0031098Y0206248D01*
X0032469Y0206248D01*
X0032469Y0209622D01*
X0029882Y0209622D01*
X0029882Y0207463D01*
X0029977Y0207107D01*
X0030162Y0206788D01*
X0029882Y0207675D02*
X0020700Y0207675D01*
X0020700Y0208473D02*
X0029882Y0208473D01*
X0029882Y0209272D02*
X0020532Y0209272D01*
X0020201Y0210070D02*
X0032469Y0210070D01*
X0032469Y0209272D02*
X0033244Y0209272D01*
X0033244Y0208473D02*
X0032469Y0208473D01*
X0032469Y0207675D02*
X0033244Y0207675D01*
X0033244Y0206876D02*
X0032469Y0206876D01*
X0032469Y0203682D02*
X0031669Y0203682D01*
X0031669Y0202884D02*
X0032469Y0202884D01*
X0032469Y0202085D02*
X0031669Y0202085D01*
X0031669Y0201287D02*
X0032469Y0201287D01*
X0032469Y0198891D02*
X0031669Y0198891D01*
X0031669Y0198093D02*
X0032469Y0198093D01*
X0032469Y0197294D02*
X0031669Y0197294D01*
X0031669Y0196496D02*
X0032469Y0196496D01*
X0028604Y0196496D02*
X0020850Y0196496D01*
X0021045Y0197294D02*
X0028307Y0197294D01*
X0028307Y0202085D02*
X0018754Y0202085D01*
X0018952Y0204481D02*
X0039331Y0204481D01*
X0039331Y0205279D02*
X0019751Y0205279D01*
X0019622Y0210869D02*
X0029882Y0210869D01*
X0029882Y0211667D02*
X0018806Y0211667D01*
X0019333Y0214861D02*
X0047413Y0214861D01*
X0044579Y0215660D02*
X0020081Y0215660D01*
X0020412Y0216459D02*
X0041744Y0216459D01*
X0047459Y0199690D02*
X0048307Y0199690D01*
X0047510Y0194100D02*
X0019015Y0194100D01*
X0016000Y0198093D02*
X0006787Y0198093D01*
X0006787Y0198891D02*
X0006013Y0198891D01*
X0006013Y0199690D02*
X0006787Y0199690D01*
X0006787Y0200488D02*
X0006013Y0200488D01*
X0006013Y0201287D02*
X0006787Y0201287D01*
X0006787Y0197294D02*
X0006013Y0197294D01*
X0006013Y0196496D02*
X0006787Y0196496D01*
X0006787Y0195697D02*
X0006013Y0195697D01*
X0006013Y0194899D02*
X0006787Y0194899D01*
X0004284Y0194899D02*
X0003300Y0194899D01*
X0003300Y0195697D02*
X0003420Y0195697D01*
X0003300Y0190906D02*
X0004606Y0190906D01*
X0003743Y0190108D02*
X0003300Y0190108D01*
X0003300Y0186115D02*
X0003546Y0186115D01*
X0003300Y0185317D02*
X0004338Y0185317D01*
X0003300Y0181324D02*
X0005615Y0181324D01*
X0004161Y0180526D02*
X0003300Y0180526D01*
X0003300Y0179727D02*
X0003472Y0179727D01*
X0003373Y0176533D02*
X0003300Y0176533D01*
X0003300Y0175734D02*
X0003921Y0175734D01*
X0003300Y0174936D02*
X0005035Y0174936D01*
X0004696Y0170943D02*
X0003300Y0170943D01*
X0003300Y0170145D02*
X0003780Y0170145D01*
X0003314Y0169346D02*
X0003300Y0169346D01*
X0003300Y0166152D02*
X0003530Y0166152D01*
X0003300Y0165354D02*
X0004301Y0165354D01*
X0003300Y0164555D02*
X0013773Y0164555D01*
X0015431Y0163757D02*
X0003300Y0163757D01*
X0003300Y0162958D02*
X0031266Y0162958D01*
X0031266Y0162160D02*
X0017618Y0162160D01*
X0017369Y0163757D02*
X0042079Y0163757D01*
X0041677Y0164555D02*
X0019027Y0164555D01*
X0019825Y0165354D02*
X0041519Y0165354D01*
X0041548Y0166152D02*
X0020285Y0166152D01*
X0020616Y0166951D02*
X0041878Y0166951D01*
X0042565Y0167749D02*
X0020700Y0167749D01*
X0020700Y0168548D02*
X0045458Y0168548D01*
X0046257Y0169346D02*
X0020501Y0169346D01*
X0020170Y0170145D02*
X0046500Y0170145D01*
X0046500Y0170943D02*
X0019548Y0170943D01*
X0018626Y0171742D02*
X0046500Y0171742D01*
X0046500Y0172540D02*
X0041183Y0172540D01*
X0041534Y0173339D02*
X0046500Y0173339D01*
X0046500Y0174137D02*
X0041534Y0174137D01*
X0041534Y0174936D02*
X0046500Y0174936D01*
X0046500Y0175734D02*
X0041534Y0175734D01*
X0041534Y0176533D02*
X0046500Y0176533D01*
X0046500Y0177331D02*
X0041534Y0177331D01*
X0041534Y0178130D02*
X0046500Y0178130D01*
X0046500Y0178928D02*
X0041325Y0178928D01*
X0047900Y0169010D02*
X0044400Y0165510D01*
X0045769Y0162958D02*
X0051266Y0162958D01*
X0051266Y0162160D02*
X0041534Y0162160D01*
X0041534Y0162958D02*
X0043031Y0162958D01*
X0043519Y0158167D02*
X0041534Y0158167D01*
X0041534Y0157369D02*
X0043547Y0157369D01*
X0043878Y0156570D02*
X0020458Y0156570D01*
X0020700Y0157369D02*
X0031266Y0157369D01*
X0031266Y0158167D02*
X0020700Y0158167D01*
X0020658Y0158966D02*
X0031266Y0158966D01*
X0031266Y0159764D02*
X0020328Y0159764D01*
X0019928Y0160563D02*
X0031266Y0160563D01*
X0031266Y0161361D02*
X0019130Y0161361D01*
X0020127Y0155772D02*
X0044564Y0155772D01*
X0046900Y0160010D02*
X0056195Y0160010D01*
X0056400Y0160215D01*
X0055697Y0150981D02*
X0057563Y0150981D01*
X0057369Y0150182D02*
X0055831Y0150182D01*
X0055831Y0149384D02*
X0057369Y0149384D01*
X0057369Y0148585D02*
X0055831Y0148585D01*
X0055831Y0146988D02*
X0057369Y0146988D01*
X0057369Y0146190D02*
X0055831Y0146190D01*
X0055812Y0145391D02*
X0057369Y0145391D01*
X0057369Y0147787D02*
X0053244Y0147787D01*
X0053244Y0148585D02*
X0052469Y0148585D01*
X0052469Y0149384D02*
X0053244Y0149384D01*
X0053244Y0150182D02*
X0052469Y0150182D01*
X0052469Y0150981D02*
X0053244Y0150981D01*
X0055356Y0144592D02*
X0059331Y0144592D01*
X0059331Y0143794D02*
X0041343Y0143794D01*
X0041343Y0144592D02*
X0050357Y0144592D01*
X0049199Y0142197D02*
X0041343Y0142197D01*
X0041343Y0142995D02*
X0059331Y0142995D01*
X0057369Y0136607D02*
X0055831Y0136607D01*
X0055831Y0135809D02*
X0057369Y0135809D01*
X0057369Y0135010D02*
X0055784Y0135010D01*
X0061534Y0162958D02*
X0089500Y0162958D01*
X0089500Y0162160D02*
X0077618Y0162160D01*
X0077369Y0163757D02*
X0089500Y0163757D01*
X0089500Y0164555D02*
X0079027Y0164555D01*
X0079130Y0161361D02*
X0080981Y0161361D01*
X0078626Y0171742D02*
X0089500Y0171742D01*
X0089500Y0172540D02*
X0061183Y0172540D01*
X0061534Y0173339D02*
X0089500Y0173339D01*
X0089500Y0174137D02*
X0078288Y0174137D01*
X0079407Y0174936D02*
X0080311Y0174936D01*
X0080891Y0181324D02*
X0079167Y0181324D01*
X0077708Y0182123D02*
X0089500Y0182123D01*
X0089500Y0182921D02*
X0070641Y0182921D01*
X0070781Y0182123D02*
X0075092Y0182123D01*
X0075521Y0183720D02*
X0070265Y0183720D01*
X0069373Y0184518D02*
X0073811Y0184518D01*
X0073012Y0185317D02*
X0069300Y0185317D01*
X0069300Y0186115D02*
X0072531Y0186115D01*
X0072200Y0186914D02*
X0069300Y0186914D01*
X0069300Y0187712D02*
X0072100Y0187712D01*
X0072100Y0188511D02*
X0069300Y0188511D01*
X0069834Y0189309D02*
X0072284Y0189309D01*
X0072072Y0190108D02*
X0072615Y0190108D01*
X0072854Y0190906D02*
X0073215Y0190906D01*
X0073185Y0191705D02*
X0074084Y0191705D01*
X0073281Y0192503D02*
X0089500Y0192503D01*
X0089500Y0191705D02*
X0078716Y0191705D01*
X0078198Y0194100D02*
X0089500Y0194100D01*
X0089500Y0193302D02*
X0073190Y0193302D01*
X0072860Y0194100D02*
X0074602Y0194100D01*
X0073430Y0194899D02*
X0072086Y0194899D01*
X0072704Y0195697D02*
X0062693Y0195697D01*
X0063631Y0196496D02*
X0072373Y0196496D01*
X0070400Y0192510D02*
X0067900Y0189010D01*
X0067900Y0182010D01*
X0066108Y0179727D02*
X0058200Y0179727D01*
X0058200Y0180526D02*
X0065396Y0180526D01*
X0065066Y0181324D02*
X0064445Y0181324D01*
X0063400Y0184010D02*
X0063400Y0193510D01*
X0061900Y0194510D01*
X0058400Y0194510D01*
X0057200Y0196610D01*
X0057200Y0213610D01*
X0060400Y0216510D01*
X0074900Y0216510D01*
X0076400Y0218010D01*
X0076400Y0198010D02*
X0062849Y0198010D01*
X0060731Y0200128D01*
X0060677Y0200130D01*
X0060624Y0200135D01*
X0060571Y0200144D01*
X0060519Y0200157D01*
X0060467Y0200173D01*
X0060417Y0200193D01*
X0060369Y0200216D01*
X0060322Y0200243D01*
X0060277Y0200272D01*
X0060234Y0200305D01*
X0060194Y0200340D01*
X0060156Y0200378D01*
X0060121Y0200418D01*
X0060088Y0200461D01*
X0060059Y0200506D01*
X0060032Y0200553D01*
X0060009Y0200601D01*
X0059989Y0200651D01*
X0059973Y0200703D01*
X0059960Y0200755D01*
X0059951Y0200808D01*
X0059946Y0200861D01*
X0059944Y0200915D01*
X0059943Y0200915D02*
X0059943Y0210010D01*
X0063991Y0194899D02*
X0068714Y0194899D01*
X0067940Y0194100D02*
X0064790Y0194100D01*
X0064869Y0193302D02*
X0067610Y0193302D01*
X0067519Y0192503D02*
X0064800Y0192503D01*
X0064800Y0191705D02*
X0067615Y0191705D01*
X0067534Y0190906D02*
X0064800Y0190906D01*
X0064800Y0190108D02*
X0066964Y0190108D01*
X0066431Y0189309D02*
X0064800Y0189309D01*
X0064800Y0188511D02*
X0066500Y0188511D01*
X0066500Y0187712D02*
X0064800Y0187712D01*
X0064800Y0186914D02*
X0066500Y0186914D01*
X0066500Y0186115D02*
X0065369Y0186115D01*
X0065977Y0185317D02*
X0066500Y0185317D01*
X0066427Y0184518D02*
X0066281Y0184518D01*
X0062355Y0181324D02*
X0058200Y0181324D01*
X0058200Y0182123D02*
X0061213Y0182123D01*
X0060733Y0182921D02*
X0058567Y0182921D01*
X0058781Y0183720D02*
X0060519Y0183720D01*
X0060519Y0184518D02*
X0058781Y0184518D01*
X0058477Y0185317D02*
X0060823Y0185317D01*
X0061431Y0186115D02*
X0058200Y0186115D01*
X0061325Y0178928D02*
X0072126Y0178928D01*
X0072100Y0178130D02*
X0061534Y0178130D01*
X0061534Y0177331D02*
X0072100Y0177331D01*
X0072357Y0176533D02*
X0061534Y0176533D01*
X0061534Y0175734D02*
X0072688Y0175734D01*
X0073393Y0174936D02*
X0061534Y0174936D01*
X0061534Y0174137D02*
X0074512Y0174137D01*
X0072457Y0179727D02*
X0069692Y0179727D01*
X0070404Y0180526D02*
X0072835Y0180526D01*
X0073633Y0181324D02*
X0070734Y0181324D01*
X0077279Y0183720D02*
X0089500Y0183720D01*
X0089500Y0184518D02*
X0078989Y0184518D01*
X0079370Y0194899D02*
X0080401Y0194899D01*
X0087675Y0194899D02*
X0089500Y0194899D01*
X0089500Y0195697D02*
X0088842Y0195697D01*
X0089412Y0196496D02*
X0089500Y0196496D01*
X0089500Y0190906D02*
X0088194Y0190906D01*
X0089057Y0190108D02*
X0089500Y0190108D01*
X0089500Y0186115D02*
X0089254Y0186115D01*
X0089500Y0185317D02*
X0088462Y0185317D01*
X0089500Y0181324D02*
X0087185Y0181324D01*
X0088639Y0180526D02*
X0089500Y0180526D01*
X0089500Y0179727D02*
X0089328Y0179727D01*
X0089427Y0176533D02*
X0089500Y0176533D01*
X0089500Y0175734D02*
X0088879Y0175734D01*
X0089500Y0174936D02*
X0087765Y0174936D01*
X0088104Y0170943D02*
X0089500Y0170943D01*
X0089500Y0170145D02*
X0089020Y0170145D01*
X0089486Y0169346D02*
X0089500Y0169346D01*
X0089500Y0166152D02*
X0089270Y0166152D01*
X0089500Y0165354D02*
X0088499Y0165354D01*
X0089500Y0161361D02*
X0087095Y0161361D01*
X0088602Y0160563D02*
X0089500Y0160563D01*
X0089500Y0159764D02*
X0089313Y0159764D01*
X0089285Y0146190D02*
X0089500Y0146190D01*
X0089500Y0145391D02*
X0088536Y0145391D01*
X0080152Y0131018D02*
X0079473Y0131018D01*
X0088528Y0120637D02*
X0089500Y0120637D01*
X0089500Y0119839D02*
X0089282Y0119839D01*
X0089474Y0116645D02*
X0089500Y0116645D01*
X0089500Y0115846D02*
X0088991Y0115846D01*
X0089500Y0115048D02*
X0088034Y0115048D01*
X0088614Y0111055D02*
X0089500Y0111055D01*
X0089500Y0110257D02*
X0089424Y0110257D01*
X0054600Y0179727D02*
X0049300Y0179727D01*
X0049300Y0180526D02*
X0054600Y0180526D01*
X0054600Y0181324D02*
X0049300Y0181324D01*
X0047900Y0192510D02*
X0047900Y0169010D01*
X0038543Y0144592D02*
X0035356Y0144592D01*
X0034616Y0142284D02*
X0032469Y0142284D01*
X0032469Y0138528D01*
X0035831Y0138528D01*
X0035831Y0141068D01*
X0035736Y0141424D01*
X0035552Y0141743D01*
X0035291Y0142004D01*
X0034972Y0142188D01*
X0034616Y0142284D01*
X0034940Y0142197D02*
X0038543Y0142197D01*
X0038543Y0142995D02*
X0003300Y0142995D01*
X0003300Y0142197D02*
X0015272Y0142197D01*
X0015342Y0143794D02*
X0003300Y0143794D01*
X0003300Y0144592D02*
X0013736Y0144592D01*
X0013708Y0141398D02*
X0003300Y0141398D01*
X0003300Y0140600D02*
X0004235Y0140600D01*
X0003503Y0139801D02*
X0003300Y0139801D01*
X0003300Y0136607D02*
X0003342Y0136607D01*
X0003300Y0135809D02*
X0003846Y0135809D01*
X0003300Y0135010D02*
X0004856Y0135010D01*
X0003300Y0134212D02*
X0014333Y0134212D01*
X0013318Y0135010D02*
X0012669Y0135010D01*
X0014353Y0131816D02*
X0003300Y0131816D01*
X0003300Y0131018D02*
X0004876Y0131018D01*
X0003855Y0130219D02*
X0003300Y0130219D01*
X0003300Y0129421D02*
X0003345Y0129421D01*
X0003300Y0132615D02*
X0023519Y0132615D01*
X0023519Y0133413D02*
X0003300Y0133413D01*
X0003300Y0145391D02*
X0004264Y0145391D01*
X0003515Y0146190D02*
X0003300Y0146190D01*
X0003300Y0149384D02*
X0003330Y0149384D01*
X0003300Y0150182D02*
X0003817Y0150182D01*
X0003300Y0150981D02*
X0004786Y0150981D01*
X0003300Y0151779D02*
X0014263Y0151779D01*
X0013290Y0150981D02*
X0012738Y0150981D01*
X0014423Y0154175D02*
X0003300Y0154175D01*
X0003300Y0154973D02*
X0004945Y0154973D01*
X0003883Y0155772D02*
X0003300Y0155772D01*
X0003300Y0156570D02*
X0003357Y0156570D01*
X0003300Y0159764D02*
X0003487Y0159764D01*
X0003300Y0160563D02*
X0004198Y0160563D01*
X0003300Y0161361D02*
X0005705Y0161361D01*
X0003300Y0162160D02*
X0015182Y0162160D01*
X0013670Y0161361D02*
X0011819Y0161361D01*
X0012579Y0154973D02*
X0013356Y0154973D01*
X0017458Y0143794D02*
X0038543Y0143794D01*
X0037469Y0141398D02*
X0035743Y0141398D01*
X0035831Y0140600D02*
X0037369Y0140600D01*
X0037369Y0139801D02*
X0035831Y0139801D01*
X0035831Y0139003D02*
X0037369Y0139003D01*
X0037369Y0138204D02*
X0032469Y0138204D01*
X0032469Y0139003D02*
X0031669Y0139003D01*
X0031669Y0138528D02*
X0031669Y0142284D01*
X0029523Y0142284D01*
X0029167Y0142188D01*
X0028847Y0142004D01*
X0028587Y0141743D01*
X0028402Y0141424D01*
X0028307Y0141068D01*
X0028307Y0138528D01*
X0031669Y0138528D01*
X0031669Y0138204D02*
X0020700Y0138204D01*
X0020700Y0137406D02*
X0028307Y0137406D01*
X0028307Y0136607D02*
X0020473Y0136607D01*
X0020143Y0135809D02*
X0025629Y0135809D01*
X0024326Y0135010D02*
X0019482Y0135010D01*
X0018467Y0134212D02*
X0023779Y0134212D01*
X0023776Y0131816D02*
X0018447Y0131816D01*
X0019473Y0131018D02*
X0024318Y0131018D01*
X0027171Y0135809D02*
X0028307Y0135809D01*
X0028307Y0139003D02*
X0020643Y0139003D01*
X0020312Y0139801D02*
X0028307Y0139801D01*
X0028307Y0140600D02*
X0019891Y0140600D01*
X0019092Y0141398D02*
X0028396Y0141398D01*
X0029199Y0142197D02*
X0017528Y0142197D01*
X0019064Y0144592D02*
X0030357Y0144592D01*
X0029901Y0145391D02*
X0019862Y0145391D01*
X0020300Y0146190D02*
X0029882Y0146190D01*
X0029882Y0146988D02*
X0020631Y0146988D01*
X0013327Y0131018D02*
X0012648Y0131018D01*
X0004241Y0091092D02*
X0003300Y0091092D01*
X0003300Y0090294D02*
X0003401Y0090294D01*
X0003300Y0085503D02*
X0003587Y0085503D01*
X0003300Y0084704D02*
X0004576Y0084704D01*
X0003734Y0075921D02*
X0003300Y0075921D01*
X0003300Y0075122D02*
X0004586Y0075122D01*
X0003300Y0048010D02*
X0003300Y0048010D01*
X0035784Y0135010D02*
X0037369Y0135010D01*
X0037369Y0135809D02*
X0035831Y0135809D01*
X0035831Y0136607D02*
X0037369Y0136607D01*
X0037369Y0137406D02*
X0035831Y0137406D01*
X0033244Y0144592D02*
X0032469Y0144592D01*
X0032469Y0145391D02*
X0033244Y0145391D01*
X0033244Y0146190D02*
X0032469Y0146190D01*
X0032469Y0148585D02*
X0033244Y0148585D01*
X0033244Y0149384D02*
X0032469Y0149384D01*
X0032469Y0150182D02*
X0033244Y0150182D01*
X0033244Y0150981D02*
X0032469Y0150981D01*
X0032469Y0142197D02*
X0031669Y0142197D01*
X0031669Y0141398D02*
X0032469Y0141398D01*
X0032469Y0140600D02*
X0031669Y0140600D01*
X0031669Y0139801D02*
X0032469Y0139801D01*
X0016800Y0198891D02*
X0016000Y0198891D01*
X0016000Y0199690D02*
X0016800Y0199690D01*
X0016800Y0200488D02*
X0016000Y0200488D01*
X0016000Y0201287D02*
X0016800Y0201287D01*
X0016800Y0202085D02*
X0016000Y0202085D01*
X0014046Y0202085D02*
X0003300Y0202085D01*
X0003300Y0201287D02*
X0004533Y0201287D01*
X0003558Y0200488D02*
X0003300Y0200488D01*
X0003300Y0202884D02*
X0028307Y0202884D01*
X0028552Y0203682D02*
X0003300Y0203682D01*
X0003300Y0204481D02*
X0013848Y0204481D01*
X0013030Y0201287D02*
X0012992Y0201287D01*
X0013008Y0210869D02*
X0013178Y0210869D01*
X0013994Y0211667D02*
X0003300Y0211667D01*
X0003300Y0210869D02*
X0004517Y0210869D01*
X0003706Y0210070D02*
X0003300Y0210070D01*
X0003300Y0212466D02*
X0029882Y0212466D01*
X0030194Y0213264D02*
X0003300Y0213264D01*
X0003300Y0214063D02*
X0014692Y0214063D01*
X0013467Y0214861D02*
X0012309Y0214861D01*
X0005215Y0214861D02*
X0003300Y0214861D01*
X0003300Y0215660D02*
X0003995Y0215660D01*
X0003403Y0216459D02*
X0003300Y0216459D01*
X0003300Y0206078D02*
X0003577Y0206078D01*
X0003300Y0205279D02*
X0004376Y0205279D01*
D20*
X0026400Y0133010D03*
X0029700Y0121710D03*
X0046400Y0123010D03*
X0048900Y0108010D03*
X0045900Y0100510D03*
X0051600Y0084010D03*
X0054400Y0094010D03*
X0059900Y0094010D03*
X0053500Y0061810D03*
X0048400Y0063210D03*
X0043400Y0061110D03*
X0056800Y0040210D03*
X0062400Y0053510D03*
X0063300Y0043310D03*
X0023700Y0040010D03*
X0023100Y0048910D03*
X0046400Y0143010D03*
X0046400Y0158010D03*
X0044400Y0165510D03*
X0037300Y0183510D03*
X0046400Y0197010D03*
X0055900Y0184010D03*
X0063400Y0184010D03*
X0067900Y0182010D03*
X0070400Y0192510D03*
D21*
X0056400Y0189892D02*
X0056400Y0184510D01*
X0055900Y0184010D02*
X0056400Y0183510D01*
X0056400Y0175805D01*
X0037300Y0183510D02*
X0036400Y0182010D01*
X0037300Y0183510D02*
X0036400Y0185010D01*
X0036400Y0189892D01*
X0036400Y0127892D02*
X0036400Y0123510D01*
X0033600Y0122610D01*
X0029700Y0121710D01*
X0034900Y0110010D02*
X0043400Y0110010D01*
X0048900Y0115510D01*
X0056105Y0115510D01*
X0056400Y0115805D02*
X0056400Y0127892D01*
X0036400Y0123510D02*
X0036400Y0115805D01*
X0034900Y0110010D02*
X0027900Y0104110D01*
X0027900Y0037010D01*
X0021300Y0032710D01*
X0011300Y0033010D01*
X0011300Y0043010D02*
X0015200Y0043010D01*
X0023700Y0040010D01*
X0023100Y0048910D02*
X0009200Y0052910D01*
X0056800Y0040210D02*
X0075400Y0034010D01*
X0075900Y0053510D02*
X0062400Y0053510D01*
D22*
X0056400Y0100215D02*
X0036400Y0100215D01*
X0045605Y0100215D01*
X0045900Y0100510D01*
X0056105Y0115510D02*
X0056400Y0115805D01*
X0046400Y0158010D02*
X0046400Y0159510D01*
X0055900Y0184010D02*
X0056400Y0184510D01*
X0036400Y0182010D02*
X0036400Y0175805D01*
X0011300Y0053010D02*
X0009200Y0052910D01*
D23*
X0076400Y0078010D02*
X0086400Y0078010D01*
X0086400Y0088010D02*
X0076400Y0088010D01*
X0076400Y0098010D02*
X0086400Y0098010D01*
X0086400Y0118010D02*
X0076400Y0118010D01*
X0076400Y0128010D02*
X0086400Y0128010D01*
X0086400Y0138010D02*
X0076400Y0138010D01*
X0076400Y0148010D02*
X0086400Y0148010D01*
X0086400Y0158010D02*
X0076400Y0158010D01*
X0076400Y0168010D02*
X0086400Y0168010D01*
X0086400Y0178010D02*
X0076400Y0178010D01*
X0076400Y0188010D02*
X0086400Y0188010D01*
X0086400Y0198010D02*
X0076400Y0198010D01*
X0076400Y0208010D02*
X0086400Y0208010D01*
X0086400Y0218010D02*
X0076400Y0218010D01*
D24*
X0028900Y0133010D02*
X0026400Y0133010D01*
D25*
X0063300Y0043310D02*
X0082700Y0043410D01*
M02*
