G75*
%MOIN*%
%OFA0B0*%
%FSLAX25Y25*%
%IPPOS*%
%LPD*%
%AMOC8*
5,1,8,0,0,1.08239X$1,22.5*
%
%ADD10C,0.00000*%
%ADD11R,0.08268X0.05000*%
%ADD12R,0.11024X0.05512*%
%ADD13R,0.04724X0.05512*%
%ADD14R,0.03150X0.04724*%
%ADD15R,0.16000X0.08000*%
%ADD16R,0.03543X0.09843*%
D10*
X0001400Y0028010D02*
X0001400Y0223010D01*
X0091400Y0223010D01*
X0091400Y0028010D01*
X0001400Y0028010D01*
D11*
X0036400Y0100215D03*
X0036400Y0115805D03*
X0036400Y0160215D03*
X0036400Y0175805D03*
X0056400Y0175805D03*
X0056400Y0160215D03*
X0056400Y0115805D03*
X0056400Y0100215D03*
D12*
X0056400Y0127892D03*
X0036400Y0127892D03*
X0036400Y0189892D03*
X0056400Y0189892D03*
D13*
X0060731Y0200128D03*
X0052069Y0200128D03*
X0040731Y0200128D03*
X0032069Y0200128D03*
X0032069Y0138128D03*
X0040731Y0138128D03*
X0052069Y0138128D03*
X0060731Y0138128D03*
D14*
X0059943Y0148010D03*
X0052857Y0148010D03*
X0039943Y0148010D03*
X0032857Y0148010D03*
X0032857Y0210010D03*
X0039943Y0210010D03*
X0052857Y0210010D03*
X0059943Y0210010D03*
D15*
X0082700Y0063410D03*
X0082700Y0053410D03*
X0082700Y0043410D03*
X0082700Y0033410D03*
X0011300Y0033010D03*
X0011300Y0043010D03*
X0011300Y0053010D03*
X0011300Y0063010D03*
D16*
X0033502Y0071762D03*
X0038502Y0071762D03*
X0043502Y0071762D03*
X0048502Y0071762D03*
X0053502Y0071762D03*
X0058502Y0071762D03*
X0063502Y0071762D03*
M02*
