G75*
%MOIN*%
%OFA0B0*%
%FSLAX24Y24*%
%IPPOS*%
%LPD*%
%AMOC8*
5,1,8,0,0,1.08239X$1,22.5*
%
%ADD10C,0.0000*%
%ADD11C,0.0555*%
D10*
X000505Y005297D02*
X000505Y024982D01*
X006525Y024982D01*
X006525Y005297D01*
X000505Y005297D01*
D11*
X000505Y010297D02*
X001020Y010297D01*
X001020Y011297D02*
X000505Y011297D01*
X000505Y012297D02*
X001020Y012297D01*
X001020Y013297D02*
X000505Y013297D01*
X000505Y014297D02*
X001020Y014297D01*
X001020Y015297D02*
X000505Y015297D01*
X000505Y016297D02*
X001020Y016297D01*
X001020Y017297D02*
X000505Y017297D01*
X000505Y018297D02*
X001020Y018297D01*
X001020Y019297D02*
X000505Y019297D01*
X000505Y020297D02*
X001020Y020297D01*
X001020Y021297D02*
X000505Y021297D01*
X000505Y022297D02*
X001020Y022297D01*
X001020Y023297D02*
X000505Y023297D01*
X000505Y024297D02*
X001020Y024297D01*
X005990Y024297D02*
X006505Y024297D01*
X006505Y023297D02*
X005990Y023297D01*
X005990Y022297D02*
X006505Y022297D01*
X006505Y021297D02*
X005990Y021297D01*
X005990Y020297D02*
X006505Y020297D01*
X006505Y019297D02*
X005990Y019297D01*
X005990Y018297D02*
X006505Y018297D01*
X006505Y017297D02*
X005990Y017297D01*
X005990Y016297D02*
X006505Y016297D01*
X006505Y015297D02*
X005990Y015297D01*
X005990Y014297D02*
X006505Y014297D01*
X006505Y013297D02*
X005990Y013297D01*
X005990Y012297D02*
X006505Y012297D01*
X006505Y011297D02*
X005990Y011297D01*
X005990Y010297D02*
X006505Y010297D01*
M02*
