G75*
%MOIN*%
%OFA0B0*%
%FSLAX24Y24*%
%IPPOS*%
%LPD*%
%AMOC8*
5,1,8,0,0,1.08239X$1,22.5*
%
%ADD10C,0.0000*%
%ADD11R,0.0827X0.0500*%
%ADD12C,0.0515*%
%ADD13R,0.0500X0.0800*%
%ADD14R,0.1102X0.0551*%
%ADD15R,0.0472X0.0551*%
%ADD16R,0.0315X0.0472*%
%ADD17R,0.0800X0.0800*%
%ADD18R,0.0354X0.0984*%
%ADD19C,0.0080*%
%ADD20C,0.0356*%
%ADD21C,0.0120*%
%ADD22C,0.0100*%
D10*
X000505Y005297D02*
X000505Y024982D01*
X006525Y024982D01*
X006525Y005297D01*
X000505Y005297D01*
D11*
X002505Y012018D03*
X002505Y013577D03*
X002505Y018518D03*
X002505Y020077D03*
X004505Y020077D03*
X004505Y018518D03*
X004505Y013577D03*
X004505Y012018D03*
D12*
X005990Y012297D02*
X006505Y012297D01*
X006505Y011297D02*
X005990Y011297D01*
X005990Y010297D02*
X006505Y010297D01*
X006505Y013297D02*
X005990Y013297D01*
X005990Y014297D02*
X006505Y014297D01*
X006505Y015297D02*
X005990Y015297D01*
X005990Y016297D02*
X006505Y016297D01*
X006505Y017297D02*
X005990Y017297D01*
X005990Y018297D02*
X006505Y018297D01*
X006505Y019297D02*
X005990Y019297D01*
X005990Y020297D02*
X006505Y020297D01*
X006505Y021297D02*
X005990Y021297D01*
X005990Y022297D02*
X006505Y022297D01*
X006505Y023297D02*
X005990Y023297D01*
X005990Y024297D02*
X006505Y024297D01*
X001020Y024297D02*
X000505Y024297D01*
X000505Y023297D02*
X001020Y023297D01*
X001020Y022297D02*
X000505Y022297D01*
X000505Y021297D02*
X001020Y021297D01*
X001020Y020297D02*
X000505Y020297D01*
X000505Y019297D02*
X001020Y019297D01*
X001020Y018297D02*
X000505Y018297D01*
X000505Y017297D02*
X001020Y017297D01*
X001020Y016297D02*
X000505Y016297D01*
X000505Y015297D02*
X001020Y015297D01*
X001020Y014297D02*
X000505Y014297D01*
X000505Y013297D02*
X001020Y013297D01*
X001020Y012297D02*
X000505Y012297D01*
X000505Y011297D02*
X001020Y011297D01*
X001020Y010297D02*
X000505Y010297D01*
D13*
X002505Y010947D03*
X002505Y008647D03*
X003505Y008647D03*
X003505Y010947D03*
X004505Y010947D03*
X004505Y008647D03*
D14*
X004505Y014785D03*
X004505Y021485D03*
X002505Y021485D03*
X002505Y014785D03*
D15*
X002072Y015809D03*
X002938Y015809D03*
X004072Y015809D03*
X004938Y015809D03*
X004938Y022509D03*
X004072Y022509D03*
X002938Y022509D03*
X002072Y022509D03*
D16*
X002151Y023497D03*
X002859Y023497D03*
X004151Y023497D03*
X004859Y023497D03*
X004859Y016797D03*
X004151Y016797D03*
X002859Y016797D03*
X002151Y016797D03*
D17*
X000755Y008797D03*
X000755Y007797D03*
X000755Y006797D03*
X000755Y005797D03*
X006305Y005797D03*
X006305Y006797D03*
X006305Y007797D03*
X006305Y008797D03*
D18*
X005215Y007172D03*
X004715Y007172D03*
X004215Y007172D03*
X003715Y007172D03*
X003215Y007172D03*
X002715Y007172D03*
X002215Y007172D03*
D19*
X002205Y007182D01*
X002205Y007497D01*
X002105Y007747D01*
X002105Y009097D01*
X003405Y010297D01*
X003955Y010297D01*
X004405Y010947D01*
X004505Y010947D01*
X004855Y010506D02*
X004796Y010447D01*
X004229Y010447D01*
X004095Y010253D01*
X004095Y010239D01*
X004063Y010207D01*
X004037Y010170D01*
X004023Y010167D01*
X004013Y010157D01*
X003968Y010157D01*
X003923Y010149D01*
X003911Y010157D01*
X003460Y010157D01*
X002409Y009187D01*
X002465Y009187D01*
X002465Y008687D01*
X002545Y008687D01*
X002895Y008687D01*
X002895Y009065D01*
X003155Y009065D01*
X003155Y009088D02*
X003155Y008345D01*
X002615Y007805D01*
X002615Y007764D01*
X002497Y007764D01*
X002465Y007733D01*
X002434Y007764D01*
X002249Y007764D01*
X002245Y007774D01*
X002245Y008107D01*
X002465Y008107D01*
X002465Y008607D01*
X002545Y008607D01*
X002545Y008107D01*
X002773Y008107D01*
X002809Y008117D01*
X002841Y008135D01*
X002867Y008161D01*
X002885Y008193D01*
X002895Y008229D01*
X002895Y008607D01*
X002545Y008607D01*
X002545Y008687D01*
X002545Y009187D01*
X002773Y009187D01*
X002809Y009178D01*
X002841Y009159D01*
X002867Y009133D01*
X002885Y009101D01*
X002895Y009065D01*
X002895Y008987D02*
X003155Y008987D01*
X003155Y008908D02*
X002895Y008908D01*
X002895Y008830D02*
X003155Y008830D01*
X003155Y008751D02*
X002895Y008751D01*
X002895Y008594D02*
X003155Y008594D01*
X003155Y008516D02*
X002895Y008516D01*
X002895Y008437D02*
X003155Y008437D01*
X003155Y008359D02*
X002895Y008359D01*
X002895Y008280D02*
X003090Y008280D01*
X003012Y008202D02*
X002888Y008202D01*
X002933Y008123D02*
X002820Y008123D01*
X002855Y008045D02*
X002245Y008045D01*
X002245Y007966D02*
X002776Y007966D01*
X002698Y007888D02*
X002245Y007888D01*
X002245Y007809D02*
X002619Y007809D01*
X002545Y008123D02*
X002465Y008123D01*
X002465Y008202D02*
X002545Y008202D01*
X002545Y008280D02*
X002465Y008280D01*
X002465Y008359D02*
X002545Y008359D01*
X002545Y008437D02*
X002465Y008437D01*
X002465Y008516D02*
X002545Y008516D01*
X002545Y008594D02*
X002465Y008594D01*
X002545Y008673D02*
X003155Y008673D01*
X003155Y009088D02*
X003214Y009147D01*
X003715Y009147D01*
X003715Y009174D01*
X003700Y009219D01*
X003700Y009219D01*
X003597Y009261D01*
X003519Y009340D01*
X003477Y009442D01*
X003477Y009552D01*
X003519Y009655D01*
X003597Y009733D01*
X003700Y009775D01*
X003810Y009775D01*
X003913Y009733D01*
X003991Y009655D01*
X004033Y009552D01*
X004033Y009442D01*
X003991Y009340D01*
X003964Y009313D01*
X003977Y009273D01*
X003980Y009270D01*
X004002Y009292D01*
X004093Y009402D01*
X004077Y009442D01*
X004077Y009552D01*
X004119Y009655D01*
X004197Y009733D01*
X004300Y009775D01*
X004410Y009775D01*
X004513Y009733D01*
X004591Y009655D01*
X004633Y009552D01*
X004633Y009442D01*
X004591Y009340D01*
X004513Y009261D01*
X004410Y009219D01*
X004305Y009219D01*
X004246Y009147D01*
X004796Y009147D01*
X004855Y009088D01*
X004855Y008206D01*
X004796Y008147D01*
X004246Y008147D01*
X004285Y007764D01*
X004434Y007764D01*
X004437Y007761D01*
X004452Y007776D01*
X004484Y007795D01*
X004520Y007804D01*
X004675Y007804D01*
X004675Y007212D01*
X004755Y007212D01*
X004755Y007804D01*
X004911Y007804D01*
X004946Y007795D01*
X004978Y007776D01*
X004994Y007761D01*
X004997Y007764D01*
X005115Y007764D01*
X005115Y008294D01*
X005069Y008340D01*
X005027Y008442D01*
X005027Y008552D01*
X005069Y008655D01*
X005147Y008733D01*
X005250Y008775D01*
X005360Y008775D01*
X005463Y008733D01*
X005541Y008655D01*
X005583Y008552D01*
X005583Y008442D01*
X005541Y008340D01*
X005463Y008261D01*
X005395Y008233D01*
X005395Y008030D01*
X005447Y008083D01*
X005550Y008125D01*
X005660Y008125D01*
X005763Y008083D01*
X005805Y008040D01*
X005805Y008238D01*
X005840Y008273D01*
X005819Y008285D01*
X005793Y008311D01*
X005775Y008343D01*
X005765Y008379D01*
X005765Y008757D01*
X006265Y008757D01*
X006265Y008837D01*
X005765Y008837D01*
X005765Y009215D01*
X005775Y009251D01*
X005793Y009283D01*
X005819Y009309D01*
X005851Y009328D01*
X005887Y009337D01*
X006265Y009337D01*
X006265Y008837D01*
X006345Y008837D01*
X006345Y009337D01*
X006385Y009337D01*
X006385Y009940D01*
X005919Y009940D01*
X005788Y009994D01*
X005687Y010095D01*
X005633Y010226D01*
X005633Y010368D01*
X005687Y010500D01*
X005788Y010600D01*
X005919Y010655D01*
X006385Y010655D01*
X006385Y010940D01*
X005919Y010940D01*
X005788Y010994D01*
X005687Y011095D01*
X005633Y011226D01*
X005633Y011368D01*
X005687Y011500D01*
X005788Y011600D01*
X005919Y011655D01*
X006385Y011655D01*
X006385Y011940D01*
X005919Y011940D01*
X005788Y011994D01*
X005687Y012095D01*
X005633Y012226D01*
X005633Y012368D01*
X005687Y012500D01*
X005788Y012600D01*
X005919Y012655D01*
X006385Y012655D01*
X006385Y012900D01*
X005951Y012900D01*
X005874Y012915D01*
X005802Y012945D01*
X005737Y012988D01*
X005681Y013044D01*
X005638Y013109D01*
X005608Y013181D01*
X005593Y013258D01*
X005593Y013258D01*
X006385Y013258D01*
X006385Y013336D01*
X005593Y013336D01*
X005593Y013336D01*
X005608Y013413D01*
X005638Y013485D01*
X005681Y013550D01*
X005737Y013606D01*
X005802Y013649D01*
X005874Y013679D01*
X005951Y013695D01*
X006385Y013695D01*
X006385Y013940D01*
X005919Y013940D01*
X005788Y013994D01*
X005687Y014095D01*
X005633Y014226D01*
X005633Y014368D01*
X005687Y014500D01*
X005788Y014600D01*
X005919Y014655D01*
X006385Y014655D01*
X006385Y014940D01*
X005919Y014940D01*
X005788Y014994D01*
X005687Y015095D01*
X005633Y015226D01*
X005633Y015327D01*
X005563Y015257D01*
X002947Y015257D01*
X002880Y015324D01*
X002798Y015406D01*
X002798Y015433D01*
X002660Y015433D01*
X002602Y015492D01*
X002602Y016126D01*
X002660Y016184D01*
X002719Y016184D01*
X002719Y016461D01*
X002660Y016461D01*
X002602Y016519D01*
X002602Y017075D01*
X002660Y017133D01*
X003058Y017133D01*
X003117Y017075D01*
X003117Y016519D01*
X003058Y016461D01*
X002999Y016461D01*
X002999Y016184D01*
X003216Y016184D01*
X003274Y016126D01*
X003274Y015537D01*
X003696Y015537D01*
X003696Y015769D01*
X004032Y015769D01*
X004032Y015849D01*
X004032Y016224D01*
X003817Y016224D01*
X003782Y016215D01*
X003750Y016196D01*
X003724Y016170D01*
X003705Y016138D01*
X003696Y016103D01*
X003696Y015849D01*
X004032Y015849D01*
X004112Y015849D01*
X004112Y016224D01*
X004327Y016224D01*
X004362Y016215D01*
X004394Y016196D01*
X004420Y016170D01*
X004439Y016138D01*
X004448Y016103D01*
X004448Y015849D01*
X004112Y015849D01*
X004112Y015769D01*
X004448Y015769D01*
X004448Y015537D01*
X004602Y015537D01*
X004602Y016126D01*
X004660Y016184D01*
X004798Y016184D01*
X004798Y016461D01*
X004660Y016461D01*
X004602Y016519D01*
X004602Y017075D01*
X004660Y017133D01*
X004998Y017133D01*
X005838Y017973D01*
X005788Y017994D01*
X005687Y018095D01*
X005633Y018226D01*
X005633Y018368D01*
X005687Y018500D01*
X005788Y018600D01*
X005919Y018655D01*
X006385Y018655D01*
X006385Y018940D01*
X005919Y018940D01*
X005788Y018994D01*
X005687Y019095D01*
X005633Y019226D01*
X005633Y019368D01*
X005687Y019500D01*
X005788Y019600D01*
X005919Y019655D01*
X006385Y019655D01*
X006385Y019940D01*
X005919Y019940D01*
X005788Y019994D01*
X005687Y020095D01*
X005633Y020226D01*
X005633Y020368D01*
X005687Y020500D01*
X005788Y020600D01*
X005919Y020655D01*
X006385Y020655D01*
X006385Y020940D01*
X005919Y020940D01*
X005788Y020994D01*
X005687Y021095D01*
X005633Y021226D01*
X005633Y021368D01*
X005687Y021500D01*
X005788Y021600D01*
X005919Y021655D01*
X006136Y021655D01*
X006078Y021701D01*
X005876Y021759D01*
X005808Y021758D01*
X005802Y021753D01*
X005757Y021756D01*
X005713Y021751D01*
X005701Y021761D01*
X005154Y021805D01*
X005156Y021802D01*
X005156Y021168D01*
X005098Y021110D01*
X004665Y021110D01*
X004665Y021080D01*
X004691Y021055D01*
X004733Y020952D01*
X004733Y020842D01*
X004691Y020740D01*
X004665Y020714D01*
X004665Y020427D01*
X004960Y020427D01*
X005018Y020368D01*
X005018Y019785D01*
X004960Y019727D01*
X004050Y019727D01*
X003992Y019785D01*
X003992Y020368D01*
X004050Y020427D01*
X004345Y020427D01*
X004345Y020642D01*
X004297Y020661D01*
X004219Y020740D01*
X004177Y020842D01*
X004177Y020952D01*
X004219Y021055D01*
X004274Y021110D01*
X003912Y021110D01*
X003854Y021168D01*
X003854Y021802D01*
X003912Y021861D01*
X004452Y021861D01*
X003412Y021944D01*
X003431Y021931D01*
X003434Y021916D01*
X003445Y021905D01*
X003445Y021861D01*
X003454Y021818D01*
X003445Y021805D01*
X003445Y020905D01*
X003490Y020860D01*
X003492Y020858D01*
X003572Y020778D01*
X003572Y020778D01*
X003586Y020764D01*
X003586Y020764D01*
X003645Y020621D01*
X003645Y019340D01*
X003663Y019333D01*
X003741Y019255D01*
X003783Y019152D01*
X003783Y019042D01*
X003741Y018940D01*
X003663Y018861D01*
X003560Y018819D01*
X003450Y018819D01*
X003347Y018861D01*
X003269Y018940D01*
X003227Y019042D01*
X003227Y019152D01*
X003269Y019255D01*
X003347Y019333D01*
X003365Y019340D01*
X003365Y020543D01*
X003363Y020565D01*
X003346Y020605D01*
X003333Y020621D01*
X003295Y020660D01*
X003292Y020662D01*
X003165Y020789D01*
X003165Y021772D01*
X003156Y021778D01*
X003156Y021168D01*
X003098Y021110D01*
X002748Y021110D01*
X002813Y021083D01*
X002891Y021005D01*
X002933Y020902D01*
X002933Y020792D01*
X002891Y020690D01*
X002813Y020611D01*
X002710Y020569D01*
X002665Y020569D01*
X002665Y020427D01*
X002960Y020427D01*
X003018Y020368D01*
X003018Y019785D01*
X002960Y019727D01*
X002050Y019727D01*
X001992Y019785D01*
X001992Y020368D01*
X002050Y020427D01*
X002345Y020427D01*
X002345Y020763D01*
X002377Y020795D01*
X002377Y020899D01*
X002345Y020931D01*
X002345Y021110D01*
X001912Y021110D01*
X001854Y021168D01*
X001854Y021802D01*
X001912Y021861D01*
X002564Y021861D01*
X002472Y021907D01*
X002447Y021907D01*
X002422Y021932D01*
X002391Y021948D01*
X002383Y021971D01*
X002365Y021989D01*
X002365Y022024D01*
X002354Y022058D01*
X002365Y022080D01*
X002365Y022104D01*
X002362Y022103D01*
X002327Y022093D01*
X002112Y022093D01*
X002112Y022469D01*
X002032Y022469D01*
X001696Y022469D01*
X001696Y022215D01*
X001705Y022179D01*
X001724Y022147D01*
X001750Y022121D01*
X001782Y022103D01*
X001817Y022093D01*
X002032Y022093D01*
X002032Y022469D01*
X002032Y022549D01*
X002032Y022924D01*
X001817Y022924D01*
X001782Y022915D01*
X001750Y022896D01*
X001724Y022870D01*
X001705Y022838D01*
X001696Y022803D01*
X001696Y022549D01*
X002032Y022549D01*
X002112Y022549D01*
X002112Y022924D01*
X002327Y022924D01*
X002362Y022915D01*
X002365Y022913D01*
X002365Y023132D01*
X002362Y023130D01*
X002327Y023121D01*
X002189Y023121D01*
X002189Y023458D01*
X002112Y023458D01*
X002112Y023121D01*
X001975Y023121D01*
X001939Y023130D01*
X001907Y023149D01*
X001881Y023175D01*
X001863Y023207D01*
X001853Y023242D01*
X001853Y023458D01*
X002112Y023458D01*
X002112Y023536D01*
X001853Y023536D01*
X001853Y023683D01*
X001717Y023547D01*
X001276Y023547D01*
X001323Y023500D01*
X001377Y023368D01*
X001377Y023226D01*
X001323Y023095D01*
X001222Y022994D01*
X001091Y022940D01*
X000645Y022940D01*
X000645Y022695D01*
X001059Y022695D01*
X001136Y022679D01*
X001208Y022649D01*
X001273Y022606D01*
X001329Y022550D01*
X001372Y022485D01*
X001402Y022413D01*
X001417Y022336D01*
X001417Y022336D01*
X000645Y022336D01*
X000645Y022258D01*
X001417Y022258D01*
X001417Y022258D01*
X001402Y022181D01*
X001372Y022109D01*
X001329Y022044D01*
X001273Y021988D01*
X001208Y021945D01*
X001136Y021915D01*
X001059Y021900D01*
X000645Y021900D01*
X000645Y021655D01*
X001091Y021655D01*
X001222Y021600D01*
X001323Y021500D01*
X001377Y021368D01*
X001377Y021226D01*
X001323Y021095D01*
X001222Y020994D01*
X001091Y020940D01*
X000645Y020940D01*
X000645Y020655D01*
X001091Y020655D01*
X001222Y020600D01*
X001323Y020500D01*
X001377Y020368D01*
X001377Y020226D01*
X001323Y020095D01*
X001222Y019994D01*
X001091Y019940D01*
X000645Y019940D01*
X000645Y019655D01*
X001091Y019655D01*
X001222Y019600D01*
X001323Y019500D01*
X001377Y019368D01*
X001377Y019226D01*
X001323Y019095D01*
X001222Y018994D01*
X001091Y018940D01*
X000645Y018940D01*
X000645Y018655D01*
X001091Y018655D01*
X001222Y018600D01*
X001323Y018500D01*
X001377Y018368D01*
X001377Y018226D01*
X001323Y018095D01*
X001222Y017994D01*
X001091Y017940D01*
X000645Y017940D01*
X000645Y017655D01*
X001091Y017655D01*
X001222Y017600D01*
X001323Y017500D01*
X001377Y017368D01*
X001377Y017226D01*
X001323Y017095D01*
X001222Y016994D01*
X001091Y016940D01*
X000645Y016940D01*
X000645Y016655D01*
X001091Y016655D01*
X001222Y016600D01*
X001323Y016500D01*
X001377Y016368D01*
X001377Y016226D01*
X001323Y016095D01*
X001222Y015994D01*
X001091Y015940D01*
X000645Y015940D01*
X000645Y015655D01*
X001091Y015655D01*
X001222Y015600D01*
X001323Y015500D01*
X001377Y015368D01*
X001377Y015226D01*
X001323Y015095D01*
X001222Y014994D01*
X001091Y014940D01*
X000645Y014940D01*
X000645Y014655D01*
X001091Y014655D01*
X001222Y014600D01*
X001323Y014500D01*
X001377Y014368D01*
X001377Y014226D01*
X001323Y014095D01*
X001222Y013994D01*
X001091Y013940D01*
X000645Y013940D01*
X000645Y013655D01*
X001091Y013655D01*
X001222Y013600D01*
X001323Y013500D01*
X001377Y013368D01*
X001377Y013226D01*
X001323Y013095D01*
X001222Y012994D01*
X001091Y012940D01*
X000645Y012940D01*
X000645Y012655D01*
X001091Y012655D01*
X001222Y012600D01*
X001323Y012500D01*
X001377Y012368D01*
X001377Y012226D01*
X001323Y012095D01*
X001222Y011994D01*
X001091Y011940D01*
X000645Y011940D01*
X000645Y011695D01*
X001059Y011695D01*
X001136Y011679D01*
X001208Y011649D01*
X001273Y011606D01*
X001329Y011550D01*
X001372Y011485D01*
X001402Y011413D01*
X001417Y011336D01*
X001417Y011336D01*
X000645Y011336D01*
X000645Y011258D01*
X001417Y011258D01*
X001417Y011258D01*
X001402Y011181D01*
X001372Y011109D01*
X001329Y011044D01*
X001273Y010988D01*
X001208Y010945D01*
X001136Y010915D01*
X001059Y010900D01*
X000645Y010900D01*
X000645Y010655D01*
X001091Y010655D01*
X001222Y010600D01*
X001323Y010500D01*
X001377Y010368D01*
X001377Y010226D01*
X001323Y010095D01*
X001222Y009994D01*
X001091Y009940D01*
X000645Y009940D01*
X000645Y009337D01*
X000715Y009337D01*
X000715Y008837D01*
X000795Y008837D01*
X001295Y008837D01*
X001295Y009215D01*
X001285Y009251D01*
X001267Y009283D01*
X001241Y009309D01*
X001209Y009328D01*
X001173Y009337D01*
X000795Y009337D01*
X000795Y008837D01*
X000795Y008757D01*
X001295Y008757D01*
X001295Y008379D01*
X001285Y008343D01*
X001267Y008311D01*
X001241Y008285D01*
X001220Y008273D01*
X001255Y008238D01*
X001255Y007986D01*
X001350Y008025D01*
X001460Y008025D01*
X001545Y007990D01*
X001545Y012241D01*
X001541Y012302D01*
X001545Y012307D01*
X001545Y012313D01*
X001588Y012356D01*
X002195Y013057D01*
X002195Y013063D01*
X002238Y013106D01*
X002277Y013152D01*
X002284Y013152D01*
X002289Y013157D01*
X002349Y013157D01*
X002410Y013161D01*
X002415Y013157D01*
X003139Y013157D01*
X003595Y013613D01*
X003689Y013707D01*
X003992Y013707D01*
X003992Y013868D01*
X004050Y013927D01*
X004345Y013927D01*
X004345Y014410D01*
X003912Y014410D01*
X003854Y014468D01*
X003854Y015102D01*
X003912Y015161D01*
X005098Y015161D01*
X005156Y015102D01*
X005156Y014468D01*
X005098Y014410D01*
X004665Y014410D01*
X004665Y013927D01*
X004960Y013927D01*
X005018Y013868D01*
X005018Y013285D01*
X004960Y013227D01*
X004050Y013227D01*
X003992Y013285D01*
X003992Y013387D01*
X003821Y013387D01*
X003271Y012837D01*
X002428Y012837D01*
X001865Y012187D01*
X001865Y009380D01*
X003155Y010590D01*
X003155Y011388D01*
X003214Y011447D01*
X003796Y011447D01*
X003855Y011388D01*
X003855Y010506D01*
X003796Y010447D01*
X003412Y010447D01*
X003401Y010437D01*
X003408Y010437D01*
X003882Y010437D01*
X004155Y010832D01*
X004155Y011388D01*
X004214Y011447D01*
X004796Y011447D01*
X004855Y011388D01*
X004855Y010506D01*
X004827Y010478D02*
X005678Y010478D01*
X005646Y010400D02*
X004196Y010400D01*
X004142Y010321D02*
X005633Y010321D01*
X005633Y010243D02*
X004095Y010243D01*
X004020Y010164D02*
X005658Y010164D01*
X005696Y010086D02*
X003382Y010086D01*
X003297Y010007D02*
X005774Y010007D01*
X005744Y010557D02*
X004855Y010557D01*
X004855Y010635D02*
X005872Y010635D01*
X005896Y010949D02*
X004855Y010949D01*
X004855Y010871D02*
X006385Y010871D01*
X006385Y010792D02*
X004855Y010792D01*
X004855Y010714D02*
X006385Y010714D01*
X006385Y009929D02*
X003212Y009929D01*
X003127Y009850D02*
X006385Y009850D01*
X006385Y009772D02*
X004419Y009772D01*
X004552Y009693D02*
X006385Y009693D01*
X006385Y009615D02*
X004607Y009615D01*
X004633Y009536D02*
X006385Y009536D01*
X006385Y009458D02*
X004633Y009458D01*
X004607Y009379D02*
X006385Y009379D01*
X006345Y009301D02*
X006265Y009301D01*
X006265Y009222D02*
X006345Y009222D01*
X006345Y009144D02*
X006265Y009144D01*
X006265Y009065D02*
X006345Y009065D01*
X006345Y008987D02*
X006265Y008987D01*
X006265Y008908D02*
X006345Y008908D01*
X006265Y008830D02*
X004855Y008830D01*
X004855Y008908D02*
X005765Y008908D01*
X005765Y008987D02*
X004855Y008987D01*
X004855Y009065D02*
X005765Y009065D01*
X005765Y009144D02*
X004800Y009144D01*
X004855Y008751D02*
X005192Y008751D01*
X005255Y008447D02*
X005255Y006947D01*
X005245Y006948D01*
X005235Y006952D01*
X005227Y006959D01*
X005220Y006967D01*
X005216Y006977D01*
X005215Y006987D01*
X005215Y007172D01*
X005215Y007533D01*
X005115Y007809D02*
X004281Y007809D01*
X004273Y007888D02*
X005115Y007888D01*
X005115Y007966D02*
X004265Y007966D01*
X004256Y008045D02*
X005115Y008045D01*
X005115Y008123D02*
X004248Y008123D01*
X004105Y008147D02*
X004205Y007182D01*
X004215Y007172D01*
X003965Y006612D02*
X003997Y006580D01*
X004434Y006580D01*
X004437Y006583D01*
X004452Y006568D01*
X004484Y006550D01*
X004520Y006540D01*
X004675Y006540D01*
X004675Y007132D01*
X004755Y007132D01*
X004755Y006540D01*
X004911Y006540D01*
X004946Y006550D01*
X004978Y006568D01*
X004994Y006583D01*
X004997Y006580D01*
X005377Y006580D01*
X005377Y006492D01*
X005419Y006390D01*
X005497Y006311D01*
X005600Y006269D01*
X005710Y006269D01*
X005813Y006311D01*
X005831Y006330D01*
X005864Y006297D01*
X005805Y006238D01*
X005805Y005847D01*
X001692Y005847D01*
X001707Y005867D02*
X001729Y005876D01*
X001746Y005918D01*
X001773Y005954D01*
X001769Y005977D01*
X001841Y006157D01*
X001865Y006181D01*
X001865Y006216D01*
X001878Y006249D01*
X001865Y006280D01*
X001865Y006297D01*
X001896Y006297D01*
X001953Y006297D01*
X001954Y006298D01*
X003056Y006307D01*
X003113Y006307D01*
X003113Y006308D01*
X003114Y006308D01*
X003154Y006348D01*
X003263Y006457D01*
X003345Y006539D01*
X003345Y006580D01*
X003434Y006580D01*
X003465Y006612D01*
X003497Y006580D01*
X003934Y006580D01*
X003965Y006612D01*
X003715Y007172D02*
X003655Y007232D01*
X003855Y008047D01*
X003855Y009197D01*
X003755Y009497D01*
X003691Y009772D02*
X003042Y009772D01*
X002957Y009693D02*
X003558Y009693D01*
X003503Y009615D02*
X002872Y009615D01*
X002787Y009536D02*
X003477Y009536D01*
X003477Y009458D02*
X002702Y009458D01*
X002617Y009379D02*
X003503Y009379D01*
X003558Y009301D02*
X002532Y009301D01*
X002545Y009144D02*
X002465Y009144D01*
X002465Y009065D02*
X002545Y009065D01*
X002545Y008987D02*
X002465Y008987D01*
X002465Y008908D02*
X002545Y008908D01*
X002545Y008830D02*
X002465Y008830D01*
X002465Y008751D02*
X002545Y008751D01*
X002447Y009222D02*
X003692Y009222D01*
X003819Y009772D02*
X004291Y009772D01*
X004355Y009497D02*
X004105Y009197D01*
X004105Y008147D01*
X004009Y009301D02*
X003968Y009301D01*
X004007Y009379D02*
X004074Y009379D01*
X004077Y009458D02*
X004033Y009458D01*
X004033Y009536D02*
X004077Y009536D01*
X004103Y009615D02*
X004007Y009615D01*
X003952Y009693D02*
X004158Y009693D01*
X003964Y010557D02*
X003855Y010557D01*
X003855Y010635D02*
X004019Y010635D01*
X004073Y010714D02*
X003855Y010714D01*
X003855Y010792D02*
X004127Y010792D01*
X004155Y010871D02*
X003855Y010871D01*
X003855Y010949D02*
X004155Y010949D01*
X004155Y011028D02*
X003855Y011028D01*
X003855Y011106D02*
X004155Y011106D01*
X004155Y011185D02*
X003855Y011185D01*
X003855Y011263D02*
X004155Y011263D01*
X004155Y011342D02*
X003855Y011342D01*
X003823Y011420D02*
X004187Y011420D01*
X004050Y011668D02*
X004960Y011668D01*
X005018Y011726D01*
X005018Y012309D01*
X004960Y012368D01*
X004050Y012368D01*
X003992Y012309D01*
X003992Y012178D01*
X003702Y012178D01*
X003691Y012205D01*
X003613Y012283D01*
X003510Y012325D01*
X003400Y012325D01*
X003297Y012283D01*
X003219Y012205D01*
X003208Y012178D01*
X003018Y012178D01*
X003018Y012309D01*
X002960Y012368D01*
X002050Y012368D01*
X001992Y012309D01*
X001992Y011726D01*
X002050Y011668D01*
X002960Y011668D01*
X003018Y011726D01*
X003018Y011858D01*
X003251Y011858D01*
X003297Y011811D01*
X003400Y011769D01*
X003510Y011769D01*
X003613Y011811D01*
X003659Y011858D01*
X003992Y011858D01*
X003992Y011726D01*
X004050Y011668D01*
X003992Y011734D02*
X003018Y011734D01*
X003018Y011813D02*
X003296Y011813D01*
X003220Y012205D02*
X003018Y012205D01*
X003018Y012284D02*
X003299Y012284D01*
X003346Y012912D02*
X005891Y012912D01*
X005785Y012598D02*
X002221Y012598D01*
X002289Y012676D02*
X006385Y012676D01*
X006385Y012755D02*
X002357Y012755D01*
X002425Y012833D02*
X006385Y012833D01*
X006385Y013304D02*
X005018Y013304D01*
X005018Y013383D02*
X005602Y013383D01*
X005628Y013461D02*
X005018Y013461D01*
X005018Y013540D02*
X005674Y013540D01*
X005599Y013226D02*
X003660Y013226D01*
X003738Y013304D02*
X003992Y013304D01*
X003992Y013383D02*
X003817Y013383D01*
X003678Y013697D02*
X003018Y013697D01*
X003018Y013775D02*
X003992Y013775D01*
X003992Y013854D02*
X003018Y013854D01*
X003018Y013868D02*
X002960Y013927D01*
X002665Y013927D01*
X002665Y014410D01*
X003098Y014410D01*
X003156Y014468D01*
X003156Y015102D01*
X003098Y015161D01*
X001912Y015161D01*
X001854Y015102D01*
X001854Y014468D01*
X001912Y014410D01*
X002345Y014410D01*
X002345Y014247D01*
X002198Y014247D01*
X002163Y014283D01*
X002060Y014325D01*
X001950Y014325D01*
X001847Y014283D01*
X001769Y014205D01*
X001727Y014102D01*
X001727Y013992D01*
X001769Y013890D01*
X001847Y013811D01*
X001950Y013769D01*
X001992Y013769D01*
X001992Y013285D01*
X002050Y013227D01*
X002960Y013227D01*
X003018Y013285D01*
X003018Y013868D01*
X003018Y013618D02*
X003600Y013618D01*
X003521Y013540D02*
X003018Y013540D01*
X003018Y013461D02*
X003443Y013461D01*
X003364Y013383D02*
X003018Y013383D01*
X003018Y013304D02*
X003286Y013304D01*
X003207Y013226D02*
X001377Y013226D01*
X001377Y013304D02*
X001992Y013304D01*
X001992Y013383D02*
X001371Y013383D01*
X001339Y013461D02*
X001992Y013461D01*
X001992Y013540D02*
X001283Y013540D01*
X001179Y013618D02*
X001992Y013618D01*
X001992Y013697D02*
X000645Y013697D01*
X000645Y013775D02*
X001935Y013775D01*
X001805Y013854D02*
X000645Y013854D01*
X000645Y013932D02*
X001752Y013932D01*
X001727Y014011D02*
X001239Y014011D01*
X001318Y014089D02*
X001727Y014089D01*
X001754Y014168D02*
X001353Y014168D01*
X001377Y014246D02*
X001811Y014246D01*
X001854Y014482D02*
X001330Y014482D01*
X001363Y014403D02*
X002345Y014403D01*
X002345Y014325D02*
X002062Y014325D01*
X001948Y014325D02*
X001377Y014325D01*
X001262Y014560D02*
X001854Y014560D01*
X001854Y014639D02*
X001130Y014639D01*
X001122Y014953D02*
X001854Y014953D01*
X001854Y015031D02*
X001260Y015031D01*
X001329Y015110D02*
X001861Y015110D01*
X001854Y014874D02*
X000645Y014874D01*
X000645Y014796D02*
X001854Y014796D01*
X001854Y014717D02*
X000645Y014717D01*
X000645Y015659D02*
X001696Y015659D01*
X001696Y015581D02*
X001242Y015581D01*
X001320Y015502D02*
X001699Y015502D01*
X001696Y015515D02*
X001705Y015479D01*
X001724Y015447D01*
X001750Y015421D01*
X001782Y015403D01*
X001817Y015393D01*
X002032Y015393D01*
X002032Y015769D01*
X001696Y015769D01*
X001696Y015515D01*
X001747Y015424D02*
X001354Y015424D01*
X001377Y015345D02*
X002859Y015345D01*
X002798Y015424D02*
X002396Y015424D01*
X002394Y015421D02*
X002420Y015447D01*
X002439Y015479D01*
X002448Y015515D01*
X002448Y015769D01*
X002112Y015769D01*
X002112Y015849D01*
X002032Y015849D01*
X002032Y016224D01*
X001817Y016224D01*
X001782Y016215D01*
X001750Y016196D01*
X001724Y016170D01*
X001705Y016138D01*
X001696Y016103D01*
X001696Y015849D01*
X002032Y015849D01*
X002032Y015769D01*
X002112Y015769D01*
X002112Y015393D01*
X002327Y015393D01*
X002362Y015403D01*
X002394Y015421D01*
X002445Y015502D02*
X002602Y015502D01*
X002602Y015581D02*
X002448Y015581D01*
X002448Y015659D02*
X002602Y015659D01*
X002602Y015738D02*
X002448Y015738D01*
X002448Y015849D02*
X002448Y016103D01*
X002439Y016138D01*
X002420Y016170D01*
X002394Y016196D01*
X002362Y016215D01*
X002327Y016224D01*
X002112Y016224D01*
X002112Y015849D01*
X002448Y015849D01*
X002448Y015895D02*
X002602Y015895D01*
X002602Y015973D02*
X002448Y015973D01*
X002448Y016052D02*
X002602Y016052D01*
X002606Y016130D02*
X002441Y016130D01*
X002373Y016209D02*
X002719Y016209D01*
X002719Y016287D02*
X001377Y016287D01*
X001377Y016366D02*
X002719Y016366D01*
X002719Y016444D02*
X002386Y016444D01*
X002394Y016449D02*
X002420Y016475D01*
X002439Y016507D01*
X002448Y016542D01*
X002448Y016758D01*
X002602Y016758D01*
X002602Y016680D02*
X002448Y016680D01*
X002448Y016758D02*
X002189Y016758D01*
X002112Y016758D01*
X002189Y016758D01*
X002189Y016421D01*
X002327Y016421D01*
X002362Y016430D01*
X002394Y016449D01*
X002443Y016523D02*
X002602Y016523D01*
X002602Y016601D02*
X002448Y016601D01*
X002448Y016836D02*
X002448Y017052D01*
X002439Y017087D01*
X002420Y017119D01*
X002394Y017145D01*
X002362Y017164D01*
X002327Y017173D01*
X002189Y017173D01*
X002189Y016836D01*
X002112Y016836D01*
X002112Y017173D01*
X001975Y017173D01*
X001939Y017164D01*
X001907Y017145D01*
X001881Y017119D01*
X001863Y017087D01*
X001853Y017052D01*
X001853Y016836D01*
X002112Y016836D01*
X002112Y016758D01*
X002112Y016421D01*
X001975Y016421D01*
X001939Y016430D01*
X001907Y016449D01*
X001881Y016475D01*
X001863Y016507D01*
X001853Y016542D01*
X001853Y016758D01*
X000645Y016758D01*
X000645Y016680D02*
X001853Y016680D01*
X001853Y016758D02*
X002112Y016758D01*
X002189Y016758D02*
X002189Y016836D01*
X002448Y016836D01*
X002448Y016837D02*
X002602Y016837D01*
X002602Y016915D02*
X002448Y016915D01*
X002448Y016994D02*
X002602Y016994D01*
X002602Y017072D02*
X002443Y017072D01*
X002385Y017151D02*
X003916Y017151D01*
X003907Y017145D02*
X003881Y017119D01*
X003863Y017087D01*
X003853Y017052D01*
X003853Y016836D01*
X004112Y016836D01*
X004112Y017173D01*
X003975Y017173D01*
X003939Y017164D01*
X003907Y017145D01*
X003859Y017072D02*
X003117Y017072D01*
X003117Y016994D02*
X003853Y016994D01*
X003853Y016915D02*
X003117Y016915D01*
X003117Y016837D02*
X003853Y016837D01*
X003853Y016758D02*
X003853Y016542D01*
X003863Y016507D01*
X003881Y016475D01*
X003907Y016449D01*
X003939Y016430D01*
X003975Y016421D01*
X004112Y016421D01*
X004112Y016758D01*
X004189Y016758D01*
X004189Y016421D01*
X004327Y016421D01*
X004362Y016430D01*
X004394Y016449D01*
X004420Y016475D01*
X004439Y016507D01*
X004448Y016542D01*
X004448Y016758D01*
X004602Y016758D01*
X004602Y016680D02*
X004448Y016680D01*
X004448Y016758D02*
X004189Y016758D01*
X004112Y016758D01*
X003853Y016758D01*
X003117Y016758D01*
X003117Y016680D02*
X003853Y016680D01*
X003853Y016601D02*
X003117Y016601D01*
X003117Y016523D02*
X003858Y016523D01*
X003915Y016444D02*
X002999Y016444D01*
X002999Y016366D02*
X004798Y016366D01*
X004798Y016444D02*
X004386Y016444D01*
X004443Y016523D02*
X004602Y016523D01*
X004602Y016601D02*
X004448Y016601D01*
X004448Y016836D02*
X004448Y017052D01*
X004439Y017087D01*
X004420Y017119D01*
X004394Y017145D01*
X004362Y017164D01*
X004327Y017173D01*
X004189Y017173D01*
X004189Y016836D01*
X004112Y016836D01*
X004112Y016758D01*
X004189Y016758D02*
X004189Y016836D01*
X004448Y016836D01*
X004448Y016837D02*
X004602Y016837D01*
X004602Y016915D02*
X004448Y016915D01*
X004448Y016994D02*
X004602Y016994D01*
X004602Y017072D02*
X004443Y017072D01*
X004385Y017151D02*
X005015Y017151D01*
X005093Y017229D02*
X001377Y017229D01*
X001377Y017308D02*
X005172Y017308D01*
X005250Y017386D02*
X001370Y017386D01*
X001337Y017465D02*
X005329Y017465D01*
X005407Y017543D02*
X001279Y017543D01*
X001243Y018014D02*
X005767Y018014D01*
X005800Y017936D02*
X000645Y017936D01*
X000645Y017857D02*
X005721Y017857D01*
X005643Y017779D02*
X000645Y017779D01*
X000645Y017700D02*
X005564Y017700D01*
X005486Y017622D02*
X001171Y017622D01*
X001321Y018093D02*
X003316Y018093D01*
X003347Y018061D02*
X003450Y018019D01*
X003560Y018019D01*
X003663Y018061D01*
X003741Y018140D01*
X003783Y018242D01*
X003783Y018352D01*
X003781Y018357D01*
X003992Y018357D01*
X003992Y018226D01*
X004050Y018168D01*
X004960Y018168D01*
X005018Y018226D01*
X005018Y018809D01*
X004960Y018868D01*
X004050Y018868D01*
X003992Y018809D01*
X003992Y018637D01*
X003018Y018637D01*
X003018Y018809D01*
X002960Y018868D01*
X002050Y018868D01*
X001992Y018809D01*
X001992Y018226D01*
X002050Y018168D01*
X002960Y018168D01*
X003018Y018226D01*
X003018Y018357D01*
X003229Y018357D01*
X003227Y018352D01*
X003227Y018242D01*
X003269Y018140D01*
X003347Y018061D01*
X003256Y018171D02*
X002963Y018171D01*
X003018Y018250D02*
X003227Y018250D01*
X003227Y018328D02*
X003018Y018328D01*
X003018Y018642D02*
X003992Y018642D01*
X003992Y018721D02*
X003018Y018721D01*
X003018Y018799D02*
X003992Y018799D01*
X003992Y018328D02*
X003783Y018328D01*
X003783Y018250D02*
X003992Y018250D01*
X004047Y018171D02*
X003754Y018171D01*
X003694Y018093D02*
X005689Y018093D01*
X005655Y018171D02*
X004963Y018171D01*
X005018Y018250D02*
X005633Y018250D01*
X005633Y018328D02*
X005018Y018328D01*
X005018Y018407D02*
X005648Y018407D01*
X005681Y018485D02*
X005018Y018485D01*
X005018Y018564D02*
X005751Y018564D01*
X005879Y018956D02*
X003748Y018956D01*
X003780Y019035D02*
X005747Y019035D01*
X005679Y019113D02*
X003783Y019113D01*
X003767Y019192D02*
X005647Y019192D01*
X005633Y019270D02*
X003725Y019270D01*
X003679Y018878D02*
X006385Y018878D01*
X006385Y018799D02*
X005018Y018799D01*
X005018Y018721D02*
X006385Y018721D01*
X006359Y018297D02*
X006505Y018297D01*
X006359Y018297D02*
X004859Y016797D01*
X004938Y016718D01*
X004938Y015809D01*
X004798Y016209D02*
X004373Y016209D01*
X004441Y016130D02*
X004606Y016130D01*
X004602Y016052D02*
X004448Y016052D01*
X004448Y015973D02*
X004602Y015973D01*
X004602Y015895D02*
X004448Y015895D01*
X004448Y015738D02*
X004602Y015738D01*
X004602Y015816D02*
X004112Y015816D01*
X004112Y015895D02*
X004032Y015895D01*
X004032Y015973D02*
X004112Y015973D01*
X004112Y016052D02*
X004032Y016052D01*
X004032Y016130D02*
X004112Y016130D01*
X004112Y016209D02*
X004032Y016209D01*
X004112Y016444D02*
X004189Y016444D01*
X004189Y016523D02*
X004112Y016523D01*
X004112Y016601D02*
X004189Y016601D01*
X004189Y016680D02*
X004112Y016680D01*
X004112Y016837D02*
X004189Y016837D01*
X004189Y016915D02*
X004112Y016915D01*
X004112Y016994D02*
X004189Y016994D01*
X004189Y017072D02*
X004112Y017072D01*
X004112Y017151D02*
X004189Y017151D01*
X004032Y015816D02*
X003274Y015816D01*
X003274Y015738D02*
X003696Y015738D01*
X003696Y015659D02*
X003274Y015659D01*
X003274Y015581D02*
X003696Y015581D01*
X003696Y015895D02*
X003274Y015895D01*
X003274Y015973D02*
X003696Y015973D01*
X003696Y016052D02*
X003274Y016052D01*
X003270Y016130D02*
X003703Y016130D01*
X003771Y016209D02*
X002999Y016209D01*
X002999Y016287D02*
X004798Y016287D01*
X004602Y015659D02*
X004448Y015659D01*
X004448Y015581D02*
X004602Y015581D01*
X004665Y014403D02*
X005647Y014403D01*
X005633Y014325D02*
X004665Y014325D01*
X004665Y014246D02*
X005633Y014246D01*
X005657Y014168D02*
X004665Y014168D01*
X004665Y014089D02*
X005692Y014089D01*
X005771Y014011D02*
X004665Y014011D01*
X004665Y013932D02*
X006385Y013932D01*
X006385Y013854D02*
X005018Y013854D01*
X005018Y013775D02*
X006385Y013775D01*
X006385Y013697D02*
X005018Y013697D01*
X005018Y013618D02*
X005755Y013618D01*
X005622Y013147D02*
X003581Y013147D01*
X003503Y013069D02*
X005665Y013069D01*
X005735Y012990D02*
X003424Y012990D01*
X003611Y012284D02*
X003992Y012284D01*
X003992Y012205D02*
X003690Y012205D01*
X003614Y011813D02*
X003992Y011813D01*
X004045Y012362D02*
X002965Y012362D01*
X002796Y011447D02*
X002214Y011447D01*
X002155Y011388D01*
X002155Y010506D01*
X002214Y010447D01*
X002796Y010447D01*
X002855Y010506D01*
X002855Y011388D01*
X002796Y011447D01*
X002823Y011420D02*
X003187Y011420D01*
X003155Y011342D02*
X002855Y011342D01*
X002855Y011263D02*
X003155Y011263D01*
X003155Y011185D02*
X002855Y011185D01*
X002855Y011106D02*
X003155Y011106D01*
X003155Y011028D02*
X002855Y011028D01*
X002855Y010949D02*
X003155Y010949D01*
X003155Y010871D02*
X002855Y010871D01*
X002855Y010792D02*
X003155Y010792D01*
X003155Y010714D02*
X002855Y010714D01*
X002855Y010635D02*
X003155Y010635D01*
X003119Y010557D02*
X002855Y010557D01*
X002827Y010478D02*
X003036Y010478D01*
X002952Y010400D02*
X001865Y010400D01*
X001865Y010478D02*
X002183Y010478D01*
X002155Y010557D02*
X001865Y010557D01*
X001865Y010635D02*
X002155Y010635D01*
X002155Y010714D02*
X001865Y010714D01*
X001865Y010792D02*
X002155Y010792D01*
X002155Y010871D02*
X001865Y010871D01*
X001865Y010949D02*
X002155Y010949D01*
X002155Y011028D02*
X001865Y011028D01*
X001865Y011106D02*
X002155Y011106D01*
X002155Y011185D02*
X001865Y011185D01*
X001865Y011263D02*
X002155Y011263D01*
X002155Y011342D02*
X001865Y011342D01*
X001865Y011420D02*
X002187Y011420D01*
X001992Y011734D02*
X001865Y011734D01*
X001865Y011656D02*
X006385Y011656D01*
X006385Y011734D02*
X005018Y011734D01*
X005018Y011813D02*
X006385Y011813D01*
X006385Y011891D02*
X005018Y011891D01*
X005018Y011970D02*
X005847Y011970D01*
X005733Y012048D02*
X005018Y012048D01*
X005018Y012127D02*
X005674Y012127D01*
X005641Y012205D02*
X005018Y012205D01*
X005018Y012284D02*
X005633Y012284D01*
X005633Y012362D02*
X004965Y012362D01*
X004823Y011420D02*
X005654Y011420D01*
X005633Y011342D02*
X004855Y011342D01*
X004855Y011263D02*
X005633Y011263D01*
X005650Y011185D02*
X004855Y011185D01*
X004855Y011106D02*
X005682Y011106D01*
X005754Y011028D02*
X004855Y011028D01*
X004552Y009301D02*
X005811Y009301D01*
X005767Y009222D02*
X004418Y009222D01*
X004855Y008673D02*
X005087Y008673D01*
X005044Y008594D02*
X004855Y008594D01*
X004855Y008516D02*
X005027Y008516D01*
X005029Y008437D02*
X004855Y008437D01*
X004855Y008359D02*
X005061Y008359D01*
X005115Y008280D02*
X004855Y008280D01*
X004851Y008202D02*
X005115Y008202D01*
X005255Y008447D02*
X005257Y008460D01*
X005262Y008472D01*
X005270Y008482D01*
X005280Y008490D01*
X005292Y008495D01*
X005305Y008497D01*
X005395Y008202D02*
X005805Y008202D01*
X005805Y008123D02*
X005665Y008123D01*
X005545Y008123D02*
X005395Y008123D01*
X005395Y008045D02*
X005409Y008045D01*
X005481Y008280D02*
X005828Y008280D01*
X005770Y008359D02*
X005549Y008359D01*
X005581Y008437D02*
X005765Y008437D01*
X005765Y008516D02*
X005583Y008516D01*
X005566Y008594D02*
X005765Y008594D01*
X005765Y008673D02*
X005523Y008673D01*
X005418Y008751D02*
X005765Y008751D01*
X005801Y008045D02*
X005805Y008045D01*
X005805Y006797D02*
X005655Y006547D01*
X005491Y006318D02*
X003124Y006318D01*
X003202Y006396D02*
X005417Y006396D01*
X005384Y006475D02*
X003280Y006475D01*
X003345Y006553D02*
X004478Y006553D01*
X004675Y006553D02*
X004755Y006553D01*
X004755Y006632D02*
X004675Y006632D01*
X004675Y006710D02*
X004755Y006710D01*
X004755Y006789D02*
X004675Y006789D01*
X004675Y006867D02*
X004755Y006867D01*
X004755Y006946D02*
X004675Y006946D01*
X004675Y007024D02*
X004755Y007024D01*
X004755Y007103D02*
X004675Y007103D01*
X004675Y007260D02*
X004755Y007260D01*
X004755Y007338D02*
X004675Y007338D01*
X004675Y007417D02*
X004755Y007417D01*
X004755Y007495D02*
X004675Y007495D01*
X004675Y007574D02*
X004755Y007574D01*
X004755Y007652D02*
X004675Y007652D01*
X004675Y007731D02*
X004755Y007731D01*
X004952Y006553D02*
X005377Y006553D01*
X005400Y005825D02*
X005297Y005783D01*
X005219Y005705D01*
X005177Y005602D01*
X005177Y005492D01*
X005200Y005437D01*
X001255Y005437D01*
X001255Y005637D01*
X001402Y005637D01*
X001412Y005629D01*
X001466Y005637D01*
X001521Y005637D01*
X001530Y005646D01*
X001543Y005648D01*
X001576Y005692D01*
X001615Y005731D01*
X001615Y005744D01*
X001707Y005867D01*
X001751Y005925D02*
X005805Y005925D01*
X005805Y005847D02*
X005618Y005778D01*
X005613Y005783D01*
X005510Y005825D01*
X005400Y005825D01*
X005283Y005768D02*
X001633Y005768D01*
X001574Y005690D02*
X005213Y005690D01*
X005180Y005611D02*
X001255Y005611D01*
X001255Y005533D02*
X005177Y005533D01*
X005192Y005454D02*
X001255Y005454D01*
X001780Y006004D02*
X005805Y006004D01*
X005805Y006082D02*
X001811Y006082D01*
X001845Y006161D02*
X005805Y006161D01*
X005806Y006239D02*
X001874Y006239D01*
X001895Y006437D02*
X003055Y006447D01*
X003205Y006597D01*
X003205Y007162D01*
X003215Y007172D01*
X002755Y007747D02*
X003505Y008497D01*
X003505Y008647D01*
X003210Y009144D02*
X002856Y009144D01*
X002617Y010086D02*
X001865Y010086D01*
X001865Y010164D02*
X002701Y010164D01*
X002784Y010243D02*
X001865Y010243D01*
X001865Y010321D02*
X002868Y010321D01*
X002533Y010007D02*
X001865Y010007D01*
X001865Y009929D02*
X002450Y009929D01*
X002366Y009850D02*
X001865Y009850D01*
X001865Y009772D02*
X002282Y009772D01*
X002199Y009693D02*
X001865Y009693D01*
X001865Y009615D02*
X002115Y009615D01*
X002031Y009536D02*
X001865Y009536D01*
X001865Y009458D02*
X001947Y009458D01*
X001885Y009207D02*
X001895Y006437D01*
X001545Y008045D02*
X001255Y008045D01*
X001255Y008123D02*
X001545Y008123D01*
X001545Y008202D02*
X001255Y008202D01*
X001232Y008280D02*
X001545Y008280D01*
X001545Y008359D02*
X001290Y008359D01*
X001295Y008437D02*
X001545Y008437D01*
X001545Y008516D02*
X001295Y008516D01*
X001295Y008594D02*
X001545Y008594D01*
X001545Y008673D02*
X001295Y008673D01*
X001295Y008751D02*
X001545Y008751D01*
X001545Y008830D02*
X000795Y008830D01*
X000795Y008908D02*
X000715Y008908D01*
X000715Y008987D02*
X000795Y008987D01*
X000795Y009065D02*
X000715Y009065D01*
X000715Y009144D02*
X000795Y009144D01*
X000795Y009222D02*
X000715Y009222D01*
X000715Y009301D02*
X000795Y009301D01*
X000645Y009379D02*
X001545Y009379D01*
X001545Y009301D02*
X001249Y009301D01*
X001293Y009222D02*
X001545Y009222D01*
X001545Y009144D02*
X001295Y009144D01*
X001295Y009065D02*
X001545Y009065D01*
X001545Y008987D02*
X001295Y008987D01*
X001295Y008908D02*
X001545Y008908D01*
X001545Y009458D02*
X000645Y009458D01*
X000645Y009536D02*
X001545Y009536D01*
X001545Y009615D02*
X000645Y009615D01*
X000645Y009693D02*
X001545Y009693D01*
X001545Y009772D02*
X000645Y009772D01*
X000645Y009850D02*
X001545Y009850D01*
X001545Y009929D02*
X000645Y009929D01*
X000645Y010714D02*
X001545Y010714D01*
X001545Y010792D02*
X000645Y010792D01*
X000645Y010871D02*
X001545Y010871D01*
X001545Y010949D02*
X001215Y010949D01*
X001313Y011028D02*
X001545Y011028D01*
X001545Y011106D02*
X001370Y011106D01*
X001403Y011185D02*
X001545Y011185D01*
X001545Y011263D02*
X000645Y011263D01*
X000645Y011734D02*
X001545Y011734D01*
X001545Y011656D02*
X001193Y011656D01*
X001302Y011577D02*
X001545Y011577D01*
X001545Y011499D02*
X001363Y011499D01*
X001399Y011420D02*
X001545Y011420D01*
X001545Y011342D02*
X001416Y011342D01*
X001545Y011813D02*
X000645Y011813D01*
X000645Y011891D02*
X001545Y011891D01*
X001545Y011970D02*
X001163Y011970D01*
X001277Y012048D02*
X001545Y012048D01*
X001545Y012127D02*
X001336Y012127D01*
X001369Y012205D02*
X001545Y012205D01*
X001542Y012284D02*
X001377Y012284D01*
X001377Y012362D02*
X001593Y012362D01*
X001661Y012441D02*
X001347Y012441D01*
X001303Y012519D02*
X001729Y012519D01*
X001797Y012598D02*
X001225Y012598D01*
X001213Y012990D02*
X002137Y012990D01*
X002200Y013069D02*
X001297Y013069D01*
X001345Y013147D02*
X002273Y013147D01*
X002152Y012519D02*
X005707Y012519D01*
X005663Y012441D02*
X002084Y012441D01*
X002045Y012362D02*
X002016Y012362D01*
X001992Y012284D02*
X001948Y012284D01*
X001992Y012205D02*
X001880Y012205D01*
X001865Y012127D02*
X001992Y012127D01*
X001992Y012048D02*
X001865Y012048D01*
X001865Y011970D02*
X001992Y011970D01*
X001992Y011891D02*
X001865Y011891D01*
X001865Y011813D02*
X001992Y011813D01*
X001865Y011577D02*
X005765Y011577D01*
X005687Y011499D02*
X001865Y011499D01*
X001545Y010635D02*
X001138Y010635D01*
X001266Y010557D02*
X001545Y010557D01*
X001545Y010478D02*
X001332Y010478D01*
X001364Y010400D02*
X001545Y010400D01*
X001545Y010321D02*
X001377Y010321D01*
X001377Y010243D02*
X001545Y010243D01*
X001545Y010164D02*
X001352Y010164D01*
X001314Y010086D02*
X001545Y010086D01*
X001545Y010007D02*
X001236Y010007D01*
X001885Y009207D02*
X003495Y010717D01*
X003505Y010947D01*
X003827Y010478D02*
X003910Y010478D01*
X004345Y013932D02*
X002665Y013932D01*
X002665Y014011D02*
X004345Y014011D01*
X004345Y014089D02*
X002665Y014089D01*
X002665Y014168D02*
X004345Y014168D01*
X004345Y014246D02*
X002665Y014246D01*
X002665Y014325D02*
X004345Y014325D01*
X004345Y014403D02*
X002665Y014403D01*
X002937Y015267D02*
X001377Y015267D01*
X001362Y015188D02*
X005648Y015188D01*
X005633Y015267D02*
X005573Y015267D01*
X005505Y015397D02*
X003005Y015397D01*
X002938Y015464D01*
X002938Y015809D01*
X002859Y015888D01*
X002859Y016797D01*
X002602Y015816D02*
X002112Y015816D01*
X002112Y015738D02*
X002032Y015738D01*
X002032Y015816D02*
X000645Y015816D01*
X000645Y015738D02*
X001696Y015738D01*
X001696Y015895D02*
X000645Y015895D01*
X000645Y016837D02*
X001853Y016837D01*
X001853Y016915D02*
X000645Y016915D01*
X001172Y015973D02*
X001696Y015973D01*
X001696Y016052D02*
X001280Y016052D01*
X001338Y016130D02*
X001703Y016130D01*
X001771Y016209D02*
X001370Y016209D01*
X001346Y016444D02*
X001915Y016444D01*
X001858Y016523D02*
X001300Y016523D01*
X001220Y016601D02*
X001853Y016601D01*
X001853Y016994D02*
X001221Y016994D01*
X001301Y017072D02*
X001859Y017072D01*
X001916Y017151D02*
X001346Y017151D01*
X001355Y018171D02*
X002047Y018171D01*
X001992Y018250D02*
X001377Y018250D01*
X001377Y018328D02*
X001992Y018328D01*
X001992Y018407D02*
X001362Y018407D01*
X001329Y018485D02*
X001992Y018485D01*
X001992Y018564D02*
X001259Y018564D01*
X001131Y018956D02*
X003262Y018956D01*
X003230Y019035D02*
X001263Y019035D01*
X001331Y019113D02*
X003227Y019113D01*
X003243Y019192D02*
X001363Y019192D01*
X001377Y019270D02*
X003285Y019270D01*
X003331Y018878D02*
X000645Y018878D01*
X000645Y018799D02*
X001992Y018799D01*
X001992Y018721D02*
X000645Y018721D01*
X000645Y019663D02*
X003365Y019663D01*
X003365Y019741D02*
X002974Y019741D01*
X003018Y019820D02*
X003365Y019820D01*
X003365Y019898D02*
X003018Y019898D01*
X003018Y019977D02*
X003365Y019977D01*
X003365Y020055D02*
X003018Y020055D01*
X003018Y020134D02*
X003365Y020134D01*
X003365Y020212D02*
X003018Y020212D01*
X003018Y020291D02*
X003365Y020291D01*
X003365Y020369D02*
X003017Y020369D01*
X002884Y020683D02*
X003271Y020683D01*
X003346Y020605D02*
X002796Y020605D01*
X002665Y020526D02*
X003365Y020526D01*
X003365Y020448D02*
X002665Y020448D01*
X002921Y020762D02*
X003192Y020762D01*
X003165Y020840D02*
X002933Y020840D01*
X002926Y020919D02*
X003165Y020919D01*
X003165Y020997D02*
X002894Y020997D01*
X002820Y021076D02*
X003165Y021076D01*
X003165Y021154D02*
X003142Y021154D01*
X003156Y021233D02*
X003165Y021233D01*
X003156Y021311D02*
X003165Y021311D01*
X003156Y021390D02*
X003165Y021390D01*
X003156Y021468D02*
X003165Y021468D01*
X003156Y021547D02*
X003165Y021547D01*
X003156Y021625D02*
X003165Y021625D01*
X003156Y021704D02*
X003165Y021704D01*
X003305Y021847D02*
X003155Y021947D01*
X002705Y021947D01*
X002505Y022047D01*
X002505Y023947D01*
X002655Y024009D02*
X002567Y024097D01*
X001843Y024097D01*
X001755Y024009D01*
X001593Y023847D01*
X000843Y023847D01*
X000755Y023759D01*
X000650Y023655D01*
X000645Y023655D01*
X000645Y023940D01*
X001091Y023940D01*
X001222Y023994D01*
X001323Y024095D01*
X001377Y024226D01*
X001377Y024368D01*
X001323Y024500D01*
X001222Y024600D01*
X001091Y024655D01*
X000645Y024655D01*
X000645Y024842D01*
X006385Y024842D01*
X006385Y024655D01*
X005919Y024655D01*
X005788Y024600D01*
X005687Y024500D01*
X005633Y024368D01*
X005633Y024226D01*
X005687Y024095D01*
X005788Y023994D01*
X005919Y023940D01*
X006385Y023940D01*
X006385Y023655D01*
X005919Y023655D01*
X005788Y023600D01*
X005687Y023500D01*
X005633Y023368D01*
X005633Y023226D01*
X005687Y023095D01*
X005788Y022994D01*
X005919Y022940D01*
X006385Y022940D01*
X006385Y022655D01*
X005919Y022655D01*
X005788Y022600D01*
X005735Y022548D01*
X005274Y022607D01*
X005274Y022826D01*
X005216Y022884D01*
X004999Y022884D01*
X004999Y023161D01*
X005058Y023161D01*
X005117Y023219D01*
X005117Y023775D01*
X005058Y023833D01*
X004660Y023833D01*
X004602Y023775D01*
X004602Y023219D01*
X004660Y023161D01*
X004719Y023161D01*
X004719Y022884D01*
X004660Y022884D01*
X004602Y022826D01*
X004602Y022192D01*
X004660Y022133D01*
X005216Y022133D01*
X005274Y022192D01*
X005274Y022324D01*
X005633Y022278D01*
X005633Y022226D01*
X005687Y022095D01*
X005743Y022038D01*
X004417Y022145D01*
X004420Y022147D01*
X004439Y022179D01*
X004448Y022215D01*
X004448Y022469D01*
X004112Y022469D01*
X004112Y022549D01*
X004032Y022549D01*
X004032Y022924D01*
X003817Y022924D01*
X003782Y022915D01*
X003750Y022896D01*
X003724Y022870D01*
X003705Y022838D01*
X003696Y022803D01*
X003696Y022549D01*
X004032Y022549D01*
X004032Y022469D01*
X003696Y022469D01*
X003696Y022215D01*
X003699Y022202D01*
X003311Y022233D01*
X003301Y022241D01*
X003274Y022239D01*
X003274Y022826D01*
X003216Y022884D01*
X003078Y022884D01*
X003078Y023181D01*
X003117Y023219D01*
X003117Y023775D01*
X003058Y023833D01*
X002660Y023833D01*
X002645Y023818D01*
X002645Y023875D01*
X002655Y023885D01*
X002655Y024009D01*
X002655Y023980D02*
X005821Y023980D01*
X005723Y024059D02*
X002606Y024059D01*
X002655Y023902D02*
X006385Y023902D01*
X006385Y023823D02*
X005068Y023823D01*
X005117Y023745D02*
X006385Y023745D01*
X006385Y023666D02*
X005117Y023666D01*
X005117Y023588D02*
X005775Y023588D01*
X005697Y023509D02*
X005117Y023509D01*
X005117Y023431D02*
X005658Y023431D01*
X005633Y023352D02*
X005117Y023352D01*
X005117Y023274D02*
X005633Y023274D01*
X005645Y023195D02*
X005093Y023195D01*
X004999Y023117D02*
X005678Y023117D01*
X005743Y023038D02*
X004999Y023038D01*
X004999Y022960D02*
X005871Y022960D01*
X005897Y022646D02*
X005274Y022646D01*
X005274Y022724D02*
X006385Y022724D01*
X006385Y022803D02*
X005274Y022803D01*
X005219Y022881D02*
X006385Y022881D01*
X006493Y022309D02*
X004938Y022509D01*
X004923Y022511D01*
X004908Y022515D01*
X004894Y022522D01*
X004882Y022532D01*
X004872Y022544D01*
X004865Y022558D01*
X004861Y022573D01*
X004859Y022588D01*
X004859Y023497D01*
X004719Y023117D02*
X003078Y023117D01*
X003078Y023038D02*
X004719Y023038D01*
X004719Y022960D02*
X003078Y022960D01*
X003093Y023195D02*
X003869Y023195D01*
X003863Y023207D02*
X003881Y023175D01*
X003907Y023149D01*
X003939Y023130D01*
X003975Y023121D01*
X004112Y023121D01*
X004112Y023458D01*
X004189Y023458D01*
X004189Y023121D01*
X004327Y023121D01*
X004362Y023130D01*
X004394Y023149D01*
X004420Y023175D01*
X004439Y023207D01*
X004448Y023242D01*
X004448Y023458D01*
X004189Y023458D01*
X004189Y023536D01*
X004112Y023536D01*
X004112Y023873D01*
X003975Y023873D01*
X003939Y023864D01*
X003907Y023845D01*
X003881Y023819D01*
X003863Y023787D01*
X003853Y023752D01*
X003853Y023536D01*
X004112Y023536D01*
X004112Y023458D01*
X003853Y023458D01*
X003853Y023242D01*
X003863Y023207D01*
X003853Y023274D02*
X003117Y023274D01*
X003117Y023352D02*
X003853Y023352D01*
X003853Y023431D02*
X003117Y023431D01*
X003117Y023509D02*
X004112Y023509D01*
X004189Y023509D02*
X004602Y023509D01*
X004602Y023431D02*
X004448Y023431D01*
X004448Y023352D02*
X004602Y023352D01*
X004602Y023274D02*
X004448Y023274D01*
X004432Y023195D02*
X004626Y023195D01*
X004657Y022881D02*
X004409Y022881D01*
X004420Y022870D02*
X004394Y022896D01*
X004362Y022915D01*
X004327Y022924D01*
X004112Y022924D01*
X004112Y022549D01*
X004448Y022549D01*
X004448Y022803D01*
X004439Y022838D01*
X004420Y022870D01*
X004448Y022803D02*
X004602Y022803D01*
X004602Y022724D02*
X004448Y022724D01*
X004448Y022646D02*
X004602Y022646D01*
X004602Y022567D02*
X004448Y022567D01*
X004448Y022410D02*
X004602Y022410D01*
X004602Y022332D02*
X004448Y022332D01*
X004448Y022253D02*
X004602Y022253D01*
X004619Y022175D02*
X004436Y022175D01*
X004602Y022489D02*
X004112Y022489D01*
X004072Y022509D02*
X003554Y023027D01*
X003543Y023035D01*
X003531Y023042D01*
X003518Y023046D01*
X003505Y023047D01*
X003696Y022803D02*
X003274Y022803D01*
X003274Y022724D02*
X003696Y022724D01*
X003696Y022646D02*
X003274Y022646D01*
X003274Y022567D02*
X003696Y022567D01*
X003696Y022410D02*
X003274Y022410D01*
X003255Y022097D02*
X003222Y022096D01*
X003189Y022099D01*
X003157Y022105D01*
X003126Y022115D01*
X003096Y022129D01*
X003068Y022145D01*
X003041Y022165D01*
X003017Y022187D01*
X002996Y022213D01*
X002978Y022240D01*
X002963Y022269D01*
X002951Y022300D01*
X002943Y022331D01*
X002938Y022364D01*
X002938Y022509D01*
X002938Y023418D01*
X002936Y023433D01*
X002932Y023448D01*
X002925Y023462D01*
X002915Y023474D01*
X002903Y023484D01*
X002889Y023491D01*
X002874Y023495D01*
X002859Y023497D01*
X002650Y023823D02*
X002645Y023823D01*
X002365Y023117D02*
X001332Y023117D01*
X001365Y023195D02*
X001869Y023195D01*
X001853Y023274D02*
X001377Y023274D01*
X001377Y023352D02*
X001853Y023352D01*
X001853Y023431D02*
X001352Y023431D01*
X001313Y023509D02*
X002112Y023509D01*
X002112Y023431D02*
X002189Y023431D01*
X002189Y023352D02*
X002112Y023352D01*
X002112Y023274D02*
X002189Y023274D01*
X002189Y023195D02*
X002112Y023195D01*
X002112Y022881D02*
X002032Y022881D01*
X002032Y022803D02*
X002112Y022803D01*
X002112Y022724D02*
X002032Y022724D01*
X002032Y022646D02*
X002112Y022646D01*
X002112Y022567D02*
X002032Y022567D01*
X002032Y022489D02*
X001370Y022489D01*
X001403Y022410D02*
X001696Y022410D01*
X001696Y022332D02*
X000645Y022332D01*
X000645Y021861D02*
X001912Y021861D01*
X001854Y021782D02*
X000645Y021782D01*
X000645Y021704D02*
X001854Y021704D01*
X001854Y021625D02*
X001162Y021625D01*
X001194Y021939D02*
X002408Y021939D01*
X002365Y022018D02*
X001303Y022018D01*
X001364Y022096D02*
X001807Y022096D01*
X001708Y022175D02*
X001399Y022175D01*
X001416Y022253D02*
X001696Y022253D01*
X001696Y022567D02*
X001312Y022567D01*
X001214Y022646D02*
X001696Y022646D01*
X001696Y022724D02*
X000645Y022724D01*
X000645Y022803D02*
X001696Y022803D01*
X001734Y022881D02*
X000645Y022881D01*
X000645Y023666D02*
X000662Y023666D01*
X000645Y023745D02*
X000740Y023745D01*
X000819Y023823D02*
X000645Y023823D01*
X000645Y023902D02*
X001647Y023902D01*
X001726Y023980D02*
X001189Y023980D01*
X001287Y024059D02*
X001804Y024059D01*
X001836Y023666D02*
X001853Y023666D01*
X001853Y023588D02*
X001758Y023588D01*
X002032Y022410D02*
X002112Y022410D01*
X002112Y022332D02*
X002032Y022332D01*
X002032Y022253D02*
X002112Y022253D01*
X002112Y022175D02*
X002032Y022175D01*
X002032Y022096D02*
X002112Y022096D01*
X002337Y022096D02*
X002365Y022096D01*
X002365Y022960D02*
X001139Y022960D01*
X001267Y023038D02*
X002365Y023038D01*
X001854Y021547D02*
X001276Y021547D01*
X001336Y021468D02*
X001854Y021468D01*
X001854Y021390D02*
X001369Y021390D01*
X001377Y021311D02*
X001854Y021311D01*
X001854Y021233D02*
X001377Y021233D01*
X001348Y021154D02*
X001868Y021154D01*
X001993Y020369D02*
X001377Y020369D01*
X001377Y020291D02*
X001992Y020291D01*
X001992Y020212D02*
X001372Y020212D01*
X001339Y020134D02*
X001992Y020134D01*
X001992Y020055D02*
X001284Y020055D01*
X001238Y019584D02*
X003365Y019584D01*
X003365Y019506D02*
X001317Y019506D01*
X001353Y019427D02*
X003365Y019427D01*
X003365Y019349D02*
X001377Y019349D01*
X001180Y019977D02*
X001992Y019977D01*
X001992Y019898D02*
X000645Y019898D01*
X000645Y019820D02*
X001992Y019820D01*
X002036Y019741D02*
X000645Y019741D01*
X000645Y020683D02*
X002345Y020683D01*
X002345Y020605D02*
X001212Y020605D01*
X001296Y020526D02*
X002345Y020526D01*
X002345Y020448D02*
X001345Y020448D01*
X001226Y020997D02*
X002345Y020997D01*
X002345Y021076D02*
X001304Y021076D01*
X000645Y020919D02*
X002357Y020919D01*
X002377Y020840D02*
X000645Y020840D01*
X000645Y020762D02*
X002345Y020762D01*
X001992Y018642D02*
X001121Y018642D01*
X002032Y016209D02*
X002112Y016209D01*
X002112Y016130D02*
X002032Y016130D01*
X002032Y016052D02*
X002112Y016052D01*
X002112Y015973D02*
X002032Y015973D01*
X002032Y015895D02*
X002112Y015895D01*
X002112Y015659D02*
X002032Y015659D01*
X002032Y015581D02*
X002112Y015581D01*
X002112Y015502D02*
X002032Y015502D01*
X002032Y015424D02*
X002112Y015424D01*
X002112Y016444D02*
X002189Y016444D01*
X002189Y016523D02*
X002112Y016523D01*
X002112Y016601D02*
X002189Y016601D01*
X002189Y016680D02*
X002112Y016680D01*
X002112Y016837D02*
X002189Y016837D01*
X002189Y016915D02*
X002112Y016915D01*
X002112Y016994D02*
X002189Y016994D01*
X002189Y017072D02*
X002112Y017072D01*
X002112Y017151D02*
X002189Y017151D01*
X002525Y018497D02*
X002505Y018518D01*
X002525Y018497D02*
X003455Y018497D01*
X003505Y018447D01*
X003555Y018497D01*
X004485Y018497D01*
X004505Y018518D01*
X004974Y019741D02*
X006385Y019741D01*
X006385Y019663D02*
X003645Y019663D01*
X003645Y019741D02*
X004036Y019741D01*
X003992Y019820D02*
X003645Y019820D01*
X003645Y019898D02*
X003992Y019898D01*
X003992Y019977D02*
X003645Y019977D01*
X003645Y020055D02*
X003992Y020055D01*
X003992Y020134D02*
X003645Y020134D01*
X003645Y020212D02*
X003992Y020212D01*
X003992Y020291D02*
X003645Y020291D01*
X003645Y020369D02*
X003993Y020369D01*
X004178Y020840D02*
X003510Y020840D01*
X003445Y020919D02*
X004177Y020919D01*
X004195Y020997D02*
X003445Y020997D01*
X003445Y021076D02*
X004240Y021076D01*
X004210Y020762D02*
X003587Y020762D01*
X003619Y020683D02*
X004276Y020683D01*
X004345Y020605D02*
X003645Y020605D01*
X003645Y020526D02*
X004345Y020526D01*
X004345Y020448D02*
X003645Y020448D01*
X003505Y020543D02*
X003505Y019097D01*
X003645Y019349D02*
X005633Y019349D01*
X005657Y019427D02*
X003645Y019427D01*
X003645Y019506D02*
X005693Y019506D01*
X005772Y019584D02*
X003645Y019584D01*
X003432Y020720D02*
X003305Y020847D01*
X003305Y021847D01*
X003419Y021939D02*
X003474Y021939D01*
X003445Y021861D02*
X003912Y021861D01*
X003854Y021782D02*
X003445Y021782D01*
X003445Y021704D02*
X003854Y021704D01*
X003854Y021625D02*
X003445Y021625D01*
X003445Y021547D02*
X003854Y021547D01*
X003854Y021468D02*
X003445Y021468D01*
X003445Y021390D02*
X003854Y021390D01*
X003854Y021311D02*
X003445Y021311D01*
X003445Y021233D02*
X003854Y021233D01*
X003868Y021154D02*
X003445Y021154D01*
X003432Y020720D02*
X003450Y020699D01*
X003467Y020676D01*
X003480Y020651D01*
X003491Y020626D01*
X003499Y020599D01*
X003503Y020571D01*
X003505Y020543D01*
X003255Y022097D02*
X005755Y021897D01*
X005686Y022096D02*
X005022Y022096D01*
X005156Y021782D02*
X005436Y021782D01*
X005274Y022253D02*
X005633Y022253D01*
X005654Y022175D02*
X005257Y022175D01*
X005156Y021704D02*
X006068Y021704D01*
X005848Y021625D02*
X005156Y021625D01*
X005156Y021547D02*
X005734Y021547D01*
X005674Y021468D02*
X005156Y021468D01*
X005156Y021390D02*
X005641Y021390D01*
X005633Y021311D02*
X005156Y021311D01*
X005156Y021233D02*
X005633Y021233D01*
X005662Y021154D02*
X005142Y021154D01*
X005017Y020369D02*
X005633Y020369D01*
X005633Y020291D02*
X005018Y020291D01*
X005018Y020212D02*
X005638Y020212D01*
X005671Y020134D02*
X005018Y020134D01*
X005018Y020055D02*
X005726Y020055D01*
X005830Y019977D02*
X005018Y019977D01*
X005018Y019898D02*
X006385Y019898D01*
X006385Y019820D02*
X005018Y019820D01*
X004700Y020762D02*
X006385Y020762D01*
X006385Y020840D02*
X004732Y020840D01*
X004733Y020919D02*
X006385Y020919D01*
X006385Y020683D02*
X004665Y020683D01*
X004665Y020605D02*
X005798Y020605D01*
X005714Y020526D02*
X004665Y020526D01*
X004665Y020448D02*
X005665Y020448D01*
X005784Y020997D02*
X004715Y020997D01*
X004670Y021076D02*
X005706Y021076D01*
X005755Y021897D02*
X005806Y021901D01*
X005856Y021900D01*
X005907Y021897D01*
X005957Y021889D01*
X006007Y021878D01*
X006055Y021863D01*
X006102Y021844D01*
X006148Y021822D01*
X006192Y021796D01*
X006234Y021768D01*
X006274Y021736D01*
X006311Y021701D01*
X006345Y021664D01*
X006377Y021624D01*
X006405Y021582D01*
X006431Y021538D01*
X006453Y021493D01*
X006471Y021445D01*
X006486Y021397D01*
X006497Y021347D01*
X006505Y021297D01*
X006505Y022297D02*
X006504Y022302D01*
X006501Y022305D01*
X006498Y022308D01*
X006493Y022309D01*
X005755Y022567D02*
X005583Y022567D01*
X005669Y024137D02*
X001341Y024137D01*
X001373Y024216D02*
X005637Y024216D01*
X005633Y024294D02*
X001377Y024294D01*
X001376Y024373D02*
X005634Y024373D01*
X005667Y024451D02*
X001343Y024451D01*
X001293Y024530D02*
X005717Y024530D01*
X005807Y024608D02*
X001203Y024608D01*
X000645Y024687D02*
X006385Y024687D01*
X006385Y024765D02*
X000645Y024765D01*
X003068Y023823D02*
X003885Y023823D01*
X003853Y023745D02*
X003117Y023745D01*
X003117Y023666D02*
X003853Y023666D01*
X003853Y023588D02*
X003117Y023588D01*
X003219Y022881D02*
X003734Y022881D01*
X003696Y022332D02*
X003274Y022332D01*
X003274Y022253D02*
X003696Y022253D01*
X004032Y022489D02*
X003274Y022489D01*
X004032Y022567D02*
X004112Y022567D01*
X004112Y022646D02*
X004032Y022646D01*
X004032Y022724D02*
X004112Y022724D01*
X004112Y022803D02*
X004032Y022803D01*
X004032Y022881D02*
X004112Y022881D01*
X004112Y023195D02*
X004189Y023195D01*
X004189Y023274D02*
X004112Y023274D01*
X004112Y023352D02*
X004189Y023352D01*
X004189Y023431D02*
X004112Y023431D01*
X004189Y023536D02*
X004448Y023536D01*
X004448Y023752D01*
X004439Y023787D01*
X004420Y023819D01*
X004394Y023845D01*
X004362Y023864D01*
X004327Y023873D01*
X004189Y023873D01*
X004189Y023536D01*
X004189Y023588D02*
X004112Y023588D01*
X004112Y023666D02*
X004189Y023666D01*
X004189Y023745D02*
X004112Y023745D01*
X004112Y023823D02*
X004189Y023823D01*
X004416Y023823D02*
X004650Y023823D01*
X004602Y023745D02*
X004448Y023745D01*
X004448Y023666D02*
X004602Y023666D01*
X004602Y023588D02*
X004448Y023588D01*
X005018Y018642D02*
X005889Y018642D01*
X006505Y017297D02*
X005505Y016697D01*
X005505Y015397D01*
X005681Y015110D02*
X005149Y015110D01*
X005156Y015031D02*
X005750Y015031D01*
X005888Y014953D02*
X005156Y014953D01*
X005156Y014874D02*
X006385Y014874D01*
X006385Y014796D02*
X005156Y014796D01*
X005156Y014717D02*
X006385Y014717D01*
X005880Y014639D02*
X005156Y014639D01*
X005156Y014560D02*
X005748Y014560D01*
X005680Y014482D02*
X005156Y014482D01*
X003861Y015110D02*
X003149Y015110D01*
X003156Y015031D02*
X003854Y015031D01*
X003854Y014953D02*
X003156Y014953D01*
X003156Y014874D02*
X003854Y014874D01*
X003854Y014796D02*
X003156Y014796D01*
X003156Y014717D02*
X003854Y014717D01*
X003854Y014639D02*
X003156Y014639D01*
X003156Y014560D02*
X003854Y014560D01*
X003854Y014482D02*
X003156Y014482D01*
X002069Y012912D02*
X000645Y012912D01*
X000645Y012833D02*
X002001Y012833D01*
X001933Y012755D02*
X000645Y012755D01*
X000645Y012676D02*
X001865Y012676D01*
X002755Y007747D02*
X002755Y007212D01*
X002715Y007172D01*
X005819Y006318D02*
X005843Y006318D01*
X005864Y006297D02*
X006385Y006297D01*
X006385Y006297D01*
X005864Y006297D01*
X006305Y005797D02*
X006405Y005897D01*
X006305Y007797D02*
X006455Y007847D01*
D20*
X005655Y006547D03*
X005455Y005547D03*
X005605Y007847D03*
X005305Y008497D03*
X004355Y009497D03*
X003755Y009497D03*
X003455Y012047D03*
X002005Y014047D03*
X003505Y018297D03*
X003505Y019097D03*
X002655Y020847D03*
X003505Y023047D03*
X004455Y020897D03*
X001405Y007747D03*
X001405Y006397D03*
D21*
X000755Y006797D01*
X000805Y007747D02*
X000755Y007797D01*
X000805Y007747D02*
X001405Y007747D01*
X001705Y006247D02*
X001705Y012247D01*
X002355Y012997D01*
X003205Y012997D01*
X003755Y013547D01*
X004475Y013547D01*
X004505Y013577D01*
X004505Y014785D01*
X004505Y012018D02*
X002505Y012018D01*
X003425Y012018D01*
X003455Y012047D01*
X002505Y013577D02*
X002505Y014097D01*
X002505Y014785D01*
X003505Y018297D02*
X003505Y018447D01*
X002505Y020697D02*
X002655Y020847D01*
X002505Y020997D01*
X002505Y021485D01*
X002505Y020697D02*
X002505Y020077D01*
X004455Y020897D02*
X004505Y020847D01*
X004505Y020077D01*
X004455Y020897D02*
X004505Y020947D01*
X004505Y021485D01*
X005605Y007847D02*
X006455Y007847D01*
X006305Y006797D02*
X005805Y006797D01*
X006405Y005897D02*
X005455Y005547D01*
X001705Y006247D02*
X001605Y005997D01*
X001455Y005797D01*
X000755Y005797D01*
D22*
X002005Y014047D02*
X002055Y014097D01*
X002505Y014097D01*
X000505Y023297D02*
X000905Y023697D01*
X001655Y023697D01*
X001905Y023947D01*
X002505Y023947D01*
M02*
