%
M48
M72
T01C0.0236
T02C0.0315
%
T01
X1405Y6397
X1405Y7747
X2005Y14047
X3455Y12047
X3755Y9497
X4355Y9497
X5305Y8497
X5605Y7847
X5655Y6547
X5455Y5547
X3505Y18297
X3505Y19097
X2655Y20847
X3505Y23047
X4455Y20897
T02
X6505Y21297
X6505Y20297
X6505Y19297
X6505Y18297
X6505Y17297
X6505Y16297
X6505Y15297
X6505Y14297
X6505Y13297
X6505Y12297
X6505Y11297
X6505Y10297
X6505Y22297
X6505Y23297
X6505Y24297
X505Y24297
X505Y23297
X505Y22297
X505Y21297
X505Y20297
X505Y19297
X505Y18297
X505Y17297
X505Y16297
X505Y15297
X505Y14297
X505Y13297
X505Y12297
X505Y11297
X505Y10297
M30
