G75*
%MOIN*%
%OFA0B0*%
%FSLAX24Y24*%
%IPPOS*%
%LPD*%
%AMOC8*
5,1,8,0,0,1.08239X$1,22.5*
%
%ADD10C,0.0000*%
%ADD11R,0.0827X0.0500*%
%ADD12R,0.0500X0.0800*%
%ADD13R,0.1102X0.0551*%
%ADD14R,0.0472X0.0551*%
%ADD15R,0.0315X0.0472*%
%ADD16R,0.0800X0.0800*%
%ADD17R,0.0354X0.0984*%
D10*
X000505Y005297D02*
X000505Y024982D01*
X006525Y024982D01*
X006525Y005297D01*
X000505Y005297D01*
D11*
X002505Y012018D03*
X002505Y013577D03*
X002505Y018518D03*
X002505Y020077D03*
X004505Y020077D03*
X004505Y018518D03*
X004505Y013577D03*
X004505Y012018D03*
D12*
X004505Y010947D03*
X004505Y008647D03*
X003505Y008647D03*
X003505Y010947D03*
X002505Y010947D03*
X002505Y008647D03*
D13*
X002505Y014785D03*
X002505Y021485D03*
X004505Y021485D03*
X004505Y014785D03*
D14*
X004072Y015809D03*
X004938Y015809D03*
X004938Y022509D03*
X004072Y022509D03*
X002938Y022509D03*
X002072Y022509D03*
X002072Y015809D03*
X002938Y015809D03*
D15*
X002859Y016797D03*
X002151Y016797D03*
X002151Y023497D03*
X002859Y023497D03*
X004151Y023497D03*
X004859Y023497D03*
X004859Y016797D03*
X004151Y016797D03*
D16*
X006305Y008797D03*
X006305Y007797D03*
X006305Y006797D03*
X006305Y005797D03*
X000755Y005797D03*
X000755Y006797D03*
X000755Y007797D03*
X000755Y008797D03*
D17*
X002215Y007172D03*
X002715Y007172D03*
X003215Y007172D03*
X003715Y007172D03*
X004215Y007172D03*
X004715Y007172D03*
X005215Y007172D03*
M02*
