G75*
%MOIN*%
%OFA0B0*%
%FSLAX24Y24*%
%IPPOS*%
%LPD*%
%AMOC8*
5,1,8,0,0,1.08239X$1,22.5*
%
%ADD10C,0.0000*%
%ADD11C,0.0660*%
%ADD12C,0.0515*%
%ADD13C,0.0356*%
%ADD14C,0.0080*%
%ADD15C,0.0400*%
%ADD16C,0.0100*%
%ADD17C,0.0120*%
%ADD18C,0.0160*%
D10*
X000680Y002797D02*
X000680Y022297D01*
X008680Y022297D01*
X008680Y002797D01*
X000680Y002797D01*
D11*
X001680Y007797D03*
X001680Y008797D03*
X001680Y009797D03*
X001680Y010797D03*
X001680Y011797D03*
X001680Y012797D03*
X001680Y013797D03*
X001680Y014797D03*
X001680Y015797D03*
X001680Y016797D03*
X001680Y017797D03*
X001680Y018797D03*
X001680Y019797D03*
X001680Y020797D03*
X001680Y021797D03*
X007680Y021797D03*
X007680Y020797D03*
X007680Y019797D03*
X007680Y018797D03*
X007680Y017797D03*
X007680Y016797D03*
X007680Y015797D03*
X007680Y014797D03*
X007680Y013797D03*
X007680Y012797D03*
X007680Y011797D03*
X007680Y010797D03*
X007680Y009797D03*
X007680Y008797D03*
X007680Y007797D03*
D12*
X008165Y007797D02*
X008680Y007797D01*
X008680Y008797D02*
X008165Y008797D01*
X008165Y009797D02*
X008680Y009797D01*
X008680Y010797D02*
X008165Y010797D01*
X008165Y011797D02*
X008680Y011797D01*
X008680Y012797D02*
X008165Y012797D01*
X008165Y013797D02*
X008680Y013797D01*
X008680Y014797D02*
X008165Y014797D01*
X008165Y015797D02*
X008680Y015797D01*
X008680Y016797D02*
X008165Y016797D01*
X008165Y017797D02*
X008680Y017797D01*
X008680Y018797D02*
X008165Y018797D01*
X008165Y019797D02*
X008680Y019797D01*
X008680Y020797D02*
X008165Y020797D01*
X008165Y021797D02*
X008680Y021797D01*
X001195Y021797D02*
X000680Y021797D01*
X000680Y020797D02*
X001195Y020797D01*
X001195Y019797D02*
X000680Y019797D01*
X000680Y018797D02*
X001195Y018797D01*
X001195Y017797D02*
X000680Y017797D01*
X000680Y016797D02*
X001195Y016797D01*
X001195Y015797D02*
X000680Y015797D01*
X000680Y014797D02*
X001195Y014797D01*
X001195Y013797D02*
X000680Y013797D01*
X000680Y012797D02*
X001195Y012797D01*
X001195Y011797D02*
X000680Y011797D01*
X000680Y010797D02*
X001195Y010797D01*
X001195Y009797D02*
X000680Y009797D01*
X000680Y008797D02*
X001195Y008797D01*
X001195Y007797D02*
X000680Y007797D01*
D13*
X002450Y005237D03*
X002390Y004307D03*
X004380Y006107D03*
X004930Y006327D03*
X005390Y006177D03*
X005200Y008397D03*
X005480Y009397D03*
X006030Y009397D03*
X004930Y010797D03*
X004630Y010047D03*
X004680Y012297D03*
X004680Y014297D03*
X004680Y015797D03*
X004480Y016547D03*
X003770Y018347D03*
X004680Y019697D03*
X005630Y018397D03*
X006380Y018397D03*
X006830Y018197D03*
X007080Y019247D03*
X003010Y012167D03*
X002680Y013297D03*
X006780Y005347D03*
X006870Y004327D03*
X006720Y003517D03*
D14*
X006606Y003771D02*
X003693Y005158D01*
X003540Y005391D01*
X003540Y005573D01*
X003577Y005536D01*
X003604Y005490D01*
X003628Y005484D01*
X003645Y005467D01*
X003698Y005467D01*
X004638Y005234D01*
X004655Y005217D01*
X004708Y005217D01*
X004759Y005204D01*
X004780Y005217D01*
X006465Y005217D01*
X006538Y005205D01*
X006544Y005190D01*
X006622Y005111D01*
X006725Y005069D01*
X006835Y005069D01*
X006938Y005111D01*
X007016Y005190D01*
X007058Y005292D01*
X007058Y005402D01*
X007016Y005505D01*
X006938Y005583D01*
X006835Y005625D01*
X006725Y005625D01*
X006622Y005583D01*
X006599Y005560D01*
X006566Y005565D01*
X006555Y005577D01*
X006495Y005577D01*
X006436Y005587D01*
X006422Y005577D01*
X004752Y005577D01*
X003901Y005788D01*
X003909Y007976D01*
X004200Y006321D01*
X004144Y006265D01*
X004102Y006162D01*
X004102Y006052D01*
X004144Y005950D01*
X004222Y005871D01*
X004325Y005829D01*
X004435Y005829D01*
X004538Y005871D01*
X004616Y005950D01*
X004658Y006052D01*
X004658Y006162D01*
X004616Y006265D01*
X004538Y006343D01*
X004476Y006368D01*
X004170Y008109D01*
X004170Y008927D01*
X004303Y008787D01*
X004308Y008767D01*
X004342Y008747D01*
X004368Y008719D01*
X004390Y008718D01*
X004922Y008400D01*
X004922Y008342D01*
X004964Y008240D01*
X005042Y008161D01*
X005145Y008119D01*
X005255Y008119D01*
X005358Y008161D01*
X005436Y008240D01*
X005478Y008342D01*
X005478Y008452D01*
X005436Y008555D01*
X005358Y008633D01*
X005255Y008675D01*
X005145Y008675D01*
X005064Y008642D01*
X004518Y008967D01*
X004380Y009113D01*
X004370Y010494D01*
X004652Y010807D01*
X004652Y010742D01*
X004694Y010640D01*
X004772Y010561D01*
X004875Y010519D01*
X004985Y010519D01*
X005088Y010561D01*
X005166Y010640D01*
X005208Y010742D01*
X005208Y010852D01*
X005166Y010955D01*
X005088Y011033D01*
X005070Y011040D01*
X005070Y011739D01*
X005238Y011907D01*
X005320Y011989D01*
X005320Y013105D01*
X004820Y013605D01*
X004820Y014054D01*
X004838Y014061D01*
X004916Y014140D01*
X004958Y014242D01*
X004958Y014352D01*
X004916Y014455D01*
X004838Y014533D01*
X004735Y014575D01*
X004625Y014575D01*
X004522Y014533D01*
X004520Y014530D01*
X004520Y016039D01*
X004538Y016057D01*
X004620Y016139D01*
X004620Y016304D01*
X004638Y016311D01*
X004716Y016390D01*
X004758Y016492D01*
X004758Y016602D01*
X004716Y016705D01*
X004638Y016783D01*
X004535Y016825D01*
X004425Y016825D01*
X004322Y016783D01*
X004244Y016705D01*
X004202Y016602D01*
X004202Y016492D01*
X004244Y016390D01*
X004322Y016311D01*
X004340Y016304D01*
X004340Y016255D01*
X004322Y016237D01*
X004240Y016155D01*
X004240Y011205D01*
X003972Y010937D01*
X003921Y010886D01*
X003949Y018133D01*
X004006Y018190D01*
X004048Y018292D01*
X004048Y018402D01*
X004006Y018505D01*
X003928Y018583D01*
X003825Y018625D01*
X003715Y018625D01*
X003629Y018590D01*
X003639Y018662D01*
X003645Y018667D01*
X004911Y018667D01*
X005356Y018266D01*
X005405Y018217D01*
X005411Y018217D01*
X005415Y018213D01*
X005420Y018214D01*
X005472Y018161D01*
X005575Y018119D01*
X005685Y018119D01*
X005788Y018161D01*
X005866Y018240D01*
X005908Y018342D01*
X005908Y018452D01*
X005866Y018555D01*
X005788Y018633D01*
X005685Y018675D01*
X005575Y018675D01*
X005482Y018637D01*
X005104Y018978D01*
X005055Y019027D01*
X005049Y019027D01*
X005045Y019031D01*
X004975Y019027D01*
X003495Y019027D01*
X003390Y018922D01*
X003352Y018884D01*
X003303Y018847D01*
X003301Y018832D01*
X003290Y018822D01*
X003290Y018760D01*
X003221Y018295D01*
X003212Y018287D01*
X003210Y018223D01*
X003201Y018160D01*
X003208Y018150D01*
X003202Y017964D01*
X003200Y017962D01*
X003200Y017890D01*
X003198Y017818D01*
X003200Y017816D01*
X003191Y012379D01*
X003168Y012403D01*
X003065Y012445D01*
X002955Y012445D01*
X002852Y012403D01*
X002774Y012325D01*
X002732Y012222D01*
X002732Y012112D01*
X002755Y012056D01*
X002740Y012042D01*
X002740Y011987D01*
X002728Y011933D01*
X002740Y011915D01*
X002740Y005411D01*
X002668Y005412D01*
X002608Y005473D01*
X002505Y005515D01*
X002395Y005515D01*
X002292Y005473D01*
X002214Y005395D01*
X002172Y005292D01*
X002172Y005182D01*
X002214Y005080D01*
X002292Y005001D01*
X002395Y004959D01*
X002505Y004959D01*
X002608Y005001D01*
X002659Y005053D01*
X002844Y005049D01*
X002845Y005047D01*
X002918Y005047D01*
X002991Y005046D01*
X002992Y005047D01*
X002995Y005047D01*
X003046Y005098D01*
X003098Y005149D01*
X003098Y005151D01*
X003100Y005152D01*
X003266Y005152D01*
X003220Y005223D02*
X003180Y005263D01*
X003180Y005283D01*
X003169Y005301D01*
X003180Y005356D01*
X003191Y011954D01*
X003168Y011931D01*
X003100Y011903D01*
X003190Y011903D01*
X003190Y011825D02*
X003100Y011825D01*
X003100Y011903D02*
X003100Y005299D01*
X003102Y005298D01*
X003100Y005225D01*
X003100Y005152D01*
X003100Y005231D02*
X003212Y005231D01*
X003220Y005223D02*
X003408Y004936D01*
X003425Y004887D01*
X003447Y004876D01*
X003460Y004856D01*
X003512Y004845D01*
X006448Y003447D01*
X006484Y003360D01*
X006562Y003281D01*
X006665Y003239D01*
X006775Y003239D01*
X006878Y003281D01*
X006956Y003360D01*
X006998Y003462D01*
X006998Y003572D01*
X006956Y003675D01*
X006878Y003753D01*
X006775Y003795D01*
X006665Y003795D01*
X006606Y003771D01*
X006508Y003818D02*
X008540Y003818D01*
X008540Y003896D02*
X006343Y003896D01*
X006178Y003975D02*
X008540Y003975D01*
X008540Y004053D02*
X006013Y004053D01*
X006000Y003661D02*
X000820Y003661D01*
X000820Y003739D02*
X005835Y003739D01*
X005670Y003818D02*
X000820Y003818D01*
X000820Y003896D02*
X005505Y003896D01*
X005683Y004210D02*
X008540Y004210D01*
X008540Y004132D02*
X005848Y004132D01*
X005519Y004289D02*
X008540Y004289D01*
X008540Y004367D02*
X005354Y004367D01*
X005189Y004446D02*
X008540Y004446D01*
X008540Y004524D02*
X005024Y004524D01*
X004859Y004603D02*
X008540Y004603D01*
X008540Y004681D02*
X004694Y004681D01*
X004529Y004760D02*
X008540Y004760D01*
X008540Y004838D02*
X004365Y004838D01*
X004200Y004917D02*
X008540Y004917D01*
X008540Y004995D02*
X004035Y004995D01*
X004022Y004603D02*
X000820Y004603D01*
X000820Y004681D02*
X003857Y004681D01*
X003692Y004760D02*
X000820Y004760D01*
X000820Y004838D02*
X003527Y004838D01*
X003415Y004917D02*
X000820Y004917D01*
X000820Y004995D02*
X002307Y004995D01*
X002220Y005074D02*
X000820Y005074D01*
X000820Y005152D02*
X002184Y005152D01*
X002172Y005231D02*
X000820Y005231D01*
X000820Y005309D02*
X002179Y005309D01*
X002211Y005388D02*
X000820Y005388D01*
X000820Y005466D02*
X002286Y005466D01*
X002614Y005466D02*
X002740Y005466D01*
X002740Y005545D02*
X000820Y005545D01*
X000820Y005623D02*
X002740Y005623D01*
X002740Y005702D02*
X000820Y005702D01*
X000820Y005780D02*
X002740Y005780D01*
X002740Y005859D02*
X000820Y005859D01*
X000820Y005937D02*
X002740Y005937D01*
X002740Y006016D02*
X000820Y006016D01*
X000820Y006094D02*
X002740Y006094D01*
X002740Y006173D02*
X000820Y006173D01*
X000820Y006251D02*
X002740Y006251D01*
X002740Y006330D02*
X000820Y006330D01*
X000820Y006408D02*
X002740Y006408D01*
X002740Y006487D02*
X000820Y006487D01*
X000820Y006565D02*
X002740Y006565D01*
X002740Y006644D02*
X000820Y006644D01*
X000820Y006722D02*
X002740Y006722D01*
X002740Y006801D02*
X000820Y006801D01*
X000820Y006879D02*
X002740Y006879D01*
X002740Y006958D02*
X000820Y006958D01*
X000820Y007036D02*
X002740Y007036D01*
X002740Y007115D02*
X000820Y007115D01*
X000820Y007193D02*
X002740Y007193D01*
X002740Y007272D02*
X000820Y007272D01*
X000820Y007350D02*
X001535Y007350D01*
X001570Y007339D02*
X001640Y007328D01*
X001640Y007757D01*
X001720Y007757D01*
X001720Y007328D01*
X001790Y007339D01*
X001860Y007361D01*
X001926Y007395D01*
X001986Y007439D01*
X002038Y007491D01*
X002082Y007551D01*
X002116Y007617D01*
X002138Y007687D01*
X002150Y007757D01*
X001720Y007757D01*
X001720Y007837D01*
X002150Y007837D01*
X002138Y007907D01*
X002116Y007977D01*
X002082Y008043D01*
X002038Y008103D01*
X001986Y008156D01*
X001926Y008199D01*
X001860Y008233D01*
X001790Y008255D01*
X001720Y008267D01*
X001720Y007837D01*
X001640Y007837D01*
X001640Y007757D01*
X001592Y007757D01*
X001592Y007758D01*
X001592Y007758D01*
X000820Y007758D01*
X000820Y007836D01*
X001592Y007836D01*
X001592Y007837D01*
X001640Y007837D01*
X001640Y008267D01*
X001570Y008255D01*
X001500Y008233D01*
X001434Y008199D01*
X001374Y008156D01*
X001372Y008154D01*
X001311Y008179D01*
X001234Y008195D01*
X000820Y008195D01*
X000820Y008440D01*
X001266Y008440D01*
X001382Y008487D01*
X001436Y008433D01*
X001594Y008367D01*
X001766Y008367D01*
X001924Y008433D01*
X002045Y008553D01*
X002110Y008712D01*
X002110Y008883D01*
X002045Y009041D01*
X001924Y009162D01*
X001766Y009227D01*
X001594Y009227D01*
X001436Y009162D01*
X001382Y009107D01*
X001266Y009155D01*
X000820Y009155D01*
X000820Y009440D01*
X001266Y009440D01*
X001382Y009487D01*
X001436Y009433D01*
X001594Y009367D01*
X001766Y009367D01*
X001924Y009433D01*
X002045Y009553D01*
X002110Y009712D01*
X002110Y009883D01*
X002045Y010041D01*
X001924Y010162D01*
X001766Y010227D01*
X001594Y010227D01*
X001436Y010162D01*
X001382Y010107D01*
X001266Y010155D01*
X000820Y010155D01*
X000820Y010440D01*
X001266Y010440D01*
X001382Y010487D01*
X001436Y010433D01*
X001594Y010367D01*
X001766Y010367D01*
X001924Y010433D01*
X002045Y010553D01*
X002110Y010712D01*
X002110Y010883D01*
X002045Y011041D01*
X001924Y011162D01*
X001766Y011227D01*
X001594Y011227D01*
X001436Y011162D01*
X001382Y011107D01*
X001266Y011155D01*
X000820Y011155D01*
X000820Y011440D01*
X001266Y011440D01*
X001382Y011487D01*
X001436Y011433D01*
X001594Y011367D01*
X001766Y011367D01*
X001924Y011433D01*
X002045Y011553D01*
X002110Y011712D01*
X002110Y011883D01*
X002045Y012041D01*
X001924Y012162D01*
X001766Y012227D01*
X001594Y012227D01*
X001436Y012162D01*
X001382Y012107D01*
X001266Y012155D01*
X000820Y012155D01*
X000820Y012440D01*
X001266Y012440D01*
X001382Y012487D01*
X001436Y012433D01*
X001594Y012367D01*
X001766Y012367D01*
X001924Y012433D01*
X002045Y012553D01*
X002110Y012712D01*
X002110Y012883D01*
X002045Y013041D01*
X001924Y013162D01*
X001766Y013227D01*
X001594Y013227D01*
X001436Y013162D01*
X001382Y013107D01*
X001266Y013155D01*
X000820Y013155D01*
X000820Y013440D01*
X001266Y013440D01*
X001382Y013487D01*
X001436Y013433D01*
X001594Y013367D01*
X001766Y013367D01*
X001924Y013433D01*
X002045Y013553D01*
X002110Y013712D01*
X002110Y013883D01*
X002045Y014041D01*
X001924Y014162D01*
X001766Y014227D01*
X001594Y014227D01*
X001436Y014162D01*
X001382Y014107D01*
X001266Y014155D01*
X000820Y014155D01*
X000820Y014440D01*
X001266Y014440D01*
X001382Y014487D01*
X001436Y014433D01*
X001594Y014367D01*
X001766Y014367D01*
X001924Y014433D01*
X002045Y014553D01*
X002110Y014712D01*
X002110Y014883D01*
X002045Y015041D01*
X001924Y015162D01*
X001766Y015227D01*
X001594Y015227D01*
X001436Y015162D01*
X001382Y015107D01*
X001266Y015155D01*
X000820Y015155D01*
X000820Y015440D01*
X001266Y015440D01*
X001382Y015487D01*
X001436Y015433D01*
X001594Y015367D01*
X001766Y015367D01*
X001924Y015433D01*
X002045Y015553D01*
X002110Y015712D01*
X002110Y015883D01*
X002045Y016041D01*
X001924Y016162D01*
X001766Y016227D01*
X001594Y016227D01*
X001436Y016162D01*
X001382Y016107D01*
X001266Y016155D01*
X000820Y016155D01*
X000820Y016440D01*
X001266Y016440D01*
X001382Y016487D01*
X001436Y016433D01*
X001594Y016367D01*
X001766Y016367D01*
X001924Y016433D01*
X002045Y016553D01*
X002110Y016712D01*
X002110Y016883D01*
X002045Y017041D01*
X001924Y017162D01*
X001766Y017227D01*
X001594Y017227D01*
X001436Y017162D01*
X001382Y017107D01*
X001266Y017155D01*
X000820Y017155D01*
X000820Y017440D01*
X001266Y017440D01*
X001382Y017487D01*
X001436Y017433D01*
X001594Y017367D01*
X001766Y017367D01*
X001924Y017433D01*
X002045Y017553D01*
X002110Y017712D01*
X002530Y017712D01*
X002530Y017634D02*
X002078Y017634D01*
X002110Y017712D02*
X002110Y017883D01*
X002045Y018041D01*
X001924Y018162D01*
X001766Y018227D01*
X001594Y018227D01*
X001436Y018162D01*
X001382Y018107D01*
X001266Y018155D01*
X000820Y018155D01*
X000820Y018440D01*
X001266Y018440D01*
X001382Y018487D01*
X001436Y018433D01*
X001594Y018367D01*
X001766Y018367D01*
X001924Y018433D01*
X002045Y018553D01*
X002110Y018712D01*
X002110Y018883D01*
X002045Y019041D01*
X001924Y019162D01*
X001766Y019227D01*
X001594Y019227D01*
X001436Y019162D01*
X001382Y019107D01*
X001266Y019155D01*
X000820Y019155D01*
X000820Y019440D01*
X001266Y019440D01*
X001382Y019487D01*
X001436Y019433D01*
X001594Y019367D01*
X001766Y019367D01*
X001924Y019433D01*
X002045Y019553D01*
X002110Y019712D01*
X002110Y019883D01*
X002045Y020041D01*
X001924Y020162D01*
X001766Y020227D01*
X001594Y020227D01*
X001436Y020162D01*
X001382Y020107D01*
X001266Y020155D01*
X000820Y020155D01*
X000820Y020440D01*
X001266Y020440D01*
X001382Y020487D01*
X001436Y020433D01*
X001594Y020367D01*
X001766Y020367D01*
X001924Y020433D01*
X002045Y020553D01*
X002083Y020647D01*
X002530Y020647D01*
X002530Y013536D01*
X002522Y013533D01*
X002444Y013455D01*
X002402Y013352D01*
X002402Y013242D01*
X002444Y013140D01*
X002522Y013061D01*
X002625Y013019D01*
X002735Y013019D01*
X002838Y013061D01*
X002916Y013140D01*
X002958Y013242D01*
X002958Y013352D01*
X002916Y013455D01*
X002838Y013533D01*
X002830Y013536D01*
X002830Y020859D01*
X002742Y020947D01*
X002083Y020947D01*
X002045Y021041D01*
X001924Y021162D01*
X001766Y021227D01*
X001594Y021227D01*
X001436Y021162D01*
X001382Y021107D01*
X001266Y021155D01*
X000820Y021155D01*
X000820Y021440D01*
X001266Y021440D01*
X001382Y021487D01*
X001436Y021433D01*
X001594Y021367D01*
X001766Y021367D01*
X001924Y021433D01*
X002045Y021553D01*
X002110Y021712D01*
X002110Y021883D01*
X002045Y022041D01*
X001928Y022157D01*
X007432Y022157D01*
X007315Y022041D01*
X007250Y021883D01*
X007250Y021712D01*
X007315Y021553D01*
X007436Y021433D01*
X007594Y021367D01*
X007766Y021367D01*
X007924Y021433D01*
X007978Y021487D01*
X008094Y021440D01*
X008540Y021440D01*
X008540Y021155D01*
X008094Y021155D01*
X007978Y021107D01*
X007924Y021162D01*
X007766Y021227D01*
X007594Y021227D01*
X007436Y021162D01*
X007315Y021041D01*
X007250Y020883D01*
X007250Y020712D01*
X007293Y020608D01*
X006940Y020255D01*
X006940Y019490D01*
X006922Y019483D01*
X006844Y019405D01*
X006802Y019302D01*
X006802Y019223D01*
X006520Y019505D01*
X006438Y019587D01*
X004988Y019587D01*
X004951Y019624D01*
X004958Y019642D01*
X004958Y019752D01*
X004916Y019855D01*
X004838Y019933D01*
X004735Y019975D01*
X004625Y019975D01*
X004522Y019933D01*
X004444Y019855D01*
X004402Y019752D01*
X004402Y019642D01*
X004444Y019540D01*
X004522Y019461D01*
X004625Y019419D01*
X004735Y019419D01*
X004753Y019426D01*
X004872Y019307D01*
X006322Y019307D01*
X006972Y018657D01*
X007273Y018657D01*
X007315Y018553D01*
X007436Y018433D01*
X007594Y018367D01*
X007766Y018367D01*
X007924Y018433D01*
X007978Y018487D01*
X008094Y018440D01*
X008540Y018440D01*
X008540Y018155D01*
X008094Y018155D01*
X007978Y018107D01*
X007924Y018162D01*
X007766Y018227D01*
X007594Y018227D01*
X007436Y018162D01*
X007315Y018041D01*
X007260Y017906D01*
X006767Y017870D01*
X006759Y017876D01*
X006711Y017866D01*
X006662Y017862D01*
X006655Y017855D01*
X006650Y017853D01*
X006741Y017933D01*
X006775Y017919D01*
X006885Y017919D01*
X006988Y017961D01*
X007066Y018040D01*
X007108Y018142D01*
X007108Y018252D01*
X007066Y018355D01*
X006988Y018433D01*
X006885Y018475D01*
X006775Y018475D01*
X006672Y018433D01*
X006658Y018418D01*
X006658Y018452D01*
X006616Y018555D01*
X006538Y018633D01*
X006435Y018675D01*
X006325Y018675D01*
X006222Y018633D01*
X006144Y018555D01*
X006102Y018452D01*
X006102Y018348D01*
X005429Y017787D01*
X005422Y017787D01*
X005385Y017751D01*
X005346Y017717D01*
X005345Y017710D01*
X005340Y017705D01*
X005340Y017653D01*
X005335Y017602D01*
X005340Y017596D01*
X005340Y009640D01*
X005322Y009633D01*
X005244Y009555D01*
X005202Y009452D01*
X005202Y009342D01*
X005244Y009240D01*
X005322Y009161D01*
X005425Y009119D01*
X005535Y009119D01*
X005638Y009161D01*
X005716Y009240D01*
X005755Y009334D01*
X005794Y009240D01*
X005872Y009161D01*
X005975Y009119D01*
X006085Y009119D01*
X006188Y009161D01*
X006266Y009240D01*
X006308Y009342D01*
X006308Y009452D01*
X006266Y009555D01*
X006188Y009633D01*
X006170Y009640D01*
X006170Y017434D01*
X006640Y017845D01*
X006618Y017812D01*
X006586Y017775D01*
X006587Y017764D01*
X006371Y017436D01*
X006340Y017405D01*
X006340Y017389D01*
X006331Y017376D01*
X006340Y017333D01*
X006310Y007101D01*
X005638Y006960D01*
X005608Y006965D01*
X005584Y006948D01*
X005554Y006942D01*
X005538Y006917D01*
X005049Y006579D01*
X004985Y006605D01*
X004875Y006605D01*
X004772Y006563D01*
X004694Y006485D01*
X004652Y006382D01*
X004652Y006272D01*
X004694Y006170D01*
X004772Y006091D01*
X004875Y006049D01*
X004985Y006049D01*
X005088Y006091D01*
X005114Y006117D01*
X005154Y006020D01*
X005232Y005941D01*
X005335Y005899D01*
X005445Y005899D01*
X005548Y005941D01*
X005626Y006020D01*
X005668Y006122D01*
X005668Y006184D01*
X006017Y006398D01*
X006799Y006617D01*
X006838Y006617D01*
X006853Y006632D01*
X006874Y006638D01*
X006893Y006671D01*
X006920Y006699D01*
X006920Y006720D01*
X006930Y006739D01*
X006920Y006776D01*
X006950Y016375D01*
X007289Y016617D01*
X007315Y016553D01*
X007436Y016433D01*
X007594Y016367D01*
X007766Y016367D01*
X007924Y016433D01*
X007978Y016487D01*
X008094Y016440D01*
X008540Y016440D01*
X008540Y016155D01*
X008094Y016155D01*
X007978Y016107D01*
X007924Y016162D01*
X007766Y016227D01*
X007594Y016227D01*
X007436Y016162D01*
X007315Y016041D01*
X007250Y015883D01*
X007250Y015712D01*
X007315Y015553D01*
X007436Y015433D01*
X007594Y015367D01*
X007766Y015367D01*
X007924Y015433D01*
X007978Y015487D01*
X008094Y015440D01*
X008540Y015440D01*
X008540Y015155D01*
X008094Y015155D01*
X007978Y015107D01*
X007924Y015162D01*
X007766Y015227D01*
X007594Y015227D01*
X007436Y015162D01*
X007315Y015041D01*
X007250Y014883D01*
X007250Y014712D01*
X007315Y014553D01*
X007436Y014433D01*
X007594Y014367D01*
X007766Y014367D01*
X007924Y014433D01*
X007978Y014487D01*
X008094Y014440D01*
X008540Y014440D01*
X008540Y014155D01*
X008094Y014155D01*
X007978Y014107D01*
X007924Y014162D01*
X007766Y014227D01*
X007594Y014227D01*
X007436Y014162D01*
X007315Y014041D01*
X007250Y013883D01*
X007250Y013712D01*
X007315Y013553D01*
X007436Y013433D01*
X007594Y013367D01*
X007766Y013367D01*
X007924Y013433D01*
X007978Y013487D01*
X008094Y013440D01*
X008540Y013440D01*
X008540Y013155D01*
X008094Y013155D01*
X007978Y013107D01*
X007924Y013162D01*
X007766Y013227D01*
X007594Y013227D01*
X007436Y013162D01*
X007315Y013041D01*
X007250Y012883D01*
X007250Y012712D01*
X007315Y012553D01*
X007436Y012433D01*
X007594Y012367D01*
X007766Y012367D01*
X007924Y012433D01*
X007978Y012487D01*
X008094Y012440D01*
X008540Y012440D01*
X008540Y012155D01*
X008094Y012155D01*
X007978Y012107D01*
X007924Y012162D01*
X007766Y012227D01*
X007594Y012227D01*
X007436Y012162D01*
X007315Y012041D01*
X007250Y011883D01*
X007250Y011712D01*
X007315Y011553D01*
X007436Y011433D01*
X007594Y011367D01*
X007766Y011367D01*
X007924Y011433D01*
X007978Y011487D01*
X008094Y011440D01*
X008540Y011440D01*
X008540Y011155D01*
X008094Y011155D01*
X007978Y011107D01*
X007924Y011162D01*
X007766Y011227D01*
X007594Y011227D01*
X007436Y011162D01*
X007315Y011041D01*
X007250Y010883D01*
X007250Y010712D01*
X007315Y010553D01*
X007436Y010433D01*
X007594Y010367D01*
X007766Y010367D01*
X007924Y010433D01*
X007978Y010487D01*
X008094Y010440D01*
X008540Y010440D01*
X008540Y010155D01*
X008094Y010155D01*
X007978Y010107D01*
X007924Y010162D01*
X007766Y010227D01*
X007594Y010227D01*
X007436Y010162D01*
X007315Y010041D01*
X007250Y009883D01*
X007250Y009712D01*
X007315Y009553D01*
X007436Y009433D01*
X007594Y009367D01*
X007766Y009367D01*
X007924Y009433D01*
X007978Y009487D01*
X008094Y009440D01*
X008540Y009440D01*
X008540Y009155D01*
X008094Y009155D01*
X007978Y009107D01*
X007924Y009162D01*
X007766Y009227D01*
X007594Y009227D01*
X007436Y009162D01*
X007315Y009041D01*
X007250Y008883D01*
X007250Y008712D01*
X007315Y008553D01*
X007436Y008433D01*
X007594Y008367D01*
X007766Y008367D01*
X007924Y008433D01*
X007978Y008487D01*
X008094Y008440D01*
X008540Y008440D01*
X008540Y008155D01*
X008094Y008155D01*
X007978Y008107D01*
X007924Y008162D01*
X007766Y008227D01*
X007594Y008227D01*
X007436Y008162D01*
X007315Y008041D01*
X007250Y007883D01*
X007250Y007712D01*
X007315Y007553D01*
X007436Y007433D01*
X007594Y007367D01*
X007766Y007367D01*
X007924Y007433D01*
X007978Y007487D01*
X008094Y007440D01*
X008540Y007440D01*
X008540Y002937D01*
X000820Y002937D01*
X000820Y007400D01*
X001234Y007400D01*
X001311Y007415D01*
X001372Y007440D01*
X001374Y007439D01*
X001434Y007395D01*
X001500Y007361D01*
X001570Y007339D01*
X001640Y007350D02*
X001720Y007350D01*
X001720Y007429D02*
X001640Y007429D01*
X001640Y007507D02*
X001720Y007507D01*
X001720Y007586D02*
X001640Y007586D01*
X001640Y007664D02*
X001720Y007664D01*
X001720Y007743D02*
X001640Y007743D01*
X001640Y007821D02*
X000820Y007821D01*
X000820Y008214D02*
X001462Y008214D01*
X001586Y008371D02*
X000820Y008371D01*
X000820Y008292D02*
X002740Y008292D01*
X002740Y008214D02*
X001898Y008214D01*
X002007Y008135D02*
X002740Y008135D01*
X002740Y008057D02*
X002072Y008057D01*
X002115Y007978D02*
X002740Y007978D01*
X002740Y007900D02*
X002140Y007900D01*
X002147Y007743D02*
X002740Y007743D01*
X002740Y007821D02*
X001720Y007821D01*
X001720Y007900D02*
X001640Y007900D01*
X001640Y007978D02*
X001720Y007978D01*
X001720Y008057D02*
X001640Y008057D01*
X001640Y008135D02*
X001720Y008135D01*
X001720Y008214D02*
X001640Y008214D01*
X001774Y008371D02*
X002740Y008371D01*
X002740Y008449D02*
X001940Y008449D01*
X002019Y008528D02*
X002740Y008528D01*
X002740Y008606D02*
X002066Y008606D01*
X002099Y008685D02*
X002740Y008685D01*
X002740Y008763D02*
X002110Y008763D01*
X002110Y008842D02*
X002740Y008842D01*
X002740Y008920D02*
X002094Y008920D01*
X002062Y008999D02*
X002740Y008999D01*
X002740Y009077D02*
X002008Y009077D01*
X001930Y009156D02*
X002740Y009156D01*
X002740Y009234D02*
X000820Y009234D01*
X000820Y009156D02*
X001430Y009156D01*
X001536Y009391D02*
X000820Y009391D01*
X000820Y009313D02*
X002740Y009313D01*
X002740Y009391D02*
X001824Y009391D01*
X001961Y009470D02*
X002740Y009470D01*
X002740Y009548D02*
X002039Y009548D01*
X002075Y009627D02*
X002740Y009627D01*
X002740Y009705D02*
X002107Y009705D01*
X002110Y009784D02*
X002740Y009784D01*
X002740Y009862D02*
X002110Y009862D01*
X002086Y009941D02*
X002740Y009941D01*
X002740Y010019D02*
X002053Y010019D01*
X001988Y010098D02*
X002740Y010098D01*
X002740Y010176D02*
X001889Y010176D01*
X001873Y010412D02*
X002740Y010412D01*
X002740Y010490D02*
X001981Y010490D01*
X002051Y010569D02*
X002740Y010569D01*
X002740Y010647D02*
X002083Y010647D01*
X002110Y010726D02*
X002740Y010726D01*
X002740Y010804D02*
X002110Y010804D01*
X002110Y010883D02*
X002740Y010883D01*
X002740Y010961D02*
X002077Y010961D01*
X002045Y011040D02*
X002740Y011040D01*
X002740Y011118D02*
X001967Y011118D01*
X001839Y011197D02*
X002740Y011197D01*
X002740Y011275D02*
X000820Y011275D01*
X000820Y011197D02*
X001521Y011197D01*
X001437Y011432D02*
X000820Y011432D01*
X000820Y011354D02*
X002740Y011354D01*
X002740Y011432D02*
X001923Y011432D01*
X002002Y011511D02*
X002740Y011511D01*
X002740Y011589D02*
X002059Y011589D01*
X002092Y011668D02*
X002740Y011668D01*
X002740Y011746D02*
X002110Y011746D01*
X002110Y011825D02*
X002740Y011825D01*
X002740Y011903D02*
X002102Y011903D01*
X002069Y011982D02*
X002739Y011982D01*
X002753Y012060D02*
X002025Y012060D01*
X001947Y012139D02*
X002732Y012139D01*
X002732Y012217D02*
X001790Y012217D01*
X001783Y012374D02*
X002824Y012374D01*
X002762Y012296D02*
X000820Y012296D01*
X000820Y012374D02*
X001577Y012374D01*
X001570Y012217D02*
X000820Y012217D01*
X000820Y013159D02*
X001434Y013159D01*
X001528Y013395D02*
X000820Y013395D01*
X000820Y013316D02*
X002402Y013316D01*
X002404Y013238D02*
X000820Y013238D01*
X000820Y014180D02*
X001480Y014180D01*
X001478Y014415D02*
X000820Y014415D01*
X000820Y014337D02*
X002530Y014337D01*
X002530Y014415D02*
X001882Y014415D01*
X001985Y014494D02*
X002530Y014494D01*
X002530Y014572D02*
X002052Y014572D01*
X002085Y014651D02*
X002530Y014651D01*
X002530Y014729D02*
X002110Y014729D01*
X002110Y014808D02*
X002530Y014808D01*
X002530Y014886D02*
X002109Y014886D01*
X002076Y014965D02*
X002530Y014965D01*
X002530Y015043D02*
X002042Y015043D01*
X001964Y015122D02*
X002530Y015122D01*
X002530Y015200D02*
X001831Y015200D01*
X001927Y015436D02*
X002530Y015436D01*
X002530Y015514D02*
X002005Y015514D01*
X002061Y015593D02*
X002530Y015593D01*
X002530Y015671D02*
X002093Y015671D01*
X002110Y015750D02*
X002530Y015750D01*
X002530Y015828D02*
X002110Y015828D01*
X002100Y015907D02*
X002530Y015907D01*
X002530Y015985D02*
X002068Y015985D01*
X002022Y016064D02*
X002530Y016064D01*
X002530Y016142D02*
X001943Y016142D01*
X001781Y016221D02*
X002530Y016221D01*
X002530Y016299D02*
X000820Y016299D01*
X000820Y016221D02*
X001579Y016221D01*
X001569Y016378D02*
X000820Y016378D01*
X000820Y017163D02*
X001439Y017163D01*
X001520Y017398D02*
X000820Y017398D01*
X000820Y017320D02*
X002530Y017320D01*
X002530Y017398D02*
X001840Y017398D01*
X001968Y017477D02*
X002530Y017477D01*
X002530Y017555D02*
X002045Y017555D01*
X002110Y017791D02*
X002530Y017791D01*
X002530Y017869D02*
X002110Y017869D01*
X002083Y017948D02*
X002530Y017948D01*
X002530Y018026D02*
X002051Y018026D01*
X001981Y018105D02*
X002530Y018105D01*
X002530Y018183D02*
X001872Y018183D01*
X001890Y018419D02*
X002530Y018419D01*
X002530Y018497D02*
X001988Y018497D01*
X002054Y018576D02*
X002530Y018576D01*
X002530Y018654D02*
X002086Y018654D01*
X002110Y018733D02*
X002530Y018733D01*
X002530Y018811D02*
X002110Y018811D01*
X002107Y018890D02*
X002530Y018890D01*
X002530Y018968D02*
X002075Y018968D01*
X002039Y019047D02*
X002530Y019047D01*
X002530Y019125D02*
X001960Y019125D01*
X001822Y019204D02*
X002530Y019204D01*
X002530Y019282D02*
X000820Y019282D01*
X000820Y019204D02*
X001538Y019204D01*
X001430Y019439D02*
X000820Y019439D01*
X000820Y019361D02*
X002530Y019361D01*
X002530Y019439D02*
X001930Y019439D01*
X002009Y019518D02*
X002530Y019518D01*
X002530Y019596D02*
X002062Y019596D01*
X002095Y019675D02*
X002530Y019675D01*
X002530Y019753D02*
X002110Y019753D01*
X002110Y019832D02*
X002530Y019832D01*
X002530Y019910D02*
X002099Y019910D01*
X002066Y019989D02*
X002530Y019989D01*
X002530Y020067D02*
X002018Y020067D01*
X001940Y020146D02*
X002530Y020146D01*
X002530Y020224D02*
X001773Y020224D01*
X001799Y020381D02*
X002530Y020381D01*
X002530Y020303D02*
X000820Y020303D01*
X000820Y020381D02*
X001561Y020381D01*
X001587Y020224D02*
X000820Y020224D01*
X000820Y021166D02*
X001447Y021166D01*
X001511Y021402D02*
X000820Y021402D01*
X000820Y021323D02*
X008540Y021323D01*
X008540Y021245D02*
X000820Y021245D01*
X001314Y020460D02*
X001409Y020460D01*
X001420Y020146D02*
X001288Y020146D01*
X001337Y019125D02*
X001400Y019125D01*
X001470Y018419D02*
X000820Y018419D01*
X000820Y018340D02*
X002530Y018340D01*
X002530Y018262D02*
X000820Y018262D01*
X000820Y018183D02*
X001488Y018183D01*
X001392Y017477D02*
X001355Y017477D01*
X001306Y016456D02*
X001413Y016456D01*
X001417Y016142D02*
X001296Y016142D01*
X001433Y015436D02*
X000820Y015436D01*
X000820Y015357D02*
X002530Y015357D01*
X002530Y015279D02*
X000820Y015279D01*
X000820Y015200D02*
X001529Y015200D01*
X001396Y015122D02*
X001346Y015122D01*
X001880Y014180D02*
X002530Y014180D01*
X002530Y014258D02*
X000820Y014258D01*
X001347Y013473D02*
X001396Y013473D01*
X001832Y013395D02*
X002419Y013395D01*
X002463Y013473D02*
X001964Y013473D01*
X002043Y013552D02*
X002530Y013552D01*
X002530Y013630D02*
X002076Y013630D01*
X002109Y013709D02*
X002530Y013709D01*
X002530Y013787D02*
X002110Y013787D01*
X002110Y013866D02*
X002530Y013866D01*
X002530Y013944D02*
X002085Y013944D01*
X002052Y014023D02*
X002530Y014023D01*
X002530Y014101D02*
X001984Y014101D01*
X001926Y013159D02*
X002436Y013159D01*
X002503Y013081D02*
X002005Y013081D01*
X002061Y013002D02*
X003192Y013002D01*
X003192Y012924D02*
X002093Y012924D01*
X002110Y012845D02*
X003192Y012845D01*
X003192Y012767D02*
X002110Y012767D01*
X002100Y012688D02*
X003192Y012688D01*
X003192Y012610D02*
X002068Y012610D01*
X002022Y012531D02*
X003191Y012531D01*
X003191Y012453D02*
X001944Y012453D01*
X001416Y012453D02*
X001297Y012453D01*
X001305Y012139D02*
X001413Y012139D01*
X001393Y011118D02*
X001354Y011118D01*
X001487Y010412D02*
X000820Y010412D01*
X000820Y010333D02*
X002740Y010333D01*
X002740Y010255D02*
X000820Y010255D01*
X000820Y010176D02*
X001471Y010176D01*
X001399Y009470D02*
X001338Y009470D01*
X001289Y008449D02*
X001420Y008449D01*
X001592Y007836D02*
X001592Y007836D01*
X001388Y007429D02*
X001344Y007429D01*
X001825Y007350D02*
X002740Y007350D01*
X002740Y007429D02*
X001972Y007429D01*
X002050Y007507D02*
X002740Y007507D01*
X002740Y007586D02*
X002100Y007586D01*
X002131Y007664D02*
X002740Y007664D01*
X003100Y007664D02*
X003184Y007664D01*
X003184Y007586D02*
X003100Y007586D01*
X003100Y007507D02*
X003183Y007507D01*
X003183Y007429D02*
X003100Y007429D01*
X003100Y007350D02*
X003183Y007350D01*
X003183Y007272D02*
X003100Y007272D01*
X003100Y007193D02*
X003183Y007193D01*
X003183Y007115D02*
X003100Y007115D01*
X003100Y007036D02*
X003183Y007036D01*
X003183Y006958D02*
X003100Y006958D01*
X003100Y006879D02*
X003182Y006879D01*
X003182Y006801D02*
X003100Y006801D01*
X003100Y006722D02*
X003182Y006722D01*
X003182Y006644D02*
X003100Y006644D01*
X003100Y006565D02*
X003182Y006565D01*
X003182Y006487D02*
X003100Y006487D01*
X003100Y006408D02*
X003182Y006408D01*
X003182Y006330D02*
X003100Y006330D01*
X003100Y006251D02*
X003181Y006251D01*
X003181Y006173D02*
X003100Y006173D01*
X003100Y006094D02*
X003181Y006094D01*
X003181Y006016D02*
X003100Y006016D01*
X003100Y005937D02*
X003181Y005937D01*
X003181Y005859D02*
X003100Y005859D01*
X003100Y005780D02*
X003181Y005780D01*
X003181Y005702D02*
X003100Y005702D01*
X003100Y005623D02*
X003180Y005623D01*
X003180Y005545D02*
X003100Y005545D01*
X003100Y005466D02*
X003180Y005466D01*
X003180Y005388D02*
X003100Y005388D01*
X003100Y005309D02*
X003170Y005309D01*
X003318Y005074D02*
X003021Y005074D01*
X003369Y004995D02*
X002593Y004995D01*
X002390Y004307D02*
X002420Y004247D01*
X003594Y005309D02*
X004336Y005309D01*
X004249Y005702D02*
X008540Y005702D01*
X008540Y005780D02*
X003932Y005780D01*
X003901Y005859D02*
X004253Y005859D01*
X004157Y005937D02*
X003901Y005937D01*
X003901Y006016D02*
X004117Y006016D01*
X004102Y006094D02*
X003902Y006094D01*
X003902Y006173D02*
X004106Y006173D01*
X004139Y006251D02*
X003902Y006251D01*
X003903Y006330D02*
X004199Y006330D01*
X004185Y006408D02*
X003903Y006408D01*
X003903Y006487D02*
X004171Y006487D01*
X004157Y006565D02*
X003904Y006565D01*
X003904Y006644D02*
X004143Y006644D01*
X004130Y006722D02*
X003904Y006722D01*
X003905Y006801D02*
X004116Y006801D01*
X004102Y006879D02*
X003905Y006879D01*
X003905Y006958D02*
X004088Y006958D01*
X004074Y007036D02*
X003905Y007036D01*
X003906Y007115D02*
X004061Y007115D01*
X004047Y007193D02*
X003906Y007193D01*
X003906Y007272D02*
X004033Y007272D01*
X004019Y007350D02*
X003907Y007350D01*
X003907Y007429D02*
X004005Y007429D01*
X003992Y007507D02*
X003907Y007507D01*
X003908Y007586D02*
X003978Y007586D01*
X003964Y007664D02*
X003908Y007664D01*
X003908Y007743D02*
X003950Y007743D01*
X003936Y007821D02*
X003909Y007821D01*
X003909Y007900D02*
X003923Y007900D01*
X004030Y008097D02*
X004380Y006107D01*
X004507Y005859D02*
X008540Y005859D01*
X008540Y005937D02*
X005537Y005937D01*
X005622Y006016D02*
X008540Y006016D01*
X008540Y006094D02*
X005657Y006094D01*
X005668Y006173D02*
X008540Y006173D01*
X008540Y006251D02*
X005778Y006251D01*
X005906Y006330D02*
X008540Y006330D01*
X008540Y006408D02*
X006054Y006408D01*
X005960Y006527D02*
X005390Y006177D01*
X005243Y005937D02*
X004603Y005937D01*
X004643Y006016D02*
X005158Y006016D01*
X005123Y006094D02*
X005090Y006094D01*
X004930Y006327D02*
X005640Y006817D01*
X006450Y006987D01*
X006480Y017347D01*
X006730Y017727D01*
X007680Y017797D01*
X007872Y018183D02*
X008540Y018183D01*
X008540Y018262D02*
X007104Y018262D01*
X007108Y018183D02*
X007488Y018183D01*
X007379Y018105D02*
X007093Y018105D01*
X007052Y018026D02*
X007309Y018026D01*
X007277Y017948D02*
X006955Y017948D01*
X006830Y018197D02*
X006030Y017497D01*
X006030Y009397D01*
X005886Y009156D02*
X005624Y009156D01*
X005710Y009234D02*
X005800Y009234D01*
X005764Y009313D02*
X005746Y009313D01*
X005480Y009397D02*
X005480Y017647D01*
X006380Y018397D01*
X006274Y018654D02*
X005736Y018654D01*
X005845Y018576D02*
X006165Y018576D01*
X006120Y018497D02*
X005890Y018497D01*
X005908Y018419D02*
X006102Y018419D01*
X006093Y018340D02*
X005907Y018340D01*
X005875Y018262D02*
X005999Y018262D01*
X005905Y018183D02*
X005809Y018183D01*
X005810Y018105D02*
X003949Y018105D01*
X003949Y018026D02*
X005716Y018026D01*
X005622Y017948D02*
X003948Y017948D01*
X003948Y017869D02*
X005528Y017869D01*
X005434Y017791D02*
X003948Y017791D01*
X003947Y017712D02*
X005345Y017712D01*
X005338Y017634D02*
X003947Y017634D01*
X003947Y017555D02*
X005340Y017555D01*
X005340Y017477D02*
X003947Y017477D01*
X003946Y017398D02*
X005340Y017398D01*
X005340Y017320D02*
X003946Y017320D01*
X003946Y017241D02*
X005340Y017241D01*
X005340Y017163D02*
X003945Y017163D01*
X003945Y017084D02*
X005340Y017084D01*
X005340Y017006D02*
X003945Y017006D01*
X003944Y016927D02*
X005340Y016927D01*
X005340Y016849D02*
X003944Y016849D01*
X003944Y016770D02*
X004310Y016770D01*
X004239Y016692D02*
X003943Y016692D01*
X003943Y016613D02*
X004206Y016613D01*
X004202Y016535D02*
X003943Y016535D01*
X003943Y016456D02*
X004217Y016456D01*
X004256Y016378D02*
X003942Y016378D01*
X003942Y016299D02*
X004340Y016299D01*
X004322Y016237D02*
X004322Y016237D01*
X004306Y016221D02*
X003942Y016221D01*
X003941Y016142D02*
X004240Y016142D01*
X004240Y016064D02*
X003941Y016064D01*
X003941Y015985D02*
X004240Y015985D01*
X004240Y015907D02*
X003940Y015907D01*
X003940Y015828D02*
X004240Y015828D01*
X004240Y015750D02*
X003940Y015750D01*
X003939Y015671D02*
X004240Y015671D01*
X004240Y015593D02*
X003939Y015593D01*
X003939Y015514D02*
X004240Y015514D01*
X004240Y015436D02*
X003939Y015436D01*
X003938Y015357D02*
X004240Y015357D01*
X004240Y015279D02*
X003938Y015279D01*
X003938Y015200D02*
X004240Y015200D01*
X004240Y015122D02*
X003937Y015122D01*
X003937Y015043D02*
X004240Y015043D01*
X004240Y014965D02*
X003937Y014965D01*
X003936Y014886D02*
X004240Y014886D01*
X004240Y014808D02*
X003936Y014808D01*
X003936Y014729D02*
X004240Y014729D01*
X004240Y014651D02*
X003935Y014651D01*
X003935Y014572D02*
X004240Y014572D01*
X004240Y014494D02*
X003935Y014494D01*
X003935Y014415D02*
X004240Y014415D01*
X004240Y014337D02*
X003934Y014337D01*
X003934Y014258D02*
X004240Y014258D01*
X004240Y014180D02*
X003934Y014180D01*
X003933Y014101D02*
X004240Y014101D01*
X004240Y014023D02*
X003933Y014023D01*
X003933Y013944D02*
X004240Y013944D01*
X004240Y013866D02*
X003932Y013866D01*
X003932Y013787D02*
X004240Y013787D01*
X004240Y013709D02*
X003932Y013709D01*
X003931Y013630D02*
X004240Y013630D01*
X004240Y013552D02*
X003931Y013552D01*
X003931Y013473D02*
X004240Y013473D01*
X004240Y013395D02*
X003931Y013395D01*
X003930Y013316D02*
X004240Y013316D01*
X004240Y013238D02*
X003930Y013238D01*
X003930Y013159D02*
X004240Y013159D01*
X004240Y013081D02*
X003929Y013081D01*
X003929Y013002D02*
X004240Y013002D01*
X004240Y012924D02*
X003929Y012924D01*
X003928Y012845D02*
X004240Y012845D01*
X004240Y012767D02*
X003928Y012767D01*
X003928Y012688D02*
X004240Y012688D01*
X004240Y012610D02*
X003927Y012610D01*
X003927Y012531D02*
X004240Y012531D01*
X004240Y012453D02*
X003927Y012453D01*
X003926Y012374D02*
X004240Y012374D01*
X004240Y012296D02*
X003926Y012296D01*
X003926Y012217D02*
X004240Y012217D01*
X004240Y012139D02*
X003926Y012139D01*
X003925Y012060D02*
X004240Y012060D01*
X004240Y011982D02*
X003925Y011982D01*
X003925Y011903D02*
X004240Y011903D01*
X004240Y011825D02*
X003924Y011825D01*
X003924Y011746D02*
X004240Y011746D01*
X004240Y011668D02*
X003924Y011668D01*
X003923Y011589D02*
X004240Y011589D01*
X004240Y011511D02*
X003923Y011511D01*
X003923Y011432D02*
X004240Y011432D01*
X004240Y011354D02*
X003922Y011354D01*
X003922Y011275D02*
X004240Y011275D01*
X004232Y011197D02*
X003922Y011197D01*
X003922Y011118D02*
X004153Y011118D01*
X004075Y011040D02*
X003921Y011040D01*
X003921Y010961D02*
X003996Y010961D01*
X004030Y010797D02*
X004030Y008097D01*
X004170Y008135D02*
X005106Y008135D01*
X004990Y008214D02*
X004170Y008214D01*
X004170Y008292D02*
X004942Y008292D01*
X004922Y008371D02*
X004170Y008371D01*
X004170Y008449D02*
X004840Y008449D01*
X004992Y008685D02*
X006315Y008685D01*
X006315Y008763D02*
X004860Y008763D01*
X004729Y008842D02*
X006315Y008842D01*
X006316Y008920D02*
X004597Y008920D01*
X004489Y008999D02*
X006316Y008999D01*
X006316Y009077D02*
X004414Y009077D01*
X004379Y009156D02*
X005336Y009156D01*
X005250Y009234D02*
X004379Y009234D01*
X004378Y009313D02*
X005214Y009313D01*
X005202Y009391D02*
X004378Y009391D01*
X004377Y009470D02*
X005209Y009470D01*
X005242Y009548D02*
X004377Y009548D01*
X004376Y009627D02*
X005316Y009627D01*
X005340Y009705D02*
X004376Y009705D01*
X004375Y009784D02*
X005340Y009784D01*
X005340Y009862D02*
X004375Y009862D01*
X004374Y009941D02*
X005340Y009941D01*
X005340Y010019D02*
X004374Y010019D01*
X004373Y010098D02*
X005340Y010098D01*
X005340Y010176D02*
X004372Y010176D01*
X004372Y010255D02*
X005340Y010255D01*
X005340Y010333D02*
X004371Y010333D01*
X004371Y010412D02*
X005340Y010412D01*
X005340Y010490D02*
X004370Y010490D01*
X004438Y010569D02*
X004765Y010569D01*
X004691Y010647D02*
X004508Y010647D01*
X004579Y010726D02*
X004659Y010726D01*
X004650Y010804D02*
X004652Y010804D01*
X004680Y011047D02*
X004230Y010547D01*
X004240Y009057D01*
X004430Y008857D01*
X005200Y008397D01*
X005294Y008135D02*
X006313Y008135D01*
X006313Y008057D02*
X004179Y008057D01*
X004193Y007978D02*
X006313Y007978D01*
X006313Y007900D02*
X004207Y007900D01*
X004221Y007821D02*
X006312Y007821D01*
X006312Y007743D02*
X004234Y007743D01*
X004248Y007664D02*
X006312Y007664D01*
X006312Y007586D02*
X004262Y007586D01*
X004276Y007507D02*
X006312Y007507D01*
X006311Y007429D02*
X004290Y007429D01*
X004304Y007350D02*
X006311Y007350D01*
X006311Y007272D02*
X004317Y007272D01*
X004331Y007193D02*
X006311Y007193D01*
X006310Y007115D02*
X004345Y007115D01*
X004359Y007036D02*
X006002Y007036D01*
X005960Y006527D02*
X006780Y006757D01*
X006810Y016447D01*
X007370Y016847D01*
X007680Y016797D01*
X007947Y016456D02*
X008054Y016456D01*
X007791Y016378D02*
X008540Y016378D01*
X008540Y016299D02*
X006950Y016299D01*
X006949Y016221D02*
X007579Y016221D01*
X007569Y016378D02*
X006954Y016378D01*
X007064Y016456D02*
X007413Y016456D01*
X007334Y016535D02*
X007173Y016535D01*
X007283Y016613D02*
X007291Y016613D01*
X007417Y016142D02*
X006949Y016142D01*
X006949Y016064D02*
X007338Y016064D01*
X007292Y015985D02*
X006949Y015985D01*
X006948Y015907D02*
X007260Y015907D01*
X007250Y015828D02*
X006948Y015828D01*
X006948Y015750D02*
X007250Y015750D01*
X007267Y015671D02*
X006948Y015671D01*
X006947Y015593D02*
X007299Y015593D01*
X007355Y015514D02*
X006947Y015514D01*
X006947Y015436D02*
X007433Y015436D01*
X007529Y015200D02*
X006946Y015200D01*
X006946Y015122D02*
X007396Y015122D01*
X007318Y015043D02*
X006946Y015043D01*
X006945Y014965D02*
X007284Y014965D01*
X007251Y014886D02*
X006945Y014886D01*
X006945Y014808D02*
X007250Y014808D01*
X007250Y014729D02*
X006945Y014729D01*
X006944Y014651D02*
X007275Y014651D01*
X007308Y014572D02*
X006944Y014572D01*
X006944Y014494D02*
X007375Y014494D01*
X007478Y014415D02*
X006944Y014415D01*
X006943Y014337D02*
X008540Y014337D01*
X008540Y014415D02*
X007882Y014415D01*
X007880Y014180D02*
X008540Y014180D01*
X008540Y014258D02*
X006943Y014258D01*
X006943Y014180D02*
X007480Y014180D01*
X007376Y014101D02*
X006943Y014101D01*
X006942Y014023D02*
X007308Y014023D01*
X007275Y013944D02*
X006942Y013944D01*
X006942Y013866D02*
X007250Y013866D01*
X007250Y013787D02*
X006942Y013787D01*
X006942Y013709D02*
X007251Y013709D01*
X007284Y013630D02*
X006941Y013630D01*
X006941Y013552D02*
X007317Y013552D01*
X007396Y013473D02*
X006941Y013473D01*
X006941Y013395D02*
X007528Y013395D01*
X007434Y013159D02*
X006940Y013159D01*
X006940Y013081D02*
X007355Y013081D01*
X007299Y013002D02*
X006939Y013002D01*
X006939Y012924D02*
X007267Y012924D01*
X007250Y012845D02*
X006939Y012845D01*
X006939Y012767D02*
X007250Y012767D01*
X007260Y012688D02*
X006938Y012688D01*
X006938Y012610D02*
X007292Y012610D01*
X007338Y012531D02*
X006938Y012531D01*
X006938Y012453D02*
X007416Y012453D01*
X007577Y012374D02*
X006937Y012374D01*
X006937Y012296D02*
X008540Y012296D01*
X008540Y012374D02*
X007783Y012374D01*
X007790Y012217D02*
X008540Y012217D01*
X008540Y011432D02*
X007923Y011432D01*
X007839Y011197D02*
X008540Y011197D01*
X008540Y011275D02*
X006934Y011275D01*
X006934Y011197D02*
X007521Y011197D01*
X007437Y011432D02*
X006934Y011432D01*
X006934Y011354D02*
X008540Y011354D01*
X008540Y010412D02*
X007873Y010412D01*
X007889Y010176D02*
X008540Y010176D01*
X008540Y010255D02*
X006931Y010255D01*
X006931Y010333D02*
X008540Y010333D01*
X008540Y009391D02*
X007824Y009391D01*
X007961Y009470D02*
X008022Y009470D01*
X007930Y009156D02*
X008540Y009156D01*
X008540Y009234D02*
X006928Y009234D01*
X006927Y009156D02*
X007430Y009156D01*
X007352Y009077D02*
X006927Y009077D01*
X006927Y008999D02*
X007298Y008999D01*
X007266Y008920D02*
X006927Y008920D01*
X006926Y008842D02*
X007250Y008842D01*
X007250Y008763D02*
X006926Y008763D01*
X006926Y008685D02*
X007261Y008685D01*
X007294Y008606D02*
X006926Y008606D01*
X006925Y008528D02*
X007341Y008528D01*
X007420Y008449D02*
X006925Y008449D01*
X006925Y008371D02*
X007586Y008371D01*
X007562Y008214D02*
X006925Y008214D01*
X006925Y008292D02*
X008540Y008292D01*
X008540Y008214D02*
X007798Y008214D01*
X007774Y008371D02*
X008540Y008371D01*
X008540Y009313D02*
X006928Y009313D01*
X006928Y009391D02*
X007536Y009391D01*
X007399Y009470D02*
X006928Y009470D01*
X006929Y009548D02*
X007321Y009548D01*
X007285Y009627D02*
X006929Y009627D01*
X006929Y009705D02*
X007253Y009705D01*
X007250Y009784D02*
X006929Y009784D01*
X006930Y009862D02*
X007250Y009862D01*
X007274Y009941D02*
X006930Y009941D01*
X006930Y010019D02*
X007307Y010019D01*
X007372Y010098D02*
X006930Y010098D01*
X006931Y010176D02*
X007471Y010176D01*
X007487Y010412D02*
X006931Y010412D01*
X006932Y010490D02*
X007379Y010490D01*
X007309Y010569D02*
X006932Y010569D01*
X006932Y010647D02*
X007277Y010647D01*
X007250Y010726D02*
X006932Y010726D01*
X006933Y010804D02*
X007250Y010804D01*
X007250Y010883D02*
X006933Y010883D01*
X006933Y010961D02*
X007283Y010961D01*
X007315Y011040D02*
X006933Y011040D01*
X006934Y011118D02*
X007393Y011118D01*
X007358Y011511D02*
X006935Y011511D01*
X006935Y011589D02*
X007301Y011589D01*
X007268Y011668D02*
X006935Y011668D01*
X006935Y011746D02*
X007250Y011746D01*
X007250Y011825D02*
X006936Y011825D01*
X006936Y011903D02*
X007258Y011903D01*
X007291Y011982D02*
X006936Y011982D01*
X006936Y012060D02*
X007335Y012060D01*
X007413Y012139D02*
X006937Y012139D01*
X006937Y012217D02*
X007570Y012217D01*
X007947Y012139D02*
X008055Y012139D01*
X008063Y012453D02*
X007944Y012453D01*
X007926Y013159D02*
X008540Y013159D01*
X008540Y013238D02*
X006940Y013238D01*
X006940Y013316D02*
X008540Y013316D01*
X008540Y013395D02*
X007832Y013395D01*
X007964Y013473D02*
X008013Y013473D01*
X007964Y015122D02*
X008014Y015122D01*
X007927Y015436D02*
X008540Y015436D01*
X008540Y015357D02*
X006947Y015357D01*
X006946Y015279D02*
X008540Y015279D01*
X008540Y015200D02*
X007831Y015200D01*
X007943Y016142D02*
X008064Y016142D01*
X007781Y016221D02*
X008540Y016221D01*
X008540Y018340D02*
X007072Y018340D01*
X007002Y018419D02*
X007470Y018419D01*
X007372Y018497D02*
X006640Y018497D01*
X006658Y018419D02*
X006658Y018419D01*
X006595Y018576D02*
X007306Y018576D01*
X007274Y018654D02*
X006486Y018654D01*
X006661Y018968D02*
X005115Y018968D01*
X005202Y018890D02*
X006739Y018890D01*
X006818Y018811D02*
X005289Y018811D01*
X005376Y018733D02*
X006896Y018733D01*
X007030Y018797D02*
X006380Y019447D01*
X004930Y019447D01*
X004680Y019697D01*
X004576Y019439D02*
X002830Y019439D01*
X002830Y019361D02*
X004818Y019361D01*
X004979Y019596D02*
X006940Y019596D01*
X006940Y019518D02*
X006507Y019518D01*
X006586Y019439D02*
X006879Y019439D01*
X006826Y019361D02*
X006664Y019361D01*
X006743Y019282D02*
X006802Y019282D01*
X006582Y019047D02*
X002830Y019047D01*
X002830Y019125D02*
X006504Y019125D01*
X006425Y019204D02*
X002830Y019204D01*
X002830Y019282D02*
X006347Y019282D01*
X006668Y017869D02*
X006726Y017869D01*
X006600Y017791D02*
X006578Y017791D01*
X006553Y017712D02*
X006488Y017712D01*
X006501Y017634D02*
X006399Y017634D01*
X006449Y017555D02*
X006309Y017555D01*
X006398Y017477D02*
X006219Y017477D01*
X006170Y017398D02*
X006340Y017398D01*
X006340Y017320D02*
X006170Y017320D01*
X006170Y017241D02*
X006340Y017241D01*
X006339Y017163D02*
X006170Y017163D01*
X006170Y017084D02*
X006339Y017084D01*
X006339Y017006D02*
X006170Y017006D01*
X006170Y016927D02*
X006339Y016927D01*
X006339Y016849D02*
X006170Y016849D01*
X006170Y016770D02*
X006338Y016770D01*
X006338Y016692D02*
X006170Y016692D01*
X006170Y016613D02*
X006338Y016613D01*
X006338Y016535D02*
X006170Y016535D01*
X006170Y016456D02*
X006337Y016456D01*
X006337Y016378D02*
X006170Y016378D01*
X006170Y016299D02*
X006337Y016299D01*
X006337Y016221D02*
X006170Y016221D01*
X006170Y016142D02*
X006337Y016142D01*
X006336Y016064D02*
X006170Y016064D01*
X006170Y015985D02*
X006336Y015985D01*
X006336Y015907D02*
X006170Y015907D01*
X006170Y015828D02*
X006336Y015828D01*
X006335Y015750D02*
X006170Y015750D01*
X006170Y015671D02*
X006335Y015671D01*
X006335Y015593D02*
X006170Y015593D01*
X006170Y015514D02*
X006335Y015514D01*
X006334Y015436D02*
X006170Y015436D01*
X006170Y015357D02*
X006334Y015357D01*
X006334Y015279D02*
X006170Y015279D01*
X006170Y015200D02*
X006334Y015200D01*
X006334Y015122D02*
X006170Y015122D01*
X006170Y015043D02*
X006333Y015043D01*
X006333Y014965D02*
X006170Y014965D01*
X006170Y014886D02*
X006333Y014886D01*
X006333Y014808D02*
X006170Y014808D01*
X006170Y014729D02*
X006332Y014729D01*
X006332Y014651D02*
X006170Y014651D01*
X006170Y014572D02*
X006332Y014572D01*
X006332Y014494D02*
X006170Y014494D01*
X006170Y014415D02*
X006332Y014415D01*
X006331Y014337D02*
X006170Y014337D01*
X006170Y014258D02*
X006331Y014258D01*
X006331Y014180D02*
X006170Y014180D01*
X006170Y014101D02*
X006331Y014101D01*
X006330Y014023D02*
X006170Y014023D01*
X006170Y013944D02*
X006330Y013944D01*
X006330Y013866D02*
X006170Y013866D01*
X006170Y013787D02*
X006330Y013787D01*
X006329Y013709D02*
X006170Y013709D01*
X006170Y013630D02*
X006329Y013630D01*
X006329Y013552D02*
X006170Y013552D01*
X006170Y013473D02*
X006329Y013473D01*
X006329Y013395D02*
X006170Y013395D01*
X006170Y013316D02*
X006328Y013316D01*
X006328Y013238D02*
X006170Y013238D01*
X006170Y013159D02*
X006328Y013159D01*
X006328Y013081D02*
X006170Y013081D01*
X006170Y013002D02*
X006327Y013002D01*
X006327Y012924D02*
X006170Y012924D01*
X006170Y012845D02*
X006327Y012845D01*
X006327Y012767D02*
X006170Y012767D01*
X006170Y012688D02*
X006327Y012688D01*
X006326Y012610D02*
X006170Y012610D01*
X006170Y012531D02*
X006326Y012531D01*
X006326Y012453D02*
X006170Y012453D01*
X006170Y012374D02*
X006326Y012374D01*
X006325Y012296D02*
X006170Y012296D01*
X006170Y012217D02*
X006325Y012217D01*
X006325Y012139D02*
X006170Y012139D01*
X006170Y012060D02*
X006325Y012060D01*
X006324Y011982D02*
X006170Y011982D01*
X006170Y011903D02*
X006324Y011903D01*
X006324Y011825D02*
X006170Y011825D01*
X006170Y011746D02*
X006324Y011746D01*
X006324Y011668D02*
X006170Y011668D01*
X006170Y011589D02*
X006323Y011589D01*
X006323Y011511D02*
X006170Y011511D01*
X006170Y011432D02*
X006323Y011432D01*
X006323Y011354D02*
X006170Y011354D01*
X006170Y011275D02*
X006322Y011275D01*
X006322Y011197D02*
X006170Y011197D01*
X006170Y011118D02*
X006322Y011118D01*
X006322Y011040D02*
X006170Y011040D01*
X006170Y010961D02*
X006322Y010961D01*
X006321Y010883D02*
X006170Y010883D01*
X006170Y010804D02*
X006321Y010804D01*
X006321Y010726D02*
X006170Y010726D01*
X006170Y010647D02*
X006321Y010647D01*
X006320Y010569D02*
X006170Y010569D01*
X006170Y010490D02*
X006320Y010490D01*
X006320Y010412D02*
X006170Y010412D01*
X006170Y010333D02*
X006320Y010333D01*
X006319Y010255D02*
X006170Y010255D01*
X006170Y010176D02*
X006319Y010176D01*
X006319Y010098D02*
X006170Y010098D01*
X006170Y010019D02*
X006319Y010019D01*
X006319Y009941D02*
X006170Y009941D01*
X006170Y009862D02*
X006318Y009862D01*
X006318Y009784D02*
X006170Y009784D01*
X006170Y009705D02*
X006318Y009705D01*
X006318Y009627D02*
X006194Y009627D01*
X006268Y009548D02*
X006317Y009548D01*
X006317Y009470D02*
X006301Y009470D01*
X006308Y009391D02*
X006317Y009391D01*
X006317Y009313D02*
X006296Y009313D01*
X006317Y009234D02*
X006260Y009234D01*
X006316Y009156D02*
X006174Y009156D01*
X006315Y008606D02*
X005384Y008606D01*
X005447Y008528D02*
X006314Y008528D01*
X006314Y008449D02*
X005478Y008449D01*
X005478Y008371D02*
X006314Y008371D01*
X006314Y008292D02*
X005458Y008292D01*
X005410Y008214D02*
X006314Y008214D01*
X006924Y008135D02*
X007410Y008135D01*
X007331Y008057D02*
X006924Y008057D01*
X006924Y007978D02*
X007290Y007978D01*
X007257Y007900D02*
X006924Y007900D01*
X006923Y007821D02*
X007250Y007821D01*
X007250Y007743D02*
X006923Y007743D01*
X006923Y007664D02*
X007270Y007664D01*
X007302Y007586D02*
X006923Y007586D01*
X006922Y007507D02*
X007362Y007507D01*
X007446Y007429D02*
X006922Y007429D01*
X006922Y007350D02*
X008540Y007350D01*
X008540Y007272D02*
X006922Y007272D01*
X006921Y007193D02*
X008540Y007193D01*
X008540Y007115D02*
X006921Y007115D01*
X006921Y007036D02*
X008540Y007036D01*
X008540Y006958D02*
X006921Y006958D01*
X006920Y006879D02*
X008540Y006879D01*
X008540Y006801D02*
X006920Y006801D01*
X006921Y006722D02*
X008540Y006722D01*
X008540Y006644D02*
X006877Y006644D01*
X006614Y006565D02*
X008540Y006565D01*
X008540Y006487D02*
X006334Y006487D01*
X006720Y005623D02*
X004566Y005623D01*
X004642Y005231D02*
X003645Y005231D01*
X003705Y005152D02*
X006582Y005152D01*
X006714Y005074D02*
X003870Y005074D01*
X004019Y005388D02*
X003542Y005388D01*
X003540Y005466D02*
X003702Y005466D01*
X003568Y005545D02*
X003540Y005545D01*
X004187Y004524D02*
X000820Y004524D01*
X000820Y004446D02*
X004351Y004446D01*
X004516Y004367D02*
X000820Y004367D01*
X000820Y004289D02*
X004681Y004289D01*
X004846Y004210D02*
X000820Y004210D01*
X000820Y004132D02*
X005011Y004132D01*
X005176Y004053D02*
X000820Y004053D01*
X000820Y003975D02*
X005341Y003975D01*
X006165Y003582D02*
X000820Y003582D01*
X000820Y003504D02*
X006330Y003504D01*
X006457Y003425D02*
X000820Y003425D01*
X000820Y003347D02*
X006497Y003347D01*
X006594Y003268D02*
X000820Y003268D01*
X000820Y003190D02*
X008540Y003190D01*
X008540Y003268D02*
X006846Y003268D01*
X006943Y003347D02*
X008540Y003347D01*
X008540Y003425D02*
X006983Y003425D01*
X006998Y003504D02*
X008540Y003504D01*
X008540Y003582D02*
X006994Y003582D01*
X006962Y003661D02*
X008540Y003661D01*
X008540Y003739D02*
X006891Y003739D01*
X006846Y005074D02*
X008540Y005074D01*
X008540Y005152D02*
X006978Y005152D01*
X007033Y005231D02*
X008540Y005231D01*
X008540Y005309D02*
X007058Y005309D01*
X007058Y005388D02*
X008540Y005388D01*
X008540Y005466D02*
X007032Y005466D01*
X006976Y005545D02*
X008540Y005545D01*
X008540Y005623D02*
X006840Y005623D01*
X007914Y007429D02*
X008540Y007429D01*
X008071Y008449D02*
X007940Y008449D01*
X007950Y008135D02*
X008047Y008135D01*
X008006Y011118D02*
X007967Y011118D01*
X005597Y006958D02*
X004373Y006958D01*
X004386Y006879D02*
X005483Y006879D01*
X005370Y006801D02*
X004400Y006801D01*
X004414Y006722D02*
X005256Y006722D01*
X005142Y006644D02*
X004428Y006644D01*
X004442Y006565D02*
X004778Y006565D01*
X004696Y006487D02*
X004455Y006487D01*
X004469Y006408D02*
X004663Y006408D01*
X004652Y006330D02*
X004551Y006330D01*
X004621Y006251D02*
X004660Y006251D01*
X004654Y006173D02*
X004693Y006173D01*
X004658Y006094D02*
X004770Y006094D01*
X004709Y008528D02*
X004170Y008528D01*
X004170Y008606D02*
X004577Y008606D01*
X004446Y008685D02*
X004170Y008685D01*
X004170Y008763D02*
X004314Y008763D01*
X004252Y008842D02*
X004170Y008842D01*
X004170Y008920D02*
X004177Y008920D01*
X004030Y010797D02*
X004380Y011147D01*
X004380Y016097D01*
X004480Y016197D01*
X004480Y016547D01*
X004620Y016299D02*
X005340Y016299D01*
X005340Y016221D02*
X004620Y016221D01*
X004620Y016142D02*
X005340Y016142D01*
X005340Y016064D02*
X004545Y016064D01*
X004538Y016057D02*
X004538Y016057D01*
X004520Y015985D02*
X005340Y015985D01*
X005340Y015907D02*
X004520Y015907D01*
X004520Y015828D02*
X005340Y015828D01*
X005340Y015750D02*
X004520Y015750D01*
X004520Y015671D02*
X005340Y015671D01*
X005340Y015593D02*
X004520Y015593D01*
X004520Y015514D02*
X005340Y015514D01*
X005340Y015436D02*
X004520Y015436D01*
X004520Y015357D02*
X005340Y015357D01*
X005340Y015279D02*
X004520Y015279D01*
X004520Y015200D02*
X005340Y015200D01*
X005340Y015122D02*
X004520Y015122D01*
X004520Y015043D02*
X005340Y015043D01*
X005340Y014965D02*
X004520Y014965D01*
X004520Y014886D02*
X005340Y014886D01*
X005340Y014808D02*
X004520Y014808D01*
X004520Y014729D02*
X005340Y014729D01*
X005340Y014651D02*
X004520Y014651D01*
X004520Y014572D02*
X004617Y014572D01*
X004743Y014572D02*
X005340Y014572D01*
X005340Y014494D02*
X004877Y014494D01*
X004932Y014415D02*
X005340Y014415D01*
X005340Y014337D02*
X004958Y014337D01*
X004958Y014258D02*
X005340Y014258D01*
X005340Y014180D02*
X004932Y014180D01*
X004877Y014101D02*
X005340Y014101D01*
X005340Y014023D02*
X004820Y014023D01*
X004820Y013944D02*
X005340Y013944D01*
X005340Y013866D02*
X004820Y013866D01*
X004820Y013787D02*
X005340Y013787D01*
X005340Y013709D02*
X004820Y013709D01*
X004820Y013630D02*
X005340Y013630D01*
X005340Y013552D02*
X004873Y013552D01*
X004952Y013473D02*
X005340Y013473D01*
X005340Y013395D02*
X005030Y013395D01*
X005109Y013316D02*
X005340Y013316D01*
X005340Y013238D02*
X005187Y013238D01*
X005266Y013159D02*
X005340Y013159D01*
X005340Y013081D02*
X005320Y013081D01*
X005320Y013002D02*
X005340Y013002D01*
X005340Y012924D02*
X005320Y012924D01*
X005320Y012845D02*
X005340Y012845D01*
X005340Y012767D02*
X005320Y012767D01*
X005320Y012688D02*
X005340Y012688D01*
X005340Y012610D02*
X005320Y012610D01*
X005320Y012531D02*
X005340Y012531D01*
X005340Y012453D02*
X005320Y012453D01*
X005320Y012374D02*
X005340Y012374D01*
X005340Y012296D02*
X005320Y012296D01*
X005320Y012217D02*
X005340Y012217D01*
X005340Y012139D02*
X005320Y012139D01*
X005320Y012060D02*
X005340Y012060D01*
X005340Y011982D02*
X005313Y011982D01*
X005340Y011903D02*
X005234Y011903D01*
X005238Y011907D02*
X005238Y011907D01*
X005156Y011825D02*
X005340Y011825D01*
X005340Y011746D02*
X005077Y011746D01*
X005070Y011668D02*
X005340Y011668D01*
X005340Y011589D02*
X005070Y011589D01*
X005070Y011511D02*
X005340Y011511D01*
X005340Y011432D02*
X005070Y011432D01*
X005070Y011354D02*
X005340Y011354D01*
X005340Y011275D02*
X005070Y011275D01*
X005070Y011197D02*
X005340Y011197D01*
X005340Y011118D02*
X005070Y011118D01*
X005071Y011040D02*
X005340Y011040D01*
X005340Y010961D02*
X005159Y010961D01*
X005196Y010883D02*
X005340Y010883D01*
X005340Y010804D02*
X005208Y010804D01*
X005201Y010726D02*
X005340Y010726D01*
X005340Y010647D02*
X005169Y010647D01*
X005095Y010569D02*
X005340Y010569D01*
X004930Y010797D02*
X004930Y011797D01*
X005180Y012047D01*
X005180Y013047D01*
X004680Y013547D01*
X004680Y014297D01*
X004680Y012297D02*
X004680Y011047D01*
X003189Y011040D02*
X003100Y011040D01*
X003100Y011118D02*
X003189Y011118D01*
X003189Y011197D02*
X003100Y011197D01*
X003100Y011275D02*
X003189Y011275D01*
X003190Y011354D02*
X003100Y011354D01*
X003100Y011432D02*
X003190Y011432D01*
X003190Y011511D02*
X003100Y011511D01*
X003100Y011589D02*
X003190Y011589D01*
X003190Y011668D02*
X003100Y011668D01*
X003100Y011746D02*
X003190Y011746D01*
X003189Y010961D02*
X003100Y010961D01*
X003100Y010883D02*
X003189Y010883D01*
X003189Y010804D02*
X003100Y010804D01*
X003100Y010726D02*
X003189Y010726D01*
X003188Y010647D02*
X003100Y010647D01*
X003100Y010569D02*
X003188Y010569D01*
X003188Y010490D02*
X003100Y010490D01*
X003100Y010412D02*
X003188Y010412D01*
X003188Y010333D02*
X003100Y010333D01*
X003100Y010255D02*
X003188Y010255D01*
X003188Y010176D02*
X003100Y010176D01*
X003100Y010098D02*
X003188Y010098D01*
X003187Y010019D02*
X003100Y010019D01*
X003100Y009941D02*
X003187Y009941D01*
X003187Y009862D02*
X003100Y009862D01*
X003100Y009784D02*
X003187Y009784D01*
X003187Y009705D02*
X003100Y009705D01*
X003100Y009627D02*
X003187Y009627D01*
X003187Y009548D02*
X003100Y009548D01*
X003100Y009470D02*
X003187Y009470D01*
X003186Y009391D02*
X003100Y009391D01*
X003100Y009313D02*
X003186Y009313D01*
X003186Y009234D02*
X003100Y009234D01*
X003100Y009156D02*
X003186Y009156D01*
X003186Y009077D02*
X003100Y009077D01*
X003100Y008999D02*
X003186Y008999D01*
X003186Y008920D02*
X003100Y008920D01*
X003100Y008842D02*
X003186Y008842D01*
X003185Y008763D02*
X003100Y008763D01*
X003100Y008685D02*
X003185Y008685D01*
X003185Y008606D02*
X003100Y008606D01*
X003100Y008528D02*
X003185Y008528D01*
X003185Y008449D02*
X003100Y008449D01*
X003100Y008371D02*
X003185Y008371D01*
X003185Y008292D02*
X003100Y008292D01*
X003100Y008214D02*
X003185Y008214D01*
X003184Y008135D02*
X003100Y008135D01*
X003100Y008057D02*
X003184Y008057D01*
X003184Y007978D02*
X003100Y007978D01*
X003100Y007900D02*
X003184Y007900D01*
X003184Y007821D02*
X003100Y007821D01*
X003100Y007743D02*
X003184Y007743D01*
X003192Y013081D02*
X002857Y013081D01*
X002924Y013159D02*
X003192Y013159D01*
X003193Y013238D02*
X002956Y013238D01*
X002958Y013316D02*
X003193Y013316D01*
X003193Y013395D02*
X002941Y013395D01*
X002897Y013473D02*
X003193Y013473D01*
X003193Y013552D02*
X002830Y013552D01*
X002830Y013630D02*
X003193Y013630D01*
X003193Y013709D02*
X002830Y013709D01*
X002830Y013787D02*
X003193Y013787D01*
X003194Y013866D02*
X002830Y013866D01*
X002830Y013944D02*
X003194Y013944D01*
X003194Y014023D02*
X002830Y014023D01*
X002830Y014101D02*
X003194Y014101D01*
X003194Y014180D02*
X002830Y014180D01*
X002830Y014258D02*
X003194Y014258D01*
X003194Y014337D02*
X002830Y014337D01*
X002830Y014415D02*
X003194Y014415D01*
X003195Y014494D02*
X002830Y014494D01*
X002830Y014572D02*
X003195Y014572D01*
X003195Y014651D02*
X002830Y014651D01*
X002830Y014729D02*
X003195Y014729D01*
X003195Y014808D02*
X002830Y014808D01*
X002830Y014886D02*
X003195Y014886D01*
X003195Y014965D02*
X002830Y014965D01*
X002830Y015043D02*
X003195Y015043D01*
X003196Y015122D02*
X002830Y015122D01*
X002830Y015200D02*
X003196Y015200D01*
X003196Y015279D02*
X002830Y015279D01*
X002830Y015357D02*
X003196Y015357D01*
X003196Y015436D02*
X002830Y015436D01*
X002830Y015514D02*
X003196Y015514D01*
X003196Y015593D02*
X002830Y015593D01*
X002830Y015671D02*
X003196Y015671D01*
X003197Y015750D02*
X002830Y015750D01*
X002830Y015828D02*
X003197Y015828D01*
X003197Y015907D02*
X002830Y015907D01*
X002830Y015985D02*
X003197Y015985D01*
X003197Y016064D02*
X002830Y016064D01*
X002830Y016142D02*
X003197Y016142D01*
X003197Y016221D02*
X002830Y016221D01*
X002830Y016299D02*
X003197Y016299D01*
X003198Y016378D02*
X002830Y016378D01*
X002830Y016456D02*
X003198Y016456D01*
X003198Y016535D02*
X002830Y016535D01*
X002830Y016613D02*
X003198Y016613D01*
X003198Y016692D02*
X002830Y016692D01*
X002830Y016770D02*
X003198Y016770D01*
X003198Y016849D02*
X002830Y016849D01*
X002830Y016927D02*
X003198Y016927D01*
X003199Y017006D02*
X002830Y017006D01*
X002830Y017084D02*
X003199Y017084D01*
X003199Y017163D02*
X002830Y017163D01*
X002830Y017241D02*
X003199Y017241D01*
X003199Y017320D02*
X002830Y017320D01*
X002830Y017398D02*
X003199Y017398D01*
X003199Y017477D02*
X002830Y017477D01*
X002830Y017555D02*
X003199Y017555D01*
X003200Y017634D02*
X002830Y017634D01*
X002830Y017712D02*
X003200Y017712D01*
X003200Y017791D02*
X002830Y017791D01*
X002830Y017869D02*
X003199Y017869D01*
X003200Y017948D02*
X002830Y017948D01*
X002830Y018026D02*
X003204Y018026D01*
X003207Y018105D02*
X002830Y018105D01*
X002830Y018183D02*
X003204Y018183D01*
X003212Y018262D02*
X002830Y018262D01*
X002830Y018340D02*
X003228Y018340D01*
X003239Y018419D02*
X002830Y018419D01*
X002830Y018497D02*
X003251Y018497D01*
X003263Y018576D02*
X002830Y018576D01*
X002830Y018654D02*
X003274Y018654D01*
X003286Y018733D02*
X002830Y018733D01*
X002830Y018811D02*
X003290Y018811D01*
X003358Y018890D02*
X002830Y018890D01*
X002830Y018968D02*
X003436Y018968D01*
X003638Y018654D02*
X004925Y018654D01*
X005013Y018576D02*
X003935Y018576D01*
X004009Y018497D02*
X005100Y018497D01*
X005187Y018419D02*
X004041Y018419D01*
X004048Y018340D02*
X005274Y018340D01*
X005361Y018262D02*
X004036Y018262D01*
X003999Y018183D02*
X005451Y018183D01*
X005463Y018654D02*
X005524Y018654D01*
X004958Y019675D02*
X006940Y019675D01*
X006940Y019753D02*
X004958Y019753D01*
X004925Y019832D02*
X006940Y019832D01*
X006940Y019910D02*
X004860Y019910D01*
X004500Y019910D02*
X002830Y019910D01*
X002830Y019832D02*
X004435Y019832D01*
X004402Y019753D02*
X002830Y019753D01*
X002830Y019675D02*
X004402Y019675D01*
X004421Y019596D02*
X002830Y019596D01*
X002830Y019518D02*
X004466Y019518D01*
X004650Y016770D02*
X005340Y016770D01*
X005340Y016692D02*
X004721Y016692D01*
X004754Y016613D02*
X005340Y016613D01*
X005340Y016535D02*
X004758Y016535D01*
X004743Y016456D02*
X005340Y016456D01*
X005340Y016378D02*
X004704Y016378D01*
X002830Y019989D02*
X006940Y019989D01*
X006940Y020067D02*
X002830Y020067D01*
X002830Y020146D02*
X006940Y020146D01*
X006940Y020224D02*
X002830Y020224D01*
X002830Y020303D02*
X006988Y020303D01*
X007066Y020381D02*
X002830Y020381D01*
X002830Y020460D02*
X007145Y020460D01*
X007223Y020538D02*
X002830Y020538D01*
X002830Y020617D02*
X007289Y020617D01*
X007257Y020695D02*
X002830Y020695D01*
X002830Y020774D02*
X007250Y020774D01*
X007250Y020852D02*
X002830Y020852D01*
X002759Y020931D02*
X007270Y020931D01*
X007302Y021009D02*
X002058Y021009D01*
X001998Y021088D02*
X007362Y021088D01*
X007447Y021166D02*
X001913Y021166D01*
X001849Y021402D02*
X007511Y021402D01*
X007389Y021480D02*
X001971Y021480D01*
X002047Y021559D02*
X007313Y021559D01*
X007281Y021637D02*
X002079Y021637D01*
X002110Y021716D02*
X007250Y021716D01*
X007250Y021794D02*
X002110Y021794D01*
X002110Y021873D02*
X007250Y021873D01*
X007278Y021951D02*
X002082Y021951D01*
X002049Y022030D02*
X007311Y022030D01*
X007383Y022108D02*
X001977Y022108D01*
X001389Y021480D02*
X001364Y021480D01*
X001951Y020460D02*
X002530Y020460D01*
X002530Y020538D02*
X002029Y020538D01*
X002071Y020617D02*
X002530Y020617D01*
X002530Y017241D02*
X000820Y017241D01*
X001791Y016378D02*
X002530Y016378D01*
X002530Y016456D02*
X001947Y016456D01*
X002026Y016535D02*
X002530Y016535D01*
X002530Y016613D02*
X002069Y016613D01*
X002102Y016692D02*
X002530Y016692D01*
X002530Y016770D02*
X002110Y016770D01*
X002110Y016849D02*
X002530Y016849D01*
X002530Y016927D02*
X002092Y016927D01*
X002059Y017006D02*
X002530Y017006D01*
X002530Y017084D02*
X002001Y017084D01*
X001921Y017163D02*
X002530Y017163D01*
X007030Y018797D02*
X007680Y018797D01*
X007890Y018419D02*
X008540Y018419D01*
X007080Y020197D02*
X007680Y020797D01*
X007913Y021166D02*
X008540Y021166D01*
X008540Y021402D02*
X007849Y021402D01*
X007971Y021480D02*
X007996Y021480D01*
X007080Y020197D02*
X007080Y019247D01*
X008540Y003111D02*
X000820Y003111D01*
X000820Y003033D02*
X008540Y003033D01*
X008540Y002954D02*
X000820Y002954D01*
D15*
X000680Y007797D02*
X001680Y007797D01*
X001680Y008797D02*
X000680Y008797D01*
X000680Y009797D02*
X001680Y009797D01*
X001680Y010797D02*
X000680Y010797D01*
X000680Y011797D02*
X001680Y011797D01*
X001680Y012797D02*
X000680Y012797D01*
X000680Y013797D02*
X001680Y013797D01*
X001680Y014797D02*
X000680Y014797D01*
X000680Y015797D02*
X001680Y015797D01*
X001680Y016797D02*
X000680Y016797D01*
X000680Y017797D02*
X001680Y017797D01*
X001680Y018797D02*
X000680Y018797D01*
X000680Y019797D02*
X001680Y019797D01*
X001680Y020797D02*
X000680Y020797D01*
X000680Y021797D02*
X001680Y021797D01*
D16*
X001680Y020797D02*
X002680Y020797D01*
X002680Y013297D01*
D17*
X004630Y010097D02*
X004630Y010047D01*
D18*
X002920Y011967D02*
X002960Y012147D01*
X003010Y012167D01*
X002920Y011967D02*
X002920Y005227D01*
X002450Y005237D01*
X003360Y005337D02*
X003380Y017887D01*
X003390Y018207D01*
X003470Y018747D01*
X003570Y018847D01*
X004980Y018847D01*
X005480Y018397D01*
X005630Y018397D01*
X003770Y018347D02*
X003720Y005647D01*
X004730Y005397D01*
X006480Y005397D01*
X006780Y005347D01*
X006860Y004327D02*
X006870Y004327D01*
X006720Y003517D02*
X003570Y005017D01*
X003360Y005337D01*
M02*
