G75*
%MOIN*%
%OFA0B0*%
%FSLAX24Y24*%
%IPPOS*%
%LPD*%
%AMOC8*
5,1,8,0,0,1.08239X$1,22.5*
%
%ADD10C,0.0000*%
%ADD11C,0.0700*%
%ADD12C,0.0555*%
D10*
X000680Y002797D02*
X000680Y022297D01*
X008680Y022297D01*
X008680Y002797D01*
X000680Y002797D01*
D11*
X001680Y007797D03*
X001680Y008797D03*
X001680Y009797D03*
X001680Y010797D03*
X001680Y011797D03*
X001680Y012797D03*
X001680Y013797D03*
X001680Y014797D03*
X001680Y015797D03*
X001680Y016797D03*
X001680Y017797D03*
X001680Y018797D03*
X001680Y019797D03*
X001680Y020797D03*
X001680Y021797D03*
X007680Y021797D03*
X007680Y020797D03*
X007680Y019797D03*
X007680Y018797D03*
X007680Y017797D03*
X007680Y016797D03*
X007680Y015797D03*
X007680Y014797D03*
X007680Y013797D03*
X007680Y012797D03*
X007680Y011797D03*
X007680Y010797D03*
X007680Y009797D03*
X007680Y008797D03*
X007680Y007797D03*
D12*
X008165Y007797D02*
X008680Y007797D01*
X008680Y008797D02*
X008165Y008797D01*
X008165Y009797D02*
X008680Y009797D01*
X008680Y010797D02*
X008165Y010797D01*
X008165Y011797D02*
X008680Y011797D01*
X008680Y012797D02*
X008165Y012797D01*
X008165Y013797D02*
X008680Y013797D01*
X008680Y014797D02*
X008165Y014797D01*
X008165Y015797D02*
X008680Y015797D01*
X008680Y016797D02*
X008165Y016797D01*
X008165Y017797D02*
X008680Y017797D01*
X008680Y018797D02*
X008165Y018797D01*
X008165Y019797D02*
X008680Y019797D01*
X008680Y020797D02*
X008165Y020797D01*
X008165Y021797D02*
X008680Y021797D01*
X001195Y021797D02*
X000680Y021797D01*
X000680Y020797D02*
X001195Y020797D01*
X001195Y019797D02*
X000680Y019797D01*
X000680Y018797D02*
X001195Y018797D01*
X001195Y017797D02*
X000680Y017797D01*
X000680Y016797D02*
X001195Y016797D01*
X001195Y015797D02*
X000680Y015797D01*
X000680Y014797D02*
X001195Y014797D01*
X001195Y013797D02*
X000680Y013797D01*
X000680Y012797D02*
X001195Y012797D01*
X001195Y011797D02*
X000680Y011797D01*
X000680Y010797D02*
X001195Y010797D01*
X001195Y009797D02*
X000680Y009797D01*
X000680Y008797D02*
X001195Y008797D01*
X001195Y007797D02*
X000680Y007797D01*
M02*
