G75*
%MOIN*%
%OFA0B0*%
%FSLAX25Y25*%
%IPPOS*%
%LPD*%
%AMOC8*
5,1,8,0,0,1.08239X$1,22.5*
%
%ADD10C,0.00000*%
%ADD11R,0.08768X0.05500*%
%ADD12C,0.07100*%
%ADD13R,0.11524X0.06012*%
%ADD14R,0.05224X0.06012*%
%ADD15R,0.03650X0.05224*%
%ADD16R,0.16500X0.08500*%
%ADD17R,0.04043X0.10343*%
%ADD18C,0.05224*%
%ADD19C,0.04262*%
D10*
X0005050Y0028010D02*
X0005050Y0223010D01*
X0085050Y0223010D01*
X0085050Y0028010D01*
X0005050Y0028010D01*
D11*
X0035050Y0100215D03*
X0035050Y0115805D03*
X0035050Y0160215D03*
X0035050Y0175805D03*
X0055050Y0175805D03*
X0055050Y0160215D03*
X0055050Y0115805D03*
X0055050Y0100215D03*
D12*
X0075050Y0098010D03*
X0075050Y0108010D03*
X0075050Y0118010D03*
X0075050Y0128010D03*
X0075050Y0138010D03*
X0075050Y0148010D03*
X0075050Y0158010D03*
X0075050Y0168010D03*
X0075050Y0178010D03*
X0075050Y0188010D03*
X0075050Y0198010D03*
X0075050Y0208010D03*
X0075050Y0218010D03*
X0075050Y0088010D03*
X0075050Y0078010D03*
X0015050Y0078010D03*
X0015050Y0088010D03*
X0015050Y0098010D03*
X0015050Y0108010D03*
X0015050Y0118010D03*
X0015050Y0128010D03*
X0015050Y0138010D03*
X0015050Y0148010D03*
X0015050Y0158010D03*
X0015050Y0168010D03*
X0015050Y0178010D03*
X0015050Y0188010D03*
X0015050Y0198010D03*
X0015050Y0208010D03*
X0015050Y0218010D03*
D13*
X0035050Y0189892D03*
X0055050Y0189892D03*
X0055050Y0127892D03*
X0035050Y0127892D03*
D14*
X0030719Y0138128D03*
X0039381Y0138128D03*
X0050719Y0138128D03*
X0059381Y0138128D03*
X0059381Y0200128D03*
X0050719Y0200128D03*
X0039381Y0200128D03*
X0030719Y0200128D03*
D15*
X0031507Y0210010D03*
X0038593Y0210010D03*
X0051507Y0210010D03*
X0058593Y0210010D03*
X0058593Y0148010D03*
X0051507Y0148010D03*
X0038593Y0148010D03*
X0031507Y0148010D03*
D16*
X0009950Y0063010D03*
X0009950Y0053010D03*
X0009950Y0043010D03*
X0009950Y0033010D03*
X0081350Y0033410D03*
X0081350Y0043410D03*
X0081350Y0053410D03*
X0081350Y0063410D03*
D17*
X0062152Y0071762D03*
X0057152Y0071762D03*
X0052152Y0071762D03*
X0047152Y0071762D03*
X0042152Y0071762D03*
X0037152Y0071762D03*
X0032152Y0071762D03*
D18*
X0009774Y0078010D02*
X0005050Y0078010D01*
X0005050Y0088010D02*
X0009774Y0088010D01*
X0009774Y0098010D02*
X0005050Y0098010D01*
X0005050Y0108010D02*
X0009774Y0108010D01*
X0009774Y0118010D02*
X0005050Y0118010D01*
X0005050Y0128010D02*
X0009774Y0128010D01*
X0009774Y0138010D02*
X0005050Y0138010D01*
X0005050Y0148010D02*
X0009774Y0148010D01*
X0009774Y0158010D02*
X0005050Y0158010D01*
X0005050Y0168010D02*
X0009774Y0168010D01*
X0009774Y0178010D02*
X0005050Y0178010D01*
X0005050Y0188010D02*
X0009774Y0188010D01*
X0009774Y0198010D02*
X0005050Y0198010D01*
X0005050Y0208010D02*
X0009774Y0208010D01*
X0009774Y0218010D02*
X0005050Y0218010D01*
X0080326Y0218010D02*
X0085050Y0218010D01*
X0085050Y0208010D02*
X0080326Y0208010D01*
X0080326Y0198010D02*
X0085050Y0198010D01*
X0085050Y0188010D02*
X0080326Y0188010D01*
X0080326Y0178010D02*
X0085050Y0178010D01*
X0085050Y0168010D02*
X0080326Y0168010D01*
X0080326Y0158010D02*
X0085050Y0158010D01*
X0085050Y0148010D02*
X0080326Y0148010D01*
X0080326Y0138010D02*
X0085050Y0138010D01*
X0085050Y0128010D02*
X0080326Y0128010D01*
X0080326Y0118010D02*
X0085050Y0118010D01*
X0085050Y0108010D02*
X0080326Y0108010D01*
X0080326Y0098010D02*
X0085050Y0098010D01*
X0085050Y0088010D02*
X0080326Y0088010D01*
X0080326Y0078010D02*
X0085050Y0078010D01*
D19*
X0061950Y0043310D03*
X0061050Y0053510D03*
X0055450Y0040210D03*
X0052150Y0061810D03*
X0047050Y0063210D03*
X0042050Y0061110D03*
X0050250Y0084010D03*
X0053050Y0094010D03*
X0058550Y0094010D03*
X0047550Y0108010D03*
X0044550Y0100510D03*
X0045050Y0123010D03*
X0045050Y0143010D03*
X0045050Y0158010D03*
X0043050Y0165510D03*
X0035950Y0183510D03*
X0045050Y0197010D03*
X0054550Y0184010D03*
X0062050Y0184010D03*
X0066550Y0182010D03*
X0069050Y0192510D03*
X0028350Y0121710D03*
X0025050Y0133010D03*
X0021750Y0048910D03*
X0022350Y0040010D03*
M02*
