G75*
%MOIN*%
%OFA0B0*%
%FSLAX25Y25*%
%IPPOS*%
%LPD*%
%AMOC8*
5,1,8,0,0,1.08239X$1,22.5*
%
%ADD10C,0.00000*%
%ADD11C,0.00300*%
%ADD12C,0.00400*%
%ADD13R,0.01063X0.00024*%
%ADD14R,0.00969X0.00024*%
%ADD15R,0.00874X0.00024*%
%ADD16R,0.00780X0.00024*%
%ADD17R,0.00661X0.00024*%
%ADD18R,0.00543X0.00024*%
%ADD19R,0.00307X0.00024*%
%ADD20C,0.00600*%
D10*
X0005050Y0028010D02*
X0005050Y0223010D01*
X0085050Y0223010D01*
X0085050Y0028010D01*
X0005050Y0028010D01*
D11*
X0019617Y0051291D02*
X0019000Y0051908D01*
X0019000Y0053143D01*
X0019617Y0053760D01*
X0019617Y0051291D02*
X0020852Y0051291D01*
X0021469Y0051908D01*
X0021469Y0052525D01*
X0020852Y0053760D01*
X0022703Y0053760D01*
X0022703Y0051291D01*
X0021934Y0045160D02*
X0020700Y0043925D01*
X0021934Y0042691D01*
X0024403Y0042691D01*
X0024403Y0045160D02*
X0021934Y0045160D01*
X0021752Y0034760D02*
X0020517Y0034760D01*
X0019900Y0034143D01*
X0019900Y0032908D01*
X0020517Y0032291D01*
X0021134Y0032291D01*
X0021752Y0032908D01*
X0021752Y0034760D01*
X0022986Y0033525D01*
X0023603Y0032291D01*
X0022186Y0057925D02*
X0019717Y0057925D01*
X0019100Y0058542D01*
X0019100Y0060394D01*
X0022803Y0060394D01*
X0022803Y0058542D01*
X0022186Y0057925D01*
X0022803Y0061608D02*
X0019100Y0061608D01*
X0022803Y0064077D01*
X0019100Y0064077D01*
X0019717Y0065291D02*
X0020952Y0065291D01*
X0020952Y0066525D01*
X0022186Y0065291D02*
X0022803Y0065908D01*
X0022803Y0067143D01*
X0022186Y0067760D01*
X0019717Y0067760D01*
X0019100Y0067143D01*
X0019100Y0065908D01*
X0019717Y0065291D01*
X0019341Y0072098D02*
X0017973Y0072098D01*
X0016604Y0073467D01*
X0017973Y0074835D02*
X0019341Y0073467D01*
X0019341Y0072098D01*
X0020740Y0073498D02*
X0021424Y0074182D01*
X0021082Y0073840D02*
X0019030Y0075892D01*
X0018688Y0075550D02*
X0019372Y0076234D01*
X0020077Y0076939D02*
X0023497Y0076255D01*
X0021445Y0078307D01*
X0020077Y0076939D02*
X0022129Y0074887D01*
X0021816Y0081971D02*
X0019881Y0081971D01*
X0019398Y0082455D01*
X0019398Y0083422D01*
X0019881Y0083906D01*
X0019398Y0084917D02*
X0022300Y0086852D01*
X0019398Y0086852D01*
X0019398Y0087864D02*
X0019398Y0089315D01*
X0019881Y0089799D01*
X0021816Y0089799D01*
X0022300Y0089315D01*
X0022300Y0087864D01*
X0019398Y0087864D01*
X0019398Y0084917D02*
X0022300Y0084917D01*
X0021816Y0083906D02*
X0020849Y0083906D01*
X0020849Y0082938D01*
X0021816Y0081971D02*
X0022300Y0082455D01*
X0022300Y0083422D01*
X0021816Y0083906D01*
X0021833Y0094371D02*
X0021833Y0095822D01*
X0021349Y0096306D01*
X0020381Y0096306D01*
X0019898Y0095822D01*
X0019898Y0094371D01*
X0022800Y0094371D01*
X0021833Y0095338D02*
X0022800Y0096306D01*
X0022316Y0097317D02*
X0022800Y0097801D01*
X0022800Y0098769D01*
X0022316Y0099252D01*
X0021833Y0099252D01*
X0021349Y0098769D01*
X0021349Y0097801D01*
X0020865Y0097317D01*
X0020381Y0097317D01*
X0019898Y0097801D01*
X0019898Y0098769D01*
X0020381Y0099252D01*
X0019898Y0100264D02*
X0019898Y0102199D01*
X0019898Y0101231D02*
X0022800Y0101231D01*
X0022316Y0105371D02*
X0022800Y0105855D01*
X0022800Y0106822D01*
X0022316Y0107306D01*
X0021349Y0107306D01*
X0020865Y0106822D01*
X0020865Y0106338D01*
X0021349Y0105371D01*
X0019898Y0105371D01*
X0019898Y0107306D01*
X0019898Y0108317D02*
X0021833Y0108317D01*
X0022800Y0109285D01*
X0021833Y0110252D01*
X0019898Y0110252D01*
X0020865Y0114371D02*
X0019898Y0115338D01*
X0020865Y0116306D01*
X0022800Y0116306D01*
X0022800Y0117317D02*
X0022316Y0117317D01*
X0020381Y0119252D01*
X0019898Y0119252D01*
X0019898Y0117317D01*
X0021349Y0116306D02*
X0021349Y0114371D01*
X0020865Y0114371D02*
X0022800Y0114371D01*
X0022800Y0124871D02*
X0020865Y0124871D01*
X0019898Y0125838D01*
X0020865Y0126806D01*
X0022800Y0126806D01*
X0022316Y0127817D02*
X0022800Y0128301D01*
X0022800Y0129269D01*
X0022316Y0129752D01*
X0021833Y0129752D01*
X0021349Y0129269D01*
X0021349Y0127817D01*
X0022316Y0127817D01*
X0021349Y0127817D02*
X0020381Y0128785D01*
X0019898Y0129752D01*
X0021349Y0126806D02*
X0021349Y0124871D01*
X0021449Y0134671D02*
X0021449Y0136606D01*
X0020965Y0136606D02*
X0022900Y0136606D01*
X0022416Y0137617D02*
X0022900Y0138101D01*
X0022900Y0139069D01*
X0022416Y0139552D01*
X0021449Y0139552D01*
X0020965Y0139069D01*
X0020965Y0138585D01*
X0021449Y0137617D01*
X0019998Y0137617D01*
X0019998Y0139552D01*
X0020965Y0136606D02*
X0019998Y0135638D01*
X0020965Y0134671D01*
X0022900Y0134671D01*
X0022800Y0145371D02*
X0020865Y0145371D01*
X0019898Y0146338D01*
X0020865Y0147306D01*
X0022800Y0147306D01*
X0022800Y0149769D02*
X0019898Y0149769D01*
X0021349Y0148317D01*
X0021349Y0150252D01*
X0021349Y0147306D02*
X0021349Y0145371D01*
X0021349Y0155371D02*
X0021349Y0157306D01*
X0020865Y0157306D02*
X0022800Y0157306D01*
X0022316Y0158317D02*
X0022800Y0158801D01*
X0022800Y0159769D01*
X0022316Y0160252D01*
X0021833Y0160252D01*
X0021349Y0159769D01*
X0021349Y0159285D01*
X0021349Y0159769D02*
X0020865Y0160252D01*
X0020381Y0160252D01*
X0019898Y0159769D01*
X0019898Y0158801D01*
X0020381Y0158317D01*
X0020865Y0157306D02*
X0019898Y0156338D01*
X0020865Y0155371D01*
X0022800Y0155371D01*
X0022800Y0165871D02*
X0020865Y0165871D01*
X0019898Y0166838D01*
X0020865Y0167806D01*
X0022800Y0167806D01*
X0022800Y0168817D02*
X0020865Y0170752D01*
X0020381Y0170752D01*
X0019898Y0170269D01*
X0019898Y0169301D01*
X0020381Y0168817D01*
X0021349Y0167806D02*
X0021349Y0165871D01*
X0022800Y0168817D02*
X0022800Y0170752D01*
X0022800Y0175871D02*
X0020865Y0175871D01*
X0019898Y0176838D01*
X0020865Y0177806D01*
X0022800Y0177806D01*
X0022800Y0178817D02*
X0022800Y0180752D01*
X0022800Y0179785D02*
X0019898Y0179785D01*
X0020865Y0178817D01*
X0021349Y0177806D02*
X0021349Y0175871D01*
X0021349Y0185371D02*
X0021349Y0187306D01*
X0020865Y0187306D02*
X0022800Y0187306D01*
X0022316Y0188317D02*
X0022800Y0188801D01*
X0022800Y0189769D01*
X0022316Y0190252D01*
X0020381Y0190252D01*
X0022316Y0188317D01*
X0020381Y0188317D01*
X0019898Y0188801D01*
X0019898Y0189769D01*
X0020381Y0190252D01*
X0020865Y0187306D02*
X0019898Y0186338D01*
X0020865Y0185371D01*
X0022800Y0185371D01*
X0021392Y0193975D02*
X0020708Y0193975D01*
X0019340Y0195343D01*
X0019340Y0196027D01*
X0020024Y0196712D01*
X0020708Y0196712D01*
X0021392Y0196027D02*
X0020708Y0195343D01*
X0021392Y0196027D02*
X0022076Y0195343D01*
X0022076Y0194659D01*
X0021392Y0193975D01*
X0023134Y0195716D02*
X0021081Y0197769D01*
X0024502Y0197085D01*
X0022449Y0199137D01*
X0023165Y0199852D02*
X0024191Y0200879D01*
X0024875Y0200879D01*
X0026243Y0199510D01*
X0026243Y0198826D01*
X0025217Y0197800D01*
X0023165Y0199852D01*
X0020092Y0203075D02*
X0019408Y0203075D01*
X0020092Y0203075D02*
X0020776Y0203759D01*
X0020776Y0204443D01*
X0020434Y0204785D01*
X0019750Y0204785D01*
X0019408Y0204443D01*
X0019750Y0204785D02*
X0019750Y0205469D01*
X0019408Y0205812D01*
X0018724Y0205812D01*
X0018040Y0205127D01*
X0018040Y0204443D01*
X0019781Y0206869D02*
X0021149Y0205501D01*
X0022518Y0205501D01*
X0022518Y0206869D01*
X0021149Y0208237D01*
X0022207Y0208610D02*
X0022207Y0209294D01*
X0022891Y0209979D01*
X0023575Y0209979D01*
X0023917Y0209636D01*
X0023917Y0208952D01*
X0024601Y0208952D01*
X0024943Y0208610D01*
X0024943Y0207926D01*
X0024259Y0207242D01*
X0023575Y0207242D01*
X0023575Y0208610D02*
X0023917Y0208952D01*
X0023000Y0213571D02*
X0023000Y0215022D01*
X0022516Y0215506D01*
X0020581Y0215506D01*
X0020098Y0215022D01*
X0020098Y0213571D01*
X0023000Y0213571D01*
X0023000Y0216517D02*
X0023000Y0218452D01*
X0023000Y0217485D02*
X0020098Y0217485D01*
X0021065Y0216517D01*
X0020581Y0219464D02*
X0020098Y0219948D01*
X0020098Y0220915D01*
X0020581Y0221399D01*
X0021065Y0221399D01*
X0021549Y0220915D01*
X0022033Y0221399D01*
X0022516Y0221399D01*
X0023000Y0220915D01*
X0023000Y0219948D01*
X0022516Y0219464D01*
X0021549Y0220431D02*
X0021549Y0220915D01*
X0062533Y0218370D02*
X0063645Y0217437D01*
X0064326Y0217497D01*
X0065570Y0218979D01*
X0065510Y0219661D01*
X0064399Y0220593D01*
X0062533Y0218370D01*
X0064790Y0216476D02*
X0066272Y0215232D01*
X0065531Y0215854D02*
X0067397Y0218077D01*
X0066034Y0217958D01*
X0067047Y0214582D02*
X0069773Y0214820D01*
X0070084Y0215191D01*
X0070025Y0215873D01*
X0069283Y0216494D01*
X0068602Y0216435D01*
X0067047Y0214582D02*
X0068529Y0213338D01*
X0067397Y0208777D02*
X0065531Y0206554D01*
X0064790Y0207176D02*
X0066272Y0205932D01*
X0067047Y0205282D02*
X0068529Y0204038D01*
X0067788Y0204660D02*
X0069654Y0206883D01*
X0068291Y0206764D01*
X0067397Y0208777D02*
X0066034Y0208658D01*
X0065570Y0209679D02*
X0065510Y0210361D01*
X0064399Y0211293D01*
X0062533Y0209070D01*
X0063645Y0208137D01*
X0064326Y0208197D01*
X0065570Y0209679D01*
X0064499Y0200993D02*
X0065610Y0200061D01*
X0065670Y0199379D01*
X0064426Y0197897D01*
X0063745Y0197837D01*
X0062633Y0198770D01*
X0064499Y0200993D01*
X0066134Y0198358D02*
X0067497Y0198477D01*
X0065631Y0196254D01*
X0064890Y0196876D02*
X0066372Y0195632D01*
X0067458Y0195353D02*
X0070184Y0195591D01*
X0068940Y0194109D01*
X0068259Y0194049D01*
X0067518Y0194671D01*
X0067458Y0195353D01*
X0068702Y0196835D01*
X0069383Y0196894D01*
X0070125Y0196273D01*
X0070184Y0195591D01*
X0068916Y0189552D02*
X0066981Y0189552D01*
X0066498Y0189069D01*
X0066498Y0188101D01*
X0066981Y0187617D01*
X0067465Y0187617D01*
X0067949Y0188101D01*
X0067949Y0189552D01*
X0068916Y0189552D02*
X0069400Y0189069D01*
X0069400Y0188101D01*
X0068916Y0187617D01*
X0068916Y0186606D02*
X0066981Y0186606D01*
X0066498Y0186122D01*
X0066498Y0184671D01*
X0069400Y0184671D01*
X0069400Y0186122D01*
X0068916Y0186606D01*
X0068916Y0180052D02*
X0068433Y0180052D01*
X0067949Y0179569D01*
X0067949Y0178601D01*
X0067465Y0178117D01*
X0066981Y0178117D01*
X0066498Y0178601D01*
X0066498Y0179569D01*
X0066981Y0180052D01*
X0067465Y0180052D01*
X0067949Y0179569D01*
X0067949Y0178601D02*
X0068433Y0178117D01*
X0068916Y0178117D01*
X0069400Y0178601D01*
X0069400Y0179569D01*
X0068916Y0180052D01*
X0068916Y0177106D02*
X0066981Y0177106D01*
X0066498Y0176622D01*
X0066498Y0175171D01*
X0069400Y0175171D01*
X0069400Y0176622D01*
X0068916Y0177106D01*
X0067281Y0171252D02*
X0069216Y0169317D01*
X0069700Y0169317D01*
X0069216Y0168306D02*
X0067281Y0168306D01*
X0066798Y0167822D01*
X0066798Y0166371D01*
X0069700Y0166371D01*
X0069700Y0167822D01*
X0069216Y0168306D01*
X0067281Y0171252D02*
X0066798Y0171252D01*
X0066798Y0169317D01*
X0066898Y0160052D02*
X0067381Y0159085D01*
X0068349Y0158117D01*
X0068349Y0159569D01*
X0068833Y0160052D01*
X0069316Y0160052D01*
X0069800Y0159569D01*
X0069800Y0158601D01*
X0069316Y0158117D01*
X0068349Y0158117D01*
X0069316Y0157106D02*
X0067381Y0157106D01*
X0066898Y0156622D01*
X0066898Y0155171D01*
X0069800Y0155171D01*
X0069800Y0156622D01*
X0069316Y0157106D01*
X0069316Y0149952D02*
X0068349Y0149952D01*
X0067865Y0149469D01*
X0067865Y0148985D01*
X0068349Y0148017D01*
X0066898Y0148017D01*
X0066898Y0149952D01*
X0067381Y0147006D02*
X0066898Y0146522D01*
X0066898Y0145071D01*
X0069800Y0145071D01*
X0069800Y0146522D01*
X0069316Y0147006D01*
X0067381Y0147006D01*
X0069316Y0148017D02*
X0069800Y0148501D01*
X0069800Y0149469D01*
X0069316Y0149952D01*
X0068249Y0140052D02*
X0068249Y0138117D01*
X0066798Y0139569D01*
X0069700Y0139569D01*
X0069216Y0137106D02*
X0067281Y0137106D01*
X0066798Y0136622D01*
X0066798Y0135171D01*
X0069700Y0135171D01*
X0069700Y0136622D01*
X0069216Y0137106D01*
X0069416Y0129952D02*
X0069900Y0129469D01*
X0069900Y0128501D01*
X0069416Y0128017D01*
X0069416Y0127006D02*
X0067481Y0127006D01*
X0066998Y0126522D01*
X0066998Y0125071D01*
X0069900Y0125071D01*
X0069900Y0126522D01*
X0069416Y0127006D01*
X0068449Y0128985D02*
X0068449Y0129469D01*
X0068933Y0129952D01*
X0069416Y0129952D01*
X0068449Y0129469D02*
X0067965Y0129952D01*
X0067481Y0129952D01*
X0066998Y0129469D01*
X0066998Y0128501D01*
X0067481Y0128017D01*
X0067281Y0120352D02*
X0066798Y0119869D01*
X0066798Y0118901D01*
X0067281Y0118417D01*
X0067281Y0117406D02*
X0066798Y0116922D01*
X0066798Y0115471D01*
X0069700Y0115471D01*
X0069700Y0116922D01*
X0069216Y0117406D01*
X0067281Y0117406D01*
X0069700Y0118417D02*
X0067765Y0120352D01*
X0067281Y0120352D01*
X0069700Y0120352D02*
X0069700Y0118417D01*
X0069116Y0110599D02*
X0067181Y0110599D01*
X0066698Y0110115D01*
X0066698Y0108664D01*
X0069600Y0108664D01*
X0069600Y0110115D01*
X0069116Y0110599D01*
X0069600Y0107652D02*
X0066698Y0107652D01*
X0066698Y0105717D02*
X0069600Y0107652D01*
X0069600Y0105717D02*
X0066698Y0105717D01*
X0067181Y0104706D02*
X0066698Y0104222D01*
X0066698Y0103255D01*
X0067181Y0102771D01*
X0069116Y0102771D01*
X0069600Y0103255D01*
X0069600Y0104222D01*
X0069116Y0104706D01*
X0068149Y0104706D01*
X0068149Y0103738D01*
X0068933Y0099252D02*
X0066998Y0099252D01*
X0066998Y0097317D02*
X0068933Y0097317D01*
X0069900Y0098285D01*
X0068933Y0099252D01*
X0068449Y0096306D02*
X0069416Y0096306D01*
X0069900Y0095822D01*
X0069900Y0094855D01*
X0069416Y0094371D01*
X0068449Y0094371D02*
X0067965Y0095338D01*
X0067965Y0095822D01*
X0068449Y0096306D01*
X0068449Y0094371D02*
X0066998Y0094371D01*
X0066998Y0096306D01*
X0068712Y0086574D02*
X0069396Y0083154D01*
X0068681Y0082438D02*
X0067313Y0082438D01*
X0067655Y0082781D02*
X0066629Y0081754D01*
X0067313Y0081070D02*
X0065260Y0083123D01*
X0066287Y0084149D01*
X0066971Y0084149D01*
X0067655Y0083465D01*
X0067655Y0082781D01*
X0067344Y0085206D02*
X0070764Y0084522D01*
X0068912Y0077874D02*
X0069596Y0074454D01*
X0068197Y0073054D02*
X0066144Y0075107D01*
X0065460Y0074423D02*
X0066829Y0075791D01*
X0067544Y0076506D02*
X0070964Y0075822D01*
X0070883Y0068495D02*
X0068414Y0068495D01*
X0067797Y0067878D01*
X0067797Y0066026D01*
X0071500Y0066026D01*
X0071500Y0067878D01*
X0070883Y0068495D01*
X0071500Y0064812D02*
X0067797Y0064812D01*
X0067797Y0062343D02*
X0071500Y0064812D01*
X0071500Y0062343D02*
X0067797Y0062343D01*
X0068414Y0061129D02*
X0067797Y0060511D01*
X0067797Y0059277D01*
X0068414Y0058660D01*
X0070883Y0058660D01*
X0071500Y0059277D01*
X0071500Y0060511D01*
X0070883Y0061129D01*
X0069648Y0061129D01*
X0069648Y0059894D01*
X0069448Y0054729D02*
X0069448Y0052877D01*
X0068831Y0052260D01*
X0068214Y0052260D01*
X0067597Y0052877D01*
X0067597Y0054111D01*
X0068214Y0054729D01*
X0070683Y0054729D01*
X0071300Y0054111D01*
X0071300Y0052877D01*
X0070683Y0052260D01*
X0070466Y0043929D02*
X0067997Y0043929D01*
X0067997Y0041460D02*
X0070466Y0041460D01*
X0071700Y0042694D01*
X0070466Y0043929D01*
X0071183Y0036712D02*
X0068714Y0036712D01*
X0071183Y0034243D01*
X0071800Y0034860D01*
X0071800Y0036095D01*
X0071183Y0036712D01*
X0071183Y0034243D02*
X0068714Y0034243D01*
X0068097Y0034860D01*
X0068097Y0036095D01*
X0068714Y0036712D01*
X0068097Y0031794D02*
X0071800Y0031794D01*
X0071800Y0030560D02*
X0071800Y0033029D01*
X0069331Y0030560D02*
X0068097Y0031794D01*
D12*
X0064650Y0031110D02*
X0064650Y0034179D01*
X0062348Y0034179D01*
X0061581Y0033412D01*
X0061581Y0031110D01*
X0060046Y0031877D02*
X0059279Y0032644D01*
X0056977Y0032644D01*
X0056977Y0033412D02*
X0056977Y0031110D01*
X0059279Y0031110D01*
X0060046Y0031877D01*
X0059279Y0034179D02*
X0057744Y0034179D01*
X0056977Y0033412D01*
X0055442Y0034179D02*
X0055442Y0031110D01*
X0055442Y0034179D02*
X0053140Y0034179D01*
X0052373Y0033412D01*
X0052373Y0031110D01*
X0050838Y0031877D02*
X0050838Y0033412D01*
X0050071Y0034179D01*
X0048536Y0034179D01*
X0047769Y0033412D01*
X0047769Y0031877D01*
X0048536Y0031110D01*
X0050071Y0031110D01*
X0050838Y0031877D01*
X0046234Y0031110D02*
X0043165Y0034179D01*
X0043165Y0034946D01*
X0043932Y0035714D01*
X0045467Y0035714D01*
X0046234Y0034946D01*
X0046234Y0031110D02*
X0043165Y0031110D01*
X0041630Y0033412D02*
X0038561Y0033412D01*
X0039328Y0031110D02*
X0039328Y0035714D01*
X0041630Y0033412D01*
X0037026Y0032644D02*
X0034724Y0032644D01*
X0033957Y0033412D01*
X0033957Y0034946D01*
X0034724Y0035714D01*
X0037026Y0035714D01*
X0037026Y0031110D01*
X0035492Y0032644D02*
X0033957Y0031110D01*
X0032423Y0031110D02*
X0032423Y0035714D01*
X0029353Y0035714D01*
X0030888Y0033412D02*
X0032423Y0033412D01*
X0047156Y0058379D02*
X0047156Y0062983D01*
X0049457Y0062983D01*
X0050225Y0062216D01*
X0050225Y0060681D01*
X0049457Y0059914D01*
X0047156Y0059914D01*
X0048690Y0059914D02*
X0050225Y0058379D01*
X0051759Y0058379D02*
X0051759Y0062983D01*
X0054829Y0062983D01*
X0056363Y0062216D02*
X0057131Y0062983D01*
X0058665Y0062983D01*
X0059433Y0062216D01*
X0059433Y0061448D01*
X0056363Y0058379D01*
X0059433Y0058379D01*
X0060967Y0060681D02*
X0064037Y0060681D01*
X0063269Y0058379D02*
X0063269Y0062983D01*
X0060967Y0060681D01*
X0053294Y0060681D02*
X0051759Y0060681D01*
X0053572Y0217210D02*
X0053572Y0221814D01*
X0051270Y0219512D01*
X0054339Y0219512D01*
X0055874Y0218744D02*
X0058176Y0218744D01*
X0058943Y0219512D01*
X0058943Y0221046D01*
X0058176Y0221814D01*
X0055874Y0221814D01*
X0055874Y0217210D01*
X0057408Y0218744D02*
X0058943Y0217210D01*
X0060477Y0217210D02*
X0060477Y0221814D01*
X0063547Y0221814D01*
X0062012Y0219512D02*
X0060477Y0219512D01*
X0049735Y0220279D02*
X0049735Y0221046D01*
X0048968Y0221814D01*
X0047433Y0221814D01*
X0046666Y0221046D01*
X0045131Y0219512D02*
X0045131Y0217977D01*
X0044364Y0217210D01*
X0042829Y0217210D01*
X0042062Y0217977D01*
X0042062Y0219512D01*
X0042829Y0220279D01*
X0044364Y0220279D01*
X0045131Y0219512D01*
X0046666Y0217210D02*
X0049735Y0220279D01*
X0049735Y0217210D02*
X0046666Y0217210D01*
X0040527Y0217210D02*
X0040527Y0219512D01*
X0039760Y0220279D01*
X0037458Y0220279D01*
X0037458Y0217210D01*
X0035923Y0217210D02*
X0033621Y0217210D01*
X0032854Y0217977D01*
X0033621Y0218744D01*
X0035923Y0218744D01*
X0035923Y0219512D02*
X0035923Y0217210D01*
X0035923Y0219512D02*
X0035156Y0220279D01*
X0033621Y0220279D01*
X0031319Y0219512D02*
X0031319Y0217210D01*
X0031319Y0219512D02*
X0030552Y0220279D01*
X0028250Y0220279D01*
X0028250Y0217210D01*
D13*
X0040651Y0206791D03*
D14*
X0040674Y0206815D03*
D15*
X0040674Y0206838D03*
D16*
X0040674Y0206862D03*
D17*
X0040663Y0206885D03*
D18*
X0040651Y0206909D03*
D19*
X0040627Y0206933D03*
D20*
X0036268Y0197610D02*
X0033887Y0197610D01*
X0033869Y0207648D02*
X0036231Y0207648D01*
X0036231Y0212372D02*
X0033869Y0212372D01*
X0028859Y0196578D02*
X0028859Y0192410D01*
X0029302Y0177006D02*
X0029302Y0159014D01*
X0030874Y0166041D02*
X0035050Y0166041D01*
X0030874Y0170217D01*
X0039226Y0170217D01*
X0035050Y0166041D01*
X0039226Y0166041D01*
X0040798Y0159014D02*
X0040798Y0177006D01*
X0041241Y0192410D02*
X0041241Y0196578D01*
X0048859Y0196578D02*
X0048859Y0192410D01*
X0053887Y0197610D02*
X0056268Y0197610D01*
X0061241Y0196578D02*
X0061241Y0192410D01*
X0060798Y0177006D02*
X0060798Y0159014D01*
X0059226Y0166041D02*
X0055050Y0166041D01*
X0050874Y0170217D01*
X0059226Y0170217D01*
X0055050Y0166041D01*
X0050874Y0166041D01*
X0049302Y0159014D02*
X0049302Y0177006D01*
X0053869Y0150372D02*
X0056231Y0150372D01*
X0056231Y0145648D02*
X0053869Y0145648D01*
X0053887Y0135610D02*
X0056268Y0135610D01*
X0061241Y0134578D02*
X0061241Y0130410D01*
X0060798Y0117006D02*
X0060798Y0099014D01*
X0059226Y0106041D02*
X0055050Y0106041D01*
X0050874Y0110217D01*
X0059226Y0110217D01*
X0055050Y0106041D01*
X0050874Y0106041D01*
X0049302Y0099014D02*
X0049302Y0117006D01*
X0048859Y0130410D02*
X0048859Y0134578D01*
X0041241Y0134578D02*
X0041241Y0130410D01*
X0036268Y0135610D02*
X0033887Y0135610D01*
X0033869Y0145648D02*
X0036231Y0145648D01*
X0036231Y0150372D02*
X0033869Y0150372D01*
X0028859Y0134578D02*
X0028859Y0130410D01*
X0029302Y0117006D02*
X0029302Y0099014D01*
X0030874Y0106041D02*
X0035050Y0106041D01*
X0030874Y0110217D01*
X0039226Y0110217D01*
X0035050Y0106041D01*
X0039226Y0106041D01*
X0040798Y0099014D02*
X0040798Y0117006D01*
X0053869Y0207648D02*
X0056231Y0207648D01*
X0056231Y0212372D02*
X0053869Y0212372D01*
M02*
