G75*
%MOIN*%
%OFA0B0*%
%FSLAX24Y24*%
%IPPOS*%
%LPD*%
%AMOC8*
5,1,8,0,0,1.08239X$1,22.5*
%
%ADD10C,0.0000*%
%ADD11R,0.0867X0.0540*%
%ADD12C,0.0700*%
%ADD13R,0.1142X0.0591*%
%ADD14R,0.0512X0.0591*%
%ADD15R,0.0355X0.0512*%
%ADD16R,0.0840X0.0840*%
%ADD17R,0.0394X0.1024*%
D10*
X000140Y002797D02*
X000140Y022297D01*
X007140Y022297D01*
X007140Y002797D01*
X000140Y002797D01*
D11*
X002640Y010018D03*
X002640Y011577D03*
X002640Y016018D03*
X002640Y017577D03*
X004640Y017577D03*
X004640Y016018D03*
X004640Y011577D03*
X004640Y010018D03*
D12*
X006640Y009797D03*
X006640Y010797D03*
X006640Y011797D03*
X006640Y012797D03*
X006640Y013797D03*
X006640Y014797D03*
X006640Y015797D03*
X006640Y016797D03*
X006640Y017797D03*
X006640Y018797D03*
X006640Y019797D03*
X006640Y020797D03*
X006640Y021797D03*
X006640Y008797D03*
X006640Y007797D03*
X000640Y007797D03*
X000640Y008797D03*
X000640Y009797D03*
X000640Y010797D03*
X000640Y011797D03*
X000640Y012797D03*
X000640Y013797D03*
X000640Y014797D03*
X000640Y015797D03*
X000640Y016797D03*
X000640Y017797D03*
X000640Y018797D03*
X000640Y019797D03*
X000640Y020797D03*
X000640Y021797D03*
D13*
X002640Y018985D03*
X004640Y018985D03*
X004640Y012785D03*
X002640Y012785D03*
D14*
X002207Y013809D03*
X003073Y013809D03*
X004207Y013809D03*
X005073Y013809D03*
X005073Y020009D03*
X004207Y020009D03*
X003073Y020009D03*
X002207Y020009D03*
D15*
X002286Y020997D03*
X002994Y020997D03*
X004286Y020997D03*
X004994Y020997D03*
X004994Y014797D03*
X004286Y014797D03*
X002994Y014797D03*
X002286Y014797D03*
D16*
X000640Y006307D03*
X000640Y005307D03*
X000640Y004307D03*
X000640Y003307D03*
X006640Y003327D03*
X006640Y004327D03*
X006640Y005327D03*
X006640Y006327D03*
D17*
X005350Y007172D03*
X004850Y007172D03*
X004350Y007172D03*
X003850Y007172D03*
X003350Y007172D03*
X002850Y007172D03*
X002350Y007172D03*
M02*
