G75*
%MOIN*%
%OFA0B0*%
%FSLAX25Y25*%
%IPPOS*%
%LPD*%
%AMOC8*
5,1,8,0,0,1.08239X$1,22.5*
%
%ADD10C,0.00000*%
%ADD11R,0.08268X0.05000*%
%ADD12C,0.06600*%
%ADD13R,0.11024X0.05512*%
%ADD14R,0.04724X0.05512*%
%ADD15R,0.03150X0.04724*%
%ADD16R,0.16000X0.08000*%
%ADD17R,0.03543X0.09843*%
%ADD18C,0.04724*%
%ADD19C,0.00800*%
%ADD20C,0.03762*%
%ADD21C,0.01600*%
%ADD22C,0.01200*%
%ADD23C,0.04000*%
%ADD24C,0.01000*%
%ADD25C,0.03200*%
D10*
X0005050Y0028010D02*
X0005050Y0223010D01*
X0085050Y0223010D01*
X0085050Y0028010D01*
X0005050Y0028010D01*
D11*
X0035050Y0100215D03*
X0035050Y0115805D03*
X0035050Y0160215D03*
X0035050Y0175805D03*
X0055050Y0175805D03*
X0055050Y0160215D03*
X0055050Y0115805D03*
X0055050Y0100215D03*
D12*
X0075050Y0098010D03*
X0075050Y0108010D03*
X0075050Y0118010D03*
X0075050Y0128010D03*
X0075050Y0138010D03*
X0075050Y0148010D03*
X0075050Y0158010D03*
X0075050Y0168010D03*
X0075050Y0178010D03*
X0075050Y0188010D03*
X0075050Y0198010D03*
X0075050Y0208010D03*
X0075050Y0218010D03*
X0075050Y0088010D03*
X0075050Y0078010D03*
X0015050Y0078010D03*
X0015050Y0088010D03*
X0015050Y0098010D03*
X0015050Y0108010D03*
X0015050Y0118010D03*
X0015050Y0128010D03*
X0015050Y0138010D03*
X0015050Y0148010D03*
X0015050Y0158010D03*
X0015050Y0168010D03*
X0015050Y0178010D03*
X0015050Y0188010D03*
X0015050Y0198010D03*
X0015050Y0208010D03*
X0015050Y0218010D03*
D13*
X0035050Y0189892D03*
X0055050Y0189892D03*
X0055050Y0127892D03*
X0035050Y0127892D03*
D14*
X0030719Y0138128D03*
X0039381Y0138128D03*
X0050719Y0138128D03*
X0059381Y0138128D03*
X0059381Y0200128D03*
X0050719Y0200128D03*
X0039381Y0200128D03*
X0030719Y0200128D03*
D15*
X0031507Y0210010D03*
X0038593Y0210010D03*
X0051507Y0210010D03*
X0058593Y0210010D03*
X0058593Y0148010D03*
X0051507Y0148010D03*
X0038593Y0148010D03*
X0031507Y0148010D03*
D16*
X0009950Y0063010D03*
X0009950Y0053010D03*
X0009950Y0043010D03*
X0009950Y0033010D03*
X0081350Y0033410D03*
X0081350Y0043410D03*
X0081350Y0053410D03*
X0081350Y0063410D03*
D17*
X0062152Y0071762D03*
X0057152Y0071762D03*
X0052152Y0071762D03*
X0047152Y0071762D03*
X0042152Y0071762D03*
X0037152Y0071762D03*
X0032152Y0071762D03*
D18*
X0009774Y0078010D02*
X0005050Y0078010D01*
X0005050Y0088010D02*
X0009774Y0088010D01*
X0009774Y0098010D02*
X0005050Y0098010D01*
X0005050Y0108010D02*
X0009774Y0108010D01*
X0009774Y0118010D02*
X0005050Y0118010D01*
X0005050Y0128010D02*
X0009774Y0128010D01*
X0009774Y0138010D02*
X0005050Y0138010D01*
X0005050Y0148010D02*
X0009774Y0148010D01*
X0009774Y0158010D02*
X0005050Y0158010D01*
X0005050Y0168010D02*
X0009774Y0168010D01*
X0009774Y0178010D02*
X0005050Y0178010D01*
X0005050Y0188010D02*
X0009774Y0188010D01*
X0009774Y0198010D02*
X0005050Y0198010D01*
X0005050Y0208010D02*
X0009774Y0208010D01*
X0009774Y0218010D02*
X0005050Y0218010D01*
X0080326Y0218010D02*
X0085050Y0218010D01*
X0085050Y0208010D02*
X0080326Y0208010D01*
X0080326Y0198010D02*
X0085050Y0198010D01*
X0085050Y0188010D02*
X0080326Y0188010D01*
X0080326Y0178010D02*
X0085050Y0178010D01*
X0085050Y0168010D02*
X0080326Y0168010D01*
X0080326Y0158010D02*
X0085050Y0158010D01*
X0085050Y0148010D02*
X0080326Y0148010D01*
X0080326Y0138010D02*
X0085050Y0138010D01*
X0085050Y0128010D02*
X0080326Y0128010D01*
X0080326Y0118010D02*
X0085050Y0118010D01*
X0085050Y0108010D02*
X0080326Y0108010D01*
X0080326Y0098010D02*
X0085050Y0098010D01*
X0085050Y0088010D02*
X0080326Y0088010D01*
X0080326Y0078010D02*
X0085050Y0078010D01*
D19*
X0083150Y0081372D02*
X0079657Y0081372D01*
X0078782Y0081010D01*
X0078131Y0081010D01*
X0077486Y0081655D01*
X0075905Y0082310D01*
X0074195Y0082310D01*
X0072614Y0081655D01*
X0071405Y0080446D01*
X0070750Y0078865D01*
X0070750Y0077155D01*
X0071405Y0075574D01*
X0072614Y0074364D01*
X0074195Y0073710D01*
X0075905Y0073710D01*
X0077486Y0074364D01*
X0078131Y0075010D01*
X0078782Y0075010D01*
X0079657Y0074648D01*
X0083150Y0074648D01*
X0083150Y0068810D01*
X0081750Y0068810D01*
X0081750Y0063810D01*
X0080950Y0063810D01*
X0080950Y0068810D01*
X0073166Y0068810D01*
X0072810Y0068714D01*
X0072490Y0068530D01*
X0072230Y0068269D01*
X0072045Y0067950D01*
X0071950Y0067594D01*
X0071950Y0063810D01*
X0080950Y0063810D01*
X0080950Y0063010D01*
X0071950Y0063010D01*
X0071950Y0059226D01*
X0072045Y0058869D01*
X0072230Y0058550D01*
X0072490Y0058290D01*
X0072697Y0058171D01*
X0072350Y0057824D01*
X0072350Y0055310D01*
X0063324Y0055310D01*
X0062682Y0055952D01*
X0061623Y0056391D01*
X0060477Y0056391D01*
X0059418Y0055952D01*
X0058608Y0055142D01*
X0058169Y0054083D01*
X0058169Y0052937D01*
X0058608Y0051878D01*
X0059418Y0051067D01*
X0060477Y0050629D01*
X0061623Y0050629D01*
X0062682Y0051067D01*
X0063324Y0051710D01*
X0072350Y0051710D01*
X0072350Y0048996D01*
X0072936Y0048410D01*
X0072350Y0047824D01*
X0072350Y0045963D01*
X0063186Y0045916D01*
X0062523Y0046191D01*
X0061377Y0046191D01*
X0060318Y0045752D01*
X0059508Y0044942D01*
X0059069Y0043883D01*
X0059069Y0042737D01*
X0059508Y0041678D01*
X0060318Y0040867D01*
X0061377Y0040429D01*
X0062523Y0040429D01*
X0063217Y0040716D01*
X0072350Y0040763D01*
X0072350Y0038996D01*
X0072936Y0038410D01*
X0072350Y0037824D01*
X0072350Y0036474D01*
X0058156Y0041205D01*
X0057892Y0041842D01*
X0057082Y0042652D01*
X0056023Y0043091D01*
X0054877Y0043091D01*
X0053818Y0042652D01*
X0053008Y0041842D01*
X0052569Y0040783D01*
X0052569Y0039637D01*
X0053008Y0038578D01*
X0053818Y0037767D01*
X0054877Y0037329D01*
X0056023Y0037329D01*
X0057082Y0037767D01*
X0057083Y0037768D01*
X0072350Y0032679D01*
X0072350Y0029910D01*
X0018950Y0029910D01*
X0018950Y0030939D01*
X0019735Y0030915D01*
X0020308Y0030795D01*
X0020460Y0030894D01*
X0020641Y0030888D01*
X0021067Y0031289D01*
X0027085Y0035210D01*
X0027296Y0035210D01*
X0027690Y0035604D01*
X0028157Y0035909D01*
X0028201Y0036115D01*
X0028350Y0036264D01*
X0028350Y0036822D01*
X0028465Y0037368D01*
X0028350Y0037544D01*
X0028350Y0103273D01*
X0034207Y0108210D01*
X0042796Y0108210D01*
X0043850Y0109264D01*
X0043850Y0109264D01*
X0048296Y0113710D01*
X0049916Y0113710D01*
X0049916Y0112891D01*
X0050502Y0112305D01*
X0059598Y0112305D01*
X0060184Y0112891D01*
X0060184Y0118719D01*
X0059598Y0119305D01*
X0056850Y0119305D01*
X0056850Y0124136D01*
X0060976Y0124136D01*
X0061562Y0124722D01*
X0061562Y0131062D01*
X0061014Y0131610D01*
X0063130Y0131610D01*
X0065630Y0134110D01*
X0066450Y0134930D01*
X0066450Y0142430D01*
X0068130Y0144110D01*
X0073130Y0144110D01*
X0073159Y0144139D01*
X0074195Y0143710D01*
X0075905Y0143710D01*
X0077486Y0144364D01*
X0078131Y0145010D01*
X0078782Y0145010D01*
X0079657Y0144648D01*
X0083150Y0144648D01*
X0083150Y0141372D01*
X0079657Y0141372D01*
X0078782Y0141010D01*
X0078131Y0141010D01*
X0077486Y0141655D01*
X0075905Y0142310D01*
X0074195Y0142310D01*
X0072614Y0141655D01*
X0071405Y0140446D01*
X0070750Y0138865D01*
X0070750Y0137155D01*
X0071405Y0135574D01*
X0072614Y0134364D01*
X0074195Y0133710D01*
X0075905Y0133710D01*
X0077486Y0134364D01*
X0078131Y0135010D01*
X0078782Y0135010D01*
X0079657Y0134648D01*
X0083150Y0134648D01*
X0083150Y0131372D01*
X0079657Y0131372D01*
X0078782Y0131010D01*
X0078131Y0131010D01*
X0077486Y0131655D01*
X0075905Y0132310D01*
X0074195Y0132310D01*
X0072614Y0131655D01*
X0071405Y0130446D01*
X0070750Y0128865D01*
X0070750Y0127155D01*
X0071405Y0125574D01*
X0072614Y0124364D01*
X0074195Y0123710D01*
X0075905Y0123710D01*
X0077486Y0124364D01*
X0078131Y0125010D01*
X0078782Y0125010D01*
X0079657Y0124648D01*
X0083150Y0124648D01*
X0083150Y0121372D01*
X0079657Y0121372D01*
X0078782Y0121010D01*
X0078131Y0121010D01*
X0077486Y0121655D01*
X0075905Y0122310D01*
X0074195Y0122310D01*
X0072614Y0121655D01*
X0071405Y0120446D01*
X0070750Y0118865D01*
X0070750Y0117155D01*
X0071405Y0115574D01*
X0072614Y0114364D01*
X0074195Y0113710D01*
X0075905Y0113710D01*
X0077486Y0114364D01*
X0078131Y0115010D01*
X0078782Y0115010D01*
X0079657Y0114648D01*
X0083150Y0114648D01*
X0083150Y0111772D01*
X0079955Y0111772D01*
X0079228Y0111627D01*
X0078544Y0111344D01*
X0078435Y0111271D01*
X0078112Y0111595D01*
X0077513Y0112030D01*
X0076854Y0112365D01*
X0076151Y0112594D01*
X0075450Y0112705D01*
X0075450Y0108410D01*
X0074650Y0108410D01*
X0074650Y0112705D01*
X0073949Y0112594D01*
X0073246Y0112365D01*
X0072587Y0112030D01*
X0071988Y0111595D01*
X0071465Y0111072D01*
X0071030Y0110473D01*
X0070694Y0109814D01*
X0070466Y0109110D01*
X0070355Y0108410D01*
X0074650Y0108410D01*
X0074650Y0107610D01*
X0070355Y0107610D01*
X0070466Y0106909D01*
X0070694Y0106206D01*
X0071030Y0105547D01*
X0071465Y0104948D01*
X0071988Y0104425D01*
X0072587Y0103990D01*
X0073246Y0103654D01*
X0073949Y0103426D01*
X0074650Y0103315D01*
X0074650Y0107610D01*
X0075450Y0107610D01*
X0075450Y0108410D01*
X0076569Y0108410D01*
X0076567Y0108397D01*
X0083150Y0108397D01*
X0083150Y0107622D01*
X0076567Y0107622D01*
X0076569Y0107610D01*
X0075450Y0107610D01*
X0075450Y0103315D01*
X0076151Y0103426D01*
X0076854Y0103654D01*
X0077513Y0103990D01*
X0078112Y0104425D01*
X0078435Y0104748D01*
X0078544Y0104676D01*
X0079228Y0104392D01*
X0079955Y0104248D01*
X0083150Y0104248D01*
X0083150Y0101372D01*
X0079657Y0101372D01*
X0078782Y0101010D01*
X0078131Y0101010D01*
X0077486Y0101655D01*
X0075905Y0102310D01*
X0074195Y0102310D01*
X0072614Y0101655D01*
X0071405Y0100446D01*
X0070750Y0098865D01*
X0070750Y0097155D01*
X0071405Y0095574D01*
X0072614Y0094364D01*
X0074195Y0093710D01*
X0075905Y0093710D01*
X0077486Y0094364D01*
X0078131Y0095010D01*
X0078782Y0095010D01*
X0079657Y0094648D01*
X0083150Y0094648D01*
X0083150Y0091372D01*
X0079657Y0091372D01*
X0078782Y0091010D01*
X0078131Y0091010D01*
X0077486Y0091655D01*
X0075905Y0092310D01*
X0074195Y0092310D01*
X0072614Y0091655D01*
X0071405Y0090446D01*
X0070750Y0088865D01*
X0070750Y0087155D01*
X0071405Y0085574D01*
X0072614Y0084364D01*
X0074195Y0083710D01*
X0075905Y0083710D01*
X0077486Y0084364D01*
X0078131Y0085010D01*
X0078782Y0085010D01*
X0079657Y0084648D01*
X0083150Y0084648D01*
X0083150Y0081372D01*
X0083150Y0081510D02*
X0077631Y0081510D01*
X0076378Y0083906D02*
X0083150Y0083906D01*
X0083150Y0083107D02*
X0057138Y0083107D01*
X0057805Y0079913D02*
X0040564Y0079913D01*
X0041026Y0080712D02*
X0055498Y0080712D01*
X0055196Y0078083D02*
X0054840Y0077988D01*
X0054521Y0077803D01*
X0054370Y0077652D01*
X0054338Y0077683D01*
X0049966Y0077683D01*
X0049652Y0077369D01*
X0049338Y0077683D01*
X0044966Y0077683D01*
X0044652Y0077369D01*
X0044338Y0077683D01*
X0039966Y0077683D01*
X0039652Y0077369D01*
X0039338Y0077683D01*
X0039274Y0077683D01*
X0046057Y0089410D01*
X0056976Y0089410D01*
X0057260Y0089295D01*
X0057533Y0089410D01*
X0057830Y0089410D01*
X0058047Y0089626D01*
X0058329Y0089746D01*
X0058440Y0090020D01*
X0058650Y0090230D01*
X0058650Y0090536D01*
X0058891Y0091129D01*
X0059123Y0091129D01*
X0060182Y0091567D01*
X0060992Y0092378D01*
X0061431Y0093437D01*
X0061431Y0094583D01*
X0060992Y0095642D01*
X0060182Y0096452D01*
X0059549Y0096715D01*
X0059598Y0096715D01*
X0060184Y0097300D01*
X0060184Y0103129D01*
X0059598Y0103715D01*
X0050502Y0103715D01*
X0049916Y0103129D01*
X0049916Y0101815D01*
X0047128Y0101815D01*
X0046992Y0102142D01*
X0046182Y0102952D01*
X0045123Y0103391D01*
X0043977Y0103391D01*
X0042918Y0102952D01*
X0042108Y0102142D01*
X0041972Y0101815D01*
X0040184Y0101815D01*
X0040184Y0103129D01*
X0039598Y0103715D01*
X0030502Y0103715D01*
X0029916Y0103129D01*
X0029916Y0097300D01*
X0030502Y0096715D01*
X0039598Y0096715D01*
X0040184Y0097300D01*
X0040184Y0098615D01*
X0042371Y0098615D01*
X0042918Y0098067D01*
X0043977Y0097629D01*
X0045123Y0097629D01*
X0046182Y0098067D01*
X0046729Y0098615D01*
X0049916Y0098615D01*
X0049916Y0097300D01*
X0050502Y0096715D01*
X0052051Y0096715D01*
X0051418Y0096452D01*
X0050608Y0095642D01*
X0050511Y0095410D01*
X0043974Y0095410D01*
X0043844Y0095496D01*
X0043411Y0095410D01*
X0042970Y0095410D01*
X0042860Y0095299D01*
X0042707Y0095269D01*
X0042462Y0094902D01*
X0042150Y0094590D01*
X0042150Y0094434D01*
X0031279Y0078126D01*
X0030975Y0077843D01*
X0030969Y0077683D01*
X0029966Y0077683D01*
X0029381Y0077097D01*
X0029381Y0066426D01*
X0029966Y0065841D01*
X0034338Y0065841D01*
X0034652Y0066155D01*
X0034966Y0065841D01*
X0039338Y0065841D01*
X0039652Y0066155D01*
X0039966Y0065841D01*
X0040751Y0065841D01*
X0040750Y0063690D01*
X0040418Y0063552D01*
X0039608Y0062742D01*
X0039169Y0061683D01*
X0039169Y0060537D01*
X0039608Y0059478D01*
X0040418Y0058667D01*
X0041477Y0058229D01*
X0042623Y0058229D01*
X0043682Y0058667D01*
X0044492Y0059478D01*
X0044931Y0060537D01*
X0044931Y0061254D01*
X0045418Y0060767D01*
X0046477Y0060329D01*
X0047623Y0060329D01*
X0048682Y0060767D01*
X0049269Y0061354D01*
X0049269Y0061237D01*
X0049708Y0060178D01*
X0050518Y0059367D01*
X0051577Y0058929D01*
X0052723Y0058929D01*
X0053782Y0059367D01*
X0054592Y0060178D01*
X0055031Y0061237D01*
X0055031Y0062383D01*
X0054592Y0063442D01*
X0053782Y0064252D01*
X0053723Y0064277D01*
X0053813Y0065582D01*
X0053879Y0065655D01*
X0053869Y0065841D01*
X0054338Y0065841D01*
X0054370Y0065872D01*
X0054521Y0065720D01*
X0054840Y0065536D01*
X0055196Y0065441D01*
X0056752Y0065441D01*
X0056752Y0071362D01*
X0057552Y0071362D01*
X0057552Y0065441D01*
X0059108Y0065441D01*
X0059464Y0065536D01*
X0059784Y0065720D01*
X0059935Y0065872D01*
X0059966Y0065841D01*
X0064338Y0065841D01*
X0064924Y0066426D01*
X0064924Y0077097D01*
X0064338Y0077683D01*
X0063552Y0077683D01*
X0063552Y0079117D01*
X0062732Y0079937D01*
X0061240Y0081429D01*
X0061089Y0081739D01*
X0060846Y0081824D01*
X0060663Y0082006D01*
X0060319Y0082006D01*
X0053131Y0084494D01*
X0053131Y0084583D01*
X0052692Y0085642D01*
X0051882Y0086452D01*
X0050823Y0086891D01*
X0049677Y0086891D01*
X0048618Y0086452D01*
X0047808Y0085642D01*
X0047369Y0084583D01*
X0047369Y0083437D01*
X0047808Y0082378D01*
X0048618Y0081567D01*
X0049677Y0081129D01*
X0050823Y0081129D01*
X0051882Y0081567D01*
X0052176Y0081862D01*
X0059321Y0079388D01*
X0060752Y0077957D01*
X0060752Y0077683D01*
X0059966Y0077683D01*
X0059935Y0077652D01*
X0059784Y0077803D01*
X0059464Y0077988D01*
X0059108Y0078083D01*
X0057552Y0078083D01*
X0057552Y0072162D01*
X0056752Y0072162D01*
X0056752Y0078083D01*
X0055196Y0078083D01*
X0056752Y0077518D02*
X0057552Y0077518D01*
X0057552Y0076719D02*
X0056752Y0076719D01*
X0056752Y0075921D02*
X0057552Y0075921D01*
X0057552Y0075122D02*
X0056752Y0075122D01*
X0056752Y0074323D02*
X0057552Y0074323D01*
X0057552Y0073525D02*
X0056752Y0073525D01*
X0056752Y0072726D02*
X0057552Y0072726D01*
X0057552Y0071129D02*
X0056752Y0071129D01*
X0056752Y0070331D02*
X0057552Y0070331D01*
X0057552Y0069532D02*
X0056752Y0069532D01*
X0056752Y0068734D02*
X0057552Y0068734D01*
X0057552Y0067935D02*
X0056752Y0067935D01*
X0056752Y0067137D02*
X0057552Y0067137D01*
X0057552Y0066338D02*
X0056752Y0066338D01*
X0056752Y0065540D02*
X0057552Y0065540D01*
X0059471Y0065540D02*
X0071950Y0065540D01*
X0071950Y0066338D02*
X0064836Y0066338D01*
X0064924Y0067137D02*
X0071950Y0067137D01*
X0072041Y0067935D02*
X0064924Y0067935D01*
X0064924Y0068734D02*
X0072882Y0068734D01*
X0071950Y0064741D02*
X0053755Y0064741D01*
X0053811Y0065540D02*
X0054834Y0065540D01*
X0054091Y0063943D02*
X0071950Y0063943D01*
X0071950Y0062346D02*
X0055031Y0062346D01*
X0055031Y0061547D02*
X0071950Y0061547D01*
X0071950Y0060749D02*
X0054829Y0060749D01*
X0054365Y0059950D02*
X0071950Y0059950D01*
X0071970Y0059152D02*
X0053262Y0059152D01*
X0051038Y0059152D02*
X0044166Y0059152D01*
X0044688Y0059950D02*
X0049935Y0059950D01*
X0049471Y0060749D02*
X0048637Y0060749D01*
X0047050Y0063210D02*
X0047150Y0065259D01*
X0047152Y0071762D01*
X0044801Y0077518D02*
X0044504Y0077518D01*
X0042873Y0083906D02*
X0047369Y0083906D01*
X0047419Y0084704D02*
X0043335Y0084704D01*
X0043797Y0085503D02*
X0047750Y0085503D01*
X0048467Y0086301D02*
X0044259Y0086301D01*
X0044721Y0087100D02*
X0070773Y0087100D01*
X0070750Y0087898D02*
X0045183Y0087898D01*
X0045645Y0088697D02*
X0070750Y0088697D01*
X0071011Y0089495D02*
X0057915Y0089495D01*
X0058650Y0090294D02*
X0071342Y0090294D01*
X0072051Y0091092D02*
X0058876Y0091092D01*
X0057250Y0090810D02*
X0058550Y0094010D01*
X0059628Y0096682D02*
X0070946Y0096682D01*
X0070750Y0097480D02*
X0060184Y0097480D01*
X0060184Y0098279D02*
X0070750Y0098279D01*
X0070838Y0099077D02*
X0060184Y0099077D01*
X0060184Y0099876D02*
X0071169Y0099876D01*
X0071633Y0100674D02*
X0060184Y0100674D01*
X0060184Y0101473D02*
X0072432Y0101473D01*
X0072825Y0103868D02*
X0029057Y0103868D01*
X0028350Y0103070D02*
X0029916Y0103070D01*
X0029916Y0102271D02*
X0028350Y0102271D01*
X0028350Y0101473D02*
X0029916Y0101473D01*
X0029916Y0100674D02*
X0028350Y0100674D01*
X0028350Y0099876D02*
X0029916Y0099876D01*
X0029916Y0099077D02*
X0028350Y0099077D01*
X0028350Y0098279D02*
X0029916Y0098279D01*
X0029916Y0097480D02*
X0028350Y0097480D01*
X0028350Y0096682D02*
X0051972Y0096682D01*
X0050849Y0095883D02*
X0028350Y0095883D01*
X0028350Y0095085D02*
X0042584Y0095085D01*
X0042052Y0094286D02*
X0028350Y0094286D01*
X0028350Y0093488D02*
X0041519Y0093488D01*
X0040987Y0092689D02*
X0028350Y0092689D01*
X0028350Y0091891D02*
X0040455Y0091891D01*
X0039923Y0091092D02*
X0028350Y0091092D01*
X0028350Y0090294D02*
X0039390Y0090294D01*
X0038858Y0089495D02*
X0028350Y0089495D01*
X0028350Y0088697D02*
X0038326Y0088697D01*
X0037793Y0087898D02*
X0028350Y0087898D01*
X0028350Y0087100D02*
X0037261Y0087100D01*
X0036729Y0086301D02*
X0028350Y0086301D01*
X0028350Y0085503D02*
X0036196Y0085503D01*
X0035664Y0084704D02*
X0028350Y0084704D01*
X0028350Y0083906D02*
X0035132Y0083906D01*
X0034599Y0083107D02*
X0028350Y0083107D01*
X0028350Y0082309D02*
X0034067Y0082309D01*
X0033535Y0081510D02*
X0028350Y0081510D01*
X0028350Y0080712D02*
X0033003Y0080712D01*
X0032470Y0079913D02*
X0028350Y0079913D01*
X0028350Y0079115D02*
X0031938Y0079115D01*
X0031406Y0078316D02*
X0028350Y0078316D01*
X0028350Y0077518D02*
X0029801Y0077518D01*
X0029381Y0076719D02*
X0028350Y0076719D01*
X0028350Y0075921D02*
X0029381Y0075921D01*
X0029381Y0075122D02*
X0028350Y0075122D01*
X0028350Y0074323D02*
X0029381Y0074323D01*
X0029381Y0073525D02*
X0028350Y0073525D01*
X0028350Y0072726D02*
X0029381Y0072726D01*
X0029381Y0071928D02*
X0028350Y0071928D01*
X0028350Y0071129D02*
X0029381Y0071129D01*
X0029381Y0070331D02*
X0028350Y0070331D01*
X0028350Y0069532D02*
X0029381Y0069532D01*
X0029381Y0068734D02*
X0028350Y0068734D01*
X0028350Y0067935D02*
X0029381Y0067935D01*
X0029381Y0067137D02*
X0028350Y0067137D01*
X0028350Y0066338D02*
X0029469Y0066338D01*
X0028350Y0065540D02*
X0040751Y0065540D01*
X0040751Y0064741D02*
X0028350Y0064741D01*
X0028350Y0063943D02*
X0040750Y0063943D01*
X0040010Y0063144D02*
X0028350Y0063144D01*
X0028350Y0062346D02*
X0039443Y0062346D01*
X0039169Y0061547D02*
X0028350Y0061547D01*
X0028350Y0060749D02*
X0039169Y0060749D01*
X0039412Y0059950D02*
X0028350Y0059950D01*
X0028350Y0059152D02*
X0039934Y0059152D01*
X0041176Y0058353D02*
X0028350Y0058353D01*
X0028350Y0057555D02*
X0072350Y0057555D01*
X0072350Y0056756D02*
X0028350Y0056756D01*
X0028350Y0055958D02*
X0059431Y0055958D01*
X0058625Y0055159D02*
X0028350Y0055159D01*
X0028350Y0054361D02*
X0058284Y0054361D01*
X0058169Y0053562D02*
X0028350Y0053562D01*
X0028350Y0052764D02*
X0058241Y0052764D01*
X0058571Y0051965D02*
X0028350Y0051965D01*
X0028350Y0051167D02*
X0059319Y0051167D01*
X0060143Y0045577D02*
X0028350Y0045577D01*
X0028350Y0044779D02*
X0059440Y0044779D01*
X0059109Y0043980D02*
X0028350Y0043980D01*
X0028350Y0043182D02*
X0059069Y0043182D01*
X0059215Y0042383D02*
X0057351Y0042383D01*
X0057999Y0041585D02*
X0059601Y0041585D01*
X0059414Y0040786D02*
X0060514Y0040786D01*
X0060007Y0036793D02*
X0028350Y0036793D01*
X0028350Y0037592D02*
X0054241Y0037592D01*
X0053195Y0038390D02*
X0028350Y0038390D01*
X0028350Y0039189D02*
X0052754Y0039189D01*
X0052569Y0039988D02*
X0028350Y0039988D01*
X0028350Y0040786D02*
X0052570Y0040786D01*
X0052901Y0041585D02*
X0028350Y0041585D01*
X0028350Y0042383D02*
X0053549Y0042383D01*
X0056659Y0037592D02*
X0057611Y0037592D01*
X0061809Y0039988D02*
X0072350Y0039988D01*
X0072350Y0039189D02*
X0064205Y0039189D01*
X0062403Y0035995D02*
X0028175Y0035995D01*
X0027064Y0035196D02*
X0064798Y0035196D01*
X0066600Y0038390D02*
X0072916Y0038390D01*
X0072936Y0038410D02*
X0083150Y0038410D01*
X0083150Y0038410D01*
X0072936Y0038410D01*
X0072350Y0037592D02*
X0068996Y0037592D01*
X0071391Y0036793D02*
X0072350Y0036793D01*
X0074050Y0034010D02*
X0081350Y0033410D01*
X0083150Y0048410D02*
X0072936Y0048410D01*
X0083150Y0048410D01*
X0083150Y0048410D01*
X0081350Y0053410D02*
X0074550Y0053510D01*
X0072574Y0048771D02*
X0028350Y0048771D01*
X0028350Y0047973D02*
X0072499Y0047973D01*
X0072350Y0047174D02*
X0028350Y0047174D01*
X0028350Y0046376D02*
X0072350Y0046376D01*
X0072350Y0049570D02*
X0028350Y0049570D01*
X0028350Y0050368D02*
X0072350Y0050368D01*
X0072350Y0051167D02*
X0062781Y0051167D01*
X0062669Y0055958D02*
X0072350Y0055958D01*
X0072427Y0058353D02*
X0042924Y0058353D01*
X0042050Y0061110D02*
X0042150Y0062764D01*
X0042152Y0071762D01*
X0039801Y0077518D02*
X0039504Y0077518D01*
X0039640Y0078316D02*
X0060393Y0078316D01*
X0059595Y0079115D02*
X0040102Y0079115D01*
X0041487Y0081510D02*
X0048756Y0081510D01*
X0047877Y0082309D02*
X0041949Y0082309D01*
X0042411Y0083107D02*
X0047505Y0083107D01*
X0049504Y0077518D02*
X0049801Y0077518D01*
X0050250Y0084010D02*
X0060083Y0080606D01*
X0062152Y0078537D01*
X0062152Y0071762D01*
X0064924Y0071928D02*
X0083150Y0071928D01*
X0083150Y0072726D02*
X0064924Y0072726D01*
X0064924Y0073525D02*
X0083150Y0073525D01*
X0083150Y0074323D02*
X0077387Y0074323D01*
X0080950Y0068734D02*
X0081750Y0068734D01*
X0081750Y0067935D02*
X0080950Y0067935D01*
X0080950Y0067137D02*
X0081750Y0067137D01*
X0081750Y0066338D02*
X0080950Y0066338D01*
X0080950Y0065540D02*
X0081750Y0065540D01*
X0081750Y0064741D02*
X0080950Y0064741D01*
X0080950Y0063943D02*
X0081750Y0063943D01*
X0080950Y0063144D02*
X0054716Y0063144D01*
X0052150Y0061810D02*
X0052450Y0066159D01*
X0052152Y0071762D01*
X0051744Y0081510D02*
X0053192Y0081510D01*
X0054831Y0083906D02*
X0073722Y0083906D01*
X0074192Y0082309D02*
X0059445Y0082309D01*
X0061201Y0081510D02*
X0072469Y0081510D01*
X0071671Y0080712D02*
X0061958Y0080712D01*
X0062756Y0079913D02*
X0071184Y0079913D01*
X0070853Y0079115D02*
X0063552Y0079115D01*
X0063552Y0078316D02*
X0070750Y0078316D01*
X0070750Y0077518D02*
X0064504Y0077518D01*
X0064924Y0076719D02*
X0070930Y0076719D01*
X0071261Y0075921D02*
X0064924Y0075921D01*
X0064924Y0075122D02*
X0071857Y0075122D01*
X0072713Y0074323D02*
X0064924Y0074323D01*
X0064924Y0071129D02*
X0083150Y0071129D01*
X0083150Y0070331D02*
X0064924Y0070331D01*
X0064924Y0069532D02*
X0083150Y0069532D01*
X0083150Y0082309D02*
X0075908Y0082309D01*
X0077825Y0084704D02*
X0079520Y0084704D01*
X0078981Y0091092D02*
X0078049Y0091092D01*
X0077297Y0094286D02*
X0083150Y0094286D01*
X0083150Y0093488D02*
X0061431Y0093488D01*
X0061431Y0094286D02*
X0072803Y0094286D01*
X0071894Y0095085D02*
X0061223Y0095085D01*
X0060751Y0095883D02*
X0071277Y0095883D01*
X0073183Y0091891D02*
X0060505Y0091891D01*
X0061121Y0092689D02*
X0083150Y0092689D01*
X0083150Y0091891D02*
X0076917Y0091891D01*
X0077668Y0101473D02*
X0083150Y0101473D01*
X0083150Y0102271D02*
X0075998Y0102271D01*
X0075450Y0103868D02*
X0074650Y0103868D01*
X0074650Y0104667D02*
X0075450Y0104667D01*
X0075450Y0105465D02*
X0074650Y0105465D01*
X0074650Y0106264D02*
X0075450Y0106264D01*
X0075450Y0107062D02*
X0074650Y0107062D01*
X0074650Y0107861D02*
X0033793Y0107861D01*
X0032846Y0107062D02*
X0070441Y0107062D01*
X0070675Y0106264D02*
X0031899Y0106264D01*
X0030951Y0105465D02*
X0071089Y0105465D01*
X0071746Y0104667D02*
X0030004Y0104667D01*
X0028208Y0107861D02*
X0019350Y0107861D01*
X0019350Y0107155D02*
X0019350Y0108865D01*
X0018695Y0110446D01*
X0017486Y0111655D01*
X0015905Y0112310D01*
X0014195Y0112310D01*
X0012614Y0111655D01*
X0011749Y0110790D01*
X0011679Y0110860D01*
X0010443Y0111372D01*
X0006950Y0111372D01*
X0006950Y0114648D01*
X0010443Y0114648D01*
X0011679Y0115159D01*
X0011749Y0115230D01*
X0012614Y0114364D01*
X0014195Y0113710D01*
X0015905Y0113710D01*
X0017486Y0114364D01*
X0018695Y0115574D01*
X0019350Y0117155D01*
X0019350Y0118865D01*
X0018695Y0120446D01*
X0017486Y0121655D01*
X0015905Y0122310D01*
X0014195Y0122310D01*
X0012614Y0121655D01*
X0011749Y0120790D01*
X0011679Y0120860D01*
X0010443Y0121372D01*
X0006950Y0121372D01*
X0006950Y0124648D01*
X0010443Y0124648D01*
X0011679Y0125159D01*
X0011749Y0125230D01*
X0012614Y0124364D01*
X0014195Y0123710D01*
X0015905Y0123710D01*
X0017486Y0124364D01*
X0018695Y0125574D01*
X0019350Y0127155D01*
X0019350Y0128865D01*
X0018695Y0130446D01*
X0017486Y0131655D01*
X0015905Y0132310D01*
X0014195Y0132310D01*
X0012614Y0131655D01*
X0011749Y0130790D01*
X0011679Y0130860D01*
X0010443Y0131372D01*
X0006950Y0131372D01*
X0006950Y0134648D01*
X0010443Y0134648D01*
X0011679Y0135159D01*
X0011749Y0135230D01*
X0012614Y0134364D01*
X0014195Y0133710D01*
X0015905Y0133710D01*
X0017486Y0134364D01*
X0018695Y0135574D01*
X0019350Y0137155D01*
X0019350Y0138865D01*
X0018695Y0140446D01*
X0017486Y0141655D01*
X0015905Y0142310D01*
X0014195Y0142310D01*
X0012614Y0141655D01*
X0011749Y0140790D01*
X0011679Y0140860D01*
X0010443Y0141372D01*
X0006950Y0141372D01*
X0006950Y0144648D01*
X0010443Y0144648D01*
X0011679Y0145159D01*
X0011749Y0145230D01*
X0012614Y0144364D01*
X0014195Y0143710D01*
X0015905Y0143710D01*
X0017486Y0144364D01*
X0018695Y0145574D01*
X0019350Y0147155D01*
X0019350Y0148865D01*
X0018695Y0150446D01*
X0017486Y0151655D01*
X0015905Y0152310D01*
X0014195Y0152310D01*
X0012614Y0151655D01*
X0011749Y0150790D01*
X0011679Y0150860D01*
X0010443Y0151372D01*
X0006950Y0151372D01*
X0006950Y0154648D01*
X0010443Y0154648D01*
X0011679Y0155159D01*
X0011749Y0155230D01*
X0012614Y0154364D01*
X0014195Y0153710D01*
X0015905Y0153710D01*
X0017486Y0154364D01*
X0018695Y0155574D01*
X0019350Y0157155D01*
X0019350Y0158865D01*
X0018695Y0160446D01*
X0017486Y0161655D01*
X0015905Y0162310D01*
X0014195Y0162310D01*
X0012614Y0161655D01*
X0011749Y0160790D01*
X0011679Y0160860D01*
X0010443Y0161372D01*
X0006950Y0161372D01*
X0006950Y0164648D01*
X0010443Y0164648D01*
X0011679Y0165159D01*
X0011749Y0165230D01*
X0012614Y0164364D01*
X0014195Y0163710D01*
X0015905Y0163710D01*
X0017486Y0164364D01*
X0018695Y0165574D01*
X0019350Y0167155D01*
X0019350Y0168865D01*
X0018695Y0170446D01*
X0017486Y0171655D01*
X0015905Y0172310D01*
X0014195Y0172310D01*
X0012614Y0171655D01*
X0011749Y0170790D01*
X0011679Y0170860D01*
X0010443Y0171372D01*
X0006950Y0171372D01*
X0006950Y0174648D01*
X0010443Y0174648D01*
X0011679Y0175159D01*
X0011749Y0175230D01*
X0012614Y0174364D01*
X0014195Y0173710D01*
X0015905Y0173710D01*
X0017486Y0174364D01*
X0018695Y0175574D01*
X0019350Y0177155D01*
X0019350Y0178865D01*
X0018695Y0180446D01*
X0017486Y0181655D01*
X0015905Y0182310D01*
X0014195Y0182310D01*
X0012614Y0181655D01*
X0011749Y0180790D01*
X0011679Y0180860D01*
X0010443Y0181372D01*
X0006950Y0181372D01*
X0006950Y0184648D01*
X0010443Y0184648D01*
X0011679Y0185159D01*
X0011749Y0185230D01*
X0012614Y0184364D01*
X0014195Y0183710D01*
X0015905Y0183710D01*
X0017486Y0184364D01*
X0018695Y0185574D01*
X0019350Y0187155D01*
X0019350Y0188865D01*
X0018695Y0190446D01*
X0017486Y0191655D01*
X0015905Y0192310D01*
X0014195Y0192310D01*
X0012614Y0191655D01*
X0011749Y0190790D01*
X0011679Y0190860D01*
X0010443Y0191372D01*
X0006950Y0191372D01*
X0006950Y0194248D01*
X0010145Y0194248D01*
X0010872Y0194392D01*
X0011556Y0194676D01*
X0011665Y0194748D01*
X0011988Y0194425D01*
X0012587Y0193990D01*
X0013246Y0193654D01*
X0013949Y0193426D01*
X0014650Y0193315D01*
X0014650Y0197610D01*
X0013531Y0197610D01*
X0013533Y0197622D01*
X0006950Y0197622D01*
X0006950Y0198397D01*
X0013533Y0198397D01*
X0013531Y0198410D01*
X0014650Y0198410D01*
X0014650Y0202705D01*
X0013949Y0202594D01*
X0013246Y0202365D01*
X0012587Y0202030D01*
X0011988Y0201595D01*
X0011665Y0201271D01*
X0011556Y0201344D01*
X0010872Y0201627D01*
X0010145Y0201772D01*
X0006950Y0201772D01*
X0006950Y0204648D01*
X0010443Y0204648D01*
X0011679Y0205159D01*
X0011749Y0205230D01*
X0012614Y0204364D01*
X0014195Y0203710D01*
X0015905Y0203710D01*
X0017486Y0204364D01*
X0018695Y0205574D01*
X0019350Y0207155D01*
X0019350Y0208865D01*
X0018695Y0210446D01*
X0017486Y0211655D01*
X0015905Y0212310D01*
X0014195Y0212310D01*
X0012614Y0211655D01*
X0011749Y0210790D01*
X0011679Y0210860D01*
X0010443Y0211372D01*
X0006950Y0211372D01*
X0006950Y0214648D01*
X0010443Y0214648D01*
X0011679Y0215159D01*
X0011749Y0215230D01*
X0012614Y0214364D01*
X0014195Y0213710D01*
X0015905Y0213710D01*
X0017486Y0214364D01*
X0018695Y0215574D01*
X0019124Y0216610D01*
X0039857Y0216610D01*
X0049931Y0213772D01*
X0049748Y0213772D01*
X0049391Y0213677D01*
X0049072Y0213492D01*
X0048812Y0213232D01*
X0048627Y0212912D01*
X0048532Y0212556D01*
X0048532Y0210397D01*
X0051119Y0210397D01*
X0051119Y0209622D01*
X0051894Y0209622D01*
X0051894Y0206248D01*
X0052850Y0206248D01*
X0052850Y0204580D01*
X0052820Y0204284D01*
X0051119Y0204284D01*
X0051119Y0200528D01*
X0050319Y0200528D01*
X0050319Y0199728D01*
X0046957Y0199728D01*
X0046957Y0199177D01*
X0046682Y0199452D01*
X0045623Y0199891D01*
X0044477Y0199891D01*
X0043418Y0199452D01*
X0042743Y0198777D01*
X0042743Y0203298D01*
X0042157Y0203884D01*
X0040781Y0203884D01*
X0040781Y0206846D01*
X0041168Y0207233D01*
X0041168Y0212786D01*
X0040582Y0213372D01*
X0036604Y0213372D01*
X0036019Y0212786D01*
X0036019Y0207233D01*
X0036604Y0206648D01*
X0037981Y0206648D01*
X0037981Y0203884D01*
X0036604Y0203884D01*
X0036019Y0203298D01*
X0036019Y0196958D01*
X0036604Y0196372D01*
X0041157Y0196372D01*
X0041919Y0195610D01*
X0042511Y0195610D01*
X0042608Y0195378D01*
X0043418Y0194567D01*
X0044477Y0194129D01*
X0045623Y0194129D01*
X0046589Y0194529D01*
X0045970Y0193910D01*
X0045150Y0193090D01*
X0045150Y0169590D01*
X0043855Y0168295D01*
X0043623Y0168391D01*
X0042477Y0168391D01*
X0041418Y0167952D01*
X0040608Y0167142D01*
X0040169Y0166083D01*
X0040169Y0164937D01*
X0040608Y0163878D01*
X0041418Y0163067D01*
X0042477Y0162629D01*
X0043623Y0162629D01*
X0044682Y0163067D01*
X0045492Y0163878D01*
X0045931Y0164937D01*
X0045931Y0166083D01*
X0045835Y0166315D01*
X0047950Y0168430D01*
X0047950Y0191930D01*
X0048538Y0192518D01*
X0048538Y0186722D01*
X0049124Y0186136D01*
X0052602Y0186136D01*
X0052108Y0185642D01*
X0051669Y0184583D01*
X0051669Y0183437D01*
X0052108Y0182378D01*
X0052918Y0181567D01*
X0053250Y0181430D01*
X0053250Y0179305D01*
X0050502Y0179305D01*
X0049916Y0178719D01*
X0049916Y0172891D01*
X0050502Y0172305D01*
X0059598Y0172305D01*
X0060184Y0172891D01*
X0060184Y0178719D01*
X0059598Y0179305D01*
X0056850Y0179305D01*
X0056850Y0182235D01*
X0056992Y0182378D01*
X0057431Y0183437D01*
X0057431Y0184583D01*
X0056992Y0185642D01*
X0056850Y0185784D01*
X0056850Y0186136D01*
X0060102Y0186136D01*
X0059608Y0185642D01*
X0059169Y0184583D01*
X0059169Y0183437D01*
X0059608Y0182378D01*
X0060418Y0181567D01*
X0061477Y0181129D01*
X0062623Y0181129D01*
X0063669Y0181562D01*
X0063669Y0181437D01*
X0064108Y0180378D01*
X0064918Y0179567D01*
X0065977Y0179129D01*
X0067123Y0179129D01*
X0068182Y0179567D01*
X0068992Y0180378D01*
X0069431Y0181437D01*
X0069431Y0182583D01*
X0068992Y0183642D01*
X0068182Y0184452D01*
X0067950Y0184548D01*
X0067950Y0188561D01*
X0068713Y0189629D01*
X0069623Y0189629D01*
X0070682Y0190067D01*
X0071492Y0190878D01*
X0071931Y0191937D01*
X0071931Y0193083D01*
X0071492Y0194142D01*
X0070682Y0194952D01*
X0069623Y0195391D01*
X0068477Y0195391D01*
X0067418Y0194952D01*
X0066608Y0194142D01*
X0066169Y0193083D01*
X0066169Y0191937D01*
X0066445Y0191271D01*
X0065478Y0189918D01*
X0065150Y0189590D01*
X0065150Y0189458D01*
X0065074Y0189352D01*
X0065150Y0188894D01*
X0065150Y0184548D01*
X0064931Y0184458D01*
X0064931Y0184583D01*
X0064492Y0185642D01*
X0063682Y0186452D01*
X0063450Y0186548D01*
X0063450Y0193086D01*
X0063537Y0193216D01*
X0063450Y0193648D01*
X0063450Y0194090D01*
X0063340Y0194200D01*
X0063309Y0194353D01*
X0062942Y0194598D01*
X0062630Y0194910D01*
X0062474Y0194910D01*
X0061442Y0195598D01*
X0061130Y0195910D01*
X0060974Y0195910D01*
X0060844Y0195996D01*
X0060411Y0195910D01*
X0057862Y0195910D01*
X0057598Y0196372D01*
X0062157Y0196372D01*
X0062395Y0196610D01*
X0070976Y0196610D01*
X0071405Y0195574D01*
X0072614Y0194364D01*
X0074195Y0193710D01*
X0075905Y0193710D01*
X0077486Y0194364D01*
X0078131Y0195010D01*
X0078782Y0195010D01*
X0079657Y0194648D01*
X0083150Y0194648D01*
X0083150Y0191372D01*
X0079657Y0191372D01*
X0078782Y0191010D01*
X0078131Y0191010D01*
X0077486Y0191655D01*
X0075905Y0192310D01*
X0074195Y0192310D01*
X0072614Y0191655D01*
X0071405Y0190446D01*
X0070750Y0188865D01*
X0070750Y0187155D01*
X0071405Y0185574D01*
X0072614Y0184364D01*
X0074195Y0183710D01*
X0075905Y0183710D01*
X0077486Y0184364D01*
X0078131Y0185010D01*
X0078782Y0185010D01*
X0079657Y0184648D01*
X0083150Y0184648D01*
X0083150Y0181372D01*
X0079657Y0181372D01*
X0078782Y0181010D01*
X0078131Y0181010D01*
X0077486Y0181655D01*
X0075905Y0182310D01*
X0074195Y0182310D01*
X0072614Y0181655D01*
X0071405Y0180446D01*
X0070750Y0178865D01*
X0070750Y0177155D01*
X0071405Y0175574D01*
X0072614Y0174364D01*
X0074195Y0173710D01*
X0075905Y0173710D01*
X0077486Y0174364D01*
X0078131Y0175010D01*
X0078782Y0175010D01*
X0079657Y0174648D01*
X0083150Y0174648D01*
X0083150Y0171372D01*
X0079657Y0171372D01*
X0078782Y0171010D01*
X0078131Y0171010D01*
X0077486Y0171655D01*
X0075905Y0172310D01*
X0074195Y0172310D01*
X0072614Y0171655D01*
X0071405Y0170446D01*
X0070750Y0168865D01*
X0070750Y0167155D01*
X0071405Y0165574D01*
X0072614Y0164364D01*
X0074195Y0163710D01*
X0075905Y0163710D01*
X0077486Y0164364D01*
X0078131Y0165010D01*
X0078782Y0165010D01*
X0079657Y0164648D01*
X0083150Y0164648D01*
X0083150Y0161372D01*
X0079657Y0161372D01*
X0078782Y0161010D01*
X0078131Y0161010D01*
X0077486Y0161655D01*
X0075905Y0162310D01*
X0074195Y0162310D01*
X0072614Y0161655D01*
X0071405Y0160446D01*
X0070750Y0158865D01*
X0070750Y0158637D01*
X0064798Y0156895D01*
X0064367Y0156863D01*
X0064259Y0156737D01*
X0064100Y0156691D01*
X0063893Y0156311D01*
X0059640Y0151372D01*
X0056604Y0151372D01*
X0056019Y0150786D01*
X0056019Y0145233D01*
X0056604Y0144648D01*
X0057981Y0144648D01*
X0057981Y0141884D01*
X0056604Y0141884D01*
X0056019Y0141298D01*
X0056019Y0134958D01*
X0056567Y0134410D01*
X0054099Y0134410D01*
X0054202Y0134512D01*
X0054386Y0134832D01*
X0054481Y0135188D01*
X0054481Y0137728D01*
X0051119Y0137728D01*
X0051119Y0138528D01*
X0050319Y0138528D01*
X0050319Y0137728D01*
X0046957Y0137728D01*
X0046957Y0135583D01*
X0046450Y0136090D01*
X0046450Y0138590D01*
X0045630Y0139410D01*
X0042743Y0139410D01*
X0042743Y0141298D01*
X0042157Y0141884D01*
X0039993Y0141884D01*
X0039993Y0144648D01*
X0040582Y0144648D01*
X0041168Y0145233D01*
X0041168Y0147148D01*
X0041450Y0147430D01*
X0041450Y0148590D01*
X0041168Y0148872D01*
X0041168Y0150786D01*
X0040582Y0151372D01*
X0036604Y0151372D01*
X0036019Y0150786D01*
X0036019Y0145233D01*
X0036604Y0144648D01*
X0037193Y0144648D01*
X0037193Y0141884D01*
X0036604Y0141884D01*
X0036019Y0141298D01*
X0036019Y0134958D01*
X0036567Y0134410D01*
X0034099Y0134410D01*
X0034202Y0134512D01*
X0034386Y0134832D01*
X0034481Y0135188D01*
X0034481Y0137728D01*
X0031119Y0137728D01*
X0031119Y0138528D01*
X0030319Y0138528D01*
X0030319Y0137728D01*
X0026957Y0137728D01*
X0026957Y0135188D01*
X0026961Y0135173D01*
X0026682Y0135452D01*
X0025623Y0135891D01*
X0024477Y0135891D01*
X0023418Y0135452D01*
X0022608Y0134642D01*
X0022169Y0133583D01*
X0022169Y0132437D01*
X0022608Y0131378D01*
X0023418Y0130567D01*
X0024477Y0130129D01*
X0025623Y0130129D01*
X0026682Y0130567D01*
X0027492Y0131378D01*
X0027547Y0131510D01*
X0028171Y0131510D01*
X0028271Y0131610D01*
X0029086Y0131610D01*
X0028538Y0131062D01*
X0028538Y0124722D01*
X0028669Y0124591D01*
X0027777Y0124591D01*
X0026718Y0124152D01*
X0025908Y0123342D01*
X0025469Y0122283D01*
X0025469Y0121137D01*
X0025908Y0120078D01*
X0026718Y0119267D01*
X0027777Y0118829D01*
X0028923Y0118829D01*
X0029982Y0119267D01*
X0030792Y0120078D01*
X0030952Y0120463D01*
X0032013Y0120708D01*
X0032091Y0120668D01*
X0032729Y0120873D01*
X0033250Y0120993D01*
X0033250Y0119305D01*
X0030502Y0119305D01*
X0029916Y0118719D01*
X0029916Y0112891D01*
X0030502Y0112305D01*
X0039598Y0112305D01*
X0040184Y0112891D01*
X0040184Y0118719D01*
X0039598Y0119305D01*
X0036850Y0119305D01*
X0036850Y0123075D01*
X0036992Y0123351D01*
X0036850Y0123792D01*
X0036850Y0124136D01*
X0040976Y0124136D01*
X0041562Y0124722D01*
X0041562Y0131062D01*
X0041014Y0131610D01*
X0041970Y0131610D01*
X0043650Y0129930D01*
X0043650Y0125548D01*
X0043418Y0125452D01*
X0042608Y0124642D01*
X0042169Y0123583D01*
X0042169Y0122437D01*
X0042608Y0121378D01*
X0043418Y0120567D01*
X0044477Y0120129D01*
X0045623Y0120129D01*
X0046682Y0120567D01*
X0047492Y0121378D01*
X0047931Y0122437D01*
X0047931Y0123583D01*
X0047492Y0124642D01*
X0046682Y0125452D01*
X0046450Y0125548D01*
X0046450Y0131090D01*
X0045630Y0131910D01*
X0043130Y0134410D01*
X0042195Y0134410D01*
X0042743Y0134958D01*
X0042743Y0136610D01*
X0043650Y0136610D01*
X0043650Y0134930D01*
X0044470Y0134110D01*
X0046970Y0131610D01*
X0049086Y0131610D01*
X0048538Y0131062D01*
X0048538Y0124722D01*
X0049124Y0124136D01*
X0053250Y0124136D01*
X0053250Y0119305D01*
X0050502Y0119305D01*
X0049916Y0118719D01*
X0049916Y0117310D01*
X0046804Y0117310D01*
X0045750Y0116255D01*
X0041304Y0111810D01*
X0033627Y0111810D01*
X0032960Y0111867D01*
X0032893Y0111810D01*
X0032804Y0111810D01*
X0032331Y0111337D01*
X0025893Y0105910D01*
X0025804Y0105910D01*
X0025331Y0105437D01*
X0024820Y0105006D01*
X0024812Y0104918D01*
X0024750Y0104855D01*
X0024750Y0104186D01*
X0024693Y0103520D01*
X0024750Y0103452D01*
X0024750Y0041684D01*
X0023982Y0042452D01*
X0022923Y0042891D01*
X0021777Y0042891D01*
X0020773Y0042475D01*
X0018950Y0043119D01*
X0018950Y0047424D01*
X0018364Y0048010D01*
X0018365Y0048011D01*
X0019090Y0047802D01*
X0019308Y0047278D01*
X0020118Y0046467D01*
X0021177Y0046029D01*
X0022323Y0046029D01*
X0023382Y0046467D01*
X0024192Y0047278D01*
X0024631Y0048337D01*
X0024631Y0049483D01*
X0024192Y0050542D01*
X0023382Y0051352D01*
X0022323Y0051791D01*
X0021177Y0051791D01*
X0020118Y0051352D01*
X0020040Y0051275D01*
X0018950Y0051589D01*
X0018950Y0057424D01*
X0018603Y0057771D01*
X0018810Y0057890D01*
X0019070Y0058150D01*
X0019255Y0058469D01*
X0019350Y0058826D01*
X0019350Y0062610D01*
X0010350Y0062610D01*
X0010350Y0063410D01*
X0009550Y0063410D01*
X0009550Y0068410D01*
X0006950Y0068410D01*
X0006950Y0074648D01*
X0010443Y0074648D01*
X0011679Y0075159D01*
X0011749Y0075230D01*
X0012614Y0074364D01*
X0014195Y0073710D01*
X0015905Y0073710D01*
X0017486Y0074364D01*
X0018695Y0075574D01*
X0019350Y0077155D01*
X0019350Y0078865D01*
X0018695Y0080446D01*
X0017486Y0081655D01*
X0015905Y0082310D01*
X0014195Y0082310D01*
X0012614Y0081655D01*
X0011749Y0080790D01*
X0011679Y0080860D01*
X0010443Y0081372D01*
X0006950Y0081372D01*
X0006950Y0084248D01*
X0010145Y0084248D01*
X0010872Y0084392D01*
X0011556Y0084676D01*
X0011665Y0084748D01*
X0011988Y0084425D01*
X0012587Y0083990D01*
X0013246Y0083654D01*
X0013949Y0083426D01*
X0014650Y0083315D01*
X0014650Y0087610D01*
X0013531Y0087610D01*
X0013533Y0087622D01*
X0006950Y0087622D01*
X0006950Y0088397D01*
X0013533Y0088397D01*
X0013531Y0088410D01*
X0014650Y0088410D01*
X0014650Y0092705D01*
X0013949Y0092594D01*
X0013246Y0092365D01*
X0012587Y0092030D01*
X0011988Y0091595D01*
X0011665Y0091271D01*
X0011556Y0091344D01*
X0010872Y0091627D01*
X0010145Y0091772D01*
X0006950Y0091772D01*
X0006950Y0094648D01*
X0010443Y0094648D01*
X0011679Y0095159D01*
X0011749Y0095230D01*
X0012614Y0094364D01*
X0014195Y0093710D01*
X0015905Y0093710D01*
X0017486Y0094364D01*
X0018695Y0095574D01*
X0019350Y0097155D01*
X0019350Y0098865D01*
X0018695Y0100446D01*
X0017486Y0101655D01*
X0015905Y0102310D01*
X0014195Y0102310D01*
X0012614Y0101655D01*
X0011749Y0100790D01*
X0011679Y0100860D01*
X0010443Y0101372D01*
X0006950Y0101372D01*
X0006950Y0104648D01*
X0010443Y0104648D01*
X0011679Y0105159D01*
X0011749Y0105230D01*
X0012614Y0104364D01*
X0014195Y0103710D01*
X0015905Y0103710D01*
X0017486Y0104364D01*
X0018695Y0105574D01*
X0019350Y0107155D01*
X0019312Y0107062D02*
X0027260Y0107062D01*
X0026313Y0106264D02*
X0018981Y0106264D01*
X0018587Y0105465D02*
X0025360Y0105465D01*
X0024750Y0104667D02*
X0017788Y0104667D01*
X0017668Y0101473D02*
X0024750Y0101473D01*
X0024750Y0102271D02*
X0015998Y0102271D01*
X0016288Y0103868D02*
X0024723Y0103868D01*
X0024750Y0103070D02*
X0006950Y0103070D01*
X0006950Y0103868D02*
X0013812Y0103868D01*
X0014102Y0102271D02*
X0006950Y0102271D01*
X0006950Y0101473D02*
X0012432Y0101473D01*
X0012312Y0104667D02*
X0010490Y0104667D01*
X0011209Y0111055D02*
X0012014Y0111055D01*
X0013093Y0111854D02*
X0006950Y0111854D01*
X0006950Y0112652D02*
X0030155Y0112652D01*
X0029916Y0113451D02*
X0006950Y0113451D01*
X0006950Y0114249D02*
X0012893Y0114249D01*
X0011931Y0115048D02*
X0011409Y0115048D01*
X0012395Y0121436D02*
X0006950Y0121436D01*
X0006950Y0122234D02*
X0014012Y0122234D01*
X0013902Y0123831D02*
X0006950Y0123831D01*
X0006950Y0123033D02*
X0025779Y0123033D01*
X0025469Y0122234D02*
X0016088Y0122234D01*
X0016198Y0123831D02*
X0026397Y0123831D01*
X0025469Y0121436D02*
X0017705Y0121436D01*
X0018504Y0120637D02*
X0025676Y0120637D01*
X0026147Y0119839D02*
X0018947Y0119839D01*
X0019278Y0119040D02*
X0027267Y0119040D01*
X0029433Y0119040D02*
X0030237Y0119040D01*
X0030553Y0119839D02*
X0033250Y0119839D01*
X0033250Y0120637D02*
X0031707Y0120637D01*
X0029916Y0118242D02*
X0019350Y0118242D01*
X0019350Y0117443D02*
X0029916Y0117443D01*
X0029916Y0116645D02*
X0019139Y0116645D01*
X0018808Y0115846D02*
X0029916Y0115846D01*
X0029916Y0115048D02*
X0018169Y0115048D01*
X0017207Y0114249D02*
X0029916Y0114249D01*
X0031997Y0111055D02*
X0018086Y0111055D01*
X0018774Y0110257D02*
X0031050Y0110257D01*
X0030102Y0109458D02*
X0019104Y0109458D01*
X0019350Y0108659D02*
X0029155Y0108659D01*
X0032944Y0111854D02*
X0017007Y0111854D01*
X0018467Y0100674D02*
X0024750Y0100674D01*
X0024750Y0099876D02*
X0018931Y0099876D01*
X0019262Y0099077D02*
X0024750Y0099077D01*
X0024750Y0098279D02*
X0019350Y0098279D01*
X0019350Y0097480D02*
X0024750Y0097480D01*
X0024750Y0096682D02*
X0019154Y0096682D01*
X0018823Y0095883D02*
X0024750Y0095883D01*
X0024750Y0095085D02*
X0018206Y0095085D01*
X0017297Y0094286D02*
X0024750Y0094286D01*
X0024750Y0093488D02*
X0006950Y0093488D01*
X0006950Y0094286D02*
X0012803Y0094286D01*
X0011894Y0095085D02*
X0011499Y0095085D01*
X0012395Y0091891D02*
X0006950Y0091891D01*
X0006950Y0092689D02*
X0014550Y0092689D01*
X0014650Y0092689D02*
X0015450Y0092689D01*
X0015450Y0092705D02*
X0015450Y0088410D01*
X0014650Y0088410D01*
X0014650Y0087610D01*
X0015450Y0087610D01*
X0015450Y0088410D01*
X0019745Y0088410D01*
X0019634Y0089110D01*
X0019406Y0089814D01*
X0019070Y0090473D01*
X0018635Y0091072D01*
X0018112Y0091595D01*
X0017513Y0092030D01*
X0016854Y0092365D01*
X0016151Y0092594D01*
X0015450Y0092705D01*
X0015550Y0092689D02*
X0024750Y0092689D01*
X0024750Y0091891D02*
X0017705Y0091891D01*
X0018614Y0091092D02*
X0024750Y0091092D01*
X0024750Y0090294D02*
X0019161Y0090294D01*
X0019509Y0089495D02*
X0024750Y0089495D01*
X0024750Y0088697D02*
X0019700Y0088697D01*
X0019745Y0087610D02*
X0015450Y0087610D01*
X0015450Y0083315D01*
X0016151Y0083426D01*
X0016854Y0083654D01*
X0017513Y0083990D01*
X0018112Y0084425D01*
X0018635Y0084948D01*
X0019070Y0085547D01*
X0019406Y0086206D01*
X0019634Y0086909D01*
X0019745Y0087610D01*
X0019664Y0087100D02*
X0024750Y0087100D01*
X0024750Y0087898D02*
X0015450Y0087898D01*
X0015450Y0087100D02*
X0014650Y0087100D01*
X0014650Y0087898D02*
X0006950Y0087898D01*
X0006950Y0083906D02*
X0012752Y0083906D01*
X0014192Y0082309D02*
X0006950Y0082309D01*
X0006950Y0083107D02*
X0024750Y0083107D01*
X0024750Y0082309D02*
X0015908Y0082309D01*
X0015450Y0083906D02*
X0014650Y0083906D01*
X0014650Y0084704D02*
X0015450Y0084704D01*
X0015450Y0085503D02*
X0014650Y0085503D01*
X0014650Y0086301D02*
X0015450Y0086301D01*
X0015450Y0088697D02*
X0014650Y0088697D01*
X0014650Y0089495D02*
X0015450Y0089495D01*
X0015450Y0090294D02*
X0014650Y0090294D01*
X0014650Y0091092D02*
X0015450Y0091092D01*
X0015450Y0091891D02*
X0014650Y0091891D01*
X0011709Y0084704D02*
X0011599Y0084704D01*
X0012469Y0081510D02*
X0006950Y0081510D01*
X0006950Y0074323D02*
X0012713Y0074323D01*
X0011857Y0075122D02*
X0011588Y0075122D01*
X0010350Y0068410D02*
X0010350Y0063410D01*
X0019350Y0063410D01*
X0019350Y0067194D01*
X0019255Y0067550D01*
X0019070Y0067869D01*
X0018810Y0068130D01*
X0018490Y0068314D01*
X0018134Y0068410D01*
X0010350Y0068410D01*
X0010350Y0067935D02*
X0009550Y0067935D01*
X0009550Y0067137D02*
X0010350Y0067137D01*
X0010350Y0066338D02*
X0009550Y0066338D01*
X0009550Y0065540D02*
X0010350Y0065540D01*
X0010350Y0064741D02*
X0009550Y0064741D01*
X0009550Y0063943D02*
X0010350Y0063943D01*
X0010350Y0063144D02*
X0024750Y0063144D01*
X0024750Y0062346D02*
X0019350Y0062346D01*
X0019350Y0061547D02*
X0024750Y0061547D01*
X0024750Y0060749D02*
X0019350Y0060749D01*
X0019350Y0059950D02*
X0024750Y0059950D01*
X0024750Y0059152D02*
X0019350Y0059152D01*
X0019187Y0058353D02*
X0024750Y0058353D01*
X0024750Y0057555D02*
X0018819Y0057555D01*
X0018950Y0056756D02*
X0024750Y0056756D01*
X0024750Y0055958D02*
X0018950Y0055958D01*
X0018950Y0055159D02*
X0024750Y0055159D01*
X0024750Y0054361D02*
X0018950Y0054361D01*
X0018950Y0053562D02*
X0024750Y0053562D01*
X0024750Y0052764D02*
X0018950Y0052764D01*
X0018950Y0051965D02*
X0024750Y0051965D01*
X0024750Y0051167D02*
X0023568Y0051167D01*
X0024264Y0050368D02*
X0024750Y0050368D01*
X0024750Y0049570D02*
X0024595Y0049570D01*
X0024631Y0048771D02*
X0024750Y0048771D01*
X0024750Y0047973D02*
X0024480Y0047973D01*
X0024750Y0047174D02*
X0024089Y0047174D01*
X0024750Y0046376D02*
X0023160Y0046376D01*
X0024750Y0045577D02*
X0018950Y0045577D01*
X0018950Y0044779D02*
X0024750Y0044779D01*
X0024750Y0043980D02*
X0018950Y0043980D01*
X0018950Y0043182D02*
X0024750Y0043182D01*
X0024750Y0042383D02*
X0024051Y0042383D01*
X0025838Y0034398D02*
X0067194Y0034398D01*
X0069589Y0033599D02*
X0024613Y0033599D01*
X0023387Y0032801D02*
X0071985Y0032801D01*
X0072350Y0032002D02*
X0022162Y0032002D01*
X0020976Y0031204D02*
X0072350Y0031204D01*
X0072350Y0030405D02*
X0018950Y0030405D01*
X0018950Y0046376D02*
X0020340Y0046376D01*
X0019411Y0047174D02*
X0018950Y0047174D01*
X0018498Y0047973D02*
X0018401Y0047973D01*
X0018364Y0048010D02*
X0006950Y0048010D01*
X0018364Y0048010D01*
X0019350Y0063943D02*
X0024750Y0063943D01*
X0024750Y0064741D02*
X0019350Y0064741D01*
X0019350Y0065540D02*
X0024750Y0065540D01*
X0024750Y0066338D02*
X0019350Y0066338D01*
X0019350Y0067137D02*
X0024750Y0067137D01*
X0024750Y0067935D02*
X0019004Y0067935D01*
X0017387Y0074323D02*
X0024750Y0074323D01*
X0024750Y0073525D02*
X0006950Y0073525D01*
X0006950Y0072726D02*
X0024750Y0072726D01*
X0024750Y0071928D02*
X0006950Y0071928D01*
X0006950Y0071129D02*
X0024750Y0071129D01*
X0024750Y0070331D02*
X0006950Y0070331D01*
X0006950Y0069532D02*
X0024750Y0069532D01*
X0024750Y0068734D02*
X0006950Y0068734D01*
X0006950Y0048010D02*
X0006950Y0048010D01*
X0018243Y0075122D02*
X0024750Y0075122D01*
X0024750Y0075921D02*
X0018839Y0075921D01*
X0019170Y0076719D02*
X0024750Y0076719D01*
X0024750Y0077518D02*
X0019350Y0077518D01*
X0019350Y0078316D02*
X0024750Y0078316D01*
X0024750Y0079115D02*
X0019247Y0079115D01*
X0018916Y0079913D02*
X0024750Y0079913D01*
X0024750Y0080712D02*
X0018429Y0080712D01*
X0017631Y0081510D02*
X0024750Y0081510D01*
X0024750Y0083906D02*
X0017348Y0083906D01*
X0018391Y0084704D02*
X0024750Y0084704D01*
X0024750Y0085503D02*
X0019038Y0085503D01*
X0019437Y0086301D02*
X0024750Y0086301D01*
X0032352Y0077212D02*
X0032152Y0071762D01*
X0032352Y0077212D02*
X0043550Y0094010D01*
X0053050Y0094010D01*
X0049916Y0097480D02*
X0040184Y0097480D01*
X0040184Y0098279D02*
X0042707Y0098279D01*
X0042237Y0102271D02*
X0040184Y0102271D01*
X0040184Y0103070D02*
X0043202Y0103070D01*
X0043245Y0108659D02*
X0070394Y0108659D01*
X0070579Y0109458D02*
X0044044Y0109458D01*
X0044842Y0110257D02*
X0070920Y0110257D01*
X0071453Y0111055D02*
X0045641Y0111055D01*
X0046439Y0111854D02*
X0072344Y0111854D01*
X0072893Y0114249D02*
X0060184Y0114249D01*
X0060184Y0113451D02*
X0083150Y0113451D01*
X0083150Y0114249D02*
X0077207Y0114249D01*
X0077756Y0111854D02*
X0083150Y0111854D01*
X0083150Y0112652D02*
X0075785Y0112652D01*
X0075450Y0112652D02*
X0074650Y0112652D01*
X0074315Y0112652D02*
X0059945Y0112652D01*
X0060184Y0115048D02*
X0071931Y0115048D01*
X0071292Y0115846D02*
X0060184Y0115846D01*
X0060184Y0116645D02*
X0070961Y0116645D01*
X0070750Y0117443D02*
X0060184Y0117443D01*
X0060184Y0118242D02*
X0070750Y0118242D01*
X0070822Y0119040D02*
X0059863Y0119040D01*
X0061470Y0124630D02*
X0072349Y0124630D01*
X0071550Y0125428D02*
X0061562Y0125428D01*
X0061562Y0126227D02*
X0071134Y0126227D01*
X0070804Y0127025D02*
X0061562Y0127025D01*
X0061562Y0127824D02*
X0070750Y0127824D01*
X0070750Y0128622D02*
X0061562Y0128622D01*
X0061562Y0129421D02*
X0070980Y0129421D01*
X0071311Y0130219D02*
X0061562Y0130219D01*
X0061562Y0131018D02*
X0071977Y0131018D01*
X0073003Y0131816D02*
X0063336Y0131816D01*
X0064135Y0132615D02*
X0083150Y0132615D01*
X0083150Y0133413D02*
X0064933Y0133413D01*
X0065732Y0134212D02*
X0072983Y0134212D01*
X0071968Y0135010D02*
X0066450Y0135010D01*
X0066450Y0135809D02*
X0071307Y0135809D01*
X0070977Y0136607D02*
X0066450Y0136607D01*
X0066450Y0137406D02*
X0070750Y0137406D01*
X0070750Y0138204D02*
X0066450Y0138204D01*
X0066450Y0139003D02*
X0070807Y0139003D01*
X0071138Y0139801D02*
X0066450Y0139801D01*
X0066450Y0140600D02*
X0071559Y0140600D01*
X0072357Y0141398D02*
X0066450Y0141398D01*
X0066450Y0142197D02*
X0073922Y0142197D01*
X0073992Y0143794D02*
X0067814Y0143794D01*
X0067016Y0142995D02*
X0083150Y0142995D01*
X0083150Y0142197D02*
X0076178Y0142197D01*
X0076108Y0143794D02*
X0083150Y0143794D01*
X0083150Y0144592D02*
X0077714Y0144592D01*
X0077742Y0141398D02*
X0083150Y0141398D01*
X0083150Y0134212D02*
X0077117Y0134212D01*
X0077097Y0131816D02*
X0083150Y0131816D01*
X0083150Y0124630D02*
X0077751Y0124630D01*
X0076198Y0123831D02*
X0083150Y0123831D01*
X0083150Y0123033D02*
X0056850Y0123033D01*
X0056850Y0123831D02*
X0073902Y0123831D01*
X0074012Y0122234D02*
X0056850Y0122234D01*
X0056850Y0121436D02*
X0072395Y0121436D01*
X0071596Y0120637D02*
X0056850Y0120637D01*
X0056850Y0119839D02*
X0071153Y0119839D01*
X0074650Y0111854D02*
X0075450Y0111854D01*
X0075450Y0111055D02*
X0074650Y0111055D01*
X0074650Y0110257D02*
X0075450Y0110257D01*
X0075450Y0109458D02*
X0074650Y0109458D01*
X0074650Y0108659D02*
X0075450Y0108659D01*
X0075050Y0108010D02*
X0047550Y0108010D01*
X0047238Y0112652D02*
X0050155Y0112652D01*
X0049916Y0113451D02*
X0048036Y0113451D01*
X0049916Y0117443D02*
X0040184Y0117443D01*
X0040184Y0116645D02*
X0046139Y0116645D01*
X0045750Y0116255D02*
X0045750Y0116255D01*
X0045341Y0115846D02*
X0040184Y0115846D01*
X0040184Y0115048D02*
X0044542Y0115048D01*
X0043744Y0114249D02*
X0040184Y0114249D01*
X0040184Y0113451D02*
X0042945Y0113451D01*
X0042147Y0112652D02*
X0039945Y0112652D01*
X0041348Y0111854D02*
X0033114Y0111854D01*
X0036850Y0119839D02*
X0053250Y0119839D01*
X0053250Y0120637D02*
X0046752Y0120637D01*
X0047516Y0121436D02*
X0053250Y0121436D01*
X0053250Y0122234D02*
X0047847Y0122234D01*
X0047931Y0123033D02*
X0053250Y0123033D01*
X0053250Y0123831D02*
X0047828Y0123831D01*
X0047498Y0124630D02*
X0048630Y0124630D01*
X0048538Y0125428D02*
X0046706Y0125428D01*
X0046450Y0126227D02*
X0048538Y0126227D01*
X0048538Y0127025D02*
X0046450Y0127025D01*
X0046450Y0127824D02*
X0048538Y0127824D01*
X0048538Y0128622D02*
X0046450Y0128622D01*
X0046450Y0129421D02*
X0048538Y0129421D01*
X0048538Y0130219D02*
X0046450Y0130219D01*
X0046450Y0131018D02*
X0048538Y0131018D01*
X0047550Y0133010D02*
X0045050Y0135510D01*
X0045050Y0138010D01*
X0039499Y0138010D01*
X0039381Y0138128D01*
X0038593Y0138915D01*
X0038593Y0148010D01*
X0040050Y0148010D01*
X0041450Y0147787D02*
X0051119Y0147787D01*
X0051119Y0147622D02*
X0048532Y0147622D01*
X0048532Y0145463D01*
X0048627Y0145107D01*
X0048812Y0144788D01*
X0049072Y0144527D01*
X0049391Y0144343D01*
X0049748Y0144248D01*
X0051119Y0144248D01*
X0051119Y0147622D01*
X0051894Y0147622D01*
X0051894Y0144248D01*
X0053266Y0144248D01*
X0053622Y0144343D01*
X0053941Y0144527D01*
X0054202Y0144788D01*
X0054386Y0145107D01*
X0054481Y0145463D01*
X0054481Y0147622D01*
X0051894Y0147622D01*
X0051894Y0148397D01*
X0054481Y0148397D01*
X0054481Y0150556D01*
X0054386Y0150912D01*
X0054202Y0151232D01*
X0053941Y0151492D01*
X0053622Y0151677D01*
X0053266Y0151772D01*
X0051894Y0151772D01*
X0051894Y0148397D01*
X0051119Y0148397D01*
X0051119Y0147622D01*
X0051119Y0146988D02*
X0051894Y0146988D01*
X0051894Y0146190D02*
X0051119Y0146190D01*
X0051119Y0145391D02*
X0051894Y0145391D01*
X0051894Y0144592D02*
X0051119Y0144592D01*
X0051119Y0142284D02*
X0051119Y0138528D01*
X0054481Y0138528D01*
X0054481Y0141068D01*
X0054386Y0141424D01*
X0054202Y0141743D01*
X0053941Y0142004D01*
X0053622Y0142188D01*
X0053266Y0142284D01*
X0051119Y0142284D01*
X0051119Y0142197D02*
X0050319Y0142197D01*
X0050319Y0142284D02*
X0048173Y0142284D01*
X0047817Y0142188D01*
X0047497Y0142004D01*
X0047237Y0141743D01*
X0047052Y0141424D01*
X0046957Y0141068D01*
X0046957Y0138528D01*
X0050319Y0138528D01*
X0050319Y0142284D01*
X0050319Y0141398D02*
X0051119Y0141398D01*
X0051119Y0140600D02*
X0050319Y0140600D01*
X0050319Y0139801D02*
X0051119Y0139801D01*
X0051119Y0139003D02*
X0050319Y0139003D01*
X0050319Y0138204D02*
X0046450Y0138204D01*
X0046450Y0137406D02*
X0046957Y0137406D01*
X0046957Y0136607D02*
X0046450Y0136607D01*
X0046731Y0135809D02*
X0046957Y0135809D01*
X0047550Y0133010D02*
X0062550Y0133010D01*
X0065050Y0135510D01*
X0065050Y0143010D01*
X0067550Y0145510D01*
X0072550Y0145510D01*
X0075050Y0148010D01*
X0075050Y0158010D02*
X0073593Y0158010D01*
X0065050Y0155510D01*
X0058593Y0148010D01*
X0059381Y0147222D01*
X0059381Y0138128D01*
X0057981Y0142197D02*
X0053590Y0142197D01*
X0054393Y0141398D02*
X0056119Y0141398D01*
X0056019Y0140600D02*
X0054481Y0140600D01*
X0054481Y0139801D02*
X0056019Y0139801D01*
X0056019Y0139003D02*
X0054481Y0139003D01*
X0054481Y0137406D02*
X0056019Y0137406D01*
X0056019Y0138204D02*
X0051119Y0138204D01*
X0050719Y0138128D02*
X0045837Y0143010D01*
X0045050Y0143010D01*
X0046037Y0139003D02*
X0046957Y0139003D01*
X0046957Y0139801D02*
X0042743Y0139801D01*
X0042743Y0140600D02*
X0046957Y0140600D01*
X0047046Y0141398D02*
X0042643Y0141398D01*
X0041168Y0145391D02*
X0048551Y0145391D01*
X0048532Y0146190D02*
X0041168Y0146190D01*
X0041168Y0146988D02*
X0048532Y0146988D01*
X0048532Y0148397D02*
X0051119Y0148397D01*
X0051119Y0151772D01*
X0049748Y0151772D01*
X0049391Y0151677D01*
X0049072Y0151492D01*
X0048812Y0151232D01*
X0048627Y0150912D01*
X0048532Y0150556D01*
X0048532Y0148397D01*
X0048532Y0148585D02*
X0041450Y0148585D01*
X0041168Y0149384D02*
X0048532Y0149384D01*
X0048532Y0150182D02*
X0041168Y0150182D01*
X0040974Y0150981D02*
X0048667Y0150981D01*
X0046682Y0155567D02*
X0047492Y0156378D01*
X0047931Y0157437D01*
X0047931Y0158583D01*
X0047920Y0158610D01*
X0049916Y0158610D01*
X0049916Y0157300D01*
X0050502Y0156715D01*
X0059598Y0156715D01*
X0060184Y0157300D01*
X0060184Y0163129D01*
X0059598Y0163715D01*
X0050502Y0163715D01*
X0049916Y0163129D01*
X0049916Y0161410D01*
X0040184Y0161410D01*
X0040184Y0163129D01*
X0039598Y0163715D01*
X0030502Y0163715D01*
X0029916Y0163129D01*
X0029916Y0157300D01*
X0030502Y0156715D01*
X0039598Y0156715D01*
X0040184Y0157300D01*
X0040184Y0158610D01*
X0042180Y0158610D01*
X0042169Y0158583D01*
X0042169Y0157437D01*
X0042608Y0156378D01*
X0043418Y0155567D01*
X0044477Y0155129D01*
X0045623Y0155129D01*
X0046682Y0155567D01*
X0046886Y0155772D02*
X0063428Y0155772D01*
X0064034Y0156570D02*
X0047572Y0156570D01*
X0047903Y0157369D02*
X0049916Y0157369D01*
X0049916Y0158167D02*
X0047931Y0158167D01*
X0045550Y0160010D02*
X0045050Y0159510D01*
X0044550Y0160010D01*
X0035255Y0160010D01*
X0035050Y0160215D01*
X0033266Y0151772D02*
X0031894Y0151772D01*
X0031894Y0148397D01*
X0034481Y0148397D01*
X0034481Y0150556D01*
X0034386Y0150912D01*
X0034202Y0151232D01*
X0033941Y0151492D01*
X0033622Y0151677D01*
X0033266Y0151772D01*
X0034347Y0150981D02*
X0036213Y0150981D01*
X0036019Y0150182D02*
X0034481Y0150182D01*
X0034481Y0149384D02*
X0036019Y0149384D01*
X0036019Y0148585D02*
X0034481Y0148585D01*
X0034481Y0147622D02*
X0031894Y0147622D01*
X0031894Y0144248D01*
X0033266Y0144248D01*
X0033622Y0144343D01*
X0033941Y0144527D01*
X0034202Y0144788D01*
X0034386Y0145107D01*
X0034481Y0145463D01*
X0034481Y0147622D01*
X0034481Y0146988D02*
X0036019Y0146988D01*
X0036019Y0146190D02*
X0034481Y0146190D01*
X0034462Y0145391D02*
X0036019Y0145391D01*
X0036019Y0147787D02*
X0031894Y0147787D01*
X0031894Y0147622D02*
X0031894Y0148397D01*
X0031119Y0148397D01*
X0031119Y0147622D01*
X0031894Y0147622D01*
X0031894Y0146988D02*
X0031119Y0146988D01*
X0031119Y0147622D02*
X0031119Y0144248D01*
X0029748Y0144248D01*
X0029391Y0144343D01*
X0029072Y0144527D01*
X0028812Y0144788D01*
X0028627Y0145107D01*
X0028532Y0145463D01*
X0028532Y0147622D01*
X0031119Y0147622D01*
X0031119Y0147787D02*
X0019350Y0147787D01*
X0019350Y0148585D02*
X0028532Y0148585D01*
X0028532Y0148397D02*
X0031119Y0148397D01*
X0031119Y0151772D01*
X0029748Y0151772D01*
X0029391Y0151677D01*
X0029072Y0151492D01*
X0028812Y0151232D01*
X0028627Y0150912D01*
X0028532Y0150556D01*
X0028532Y0148397D01*
X0028532Y0149384D02*
X0019135Y0149384D01*
X0018805Y0150182D02*
X0028532Y0150182D01*
X0028667Y0150981D02*
X0018160Y0150981D01*
X0017187Y0151779D02*
X0059991Y0151779D01*
X0060678Y0152578D02*
X0006950Y0152578D01*
X0006950Y0153376D02*
X0061366Y0153376D01*
X0062053Y0154175D02*
X0017027Y0154175D01*
X0018094Y0154973D02*
X0062741Y0154973D01*
X0060184Y0157369D02*
X0066417Y0157369D01*
X0069146Y0158167D02*
X0060184Y0158167D01*
X0060184Y0158966D02*
X0070792Y0158966D01*
X0071122Y0159764D02*
X0060184Y0159764D01*
X0060184Y0160563D02*
X0071522Y0160563D01*
X0072320Y0161361D02*
X0060184Y0161361D01*
X0060184Y0162160D02*
X0073832Y0162160D01*
X0074081Y0163757D02*
X0045371Y0163757D01*
X0045773Y0164555D02*
X0072423Y0164555D01*
X0071625Y0165354D02*
X0045931Y0165354D01*
X0045902Y0166152D02*
X0071165Y0166152D01*
X0070834Y0166951D02*
X0046471Y0166951D01*
X0047269Y0167749D02*
X0070750Y0167749D01*
X0070750Y0168548D02*
X0047950Y0168548D01*
X0047950Y0169346D02*
X0070949Y0169346D01*
X0071280Y0170145D02*
X0047950Y0170145D01*
X0047950Y0170943D02*
X0071902Y0170943D01*
X0072824Y0171742D02*
X0047950Y0171742D01*
X0047950Y0172540D02*
X0050267Y0172540D01*
X0049916Y0173339D02*
X0047950Y0173339D01*
X0047950Y0174137D02*
X0049916Y0174137D01*
X0049916Y0174936D02*
X0047950Y0174936D01*
X0047950Y0175734D02*
X0049916Y0175734D01*
X0049916Y0176533D02*
X0047950Y0176533D01*
X0047950Y0177331D02*
X0049916Y0177331D01*
X0049916Y0178130D02*
X0047950Y0178130D01*
X0047950Y0178928D02*
X0050125Y0178928D01*
X0047950Y0182123D02*
X0052363Y0182123D01*
X0051883Y0182921D02*
X0047950Y0182921D01*
X0047950Y0183720D02*
X0051669Y0183720D01*
X0051669Y0184518D02*
X0047950Y0184518D01*
X0047950Y0185317D02*
X0051973Y0185317D01*
X0052581Y0186115D02*
X0047950Y0186115D01*
X0047950Y0186914D02*
X0048538Y0186914D01*
X0048538Y0187712D02*
X0047950Y0187712D01*
X0047950Y0188511D02*
X0048538Y0188511D01*
X0048538Y0189309D02*
X0047950Y0189309D01*
X0047950Y0190108D02*
X0048538Y0190108D01*
X0048538Y0190906D02*
X0047950Y0190906D01*
X0047950Y0191705D02*
X0048538Y0191705D01*
X0048523Y0192503D02*
X0048538Y0192503D01*
X0046550Y0192510D02*
X0049050Y0195010D01*
X0053050Y0195010D01*
X0054150Y0196010D01*
X0054150Y0203510D01*
X0054250Y0204510D01*
X0054250Y0214010D01*
X0040050Y0218010D01*
X0015050Y0218010D01*
X0016758Y0214063D02*
X0048898Y0214063D01*
X0048844Y0213264D02*
X0040690Y0213264D01*
X0041168Y0212466D02*
X0048532Y0212466D01*
X0048532Y0211667D02*
X0041168Y0211667D01*
X0041168Y0210869D02*
X0048532Y0210869D01*
X0048532Y0209622D02*
X0048532Y0207463D01*
X0048627Y0207107D01*
X0048812Y0206788D01*
X0049072Y0206527D01*
X0049391Y0206343D01*
X0049748Y0206248D01*
X0051119Y0206248D01*
X0051119Y0209622D01*
X0048532Y0209622D01*
X0048532Y0209272D02*
X0041168Y0209272D01*
X0041168Y0210070D02*
X0051119Y0210070D01*
X0051119Y0209272D02*
X0051894Y0209272D01*
X0051894Y0208473D02*
X0051119Y0208473D01*
X0051119Y0207675D02*
X0051894Y0207675D01*
X0051894Y0206876D02*
X0051119Y0206876D01*
X0050319Y0204284D02*
X0048173Y0204284D01*
X0047817Y0204188D01*
X0047497Y0204004D01*
X0047237Y0203743D01*
X0047052Y0203424D01*
X0046957Y0203068D01*
X0046957Y0200528D01*
X0050319Y0200528D01*
X0050319Y0204284D01*
X0050319Y0203682D02*
X0051119Y0203682D01*
X0051119Y0202884D02*
X0050319Y0202884D01*
X0050319Y0202085D02*
X0051119Y0202085D01*
X0051119Y0201287D02*
X0050319Y0201287D01*
X0050319Y0200488D02*
X0042743Y0200488D01*
X0042743Y0199690D02*
X0043991Y0199690D01*
X0042857Y0198891D02*
X0042743Y0198891D01*
X0042499Y0197010D02*
X0039381Y0200128D01*
X0039381Y0209222D01*
X0039380Y0209222D02*
X0039378Y0209276D01*
X0039373Y0209329D01*
X0039364Y0209382D01*
X0039351Y0209434D01*
X0039335Y0209486D01*
X0039315Y0209536D01*
X0039292Y0209584D01*
X0039265Y0209631D01*
X0039236Y0209676D01*
X0039203Y0209719D01*
X0039168Y0209759D01*
X0039130Y0209797D01*
X0039090Y0209832D01*
X0039047Y0209865D01*
X0039002Y0209894D01*
X0038955Y0209921D01*
X0038907Y0209944D01*
X0038857Y0209964D01*
X0038805Y0209980D01*
X0038753Y0209993D01*
X0038700Y0210002D01*
X0038647Y0210007D01*
X0038593Y0210009D01*
X0036376Y0206876D02*
X0034253Y0206876D01*
X0034202Y0206788D02*
X0034386Y0207107D01*
X0034481Y0207463D01*
X0034481Y0209622D01*
X0031894Y0209622D01*
X0031894Y0206248D01*
X0033266Y0206248D01*
X0033622Y0206343D01*
X0033941Y0206527D01*
X0034202Y0206788D01*
X0034481Y0207675D02*
X0036019Y0207675D01*
X0036019Y0208473D02*
X0034481Y0208473D01*
X0034481Y0209272D02*
X0036019Y0209272D01*
X0036019Y0210070D02*
X0031894Y0210070D01*
X0031894Y0210397D02*
X0034481Y0210397D01*
X0034481Y0212556D01*
X0034386Y0212912D01*
X0034202Y0213232D01*
X0033941Y0213492D01*
X0033622Y0213677D01*
X0033266Y0213772D01*
X0031894Y0213772D01*
X0031894Y0210397D01*
X0031894Y0209622D01*
X0031119Y0209622D01*
X0031119Y0206248D01*
X0029748Y0206248D01*
X0029391Y0206343D01*
X0029072Y0206527D01*
X0028812Y0206788D01*
X0028627Y0207107D01*
X0028532Y0207463D01*
X0028532Y0209622D01*
X0031119Y0209622D01*
X0031119Y0210397D01*
X0028532Y0210397D01*
X0028532Y0212556D01*
X0028627Y0212912D01*
X0028812Y0213232D01*
X0029072Y0213492D01*
X0029391Y0213677D01*
X0029748Y0213772D01*
X0031119Y0213772D01*
X0031119Y0210397D01*
X0031894Y0210397D01*
X0031894Y0210869D02*
X0031119Y0210869D01*
X0031119Y0211667D02*
X0031894Y0211667D01*
X0031894Y0212466D02*
X0031119Y0212466D01*
X0031119Y0213264D02*
X0031894Y0213264D01*
X0031119Y0210070D02*
X0018851Y0210070D01*
X0019182Y0209272D02*
X0028532Y0209272D01*
X0028532Y0208473D02*
X0019350Y0208473D01*
X0019350Y0207675D02*
X0028532Y0207675D01*
X0028761Y0206876D02*
X0019235Y0206876D01*
X0018904Y0206078D02*
X0037981Y0206078D01*
X0037981Y0205279D02*
X0018401Y0205279D01*
X0017602Y0204481D02*
X0037981Y0204481D01*
X0036403Y0203682D02*
X0034237Y0203682D01*
X0034202Y0203743D02*
X0033941Y0204004D01*
X0033622Y0204188D01*
X0033266Y0204284D01*
X0031119Y0204284D01*
X0031119Y0200528D01*
X0030319Y0200528D01*
X0030319Y0199728D01*
X0026957Y0199728D01*
X0026957Y0197188D01*
X0027052Y0196832D01*
X0027237Y0196512D01*
X0027497Y0196252D01*
X0027817Y0196067D01*
X0028173Y0195972D01*
X0030319Y0195972D01*
X0030319Y0199728D01*
X0031119Y0199728D01*
X0031119Y0195972D01*
X0033266Y0195972D01*
X0033622Y0196067D01*
X0033941Y0196252D01*
X0034202Y0196512D01*
X0034386Y0196832D01*
X0034481Y0197188D01*
X0034481Y0199728D01*
X0031119Y0199728D01*
X0031119Y0200528D01*
X0034481Y0200528D01*
X0034481Y0203068D01*
X0034386Y0203424D01*
X0034202Y0203743D01*
X0034481Y0202884D02*
X0036019Y0202884D01*
X0036019Y0202085D02*
X0034481Y0202085D01*
X0034481Y0201287D02*
X0036019Y0201287D01*
X0036019Y0200488D02*
X0031119Y0200488D01*
X0031119Y0199690D02*
X0030319Y0199690D01*
X0030319Y0200488D02*
X0019059Y0200488D01*
X0019070Y0200473D02*
X0018635Y0201072D01*
X0018112Y0201595D01*
X0017513Y0202030D01*
X0016854Y0202365D01*
X0016151Y0202594D01*
X0015450Y0202705D01*
X0015450Y0198410D01*
X0014650Y0198410D01*
X0014650Y0197610D01*
X0015450Y0197610D01*
X0015450Y0198410D01*
X0019745Y0198410D01*
X0019634Y0199110D01*
X0019406Y0199814D01*
X0019070Y0200473D01*
X0019446Y0199690D02*
X0026957Y0199690D01*
X0026957Y0198891D02*
X0019669Y0198891D01*
X0019745Y0197610D02*
X0015450Y0197610D01*
X0015450Y0193315D01*
X0016151Y0193426D01*
X0016854Y0193654D01*
X0017513Y0193990D01*
X0018112Y0194425D01*
X0018635Y0194948D01*
X0019070Y0195547D01*
X0019406Y0196206D01*
X0019634Y0196909D01*
X0019745Y0197610D01*
X0019695Y0197294D02*
X0026957Y0197294D01*
X0026957Y0198093D02*
X0015450Y0198093D01*
X0015450Y0198891D02*
X0014650Y0198891D01*
X0014650Y0198093D02*
X0006950Y0198093D01*
X0006950Y0194100D02*
X0012435Y0194100D01*
X0012734Y0191705D02*
X0006950Y0191705D01*
X0006950Y0192503D02*
X0028538Y0192503D01*
X0028538Y0193062D02*
X0028538Y0186722D01*
X0029124Y0186136D01*
X0033250Y0186136D01*
X0033250Y0185231D01*
X0033123Y0184723D01*
X0033248Y0184515D01*
X0033069Y0184083D01*
X0033069Y0182937D01*
X0033248Y0182505D01*
X0033123Y0182297D01*
X0033450Y0180988D01*
X0033450Y0179305D01*
X0030502Y0179305D01*
X0029916Y0178719D01*
X0029916Y0172891D01*
X0030502Y0172305D01*
X0039598Y0172305D01*
X0040184Y0172891D01*
X0040184Y0178719D01*
X0039598Y0179305D01*
X0036650Y0179305D01*
X0036650Y0180681D01*
X0037582Y0181067D01*
X0038392Y0181878D01*
X0038831Y0182937D01*
X0038831Y0184083D01*
X0038392Y0185142D01*
X0037582Y0185952D01*
X0037139Y0186136D01*
X0040976Y0186136D01*
X0041562Y0186722D01*
X0041562Y0193062D01*
X0040976Y0193648D01*
X0029124Y0193648D01*
X0028538Y0193062D01*
X0028778Y0193302D02*
X0006950Y0193302D01*
X0006950Y0184518D02*
X0012461Y0184518D01*
X0014171Y0183720D02*
X0006950Y0183720D01*
X0006950Y0182921D02*
X0033075Y0182921D01*
X0033069Y0183720D02*
X0015929Y0183720D01*
X0016358Y0182123D02*
X0033166Y0182123D01*
X0033366Y0181324D02*
X0017817Y0181324D01*
X0018615Y0180526D02*
X0033450Y0180526D01*
X0033450Y0179727D02*
X0018993Y0179727D01*
X0019324Y0178928D02*
X0030125Y0178928D01*
X0029916Y0178130D02*
X0019350Y0178130D01*
X0019350Y0177331D02*
X0029916Y0177331D01*
X0029916Y0176533D02*
X0019093Y0176533D01*
X0018762Y0175734D02*
X0029916Y0175734D01*
X0029916Y0174936D02*
X0018057Y0174936D01*
X0016938Y0174137D02*
X0029916Y0174137D01*
X0029916Y0173339D02*
X0006950Y0173339D01*
X0006950Y0174137D02*
X0013162Y0174137D01*
X0012043Y0174936D02*
X0011139Y0174936D01*
X0011478Y0170943D02*
X0011902Y0170943D01*
X0012824Y0171742D02*
X0006950Y0171742D01*
X0006950Y0172540D02*
X0030267Y0172540D01*
X0029916Y0162958D02*
X0006950Y0162958D01*
X0006950Y0162160D02*
X0013832Y0162160D01*
X0014081Y0163757D02*
X0006950Y0163757D01*
X0006950Y0164555D02*
X0012423Y0164555D01*
X0012320Y0161361D02*
X0010469Y0161361D01*
X0011229Y0154973D02*
X0012006Y0154973D01*
X0013073Y0154175D02*
X0006950Y0154175D01*
X0006950Y0151779D02*
X0012913Y0151779D01*
X0011940Y0150981D02*
X0011388Y0150981D01*
X0012386Y0144592D02*
X0006950Y0144592D01*
X0006950Y0143794D02*
X0013992Y0143794D01*
X0013922Y0142197D02*
X0006950Y0142197D01*
X0006950Y0142995D02*
X0037193Y0142995D01*
X0037193Y0142197D02*
X0033590Y0142197D01*
X0033622Y0142188D02*
X0033266Y0142284D01*
X0031119Y0142284D01*
X0031119Y0138528D01*
X0034481Y0138528D01*
X0034481Y0141068D01*
X0034386Y0141424D01*
X0034202Y0141743D01*
X0033941Y0142004D01*
X0033622Y0142188D01*
X0034393Y0141398D02*
X0036119Y0141398D01*
X0036019Y0140600D02*
X0034481Y0140600D01*
X0034481Y0139801D02*
X0036019Y0139801D01*
X0036019Y0139003D02*
X0034481Y0139003D01*
X0034481Y0137406D02*
X0036019Y0137406D01*
X0036019Y0138204D02*
X0031119Y0138204D01*
X0031119Y0139003D02*
X0030319Y0139003D01*
X0030319Y0138528D02*
X0030319Y0142284D01*
X0028173Y0142284D01*
X0027817Y0142188D01*
X0027497Y0142004D01*
X0027237Y0141743D01*
X0027052Y0141424D01*
X0026957Y0141068D01*
X0026957Y0138528D01*
X0030319Y0138528D01*
X0030319Y0138204D02*
X0019350Y0138204D01*
X0019350Y0137406D02*
X0026957Y0137406D01*
X0026957Y0136607D02*
X0019123Y0136607D01*
X0018793Y0135809D02*
X0024279Y0135809D01*
X0022976Y0135010D02*
X0018132Y0135010D01*
X0017117Y0134212D02*
X0022429Y0134212D01*
X0022169Y0133413D02*
X0006950Y0133413D01*
X0006950Y0132615D02*
X0022169Y0132615D01*
X0022426Y0131816D02*
X0017097Y0131816D01*
X0018123Y0131018D02*
X0022968Y0131018D01*
X0024258Y0130219D02*
X0018789Y0130219D01*
X0019120Y0129421D02*
X0028538Y0129421D01*
X0028538Y0130219D02*
X0025842Y0130219D01*
X0027132Y0131018D02*
X0028538Y0131018D01*
X0027550Y0133010D02*
X0042550Y0133010D01*
X0045050Y0130510D01*
X0045050Y0123010D01*
X0043650Y0126227D02*
X0041562Y0126227D01*
X0041562Y0127025D02*
X0043650Y0127025D01*
X0043650Y0127824D02*
X0041562Y0127824D01*
X0041562Y0128622D02*
X0043650Y0128622D01*
X0043650Y0129421D02*
X0041562Y0129421D01*
X0041562Y0130219D02*
X0043361Y0130219D01*
X0042562Y0131018D02*
X0041562Y0131018D01*
X0043328Y0134212D02*
X0044368Y0134212D01*
X0044126Y0133413D02*
X0045167Y0133413D01*
X0044925Y0132615D02*
X0045965Y0132615D01*
X0045723Y0131816D02*
X0046764Y0131816D01*
X0043650Y0135010D02*
X0042743Y0135010D01*
X0042743Y0135809D02*
X0043650Y0135809D01*
X0043650Y0136607D02*
X0042743Y0136607D01*
X0039993Y0142197D02*
X0047849Y0142197D01*
X0049007Y0144592D02*
X0039993Y0144592D01*
X0039993Y0143794D02*
X0057981Y0143794D01*
X0057981Y0144592D02*
X0054006Y0144592D01*
X0054462Y0145391D02*
X0056019Y0145391D01*
X0056019Y0146190D02*
X0054481Y0146190D01*
X0054481Y0146988D02*
X0056019Y0146988D01*
X0056019Y0147787D02*
X0051894Y0147787D01*
X0051894Y0148585D02*
X0051119Y0148585D01*
X0051119Y0149384D02*
X0051894Y0149384D01*
X0051894Y0150182D02*
X0051119Y0150182D01*
X0051119Y0150981D02*
X0051894Y0150981D01*
X0054347Y0150981D02*
X0056213Y0150981D01*
X0056019Y0150182D02*
X0054481Y0150182D01*
X0054481Y0149384D02*
X0056019Y0149384D01*
X0056019Y0148585D02*
X0054481Y0148585D01*
X0057981Y0142995D02*
X0039993Y0142995D01*
X0037193Y0143794D02*
X0016108Y0143794D01*
X0016178Y0142197D02*
X0027849Y0142197D01*
X0027046Y0141398D02*
X0017742Y0141398D01*
X0018541Y0140600D02*
X0026957Y0140600D01*
X0026957Y0139801D02*
X0018962Y0139801D01*
X0019293Y0139003D02*
X0026957Y0139003D01*
X0026957Y0135809D02*
X0025821Y0135809D01*
X0028538Y0128622D02*
X0019350Y0128622D01*
X0019350Y0127824D02*
X0028538Y0127824D01*
X0028538Y0127025D02*
X0019296Y0127025D01*
X0018966Y0126227D02*
X0028538Y0126227D01*
X0028538Y0125428D02*
X0018549Y0125428D01*
X0017751Y0124630D02*
X0028630Y0124630D01*
X0034434Y0135010D02*
X0036019Y0135010D01*
X0036019Y0135809D02*
X0034481Y0135809D01*
X0034481Y0136607D02*
X0036019Y0136607D01*
X0037193Y0144592D02*
X0034006Y0144592D01*
X0031894Y0144592D02*
X0031119Y0144592D01*
X0031119Y0145391D02*
X0031894Y0145391D01*
X0031894Y0146190D02*
X0031119Y0146190D01*
X0031119Y0148585D02*
X0031894Y0148585D01*
X0031894Y0149384D02*
X0031119Y0149384D01*
X0031119Y0150182D02*
X0031894Y0150182D01*
X0031894Y0150981D02*
X0031119Y0150981D01*
X0028532Y0146988D02*
X0019281Y0146988D01*
X0018950Y0146190D02*
X0028532Y0146190D01*
X0028551Y0145391D02*
X0018512Y0145391D01*
X0017714Y0144592D02*
X0029007Y0144592D01*
X0030319Y0142197D02*
X0031119Y0142197D01*
X0031119Y0141398D02*
X0030319Y0141398D01*
X0030319Y0140600D02*
X0031119Y0140600D01*
X0031119Y0139801D02*
X0030319Y0139801D01*
X0036850Y0123831D02*
X0042272Y0123831D01*
X0042169Y0123033D02*
X0036850Y0123033D01*
X0036850Y0122234D02*
X0042253Y0122234D01*
X0042584Y0121436D02*
X0036850Y0121436D01*
X0036850Y0120637D02*
X0043348Y0120637D01*
X0042602Y0124630D02*
X0041470Y0124630D01*
X0041562Y0125428D02*
X0043394Y0125428D01*
X0039863Y0119040D02*
X0050237Y0119040D01*
X0049916Y0118242D02*
X0040184Y0118242D01*
X0045898Y0103070D02*
X0049916Y0103070D01*
X0049916Y0102271D02*
X0046863Y0102271D01*
X0046393Y0098279D02*
X0049916Y0098279D01*
X0045250Y0090810D02*
X0057250Y0090810D01*
X0052750Y0085503D02*
X0071476Y0085503D01*
X0071103Y0086301D02*
X0052033Y0086301D01*
X0053081Y0084704D02*
X0072275Y0084704D01*
X0074102Y0102271D02*
X0060184Y0102271D01*
X0060184Y0103070D02*
X0083150Y0103070D01*
X0083150Y0103868D02*
X0077275Y0103868D01*
X0078354Y0104667D02*
X0078565Y0104667D01*
X0075450Y0107861D02*
X0083150Y0107861D01*
X0083150Y0121436D02*
X0077705Y0121436D01*
X0076088Y0122234D02*
X0083150Y0122234D01*
X0078802Y0131018D02*
X0078123Y0131018D01*
X0077780Y0161361D02*
X0079631Y0161361D01*
X0077677Y0164555D02*
X0083150Y0164555D01*
X0083150Y0163757D02*
X0076019Y0163757D01*
X0076268Y0162160D02*
X0083150Y0162160D01*
X0083150Y0162958D02*
X0060184Y0162958D01*
X0059833Y0172540D02*
X0083150Y0172540D01*
X0083150Y0171742D02*
X0077276Y0171742D01*
X0076938Y0174137D02*
X0083150Y0174137D01*
X0083150Y0173339D02*
X0060184Y0173339D01*
X0060184Y0174137D02*
X0073162Y0174137D01*
X0072043Y0174936D02*
X0060184Y0174936D01*
X0060184Y0175734D02*
X0071338Y0175734D01*
X0071007Y0176533D02*
X0060184Y0176533D01*
X0060184Y0177331D02*
X0070750Y0177331D01*
X0070750Y0178130D02*
X0060184Y0178130D01*
X0059975Y0178928D02*
X0070776Y0178928D01*
X0071107Y0179727D02*
X0068342Y0179727D01*
X0069054Y0180526D02*
X0071485Y0180526D01*
X0072283Y0181324D02*
X0069384Y0181324D01*
X0069431Y0182123D02*
X0073742Y0182123D01*
X0074171Y0183720D02*
X0068915Y0183720D01*
X0069291Y0182921D02*
X0083150Y0182921D01*
X0083150Y0182123D02*
X0076358Y0182123D01*
X0075929Y0183720D02*
X0083150Y0183720D01*
X0083150Y0184518D02*
X0077639Y0184518D01*
X0077817Y0181324D02*
X0079541Y0181324D01*
X0078961Y0174936D02*
X0078057Y0174936D01*
X0072461Y0184518D02*
X0068023Y0184518D01*
X0067950Y0185317D02*
X0071662Y0185317D01*
X0071181Y0186115D02*
X0067950Y0186115D01*
X0067950Y0186914D02*
X0070850Y0186914D01*
X0070750Y0187712D02*
X0067950Y0187712D01*
X0067950Y0188511D02*
X0070750Y0188511D01*
X0070934Y0189309D02*
X0068484Y0189309D01*
X0066550Y0189010D02*
X0069050Y0192510D01*
X0070736Y0194899D02*
X0072080Y0194899D01*
X0071510Y0194100D02*
X0073252Y0194100D01*
X0071840Y0193302D02*
X0083150Y0193302D01*
X0083150Y0194100D02*
X0076848Y0194100D01*
X0077366Y0191705D02*
X0083150Y0191705D01*
X0083150Y0192503D02*
X0071931Y0192503D01*
X0071835Y0191705D02*
X0072734Y0191705D01*
X0071865Y0190906D02*
X0071504Y0190906D01*
X0071265Y0190108D02*
X0070722Y0190108D01*
X0071354Y0195697D02*
X0061343Y0195697D01*
X0062281Y0196496D02*
X0071023Y0196496D01*
X0067364Y0194899D02*
X0062641Y0194899D01*
X0063440Y0194100D02*
X0066590Y0194100D01*
X0066260Y0193302D02*
X0063519Y0193302D01*
X0063450Y0192503D02*
X0066169Y0192503D01*
X0066265Y0191705D02*
X0063450Y0191705D01*
X0063450Y0190906D02*
X0066184Y0190906D01*
X0065614Y0190108D02*
X0063450Y0190108D01*
X0063450Y0189309D02*
X0065081Y0189309D01*
X0065150Y0188511D02*
X0063450Y0188511D01*
X0063450Y0187712D02*
X0065150Y0187712D01*
X0065150Y0186914D02*
X0063450Y0186914D01*
X0064019Y0186115D02*
X0065150Y0186115D01*
X0065150Y0185317D02*
X0064627Y0185317D01*
X0064931Y0184518D02*
X0065077Y0184518D01*
X0066550Y0182010D02*
X0066550Y0189010D01*
X0063716Y0181324D02*
X0063095Y0181324D01*
X0064046Y0180526D02*
X0056850Y0180526D01*
X0056850Y0181324D02*
X0061005Y0181324D01*
X0059863Y0182123D02*
X0056850Y0182123D01*
X0057217Y0182921D02*
X0059383Y0182921D01*
X0059169Y0183720D02*
X0057431Y0183720D01*
X0057431Y0184518D02*
X0059169Y0184518D01*
X0059473Y0185317D02*
X0057127Y0185317D01*
X0056850Y0186115D02*
X0060081Y0186115D01*
X0062050Y0184010D02*
X0062050Y0193510D01*
X0060550Y0194510D01*
X0057050Y0194510D01*
X0055850Y0196610D01*
X0055850Y0213610D01*
X0059050Y0216510D01*
X0073550Y0216510D01*
X0075050Y0218010D01*
X0075050Y0198010D02*
X0061499Y0198010D01*
X0059381Y0200128D01*
X0059327Y0200130D01*
X0059274Y0200135D01*
X0059221Y0200144D01*
X0059169Y0200157D01*
X0059117Y0200173D01*
X0059067Y0200193D01*
X0059019Y0200216D01*
X0058972Y0200243D01*
X0058927Y0200272D01*
X0058884Y0200305D01*
X0058844Y0200340D01*
X0058806Y0200378D01*
X0058771Y0200418D01*
X0058738Y0200461D01*
X0058709Y0200506D01*
X0058682Y0200553D01*
X0058659Y0200601D01*
X0058639Y0200651D01*
X0058623Y0200703D01*
X0058610Y0200755D01*
X0058601Y0200808D01*
X0058596Y0200861D01*
X0058594Y0200915D01*
X0058593Y0200915D02*
X0058593Y0210010D01*
X0052850Y0206078D02*
X0040781Y0206078D01*
X0040781Y0205279D02*
X0052850Y0205279D01*
X0052840Y0204481D02*
X0040781Y0204481D01*
X0042359Y0203682D02*
X0047202Y0203682D01*
X0046957Y0202884D02*
X0042743Y0202884D01*
X0042743Y0202085D02*
X0046957Y0202085D01*
X0046957Y0201287D02*
X0042743Y0201287D01*
X0042499Y0197010D02*
X0045050Y0197010D01*
X0046109Y0199690D02*
X0046957Y0199690D01*
X0046160Y0194100D02*
X0017665Y0194100D01*
X0018586Y0194899D02*
X0043087Y0194899D01*
X0041832Y0195697D02*
X0019147Y0195697D01*
X0019500Y0196496D02*
X0027254Y0196496D01*
X0026957Y0200528D02*
X0030319Y0200528D01*
X0030319Y0204284D01*
X0028173Y0204284D01*
X0027817Y0204188D01*
X0027497Y0204004D01*
X0027237Y0203743D01*
X0027052Y0203424D01*
X0026957Y0203068D01*
X0026957Y0200528D01*
X0026957Y0201287D02*
X0018420Y0201287D01*
X0017404Y0202085D02*
X0026957Y0202085D01*
X0026957Y0202884D02*
X0006950Y0202884D01*
X0006950Y0203682D02*
X0027202Y0203682D01*
X0030319Y0203682D02*
X0031119Y0203682D01*
X0031119Y0202884D02*
X0030319Y0202884D01*
X0030319Y0202085D02*
X0031119Y0202085D01*
X0031119Y0201287D02*
X0030319Y0201287D01*
X0030319Y0198891D02*
X0031119Y0198891D01*
X0031119Y0198093D02*
X0030319Y0198093D01*
X0030319Y0197294D02*
X0031119Y0197294D01*
X0031119Y0196496D02*
X0030319Y0196496D01*
X0028538Y0191705D02*
X0017366Y0191705D01*
X0018235Y0190906D02*
X0028538Y0190906D01*
X0028538Y0190108D02*
X0018835Y0190108D01*
X0019166Y0189309D02*
X0028538Y0189309D01*
X0028538Y0188511D02*
X0019350Y0188511D01*
X0019350Y0187712D02*
X0028538Y0187712D01*
X0028538Y0186914D02*
X0019250Y0186914D01*
X0018919Y0186115D02*
X0033250Y0186115D01*
X0033250Y0185317D02*
X0018438Y0185317D01*
X0017639Y0184518D02*
X0033246Y0184518D01*
X0036650Y0180526D02*
X0045150Y0180526D01*
X0045150Y0181324D02*
X0037839Y0181324D01*
X0038494Y0182123D02*
X0045150Y0182123D01*
X0045150Y0182921D02*
X0038825Y0182921D01*
X0038831Y0183720D02*
X0045150Y0183720D01*
X0045150Y0184518D02*
X0038651Y0184518D01*
X0038218Y0185317D02*
X0045150Y0185317D01*
X0045150Y0186115D02*
X0037189Y0186115D01*
X0036650Y0179727D02*
X0045150Y0179727D01*
X0045150Y0178928D02*
X0039975Y0178928D01*
X0040184Y0178130D02*
X0045150Y0178130D01*
X0045150Y0177331D02*
X0040184Y0177331D01*
X0040184Y0176533D02*
X0045150Y0176533D01*
X0045150Y0175734D02*
X0040184Y0175734D01*
X0040184Y0174936D02*
X0045150Y0174936D01*
X0045150Y0174137D02*
X0040184Y0174137D01*
X0040184Y0173339D02*
X0045150Y0173339D01*
X0045150Y0172540D02*
X0039833Y0172540D01*
X0041215Y0167749D02*
X0019350Y0167749D01*
X0019350Y0168548D02*
X0044108Y0168548D01*
X0044907Y0169346D02*
X0019151Y0169346D01*
X0018820Y0170145D02*
X0045150Y0170145D01*
X0045150Y0170943D02*
X0018198Y0170943D01*
X0017276Y0171742D02*
X0045150Y0171742D01*
X0046550Y0169010D02*
X0043050Y0165510D01*
X0041681Y0162958D02*
X0040184Y0162958D01*
X0040184Y0162160D02*
X0049916Y0162160D01*
X0049916Y0162958D02*
X0044419Y0162958D01*
X0045550Y0160010D02*
X0054845Y0160010D01*
X0055050Y0160215D01*
X0056850Y0179727D02*
X0064758Y0179727D01*
X0053250Y0179727D02*
X0047950Y0179727D01*
X0047950Y0180526D02*
X0053250Y0180526D01*
X0053250Y0181324D02*
X0047950Y0181324D01*
X0045150Y0186914D02*
X0041562Y0186914D01*
X0041562Y0187712D02*
X0045150Y0187712D01*
X0045150Y0188511D02*
X0041562Y0188511D01*
X0041562Y0189309D02*
X0045150Y0189309D01*
X0045150Y0190108D02*
X0041562Y0190108D01*
X0041562Y0190906D02*
X0045150Y0190906D01*
X0045150Y0191705D02*
X0041562Y0191705D01*
X0041562Y0192503D02*
X0045150Y0192503D01*
X0045362Y0193302D02*
X0041322Y0193302D01*
X0036481Y0196496D02*
X0034185Y0196496D01*
X0034481Y0197294D02*
X0036019Y0197294D01*
X0036019Y0198093D02*
X0034481Y0198093D01*
X0034481Y0198891D02*
X0036019Y0198891D01*
X0036019Y0199690D02*
X0034481Y0199690D01*
X0031894Y0206876D02*
X0031119Y0206876D01*
X0031119Y0207675D02*
X0031894Y0207675D01*
X0031894Y0208473D02*
X0031119Y0208473D01*
X0031119Y0209272D02*
X0031894Y0209272D01*
X0034169Y0213264D02*
X0036497Y0213264D01*
X0036019Y0212466D02*
X0034481Y0212466D01*
X0034481Y0211667D02*
X0036019Y0211667D01*
X0036019Y0210869D02*
X0034481Y0210869D01*
X0040394Y0216459D02*
X0019062Y0216459D01*
X0018731Y0215660D02*
X0043229Y0215660D01*
X0046063Y0214861D02*
X0017983Y0214861D01*
X0017456Y0211667D02*
X0028532Y0211667D01*
X0028532Y0210869D02*
X0018272Y0210869D01*
X0015450Y0202085D02*
X0014650Y0202085D01*
X0014650Y0201287D02*
X0015450Y0201287D01*
X0015450Y0200488D02*
X0014650Y0200488D01*
X0014650Y0199690D02*
X0015450Y0199690D01*
X0015450Y0197294D02*
X0014650Y0197294D01*
X0014650Y0196496D02*
X0015450Y0196496D01*
X0015450Y0195697D02*
X0014650Y0195697D01*
X0014650Y0194899D02*
X0015450Y0194899D01*
X0015450Y0194100D02*
X0014650Y0194100D01*
X0011865Y0190906D02*
X0011568Y0190906D01*
X0013742Y0182123D02*
X0006950Y0182123D01*
X0010559Y0181324D02*
X0012283Y0181324D01*
X0018935Y0166152D02*
X0040198Y0166152D01*
X0040169Y0165354D02*
X0018475Y0165354D01*
X0017677Y0164555D02*
X0040327Y0164555D01*
X0040729Y0163757D02*
X0016019Y0163757D01*
X0016268Y0162160D02*
X0029916Y0162160D01*
X0029916Y0161361D02*
X0017780Y0161361D01*
X0018578Y0160563D02*
X0029916Y0160563D01*
X0029916Y0159764D02*
X0018978Y0159764D01*
X0019308Y0158966D02*
X0029916Y0158966D01*
X0029916Y0158167D02*
X0019350Y0158167D01*
X0019350Y0157369D02*
X0029916Y0157369D01*
X0040184Y0157369D02*
X0042197Y0157369D01*
X0042169Y0158167D02*
X0040184Y0158167D01*
X0042528Y0156570D02*
X0019108Y0156570D01*
X0018777Y0155772D02*
X0043214Y0155772D01*
X0040528Y0166951D02*
X0019266Y0166951D01*
X0012358Y0141398D02*
X0006950Y0141398D01*
X0006950Y0134212D02*
X0012983Y0134212D01*
X0011968Y0135010D02*
X0011319Y0135010D01*
X0013003Y0131816D02*
X0006950Y0131816D01*
X0006950Y0124630D02*
X0012349Y0124630D01*
X0011977Y0131018D02*
X0011298Y0131018D01*
X0045250Y0090810D02*
X0037152Y0076812D01*
X0037152Y0071762D01*
X0044931Y0060749D02*
X0045463Y0060749D01*
X0054434Y0135010D02*
X0056019Y0135010D01*
X0056019Y0135809D02*
X0054481Y0135809D01*
X0054481Y0136607D02*
X0056019Y0136607D01*
X0046550Y0169010D02*
X0046550Y0192510D01*
X0048761Y0206876D02*
X0040811Y0206876D01*
X0041168Y0207675D02*
X0048532Y0207675D01*
X0048532Y0208473D02*
X0041168Y0208473D01*
X0028844Y0213264D02*
X0006950Y0213264D01*
X0006950Y0212466D02*
X0028532Y0212466D01*
X0013342Y0214063D02*
X0006950Y0214063D01*
X0006950Y0211667D02*
X0012644Y0211667D01*
X0011828Y0210869D02*
X0011658Y0210869D01*
X0012117Y0214861D02*
X0010959Y0214861D01*
X0012498Y0204481D02*
X0006950Y0204481D01*
X0006950Y0202085D02*
X0012696Y0202085D01*
X0011680Y0201287D02*
X0011642Y0201287D01*
X0078020Y0194899D02*
X0079051Y0194899D01*
D20*
X0069050Y0192510D03*
X0066550Y0182010D03*
X0062050Y0184010D03*
X0054550Y0184010D03*
X0045050Y0197010D03*
X0035950Y0183510D03*
X0043050Y0165510D03*
X0045050Y0158010D03*
X0045050Y0143010D03*
X0045050Y0123010D03*
X0047550Y0108010D03*
X0044550Y0100510D03*
X0050250Y0084010D03*
X0053050Y0094010D03*
X0058550Y0094010D03*
X0052150Y0061810D03*
X0047050Y0063210D03*
X0042050Y0061110D03*
X0055450Y0040210D03*
X0061050Y0053510D03*
X0061950Y0043310D03*
X0028350Y0121710D03*
X0025050Y0133010D03*
X0021750Y0048910D03*
X0022350Y0040010D03*
D21*
X0013850Y0043010D01*
X0009950Y0043010D01*
X0009950Y0033010D02*
X0019950Y0032710D01*
X0026550Y0037010D01*
X0026550Y0104110D01*
X0033550Y0110010D01*
X0042050Y0110010D01*
X0047550Y0115510D01*
X0054755Y0115510D01*
X0055050Y0115805D02*
X0055050Y0127892D01*
X0055050Y0175805D02*
X0055050Y0183510D01*
X0054550Y0184010D01*
X0055050Y0184510D02*
X0055050Y0189892D01*
X0035950Y0183510D02*
X0035050Y0182010D01*
X0035950Y0183510D02*
X0035050Y0185010D01*
X0035050Y0189892D01*
X0035050Y0127892D02*
X0035050Y0123510D01*
X0032250Y0122610D01*
X0028350Y0121710D01*
X0035050Y0123510D02*
X0035050Y0115805D01*
X0061050Y0053510D02*
X0074550Y0053510D01*
X0074050Y0034010D02*
X0055450Y0040210D01*
X0021750Y0048910D02*
X0007850Y0052910D01*
D22*
X0009950Y0053010D01*
X0035050Y0100215D02*
X0044255Y0100215D01*
X0044550Y0100510D01*
X0035050Y0100215D02*
X0055050Y0100215D01*
X0054755Y0115510D02*
X0055050Y0115805D01*
X0045050Y0158010D02*
X0045050Y0159510D01*
X0035050Y0175805D02*
X0035050Y0182010D01*
X0054550Y0184010D02*
X0055050Y0184510D01*
D23*
X0075050Y0188010D02*
X0085050Y0188010D01*
X0085050Y0198010D02*
X0075050Y0198010D01*
X0075050Y0208010D02*
X0085050Y0208010D01*
X0085050Y0218010D02*
X0075050Y0218010D01*
X0075050Y0178010D02*
X0085050Y0178010D01*
X0085050Y0168010D02*
X0075050Y0168010D01*
X0075050Y0158010D02*
X0085050Y0158010D01*
X0085050Y0148010D02*
X0075050Y0148010D01*
X0075050Y0138010D02*
X0085050Y0138010D01*
X0085050Y0128010D02*
X0075050Y0128010D01*
X0075050Y0118010D02*
X0085050Y0118010D01*
X0085050Y0098010D02*
X0075050Y0098010D01*
X0075050Y0088010D02*
X0085050Y0088010D01*
X0085050Y0078010D02*
X0075050Y0078010D01*
D24*
X0027550Y0133010D02*
X0025050Y0133010D01*
D25*
X0061950Y0043310D02*
X0081350Y0043410D01*
M02*
