%
M48
M72
T01C0.0236
T02C0.0315
T03C0.0394
%
T01
X2390Y4307
X2450Y5237
X4380Y6107
X4930Y6327
X5390Y6177
X5200Y8397
X5480Y9397
X6030Y9397
X4930Y10797
X4630Y10047
X4680Y12297
X4680Y14297
X4680Y15797
X4480Y16547
X3770Y18347
X4680Y19697
X5630Y18397
X6380Y18397
X6830Y18197
X7080Y19247
X3010Y12167
X2680Y13297
X6780Y5347
X6870Y4327
X6720Y3517
T02
X8680Y7797
X8680Y8797
X8680Y9797
X8680Y10797
X8680Y11797
X8680Y12797
X8680Y13797
X8680Y14797
X8680Y15797
X8680Y16797
X8680Y17797
X8680Y18797
X8680Y19797
X8680Y20797
X8680Y21797
X680Y21797
X680Y20797
X680Y19797
X680Y18797
X680Y17797
X680Y16797
X680Y15797
X680Y14797
X680Y13797
X680Y12797
X680Y11797
X680Y10797
X680Y9797
X680Y8797
X680Y7797
T03
X1680Y7797
X1680Y8797
X1680Y9797
X1680Y10797
X1680Y11797
X1680Y12797
X1680Y13797
X1680Y14797
X1680Y15797
X1680Y16797
X1680Y17797
X1680Y18797
X1680Y19797
X1680Y20797
X1680Y21797
X7680Y21797
X7680Y20797
X7680Y19797
X7680Y18797
X7680Y17797
X7680Y16797
X7680Y15797
X7680Y14797
X7680Y13797
X7680Y12797
X7680Y11797
X7680Y10797
X7680Y9797
X7680Y8797
X7680Y7797
M30
