G75*
%MOIN*%
%OFA0B0*%
%FSLAX25Y25*%
%IPPOS*%
%LPD*%
%AMOC8*
5,1,8,0,0,1.08239X$1,22.5*
%
%ADD10C,0.00000*%
%ADD11R,0.08268X0.05000*%
%ADD12C,0.06600*%
%ADD13R,0.11024X0.05512*%
%ADD14R,0.04724X0.05512*%
%ADD15R,0.03150X0.04724*%
%ADD16R,0.16000X0.08000*%
%ADD17R,0.03543X0.09843*%
%ADD18C,0.05150*%
%ADD19C,0.00800*%
%ADD20C,0.03562*%
%ADD21C,0.01600*%
%ADD22C,0.01200*%
%ADD23C,0.04000*%
%ADD24C,0.01000*%
%ADD25C,0.03200*%
D10*
X0006800Y0027970D02*
X0006800Y0222970D01*
X0086800Y0222970D01*
X0086800Y0027970D01*
X0006800Y0027970D01*
D11*
X0036800Y0100175D03*
X0036800Y0115766D03*
X0036800Y0160175D03*
X0036800Y0175766D03*
X0056800Y0175766D03*
X0056800Y0160175D03*
X0056800Y0115766D03*
X0056800Y0100175D03*
D12*
X0076800Y0097970D03*
X0076800Y0107970D03*
X0076800Y0117970D03*
X0076800Y0127970D03*
X0076800Y0137970D03*
X0076800Y0147970D03*
X0076800Y0157970D03*
X0076800Y0167970D03*
X0076800Y0177970D03*
X0076800Y0187970D03*
X0076800Y0197970D03*
X0076800Y0207970D03*
X0076800Y0217970D03*
X0076800Y0087970D03*
X0076800Y0077970D03*
X0016800Y0077970D03*
X0016800Y0087970D03*
X0016800Y0097970D03*
X0016800Y0107970D03*
X0016800Y0117970D03*
X0016800Y0127970D03*
X0016800Y0137970D03*
X0016800Y0147970D03*
X0016800Y0157970D03*
X0016800Y0167970D03*
X0016800Y0177970D03*
X0016800Y0187970D03*
X0016800Y0197970D03*
X0016800Y0207970D03*
X0016800Y0217970D03*
D13*
X0036800Y0189852D03*
X0056800Y0189852D03*
X0056800Y0127852D03*
X0036800Y0127852D03*
D14*
X0032469Y0138089D03*
X0041131Y0138089D03*
X0052469Y0138089D03*
X0061131Y0138089D03*
X0061131Y0200089D03*
X0052469Y0200089D03*
X0041131Y0200089D03*
X0032469Y0200089D03*
D15*
X0033257Y0209970D03*
X0040343Y0209970D03*
X0053257Y0209970D03*
X0060343Y0209970D03*
X0060343Y0147970D03*
X0053257Y0147970D03*
X0040343Y0147970D03*
X0033257Y0147970D03*
D16*
X0009200Y0062970D03*
X0009200Y0052970D03*
X0009200Y0042970D03*
X0009200Y0032970D03*
X0085600Y0033370D03*
X0085600Y0043370D03*
X0085600Y0053370D03*
X0085600Y0063370D03*
D17*
X0063902Y0071722D03*
X0058902Y0071722D03*
X0053902Y0071722D03*
X0048902Y0071722D03*
X0043902Y0071722D03*
X0038902Y0071722D03*
X0033902Y0071722D03*
D18*
X0011950Y0077970D02*
X0006800Y0077970D01*
X0006800Y0087970D02*
X0011950Y0087970D01*
X0011950Y0097970D02*
X0006800Y0097970D01*
X0006800Y0107970D02*
X0011950Y0107970D01*
X0011950Y0117970D02*
X0006800Y0117970D01*
X0006800Y0127970D02*
X0011950Y0127970D01*
X0011950Y0137970D02*
X0006800Y0137970D01*
X0006800Y0147970D02*
X0011950Y0147970D01*
X0011950Y0157970D02*
X0006800Y0157970D01*
X0006800Y0167970D02*
X0011950Y0167970D01*
X0011950Y0177970D02*
X0006800Y0177970D01*
X0006800Y0187970D02*
X0011950Y0187970D01*
X0011950Y0197970D02*
X0006800Y0197970D01*
X0006800Y0207970D02*
X0011950Y0207970D01*
X0011950Y0217970D02*
X0006800Y0217970D01*
X0081650Y0217970D02*
X0086800Y0217970D01*
X0086800Y0207970D02*
X0081650Y0207970D01*
X0081650Y0197970D02*
X0086800Y0197970D01*
X0086800Y0187970D02*
X0081650Y0187970D01*
X0081650Y0177970D02*
X0086800Y0177970D01*
X0086800Y0167970D02*
X0081650Y0167970D01*
X0081650Y0157970D02*
X0086800Y0157970D01*
X0086800Y0147970D02*
X0081650Y0147970D01*
X0081650Y0137970D02*
X0086800Y0137970D01*
X0086800Y0127970D02*
X0081650Y0127970D01*
X0081650Y0117970D02*
X0086800Y0117970D01*
X0086800Y0107970D02*
X0081650Y0107970D01*
X0081650Y0097970D02*
X0086800Y0097970D01*
X0086800Y0087970D02*
X0081650Y0087970D01*
X0081650Y0077970D02*
X0086800Y0077970D01*
D19*
X0085400Y0081545D02*
X0080939Y0081545D01*
X0079785Y0081067D01*
X0079236Y0081616D01*
X0077655Y0082270D01*
X0075945Y0082270D01*
X0074364Y0081616D01*
X0073155Y0080406D01*
X0072500Y0078826D01*
X0072500Y0077115D01*
X0073155Y0075535D01*
X0074364Y0074325D01*
X0075945Y0073670D01*
X0077655Y0073670D01*
X0079236Y0074325D01*
X0079785Y0074874D01*
X0080939Y0074396D01*
X0085400Y0074396D01*
X0085400Y0068370D01*
X0077186Y0068370D01*
X0076600Y0067785D01*
X0076600Y0058956D01*
X0077186Y0058370D01*
X0076600Y0057785D01*
X0076600Y0055270D01*
X0069933Y0055270D01*
X0069375Y0055828D01*
X0068353Y0056252D01*
X0067247Y0056252D01*
X0066225Y0055828D01*
X0065442Y0055046D01*
X0065019Y0054024D01*
X0065019Y0052917D01*
X0065442Y0051895D01*
X0066225Y0051113D01*
X0067247Y0050689D01*
X0068353Y0050689D01*
X0069375Y0051113D01*
X0069933Y0051670D01*
X0076600Y0051670D01*
X0076600Y0048956D01*
X0077186Y0048370D01*
X0076600Y0047785D01*
X0076600Y0045917D01*
X0069676Y0045876D01*
X0069253Y0046052D01*
X0068147Y0046052D01*
X0067125Y0045628D01*
X0066342Y0044846D01*
X0065919Y0043824D01*
X0065919Y0042717D01*
X0066342Y0041695D01*
X0067125Y0040913D01*
X0068147Y0040489D01*
X0069253Y0040489D01*
X0069705Y0040676D01*
X0076600Y0040717D01*
X0076600Y0038956D01*
X0077186Y0038370D01*
X0076600Y0037785D01*
X0076600Y0035676D01*
X0069596Y0036654D01*
X0069558Y0036746D01*
X0068775Y0037528D01*
X0067753Y0037952D01*
X0066647Y0037952D01*
X0065625Y0037528D01*
X0064842Y0036746D01*
X0064419Y0035724D01*
X0064419Y0034617D01*
X0064842Y0033595D01*
X0065625Y0032813D01*
X0066647Y0032389D01*
X0067753Y0032389D01*
X0068775Y0032813D01*
X0069057Y0033094D01*
X0076290Y0032085D01*
X0076600Y0032319D01*
X0076600Y0029370D01*
X0018200Y0029370D01*
X0018200Y0030954D01*
X0021546Y0030874D01*
X0022175Y0030781D01*
X0022276Y0030856D01*
X0022402Y0030853D01*
X0022862Y0031291D01*
X0025795Y0033470D01*
X0025946Y0033470D01*
X0026379Y0033904D01*
X0026872Y0034270D01*
X0026894Y0034419D01*
X0027000Y0034525D01*
X0027000Y0035138D01*
X0027090Y0035745D01*
X0027000Y0035866D01*
X0027000Y0101472D01*
X0035902Y0108170D01*
X0044546Y0108170D01*
X0050046Y0113670D01*
X0051666Y0113670D01*
X0051666Y0112852D01*
X0052252Y0112266D01*
X0061348Y0112266D01*
X0061934Y0112852D01*
X0061934Y0118680D01*
X0061348Y0119266D01*
X0058600Y0119266D01*
X0058600Y0124096D01*
X0062726Y0124096D01*
X0063312Y0124682D01*
X0063312Y0131022D01*
X0062764Y0131570D01*
X0064880Y0131570D01*
X0067380Y0134070D01*
X0068200Y0134891D01*
X0068200Y0142391D01*
X0069880Y0144070D01*
X0074880Y0144070D01*
X0074909Y0144100D01*
X0075945Y0143670D01*
X0077655Y0143670D01*
X0079236Y0144325D01*
X0079785Y0144874D01*
X0080939Y0144396D01*
X0085400Y0144396D01*
X0085400Y0141545D01*
X0080939Y0141545D01*
X0079785Y0141067D01*
X0079236Y0141616D01*
X0077655Y0142270D01*
X0075945Y0142270D01*
X0074364Y0141616D01*
X0073155Y0140406D01*
X0072500Y0138826D01*
X0072500Y0137115D01*
X0073155Y0135535D01*
X0074364Y0134325D01*
X0075945Y0133670D01*
X0077655Y0133670D01*
X0079236Y0134325D01*
X0079785Y0134874D01*
X0080939Y0134396D01*
X0085400Y0134396D01*
X0085400Y0131545D01*
X0080939Y0131545D01*
X0079785Y0131067D01*
X0079236Y0131616D01*
X0077655Y0132270D01*
X0075945Y0132270D01*
X0074364Y0131616D01*
X0073155Y0130406D01*
X0072500Y0128826D01*
X0072500Y0127115D01*
X0073155Y0125535D01*
X0074364Y0124325D01*
X0075945Y0123670D01*
X0077655Y0123670D01*
X0079236Y0124325D01*
X0079785Y0124874D01*
X0080939Y0124396D01*
X0085400Y0124396D01*
X0085400Y0121545D01*
X0080939Y0121545D01*
X0079785Y0121067D01*
X0079236Y0121616D01*
X0077655Y0122270D01*
X0075945Y0122270D01*
X0074364Y0121616D01*
X0073155Y0120406D01*
X0072500Y0118826D01*
X0072500Y0117115D01*
X0073155Y0115535D01*
X0074364Y0114325D01*
X0075945Y0113670D01*
X0077655Y0113670D01*
X0079236Y0114325D01*
X0079785Y0114874D01*
X0080939Y0114396D01*
X0085400Y0114396D01*
X0085400Y0111945D01*
X0081259Y0111945D01*
X0080491Y0111793D01*
X0079878Y0111539D01*
X0079862Y0111555D01*
X0079263Y0111990D01*
X0078604Y0112326D01*
X0077901Y0112555D01*
X0077200Y0112666D01*
X0077200Y0108371D01*
X0076400Y0108371D01*
X0076400Y0112666D01*
X0075699Y0112555D01*
X0074996Y0112326D01*
X0074337Y0111990D01*
X0073738Y0111555D01*
X0073215Y0111032D01*
X0072780Y0110434D01*
X0072444Y0109775D01*
X0072216Y0109071D01*
X0072105Y0108370D01*
X0076400Y0108370D01*
X0076400Y0107570D01*
X0077200Y0107570D01*
X0077200Y0103275D01*
X0077901Y0103386D01*
X0078604Y0103615D01*
X0079263Y0103951D01*
X0079862Y0104386D01*
X0079878Y0104402D01*
X0080491Y0104148D01*
X0081259Y0103996D01*
X0085400Y0103996D01*
X0085400Y0101545D01*
X0080939Y0101545D01*
X0079785Y0101067D01*
X0079236Y0101616D01*
X0077655Y0102270D01*
X0075945Y0102270D01*
X0074364Y0101616D01*
X0073155Y0100406D01*
X0072500Y0098826D01*
X0072500Y0097115D01*
X0073155Y0095535D01*
X0074364Y0094325D01*
X0075945Y0093670D01*
X0077655Y0093670D01*
X0079236Y0094325D01*
X0079785Y0094874D01*
X0080939Y0094396D01*
X0085400Y0094396D01*
X0085400Y0091545D01*
X0080939Y0091545D01*
X0079785Y0091067D01*
X0079236Y0091616D01*
X0077655Y0092270D01*
X0075945Y0092270D01*
X0074364Y0091616D01*
X0073155Y0090406D01*
X0072500Y0088826D01*
X0072500Y0087115D01*
X0073155Y0085535D01*
X0074364Y0084325D01*
X0075945Y0083670D01*
X0077655Y0083670D01*
X0079236Y0084325D01*
X0079785Y0084874D01*
X0080939Y0084396D01*
X0085400Y0084396D01*
X0085400Y0081545D01*
X0085400Y0082269D02*
X0077658Y0082269D01*
X0078128Y0083866D02*
X0085400Y0083866D01*
X0085400Y0083068D02*
X0058888Y0083068D01*
X0059555Y0079874D02*
X0042314Y0079874D01*
X0042776Y0080672D02*
X0057248Y0080672D01*
X0056946Y0078044D02*
X0056590Y0077948D01*
X0056271Y0077764D01*
X0056120Y0077612D01*
X0056088Y0077644D01*
X0051716Y0077644D01*
X0051402Y0077330D01*
X0051088Y0077644D01*
X0046716Y0077644D01*
X0046402Y0077330D01*
X0046088Y0077644D01*
X0041716Y0077644D01*
X0041402Y0077330D01*
X0041088Y0077644D01*
X0041024Y0077644D01*
X0047807Y0089370D01*
X0058726Y0089370D01*
X0059010Y0089255D01*
X0059283Y0089370D01*
X0059580Y0089370D01*
X0059797Y0089587D01*
X0060079Y0089706D01*
X0060190Y0089981D01*
X0060400Y0090191D01*
X0060400Y0090497D01*
X0060681Y0091189D01*
X0060853Y0091189D01*
X0061875Y0091613D01*
X0062658Y0092395D01*
X0063081Y0093417D01*
X0063081Y0094524D01*
X0062658Y0095546D01*
X0061875Y0096328D01*
X0061038Y0096675D01*
X0061348Y0096675D01*
X0061934Y0097261D01*
X0061934Y0103089D01*
X0061348Y0103675D01*
X0052252Y0103675D01*
X0051666Y0103089D01*
X0051666Y0101775D01*
X0048770Y0101775D01*
X0048658Y0102046D01*
X0047875Y0102828D01*
X0046853Y0103252D01*
X0045747Y0103252D01*
X0044725Y0102828D01*
X0043942Y0102046D01*
X0043830Y0101775D01*
X0041934Y0101775D01*
X0041934Y0103089D01*
X0041348Y0103675D01*
X0032252Y0103675D01*
X0031666Y0103089D01*
X0031666Y0097261D01*
X0032252Y0096675D01*
X0041348Y0096675D01*
X0041934Y0097261D01*
X0041934Y0098575D01*
X0044262Y0098575D01*
X0044725Y0098113D01*
X0045747Y0097689D01*
X0046853Y0097689D01*
X0047875Y0098113D01*
X0048338Y0098575D01*
X0051666Y0098575D01*
X0051666Y0097261D01*
X0052252Y0096675D01*
X0054062Y0096675D01*
X0053225Y0096328D01*
X0052442Y0095546D01*
X0052370Y0095370D01*
X0045724Y0095370D01*
X0045594Y0095457D01*
X0045161Y0095370D01*
X0044720Y0095370D01*
X0044610Y0095260D01*
X0044457Y0095230D01*
X0044212Y0094862D01*
X0043900Y0094550D01*
X0043900Y0094394D01*
X0033029Y0078086D01*
X0032725Y0077804D01*
X0032719Y0077644D01*
X0031716Y0077644D01*
X0031131Y0077058D01*
X0031131Y0066387D01*
X0031716Y0065801D01*
X0036088Y0065801D01*
X0036402Y0066115D01*
X0036716Y0065801D01*
X0041088Y0065801D01*
X0041402Y0066115D01*
X0041716Y0065801D01*
X0042501Y0065801D01*
X0042500Y0063542D01*
X0042225Y0063428D01*
X0041442Y0062646D01*
X0041019Y0061624D01*
X0041019Y0060517D01*
X0041442Y0059495D01*
X0042225Y0058713D01*
X0043247Y0058289D01*
X0044353Y0058289D01*
X0045375Y0058713D01*
X0046158Y0059495D01*
X0046581Y0060517D01*
X0046581Y0061456D01*
X0047225Y0060813D01*
X0048247Y0060389D01*
X0049353Y0060389D01*
X0050375Y0060813D01*
X0051119Y0061556D01*
X0051119Y0061217D01*
X0051542Y0060195D01*
X0052325Y0059413D01*
X0053347Y0058989D01*
X0054453Y0058989D01*
X0055475Y0059413D01*
X0056258Y0060195D01*
X0056681Y0061217D01*
X0056681Y0062324D01*
X0056258Y0063346D01*
X0055475Y0064128D01*
X0055466Y0064132D01*
X0055563Y0065543D01*
X0055629Y0065615D01*
X0055619Y0065801D01*
X0056088Y0065801D01*
X0056120Y0065832D01*
X0056271Y0065681D01*
X0056590Y0065497D01*
X0056946Y0065401D01*
X0058502Y0065401D01*
X0058502Y0071322D01*
X0059302Y0071322D01*
X0059302Y0065401D01*
X0060858Y0065401D01*
X0061214Y0065497D01*
X0061534Y0065681D01*
X0061685Y0065832D01*
X0061716Y0065801D01*
X0066088Y0065801D01*
X0066674Y0066387D01*
X0066674Y0077058D01*
X0066088Y0077644D01*
X0065302Y0077644D01*
X0065302Y0079077D01*
X0064482Y0079898D01*
X0062990Y0081390D01*
X0062839Y0081700D01*
X0062596Y0081784D01*
X0062413Y0081967D01*
X0062069Y0081967D01*
X0054781Y0084489D01*
X0054781Y0084524D01*
X0054358Y0085546D01*
X0053575Y0086328D01*
X0052553Y0086752D01*
X0051447Y0086752D01*
X0050425Y0086328D01*
X0049642Y0085546D01*
X0049219Y0084524D01*
X0049219Y0083417D01*
X0049642Y0082395D01*
X0050425Y0081613D01*
X0051447Y0081189D01*
X0052553Y0081189D01*
X0053575Y0081613D01*
X0053821Y0081859D01*
X0061071Y0079349D01*
X0062502Y0077918D01*
X0062502Y0077644D01*
X0061716Y0077644D01*
X0061685Y0077612D01*
X0061534Y0077764D01*
X0061214Y0077948D01*
X0060858Y0078044D01*
X0059302Y0078044D01*
X0059302Y0072122D01*
X0058502Y0072122D01*
X0058502Y0078044D01*
X0056946Y0078044D01*
X0058502Y0077478D02*
X0059302Y0077478D01*
X0059302Y0076680D02*
X0058502Y0076680D01*
X0058502Y0075881D02*
X0059302Y0075881D01*
X0059302Y0075083D02*
X0058502Y0075083D01*
X0058502Y0074284D02*
X0059302Y0074284D01*
X0059302Y0073486D02*
X0058502Y0073486D01*
X0058502Y0072687D02*
X0059302Y0072687D01*
X0059302Y0071090D02*
X0058502Y0071090D01*
X0058502Y0070292D02*
X0059302Y0070292D01*
X0059302Y0069493D02*
X0058502Y0069493D01*
X0058502Y0068695D02*
X0059302Y0068695D01*
X0059302Y0067896D02*
X0058502Y0067896D01*
X0058502Y0067098D02*
X0059302Y0067098D01*
X0059302Y0066299D02*
X0058502Y0066299D01*
X0058502Y0065501D02*
X0059302Y0065501D01*
X0061221Y0065501D02*
X0076600Y0065501D01*
X0076600Y0066299D02*
X0066586Y0066299D01*
X0066674Y0067098D02*
X0076600Y0067098D01*
X0076711Y0067896D02*
X0066674Y0067896D01*
X0066674Y0068695D02*
X0085400Y0068695D01*
X0085400Y0069493D02*
X0066674Y0069493D01*
X0066674Y0070292D02*
X0085400Y0070292D01*
X0085400Y0071090D02*
X0066674Y0071090D01*
X0066674Y0071889D02*
X0085400Y0071889D01*
X0085400Y0072687D02*
X0066674Y0072687D01*
X0066674Y0073486D02*
X0085400Y0073486D01*
X0085400Y0074284D02*
X0079137Y0074284D01*
X0079381Y0081471D02*
X0080759Y0081471D01*
X0080290Y0084665D02*
X0079575Y0084665D01*
X0075942Y0082269D02*
X0061195Y0082269D01*
X0061833Y0080567D02*
X0063902Y0078498D01*
X0063902Y0071722D01*
X0066674Y0074284D02*
X0074463Y0074284D01*
X0073607Y0075083D02*
X0066674Y0075083D01*
X0066674Y0075881D02*
X0073011Y0075881D01*
X0072680Y0076680D02*
X0066674Y0076680D01*
X0066254Y0077478D02*
X0072500Y0077478D01*
X0072500Y0078277D02*
X0065302Y0078277D01*
X0065302Y0079075D02*
X0072603Y0079075D01*
X0072934Y0079874D02*
X0064506Y0079874D01*
X0063708Y0080672D02*
X0073421Y0080672D01*
X0074219Y0081471D02*
X0062951Y0081471D01*
X0061833Y0080567D02*
X0052000Y0083970D01*
X0050768Y0081471D02*
X0043237Y0081471D01*
X0043699Y0082269D02*
X0049768Y0082269D01*
X0049364Y0083068D02*
X0044161Y0083068D01*
X0044623Y0083866D02*
X0049219Y0083866D01*
X0049277Y0084665D02*
X0045085Y0084665D01*
X0045547Y0085463D02*
X0049608Y0085463D01*
X0050358Y0086262D02*
X0046009Y0086262D01*
X0046471Y0087060D02*
X0072523Y0087060D01*
X0072500Y0087859D02*
X0046933Y0087859D01*
X0047395Y0088657D02*
X0072500Y0088657D01*
X0072761Y0089456D02*
X0059665Y0089456D01*
X0060400Y0090254D02*
X0073092Y0090254D01*
X0073801Y0091053D02*
X0060626Y0091053D01*
X0059000Y0090770D02*
X0060300Y0093970D01*
X0061117Y0096642D02*
X0072696Y0096642D01*
X0072500Y0097441D02*
X0061934Y0097441D01*
X0061934Y0098239D02*
X0072500Y0098239D01*
X0072588Y0099038D02*
X0061934Y0099038D01*
X0061934Y0099836D02*
X0072919Y0099836D01*
X0073383Y0100635D02*
X0061934Y0100635D01*
X0061934Y0101434D02*
X0074182Y0101434D01*
X0074996Y0103615D02*
X0074337Y0103951D01*
X0073738Y0104386D01*
X0073215Y0104909D01*
X0072780Y0105507D01*
X0072444Y0106166D01*
X0072216Y0106870D01*
X0072105Y0107570D01*
X0076400Y0107570D01*
X0076400Y0103275D01*
X0075699Y0103386D01*
X0074996Y0103615D01*
X0074575Y0103829D02*
X0030132Y0103829D01*
X0029071Y0103031D02*
X0031666Y0103031D01*
X0031666Y0102232D02*
X0028010Y0102232D01*
X0027000Y0101434D02*
X0031666Y0101434D01*
X0031666Y0100635D02*
X0027000Y0100635D01*
X0027000Y0099836D02*
X0031666Y0099836D01*
X0031666Y0099038D02*
X0027000Y0099038D01*
X0027000Y0098239D02*
X0031666Y0098239D01*
X0031666Y0097441D02*
X0027000Y0097441D01*
X0027000Y0096642D02*
X0053983Y0096642D01*
X0052740Y0095844D02*
X0027000Y0095844D01*
X0027000Y0095045D02*
X0044334Y0095045D01*
X0043802Y0094247D02*
X0027000Y0094247D01*
X0027000Y0093448D02*
X0043269Y0093448D01*
X0042737Y0092650D02*
X0027000Y0092650D01*
X0027000Y0091851D02*
X0042205Y0091851D01*
X0041673Y0091053D02*
X0027000Y0091053D01*
X0027000Y0090254D02*
X0041140Y0090254D01*
X0040608Y0089456D02*
X0027000Y0089456D01*
X0027000Y0088657D02*
X0040076Y0088657D01*
X0039543Y0087859D02*
X0027000Y0087859D01*
X0027000Y0087060D02*
X0039011Y0087060D01*
X0038479Y0086262D02*
X0027000Y0086262D01*
X0027000Y0085463D02*
X0037946Y0085463D01*
X0037414Y0084665D02*
X0027000Y0084665D01*
X0027000Y0083866D02*
X0036882Y0083866D01*
X0036349Y0083068D02*
X0027000Y0083068D01*
X0027000Y0082269D02*
X0035817Y0082269D01*
X0035285Y0081471D02*
X0027000Y0081471D01*
X0027000Y0080672D02*
X0034753Y0080672D01*
X0034220Y0079874D02*
X0027000Y0079874D01*
X0027000Y0079075D02*
X0033688Y0079075D01*
X0033156Y0078277D02*
X0027000Y0078277D01*
X0027000Y0077478D02*
X0031551Y0077478D01*
X0031131Y0076680D02*
X0027000Y0076680D01*
X0027000Y0075881D02*
X0031131Y0075881D01*
X0031131Y0075083D02*
X0027000Y0075083D01*
X0027000Y0074284D02*
X0031131Y0074284D01*
X0031131Y0073486D02*
X0027000Y0073486D01*
X0027000Y0072687D02*
X0031131Y0072687D01*
X0031131Y0071889D02*
X0027000Y0071889D01*
X0027000Y0071090D02*
X0031131Y0071090D01*
X0031131Y0070292D02*
X0027000Y0070292D01*
X0027000Y0069493D02*
X0031131Y0069493D01*
X0031131Y0068695D02*
X0027000Y0068695D01*
X0027000Y0067896D02*
X0031131Y0067896D01*
X0031131Y0067098D02*
X0027000Y0067098D01*
X0027000Y0066299D02*
X0031219Y0066299D01*
X0033902Y0071722D02*
X0034102Y0077173D01*
X0045300Y0093970D01*
X0054800Y0093970D01*
X0051666Y0097441D02*
X0041934Y0097441D01*
X0041934Y0098239D02*
X0044598Y0098239D01*
X0044128Y0102232D02*
X0041934Y0102232D01*
X0041934Y0103031D02*
X0045213Y0103031D01*
X0047387Y0103031D02*
X0051666Y0103031D01*
X0051666Y0102232D02*
X0048471Y0102232D01*
X0048002Y0098239D02*
X0051666Y0098239D01*
X0049300Y0107970D02*
X0076800Y0107970D01*
X0077200Y0107822D02*
X0085400Y0107822D01*
X0085400Y0107583D02*
X0085400Y0108358D01*
X0077676Y0108358D01*
X0077676Y0108362D01*
X0077677Y0108370D01*
X0077200Y0108370D01*
X0077200Y0107570D01*
X0077677Y0107570D01*
X0077676Y0107579D01*
X0077676Y0107583D01*
X0085400Y0107583D01*
X0085400Y0103829D02*
X0079025Y0103829D01*
X0077748Y0102232D02*
X0085400Y0102232D01*
X0085400Y0103031D02*
X0061934Y0103031D01*
X0061934Y0102232D02*
X0075852Y0102232D01*
X0076400Y0103829D02*
X0077200Y0103829D01*
X0077200Y0104628D02*
X0076400Y0104628D01*
X0076400Y0105426D02*
X0077200Y0105426D01*
X0077200Y0106225D02*
X0076400Y0106225D01*
X0076400Y0107023D02*
X0077200Y0107023D01*
X0076400Y0107822D02*
X0035438Y0107822D01*
X0034377Y0107023D02*
X0072191Y0107023D01*
X0072425Y0106225D02*
X0033316Y0106225D01*
X0032254Y0105426D02*
X0072839Y0105426D01*
X0073496Y0104628D02*
X0031193Y0104628D01*
X0029451Y0107822D02*
X0021100Y0107822D01*
X0021100Y0107115D02*
X0021100Y0108826D01*
X0020445Y0110406D01*
X0019236Y0111616D01*
X0017655Y0112270D01*
X0015945Y0112270D01*
X0014364Y0111616D01*
X0013815Y0111067D01*
X0012661Y0111545D01*
X0008200Y0111545D01*
X0008200Y0114396D01*
X0012661Y0114396D01*
X0013815Y0114874D01*
X0014364Y0114325D01*
X0015945Y0113670D01*
X0017655Y0113670D01*
X0019236Y0114325D01*
X0020445Y0115535D01*
X0021100Y0117115D01*
X0021100Y0118826D01*
X0020445Y0120406D01*
X0019236Y0121616D01*
X0017655Y0122270D01*
X0015945Y0122270D01*
X0014364Y0121616D01*
X0013815Y0121067D01*
X0012661Y0121545D01*
X0008200Y0121545D01*
X0008200Y0124396D01*
X0012661Y0124396D01*
X0013815Y0124874D01*
X0014364Y0124325D01*
X0015945Y0123670D01*
X0017655Y0123670D01*
X0019236Y0124325D01*
X0020445Y0125535D01*
X0021100Y0127115D01*
X0021100Y0128826D01*
X0020445Y0130406D01*
X0019236Y0131616D01*
X0017655Y0132270D01*
X0015945Y0132270D01*
X0014364Y0131616D01*
X0013815Y0131067D01*
X0012661Y0131545D01*
X0008200Y0131545D01*
X0008200Y0134396D01*
X0012661Y0134396D01*
X0013815Y0134874D01*
X0014364Y0134325D01*
X0015945Y0133670D01*
X0017655Y0133670D01*
X0019236Y0134325D01*
X0020445Y0135535D01*
X0021100Y0137115D01*
X0021100Y0138826D01*
X0020445Y0140406D01*
X0019236Y0141616D01*
X0017655Y0142270D01*
X0015945Y0142270D01*
X0014364Y0141616D01*
X0013815Y0141067D01*
X0012661Y0141545D01*
X0008200Y0141545D01*
X0008200Y0144396D01*
X0012661Y0144396D01*
X0013815Y0144874D01*
X0014364Y0144325D01*
X0015945Y0143670D01*
X0017655Y0143670D01*
X0019236Y0144325D01*
X0020445Y0145535D01*
X0021100Y0147115D01*
X0021100Y0148826D01*
X0020445Y0150406D01*
X0019236Y0151616D01*
X0017655Y0152270D01*
X0015945Y0152270D01*
X0014364Y0151616D01*
X0013815Y0151067D01*
X0012661Y0151545D01*
X0008200Y0151545D01*
X0008200Y0154396D01*
X0012661Y0154396D01*
X0013815Y0154874D01*
X0014364Y0154325D01*
X0015945Y0153670D01*
X0017655Y0153670D01*
X0019236Y0154325D01*
X0020445Y0155535D01*
X0021100Y0157115D01*
X0021100Y0158826D01*
X0020445Y0160406D01*
X0019236Y0161616D01*
X0017655Y0162270D01*
X0015945Y0162270D01*
X0014364Y0161616D01*
X0013815Y0161067D01*
X0012661Y0161545D01*
X0008200Y0161545D01*
X0008200Y0164396D01*
X0012661Y0164396D01*
X0013815Y0164874D01*
X0014364Y0164325D01*
X0015945Y0163670D01*
X0017655Y0163670D01*
X0019236Y0164325D01*
X0020445Y0165535D01*
X0021100Y0167115D01*
X0021100Y0168826D01*
X0020445Y0170406D01*
X0019236Y0171616D01*
X0017655Y0172270D01*
X0015945Y0172270D01*
X0014364Y0171616D01*
X0013815Y0171067D01*
X0012661Y0171545D01*
X0008200Y0171545D01*
X0008200Y0174396D01*
X0012661Y0174396D01*
X0013815Y0174874D01*
X0014364Y0174325D01*
X0015945Y0173670D01*
X0017655Y0173670D01*
X0019236Y0174325D01*
X0020445Y0175535D01*
X0021100Y0177115D01*
X0021100Y0178826D01*
X0020445Y0180406D01*
X0019236Y0181616D01*
X0017655Y0182270D01*
X0015945Y0182270D01*
X0014364Y0181616D01*
X0013815Y0181067D01*
X0012661Y0181545D01*
X0008200Y0181545D01*
X0008200Y0184396D01*
X0012661Y0184396D01*
X0013815Y0184874D01*
X0014364Y0184325D01*
X0015945Y0183670D01*
X0017655Y0183670D01*
X0019236Y0184325D01*
X0020445Y0185535D01*
X0021100Y0187115D01*
X0021100Y0188826D01*
X0020445Y0190406D01*
X0019236Y0191616D01*
X0017655Y0192270D01*
X0015945Y0192270D01*
X0014364Y0191616D01*
X0013815Y0191067D01*
X0012661Y0191545D01*
X0008200Y0191545D01*
X0008200Y0193996D01*
X0012341Y0193996D01*
X0013109Y0194148D01*
X0013722Y0194402D01*
X0013738Y0194386D01*
X0014337Y0193951D01*
X0014996Y0193615D01*
X0015699Y0193386D01*
X0016400Y0193275D01*
X0016400Y0197570D01*
X0017200Y0197570D01*
X0017200Y0193275D01*
X0017901Y0193386D01*
X0018604Y0193615D01*
X0019263Y0193951D01*
X0019862Y0194386D01*
X0020385Y0194909D01*
X0020820Y0195507D01*
X0021156Y0196166D01*
X0021384Y0196870D01*
X0021495Y0197570D01*
X0017200Y0197570D01*
X0017200Y0198370D01*
X0021495Y0198370D01*
X0021384Y0199071D01*
X0021156Y0199775D01*
X0020820Y0200434D01*
X0020385Y0201032D01*
X0019862Y0201555D01*
X0019263Y0201990D01*
X0018604Y0202326D01*
X0017901Y0202555D01*
X0017200Y0202666D01*
X0017200Y0198371D01*
X0016400Y0198371D01*
X0016400Y0202666D01*
X0015699Y0202555D01*
X0014996Y0202326D01*
X0014337Y0201990D01*
X0013738Y0201555D01*
X0013722Y0201539D01*
X0013109Y0201793D01*
X0012341Y0201945D01*
X0008200Y0201945D01*
X0008200Y0204396D01*
X0012661Y0204396D01*
X0013815Y0204874D01*
X0014364Y0204325D01*
X0015945Y0203670D01*
X0017655Y0203670D01*
X0019236Y0204325D01*
X0020445Y0205535D01*
X0021100Y0207115D01*
X0021100Y0208826D01*
X0020445Y0210406D01*
X0019236Y0211616D01*
X0017655Y0212270D01*
X0015945Y0212270D01*
X0014364Y0211616D01*
X0013815Y0211067D01*
X0012661Y0211545D01*
X0008200Y0211545D01*
X0008200Y0214396D01*
X0012661Y0214396D01*
X0013815Y0214874D01*
X0014364Y0214325D01*
X0015945Y0213670D01*
X0017655Y0213670D01*
X0019236Y0214325D01*
X0020445Y0215535D01*
X0020874Y0216570D01*
X0041607Y0216570D01*
X0051681Y0213733D01*
X0051498Y0213733D01*
X0051141Y0213637D01*
X0050822Y0213453D01*
X0050562Y0213192D01*
X0050377Y0212873D01*
X0050282Y0212517D01*
X0050282Y0210358D01*
X0052869Y0210358D01*
X0052869Y0209583D01*
X0050282Y0209583D01*
X0050282Y0207424D01*
X0050377Y0207068D01*
X0050562Y0206749D01*
X0050822Y0206488D01*
X0051141Y0206304D01*
X0051498Y0206208D01*
X0052869Y0206208D01*
X0052869Y0209583D01*
X0053644Y0209583D01*
X0053644Y0206208D01*
X0054600Y0206208D01*
X0054600Y0204540D01*
X0054570Y0204244D01*
X0052869Y0204244D01*
X0052869Y0200489D01*
X0052069Y0200489D01*
X0052069Y0204244D01*
X0049923Y0204244D01*
X0049567Y0204149D01*
X0049247Y0203965D01*
X0048987Y0203704D01*
X0048802Y0203385D01*
X0048707Y0203029D01*
X0048707Y0200489D01*
X0052069Y0200489D01*
X0052069Y0199689D01*
X0048707Y0199689D01*
X0048707Y0198996D01*
X0048375Y0199328D01*
X0047353Y0199752D01*
X0046247Y0199752D01*
X0045225Y0199328D01*
X0044548Y0198651D01*
X0044493Y0198706D01*
X0044493Y0203259D01*
X0043907Y0203844D01*
X0042531Y0203844D01*
X0042531Y0206807D01*
X0042918Y0207194D01*
X0042918Y0212747D01*
X0042332Y0213333D01*
X0038354Y0213333D01*
X0037769Y0212747D01*
X0037769Y0207194D01*
X0038354Y0206608D01*
X0039731Y0206608D01*
X0039731Y0203844D01*
X0038354Y0203844D01*
X0037769Y0203259D01*
X0037769Y0196918D01*
X0038354Y0196333D01*
X0042907Y0196333D01*
X0043669Y0195570D01*
X0044370Y0195570D01*
X0044442Y0195395D01*
X0045225Y0194613D01*
X0046247Y0194189D01*
X0047353Y0194189D01*
X0048375Y0194613D01*
X0049158Y0195395D01*
X0049448Y0196096D01*
X0049567Y0196028D01*
X0049812Y0195962D01*
X0047720Y0193870D01*
X0046900Y0193050D01*
X0046900Y0169550D01*
X0045529Y0168179D01*
X0045353Y0168252D01*
X0044247Y0168252D01*
X0043225Y0167828D01*
X0042442Y0167046D01*
X0042019Y0166024D01*
X0042019Y0164917D01*
X0042442Y0163895D01*
X0043225Y0163113D01*
X0044247Y0162689D01*
X0045353Y0162689D01*
X0046375Y0163113D01*
X0047158Y0163895D01*
X0047581Y0164917D01*
X0047581Y0166024D01*
X0047508Y0166199D01*
X0049700Y0168391D01*
X0049700Y0191891D01*
X0050288Y0192479D01*
X0050288Y0186682D01*
X0050874Y0186096D01*
X0054493Y0186096D01*
X0053942Y0185546D01*
X0053519Y0184524D01*
X0053519Y0183417D01*
X0053942Y0182395D01*
X0054725Y0181613D01*
X0055000Y0181499D01*
X0055000Y0179266D01*
X0052252Y0179266D01*
X0051666Y0178680D01*
X0051666Y0172852D01*
X0052252Y0172266D01*
X0061348Y0172266D01*
X0061934Y0172852D01*
X0061934Y0178680D01*
X0061348Y0179266D01*
X0058600Y0179266D01*
X0058600Y0182337D01*
X0058658Y0182395D01*
X0059081Y0183417D01*
X0059081Y0184524D01*
X0058658Y0185546D01*
X0058600Y0185604D01*
X0058600Y0186096D01*
X0061993Y0186096D01*
X0061442Y0185546D01*
X0061019Y0184524D01*
X0061019Y0183417D01*
X0061442Y0182395D01*
X0062225Y0181613D01*
X0063247Y0181189D01*
X0064353Y0181189D01*
X0065375Y0181613D01*
X0065519Y0181756D01*
X0065519Y0181417D01*
X0065942Y0180395D01*
X0066725Y0179613D01*
X0067747Y0179189D01*
X0068853Y0179189D01*
X0069875Y0179613D01*
X0070658Y0180395D01*
X0071081Y0181417D01*
X0071081Y0182524D01*
X0070658Y0183546D01*
X0069875Y0184328D01*
X0069700Y0184401D01*
X0069700Y0188522D01*
X0070534Y0189689D01*
X0071353Y0189689D01*
X0072375Y0190113D01*
X0073158Y0190895D01*
X0073581Y0191917D01*
X0073581Y0193024D01*
X0073158Y0194046D01*
X0072375Y0194828D01*
X0071353Y0195252D01*
X0070247Y0195252D01*
X0069225Y0194828D01*
X0068442Y0194046D01*
X0068019Y0193024D01*
X0068019Y0191917D01*
X0068263Y0191328D01*
X0067228Y0189879D01*
X0066900Y0189550D01*
X0066900Y0189419D01*
X0066824Y0189312D01*
X0066900Y0188855D01*
X0066900Y0184401D01*
X0066725Y0184328D01*
X0066581Y0184185D01*
X0066581Y0184524D01*
X0066158Y0185546D01*
X0065375Y0186328D01*
X0065200Y0186401D01*
X0065200Y0193047D01*
X0065287Y0193176D01*
X0065200Y0193609D01*
X0065200Y0194050D01*
X0065090Y0194161D01*
X0065059Y0194314D01*
X0064692Y0194558D01*
X0064380Y0194870D01*
X0064224Y0194870D01*
X0063192Y0195558D01*
X0062880Y0195870D01*
X0062724Y0195870D01*
X0062594Y0195957D01*
X0062161Y0195870D01*
X0059612Y0195870D01*
X0059348Y0196333D01*
X0063907Y0196333D01*
X0064145Y0196570D01*
X0072726Y0196570D01*
X0073155Y0195535D01*
X0074364Y0194325D01*
X0075945Y0193670D01*
X0077655Y0193670D01*
X0079236Y0194325D01*
X0079785Y0194874D01*
X0080939Y0194396D01*
X0085400Y0194396D01*
X0085400Y0191545D01*
X0080939Y0191545D01*
X0079785Y0191067D01*
X0079236Y0191616D01*
X0077655Y0192270D01*
X0075945Y0192270D01*
X0074364Y0191616D01*
X0073155Y0190406D01*
X0072500Y0188826D01*
X0072500Y0187115D01*
X0073155Y0185535D01*
X0074364Y0184325D01*
X0075945Y0183670D01*
X0077655Y0183670D01*
X0079236Y0184325D01*
X0079785Y0184874D01*
X0080939Y0184396D01*
X0085400Y0184396D01*
X0085400Y0181545D01*
X0080939Y0181545D01*
X0079785Y0181067D01*
X0079236Y0181616D01*
X0077655Y0182270D01*
X0075945Y0182270D01*
X0074364Y0181616D01*
X0073155Y0180406D01*
X0072500Y0178826D01*
X0072500Y0177115D01*
X0073155Y0175535D01*
X0074364Y0174325D01*
X0075945Y0173670D01*
X0077655Y0173670D01*
X0079236Y0174325D01*
X0079785Y0174874D01*
X0080939Y0174396D01*
X0085400Y0174396D01*
X0085400Y0171545D01*
X0080939Y0171545D01*
X0079785Y0171067D01*
X0079236Y0171616D01*
X0077655Y0172270D01*
X0075945Y0172270D01*
X0074364Y0171616D01*
X0073155Y0170406D01*
X0072500Y0168826D01*
X0072500Y0167115D01*
X0073155Y0165535D01*
X0074364Y0164325D01*
X0075945Y0163670D01*
X0077655Y0163670D01*
X0079236Y0164325D01*
X0079785Y0164874D01*
X0080939Y0164396D01*
X0085400Y0164396D01*
X0085400Y0161545D01*
X0080939Y0161545D01*
X0079785Y0161067D01*
X0079236Y0161616D01*
X0077655Y0162270D01*
X0075945Y0162270D01*
X0074364Y0161616D01*
X0073155Y0160406D01*
X0072500Y0158826D01*
X0072500Y0158597D01*
X0066548Y0156856D01*
X0066117Y0156823D01*
X0066009Y0156698D01*
X0065850Y0156651D01*
X0065643Y0156272D01*
X0061390Y0151333D01*
X0058354Y0151333D01*
X0057769Y0150747D01*
X0057769Y0145194D01*
X0058354Y0144608D01*
X0059731Y0144608D01*
X0059731Y0141844D01*
X0058354Y0141844D01*
X0057769Y0141259D01*
X0057769Y0134918D01*
X0058317Y0134370D01*
X0055849Y0134370D01*
X0055952Y0134473D01*
X0056136Y0134792D01*
X0056231Y0135148D01*
X0056231Y0137689D01*
X0052869Y0137689D01*
X0052869Y0138489D01*
X0052069Y0138489D01*
X0052069Y0142244D01*
X0049923Y0142244D01*
X0049567Y0142149D01*
X0049247Y0141965D01*
X0048987Y0141704D01*
X0048802Y0141385D01*
X0048707Y0141029D01*
X0048707Y0138489D01*
X0052069Y0138489D01*
X0052069Y0137689D01*
X0048707Y0137689D01*
X0048707Y0135543D01*
X0048200Y0136050D01*
X0048200Y0138550D01*
X0047380Y0139370D01*
X0044493Y0139370D01*
X0044493Y0141259D01*
X0043907Y0141844D01*
X0041743Y0141844D01*
X0041743Y0144608D01*
X0042332Y0144608D01*
X0042918Y0145194D01*
X0042918Y0147109D01*
X0043200Y0147391D01*
X0043200Y0148550D01*
X0042918Y0148832D01*
X0042918Y0150747D01*
X0042332Y0151333D01*
X0038354Y0151333D01*
X0037769Y0150747D01*
X0037769Y0145194D01*
X0038354Y0144608D01*
X0038943Y0144608D01*
X0038943Y0141844D01*
X0038354Y0141844D01*
X0037769Y0141259D01*
X0037769Y0134918D01*
X0038317Y0134370D01*
X0035849Y0134370D01*
X0035952Y0134473D01*
X0036136Y0134792D01*
X0036231Y0135148D01*
X0036231Y0137689D01*
X0032869Y0137689D01*
X0032869Y0138489D01*
X0032069Y0138489D01*
X0032069Y0142244D01*
X0029923Y0142244D01*
X0029567Y0142149D01*
X0029247Y0141965D01*
X0028987Y0141704D01*
X0028802Y0141385D01*
X0028707Y0141029D01*
X0028707Y0138489D01*
X0032069Y0138489D01*
X0032069Y0137689D01*
X0028707Y0137689D01*
X0028707Y0135148D01*
X0028763Y0134941D01*
X0028375Y0135328D01*
X0027353Y0135752D01*
X0026247Y0135752D01*
X0025225Y0135328D01*
X0024442Y0134546D01*
X0024019Y0133524D01*
X0024019Y0132417D01*
X0024442Y0131395D01*
X0025225Y0130613D01*
X0026247Y0130189D01*
X0027353Y0130189D01*
X0028375Y0130613D01*
X0029158Y0131395D01*
X0029189Y0131470D01*
X0029921Y0131470D01*
X0030021Y0131570D01*
X0030836Y0131570D01*
X0030288Y0131022D01*
X0030288Y0124682D01*
X0030519Y0124452D01*
X0029547Y0124452D01*
X0028525Y0124028D01*
X0027742Y0123246D01*
X0027319Y0122224D01*
X0027319Y0121117D01*
X0027742Y0120095D01*
X0028525Y0119313D01*
X0029547Y0118889D01*
X0030653Y0118889D01*
X0031675Y0119313D01*
X0032458Y0120095D01*
X0032582Y0120396D01*
X0033763Y0120669D01*
X0033841Y0120629D01*
X0034479Y0120834D01*
X0035000Y0120954D01*
X0035000Y0119266D01*
X0032252Y0119266D01*
X0031666Y0118680D01*
X0031666Y0112852D01*
X0032252Y0112266D01*
X0041348Y0112266D01*
X0041934Y0112852D01*
X0041934Y0118680D01*
X0041348Y0119266D01*
X0038600Y0119266D01*
X0038600Y0123035D01*
X0038742Y0123311D01*
X0038600Y0123753D01*
X0038600Y0124096D01*
X0042726Y0124096D01*
X0043312Y0124682D01*
X0043312Y0131022D01*
X0042764Y0131570D01*
X0043720Y0131570D01*
X0045400Y0129891D01*
X0045400Y0125401D01*
X0045225Y0125328D01*
X0044442Y0124546D01*
X0044019Y0123524D01*
X0044019Y0122417D01*
X0044442Y0121395D01*
X0045225Y0120613D01*
X0046247Y0120189D01*
X0047353Y0120189D01*
X0048375Y0120613D01*
X0049158Y0121395D01*
X0049581Y0122417D01*
X0049581Y0123524D01*
X0049158Y0124546D01*
X0048375Y0125328D01*
X0048200Y0125401D01*
X0048200Y0131050D01*
X0047380Y0131870D01*
X0044880Y0134370D01*
X0043945Y0134370D01*
X0044493Y0134918D01*
X0044493Y0136570D01*
X0045400Y0136570D01*
X0045400Y0134891D01*
X0046220Y0134070D01*
X0048720Y0131570D01*
X0050836Y0131570D01*
X0050288Y0131022D01*
X0050288Y0124682D01*
X0050874Y0124096D01*
X0055000Y0124096D01*
X0055000Y0119266D01*
X0052252Y0119266D01*
X0051666Y0118680D01*
X0051666Y0117270D01*
X0048554Y0117270D01*
X0047500Y0116216D01*
X0043054Y0111770D01*
X0035426Y0111770D01*
X0034813Y0111857D01*
X0034698Y0111770D01*
X0034554Y0111770D01*
X0034117Y0111333D01*
X0024598Y0104170D01*
X0024454Y0104170D01*
X0024017Y0103733D01*
X0023522Y0103360D01*
X0023502Y0103218D01*
X0023400Y0103116D01*
X0023400Y0102497D01*
X0023313Y0101884D01*
X0023400Y0101769D01*
X0023400Y0054204D01*
X0022875Y0054728D01*
X0021853Y0055152D01*
X0020747Y0055152D01*
X0019725Y0054728D01*
X0019304Y0054308D01*
X0019176Y0054316D01*
X0018943Y0054113D01*
X0018200Y0054148D01*
X0018200Y0057385D01*
X0017853Y0057731D01*
X0018060Y0057850D01*
X0018320Y0058111D01*
X0018505Y0058430D01*
X0018600Y0058786D01*
X0018600Y0062570D01*
X0009600Y0062570D01*
X0009600Y0063370D01*
X0018600Y0063370D01*
X0018600Y0067155D01*
X0018505Y0067511D01*
X0018320Y0067830D01*
X0018060Y0068091D01*
X0017740Y0068275D01*
X0017384Y0068370D01*
X0009600Y0068370D01*
X0009600Y0063371D01*
X0008800Y0063371D01*
X0008800Y0068370D01*
X0008200Y0068370D01*
X0008200Y0074396D01*
X0012661Y0074396D01*
X0013815Y0074874D01*
X0014364Y0074325D01*
X0015945Y0073670D01*
X0017655Y0073670D01*
X0019236Y0074325D01*
X0020445Y0075535D01*
X0021100Y0077115D01*
X0021100Y0078826D01*
X0020445Y0080406D01*
X0019236Y0081616D01*
X0017655Y0082270D01*
X0015945Y0082270D01*
X0014364Y0081616D01*
X0013815Y0081067D01*
X0012661Y0081545D01*
X0008200Y0081545D01*
X0008200Y0083996D01*
X0012341Y0083996D01*
X0013109Y0084148D01*
X0013722Y0084402D01*
X0013738Y0084386D01*
X0014337Y0083951D01*
X0014996Y0083615D01*
X0015699Y0083386D01*
X0016400Y0083275D01*
X0016400Y0087570D01*
X0017200Y0087570D01*
X0017200Y0083275D01*
X0017901Y0083386D01*
X0018604Y0083615D01*
X0019263Y0083951D01*
X0019862Y0084386D01*
X0020385Y0084909D01*
X0020820Y0085507D01*
X0021156Y0086166D01*
X0021384Y0086870D01*
X0021495Y0087570D01*
X0017200Y0087570D01*
X0017200Y0088370D01*
X0021495Y0088370D01*
X0021384Y0089071D01*
X0021156Y0089775D01*
X0020820Y0090434D01*
X0020385Y0091032D01*
X0019862Y0091555D01*
X0019263Y0091990D01*
X0018604Y0092326D01*
X0017901Y0092555D01*
X0017200Y0092666D01*
X0017200Y0088371D01*
X0016400Y0088371D01*
X0016400Y0092666D01*
X0015699Y0092555D01*
X0014996Y0092326D01*
X0014337Y0091990D01*
X0013738Y0091555D01*
X0013722Y0091539D01*
X0013109Y0091793D01*
X0012341Y0091945D01*
X0008200Y0091945D01*
X0008200Y0094396D01*
X0012661Y0094396D01*
X0013815Y0094874D01*
X0014364Y0094325D01*
X0015945Y0093670D01*
X0017655Y0093670D01*
X0019236Y0094325D01*
X0020445Y0095535D01*
X0021100Y0097115D01*
X0021100Y0098826D01*
X0020445Y0100406D01*
X0019236Y0101616D01*
X0017655Y0102270D01*
X0015945Y0102270D01*
X0014364Y0101616D01*
X0013815Y0101067D01*
X0012661Y0101545D01*
X0008200Y0101545D01*
X0008200Y0104396D01*
X0012661Y0104396D01*
X0013815Y0104874D01*
X0014364Y0104325D01*
X0015945Y0103670D01*
X0017655Y0103670D01*
X0019236Y0104325D01*
X0020445Y0105535D01*
X0021100Y0107115D01*
X0021062Y0107023D02*
X0028389Y0107023D01*
X0027328Y0106225D02*
X0020731Y0106225D01*
X0020337Y0105426D02*
X0026267Y0105426D01*
X0025206Y0104628D02*
X0019538Y0104628D01*
X0018038Y0103829D02*
X0024113Y0103829D01*
X0023400Y0103031D02*
X0008200Y0103031D01*
X0008200Y0103829D02*
X0015562Y0103829D01*
X0015852Y0102232D02*
X0008200Y0102232D01*
X0008200Y0094247D02*
X0014553Y0094247D01*
X0014145Y0091851D02*
X0012813Y0091851D01*
X0015923Y0088370D02*
X0016400Y0088370D01*
X0016400Y0087570D01*
X0015923Y0087570D01*
X0015924Y0087579D01*
X0015924Y0087583D01*
X0008200Y0087583D01*
X0008200Y0088358D01*
X0015924Y0088358D01*
X0015924Y0088362D01*
X0015923Y0088370D01*
X0016400Y0088657D02*
X0017200Y0088657D01*
X0017200Y0087859D02*
X0023400Y0087859D01*
X0023400Y0088657D02*
X0021450Y0088657D01*
X0021259Y0089456D02*
X0023400Y0089456D01*
X0023400Y0090254D02*
X0020911Y0090254D01*
X0020364Y0091053D02*
X0023400Y0091053D01*
X0023400Y0091851D02*
X0019455Y0091851D01*
X0019047Y0094247D02*
X0023400Y0094247D01*
X0023400Y0095045D02*
X0019956Y0095045D01*
X0020573Y0095844D02*
X0023400Y0095844D01*
X0023400Y0096642D02*
X0020904Y0096642D01*
X0021100Y0097441D02*
X0023400Y0097441D01*
X0023400Y0098239D02*
X0021100Y0098239D01*
X0021012Y0099038D02*
X0023400Y0099038D01*
X0023400Y0099836D02*
X0020681Y0099836D01*
X0020217Y0100635D02*
X0023400Y0100635D01*
X0023400Y0101434D02*
X0019418Y0101434D01*
X0017748Y0102232D02*
X0023363Y0102232D01*
X0021100Y0108620D02*
X0030512Y0108620D01*
X0031573Y0109419D02*
X0020854Y0109419D01*
X0020524Y0110217D02*
X0032634Y0110217D01*
X0033695Y0111016D02*
X0019836Y0111016D01*
X0018757Y0111814D02*
X0034757Y0111814D01*
X0035117Y0111814D02*
X0043098Y0111814D01*
X0043897Y0112613D02*
X0041695Y0112613D01*
X0041934Y0113411D02*
X0044695Y0113411D01*
X0045494Y0114210D02*
X0041934Y0114210D01*
X0041934Y0115008D02*
X0046292Y0115008D01*
X0047091Y0115807D02*
X0041934Y0115807D01*
X0041934Y0116605D02*
X0047889Y0116605D01*
X0048339Y0120598D02*
X0055000Y0120598D01*
X0055000Y0121396D02*
X0049158Y0121396D01*
X0049489Y0122195D02*
X0055000Y0122195D01*
X0055000Y0122993D02*
X0049581Y0122993D01*
X0049470Y0123792D02*
X0055000Y0123792D01*
X0055000Y0119799D02*
X0038600Y0119799D01*
X0038600Y0120598D02*
X0045261Y0120598D01*
X0044442Y0121396D02*
X0038600Y0121396D01*
X0038600Y0122195D02*
X0044111Y0122195D01*
X0044019Y0122993D02*
X0038600Y0122993D01*
X0038600Y0123792D02*
X0044130Y0123792D01*
X0044487Y0124590D02*
X0043220Y0124590D01*
X0043312Y0125389D02*
X0045371Y0125389D01*
X0045400Y0126187D02*
X0043312Y0126187D01*
X0043312Y0126986D02*
X0045400Y0126986D01*
X0045400Y0127784D02*
X0043312Y0127784D01*
X0043312Y0128583D02*
X0045400Y0128583D01*
X0045400Y0129381D02*
X0043312Y0129381D01*
X0043312Y0130180D02*
X0045111Y0130180D01*
X0044312Y0130978D02*
X0043312Y0130978D01*
X0044300Y0132970D02*
X0046800Y0130470D01*
X0046800Y0122970D01*
X0048229Y0125389D02*
X0050288Y0125389D01*
X0050288Y0126187D02*
X0048200Y0126187D01*
X0048200Y0126986D02*
X0050288Y0126986D01*
X0050288Y0127784D02*
X0048200Y0127784D01*
X0048200Y0128583D02*
X0050288Y0128583D01*
X0050288Y0129381D02*
X0048200Y0129381D01*
X0048200Y0130180D02*
X0050288Y0130180D01*
X0050288Y0130978D02*
X0048200Y0130978D01*
X0048514Y0131777D02*
X0047473Y0131777D01*
X0047715Y0132575D02*
X0046675Y0132575D01*
X0046917Y0133374D02*
X0045876Y0133374D01*
X0046118Y0134172D02*
X0045078Y0134172D01*
X0045400Y0134971D02*
X0044493Y0134971D01*
X0044493Y0135770D02*
X0045400Y0135770D01*
X0045400Y0136568D02*
X0044493Y0136568D01*
X0044300Y0132970D02*
X0029300Y0132970D01*
X0028741Y0130978D02*
X0030288Y0130978D01*
X0030288Y0130180D02*
X0020539Y0130180D01*
X0020870Y0129381D02*
X0030288Y0129381D01*
X0030288Y0128583D02*
X0021100Y0128583D01*
X0021100Y0127784D02*
X0030288Y0127784D01*
X0030288Y0126986D02*
X0021046Y0126986D01*
X0020716Y0126187D02*
X0030288Y0126187D01*
X0030288Y0125389D02*
X0020299Y0125389D01*
X0019501Y0124590D02*
X0030380Y0124590D01*
X0032162Y0119799D02*
X0035000Y0119799D01*
X0035000Y0120598D02*
X0033457Y0120598D01*
X0031987Y0119001D02*
X0030922Y0119001D01*
X0031666Y0118202D02*
X0021100Y0118202D01*
X0021100Y0117404D02*
X0031666Y0117404D01*
X0031666Y0116605D02*
X0020889Y0116605D01*
X0020558Y0115807D02*
X0031666Y0115807D01*
X0031666Y0115008D02*
X0019919Y0115008D01*
X0018957Y0114210D02*
X0031666Y0114210D01*
X0031666Y0113411D02*
X0008200Y0113411D01*
X0008200Y0112613D02*
X0031905Y0112613D01*
X0029278Y0119001D02*
X0021028Y0119001D01*
X0020697Y0119799D02*
X0028038Y0119799D01*
X0027534Y0120598D02*
X0020254Y0120598D01*
X0019455Y0121396D02*
X0027319Y0121396D01*
X0027319Y0122195D02*
X0017838Y0122195D01*
X0017948Y0123792D02*
X0028288Y0123792D01*
X0027638Y0122993D02*
X0008200Y0122993D01*
X0008200Y0122195D02*
X0015762Y0122195D01*
X0015652Y0123792D02*
X0008200Y0123792D01*
X0008200Y0131777D02*
X0014753Y0131777D01*
X0014733Y0134172D02*
X0008200Y0134172D01*
X0008200Y0133374D02*
X0024019Y0133374D01*
X0024019Y0132575D02*
X0008200Y0132575D01*
X0008200Y0142158D02*
X0015672Y0142158D01*
X0015742Y0143755D02*
X0008200Y0143755D01*
X0008200Y0142956D02*
X0038943Y0142956D01*
X0038943Y0142158D02*
X0035340Y0142158D01*
X0035372Y0142149D02*
X0035016Y0142244D01*
X0032869Y0142244D01*
X0032869Y0138489D01*
X0036231Y0138489D01*
X0036231Y0141029D01*
X0036136Y0141385D01*
X0035952Y0141704D01*
X0035691Y0141965D01*
X0035372Y0142149D01*
X0036143Y0141359D02*
X0037869Y0141359D01*
X0037769Y0140561D02*
X0036231Y0140561D01*
X0036231Y0139762D02*
X0037769Y0139762D01*
X0037769Y0138964D02*
X0036231Y0138964D01*
X0036231Y0137367D02*
X0037769Y0137367D01*
X0037769Y0138165D02*
X0032869Y0138165D01*
X0032869Y0138964D02*
X0032069Y0138964D01*
X0032069Y0139762D02*
X0032869Y0139762D01*
X0032869Y0140561D02*
X0032069Y0140561D01*
X0032069Y0141359D02*
X0032869Y0141359D01*
X0032869Y0142158D02*
X0032069Y0142158D01*
X0031498Y0144208D02*
X0031141Y0144304D01*
X0030822Y0144488D01*
X0030562Y0144749D01*
X0030377Y0145068D01*
X0030282Y0145424D01*
X0030282Y0147583D01*
X0032869Y0147583D01*
X0032869Y0148358D01*
X0030282Y0148358D01*
X0030282Y0150517D01*
X0030377Y0150873D01*
X0030562Y0151192D01*
X0030822Y0151453D01*
X0031141Y0151637D01*
X0031498Y0151733D01*
X0032869Y0151733D01*
X0032869Y0148358D01*
X0033644Y0148358D01*
X0033644Y0151733D01*
X0035016Y0151733D01*
X0035372Y0151637D01*
X0035691Y0151453D01*
X0035952Y0151192D01*
X0036136Y0150873D01*
X0036231Y0150517D01*
X0036231Y0148358D01*
X0033644Y0148358D01*
X0033644Y0147583D01*
X0033644Y0144208D01*
X0035016Y0144208D01*
X0035372Y0144304D01*
X0035691Y0144488D01*
X0035952Y0144749D01*
X0036136Y0145068D01*
X0036231Y0145424D01*
X0036231Y0147583D01*
X0033644Y0147583D01*
X0032869Y0147583D01*
X0032869Y0144208D01*
X0031498Y0144208D01*
X0030757Y0144553D02*
X0019464Y0144553D01*
X0020262Y0145352D02*
X0030301Y0145352D01*
X0030282Y0146150D02*
X0020700Y0146150D01*
X0021031Y0146949D02*
X0030282Y0146949D01*
X0030282Y0148546D02*
X0021100Y0148546D01*
X0021100Y0147747D02*
X0032869Y0147747D01*
X0033644Y0147747D02*
X0037769Y0147747D01*
X0037769Y0146949D02*
X0036231Y0146949D01*
X0036231Y0146150D02*
X0037769Y0146150D01*
X0037769Y0145352D02*
X0036212Y0145352D01*
X0035756Y0144553D02*
X0038943Y0144553D01*
X0038943Y0143755D02*
X0017858Y0143755D01*
X0017928Y0142158D02*
X0029599Y0142158D01*
X0028796Y0141359D02*
X0019492Y0141359D01*
X0020291Y0140561D02*
X0028707Y0140561D01*
X0028707Y0139762D02*
X0020712Y0139762D01*
X0021043Y0138964D02*
X0028707Y0138964D01*
X0028707Y0137367D02*
X0021100Y0137367D01*
X0021100Y0138165D02*
X0032069Y0138165D01*
X0028707Y0136568D02*
X0020873Y0136568D01*
X0020543Y0135770D02*
X0028707Y0135770D01*
X0028733Y0134971D02*
X0028755Y0134971D01*
X0024867Y0134971D02*
X0019882Y0134971D01*
X0018867Y0134172D02*
X0024288Y0134172D01*
X0024284Y0131777D02*
X0018847Y0131777D01*
X0019873Y0130978D02*
X0024859Y0130978D01*
X0032869Y0144553D02*
X0033644Y0144553D01*
X0033644Y0145352D02*
X0032869Y0145352D01*
X0032869Y0146150D02*
X0033644Y0146150D01*
X0033644Y0146949D02*
X0032869Y0146949D01*
X0032869Y0148546D02*
X0033644Y0148546D01*
X0033644Y0149344D02*
X0032869Y0149344D01*
X0032869Y0150143D02*
X0033644Y0150143D01*
X0033644Y0150941D02*
X0032869Y0150941D01*
X0030417Y0150941D02*
X0019910Y0150941D01*
X0020555Y0150143D02*
X0030282Y0150143D01*
X0030282Y0149344D02*
X0020885Y0149344D01*
X0018937Y0151740D02*
X0061741Y0151740D01*
X0062428Y0152538D02*
X0008200Y0152538D01*
X0008200Y0151740D02*
X0014663Y0151740D01*
X0014823Y0154135D02*
X0008200Y0154135D01*
X0008200Y0153337D02*
X0063116Y0153337D01*
X0063803Y0154135D02*
X0018777Y0154135D01*
X0019844Y0154934D02*
X0064491Y0154934D01*
X0065178Y0155732D02*
X0048495Y0155732D01*
X0048375Y0155613D02*
X0049158Y0156395D01*
X0049581Y0157417D01*
X0049581Y0158524D01*
X0049562Y0158570D01*
X0051666Y0158570D01*
X0051666Y0157261D01*
X0052252Y0156675D01*
X0061348Y0156675D01*
X0061934Y0157261D01*
X0061934Y0163089D01*
X0061348Y0163675D01*
X0052252Y0163675D01*
X0051666Y0163089D01*
X0051666Y0161370D01*
X0041934Y0161370D01*
X0041934Y0163089D01*
X0041348Y0163675D01*
X0032252Y0163675D01*
X0031666Y0163089D01*
X0031666Y0157261D01*
X0032252Y0156675D01*
X0041348Y0156675D01*
X0041934Y0157261D01*
X0041934Y0158570D01*
X0044038Y0158570D01*
X0044019Y0158524D01*
X0044019Y0157417D01*
X0044442Y0156395D01*
X0045225Y0155613D01*
X0046247Y0155189D01*
X0047353Y0155189D01*
X0048375Y0155613D01*
X0049214Y0156531D02*
X0065784Y0156531D01*
X0066800Y0155470D02*
X0075343Y0157970D01*
X0076800Y0157970D01*
X0079530Y0161322D02*
X0080400Y0161322D01*
X0078018Y0162120D02*
X0085400Y0162120D01*
X0085400Y0162919D02*
X0061934Y0162919D01*
X0061934Y0162120D02*
X0075582Y0162120D01*
X0075831Y0163717D02*
X0046980Y0163717D01*
X0047415Y0164516D02*
X0074173Y0164516D01*
X0073375Y0165314D02*
X0047581Y0165314D01*
X0047544Y0166113D02*
X0072915Y0166113D01*
X0072584Y0166911D02*
X0048221Y0166911D01*
X0049019Y0167710D02*
X0072500Y0167710D01*
X0072500Y0168508D02*
X0049700Y0168508D01*
X0049700Y0169307D02*
X0072699Y0169307D01*
X0073030Y0170105D02*
X0049700Y0170105D01*
X0049700Y0170904D02*
X0073652Y0170904D01*
X0074574Y0171703D02*
X0049700Y0171703D01*
X0049700Y0172501D02*
X0052017Y0172501D01*
X0051666Y0173300D02*
X0049700Y0173300D01*
X0049700Y0174098D02*
X0051666Y0174098D01*
X0051666Y0174897D02*
X0049700Y0174897D01*
X0049700Y0175695D02*
X0051666Y0175695D01*
X0051666Y0176494D02*
X0049700Y0176494D01*
X0049700Y0177292D02*
X0051666Y0177292D01*
X0051666Y0178091D02*
X0049700Y0178091D01*
X0049700Y0178889D02*
X0051875Y0178889D01*
X0049700Y0179688D02*
X0055000Y0179688D01*
X0055000Y0180486D02*
X0049700Y0180486D01*
X0049700Y0181285D02*
X0055000Y0181285D01*
X0054254Y0182083D02*
X0049700Y0182083D01*
X0049700Y0182882D02*
X0053741Y0182882D01*
X0053519Y0183680D02*
X0049700Y0183680D01*
X0049700Y0184479D02*
X0053519Y0184479D01*
X0053831Y0185277D02*
X0049700Y0185277D01*
X0049700Y0186076D02*
X0054472Y0186076D01*
X0058600Y0186076D02*
X0061972Y0186076D01*
X0061331Y0185277D02*
X0058769Y0185277D01*
X0059081Y0184479D02*
X0061019Y0184479D01*
X0061019Y0183680D02*
X0059081Y0183680D01*
X0058859Y0182882D02*
X0061241Y0182882D01*
X0061754Y0182083D02*
X0058600Y0182083D01*
X0058600Y0181285D02*
X0063017Y0181285D01*
X0061725Y0178889D02*
X0072526Y0178889D01*
X0072500Y0178091D02*
X0061934Y0178091D01*
X0061934Y0177292D02*
X0072500Y0177292D01*
X0072757Y0176494D02*
X0061934Y0176494D01*
X0061934Y0175695D02*
X0073088Y0175695D01*
X0073793Y0174897D02*
X0061934Y0174897D01*
X0061934Y0174098D02*
X0074912Y0174098D01*
X0072857Y0179688D02*
X0069950Y0179688D01*
X0070695Y0180486D02*
X0073235Y0180486D01*
X0074033Y0181285D02*
X0071026Y0181285D01*
X0071081Y0182083D02*
X0075492Y0182083D01*
X0075921Y0183680D02*
X0070523Y0183680D01*
X0070933Y0182882D02*
X0085400Y0182882D01*
X0085400Y0183680D02*
X0077679Y0183680D01*
X0078108Y0182083D02*
X0085400Y0182083D01*
X0085400Y0174098D02*
X0078688Y0174098D01*
X0079026Y0171703D02*
X0085400Y0171703D01*
X0085400Y0172501D02*
X0061583Y0172501D01*
X0061934Y0173300D02*
X0085400Y0173300D01*
X0085400Y0163717D02*
X0077769Y0163717D01*
X0079427Y0164516D02*
X0080649Y0164516D01*
X0074070Y0161322D02*
X0061934Y0161322D01*
X0061934Y0160523D02*
X0073272Y0160523D01*
X0072872Y0159725D02*
X0061934Y0159725D01*
X0061934Y0158926D02*
X0072542Y0158926D01*
X0070896Y0158128D02*
X0061934Y0158128D01*
X0061934Y0157329D02*
X0068167Y0157329D01*
X0066800Y0155470D02*
X0060343Y0147970D01*
X0061131Y0147183D01*
X0061131Y0138089D01*
X0059731Y0142158D02*
X0055340Y0142158D01*
X0055372Y0142149D02*
X0055016Y0142244D01*
X0052869Y0142244D01*
X0052869Y0138489D01*
X0056231Y0138489D01*
X0056231Y0141029D01*
X0056136Y0141385D01*
X0055952Y0141704D01*
X0055691Y0141965D01*
X0055372Y0142149D01*
X0056143Y0141359D02*
X0057869Y0141359D01*
X0057769Y0140561D02*
X0056231Y0140561D01*
X0056231Y0139762D02*
X0057769Y0139762D01*
X0057769Y0138964D02*
X0056231Y0138964D01*
X0056231Y0137367D02*
X0057769Y0137367D01*
X0057769Y0138165D02*
X0052869Y0138165D01*
X0052469Y0138089D02*
X0047587Y0142970D01*
X0046800Y0142970D01*
X0047787Y0138964D02*
X0048707Y0138964D01*
X0048707Y0139762D02*
X0044493Y0139762D01*
X0044493Y0140561D02*
X0048707Y0140561D01*
X0048796Y0141359D02*
X0044393Y0141359D01*
X0042918Y0145352D02*
X0050301Y0145352D01*
X0050282Y0145424D02*
X0050377Y0145068D01*
X0050562Y0144749D01*
X0050822Y0144488D01*
X0051141Y0144304D01*
X0051498Y0144208D01*
X0052869Y0144208D01*
X0052869Y0147583D01*
X0050282Y0147583D01*
X0050282Y0145424D01*
X0050282Y0146150D02*
X0042918Y0146150D01*
X0042918Y0146949D02*
X0050282Y0146949D01*
X0050282Y0148358D02*
X0052869Y0148358D01*
X0052869Y0147583D01*
X0053644Y0147583D01*
X0053644Y0144208D01*
X0055016Y0144208D01*
X0055372Y0144304D01*
X0055691Y0144488D01*
X0055952Y0144749D01*
X0056136Y0145068D01*
X0056231Y0145424D01*
X0056231Y0147583D01*
X0053644Y0147583D01*
X0053644Y0148358D01*
X0052869Y0148358D01*
X0052869Y0151733D01*
X0051498Y0151733D01*
X0051141Y0151637D01*
X0050822Y0151453D01*
X0050562Y0151192D01*
X0050377Y0150873D01*
X0050282Y0150517D01*
X0050282Y0148358D01*
X0050282Y0148546D02*
X0043200Y0148546D01*
X0043200Y0147747D02*
X0052869Y0147747D01*
X0053644Y0147747D02*
X0057769Y0147747D01*
X0057769Y0146949D02*
X0056231Y0146949D01*
X0056231Y0146150D02*
X0057769Y0146150D01*
X0057769Y0145352D02*
X0056212Y0145352D01*
X0055756Y0144553D02*
X0059731Y0144553D01*
X0059731Y0143755D02*
X0041743Y0143755D01*
X0041743Y0144553D02*
X0050757Y0144553D01*
X0049599Y0142158D02*
X0041743Y0142158D01*
X0041743Y0142956D02*
X0059731Y0142956D01*
X0057769Y0148546D02*
X0056231Y0148546D01*
X0056231Y0148358D02*
X0056231Y0150517D01*
X0056136Y0150873D01*
X0055952Y0151192D01*
X0055691Y0151453D01*
X0055372Y0151637D01*
X0055016Y0151733D01*
X0053644Y0151733D01*
X0053644Y0148358D01*
X0056231Y0148358D01*
X0056231Y0149344D02*
X0057769Y0149344D01*
X0057769Y0150143D02*
X0056231Y0150143D01*
X0056097Y0150941D02*
X0057963Y0150941D01*
X0056595Y0159970D02*
X0047300Y0159970D01*
X0046800Y0159470D01*
X0046300Y0159970D01*
X0037005Y0159970D01*
X0036800Y0160175D01*
X0036097Y0150941D02*
X0037963Y0150941D01*
X0037769Y0150143D02*
X0036231Y0150143D01*
X0036231Y0149344D02*
X0037769Y0149344D01*
X0037769Y0148546D02*
X0036231Y0148546D01*
X0040343Y0147970D02*
X0041800Y0147970D01*
X0042918Y0149344D02*
X0050282Y0149344D01*
X0050282Y0150143D02*
X0042918Y0150143D01*
X0042724Y0150941D02*
X0050417Y0150941D01*
X0052869Y0150941D02*
X0053644Y0150941D01*
X0053644Y0150143D02*
X0052869Y0150143D01*
X0052869Y0149344D02*
X0053644Y0149344D01*
X0053644Y0148546D02*
X0052869Y0148546D01*
X0052869Y0146949D02*
X0053644Y0146949D01*
X0053644Y0146150D02*
X0052869Y0146150D01*
X0052869Y0145352D02*
X0053644Y0145352D01*
X0053644Y0144553D02*
X0052869Y0144553D01*
X0052869Y0142158D02*
X0052069Y0142158D01*
X0052069Y0141359D02*
X0052869Y0141359D01*
X0052869Y0140561D02*
X0052069Y0140561D01*
X0052069Y0139762D02*
X0052869Y0139762D01*
X0052869Y0138964D02*
X0052069Y0138964D01*
X0052069Y0138165D02*
X0048200Y0138165D01*
X0048200Y0137367D02*
X0048707Y0137367D01*
X0048707Y0136568D02*
X0048200Y0136568D01*
X0048481Y0135770D02*
X0048707Y0135770D01*
X0046800Y0135470D02*
X0049300Y0132970D01*
X0064300Y0132970D01*
X0066800Y0135470D01*
X0066800Y0142970D01*
X0069300Y0145470D01*
X0074300Y0145470D01*
X0076800Y0147970D01*
X0077858Y0143755D02*
X0085400Y0143755D01*
X0085400Y0142956D02*
X0068766Y0142956D01*
X0068200Y0142158D02*
X0075672Y0142158D01*
X0075742Y0143755D02*
X0069564Y0143755D01*
X0068200Y0141359D02*
X0074107Y0141359D01*
X0073309Y0140561D02*
X0068200Y0140561D01*
X0068200Y0139762D02*
X0072888Y0139762D01*
X0072557Y0138964D02*
X0068200Y0138964D01*
X0068200Y0138165D02*
X0072500Y0138165D01*
X0072500Y0137367D02*
X0068200Y0137367D01*
X0068200Y0136568D02*
X0072727Y0136568D01*
X0073057Y0135770D02*
X0068200Y0135770D01*
X0068200Y0134971D02*
X0073718Y0134971D01*
X0074733Y0134172D02*
X0067482Y0134172D01*
X0066683Y0133374D02*
X0085400Y0133374D01*
X0085400Y0134172D02*
X0078867Y0134172D01*
X0078847Y0131777D02*
X0085400Y0131777D01*
X0085400Y0132575D02*
X0065885Y0132575D01*
X0065086Y0131777D02*
X0074753Y0131777D01*
X0073727Y0130978D02*
X0063312Y0130978D01*
X0063312Y0130180D02*
X0073061Y0130180D01*
X0072730Y0129381D02*
X0063312Y0129381D01*
X0063312Y0128583D02*
X0072500Y0128583D01*
X0072500Y0127784D02*
X0063312Y0127784D01*
X0063312Y0126986D02*
X0072554Y0126986D01*
X0072884Y0126187D02*
X0063312Y0126187D01*
X0063312Y0125389D02*
X0073300Y0125389D01*
X0074099Y0124590D02*
X0063220Y0124590D01*
X0061613Y0119001D02*
X0072572Y0119001D01*
X0072500Y0118202D02*
X0061934Y0118202D01*
X0061934Y0117404D02*
X0072500Y0117404D01*
X0072711Y0116605D02*
X0061934Y0116605D01*
X0061934Y0115807D02*
X0073042Y0115807D01*
X0073681Y0115008D02*
X0061934Y0115008D01*
X0061934Y0114210D02*
X0074643Y0114210D01*
X0074094Y0111814D02*
X0048189Y0111814D01*
X0047391Y0111016D02*
X0073203Y0111016D01*
X0072670Y0110217D02*
X0046592Y0110217D01*
X0045794Y0109419D02*
X0072329Y0109419D01*
X0072144Y0108620D02*
X0044995Y0108620D01*
X0048988Y0112613D02*
X0051905Y0112613D01*
X0051666Y0113411D02*
X0049786Y0113411D01*
X0051666Y0117404D02*
X0041934Y0117404D01*
X0041934Y0118202D02*
X0051666Y0118202D01*
X0051987Y0119001D02*
X0041613Y0119001D01*
X0037769Y0134971D02*
X0036184Y0134971D01*
X0036231Y0135770D02*
X0037769Y0135770D01*
X0037769Y0136568D02*
X0036231Y0136568D01*
X0040343Y0138876D02*
X0040343Y0147970D01*
X0040343Y0138876D02*
X0041131Y0138089D01*
X0041249Y0137970D01*
X0046800Y0137970D01*
X0046800Y0135470D01*
X0049113Y0124590D02*
X0050380Y0124590D01*
X0056184Y0134971D02*
X0057769Y0134971D01*
X0057769Y0135770D02*
X0056231Y0135770D01*
X0056231Y0136568D02*
X0057769Y0136568D01*
X0058600Y0123792D02*
X0075652Y0123792D01*
X0075762Y0122195D02*
X0058600Y0122195D01*
X0058600Y0122993D02*
X0085400Y0122993D01*
X0085400Y0122195D02*
X0077838Y0122195D01*
X0077948Y0123792D02*
X0085400Y0123792D01*
X0085400Y0114210D02*
X0078957Y0114210D01*
X0079506Y0111814D02*
X0080600Y0111814D01*
X0077535Y0112613D02*
X0085400Y0112613D01*
X0085400Y0113411D02*
X0061934Y0113411D01*
X0061695Y0112613D02*
X0076065Y0112613D01*
X0076400Y0112613D02*
X0077200Y0112613D01*
X0077200Y0111814D02*
X0076400Y0111814D01*
X0076400Y0111016D02*
X0077200Y0111016D01*
X0077200Y0110217D02*
X0076400Y0110217D01*
X0076400Y0109419D02*
X0077200Y0109419D01*
X0077200Y0108620D02*
X0076400Y0108620D01*
X0079418Y0101434D02*
X0080670Y0101434D01*
X0079047Y0094247D02*
X0085400Y0094247D01*
X0085400Y0093448D02*
X0063081Y0093448D01*
X0063081Y0094247D02*
X0074553Y0094247D01*
X0073644Y0095045D02*
X0062865Y0095045D01*
X0062360Y0095844D02*
X0073027Y0095844D01*
X0074933Y0091851D02*
X0062114Y0091851D01*
X0062763Y0092650D02*
X0085400Y0092650D01*
X0085400Y0091851D02*
X0078667Y0091851D01*
X0074025Y0084665D02*
X0054723Y0084665D01*
X0054392Y0085463D02*
X0073226Y0085463D01*
X0072853Y0086262D02*
X0053642Y0086262D01*
X0053232Y0081471D02*
X0054942Y0081471D01*
X0056581Y0083866D02*
X0075472Y0083866D01*
X0076600Y0064702D02*
X0055505Y0064702D01*
X0055561Y0065501D02*
X0056584Y0065501D01*
X0055700Y0063903D02*
X0076600Y0063903D01*
X0076600Y0063105D02*
X0056357Y0063105D01*
X0056681Y0062306D02*
X0076600Y0062306D01*
X0076600Y0061508D02*
X0056681Y0061508D01*
X0056471Y0060709D02*
X0076600Y0060709D01*
X0076600Y0059911D02*
X0055974Y0059911D01*
X0054750Y0059112D02*
X0076600Y0059112D01*
X0077186Y0058370D02*
X0085400Y0058370D01*
X0085400Y0058370D01*
X0077186Y0058370D01*
X0077129Y0058314D02*
X0044412Y0058314D01*
X0043188Y0058314D02*
X0027000Y0058314D01*
X0027000Y0059112D02*
X0041825Y0059112D01*
X0041270Y0059911D02*
X0027000Y0059911D01*
X0027000Y0060709D02*
X0041019Y0060709D01*
X0041019Y0061508D02*
X0027000Y0061508D01*
X0027000Y0062306D02*
X0041302Y0062306D01*
X0041901Y0063105D02*
X0027000Y0063105D01*
X0027000Y0063903D02*
X0042500Y0063903D01*
X0042501Y0064702D02*
X0027000Y0064702D01*
X0027000Y0065501D02*
X0042501Y0065501D01*
X0043900Y0062725D02*
X0043800Y0061070D01*
X0043900Y0062725D02*
X0043902Y0071722D01*
X0041551Y0077478D02*
X0041254Y0077478D01*
X0041390Y0078277D02*
X0062143Y0078277D01*
X0061345Y0079075D02*
X0041852Y0079075D01*
X0038902Y0076773D02*
X0038902Y0071722D01*
X0038902Y0076773D02*
X0047000Y0090770D01*
X0059000Y0090770D01*
X0051551Y0077478D02*
X0051254Y0077478D01*
X0048902Y0071722D02*
X0048900Y0065220D01*
X0048800Y0063170D01*
X0050126Y0060709D02*
X0051329Y0060709D01*
X0051119Y0061508D02*
X0051071Y0061508D01*
X0051826Y0059911D02*
X0046330Y0059911D01*
X0046581Y0060709D02*
X0047474Y0060709D01*
X0045775Y0059112D02*
X0053050Y0059112D01*
X0053900Y0061770D02*
X0054200Y0066120D01*
X0053902Y0071722D01*
X0046551Y0077478D02*
X0046254Y0077478D01*
X0058600Y0119799D02*
X0072903Y0119799D01*
X0073346Y0120598D02*
X0058600Y0120598D01*
X0058600Y0121396D02*
X0074145Y0121396D01*
X0079455Y0121396D02*
X0080580Y0121396D01*
X0080469Y0124590D02*
X0079501Y0124590D01*
X0079492Y0141359D02*
X0080490Y0141359D01*
X0080559Y0144553D02*
X0079464Y0144553D01*
X0077928Y0142158D02*
X0085400Y0142158D01*
X0080310Y0181285D02*
X0079567Y0181285D01*
X0079389Y0184479D02*
X0080739Y0184479D01*
X0079116Y0191665D02*
X0085400Y0191665D01*
X0085400Y0192464D02*
X0073581Y0192464D01*
X0073482Y0193262D02*
X0085400Y0193262D01*
X0085400Y0194061D02*
X0078598Y0194061D01*
X0076800Y0197970D02*
X0063249Y0197970D01*
X0061131Y0200089D01*
X0061077Y0200091D01*
X0061024Y0200096D01*
X0060971Y0200105D01*
X0060919Y0200118D01*
X0060867Y0200134D01*
X0060817Y0200154D01*
X0060769Y0200177D01*
X0060722Y0200204D01*
X0060677Y0200233D01*
X0060634Y0200266D01*
X0060594Y0200301D01*
X0060556Y0200339D01*
X0060521Y0200379D01*
X0060488Y0200422D01*
X0060459Y0200467D01*
X0060432Y0200514D01*
X0060409Y0200562D01*
X0060389Y0200612D01*
X0060373Y0200664D01*
X0060360Y0200716D01*
X0060351Y0200769D01*
X0060346Y0200822D01*
X0060344Y0200876D01*
X0060343Y0200876D02*
X0060343Y0209970D01*
X0057600Y0213570D02*
X0060800Y0216470D01*
X0075300Y0216470D01*
X0076800Y0217970D01*
X0072773Y0196456D02*
X0064031Y0196456D01*
X0063093Y0195658D02*
X0073104Y0195658D01*
X0073830Y0194859D02*
X0072300Y0194859D01*
X0073143Y0194061D02*
X0075002Y0194061D01*
X0074484Y0191665D02*
X0073477Y0191665D01*
X0073615Y0190867D02*
X0073129Y0190867D01*
X0073015Y0190068D02*
X0072268Y0190068D01*
X0072684Y0189270D02*
X0070234Y0189270D01*
X0069700Y0188471D02*
X0072500Y0188471D01*
X0072500Y0187673D02*
X0069700Y0187673D01*
X0069700Y0186874D02*
X0072600Y0186874D01*
X0072931Y0186076D02*
X0069700Y0186076D01*
X0069700Y0185277D02*
X0073412Y0185277D01*
X0074211Y0184479D02*
X0069700Y0184479D01*
X0068300Y0181970D02*
X0068300Y0188970D01*
X0070800Y0192470D01*
X0069300Y0194859D02*
X0064391Y0194859D01*
X0065190Y0194061D02*
X0068457Y0194061D01*
X0068118Y0193262D02*
X0065269Y0193262D01*
X0065200Y0192464D02*
X0068019Y0192464D01*
X0068123Y0191665D02*
X0065200Y0191665D01*
X0065200Y0190867D02*
X0067934Y0190867D01*
X0067364Y0190068D02*
X0065200Y0190068D01*
X0065200Y0189270D02*
X0066831Y0189270D01*
X0066900Y0188471D02*
X0065200Y0188471D01*
X0065200Y0187673D02*
X0066900Y0187673D01*
X0066900Y0186874D02*
X0065200Y0186874D01*
X0065628Y0186076D02*
X0066900Y0186076D01*
X0066900Y0185277D02*
X0066269Y0185277D01*
X0066581Y0184479D02*
X0066900Y0184479D01*
X0065574Y0181285D02*
X0064583Y0181285D01*
X0065905Y0180486D02*
X0058600Y0180486D01*
X0058600Y0179688D02*
X0066650Y0179688D01*
X0063800Y0183970D02*
X0063800Y0193470D01*
X0062300Y0194470D01*
X0058800Y0194470D01*
X0057600Y0196570D01*
X0057600Y0213570D01*
X0056000Y0213970D02*
X0056000Y0204470D01*
X0055900Y0203470D01*
X0055900Y0195970D01*
X0054800Y0194970D01*
X0050800Y0194970D01*
X0048300Y0192470D01*
X0048300Y0168970D01*
X0044800Y0165470D01*
X0045907Y0162919D02*
X0051666Y0162919D01*
X0051666Y0162120D02*
X0041934Y0162120D01*
X0041934Y0162919D02*
X0043693Y0162919D01*
X0042620Y0163717D02*
X0017769Y0163717D01*
X0018018Y0162120D02*
X0031666Y0162120D01*
X0031666Y0161322D02*
X0019530Y0161322D01*
X0020328Y0160523D02*
X0031666Y0160523D01*
X0031666Y0159725D02*
X0020728Y0159725D01*
X0021058Y0158926D02*
X0031666Y0158926D01*
X0031666Y0158128D02*
X0021100Y0158128D01*
X0021100Y0157329D02*
X0031666Y0157329D01*
X0031666Y0162919D02*
X0008200Y0162919D01*
X0008200Y0163717D02*
X0015831Y0163717D01*
X0015582Y0162120D02*
X0008200Y0162120D01*
X0008200Y0171703D02*
X0014574Y0171703D01*
X0014912Y0174098D02*
X0008200Y0174098D01*
X0008200Y0173300D02*
X0031666Y0173300D01*
X0031666Y0172852D02*
X0032252Y0172266D01*
X0041348Y0172266D01*
X0041934Y0172852D01*
X0041934Y0178680D01*
X0041348Y0179266D01*
X0038400Y0179266D01*
X0038400Y0180750D01*
X0039275Y0181113D01*
X0040058Y0181895D01*
X0040481Y0182917D01*
X0040481Y0184024D01*
X0040058Y0185046D01*
X0039275Y0185828D01*
X0038628Y0186096D01*
X0042726Y0186096D01*
X0043312Y0186682D01*
X0043312Y0193022D01*
X0042726Y0193608D01*
X0030874Y0193608D01*
X0030288Y0193022D01*
X0030288Y0186682D01*
X0030874Y0186096D01*
X0035000Y0186096D01*
X0035000Y0185192D01*
X0034873Y0184684D01*
X0035000Y0184472D01*
X0035000Y0184225D01*
X0035002Y0184223D01*
X0034919Y0184024D01*
X0034919Y0182917D01*
X0035062Y0182572D01*
X0034873Y0182257D01*
X0035200Y0180949D01*
X0035200Y0179266D01*
X0032252Y0179266D01*
X0031666Y0178680D01*
X0031666Y0172852D01*
X0032017Y0172501D02*
X0008200Y0172501D01*
X0008200Y0182083D02*
X0015492Y0182083D01*
X0015921Y0183680D02*
X0008200Y0183680D01*
X0008200Y0182882D02*
X0034934Y0182882D01*
X0034919Y0183680D02*
X0017679Y0183680D01*
X0018108Y0182083D02*
X0034916Y0182083D01*
X0035116Y0181285D02*
X0019567Y0181285D01*
X0020365Y0180486D02*
X0035200Y0180486D01*
X0035200Y0179688D02*
X0020743Y0179688D01*
X0021074Y0178889D02*
X0031875Y0178889D01*
X0031666Y0178091D02*
X0021100Y0178091D01*
X0021100Y0177292D02*
X0031666Y0177292D01*
X0031666Y0176494D02*
X0020843Y0176494D01*
X0020512Y0175695D02*
X0031666Y0175695D01*
X0031666Y0174897D02*
X0019807Y0174897D01*
X0018688Y0174098D02*
X0031666Y0174098D01*
X0034996Y0184479D02*
X0019389Y0184479D01*
X0020188Y0185277D02*
X0035000Y0185277D01*
X0035000Y0186076D02*
X0020669Y0186076D01*
X0021000Y0186874D02*
X0030288Y0186874D01*
X0030288Y0187673D02*
X0021100Y0187673D01*
X0021100Y0188471D02*
X0030288Y0188471D01*
X0030288Y0189270D02*
X0020916Y0189270D01*
X0020585Y0190068D02*
X0030288Y0190068D01*
X0030288Y0190867D02*
X0019985Y0190867D01*
X0019116Y0191665D02*
X0030288Y0191665D01*
X0030288Y0192464D02*
X0008200Y0192464D01*
X0008200Y0193262D02*
X0030528Y0193262D01*
X0029923Y0195933D02*
X0032069Y0195933D01*
X0032069Y0199689D01*
X0028707Y0199689D01*
X0028707Y0197148D01*
X0028802Y0196792D01*
X0028987Y0196473D01*
X0029247Y0196212D01*
X0029567Y0196028D01*
X0029923Y0195933D01*
X0029004Y0196456D02*
X0021250Y0196456D01*
X0021445Y0197255D02*
X0028707Y0197255D01*
X0028707Y0198053D02*
X0017200Y0198053D01*
X0017200Y0197255D02*
X0016400Y0197255D01*
X0016400Y0197570D02*
X0015923Y0197570D01*
X0015924Y0197579D01*
X0015924Y0197583D01*
X0008200Y0197583D01*
X0008200Y0198358D01*
X0015924Y0198358D01*
X0015924Y0198362D01*
X0015923Y0198370D01*
X0016400Y0198370D01*
X0016400Y0197570D01*
X0016400Y0198053D02*
X0008200Y0198053D01*
X0008200Y0202046D02*
X0014446Y0202046D01*
X0014248Y0204441D02*
X0012771Y0204441D01*
X0014394Y0211628D02*
X0008200Y0211628D01*
X0008200Y0212427D02*
X0030282Y0212427D01*
X0030282Y0212517D02*
X0030282Y0210358D01*
X0032869Y0210358D01*
X0032869Y0209583D01*
X0030282Y0209583D01*
X0030282Y0207424D01*
X0030377Y0207068D01*
X0030562Y0206749D01*
X0030822Y0206488D01*
X0031141Y0206304D01*
X0031498Y0206208D01*
X0032869Y0206208D01*
X0032869Y0209583D01*
X0033644Y0209583D01*
X0033644Y0206208D01*
X0035016Y0206208D01*
X0035372Y0206304D01*
X0035691Y0206488D01*
X0035952Y0206749D01*
X0036136Y0207068D01*
X0036231Y0207424D01*
X0036231Y0209583D01*
X0033644Y0209583D01*
X0033644Y0210358D01*
X0032869Y0210358D01*
X0032869Y0213733D01*
X0031498Y0213733D01*
X0031141Y0213637D01*
X0030822Y0213453D01*
X0030562Y0213192D01*
X0030377Y0212873D01*
X0030282Y0212517D01*
X0030594Y0213225D02*
X0008200Y0213225D01*
X0008200Y0214024D02*
X0015092Y0214024D01*
X0013867Y0214822D02*
X0013690Y0214822D01*
X0016800Y0217970D02*
X0041800Y0217970D01*
X0056000Y0213970D01*
X0053644Y0209233D02*
X0052869Y0209233D01*
X0052869Y0210031D02*
X0042918Y0210031D01*
X0042918Y0209233D02*
X0050282Y0209233D01*
X0050282Y0208434D02*
X0042918Y0208434D01*
X0042918Y0207636D02*
X0050282Y0207636D01*
X0050511Y0206837D02*
X0042561Y0206837D01*
X0042531Y0206038D02*
X0054600Y0206038D01*
X0054600Y0205240D02*
X0042531Y0205240D01*
X0042531Y0204441D02*
X0054590Y0204441D01*
X0053644Y0206837D02*
X0052869Y0206837D01*
X0052869Y0207636D02*
X0053644Y0207636D01*
X0053644Y0208434D02*
X0052869Y0208434D01*
X0050282Y0210830D02*
X0042918Y0210830D01*
X0042918Y0211628D02*
X0050282Y0211628D01*
X0050282Y0212427D02*
X0042918Y0212427D01*
X0042440Y0213225D02*
X0050594Y0213225D01*
X0050648Y0214024D02*
X0018508Y0214024D01*
X0019733Y0214822D02*
X0047813Y0214822D01*
X0044979Y0215621D02*
X0020481Y0215621D01*
X0020812Y0216419D02*
X0042144Y0216419D01*
X0038247Y0213225D02*
X0035919Y0213225D01*
X0035952Y0213192D02*
X0035691Y0213453D01*
X0035372Y0213637D01*
X0035016Y0213733D01*
X0033644Y0213733D01*
X0033644Y0210358D01*
X0036231Y0210358D01*
X0036231Y0212517D01*
X0036136Y0212873D01*
X0035952Y0213192D01*
X0036231Y0212427D02*
X0037769Y0212427D01*
X0037769Y0211628D02*
X0036231Y0211628D01*
X0036231Y0210830D02*
X0037769Y0210830D01*
X0037769Y0210031D02*
X0033644Y0210031D01*
X0032869Y0210031D02*
X0020601Y0210031D01*
X0020932Y0209233D02*
X0030282Y0209233D01*
X0030282Y0208434D02*
X0021100Y0208434D01*
X0021100Y0207636D02*
X0030282Y0207636D01*
X0030511Y0206837D02*
X0020985Y0206837D01*
X0020654Y0206038D02*
X0039731Y0206038D01*
X0039731Y0205240D02*
X0020151Y0205240D01*
X0019352Y0204441D02*
X0039731Y0204441D01*
X0038153Y0203643D02*
X0035987Y0203643D01*
X0035952Y0203704D02*
X0035691Y0203965D01*
X0035372Y0204149D01*
X0035016Y0204244D01*
X0032869Y0204244D01*
X0032869Y0200489D01*
X0032069Y0200489D01*
X0032069Y0204244D01*
X0029923Y0204244D01*
X0029567Y0204149D01*
X0029247Y0203965D01*
X0028987Y0203704D01*
X0028802Y0203385D01*
X0028707Y0203029D01*
X0028707Y0200489D01*
X0032069Y0200489D01*
X0032069Y0199689D01*
X0032869Y0199689D01*
X0032869Y0200489D01*
X0036231Y0200489D01*
X0036231Y0203029D01*
X0036136Y0203385D01*
X0035952Y0203704D01*
X0036231Y0202844D02*
X0037769Y0202844D01*
X0037769Y0202046D02*
X0036231Y0202046D01*
X0036231Y0201247D02*
X0037769Y0201247D01*
X0037769Y0200449D02*
X0032869Y0200449D01*
X0032869Y0199689D02*
X0036231Y0199689D01*
X0036231Y0197148D01*
X0036136Y0196792D01*
X0035952Y0196473D01*
X0035691Y0196212D01*
X0035372Y0196028D01*
X0035016Y0195933D01*
X0032869Y0195933D01*
X0032869Y0199689D01*
X0032869Y0199650D02*
X0032069Y0199650D01*
X0032069Y0198852D02*
X0032869Y0198852D01*
X0032869Y0198053D02*
X0032069Y0198053D01*
X0032069Y0197255D02*
X0032869Y0197255D01*
X0032869Y0196456D02*
X0032069Y0196456D01*
X0032069Y0200449D02*
X0020809Y0200449D01*
X0021196Y0199650D02*
X0028707Y0199650D01*
X0028707Y0198852D02*
X0021419Y0198852D01*
X0020170Y0201247D02*
X0028707Y0201247D01*
X0028707Y0202046D02*
X0019154Y0202046D01*
X0017200Y0202046D02*
X0016400Y0202046D01*
X0016400Y0201247D02*
X0017200Y0201247D01*
X0017200Y0200449D02*
X0016400Y0200449D01*
X0016400Y0199650D02*
X0017200Y0199650D01*
X0017200Y0198852D02*
X0016400Y0198852D01*
X0016400Y0196456D02*
X0017200Y0196456D01*
X0017200Y0195658D02*
X0016400Y0195658D01*
X0016400Y0194859D02*
X0017200Y0194859D01*
X0017200Y0194061D02*
X0016400Y0194061D01*
X0014484Y0191665D02*
X0008200Y0191665D01*
X0012669Y0194061D02*
X0014185Y0194061D01*
X0014211Y0184479D02*
X0012861Y0184479D01*
X0013290Y0181285D02*
X0014033Y0181285D01*
X0019026Y0171703D02*
X0046900Y0171703D01*
X0046900Y0172501D02*
X0041583Y0172501D01*
X0041934Y0173300D02*
X0046900Y0173300D01*
X0046900Y0174098D02*
X0041934Y0174098D01*
X0041934Y0174897D02*
X0046900Y0174897D01*
X0046900Y0175695D02*
X0041934Y0175695D01*
X0041934Y0176494D02*
X0046900Y0176494D01*
X0046900Y0177292D02*
X0041934Y0177292D01*
X0041934Y0178091D02*
X0046900Y0178091D01*
X0046900Y0178889D02*
X0041725Y0178889D01*
X0040136Y0182083D02*
X0046900Y0182083D01*
X0046900Y0181285D02*
X0039447Y0181285D01*
X0038400Y0180486D02*
X0046900Y0180486D01*
X0046900Y0179688D02*
X0038400Y0179688D01*
X0040466Y0182882D02*
X0046900Y0182882D01*
X0046900Y0183680D02*
X0040481Y0183680D01*
X0040293Y0184479D02*
X0046900Y0184479D01*
X0046900Y0185277D02*
X0039826Y0185277D01*
X0038678Y0186076D02*
X0046900Y0186076D01*
X0046900Y0186874D02*
X0043312Y0186874D01*
X0043312Y0187673D02*
X0046900Y0187673D01*
X0046900Y0188471D02*
X0043312Y0188471D01*
X0043312Y0189270D02*
X0046900Y0189270D01*
X0046900Y0190068D02*
X0043312Y0190068D01*
X0043312Y0190867D02*
X0046900Y0190867D01*
X0046900Y0191665D02*
X0043312Y0191665D01*
X0043312Y0192464D02*
X0046900Y0192464D01*
X0047112Y0193262D02*
X0043072Y0193262D01*
X0043582Y0195658D02*
X0020897Y0195658D01*
X0020336Y0194859D02*
X0044978Y0194859D01*
X0044249Y0196970D02*
X0041131Y0200089D01*
X0041131Y0209183D01*
X0041130Y0209183D02*
X0041128Y0209237D01*
X0041123Y0209290D01*
X0041114Y0209343D01*
X0041101Y0209395D01*
X0041085Y0209447D01*
X0041065Y0209497D01*
X0041042Y0209545D01*
X0041015Y0209592D01*
X0040986Y0209637D01*
X0040953Y0209680D01*
X0040918Y0209720D01*
X0040880Y0209758D01*
X0040840Y0209793D01*
X0040797Y0209826D01*
X0040752Y0209855D01*
X0040705Y0209882D01*
X0040657Y0209905D01*
X0040607Y0209925D01*
X0040555Y0209941D01*
X0040503Y0209954D01*
X0040450Y0209963D01*
X0040397Y0209968D01*
X0040343Y0209970D01*
X0038126Y0206837D02*
X0036003Y0206837D01*
X0036231Y0207636D02*
X0037769Y0207636D01*
X0037769Y0208434D02*
X0036231Y0208434D01*
X0036231Y0209233D02*
X0037769Y0209233D01*
X0033644Y0209233D02*
X0032869Y0209233D01*
X0032869Y0208434D02*
X0033644Y0208434D01*
X0033644Y0207636D02*
X0032869Y0207636D01*
X0032869Y0206837D02*
X0033644Y0206837D01*
X0032869Y0203643D02*
X0032069Y0203643D01*
X0032069Y0202844D02*
X0032869Y0202844D01*
X0032869Y0202046D02*
X0032069Y0202046D01*
X0032069Y0201247D02*
X0032869Y0201247D01*
X0035935Y0196456D02*
X0038231Y0196456D01*
X0037769Y0197255D02*
X0036231Y0197255D01*
X0036231Y0198053D02*
X0037769Y0198053D01*
X0037769Y0198852D02*
X0036231Y0198852D01*
X0036231Y0199650D02*
X0037769Y0199650D01*
X0033644Y0210830D02*
X0032869Y0210830D01*
X0032869Y0211628D02*
X0033644Y0211628D01*
X0033644Y0212427D02*
X0032869Y0212427D01*
X0032869Y0213225D02*
X0033644Y0213225D01*
X0030282Y0211628D02*
X0019206Y0211628D01*
X0020022Y0210830D02*
X0030282Y0210830D01*
X0028952Y0203643D02*
X0008200Y0203643D01*
X0008200Y0202844D02*
X0028707Y0202844D01*
X0019415Y0194061D02*
X0047910Y0194061D01*
X0048622Y0194859D02*
X0048709Y0194859D01*
X0049267Y0195658D02*
X0049507Y0195658D01*
X0050273Y0192464D02*
X0050288Y0192464D01*
X0050288Y0191665D02*
X0049700Y0191665D01*
X0049700Y0190867D02*
X0050288Y0190867D01*
X0050288Y0190068D02*
X0049700Y0190068D01*
X0049700Y0189270D02*
X0050288Y0189270D01*
X0050288Y0188471D02*
X0049700Y0188471D01*
X0049700Y0187673D02*
X0050288Y0187673D01*
X0050288Y0186874D02*
X0049700Y0186874D01*
X0046800Y0196970D02*
X0044249Y0196970D01*
X0044493Y0198852D02*
X0044748Y0198852D01*
X0044493Y0199650D02*
X0046003Y0199650D01*
X0047597Y0199650D02*
X0048707Y0199650D01*
X0048707Y0201247D02*
X0044493Y0201247D01*
X0044493Y0200449D02*
X0052069Y0200449D01*
X0052069Y0201247D02*
X0052869Y0201247D01*
X0052869Y0202046D02*
X0052069Y0202046D01*
X0052069Y0202844D02*
X0052869Y0202844D01*
X0052869Y0203643D02*
X0052069Y0203643D01*
X0048952Y0203643D02*
X0044109Y0203643D01*
X0044493Y0202844D02*
X0048707Y0202844D01*
X0048707Y0202046D02*
X0044493Y0202046D01*
X0046900Y0170904D02*
X0019948Y0170904D01*
X0020570Y0170105D02*
X0046900Y0170105D01*
X0046657Y0169307D02*
X0020901Y0169307D01*
X0021100Y0168508D02*
X0045858Y0168508D01*
X0043106Y0167710D02*
X0021100Y0167710D01*
X0021016Y0166911D02*
X0042387Y0166911D01*
X0042056Y0166113D02*
X0020685Y0166113D01*
X0020225Y0165314D02*
X0042019Y0165314D01*
X0042185Y0164516D02*
X0019427Y0164516D01*
X0020858Y0156531D02*
X0044386Y0156531D01*
X0044055Y0157329D02*
X0041934Y0157329D01*
X0041934Y0158128D02*
X0044019Y0158128D01*
X0045105Y0155732D02*
X0020527Y0155732D01*
X0014070Y0161322D02*
X0013200Y0161322D01*
X0012951Y0164516D02*
X0014173Y0164516D01*
X0014136Y0144553D02*
X0013041Y0144553D01*
X0013110Y0141359D02*
X0014107Y0141359D01*
X0014099Y0124590D02*
X0013131Y0124590D01*
X0013020Y0121396D02*
X0014145Y0121396D01*
X0014643Y0114210D02*
X0008200Y0114210D01*
X0008200Y0111814D02*
X0014843Y0111814D01*
X0014062Y0104628D02*
X0013220Y0104628D01*
X0012930Y0101434D02*
X0014182Y0101434D01*
X0016300Y0092650D02*
X0008200Y0092650D01*
X0008200Y0093448D02*
X0023400Y0093448D01*
X0023400Y0092650D02*
X0017300Y0092650D01*
X0017200Y0092650D02*
X0016400Y0092650D01*
X0016400Y0091851D02*
X0017200Y0091851D01*
X0017200Y0091053D02*
X0016400Y0091053D01*
X0016400Y0090254D02*
X0017200Y0090254D01*
X0017200Y0089456D02*
X0016400Y0089456D01*
X0016400Y0087859D02*
X0008200Y0087859D01*
X0008200Y0083866D02*
X0014502Y0083866D01*
X0015942Y0082269D02*
X0008200Y0082269D01*
X0008200Y0083068D02*
X0023400Y0083068D01*
X0023400Y0083866D02*
X0019098Y0083866D01*
X0020141Y0084665D02*
X0023400Y0084665D01*
X0023400Y0085463D02*
X0020788Y0085463D01*
X0021187Y0086262D02*
X0023400Y0086262D01*
X0023400Y0087060D02*
X0021414Y0087060D01*
X0023400Y0082269D02*
X0017658Y0082269D01*
X0017200Y0083866D02*
X0016400Y0083866D01*
X0016400Y0084665D02*
X0017200Y0084665D01*
X0017200Y0085463D02*
X0016400Y0085463D01*
X0016400Y0086262D02*
X0017200Y0086262D01*
X0017200Y0087060D02*
X0016400Y0087060D01*
X0014219Y0081471D02*
X0012841Y0081471D01*
X0014463Y0074284D02*
X0008200Y0074284D01*
X0008200Y0073486D02*
X0023400Y0073486D01*
X0023400Y0074284D02*
X0019137Y0074284D01*
X0019993Y0075083D02*
X0023400Y0075083D01*
X0023400Y0075881D02*
X0020589Y0075881D01*
X0020920Y0076680D02*
X0023400Y0076680D01*
X0023400Y0077478D02*
X0021100Y0077478D01*
X0021100Y0078277D02*
X0023400Y0078277D01*
X0023400Y0079075D02*
X0020997Y0079075D01*
X0020666Y0079874D02*
X0023400Y0079874D01*
X0023400Y0080672D02*
X0020179Y0080672D01*
X0019381Y0081471D02*
X0023400Y0081471D01*
X0023400Y0072687D02*
X0008200Y0072687D01*
X0008200Y0071889D02*
X0023400Y0071889D01*
X0023400Y0071090D02*
X0008200Y0071090D01*
X0008200Y0070292D02*
X0023400Y0070292D01*
X0023400Y0069493D02*
X0008200Y0069493D01*
X0008200Y0068695D02*
X0023400Y0068695D01*
X0023400Y0067896D02*
X0018254Y0067896D01*
X0018600Y0067098D02*
X0023400Y0067098D01*
X0023400Y0066299D02*
X0018600Y0066299D01*
X0018600Y0065501D02*
X0023400Y0065501D01*
X0023400Y0064702D02*
X0018600Y0064702D01*
X0018600Y0063903D02*
X0023400Y0063903D01*
X0023400Y0063105D02*
X0009600Y0063105D01*
X0009600Y0063903D02*
X0008800Y0063903D01*
X0008800Y0064702D02*
X0009600Y0064702D01*
X0009600Y0065501D02*
X0008800Y0065501D01*
X0008800Y0066299D02*
X0009600Y0066299D01*
X0009600Y0067098D02*
X0008800Y0067098D01*
X0008800Y0067896D02*
X0009600Y0067896D01*
X0018600Y0062306D02*
X0023400Y0062306D01*
X0023400Y0061508D02*
X0018600Y0061508D01*
X0018600Y0060709D02*
X0023400Y0060709D01*
X0023400Y0059911D02*
X0018600Y0059911D01*
X0018600Y0059112D02*
X0023400Y0059112D01*
X0023400Y0058314D02*
X0018437Y0058314D01*
X0018069Y0057515D02*
X0023400Y0057515D01*
X0023400Y0056717D02*
X0018200Y0056717D01*
X0018200Y0055918D02*
X0023400Y0055918D01*
X0023400Y0055120D02*
X0021930Y0055120D01*
X0023282Y0054321D02*
X0023400Y0054321D01*
X0020670Y0055120D02*
X0018200Y0055120D01*
X0018200Y0054321D02*
X0019318Y0054321D01*
X0027000Y0054321D02*
X0065142Y0054321D01*
X0065019Y0053523D02*
X0027000Y0053523D01*
X0027000Y0052724D02*
X0065099Y0052724D01*
X0065430Y0051926D02*
X0027000Y0051926D01*
X0027000Y0051127D02*
X0066210Y0051127D01*
X0065516Y0055120D02*
X0027000Y0055120D01*
X0027000Y0055918D02*
X0066442Y0055918D01*
X0069158Y0055918D02*
X0076600Y0055918D01*
X0076600Y0056717D02*
X0027000Y0056717D01*
X0027000Y0057515D02*
X0076600Y0057515D01*
X0076300Y0053470D02*
X0085600Y0053370D01*
X0085400Y0048370D02*
X0085400Y0048370D01*
X0077186Y0048370D01*
X0085400Y0048370D01*
X0085400Y0038370D02*
X0085400Y0038370D01*
X0077186Y0038370D01*
X0085400Y0038370D01*
X0085600Y0033370D02*
X0075800Y0033970D01*
X0076600Y0035956D02*
X0074598Y0035956D01*
X0076600Y0036754D02*
X0069549Y0036754D01*
X0068716Y0037553D02*
X0076600Y0037553D01*
X0077166Y0038351D02*
X0027000Y0038351D01*
X0027000Y0037553D02*
X0065684Y0037553D01*
X0064851Y0036754D02*
X0027000Y0036754D01*
X0027000Y0035956D02*
X0064515Y0035956D01*
X0064419Y0035157D02*
X0027003Y0035157D01*
X0026885Y0034359D02*
X0064526Y0034359D01*
X0064877Y0033560D02*
X0026035Y0033560D01*
X0024841Y0032762D02*
X0065748Y0032762D01*
X0068652Y0032762D02*
X0071439Y0032762D01*
X0067526Y0040747D02*
X0027000Y0040747D01*
X0027000Y0041545D02*
X0066492Y0041545D01*
X0066074Y0042344D02*
X0027000Y0042344D01*
X0027000Y0043142D02*
X0065919Y0043142D01*
X0065967Y0043941D02*
X0027000Y0043941D01*
X0027000Y0044739D02*
X0066298Y0044739D01*
X0067034Y0045538D02*
X0027000Y0045538D01*
X0027000Y0046336D02*
X0076600Y0046336D01*
X0076600Y0047135D02*
X0027000Y0047135D01*
X0027000Y0047933D02*
X0076749Y0047933D01*
X0076824Y0048732D02*
X0027000Y0048732D01*
X0027000Y0049530D02*
X0076600Y0049530D01*
X0076600Y0050329D02*
X0027000Y0050329D01*
X0027000Y0039948D02*
X0076600Y0039948D01*
X0076600Y0039150D02*
X0027000Y0039150D01*
X0023766Y0031963D02*
X0076600Y0031963D01*
X0076600Y0031165D02*
X0022729Y0031165D01*
X0018200Y0030366D02*
X0076600Y0030366D01*
X0076600Y0029567D02*
X0018200Y0029567D01*
X0069390Y0051127D02*
X0076600Y0051127D01*
X0051666Y0157329D02*
X0049545Y0157329D01*
X0049581Y0158128D02*
X0051666Y0158128D01*
X0056595Y0159970D02*
X0056800Y0160175D01*
X0079770Y0194859D02*
X0079820Y0194859D01*
D20*
X0070800Y0192470D03*
X0068300Y0181970D03*
X0063800Y0183970D03*
X0056300Y0183970D03*
X0046800Y0196970D03*
X0037700Y0183470D03*
X0044800Y0165470D03*
X0046800Y0157970D03*
X0046800Y0142970D03*
X0046800Y0122970D03*
X0049300Y0107970D03*
X0046300Y0100470D03*
X0052000Y0083970D03*
X0054800Y0093970D03*
X0060300Y0093970D03*
X0053900Y0061770D03*
X0048800Y0063170D03*
X0043800Y0061070D03*
X0021300Y0052370D03*
X0020900Y0042770D03*
X0030100Y0121670D03*
X0026800Y0132970D03*
X0067800Y0053470D03*
X0068700Y0043270D03*
X0067200Y0035170D03*
D21*
X0075800Y0033970D01*
X0076300Y0053470D02*
X0067800Y0053470D01*
X0043800Y0109970D02*
X0049300Y0115470D01*
X0056505Y0115470D01*
X0056800Y0115766D02*
X0056800Y0127852D01*
X0043800Y0109970D02*
X0035300Y0109970D01*
X0025200Y0102370D01*
X0025200Y0035270D01*
X0021700Y0032670D01*
X0009200Y0032970D01*
X0019800Y0052470D02*
X0021300Y0052370D01*
X0036800Y0115766D02*
X0036800Y0123470D01*
X0034000Y0122570D01*
X0030100Y0121670D01*
X0036800Y0123470D02*
X0036800Y0127852D01*
X0056800Y0175766D02*
X0056800Y0183470D01*
X0056300Y0183970D01*
X0056800Y0184470D02*
X0056800Y0189852D01*
X0037700Y0183470D02*
X0036800Y0181970D01*
X0037700Y0183470D02*
X0036800Y0184970D01*
X0036800Y0189852D01*
D22*
X0036800Y0181970D02*
X0036800Y0175766D01*
X0046800Y0159470D02*
X0046800Y0157970D01*
X0056300Y0183970D02*
X0056800Y0184470D01*
X0056800Y0115766D02*
X0056505Y0115470D01*
X0056800Y0100175D02*
X0036800Y0100175D01*
X0046005Y0100175D01*
X0046300Y0100470D01*
X0019800Y0052470D02*
X0009200Y0052970D01*
D23*
X0076800Y0077970D02*
X0086800Y0077970D01*
X0086800Y0087970D02*
X0076800Y0087970D01*
X0076800Y0097970D02*
X0086800Y0097970D01*
X0086800Y0117970D02*
X0076800Y0117970D01*
X0076800Y0127970D02*
X0086800Y0127970D01*
X0086800Y0137970D02*
X0076800Y0137970D01*
X0076800Y0147970D02*
X0086800Y0147970D01*
X0086800Y0157970D02*
X0076800Y0157970D01*
X0076800Y0167970D02*
X0086800Y0167970D01*
X0086800Y0177970D02*
X0076800Y0177970D01*
X0076800Y0187970D02*
X0086800Y0187970D01*
X0086800Y0197970D02*
X0076800Y0197970D01*
X0076800Y0207970D02*
X0086800Y0207970D01*
X0086800Y0217970D02*
X0076800Y0217970D01*
D24*
X0029300Y0132970D02*
X0026800Y0132970D01*
D25*
X0020900Y0042770D02*
X0009200Y0042970D01*
X0068700Y0043270D02*
X0085600Y0043370D01*
M02*
