G75*
%MOIN*%
%OFA0B0*%
%FSLAX25Y25*%
%IPPOS*%
%LPD*%
%AMOC8*
5,1,8,0,0,1.08239X$1,22.5*
%
%ADD10C,0.00000*%
%ADD11C,0.06600*%
%ADD12C,0.04724*%
%ADD13C,0.03762*%
%ADD14C,0.00800*%
%ADD15C,0.04000*%
%ADD16C,0.01000*%
%ADD17C,0.01200*%
%ADD18C,0.01600*%
D10*
X0005050Y0028010D02*
X0005050Y0223010D01*
X0085050Y0223010D01*
X0085050Y0028010D01*
X0005050Y0028010D01*
D11*
X0015050Y0078010D03*
X0015050Y0088010D03*
X0015050Y0098010D03*
X0015050Y0108010D03*
X0015050Y0118010D03*
X0015050Y0128010D03*
X0015050Y0138010D03*
X0015050Y0148010D03*
X0015050Y0158010D03*
X0015050Y0168010D03*
X0015050Y0178010D03*
X0015050Y0188010D03*
X0015050Y0198010D03*
X0015050Y0208010D03*
X0015050Y0218010D03*
X0075050Y0218010D03*
X0075050Y0208010D03*
X0075050Y0198010D03*
X0075050Y0188010D03*
X0075050Y0178010D03*
X0075050Y0168010D03*
X0075050Y0158010D03*
X0075050Y0148010D03*
X0075050Y0138010D03*
X0075050Y0128010D03*
X0075050Y0118010D03*
X0075050Y0108010D03*
X0075050Y0098010D03*
X0075050Y0088010D03*
X0075050Y0078010D03*
D12*
X0080326Y0078010D02*
X0085050Y0078010D01*
X0085050Y0088010D02*
X0080326Y0088010D01*
X0080326Y0098010D02*
X0085050Y0098010D01*
X0085050Y0108010D02*
X0080326Y0108010D01*
X0080326Y0118010D02*
X0085050Y0118010D01*
X0085050Y0128010D02*
X0080326Y0128010D01*
X0080326Y0138010D02*
X0085050Y0138010D01*
X0085050Y0148010D02*
X0080326Y0148010D01*
X0080326Y0158010D02*
X0085050Y0158010D01*
X0085050Y0168010D02*
X0080326Y0168010D01*
X0080326Y0178010D02*
X0085050Y0178010D01*
X0085050Y0188010D02*
X0080326Y0188010D01*
X0080326Y0198010D02*
X0085050Y0198010D01*
X0085050Y0208010D02*
X0080326Y0208010D01*
X0080326Y0218010D02*
X0085050Y0218010D01*
X0009774Y0218010D02*
X0005050Y0218010D01*
X0005050Y0208010D02*
X0009774Y0208010D01*
X0009774Y0198010D02*
X0005050Y0198010D01*
X0005050Y0188010D02*
X0009774Y0188010D01*
X0009774Y0178010D02*
X0005050Y0178010D01*
X0005050Y0168010D02*
X0009774Y0168010D01*
X0009774Y0158010D02*
X0005050Y0158010D01*
X0005050Y0148010D02*
X0009774Y0148010D01*
X0009774Y0138010D02*
X0005050Y0138010D01*
X0005050Y0128010D02*
X0009774Y0128010D01*
X0009774Y0118010D02*
X0005050Y0118010D01*
X0005050Y0108010D02*
X0009774Y0108010D01*
X0009774Y0098010D02*
X0005050Y0098010D01*
X0005050Y0088010D02*
X0009774Y0088010D01*
X0009774Y0078010D02*
X0005050Y0078010D01*
D13*
X0021750Y0048910D03*
X0022350Y0040010D03*
X0042050Y0061110D03*
X0047050Y0063210D03*
X0052150Y0061810D03*
X0050250Y0084010D03*
X0053050Y0094010D03*
X0058550Y0094010D03*
X0047550Y0108010D03*
X0044550Y0100510D03*
X0045050Y0123010D03*
X0045050Y0143010D03*
X0045050Y0158010D03*
X0043050Y0165510D03*
X0035950Y0183510D03*
X0045050Y0197010D03*
X0054550Y0184010D03*
X0062050Y0184010D03*
X0066550Y0182010D03*
X0069050Y0192510D03*
X0028350Y0121710D03*
X0025050Y0133010D03*
X0061050Y0053510D03*
X0061950Y0043310D03*
X0055450Y0040210D03*
D14*
X0056659Y0037592D02*
X0083150Y0037592D01*
X0083150Y0038390D02*
X0057705Y0038390D01*
X0057892Y0038578D02*
X0058331Y0039637D01*
X0058331Y0040783D01*
X0057892Y0041842D01*
X0057082Y0042652D01*
X0056023Y0043091D01*
X0054877Y0043091D01*
X0054161Y0042794D01*
X0035174Y0051626D01*
X0033651Y0053946D01*
X0033654Y0055765D01*
X0034020Y0055395D01*
X0034294Y0054942D01*
X0034528Y0054884D01*
X0034697Y0054713D01*
X0035227Y0054711D01*
X0044631Y0052383D01*
X0044804Y0052210D01*
X0045331Y0052210D01*
X0045841Y0052083D01*
X0046051Y0052210D01*
X0058470Y0052210D01*
X0058608Y0051878D01*
X0059418Y0051067D01*
X0060477Y0050629D01*
X0061623Y0050629D01*
X0062682Y0051067D01*
X0063492Y0051878D01*
X0063630Y0052210D01*
X0063796Y0052210D01*
X0063970Y0052385D01*
X0064210Y0052444D01*
X0064479Y0052894D01*
X0064850Y0053264D01*
X0064850Y0053511D01*
X0064977Y0053723D01*
X0064850Y0054231D01*
X0064850Y0054755D01*
X0064675Y0054930D01*
X0064615Y0055170D01*
X0064166Y0055439D01*
X0063796Y0055810D01*
X0063549Y0055810D01*
X0063337Y0055937D01*
X0062828Y0055810D01*
X0062824Y0055810D01*
X0062682Y0055952D01*
X0061623Y0056391D01*
X0060477Y0056391D01*
X0059418Y0055952D01*
X0059276Y0055810D01*
X0045769Y0055810D01*
X0037256Y0057917D01*
X0037342Y0079798D01*
X0040232Y0063366D01*
X0039608Y0062742D01*
X0039169Y0061683D01*
X0039169Y0060537D01*
X0039608Y0059478D01*
X0040418Y0058667D01*
X0041477Y0058229D01*
X0042623Y0058229D01*
X0043682Y0058667D01*
X0044492Y0059478D01*
X0044931Y0060537D01*
X0044931Y0061254D01*
X0045418Y0060767D01*
X0046477Y0060329D01*
X0047623Y0060329D01*
X0048682Y0060767D01*
X0049269Y0061354D01*
X0049269Y0061237D01*
X0049708Y0060178D01*
X0050518Y0059367D01*
X0051577Y0058929D01*
X0052723Y0058929D01*
X0053782Y0059367D01*
X0054592Y0060178D01*
X0055031Y0061237D01*
X0055031Y0061936D01*
X0058416Y0064015D01*
X0066241Y0066209D01*
X0066626Y0066208D01*
X0066779Y0066360D01*
X0066986Y0066418D01*
X0067175Y0066754D01*
X0067448Y0067026D01*
X0067449Y0067241D01*
X0067555Y0067430D01*
X0067451Y0067800D01*
X0067748Y0163788D01*
X0071141Y0166211D01*
X0071405Y0165574D01*
X0072614Y0164364D01*
X0074195Y0163710D01*
X0075905Y0163710D01*
X0077486Y0164364D01*
X0078351Y0165230D01*
X0078421Y0165159D01*
X0079657Y0164648D01*
X0083150Y0164648D01*
X0083150Y0161372D01*
X0079657Y0161372D01*
X0078421Y0160860D01*
X0078351Y0160790D01*
X0077486Y0161655D01*
X0075905Y0162310D01*
X0074195Y0162310D01*
X0072614Y0161655D01*
X0071405Y0160446D01*
X0070750Y0158865D01*
X0070750Y0157155D01*
X0071405Y0155574D01*
X0072614Y0154364D01*
X0074195Y0153710D01*
X0075905Y0153710D01*
X0077486Y0154364D01*
X0078351Y0155230D01*
X0078421Y0155159D01*
X0079657Y0154648D01*
X0083150Y0154648D01*
X0083150Y0151372D01*
X0079657Y0151372D01*
X0078421Y0150860D01*
X0078351Y0150790D01*
X0077486Y0151655D01*
X0075905Y0152310D01*
X0074195Y0152310D01*
X0072614Y0151655D01*
X0071405Y0150446D01*
X0070750Y0148865D01*
X0070750Y0147155D01*
X0071405Y0145574D01*
X0072614Y0144364D01*
X0074195Y0143710D01*
X0075905Y0143710D01*
X0077486Y0144364D01*
X0078351Y0145230D01*
X0078421Y0145159D01*
X0079657Y0144648D01*
X0083150Y0144648D01*
X0083150Y0141372D01*
X0079657Y0141372D01*
X0078421Y0140860D01*
X0078351Y0140790D01*
X0077486Y0141655D01*
X0075905Y0142310D01*
X0074195Y0142310D01*
X0072614Y0141655D01*
X0071405Y0140446D01*
X0070750Y0138865D01*
X0070750Y0137155D01*
X0071405Y0135574D01*
X0072614Y0134364D01*
X0074195Y0133710D01*
X0075905Y0133710D01*
X0077486Y0134364D01*
X0078351Y0135230D01*
X0078421Y0135159D01*
X0079657Y0134648D01*
X0083150Y0134648D01*
X0083150Y0131372D01*
X0079657Y0131372D01*
X0078421Y0130860D01*
X0078351Y0130790D01*
X0077486Y0131655D01*
X0075905Y0132310D01*
X0074195Y0132310D01*
X0072614Y0131655D01*
X0071405Y0130446D01*
X0070750Y0128865D01*
X0070750Y0127155D01*
X0071405Y0125574D01*
X0072614Y0124364D01*
X0074195Y0123710D01*
X0075905Y0123710D01*
X0077486Y0124364D01*
X0078351Y0125230D01*
X0078421Y0125159D01*
X0079657Y0124648D01*
X0083150Y0124648D01*
X0083150Y0121372D01*
X0079657Y0121372D01*
X0078421Y0120860D01*
X0078351Y0120790D01*
X0077486Y0121655D01*
X0075905Y0122310D01*
X0074195Y0122310D01*
X0072614Y0121655D01*
X0071405Y0120446D01*
X0070750Y0118865D01*
X0070750Y0117155D01*
X0071405Y0115574D01*
X0072614Y0114364D01*
X0074195Y0113710D01*
X0075905Y0113710D01*
X0077486Y0114364D01*
X0078351Y0115230D01*
X0078421Y0115159D01*
X0079657Y0114648D01*
X0083150Y0114648D01*
X0083150Y0111372D01*
X0079657Y0111372D01*
X0078421Y0110860D01*
X0078351Y0110790D01*
X0077486Y0111655D01*
X0075905Y0112310D01*
X0074195Y0112310D01*
X0072614Y0111655D01*
X0071405Y0110446D01*
X0070750Y0108865D01*
X0070750Y0107155D01*
X0071405Y0105574D01*
X0072614Y0104364D01*
X0074195Y0103710D01*
X0075905Y0103710D01*
X0077486Y0104364D01*
X0078351Y0105230D01*
X0078421Y0105159D01*
X0079657Y0104648D01*
X0083150Y0104648D01*
X0083150Y0101372D01*
X0079657Y0101372D01*
X0078421Y0100860D01*
X0078351Y0100790D01*
X0077486Y0101655D01*
X0075905Y0102310D01*
X0074195Y0102310D01*
X0072614Y0101655D01*
X0071405Y0100446D01*
X0070750Y0098865D01*
X0070750Y0097155D01*
X0071405Y0095574D01*
X0072614Y0094364D01*
X0074195Y0093710D01*
X0075905Y0093710D01*
X0077486Y0094364D01*
X0078351Y0095230D01*
X0078421Y0095159D01*
X0079657Y0094648D01*
X0083150Y0094648D01*
X0083150Y0091372D01*
X0079657Y0091372D01*
X0078421Y0090860D01*
X0078351Y0090790D01*
X0077486Y0091655D01*
X0075905Y0092310D01*
X0074195Y0092310D01*
X0072614Y0091655D01*
X0071405Y0090446D01*
X0070750Y0088865D01*
X0070750Y0087155D01*
X0071405Y0085574D01*
X0072614Y0084364D01*
X0074195Y0083710D01*
X0075905Y0083710D01*
X0077486Y0084364D01*
X0078351Y0085230D01*
X0078421Y0085159D01*
X0079657Y0084648D01*
X0083150Y0084648D01*
X0083150Y0081372D01*
X0079657Y0081372D01*
X0078421Y0080860D01*
X0078351Y0080790D01*
X0077486Y0081655D01*
X0075905Y0082310D01*
X0074195Y0082310D01*
X0072614Y0081655D01*
X0071405Y0080446D01*
X0070750Y0078865D01*
X0070750Y0077155D01*
X0071405Y0075574D01*
X0072614Y0074364D01*
X0074195Y0073710D01*
X0075905Y0073710D01*
X0077486Y0074364D01*
X0078351Y0075230D01*
X0078421Y0075159D01*
X0079657Y0074648D01*
X0083150Y0074648D01*
X0083150Y0029910D01*
X0006950Y0029910D01*
X0006950Y0074248D01*
X0010145Y0074248D01*
X0010872Y0074392D01*
X0011556Y0074676D01*
X0011665Y0074748D01*
X0011988Y0074425D01*
X0012587Y0073990D01*
X0013246Y0073654D01*
X0013949Y0073426D01*
X0014650Y0073315D01*
X0014650Y0077610D01*
X0013531Y0077610D01*
X0013533Y0077622D01*
X0006950Y0077622D01*
X0006950Y0078397D01*
X0013533Y0078397D01*
X0013531Y0078410D01*
X0014650Y0078410D01*
X0014650Y0082705D01*
X0013949Y0082594D01*
X0013246Y0082365D01*
X0012587Y0082030D01*
X0011988Y0081595D01*
X0011665Y0081271D01*
X0011556Y0081344D01*
X0010872Y0081627D01*
X0010145Y0081772D01*
X0006950Y0081772D01*
X0006950Y0084648D01*
X0010443Y0084648D01*
X0011318Y0085010D01*
X0011969Y0085010D01*
X0012614Y0084364D01*
X0014195Y0083710D01*
X0015905Y0083710D01*
X0017486Y0084364D01*
X0018695Y0085574D01*
X0019350Y0087155D01*
X0019350Y0088865D01*
X0018695Y0090446D01*
X0017486Y0091655D01*
X0015905Y0092310D01*
X0014195Y0092310D01*
X0012614Y0091655D01*
X0011969Y0091010D01*
X0011318Y0091010D01*
X0010443Y0091372D01*
X0006950Y0091372D01*
X0006950Y0094648D01*
X0010443Y0094648D01*
X0011318Y0095010D01*
X0011969Y0095010D01*
X0012614Y0094364D01*
X0014195Y0093710D01*
X0015905Y0093710D01*
X0017486Y0094364D01*
X0018695Y0095574D01*
X0019350Y0097155D01*
X0019350Y0098865D01*
X0018695Y0100446D01*
X0017486Y0101655D01*
X0015905Y0102310D01*
X0014195Y0102310D01*
X0012614Y0101655D01*
X0011969Y0101010D01*
X0011318Y0101010D01*
X0010443Y0101372D01*
X0006950Y0101372D01*
X0006950Y0104648D01*
X0010443Y0104648D01*
X0011318Y0105010D01*
X0011969Y0105010D01*
X0012614Y0104364D01*
X0014195Y0103710D01*
X0015905Y0103710D01*
X0017486Y0104364D01*
X0018695Y0105574D01*
X0019350Y0107155D01*
X0019350Y0108865D01*
X0018695Y0110446D01*
X0017486Y0111655D01*
X0015905Y0112310D01*
X0014195Y0112310D01*
X0012614Y0111655D01*
X0011969Y0111010D01*
X0011318Y0111010D01*
X0010443Y0111372D01*
X0006950Y0111372D01*
X0006950Y0114648D01*
X0010443Y0114648D01*
X0011318Y0115010D01*
X0011969Y0115010D01*
X0012614Y0114364D01*
X0014195Y0113710D01*
X0015905Y0113710D01*
X0017486Y0114364D01*
X0018695Y0115574D01*
X0019350Y0117155D01*
X0019350Y0118865D01*
X0018695Y0120446D01*
X0017486Y0121655D01*
X0015905Y0122310D01*
X0014195Y0122310D01*
X0012614Y0121655D01*
X0011969Y0121010D01*
X0011318Y0121010D01*
X0010443Y0121372D01*
X0006950Y0121372D01*
X0006950Y0124648D01*
X0010443Y0124648D01*
X0011318Y0125010D01*
X0011969Y0125010D01*
X0012614Y0124364D01*
X0014195Y0123710D01*
X0015905Y0123710D01*
X0017486Y0124364D01*
X0018695Y0125574D01*
X0019350Y0127155D01*
X0019350Y0128865D01*
X0018695Y0130446D01*
X0017486Y0131655D01*
X0015905Y0132310D01*
X0014195Y0132310D01*
X0012614Y0131655D01*
X0011969Y0131010D01*
X0011318Y0131010D01*
X0010443Y0131372D01*
X0006950Y0131372D01*
X0006950Y0134648D01*
X0010443Y0134648D01*
X0011318Y0135010D01*
X0011969Y0135010D01*
X0012614Y0134364D01*
X0014195Y0133710D01*
X0015905Y0133710D01*
X0017486Y0134364D01*
X0018695Y0135574D01*
X0019350Y0137155D01*
X0019350Y0138865D01*
X0018695Y0140446D01*
X0017486Y0141655D01*
X0015905Y0142310D01*
X0014195Y0142310D01*
X0012614Y0141655D01*
X0011969Y0141010D01*
X0011318Y0141010D01*
X0010443Y0141372D01*
X0006950Y0141372D01*
X0006950Y0144648D01*
X0010443Y0144648D01*
X0011318Y0145010D01*
X0011969Y0145010D01*
X0012614Y0144364D01*
X0014195Y0143710D01*
X0015905Y0143710D01*
X0017486Y0144364D01*
X0018695Y0145574D01*
X0019350Y0147155D01*
X0019350Y0148865D01*
X0018695Y0150446D01*
X0017486Y0151655D01*
X0015905Y0152310D01*
X0014195Y0152310D01*
X0012614Y0151655D01*
X0011969Y0151010D01*
X0011318Y0151010D01*
X0010443Y0151372D01*
X0006950Y0151372D01*
X0006950Y0154648D01*
X0010443Y0154648D01*
X0011318Y0155010D01*
X0011969Y0155010D01*
X0012614Y0154364D01*
X0014195Y0153710D01*
X0015905Y0153710D01*
X0017486Y0154364D01*
X0018695Y0155574D01*
X0019350Y0157155D01*
X0019350Y0158865D01*
X0018695Y0160446D01*
X0017486Y0161655D01*
X0015905Y0162310D01*
X0014195Y0162310D01*
X0012614Y0161655D01*
X0011969Y0161010D01*
X0011318Y0161010D01*
X0010443Y0161372D01*
X0006950Y0161372D01*
X0006950Y0164648D01*
X0010443Y0164648D01*
X0011318Y0165010D01*
X0011969Y0165010D01*
X0012614Y0164364D01*
X0014195Y0163710D01*
X0015905Y0163710D01*
X0017486Y0164364D01*
X0018695Y0165574D01*
X0019350Y0167155D01*
X0019350Y0168865D01*
X0018695Y0170446D01*
X0017486Y0171655D01*
X0015905Y0172310D01*
X0014195Y0172310D01*
X0012614Y0171655D01*
X0011969Y0171010D01*
X0011318Y0171010D01*
X0010443Y0171372D01*
X0006950Y0171372D01*
X0006950Y0174648D01*
X0010443Y0174648D01*
X0011318Y0175010D01*
X0011969Y0175010D01*
X0012614Y0174364D01*
X0014195Y0173710D01*
X0015905Y0173710D01*
X0017486Y0174364D01*
X0018695Y0175574D01*
X0019350Y0177155D01*
X0019350Y0178865D01*
X0018695Y0180446D01*
X0017486Y0181655D01*
X0015905Y0182310D01*
X0014195Y0182310D01*
X0012614Y0181655D01*
X0011969Y0181010D01*
X0011318Y0181010D01*
X0010443Y0181372D01*
X0006950Y0181372D01*
X0006950Y0184648D01*
X0010443Y0184648D01*
X0011318Y0185010D01*
X0011969Y0185010D01*
X0012614Y0184364D01*
X0014195Y0183710D01*
X0015905Y0183710D01*
X0017486Y0184364D01*
X0018695Y0185574D01*
X0019350Y0187155D01*
X0019350Y0188865D01*
X0018695Y0190446D01*
X0017486Y0191655D01*
X0015905Y0192310D01*
X0014195Y0192310D01*
X0012614Y0191655D01*
X0011969Y0191010D01*
X0011318Y0191010D01*
X0010443Y0191372D01*
X0006950Y0191372D01*
X0006950Y0194648D01*
X0010443Y0194648D01*
X0011318Y0195010D01*
X0011969Y0195010D01*
X0012614Y0194364D01*
X0014195Y0193710D01*
X0015905Y0193710D01*
X0017486Y0194364D01*
X0018695Y0195574D01*
X0019350Y0197155D01*
X0019350Y0198865D01*
X0018695Y0200446D01*
X0017486Y0201655D01*
X0015905Y0202310D01*
X0014195Y0202310D01*
X0012614Y0201655D01*
X0011969Y0201010D01*
X0011318Y0201010D01*
X0010443Y0201372D01*
X0006950Y0201372D01*
X0006950Y0204648D01*
X0010443Y0204648D01*
X0011318Y0205010D01*
X0011969Y0205010D01*
X0012614Y0204364D01*
X0014195Y0203710D01*
X0015905Y0203710D01*
X0017486Y0204364D01*
X0018695Y0205574D01*
X0019083Y0206510D01*
X0023550Y0206510D01*
X0023550Y0135507D01*
X0023418Y0135452D01*
X0022608Y0134642D01*
X0022169Y0133583D01*
X0022169Y0132437D01*
X0022608Y0131378D01*
X0023418Y0130567D01*
X0024477Y0130129D01*
X0025623Y0130129D01*
X0026682Y0130567D01*
X0027492Y0131378D01*
X0027931Y0132437D01*
X0027931Y0133583D01*
X0027492Y0134642D01*
X0026682Y0135452D01*
X0026550Y0135507D01*
X0026550Y0208631D01*
X0025671Y0209510D01*
X0019083Y0209510D01*
X0018695Y0210446D01*
X0017486Y0211655D01*
X0015905Y0212310D01*
X0014195Y0212310D01*
X0012614Y0211655D01*
X0011969Y0211010D01*
X0011318Y0211010D01*
X0010443Y0211372D01*
X0006950Y0211372D01*
X0006950Y0214648D01*
X0010443Y0214648D01*
X0011318Y0215010D01*
X0011969Y0215010D01*
X0012614Y0214364D01*
X0014195Y0213710D01*
X0015905Y0213710D01*
X0017486Y0214364D01*
X0018695Y0215574D01*
X0019350Y0217155D01*
X0019350Y0218865D01*
X0018695Y0220446D01*
X0018031Y0221110D01*
X0072069Y0221110D01*
X0071405Y0220446D01*
X0070750Y0218865D01*
X0070750Y0217155D01*
X0071405Y0215574D01*
X0072614Y0214364D01*
X0074195Y0213710D01*
X0075905Y0213710D01*
X0077486Y0214364D01*
X0078351Y0215230D01*
X0078421Y0215159D01*
X0079657Y0214648D01*
X0083150Y0214648D01*
X0083150Y0211372D01*
X0079657Y0211372D01*
X0078421Y0210860D01*
X0078351Y0210790D01*
X0077486Y0211655D01*
X0075905Y0212310D01*
X0074195Y0212310D01*
X0072614Y0211655D01*
X0071405Y0210446D01*
X0070750Y0208865D01*
X0070750Y0207155D01*
X0071179Y0206119D01*
X0067650Y0202590D01*
X0067650Y0195048D01*
X0067418Y0194952D01*
X0066608Y0194142D01*
X0066169Y0193083D01*
X0066169Y0192371D01*
X0063450Y0195090D01*
X0062630Y0195910D01*
X0048130Y0195910D01*
X0047835Y0196205D01*
X0047931Y0196437D01*
X0047931Y0197583D01*
X0047492Y0198642D01*
X0046682Y0199452D01*
X0045623Y0199891D01*
X0044477Y0199891D01*
X0043418Y0199452D01*
X0042608Y0198642D01*
X0042169Y0197583D01*
X0042169Y0196437D01*
X0042608Y0195378D01*
X0043418Y0194567D01*
X0044477Y0194129D01*
X0045623Y0194129D01*
X0045855Y0194225D01*
X0046970Y0193110D01*
X0061470Y0193110D01*
X0067970Y0186610D01*
X0070976Y0186610D01*
X0071405Y0185574D01*
X0072614Y0184364D01*
X0074195Y0183710D01*
X0075905Y0183710D01*
X0077486Y0184364D01*
X0078351Y0185230D01*
X0078421Y0185159D01*
X0079657Y0184648D01*
X0083150Y0184648D01*
X0083150Y0181372D01*
X0079657Y0181372D01*
X0078421Y0180860D01*
X0078351Y0180790D01*
X0077486Y0181655D01*
X0075905Y0182310D01*
X0074195Y0182310D01*
X0072614Y0181655D01*
X0071405Y0180446D01*
X0070849Y0179104D01*
X0065922Y0178741D01*
X0065835Y0178798D01*
X0065356Y0178699D01*
X0064869Y0178663D01*
X0064801Y0178585D01*
X0064750Y0178574D01*
X0065574Y0179296D01*
X0065977Y0179129D01*
X0067123Y0179129D01*
X0068182Y0179567D01*
X0068992Y0180378D01*
X0069431Y0181437D01*
X0069431Y0182583D01*
X0068992Y0183642D01*
X0068182Y0184452D01*
X0067123Y0184891D01*
X0065977Y0184891D01*
X0064931Y0184458D01*
X0064931Y0184583D01*
X0064492Y0185642D01*
X0063682Y0186452D01*
X0062623Y0186891D01*
X0061477Y0186891D01*
X0060418Y0186452D01*
X0059608Y0185642D01*
X0059169Y0184583D01*
X0059169Y0183437D01*
X0059171Y0183433D01*
X0052543Y0177910D01*
X0052470Y0177910D01*
X0052105Y0177545D01*
X0051708Y0177214D01*
X0051702Y0177141D01*
X0051650Y0177090D01*
X0051650Y0176573D01*
X0051603Y0176059D01*
X0051650Y0176003D01*
X0051650Y0096548D01*
X0051418Y0096452D01*
X0050608Y0095642D01*
X0050169Y0094583D01*
X0050169Y0093437D01*
X0050608Y0092378D01*
X0051418Y0091567D01*
X0052477Y0091129D01*
X0053623Y0091129D01*
X0054682Y0091567D01*
X0055492Y0092378D01*
X0055800Y0093120D01*
X0056108Y0092378D01*
X0056918Y0091567D01*
X0057977Y0091129D01*
X0059123Y0091129D01*
X0060182Y0091567D01*
X0060992Y0092378D01*
X0061418Y0093405D01*
X0061353Y0071047D01*
X0054648Y0069640D01*
X0054365Y0069698D01*
X0054102Y0069525D01*
X0053795Y0069461D01*
X0053637Y0069219D01*
X0048396Y0065771D01*
X0047623Y0066091D01*
X0046477Y0066091D01*
X0045418Y0065652D01*
X0044608Y0064842D01*
X0044169Y0063783D01*
X0044169Y0063065D01*
X0043682Y0063552D01*
X0042992Y0063838D01*
X0039950Y0081132D01*
X0039950Y0089314D01*
X0041282Y0087912D01*
X0041334Y0087705D01*
X0041667Y0087506D01*
X0041934Y0087225D01*
X0042147Y0087220D01*
X0047369Y0084100D01*
X0047369Y0083437D01*
X0047808Y0082378D01*
X0048618Y0081567D01*
X0049677Y0081129D01*
X0050823Y0081129D01*
X0051882Y0081567D01*
X0052692Y0082378D01*
X0053131Y0083437D01*
X0053131Y0084583D01*
X0052692Y0085642D01*
X0051882Y0086452D01*
X0050823Y0086891D01*
X0049677Y0086891D01*
X0048779Y0086519D01*
X0043433Y0089713D01*
X0042046Y0091173D01*
X0041954Y0104977D01*
X0044669Y0107994D01*
X0044669Y0107437D01*
X0045108Y0106378D01*
X0045918Y0105567D01*
X0046977Y0105129D01*
X0048123Y0105129D01*
X0049182Y0105567D01*
X0049992Y0106378D01*
X0050431Y0107437D01*
X0050431Y0108583D01*
X0049992Y0109642D01*
X0049182Y0110452D01*
X0048950Y0110548D01*
X0048950Y0117430D01*
X0050630Y0119110D01*
X0051450Y0119930D01*
X0051450Y0131090D01*
X0046450Y0136090D01*
X0046450Y0140471D01*
X0046682Y0140567D01*
X0047492Y0141378D01*
X0047931Y0142437D01*
X0047931Y0143583D01*
X0047492Y0144642D01*
X0046682Y0145452D01*
X0045623Y0145891D01*
X0044477Y0145891D01*
X0043450Y0145466D01*
X0043450Y0160430D01*
X0043630Y0160610D01*
X0044450Y0161430D01*
X0044450Y0162971D01*
X0044682Y0163067D01*
X0045492Y0163878D01*
X0045931Y0164937D01*
X0045931Y0166083D01*
X0045492Y0167142D01*
X0044682Y0167952D01*
X0043623Y0168391D01*
X0042477Y0168391D01*
X0041418Y0167952D01*
X0040608Y0167142D01*
X0040169Y0166083D01*
X0040169Y0164937D01*
X0040608Y0163878D01*
X0041418Y0163067D01*
X0041650Y0162971D01*
X0041650Y0162590D01*
X0041470Y0162410D01*
X0040650Y0161590D01*
X0040650Y0112090D01*
X0037970Y0109410D01*
X0037456Y0108896D01*
X0037741Y0181226D01*
X0038392Y0181878D01*
X0038831Y0182937D01*
X0038831Y0184083D01*
X0038392Y0185142D01*
X0037582Y0185952D01*
X0036523Y0186391D01*
X0035377Y0186391D01*
X0034553Y0186050D01*
X0034643Y0186658D01*
X0034696Y0186710D01*
X0047359Y0186710D01*
X0051811Y0182704D01*
X0052087Y0182427D01*
X0052108Y0182378D01*
X0052918Y0181567D01*
X0053977Y0181129D01*
X0055123Y0181129D01*
X0056182Y0181567D01*
X0056992Y0182378D01*
X0057431Y0183437D01*
X0057431Y0184583D01*
X0056992Y0185642D01*
X0056182Y0186452D01*
X0055123Y0186891D01*
X0053977Y0186891D01*
X0052993Y0186483D01*
X0049289Y0189816D01*
X0048796Y0190310D01*
X0048741Y0190310D01*
X0048700Y0190347D01*
X0048003Y0190310D01*
X0033204Y0190310D01*
X0032150Y0189255D01*
X0031771Y0188876D01*
X0031279Y0188511D01*
X0031257Y0188362D01*
X0031150Y0188255D01*
X0031150Y0187642D01*
X0030461Y0182993D01*
X0030374Y0182911D01*
X0030354Y0182270D01*
X0030260Y0181636D01*
X0030331Y0181540D01*
X0030273Y0179680D01*
X0030251Y0179658D01*
X0030250Y0178939D01*
X0030228Y0178221D01*
X0030249Y0178198D01*
X0030162Y0123972D01*
X0029982Y0124152D01*
X0028923Y0124591D01*
X0027777Y0124591D01*
X0026718Y0124152D01*
X0025908Y0123342D01*
X0025469Y0122283D01*
X0025469Y0121137D01*
X0025721Y0120528D01*
X0025651Y0120458D01*
X0025650Y0119909D01*
X0025531Y0119372D01*
X0025649Y0119187D01*
X0025552Y0050847D01*
X0023945Y0050789D01*
X0023382Y0051352D01*
X0022323Y0051791D01*
X0021177Y0051791D01*
X0020118Y0051352D01*
X0019308Y0050542D01*
X0018869Y0049483D01*
X0018869Y0048337D01*
X0019308Y0047278D01*
X0020118Y0046467D01*
X0021177Y0046029D01*
X0022323Y0046029D01*
X0023382Y0046467D01*
X0024108Y0047193D01*
X0027381Y0047310D01*
X0028093Y0047309D01*
X0028121Y0047336D01*
X0028159Y0047338D01*
X0028645Y0047859D01*
X0029149Y0048362D01*
X0029149Y0048401D01*
X0029175Y0048429D01*
X0029150Y0049141D01*
X0029249Y0118964D01*
X0029982Y0119267D01*
X0030155Y0119441D01*
X0030050Y0053596D01*
X0029936Y0053046D01*
X0030049Y0052873D01*
X0030049Y0052667D01*
X0030446Y0052269D01*
X0032331Y0049397D01*
X0032515Y0048892D01*
X0032726Y0048794D01*
X0032854Y0048599D01*
X0033380Y0048490D01*
X0052606Y0039548D01*
X0053008Y0038578D01*
X0053818Y0037767D01*
X0054877Y0037329D01*
X0056023Y0037329D01*
X0057082Y0037767D01*
X0057892Y0038578D01*
X0058146Y0039189D02*
X0083150Y0039189D01*
X0083150Y0039988D02*
X0058331Y0039988D01*
X0058330Y0040786D02*
X0083150Y0040786D01*
X0083150Y0041585D02*
X0057999Y0041585D01*
X0057351Y0042383D02*
X0083150Y0042383D01*
X0083150Y0043182D02*
X0053329Y0043182D01*
X0051660Y0039988D02*
X0006950Y0039988D01*
X0006950Y0040786D02*
X0049943Y0040786D01*
X0048226Y0041585D02*
X0006950Y0041585D01*
X0006950Y0042383D02*
X0046509Y0042383D01*
X0044793Y0043182D02*
X0006950Y0043182D01*
X0006950Y0043980D02*
X0043076Y0043980D01*
X0041359Y0044779D02*
X0006950Y0044779D01*
X0006950Y0045577D02*
X0039642Y0045577D01*
X0039595Y0049570D02*
X0083150Y0049570D01*
X0083150Y0050368D02*
X0037878Y0050368D01*
X0036641Y0054361D02*
X0033651Y0054361D01*
X0033653Y0055159D02*
X0034163Y0055159D01*
X0033903Y0053562D02*
X0039867Y0053562D01*
X0041946Y0056756D02*
X0083150Y0056756D01*
X0083150Y0055958D02*
X0062669Y0055958D01*
X0064618Y0055159D02*
X0083150Y0055159D01*
X0083150Y0054361D02*
X0064850Y0054361D01*
X0064881Y0053562D02*
X0083150Y0053562D01*
X0083150Y0052764D02*
X0064401Y0052764D01*
X0063529Y0051965D02*
X0083150Y0051965D01*
X0083150Y0051167D02*
X0062781Y0051167D01*
X0059319Y0051167D02*
X0036161Y0051167D01*
X0034951Y0051965D02*
X0058571Y0051965D01*
X0059431Y0055958D02*
X0045172Y0055958D01*
X0044166Y0059152D02*
X0051038Y0059152D01*
X0049935Y0059950D02*
X0044688Y0059950D01*
X0044931Y0060749D02*
X0045463Y0060749D01*
X0047050Y0063210D02*
X0054650Y0068210D01*
X0062750Y0069910D01*
X0063050Y0173510D01*
X0065550Y0177310D01*
X0075050Y0178010D01*
X0073742Y0182123D02*
X0069431Y0182123D01*
X0069384Y0181324D02*
X0072283Y0181324D01*
X0071485Y0180526D02*
X0069054Y0180526D01*
X0068342Y0179727D02*
X0071107Y0179727D01*
X0069291Y0182921D02*
X0083150Y0182921D01*
X0083150Y0182123D02*
X0076358Y0182123D01*
X0075929Y0183720D02*
X0083150Y0183720D01*
X0083150Y0184518D02*
X0077639Y0184518D01*
X0077817Y0181324D02*
X0079541Y0181324D01*
X0075050Y0188010D02*
X0068550Y0188010D01*
X0062050Y0194510D01*
X0047550Y0194510D01*
X0045050Y0197010D01*
X0043991Y0199690D02*
X0026550Y0199690D01*
X0026550Y0200488D02*
X0067650Y0200488D01*
X0067650Y0199690D02*
X0046109Y0199690D01*
X0047243Y0198891D02*
X0067650Y0198891D01*
X0067650Y0198093D02*
X0047720Y0198093D01*
X0047931Y0197294D02*
X0067650Y0197294D01*
X0067650Y0196496D02*
X0047931Y0196496D01*
X0045980Y0194100D02*
X0026550Y0194100D01*
X0026550Y0193302D02*
X0046778Y0193302D01*
X0048998Y0190108D02*
X0064472Y0190108D01*
X0063674Y0190906D02*
X0026550Y0190906D01*
X0026550Y0190108D02*
X0033002Y0190108D01*
X0032204Y0189309D02*
X0026550Y0189309D01*
X0026550Y0188511D02*
X0031279Y0188511D01*
X0031150Y0187712D02*
X0026550Y0187712D01*
X0026550Y0186914D02*
X0031042Y0186914D01*
X0030924Y0186115D02*
X0026550Y0186115D01*
X0026550Y0185317D02*
X0030805Y0185317D01*
X0030687Y0184518D02*
X0026550Y0184518D01*
X0026550Y0183720D02*
X0030569Y0183720D01*
X0030385Y0182921D02*
X0026550Y0182921D01*
X0026550Y0182123D02*
X0030332Y0182123D01*
X0030325Y0181324D02*
X0026550Y0181324D01*
X0026550Y0180526D02*
X0030300Y0180526D01*
X0030275Y0179727D02*
X0026550Y0179727D01*
X0026550Y0178928D02*
X0030250Y0178928D01*
X0030249Y0178130D02*
X0026550Y0178130D01*
X0026550Y0177331D02*
X0030247Y0177331D01*
X0030246Y0176533D02*
X0026550Y0176533D01*
X0026550Y0175734D02*
X0030245Y0175734D01*
X0030244Y0174936D02*
X0026550Y0174936D01*
X0026550Y0174137D02*
X0030242Y0174137D01*
X0030241Y0173339D02*
X0026550Y0173339D01*
X0026550Y0172540D02*
X0030240Y0172540D01*
X0030239Y0171742D02*
X0026550Y0171742D01*
X0026550Y0170943D02*
X0030237Y0170943D01*
X0030236Y0170145D02*
X0026550Y0170145D01*
X0026550Y0169346D02*
X0030235Y0169346D01*
X0030233Y0168548D02*
X0026550Y0168548D01*
X0026550Y0167749D02*
X0030232Y0167749D01*
X0030231Y0166951D02*
X0026550Y0166951D01*
X0026550Y0166152D02*
X0030230Y0166152D01*
X0030228Y0165354D02*
X0026550Y0165354D01*
X0026550Y0164555D02*
X0030227Y0164555D01*
X0030226Y0163757D02*
X0026550Y0163757D01*
X0026550Y0162958D02*
X0030225Y0162958D01*
X0030223Y0162160D02*
X0026550Y0162160D01*
X0026550Y0161361D02*
X0030222Y0161361D01*
X0030221Y0160563D02*
X0026550Y0160563D01*
X0026550Y0159764D02*
X0030220Y0159764D01*
X0030218Y0158966D02*
X0026550Y0158966D01*
X0026550Y0158167D02*
X0030217Y0158167D01*
X0030216Y0157369D02*
X0026550Y0157369D01*
X0026550Y0156570D02*
X0030214Y0156570D01*
X0030213Y0155772D02*
X0026550Y0155772D01*
X0026550Y0154973D02*
X0030212Y0154973D01*
X0030211Y0154175D02*
X0026550Y0154175D01*
X0026550Y0153376D02*
X0030209Y0153376D01*
X0030208Y0152578D02*
X0026550Y0152578D01*
X0026550Y0151779D02*
X0030207Y0151779D01*
X0030205Y0150981D02*
X0026550Y0150981D01*
X0026550Y0150182D02*
X0030204Y0150182D01*
X0030203Y0149384D02*
X0026550Y0149384D01*
X0026550Y0148585D02*
X0030202Y0148585D01*
X0030200Y0147787D02*
X0026550Y0147787D01*
X0026550Y0146988D02*
X0030199Y0146988D01*
X0030198Y0146190D02*
X0026550Y0146190D01*
X0026550Y0145391D02*
X0030197Y0145391D01*
X0030195Y0144592D02*
X0026550Y0144592D01*
X0026550Y0143794D02*
X0030194Y0143794D01*
X0030193Y0142995D02*
X0026550Y0142995D01*
X0026550Y0142197D02*
X0030191Y0142197D01*
X0030190Y0141398D02*
X0026550Y0141398D01*
X0026550Y0140600D02*
X0030189Y0140600D01*
X0030188Y0139801D02*
X0026550Y0139801D01*
X0026550Y0139003D02*
X0030186Y0139003D01*
X0030185Y0138204D02*
X0026550Y0138204D01*
X0026550Y0137406D02*
X0030184Y0137406D01*
X0030183Y0136607D02*
X0026550Y0136607D01*
X0026550Y0135809D02*
X0030181Y0135809D01*
X0030180Y0135010D02*
X0027124Y0135010D01*
X0027671Y0134212D02*
X0030179Y0134212D01*
X0030177Y0133413D02*
X0027931Y0133413D01*
X0027931Y0132615D02*
X0030176Y0132615D01*
X0030175Y0131816D02*
X0027674Y0131816D01*
X0027132Y0131018D02*
X0030174Y0131018D01*
X0030172Y0130219D02*
X0025842Y0130219D01*
X0024258Y0130219D02*
X0018789Y0130219D01*
X0019120Y0129421D02*
X0030171Y0129421D01*
X0030170Y0128622D02*
X0019350Y0128622D01*
X0019350Y0127824D02*
X0030169Y0127824D01*
X0030167Y0127025D02*
X0019296Y0127025D01*
X0018966Y0126227D02*
X0030166Y0126227D01*
X0030165Y0125428D02*
X0018549Y0125428D01*
X0017751Y0124630D02*
X0030164Y0124630D01*
X0030155Y0119040D02*
X0029433Y0119040D01*
X0029248Y0118242D02*
X0030153Y0118242D01*
X0030152Y0117443D02*
X0029247Y0117443D01*
X0029246Y0116645D02*
X0030151Y0116645D01*
X0030150Y0115846D02*
X0029245Y0115846D01*
X0029243Y0115048D02*
X0030148Y0115048D01*
X0030147Y0114249D02*
X0029242Y0114249D01*
X0029241Y0113451D02*
X0030146Y0113451D01*
X0030144Y0112652D02*
X0029240Y0112652D01*
X0029239Y0111854D02*
X0030143Y0111854D01*
X0030142Y0111055D02*
X0029238Y0111055D01*
X0029237Y0110257D02*
X0030141Y0110257D01*
X0030139Y0109458D02*
X0029235Y0109458D01*
X0029234Y0108659D02*
X0030138Y0108659D01*
X0030137Y0107861D02*
X0029233Y0107861D01*
X0029232Y0107062D02*
X0030136Y0107062D01*
X0030134Y0106264D02*
X0029231Y0106264D01*
X0029230Y0105465D02*
X0030133Y0105465D01*
X0030132Y0104667D02*
X0029229Y0104667D01*
X0029228Y0103868D02*
X0030130Y0103868D01*
X0030129Y0103070D02*
X0029226Y0103070D01*
X0029225Y0102271D02*
X0030128Y0102271D01*
X0030127Y0101473D02*
X0029224Y0101473D01*
X0029223Y0100674D02*
X0030125Y0100674D01*
X0030124Y0099876D02*
X0029222Y0099876D01*
X0029221Y0099077D02*
X0030123Y0099077D01*
X0030122Y0098279D02*
X0029220Y0098279D01*
X0029218Y0097480D02*
X0030120Y0097480D01*
X0030119Y0096682D02*
X0029217Y0096682D01*
X0029216Y0095883D02*
X0030118Y0095883D01*
X0030116Y0095085D02*
X0029215Y0095085D01*
X0029214Y0094286D02*
X0030115Y0094286D01*
X0030114Y0093488D02*
X0029213Y0093488D01*
X0029212Y0092689D02*
X0030113Y0092689D01*
X0030111Y0091891D02*
X0029211Y0091891D01*
X0029209Y0091092D02*
X0030110Y0091092D01*
X0030109Y0090294D02*
X0029208Y0090294D01*
X0029207Y0089495D02*
X0030108Y0089495D01*
X0030106Y0088697D02*
X0029206Y0088697D01*
X0029205Y0087898D02*
X0030105Y0087898D01*
X0030104Y0087100D02*
X0029204Y0087100D01*
X0029203Y0086301D02*
X0030102Y0086301D01*
X0030101Y0085503D02*
X0029202Y0085503D01*
X0029200Y0084704D02*
X0030100Y0084704D01*
X0030099Y0083906D02*
X0029199Y0083906D01*
X0029198Y0083107D02*
X0030097Y0083107D01*
X0030096Y0082309D02*
X0029197Y0082309D01*
X0029196Y0081510D02*
X0030095Y0081510D01*
X0030094Y0080712D02*
X0029195Y0080712D01*
X0029194Y0079913D02*
X0030092Y0079913D01*
X0030091Y0079115D02*
X0029192Y0079115D01*
X0029191Y0078316D02*
X0030090Y0078316D01*
X0030088Y0077518D02*
X0029190Y0077518D01*
X0029189Y0076719D02*
X0030087Y0076719D01*
X0030086Y0075921D02*
X0029188Y0075921D01*
X0029187Y0075122D02*
X0030085Y0075122D01*
X0030083Y0074323D02*
X0029186Y0074323D01*
X0029185Y0073525D02*
X0030082Y0073525D01*
X0030081Y0072726D02*
X0029183Y0072726D01*
X0029182Y0071928D02*
X0030080Y0071928D01*
X0030078Y0071129D02*
X0029181Y0071129D01*
X0029180Y0070331D02*
X0030077Y0070331D01*
X0030076Y0069532D02*
X0029179Y0069532D01*
X0029178Y0068734D02*
X0030074Y0068734D01*
X0030073Y0067935D02*
X0029177Y0067935D01*
X0029176Y0067137D02*
X0030072Y0067137D01*
X0030071Y0066338D02*
X0029174Y0066338D01*
X0029173Y0065540D02*
X0030069Y0065540D01*
X0030068Y0064741D02*
X0029172Y0064741D01*
X0029171Y0063943D02*
X0030067Y0063943D01*
X0030066Y0063144D02*
X0029170Y0063144D01*
X0029169Y0062346D02*
X0030064Y0062346D01*
X0030063Y0061547D02*
X0029168Y0061547D01*
X0029166Y0060749D02*
X0030062Y0060749D01*
X0030060Y0059950D02*
X0029165Y0059950D01*
X0029164Y0059152D02*
X0030059Y0059152D01*
X0030058Y0058353D02*
X0029163Y0058353D01*
X0029162Y0057555D02*
X0030057Y0057555D01*
X0030055Y0056756D02*
X0029161Y0056756D01*
X0029160Y0055958D02*
X0030054Y0055958D01*
X0030053Y0055159D02*
X0029159Y0055159D01*
X0029157Y0054361D02*
X0030052Y0054361D01*
X0030043Y0053562D02*
X0029156Y0053562D01*
X0029155Y0052764D02*
X0030049Y0052764D01*
X0030645Y0051965D02*
X0029154Y0051965D01*
X0029153Y0051167D02*
X0031169Y0051167D01*
X0031693Y0050368D02*
X0029152Y0050368D01*
X0029151Y0049570D02*
X0032217Y0049570D01*
X0032741Y0048771D02*
X0029163Y0048771D01*
X0028759Y0047973D02*
X0034492Y0047973D01*
X0036209Y0047174D02*
X0024089Y0047174D01*
X0023160Y0046376D02*
X0037925Y0046376D01*
X0041311Y0048771D02*
X0083150Y0048771D01*
X0083150Y0047973D02*
X0043028Y0047973D01*
X0044745Y0047174D02*
X0083150Y0047174D01*
X0083150Y0046376D02*
X0046462Y0046376D01*
X0048178Y0045577D02*
X0083150Y0045577D01*
X0083150Y0044779D02*
X0049895Y0044779D01*
X0051612Y0043980D02*
X0083150Y0043980D01*
X0083150Y0036793D02*
X0006950Y0036793D01*
X0006950Y0035995D02*
X0083150Y0035995D01*
X0083150Y0035196D02*
X0006950Y0035196D01*
X0006950Y0034398D02*
X0083150Y0034398D01*
X0083150Y0033599D02*
X0006950Y0033599D01*
X0006950Y0032801D02*
X0083150Y0032801D01*
X0083150Y0032002D02*
X0006950Y0032002D01*
X0006950Y0031204D02*
X0083150Y0031204D01*
X0083150Y0030405D02*
X0006950Y0030405D01*
X0006950Y0037592D02*
X0054241Y0037592D01*
X0053195Y0038390D02*
X0006950Y0038390D01*
X0006950Y0039189D02*
X0052754Y0039189D01*
X0053262Y0059152D02*
X0083150Y0059152D01*
X0083150Y0059950D02*
X0054365Y0059950D01*
X0054829Y0060749D02*
X0083150Y0060749D01*
X0083150Y0061547D02*
X0055031Y0061547D01*
X0055698Y0062346D02*
X0083150Y0062346D01*
X0083150Y0063144D02*
X0056999Y0063144D01*
X0057850Y0065310D02*
X0052150Y0061810D01*
X0050472Y0067137D02*
X0042411Y0067137D01*
X0042271Y0067935D02*
X0051686Y0067935D01*
X0052899Y0068734D02*
X0042131Y0068734D01*
X0041990Y0069532D02*
X0054113Y0069532D01*
X0057941Y0070331D02*
X0041850Y0070331D01*
X0041709Y0071129D02*
X0061354Y0071129D01*
X0061356Y0071928D02*
X0041569Y0071928D01*
X0041428Y0072726D02*
X0061358Y0072726D01*
X0061360Y0073525D02*
X0041288Y0073525D01*
X0041147Y0074323D02*
X0061363Y0074323D01*
X0061365Y0075122D02*
X0041007Y0075122D01*
X0040867Y0075921D02*
X0061367Y0075921D01*
X0061370Y0076719D02*
X0040726Y0076719D01*
X0040586Y0077518D02*
X0061372Y0077518D01*
X0061374Y0078316D02*
X0040445Y0078316D01*
X0040305Y0079115D02*
X0061377Y0079115D01*
X0061379Y0079913D02*
X0040164Y0079913D01*
X0040024Y0080712D02*
X0061381Y0080712D01*
X0061384Y0081510D02*
X0051744Y0081510D01*
X0052623Y0082309D02*
X0061386Y0082309D01*
X0061388Y0083107D02*
X0052995Y0083107D01*
X0053131Y0083906D02*
X0061391Y0083906D01*
X0061393Y0084704D02*
X0053081Y0084704D01*
X0052750Y0085503D02*
X0061395Y0085503D01*
X0061397Y0086301D02*
X0052033Y0086301D01*
X0050250Y0084010D02*
X0042550Y0088610D01*
X0040650Y0090610D01*
X0040550Y0105510D01*
X0045050Y0110510D01*
X0045050Y0123010D01*
X0047550Y0118010D02*
X0050050Y0120510D01*
X0050050Y0130510D01*
X0045050Y0135510D01*
X0045050Y0143010D01*
X0046743Y0145391D02*
X0051650Y0145391D01*
X0051650Y0144592D02*
X0047513Y0144592D01*
X0047844Y0143794D02*
X0051650Y0143794D01*
X0051650Y0142995D02*
X0047931Y0142995D01*
X0047832Y0142197D02*
X0051650Y0142197D01*
X0051650Y0141398D02*
X0047501Y0141398D01*
X0046715Y0140600D02*
X0051650Y0140600D01*
X0051650Y0139801D02*
X0046450Y0139801D01*
X0046450Y0139003D02*
X0051650Y0139003D01*
X0051650Y0138204D02*
X0046450Y0138204D01*
X0046450Y0137406D02*
X0051650Y0137406D01*
X0051650Y0136607D02*
X0046450Y0136607D01*
X0046731Y0135809D02*
X0051650Y0135809D01*
X0051650Y0135010D02*
X0047529Y0135010D01*
X0048328Y0134212D02*
X0051650Y0134212D01*
X0051650Y0133413D02*
X0049126Y0133413D01*
X0049925Y0132615D02*
X0051650Y0132615D01*
X0051650Y0131816D02*
X0050723Y0131816D01*
X0051450Y0131018D02*
X0051650Y0131018D01*
X0051650Y0130219D02*
X0051450Y0130219D01*
X0051450Y0129421D02*
X0051650Y0129421D01*
X0051650Y0128622D02*
X0051450Y0128622D01*
X0051450Y0127824D02*
X0051650Y0127824D01*
X0051650Y0127025D02*
X0051450Y0127025D01*
X0051450Y0126227D02*
X0051650Y0126227D01*
X0051650Y0125428D02*
X0051450Y0125428D01*
X0051450Y0124630D02*
X0051650Y0124630D01*
X0051650Y0123831D02*
X0051450Y0123831D01*
X0051450Y0123033D02*
X0051650Y0123033D01*
X0051650Y0122234D02*
X0051450Y0122234D01*
X0051450Y0121436D02*
X0051650Y0121436D01*
X0051650Y0120637D02*
X0051450Y0120637D01*
X0051359Y0119839D02*
X0051650Y0119839D01*
X0051650Y0119040D02*
X0050560Y0119040D01*
X0050630Y0119110D02*
X0050630Y0119110D01*
X0049762Y0118242D02*
X0051650Y0118242D01*
X0051650Y0117443D02*
X0048963Y0117443D01*
X0048950Y0116645D02*
X0051650Y0116645D01*
X0051650Y0115846D02*
X0048950Y0115846D01*
X0048950Y0115048D02*
X0051650Y0115048D01*
X0051650Y0114249D02*
X0048950Y0114249D01*
X0048950Y0113451D02*
X0051650Y0113451D01*
X0051650Y0112652D02*
X0048950Y0112652D01*
X0048950Y0111854D02*
X0051650Y0111854D01*
X0051650Y0111055D02*
X0048950Y0111055D01*
X0049378Y0110257D02*
X0051650Y0110257D01*
X0051650Y0109458D02*
X0050069Y0109458D01*
X0050399Y0108659D02*
X0051650Y0108659D01*
X0051650Y0107861D02*
X0050431Y0107861D01*
X0050276Y0107062D02*
X0051650Y0107062D01*
X0051650Y0106264D02*
X0049879Y0106264D01*
X0048936Y0105465D02*
X0051650Y0105465D01*
X0051650Y0104667D02*
X0041956Y0104667D01*
X0041961Y0103868D02*
X0051650Y0103868D01*
X0051650Y0103070D02*
X0041966Y0103070D01*
X0041972Y0102271D02*
X0051650Y0102271D01*
X0051650Y0101473D02*
X0041977Y0101473D01*
X0041982Y0100674D02*
X0051650Y0100674D01*
X0051650Y0099876D02*
X0041988Y0099876D01*
X0041993Y0099077D02*
X0051650Y0099077D01*
X0051650Y0098279D02*
X0041999Y0098279D01*
X0042004Y0097480D02*
X0051650Y0097480D01*
X0051650Y0096682D02*
X0042009Y0096682D01*
X0042015Y0095883D02*
X0050849Y0095883D01*
X0050377Y0095085D02*
X0042020Y0095085D01*
X0042025Y0094286D02*
X0050169Y0094286D01*
X0050169Y0093488D02*
X0042031Y0093488D01*
X0042036Y0092689D02*
X0050479Y0092689D01*
X0051095Y0091891D02*
X0042041Y0091891D01*
X0042123Y0091092D02*
X0061411Y0091092D01*
X0061409Y0090294D02*
X0042881Y0090294D01*
X0043798Y0089495D02*
X0061407Y0089495D01*
X0061404Y0088697D02*
X0045134Y0088697D01*
X0043685Y0086301D02*
X0039950Y0086301D01*
X0039950Y0085503D02*
X0045021Y0085503D01*
X0046358Y0084704D02*
X0039950Y0084704D01*
X0039950Y0083906D02*
X0047369Y0083906D01*
X0047505Y0083107D02*
X0039950Y0083107D01*
X0039950Y0082309D02*
X0047877Y0082309D01*
X0048756Y0081510D02*
X0039950Y0081510D01*
X0038550Y0081010D02*
X0042050Y0061110D01*
X0042924Y0058353D02*
X0083150Y0058353D01*
X0083150Y0057555D02*
X0038720Y0057555D01*
X0037257Y0058353D02*
X0041176Y0058353D01*
X0039934Y0059152D02*
X0037260Y0059152D01*
X0037264Y0059950D02*
X0039412Y0059950D01*
X0039169Y0060749D02*
X0037267Y0060749D01*
X0037270Y0061547D02*
X0039169Y0061547D01*
X0039443Y0062346D02*
X0037273Y0062346D01*
X0037276Y0063144D02*
X0040010Y0063144D01*
X0040130Y0063943D02*
X0037279Y0063943D01*
X0037282Y0064741D02*
X0039990Y0064741D01*
X0039849Y0065540D02*
X0037286Y0065540D01*
X0037289Y0066338D02*
X0039709Y0066338D01*
X0039568Y0067137D02*
X0037292Y0067137D01*
X0037295Y0067935D02*
X0039428Y0067935D01*
X0039288Y0068734D02*
X0037298Y0068734D01*
X0037301Y0069532D02*
X0039147Y0069532D01*
X0039007Y0070331D02*
X0037304Y0070331D01*
X0037308Y0071129D02*
X0038866Y0071129D01*
X0038726Y0071928D02*
X0037311Y0071928D01*
X0037314Y0072726D02*
X0038585Y0072726D01*
X0038445Y0073525D02*
X0037317Y0073525D01*
X0037320Y0074323D02*
X0038305Y0074323D01*
X0038164Y0075122D02*
X0037323Y0075122D01*
X0037326Y0075921D02*
X0038024Y0075921D01*
X0037883Y0076719D02*
X0037330Y0076719D01*
X0037333Y0077518D02*
X0037743Y0077518D01*
X0037602Y0078316D02*
X0037336Y0078316D01*
X0037339Y0079115D02*
X0037462Y0079115D01*
X0038550Y0081010D02*
X0038550Y0108010D01*
X0042050Y0111510D01*
X0042050Y0161010D01*
X0043050Y0162010D01*
X0043050Y0165510D01*
X0044885Y0167749D02*
X0051650Y0167749D01*
X0051650Y0166951D02*
X0045572Y0166951D01*
X0045902Y0166152D02*
X0051650Y0166152D01*
X0051650Y0165354D02*
X0045931Y0165354D01*
X0045773Y0164555D02*
X0051650Y0164555D01*
X0051650Y0163757D02*
X0045371Y0163757D01*
X0044450Y0162958D02*
X0051650Y0162958D01*
X0051650Y0162160D02*
X0044450Y0162160D01*
X0044381Y0161361D02*
X0051650Y0161361D01*
X0051650Y0160563D02*
X0043583Y0160563D01*
X0043630Y0160610D02*
X0043630Y0160610D01*
X0043450Y0159764D02*
X0051650Y0159764D01*
X0051650Y0158966D02*
X0043450Y0158966D01*
X0043450Y0158167D02*
X0051650Y0158167D01*
X0051650Y0157369D02*
X0043450Y0157369D01*
X0043450Y0156570D02*
X0051650Y0156570D01*
X0051650Y0155772D02*
X0043450Y0155772D01*
X0043450Y0154973D02*
X0051650Y0154973D01*
X0051650Y0154175D02*
X0043450Y0154175D01*
X0043450Y0153376D02*
X0051650Y0153376D01*
X0051650Y0152578D02*
X0043450Y0152578D01*
X0043450Y0151779D02*
X0051650Y0151779D01*
X0051650Y0150981D02*
X0043450Y0150981D01*
X0043450Y0150182D02*
X0051650Y0150182D01*
X0051650Y0149384D02*
X0043450Y0149384D01*
X0043450Y0148585D02*
X0051650Y0148585D01*
X0051650Y0147787D02*
X0043450Y0147787D01*
X0043450Y0146988D02*
X0051650Y0146988D01*
X0051650Y0146190D02*
X0043450Y0146190D01*
X0040650Y0146190D02*
X0037603Y0146190D01*
X0037606Y0146988D02*
X0040650Y0146988D01*
X0040650Y0147787D02*
X0037609Y0147787D01*
X0037612Y0148585D02*
X0040650Y0148585D01*
X0040650Y0149384D02*
X0037616Y0149384D01*
X0037619Y0150182D02*
X0040650Y0150182D01*
X0040650Y0150981D02*
X0037622Y0150981D01*
X0037625Y0151779D02*
X0040650Y0151779D01*
X0040650Y0152578D02*
X0037628Y0152578D01*
X0037631Y0153376D02*
X0040650Y0153376D01*
X0040650Y0154175D02*
X0037634Y0154175D01*
X0037638Y0154973D02*
X0040650Y0154973D01*
X0040650Y0155772D02*
X0037641Y0155772D01*
X0037644Y0156570D02*
X0040650Y0156570D01*
X0040650Y0157369D02*
X0037647Y0157369D01*
X0037650Y0158167D02*
X0040650Y0158167D01*
X0040650Y0158966D02*
X0037653Y0158966D01*
X0037657Y0159764D02*
X0040650Y0159764D01*
X0040650Y0160563D02*
X0037660Y0160563D01*
X0037663Y0161361D02*
X0040650Y0161361D01*
X0041220Y0162160D02*
X0037666Y0162160D01*
X0037669Y0162958D02*
X0041650Y0162958D01*
X0041470Y0162410D02*
X0041470Y0162410D01*
X0040729Y0163757D02*
X0037672Y0163757D01*
X0037675Y0164555D02*
X0040327Y0164555D01*
X0040169Y0165354D02*
X0037679Y0165354D01*
X0037682Y0166152D02*
X0040198Y0166152D01*
X0040528Y0166951D02*
X0037685Y0166951D01*
X0037688Y0167749D02*
X0041215Y0167749D01*
X0037691Y0168548D02*
X0051650Y0168548D01*
X0051650Y0169346D02*
X0037694Y0169346D01*
X0037697Y0170145D02*
X0051650Y0170145D01*
X0051650Y0170943D02*
X0037701Y0170943D01*
X0037704Y0171742D02*
X0051650Y0171742D01*
X0051650Y0172540D02*
X0037707Y0172540D01*
X0037710Y0173339D02*
X0051650Y0173339D01*
X0051650Y0174137D02*
X0037713Y0174137D01*
X0037716Y0174936D02*
X0051650Y0174936D01*
X0051650Y0175734D02*
X0037719Y0175734D01*
X0037723Y0176533D02*
X0051646Y0176533D01*
X0051849Y0177331D02*
X0037726Y0177331D01*
X0037729Y0178130D02*
X0052807Y0178130D01*
X0053766Y0178928D02*
X0037732Y0178928D01*
X0037735Y0179727D02*
X0054724Y0179727D01*
X0055682Y0180526D02*
X0037738Y0180526D01*
X0037839Y0181324D02*
X0053505Y0181324D01*
X0052363Y0182123D02*
X0038494Y0182123D01*
X0038825Y0182921D02*
X0051569Y0182921D01*
X0050682Y0183720D02*
X0038831Y0183720D01*
X0038651Y0184518D02*
X0049795Y0184518D01*
X0048907Y0185317D02*
X0038218Y0185317D01*
X0037189Y0186115D02*
X0048020Y0186115D01*
X0049853Y0189309D02*
X0065271Y0189309D01*
X0066069Y0188511D02*
X0050740Y0188511D01*
X0051627Y0187712D02*
X0066868Y0187712D01*
X0067666Y0186914D02*
X0052514Y0186914D01*
X0055595Y0181324D02*
X0056640Y0181324D01*
X0056737Y0182123D02*
X0057598Y0182123D01*
X0057217Y0182921D02*
X0058557Y0182921D01*
X0059169Y0183720D02*
X0057431Y0183720D01*
X0057431Y0184518D02*
X0059169Y0184518D01*
X0059473Y0185317D02*
X0057127Y0185317D01*
X0056519Y0186115D02*
X0060081Y0186115D01*
X0062050Y0184010D02*
X0053050Y0176510D01*
X0053050Y0094010D01*
X0055005Y0091891D02*
X0056595Y0091891D01*
X0055979Y0092689D02*
X0055621Y0092689D01*
X0058550Y0094010D02*
X0058550Y0175010D01*
X0066550Y0182010D01*
X0065077Y0184518D02*
X0064931Y0184518D01*
X0064627Y0185317D02*
X0071662Y0185317D01*
X0071181Y0186115D02*
X0064019Y0186115D01*
X0062875Y0191705D02*
X0026550Y0191705D01*
X0026550Y0192503D02*
X0062077Y0192503D01*
X0062843Y0195697D02*
X0067650Y0195697D01*
X0067364Y0194899D02*
X0063641Y0194899D01*
X0064440Y0194100D02*
X0066590Y0194100D01*
X0066260Y0193302D02*
X0065238Y0193302D01*
X0066037Y0192503D02*
X0066169Y0192503D01*
X0069050Y0192510D02*
X0069050Y0202010D01*
X0075050Y0208010D01*
X0072644Y0211667D02*
X0017456Y0211667D01*
X0018272Y0210869D02*
X0071828Y0210869D01*
X0071249Y0210070D02*
X0018851Y0210070D01*
X0018904Y0206078D02*
X0023550Y0206078D01*
X0023550Y0205279D02*
X0018401Y0205279D01*
X0017602Y0204481D02*
X0023550Y0204481D01*
X0023550Y0203682D02*
X0006950Y0203682D01*
X0006950Y0202884D02*
X0023550Y0202884D01*
X0023550Y0202085D02*
X0016447Y0202085D01*
X0017854Y0201287D02*
X0023550Y0201287D01*
X0023550Y0200488D02*
X0018653Y0200488D01*
X0019008Y0199690D02*
X0023550Y0199690D01*
X0023550Y0198891D02*
X0019339Y0198891D01*
X0019350Y0198093D02*
X0023550Y0198093D01*
X0023550Y0197294D02*
X0019350Y0197294D01*
X0019077Y0196496D02*
X0023550Y0196496D01*
X0023550Y0195697D02*
X0018746Y0195697D01*
X0018020Y0194899D02*
X0023550Y0194899D01*
X0023550Y0194100D02*
X0016848Y0194100D01*
X0017366Y0191705D02*
X0023550Y0191705D01*
X0023550Y0192503D02*
X0006950Y0192503D01*
X0006950Y0191705D02*
X0012734Y0191705D01*
X0013252Y0194100D02*
X0006950Y0194100D01*
X0006950Y0193302D02*
X0023550Y0193302D01*
X0023550Y0190906D02*
X0018235Y0190906D01*
X0018835Y0190108D02*
X0023550Y0190108D01*
X0023550Y0189309D02*
X0019166Y0189309D01*
X0019350Y0188511D02*
X0023550Y0188511D01*
X0023550Y0187712D02*
X0019350Y0187712D01*
X0019250Y0186914D02*
X0023550Y0186914D01*
X0023550Y0186115D02*
X0018919Y0186115D01*
X0018438Y0185317D02*
X0023550Y0185317D01*
X0023550Y0184518D02*
X0017639Y0184518D01*
X0015929Y0183720D02*
X0023550Y0183720D01*
X0023550Y0182921D02*
X0006950Y0182921D01*
X0006950Y0182123D02*
X0013742Y0182123D01*
X0014171Y0183720D02*
X0006950Y0183720D01*
X0006950Y0184518D02*
X0012461Y0184518D01*
X0012283Y0181324D02*
X0010559Y0181324D01*
X0011139Y0174936D02*
X0012043Y0174936D01*
X0013162Y0174137D02*
X0006950Y0174137D01*
X0006950Y0173339D02*
X0023550Y0173339D01*
X0023550Y0174137D02*
X0016938Y0174137D01*
X0018057Y0174936D02*
X0023550Y0174936D01*
X0023550Y0175734D02*
X0018762Y0175734D01*
X0019093Y0176533D02*
X0023550Y0176533D01*
X0023550Y0177331D02*
X0019350Y0177331D01*
X0019350Y0178130D02*
X0023550Y0178130D01*
X0023550Y0178928D02*
X0019324Y0178928D01*
X0018993Y0179727D02*
X0023550Y0179727D01*
X0023550Y0180526D02*
X0018615Y0180526D01*
X0017817Y0181324D02*
X0023550Y0181324D01*
X0023550Y0182123D02*
X0016358Y0182123D01*
X0017276Y0171742D02*
X0023550Y0171742D01*
X0023550Y0172540D02*
X0006950Y0172540D01*
X0006950Y0171742D02*
X0012824Y0171742D01*
X0012423Y0164555D02*
X0006950Y0164555D01*
X0006950Y0163757D02*
X0014081Y0163757D01*
X0013832Y0162160D02*
X0006950Y0162160D01*
X0006950Y0162958D02*
X0023550Y0162958D01*
X0023550Y0162160D02*
X0016268Y0162160D01*
X0016019Y0163757D02*
X0023550Y0163757D01*
X0023550Y0164555D02*
X0017677Y0164555D01*
X0018475Y0165354D02*
X0023550Y0165354D01*
X0023550Y0166152D02*
X0018935Y0166152D01*
X0019266Y0166951D02*
X0023550Y0166951D01*
X0023550Y0167749D02*
X0019350Y0167749D01*
X0019350Y0168548D02*
X0023550Y0168548D01*
X0023550Y0169346D02*
X0019151Y0169346D01*
X0018820Y0170145D02*
X0023550Y0170145D01*
X0023550Y0170943D02*
X0018198Y0170943D01*
X0017780Y0161361D02*
X0023550Y0161361D01*
X0023550Y0160563D02*
X0018578Y0160563D01*
X0018978Y0159764D02*
X0023550Y0159764D01*
X0023550Y0158966D02*
X0019308Y0158966D01*
X0019350Y0158167D02*
X0023550Y0158167D01*
X0023550Y0157369D02*
X0019350Y0157369D01*
X0019108Y0156570D02*
X0023550Y0156570D01*
X0023550Y0155772D02*
X0018777Y0155772D01*
X0018094Y0154973D02*
X0023550Y0154973D01*
X0023550Y0154175D02*
X0017027Y0154175D01*
X0017187Y0151779D02*
X0023550Y0151779D01*
X0023550Y0150981D02*
X0018160Y0150981D01*
X0018805Y0150182D02*
X0023550Y0150182D01*
X0023550Y0149384D02*
X0019135Y0149384D01*
X0019350Y0148585D02*
X0023550Y0148585D01*
X0023550Y0147787D02*
X0019350Y0147787D01*
X0019281Y0146988D02*
X0023550Y0146988D01*
X0023550Y0146190D02*
X0018950Y0146190D01*
X0018512Y0145391D02*
X0023550Y0145391D01*
X0023550Y0144592D02*
X0017714Y0144592D01*
X0017742Y0141398D02*
X0023550Y0141398D01*
X0023550Y0140600D02*
X0018541Y0140600D01*
X0018962Y0139801D02*
X0023550Y0139801D01*
X0023550Y0139003D02*
X0019293Y0139003D01*
X0019350Y0138204D02*
X0023550Y0138204D01*
X0023550Y0137406D02*
X0019350Y0137406D01*
X0019123Y0136607D02*
X0023550Y0136607D01*
X0023550Y0135809D02*
X0018793Y0135809D01*
X0018132Y0135010D02*
X0022976Y0135010D01*
X0022429Y0134212D02*
X0017117Y0134212D01*
X0017097Y0131816D02*
X0022426Y0131816D01*
X0022169Y0132615D02*
X0006950Y0132615D01*
X0006950Y0133413D02*
X0022169Y0133413D01*
X0022968Y0131018D02*
X0018123Y0131018D01*
X0016198Y0123831D02*
X0026397Y0123831D01*
X0025779Y0123033D02*
X0006950Y0123033D01*
X0006950Y0123831D02*
X0013902Y0123831D01*
X0014012Y0122234D02*
X0006950Y0122234D01*
X0006950Y0121436D02*
X0012395Y0121436D01*
X0012349Y0124630D02*
X0006950Y0124630D01*
X0006950Y0131816D02*
X0013003Y0131816D01*
X0011977Y0131018D02*
X0011298Y0131018D01*
X0012983Y0134212D02*
X0006950Y0134212D01*
X0006950Y0141398D02*
X0012357Y0141398D01*
X0012386Y0144592D02*
X0006950Y0144592D01*
X0006950Y0143794D02*
X0013992Y0143794D01*
X0013922Y0142197D02*
X0006950Y0142197D01*
X0006950Y0142995D02*
X0023550Y0142995D01*
X0023550Y0142197D02*
X0016178Y0142197D01*
X0016108Y0143794D02*
X0023550Y0143794D01*
X0023550Y0152578D02*
X0006950Y0152578D01*
X0006950Y0153376D02*
X0023550Y0153376D01*
X0013073Y0154175D02*
X0006950Y0154175D01*
X0006950Y0151779D02*
X0012913Y0151779D01*
X0012006Y0154973D02*
X0011229Y0154973D01*
X0010469Y0161361D02*
X0012320Y0161361D01*
X0012080Y0194899D02*
X0011049Y0194899D01*
X0010649Y0201287D02*
X0012246Y0201287D01*
X0012498Y0204481D02*
X0006950Y0204481D01*
X0006950Y0202085D02*
X0013653Y0202085D01*
X0012644Y0211667D02*
X0006950Y0211667D01*
X0006950Y0212466D02*
X0083150Y0212466D01*
X0083150Y0213264D02*
X0006950Y0213264D01*
X0006950Y0214063D02*
X0013342Y0214063D01*
X0012117Y0214861D02*
X0010959Y0214861D01*
X0016758Y0214063D02*
X0073342Y0214063D01*
X0072117Y0214861D02*
X0017983Y0214861D01*
X0018731Y0215660D02*
X0071369Y0215660D01*
X0071038Y0216459D02*
X0019062Y0216459D01*
X0019350Y0217257D02*
X0070750Y0217257D01*
X0070750Y0218056D02*
X0019350Y0218056D01*
X0019350Y0218854D02*
X0070750Y0218854D01*
X0071076Y0219653D02*
X0019024Y0219653D01*
X0018690Y0220451D02*
X0071410Y0220451D01*
X0070918Y0209272D02*
X0025909Y0209272D01*
X0026550Y0208473D02*
X0070750Y0208473D01*
X0070750Y0207675D02*
X0026550Y0207675D01*
X0026550Y0206876D02*
X0070865Y0206876D01*
X0071138Y0206078D02*
X0026550Y0206078D01*
X0026550Y0205279D02*
X0070340Y0205279D01*
X0069541Y0204481D02*
X0026550Y0204481D01*
X0026550Y0203682D02*
X0068743Y0203682D01*
X0067944Y0202884D02*
X0026550Y0202884D01*
X0026550Y0202085D02*
X0067650Y0202085D01*
X0067650Y0201287D02*
X0026550Y0201287D01*
X0026550Y0198891D02*
X0042857Y0198891D01*
X0042380Y0198093D02*
X0026550Y0198093D01*
X0026550Y0197294D02*
X0042169Y0197294D01*
X0042169Y0196496D02*
X0026550Y0196496D01*
X0026550Y0195697D02*
X0042475Y0195697D01*
X0043087Y0194899D02*
X0026550Y0194899D01*
X0034563Y0186115D02*
X0034711Y0186115D01*
X0037600Y0145391D02*
X0040650Y0145391D01*
X0040650Y0144592D02*
X0037597Y0144592D01*
X0037594Y0143794D02*
X0040650Y0143794D01*
X0040650Y0142995D02*
X0037590Y0142995D01*
X0037587Y0142197D02*
X0040650Y0142197D01*
X0040650Y0141398D02*
X0037584Y0141398D01*
X0037581Y0140600D02*
X0040650Y0140600D01*
X0040650Y0139801D02*
X0037578Y0139801D01*
X0037575Y0139003D02*
X0040650Y0139003D01*
X0040650Y0138204D02*
X0037572Y0138204D01*
X0037568Y0137406D02*
X0040650Y0137406D01*
X0040650Y0136607D02*
X0037565Y0136607D01*
X0037562Y0135809D02*
X0040650Y0135809D01*
X0040650Y0135010D02*
X0037559Y0135010D01*
X0037556Y0134212D02*
X0040650Y0134212D01*
X0040650Y0133413D02*
X0037553Y0133413D01*
X0037550Y0132615D02*
X0040650Y0132615D01*
X0040650Y0131816D02*
X0037546Y0131816D01*
X0037543Y0131018D02*
X0040650Y0131018D01*
X0040650Y0130219D02*
X0037540Y0130219D01*
X0037537Y0129421D02*
X0040650Y0129421D01*
X0040650Y0128622D02*
X0037534Y0128622D01*
X0037531Y0127824D02*
X0040650Y0127824D01*
X0040650Y0127025D02*
X0037528Y0127025D01*
X0037524Y0126227D02*
X0040650Y0126227D01*
X0040650Y0125428D02*
X0037521Y0125428D01*
X0037518Y0124630D02*
X0040650Y0124630D01*
X0040650Y0123831D02*
X0037515Y0123831D01*
X0037512Y0123033D02*
X0040650Y0123033D01*
X0040650Y0122234D02*
X0037509Y0122234D01*
X0037506Y0121436D02*
X0040650Y0121436D01*
X0040650Y0120637D02*
X0037502Y0120637D01*
X0037499Y0119839D02*
X0040650Y0119839D01*
X0040650Y0119040D02*
X0037496Y0119040D01*
X0037493Y0118242D02*
X0040650Y0118242D01*
X0040650Y0117443D02*
X0037490Y0117443D01*
X0037487Y0116645D02*
X0040650Y0116645D01*
X0040650Y0115846D02*
X0037484Y0115846D01*
X0037480Y0115048D02*
X0040650Y0115048D01*
X0040650Y0114249D02*
X0037477Y0114249D01*
X0037474Y0113451D02*
X0040650Y0113451D01*
X0040650Y0112652D02*
X0037471Y0112652D01*
X0037468Y0111854D02*
X0040414Y0111854D01*
X0039615Y0111055D02*
X0037465Y0111055D01*
X0037462Y0110257D02*
X0038817Y0110257D01*
X0038018Y0109458D02*
X0037458Y0109458D01*
X0042394Y0105465D02*
X0046164Y0105465D01*
X0045221Y0106264D02*
X0043112Y0106264D01*
X0043831Y0107062D02*
X0044824Y0107062D01*
X0044669Y0107861D02*
X0044550Y0107861D01*
X0047550Y0108010D02*
X0047550Y0118010D01*
X0046471Y0087898D02*
X0061402Y0087898D01*
X0061400Y0087100D02*
X0047808Y0087100D01*
X0042348Y0087100D02*
X0039950Y0087100D01*
X0039950Y0087898D02*
X0041286Y0087898D01*
X0040536Y0088697D02*
X0039950Y0088697D01*
X0042552Y0066338D02*
X0049258Y0066338D01*
X0049471Y0060749D02*
X0048637Y0060749D01*
X0045306Y0065540D02*
X0042692Y0065540D01*
X0042833Y0064741D02*
X0044566Y0064741D01*
X0044235Y0063943D02*
X0042973Y0063943D01*
X0044090Y0063144D02*
X0044169Y0063144D01*
X0043093Y0052764D02*
X0034427Y0052764D01*
X0025555Y0052764D02*
X0006950Y0052764D01*
X0006950Y0053562D02*
X0025556Y0053562D01*
X0025557Y0054361D02*
X0006950Y0054361D01*
X0006950Y0055159D02*
X0025559Y0055159D01*
X0025560Y0055958D02*
X0006950Y0055958D01*
X0006950Y0056756D02*
X0025561Y0056756D01*
X0025562Y0057555D02*
X0006950Y0057555D01*
X0006950Y0058353D02*
X0025563Y0058353D01*
X0025564Y0059152D02*
X0006950Y0059152D01*
X0006950Y0059950D02*
X0025565Y0059950D01*
X0025566Y0060749D02*
X0006950Y0060749D01*
X0006950Y0061547D02*
X0025568Y0061547D01*
X0025569Y0062346D02*
X0006950Y0062346D01*
X0006950Y0063144D02*
X0025570Y0063144D01*
X0025571Y0063943D02*
X0006950Y0063943D01*
X0006950Y0064741D02*
X0025572Y0064741D01*
X0025573Y0065540D02*
X0006950Y0065540D01*
X0006950Y0066338D02*
X0025574Y0066338D01*
X0025576Y0067137D02*
X0006950Y0067137D01*
X0006950Y0067935D02*
X0025577Y0067935D01*
X0025578Y0068734D02*
X0006950Y0068734D01*
X0006950Y0069532D02*
X0025579Y0069532D01*
X0025580Y0070331D02*
X0006950Y0070331D01*
X0006950Y0071129D02*
X0025581Y0071129D01*
X0025582Y0071928D02*
X0006950Y0071928D01*
X0006950Y0072726D02*
X0025583Y0072726D01*
X0025585Y0073525D02*
X0016457Y0073525D01*
X0016151Y0073426D02*
X0016854Y0073654D01*
X0017513Y0073990D01*
X0018112Y0074425D01*
X0018635Y0074948D01*
X0019070Y0075547D01*
X0019406Y0076206D01*
X0019634Y0076909D01*
X0019745Y0077610D01*
X0015450Y0077610D01*
X0015450Y0078410D01*
X0014650Y0078410D01*
X0014650Y0077610D01*
X0015450Y0077610D01*
X0015450Y0073315D01*
X0016151Y0073426D01*
X0015450Y0073525D02*
X0014650Y0073525D01*
X0014650Y0074323D02*
X0015450Y0074323D01*
X0015450Y0075122D02*
X0014650Y0075122D01*
X0014650Y0075921D02*
X0015450Y0075921D01*
X0015450Y0076719D02*
X0014650Y0076719D01*
X0014650Y0077518D02*
X0015450Y0077518D01*
X0015450Y0078316D02*
X0025591Y0078316D01*
X0025590Y0077518D02*
X0019731Y0077518D01*
X0019572Y0076719D02*
X0025589Y0076719D01*
X0025588Y0075921D02*
X0019260Y0075921D01*
X0018761Y0075122D02*
X0025587Y0075122D01*
X0025586Y0074323D02*
X0017972Y0074323D01*
X0019745Y0078410D02*
X0015450Y0078410D01*
X0015450Y0082705D01*
X0016151Y0082594D01*
X0016854Y0082365D01*
X0017513Y0082030D01*
X0018112Y0081595D01*
X0018635Y0081072D01*
X0019070Y0080473D01*
X0019406Y0079814D01*
X0019634Y0079110D01*
X0019745Y0078410D01*
X0019633Y0079115D02*
X0025593Y0079115D01*
X0025594Y0079913D02*
X0019355Y0079913D01*
X0018897Y0080712D02*
X0025595Y0080712D01*
X0025596Y0081510D02*
X0018197Y0081510D01*
X0016966Y0082309D02*
X0025597Y0082309D01*
X0025598Y0083107D02*
X0006950Y0083107D01*
X0006950Y0082309D02*
X0013134Y0082309D01*
X0011903Y0081510D02*
X0011155Y0081510D01*
X0010580Y0084704D02*
X0012275Y0084704D01*
X0013722Y0083906D02*
X0006950Y0083906D01*
X0006950Y0078316D02*
X0014650Y0078316D01*
X0014650Y0079115D02*
X0015450Y0079115D01*
X0015450Y0079913D02*
X0014650Y0079913D01*
X0014650Y0080712D02*
X0015450Y0080712D01*
X0015450Y0081510D02*
X0014650Y0081510D01*
X0014650Y0082309D02*
X0015450Y0082309D01*
X0016378Y0083906D02*
X0025599Y0083906D01*
X0025600Y0084704D02*
X0017825Y0084704D01*
X0018624Y0085503D02*
X0025602Y0085503D01*
X0025603Y0086301D02*
X0018997Y0086301D01*
X0019327Y0087100D02*
X0025604Y0087100D01*
X0025605Y0087898D02*
X0019350Y0087898D01*
X0019350Y0088697D02*
X0025606Y0088697D01*
X0025607Y0089495D02*
X0019089Y0089495D01*
X0018758Y0090294D02*
X0025608Y0090294D01*
X0025609Y0091092D02*
X0018049Y0091092D01*
X0016917Y0091891D02*
X0025611Y0091891D01*
X0025612Y0092689D02*
X0006950Y0092689D01*
X0006950Y0091891D02*
X0013183Y0091891D01*
X0012051Y0091092D02*
X0011119Y0091092D01*
X0012803Y0094286D02*
X0006950Y0094286D01*
X0006950Y0093488D02*
X0025613Y0093488D01*
X0025614Y0094286D02*
X0017297Y0094286D01*
X0018206Y0095085D02*
X0025615Y0095085D01*
X0025616Y0095883D02*
X0018823Y0095883D01*
X0019154Y0096682D02*
X0025617Y0096682D01*
X0025619Y0097480D02*
X0019350Y0097480D01*
X0019350Y0098279D02*
X0025620Y0098279D01*
X0025621Y0099077D02*
X0019262Y0099077D01*
X0018931Y0099876D02*
X0025622Y0099876D01*
X0025623Y0100674D02*
X0018467Y0100674D01*
X0017668Y0101473D02*
X0025624Y0101473D01*
X0025625Y0102271D02*
X0015998Y0102271D01*
X0016288Y0103868D02*
X0025628Y0103868D01*
X0025626Y0103070D02*
X0006950Y0103070D01*
X0006950Y0103868D02*
X0013812Y0103868D01*
X0014102Y0102271D02*
X0006950Y0102271D01*
X0006950Y0101473D02*
X0012432Y0101473D01*
X0012312Y0104667D02*
X0010490Y0104667D01*
X0011209Y0111055D02*
X0012014Y0111055D01*
X0013093Y0111854D02*
X0006950Y0111854D01*
X0006950Y0112652D02*
X0025640Y0112652D01*
X0025639Y0111854D02*
X0017007Y0111854D01*
X0018086Y0111055D02*
X0025638Y0111055D01*
X0025637Y0110257D02*
X0018774Y0110257D01*
X0019104Y0109458D02*
X0025635Y0109458D01*
X0025634Y0108659D02*
X0019350Y0108659D01*
X0019350Y0107861D02*
X0025633Y0107861D01*
X0025632Y0107062D02*
X0019312Y0107062D01*
X0018981Y0106264D02*
X0025631Y0106264D01*
X0025630Y0105465D02*
X0018587Y0105465D01*
X0017788Y0104667D02*
X0025629Y0104667D01*
X0025641Y0113451D02*
X0006950Y0113451D01*
X0006950Y0114249D02*
X0012893Y0114249D01*
X0016088Y0122234D02*
X0025469Y0122234D01*
X0025469Y0121436D02*
X0017705Y0121436D01*
X0018504Y0120637D02*
X0025676Y0120637D01*
X0025635Y0119839D02*
X0018947Y0119839D01*
X0019278Y0119040D02*
X0025649Y0119040D01*
X0025648Y0118242D02*
X0019350Y0118242D01*
X0019350Y0117443D02*
X0025647Y0117443D01*
X0025646Y0116645D02*
X0019139Y0116645D01*
X0018808Y0115846D02*
X0025645Y0115846D01*
X0025643Y0115048D02*
X0018169Y0115048D01*
X0017207Y0114249D02*
X0025642Y0114249D01*
X0012128Y0074323D02*
X0010526Y0074323D01*
X0013643Y0073525D02*
X0006950Y0073525D01*
X0006950Y0051965D02*
X0025554Y0051965D01*
X0025553Y0051167D02*
X0023568Y0051167D01*
X0019932Y0051167D02*
X0006950Y0051167D01*
X0006950Y0050368D02*
X0019236Y0050368D01*
X0018905Y0049570D02*
X0006950Y0049570D01*
X0006950Y0048771D02*
X0018869Y0048771D01*
X0019020Y0047973D02*
X0006950Y0047973D01*
X0006950Y0047174D02*
X0019411Y0047174D01*
X0020340Y0046376D02*
X0006950Y0046376D01*
X0057850Y0065310D02*
X0066050Y0067610D01*
X0066350Y0164510D01*
X0071950Y0168510D01*
X0075050Y0168010D01*
X0076019Y0163757D02*
X0083150Y0163757D01*
X0083150Y0164555D02*
X0077677Y0164555D01*
X0076268Y0162160D02*
X0083150Y0162160D01*
X0083150Y0162958D02*
X0067745Y0162958D01*
X0067743Y0162160D02*
X0073832Y0162160D01*
X0074081Y0163757D02*
X0067748Y0163757D01*
X0068822Y0164555D02*
X0072423Y0164555D01*
X0071625Y0165354D02*
X0069940Y0165354D01*
X0071058Y0166152D02*
X0071165Y0166152D01*
X0072320Y0161361D02*
X0067740Y0161361D01*
X0067738Y0160563D02*
X0071522Y0160563D01*
X0071122Y0159764D02*
X0067735Y0159764D01*
X0067733Y0158966D02*
X0070792Y0158966D01*
X0070750Y0158167D02*
X0067730Y0158167D01*
X0067728Y0157369D02*
X0070750Y0157369D01*
X0070992Y0156570D02*
X0067725Y0156570D01*
X0067723Y0155772D02*
X0071323Y0155772D01*
X0072006Y0154973D02*
X0067720Y0154973D01*
X0067718Y0154175D02*
X0073073Y0154175D01*
X0072913Y0151779D02*
X0067711Y0151779D01*
X0067708Y0150981D02*
X0071940Y0150981D01*
X0071295Y0150182D02*
X0067706Y0150182D01*
X0067703Y0149384D02*
X0070965Y0149384D01*
X0070750Y0148585D02*
X0067701Y0148585D01*
X0067698Y0147787D02*
X0070750Y0147787D01*
X0070819Y0146988D02*
X0067696Y0146988D01*
X0067693Y0146190D02*
X0071150Y0146190D01*
X0071588Y0145391D02*
X0067691Y0145391D01*
X0067688Y0144592D02*
X0072386Y0144592D01*
X0072357Y0141398D02*
X0067678Y0141398D01*
X0067676Y0140600D02*
X0071559Y0140600D01*
X0071138Y0139801D02*
X0067673Y0139801D01*
X0067671Y0139003D02*
X0070807Y0139003D01*
X0070750Y0138204D02*
X0067669Y0138204D01*
X0067666Y0137406D02*
X0070750Y0137406D01*
X0070977Y0136607D02*
X0067664Y0136607D01*
X0067661Y0135809D02*
X0071307Y0135809D01*
X0071968Y0135010D02*
X0067659Y0135010D01*
X0067656Y0134212D02*
X0072983Y0134212D01*
X0073003Y0131816D02*
X0067649Y0131816D01*
X0067646Y0131018D02*
X0071977Y0131018D01*
X0071311Y0130219D02*
X0067644Y0130219D01*
X0067641Y0129421D02*
X0070980Y0129421D01*
X0070750Y0128622D02*
X0067639Y0128622D01*
X0067636Y0127824D02*
X0070750Y0127824D01*
X0070804Y0127025D02*
X0067634Y0127025D01*
X0067631Y0126227D02*
X0071134Y0126227D01*
X0071550Y0125428D02*
X0067629Y0125428D01*
X0067627Y0124630D02*
X0072349Y0124630D01*
X0072395Y0121436D02*
X0067617Y0121436D01*
X0067619Y0122234D02*
X0074012Y0122234D01*
X0073902Y0123831D02*
X0067624Y0123831D01*
X0067622Y0123033D02*
X0083150Y0123033D01*
X0083150Y0123831D02*
X0076198Y0123831D01*
X0076088Y0122234D02*
X0083150Y0122234D01*
X0083150Y0121436D02*
X0077705Y0121436D01*
X0077751Y0124630D02*
X0083150Y0124630D01*
X0083150Y0131816D02*
X0077097Y0131816D01*
X0078123Y0131018D02*
X0078802Y0131018D01*
X0077117Y0134212D02*
X0083150Y0134212D01*
X0083150Y0133413D02*
X0067654Y0133413D01*
X0067651Y0132615D02*
X0083150Y0132615D01*
X0083150Y0141398D02*
X0077742Y0141398D01*
X0076178Y0142197D02*
X0083150Y0142197D01*
X0083150Y0142995D02*
X0067683Y0142995D01*
X0067681Y0142197D02*
X0073922Y0142197D01*
X0073992Y0143794D02*
X0067686Y0143794D01*
X0067713Y0152578D02*
X0083150Y0152578D01*
X0083150Y0153376D02*
X0067716Y0153376D01*
X0076108Y0143794D02*
X0083150Y0143794D01*
X0083150Y0144592D02*
X0077714Y0144592D01*
X0078160Y0150981D02*
X0078712Y0150981D01*
X0077187Y0151779D02*
X0083150Y0151779D01*
X0083150Y0154175D02*
X0077027Y0154175D01*
X0078094Y0154973D02*
X0078871Y0154973D01*
X0079631Y0161361D02*
X0077780Y0161361D01*
X0068466Y0178928D02*
X0065154Y0178928D01*
X0068023Y0184518D02*
X0072461Y0184518D01*
X0074171Y0183720D02*
X0068915Y0183720D01*
X0078272Y0210869D02*
X0078442Y0210869D01*
X0077456Y0211667D02*
X0083150Y0211667D01*
X0083150Y0214063D02*
X0076758Y0214063D01*
X0077983Y0214861D02*
X0079141Y0214861D01*
X0078781Y0135010D02*
X0078132Y0135010D01*
X0071596Y0120637D02*
X0067614Y0120637D01*
X0067612Y0119839D02*
X0071153Y0119839D01*
X0070822Y0119040D02*
X0067609Y0119040D01*
X0067607Y0118242D02*
X0070750Y0118242D01*
X0070750Y0117443D02*
X0067604Y0117443D01*
X0067602Y0116645D02*
X0070961Y0116645D01*
X0071292Y0115846D02*
X0067599Y0115846D01*
X0067597Y0115048D02*
X0071931Y0115048D01*
X0072893Y0114249D02*
X0067594Y0114249D01*
X0067592Y0113451D02*
X0083150Y0113451D01*
X0083150Y0114249D02*
X0077207Y0114249D01*
X0078169Y0115048D02*
X0078691Y0115048D01*
X0077007Y0111854D02*
X0083150Y0111854D01*
X0083150Y0112652D02*
X0067589Y0112652D01*
X0067587Y0111854D02*
X0073093Y0111854D01*
X0072014Y0111055D02*
X0067584Y0111055D01*
X0067582Y0110257D02*
X0071326Y0110257D01*
X0070996Y0109458D02*
X0067580Y0109458D01*
X0067577Y0108659D02*
X0070750Y0108659D01*
X0070750Y0107861D02*
X0067575Y0107861D01*
X0067572Y0107062D02*
X0070788Y0107062D01*
X0071119Y0106264D02*
X0067570Y0106264D01*
X0067567Y0105465D02*
X0071513Y0105465D01*
X0072312Y0104667D02*
X0067565Y0104667D01*
X0067562Y0103868D02*
X0073812Y0103868D01*
X0074102Y0102271D02*
X0067557Y0102271D01*
X0067555Y0101473D02*
X0072432Y0101473D01*
X0071633Y0100674D02*
X0067552Y0100674D01*
X0067550Y0099876D02*
X0071169Y0099876D01*
X0070838Y0099077D02*
X0067547Y0099077D01*
X0067545Y0098279D02*
X0070750Y0098279D01*
X0070750Y0097480D02*
X0067542Y0097480D01*
X0067540Y0096682D02*
X0070946Y0096682D01*
X0071277Y0095883D02*
X0067538Y0095883D01*
X0067535Y0095085D02*
X0071894Y0095085D01*
X0072803Y0094286D02*
X0067533Y0094286D01*
X0067530Y0093488D02*
X0083150Y0093488D01*
X0083150Y0094286D02*
X0077297Y0094286D01*
X0078206Y0095085D02*
X0078601Y0095085D01*
X0078981Y0091092D02*
X0078049Y0091092D01*
X0076917Y0091891D02*
X0083150Y0091891D01*
X0083150Y0092689D02*
X0067528Y0092689D01*
X0067525Y0091891D02*
X0073183Y0091891D01*
X0072051Y0091092D02*
X0067523Y0091092D01*
X0067520Y0090294D02*
X0071342Y0090294D01*
X0071011Y0089495D02*
X0067518Y0089495D01*
X0067515Y0088697D02*
X0070750Y0088697D01*
X0070750Y0087898D02*
X0067513Y0087898D01*
X0067510Y0087100D02*
X0070773Y0087100D01*
X0071103Y0086301D02*
X0067508Y0086301D01*
X0067505Y0085503D02*
X0071476Y0085503D01*
X0072275Y0084704D02*
X0067503Y0084704D01*
X0067500Y0083906D02*
X0073722Y0083906D01*
X0074192Y0082309D02*
X0067495Y0082309D01*
X0067498Y0083107D02*
X0083150Y0083107D01*
X0083150Y0082309D02*
X0075908Y0082309D01*
X0076378Y0083906D02*
X0083150Y0083906D01*
X0083150Y0081510D02*
X0077631Y0081510D01*
X0077825Y0084704D02*
X0079520Y0084704D01*
X0078512Y0075122D02*
X0078243Y0075122D01*
X0077387Y0074323D02*
X0083150Y0074323D01*
X0083150Y0073525D02*
X0067468Y0073525D01*
X0067471Y0074323D02*
X0072713Y0074323D01*
X0071857Y0075122D02*
X0067473Y0075122D01*
X0067476Y0075921D02*
X0071261Y0075921D01*
X0070930Y0076719D02*
X0067478Y0076719D01*
X0067481Y0077518D02*
X0070750Y0077518D01*
X0070750Y0078316D02*
X0067483Y0078316D01*
X0067486Y0079115D02*
X0070853Y0079115D01*
X0071184Y0079913D02*
X0067488Y0079913D01*
X0067491Y0080712D02*
X0071671Y0080712D01*
X0072469Y0081510D02*
X0067493Y0081510D01*
X0067466Y0072726D02*
X0083150Y0072726D01*
X0083150Y0071928D02*
X0067463Y0071928D01*
X0067461Y0071129D02*
X0083150Y0071129D01*
X0083150Y0070331D02*
X0067458Y0070331D01*
X0067456Y0069532D02*
X0083150Y0069532D01*
X0083150Y0068734D02*
X0067453Y0068734D01*
X0067451Y0067935D02*
X0083150Y0067935D01*
X0083150Y0067137D02*
X0067449Y0067137D01*
X0066757Y0066338D02*
X0083150Y0066338D01*
X0083150Y0065540D02*
X0063854Y0065540D01*
X0061007Y0064741D02*
X0083150Y0064741D01*
X0083150Y0063943D02*
X0058299Y0063943D01*
X0060505Y0091891D02*
X0061414Y0091891D01*
X0061416Y0092689D02*
X0061121Y0092689D01*
X0067560Y0103070D02*
X0083150Y0103070D01*
X0083150Y0103868D02*
X0076288Y0103868D01*
X0075998Y0102271D02*
X0083150Y0102271D01*
X0083150Y0101473D02*
X0077668Y0101473D01*
X0077788Y0104667D02*
X0079610Y0104667D01*
X0078891Y0111055D02*
X0078086Y0111055D01*
D15*
X0015050Y0108010D02*
X0005050Y0108010D01*
X0005050Y0118010D02*
X0015050Y0118010D01*
X0015050Y0128010D02*
X0005050Y0128010D01*
X0005050Y0138010D02*
X0015050Y0138010D01*
X0015050Y0148010D02*
X0005050Y0148010D01*
X0005050Y0158010D02*
X0015050Y0158010D01*
X0015050Y0168010D02*
X0005050Y0168010D01*
X0005050Y0178010D02*
X0015050Y0178010D01*
X0015050Y0188010D02*
X0005050Y0188010D01*
X0005050Y0198010D02*
X0015050Y0198010D01*
X0015050Y0208010D02*
X0005050Y0208010D01*
X0005050Y0218010D02*
X0015050Y0218010D01*
X0015050Y0098010D02*
X0005050Y0098010D01*
X0005050Y0088010D02*
X0015050Y0088010D01*
X0015050Y0078010D02*
X0005050Y0078010D01*
D16*
X0025050Y0133010D02*
X0025050Y0208010D01*
X0015050Y0208010D01*
D17*
X0044550Y0101010D02*
X0044550Y0100510D01*
D18*
X0028350Y0121710D02*
X0027850Y0121510D01*
X0027450Y0119710D01*
X0027350Y0049110D01*
X0021750Y0048910D01*
X0031850Y0053410D02*
X0032050Y0178910D01*
X0032150Y0182110D01*
X0032950Y0187510D01*
X0033950Y0188510D01*
X0048050Y0188510D01*
X0053050Y0184010D01*
X0054550Y0184010D01*
X0035950Y0183510D02*
X0035450Y0056510D01*
X0045550Y0054010D01*
X0063050Y0054010D01*
X0061050Y0053510D01*
X0061950Y0043310D02*
X0066850Y0043310D01*
X0055450Y0040210D02*
X0033950Y0050210D01*
X0031850Y0053410D01*
M02*
