G75*
%MOIN*%
%OFA0B0*%
%FSLAX25Y25*%
%IPPOS*%
%LPD*%
%AMOC8*
5,1,8,0,0,1.08239X$1,22.5*
%
%ADD10C,0.00000*%
%ADD11R,0.08268X0.05000*%
%ADD12R,0.11024X0.05512*%
%ADD13R,0.04724X0.05512*%
%ADD14R,0.03150X0.04724*%
%ADD15R,0.16000X0.08000*%
%ADD16R,0.03543X0.09843*%
D10*
X0005050Y0028010D02*
X0005050Y0223010D01*
X0085050Y0223010D01*
X0085050Y0028010D01*
X0005050Y0028010D01*
D11*
X0035050Y0100215D03*
X0035050Y0115805D03*
X0035050Y0160215D03*
X0035050Y0175805D03*
X0055050Y0175805D03*
X0055050Y0160215D03*
X0055050Y0115805D03*
X0055050Y0100215D03*
D12*
X0055050Y0127892D03*
X0035050Y0127892D03*
X0035050Y0189892D03*
X0055050Y0189892D03*
D13*
X0050719Y0200128D03*
X0059381Y0200128D03*
X0039381Y0200128D03*
X0030719Y0200128D03*
X0030719Y0138128D03*
X0039381Y0138128D03*
X0050719Y0138128D03*
X0059381Y0138128D03*
D14*
X0058593Y0148010D03*
X0051507Y0148010D03*
X0038593Y0148010D03*
X0031507Y0148010D03*
X0031507Y0210010D03*
X0038593Y0210010D03*
X0051507Y0210010D03*
X0058593Y0210010D03*
D15*
X0081350Y0063410D03*
X0081350Y0053410D03*
X0081350Y0043410D03*
X0081350Y0033410D03*
X0009950Y0033010D03*
X0009950Y0043010D03*
X0009950Y0053010D03*
X0009950Y0063010D03*
D16*
X0032152Y0071762D03*
X0037152Y0071762D03*
X0042152Y0071762D03*
X0047152Y0071762D03*
X0052152Y0071762D03*
X0057152Y0071762D03*
X0062152Y0071762D03*
M02*
