G75*
%MOIN*%
%OFA0B0*%
%FSLAX24Y24*%
%IPPOS*%
%LPD*%
%AMOC8*
5,1,8,0,0,1.08239X$1,22.5*
%
%ADD10C,0.0000*%
%ADD11C,0.0030*%
%ADD12C,0.0040*%
%ADD13C,0.0060*%
%ADD14C,0.0050*%
D10*
X000680Y002797D02*
X000680Y022297D01*
X008680Y022297D01*
X008680Y002797D01*
X000680Y002797D01*
D11*
X001855Y003205D02*
X001855Y003452D01*
X001855Y003329D02*
X002225Y003329D01*
X002102Y003452D01*
X002175Y003905D02*
X001928Y003905D01*
X001805Y004029D01*
X001928Y004152D01*
X002175Y004152D01*
X002144Y004895D02*
X002082Y004895D01*
X001835Y005142D01*
X001835Y004895D01*
X002144Y004895D02*
X002205Y004957D01*
X002205Y005080D01*
X002144Y005142D01*
X002144Y005789D02*
X001897Y005789D01*
X001835Y005850D01*
X001835Y006035D01*
X002205Y006035D01*
X002205Y005850D01*
X002144Y005789D01*
X002205Y006157D02*
X001835Y006157D01*
X002205Y006404D01*
X001835Y006404D01*
X001897Y006525D02*
X001835Y006587D01*
X001835Y006710D01*
X001897Y006772D01*
X002144Y006772D01*
X002205Y006710D01*
X002205Y006587D01*
X002144Y006525D01*
X002020Y006525D02*
X002020Y006649D01*
X002020Y006525D02*
X001897Y006525D01*
X001972Y007206D02*
X002109Y007206D01*
X002109Y007343D01*
X001972Y007480D01*
X002044Y007551D02*
X002112Y007619D01*
X002078Y007585D02*
X002283Y007380D01*
X002249Y007346D02*
X002317Y007414D01*
X002388Y007485D02*
X002183Y007690D01*
X002525Y007622D01*
X002320Y007827D01*
X002357Y008193D02*
X002405Y008242D01*
X002405Y008338D01*
X002357Y008387D01*
X002260Y008387D01*
X002260Y008290D01*
X002163Y008193D02*
X002357Y008193D01*
X002163Y008193D02*
X002115Y008242D01*
X002115Y008338D01*
X002163Y008387D01*
X002115Y008488D02*
X002405Y008681D01*
X002115Y008681D01*
X002115Y008782D02*
X002115Y008928D01*
X002163Y008976D01*
X002357Y008976D01*
X002405Y008928D01*
X002405Y008782D01*
X002115Y008782D01*
X002115Y008488D02*
X002405Y008488D01*
X002358Y009433D02*
X002358Y009578D01*
X002310Y009627D01*
X002213Y009627D01*
X002165Y009578D01*
X002165Y009433D01*
X002455Y009433D01*
X002358Y009530D02*
X002455Y009627D01*
X002407Y009728D02*
X002455Y009776D01*
X002455Y009873D01*
X002407Y009921D01*
X002358Y009921D01*
X002310Y009873D01*
X002310Y009776D01*
X002262Y009728D01*
X002213Y009728D01*
X002165Y009776D01*
X002165Y009873D01*
X002213Y009921D01*
X002165Y010022D02*
X002165Y010216D01*
X002165Y010119D02*
X002455Y010119D01*
X002407Y010533D02*
X002455Y010582D01*
X002455Y010678D01*
X002407Y010727D01*
X002310Y010727D01*
X002262Y010678D01*
X002262Y010630D01*
X002310Y010533D01*
X002165Y010533D01*
X002165Y010727D01*
X002165Y010828D02*
X002358Y010828D01*
X002455Y010925D01*
X002358Y011021D01*
X002165Y011021D01*
X002262Y011433D02*
X002165Y011530D01*
X002262Y011627D01*
X002455Y011627D01*
X002455Y011728D02*
X002407Y011728D01*
X002213Y011921D01*
X002165Y011921D01*
X002165Y011728D01*
X002262Y011433D02*
X002455Y011433D01*
X002310Y011433D02*
X002310Y011627D01*
X002310Y012483D02*
X002310Y012677D01*
X002262Y012677D02*
X002455Y012677D01*
X002407Y012778D02*
X002310Y012778D01*
X002310Y012923D01*
X002358Y012971D01*
X002407Y012971D01*
X002455Y012923D01*
X002455Y012826D01*
X002407Y012778D01*
X002310Y012778D02*
X002213Y012875D01*
X002165Y012971D01*
X002262Y012677D02*
X002165Y012580D01*
X002262Y012483D01*
X002455Y012483D01*
X002465Y013463D02*
X002272Y013463D01*
X002175Y013560D01*
X002272Y013657D01*
X002465Y013657D01*
X002417Y013758D02*
X002465Y013806D01*
X002465Y013903D01*
X002417Y013951D01*
X002320Y013951D01*
X002272Y013903D01*
X002272Y013855D01*
X002320Y013758D01*
X002175Y013758D01*
X002175Y013951D01*
X002320Y013657D02*
X002320Y013463D01*
X002310Y014533D02*
X002310Y014727D01*
X002262Y014727D02*
X002455Y014727D01*
X002310Y014828D02*
X002310Y015021D01*
X002455Y014973D02*
X002165Y014973D01*
X002310Y014828D01*
X002262Y014727D02*
X002165Y014630D01*
X002262Y014533D01*
X002455Y014533D01*
X002455Y015533D02*
X002262Y015533D01*
X002165Y015630D01*
X002262Y015727D01*
X002455Y015727D01*
X002407Y015828D02*
X002455Y015876D01*
X002455Y015973D01*
X002407Y016021D01*
X002358Y016021D01*
X002310Y015973D01*
X002310Y015925D01*
X002310Y015973D02*
X002262Y016021D01*
X002213Y016021D01*
X002165Y015973D01*
X002165Y015876D01*
X002213Y015828D01*
X002310Y015727D02*
X002310Y015533D01*
X002310Y016583D02*
X002310Y016777D01*
X002262Y016777D02*
X002455Y016777D01*
X002455Y016878D02*
X002262Y017071D01*
X002213Y017071D01*
X002165Y017023D01*
X002165Y016926D01*
X002213Y016878D01*
X002262Y016777D02*
X002165Y016680D01*
X002262Y016583D01*
X002455Y016583D01*
X002455Y016878D02*
X002455Y017071D01*
X002455Y017583D02*
X002262Y017583D01*
X002165Y017680D01*
X002262Y017777D01*
X002455Y017777D01*
X002455Y017878D02*
X002455Y018071D01*
X002455Y017975D02*
X002165Y017975D01*
X002262Y017878D01*
X002310Y017777D02*
X002310Y017583D01*
X002310Y018533D02*
X002310Y018727D01*
X002262Y018727D02*
X002455Y018727D01*
X002407Y018828D02*
X002213Y019021D01*
X002407Y019021D01*
X002455Y018973D01*
X002455Y018876D01*
X002407Y018828D01*
X002213Y018828D01*
X002165Y018876D01*
X002165Y018973D01*
X002213Y019021D01*
X002262Y018727D02*
X002165Y018630D01*
X002262Y018533D01*
X002455Y018533D01*
X002314Y019394D02*
X002246Y019394D01*
X002109Y019530D01*
X002109Y019599D01*
X002177Y019667D01*
X002246Y019667D01*
X002314Y019599D02*
X002246Y019530D01*
X002314Y019599D02*
X002383Y019530D01*
X002383Y019462D01*
X002314Y019394D01*
X002488Y019568D02*
X002283Y019773D01*
X002625Y019705D01*
X002420Y019910D01*
X002491Y019981D02*
X002594Y020084D01*
X002662Y020084D01*
X002799Y019947D01*
X002799Y019879D01*
X002697Y019776D01*
X002491Y019981D01*
X002184Y020304D02*
X002116Y020304D01*
X002184Y020304D02*
X002253Y020372D01*
X002253Y020440D01*
X002218Y020475D01*
X002150Y020475D01*
X002116Y020440D01*
X002150Y020475D02*
X002150Y020543D01*
X002116Y020577D01*
X002047Y020577D01*
X001979Y020509D01*
X001979Y020440D01*
X002153Y020683D02*
X002290Y020546D01*
X002427Y020546D01*
X002427Y020683D01*
X002290Y020820D01*
X002396Y020857D02*
X002396Y020926D01*
X002464Y020994D01*
X002532Y020994D01*
X002567Y020960D01*
X002567Y020891D01*
X002635Y020891D01*
X002669Y020857D01*
X002669Y020789D01*
X002601Y020720D01*
X002532Y020720D01*
X002532Y020857D02*
X002567Y020891D01*
X002475Y021353D02*
X002475Y021498D01*
X002427Y021547D01*
X002233Y021547D01*
X002185Y021498D01*
X002185Y021353D01*
X002475Y021353D01*
X002475Y021648D02*
X002475Y021841D01*
X002475Y021745D02*
X002185Y021745D01*
X002282Y021648D01*
X002233Y021942D02*
X002185Y021991D01*
X002185Y022088D01*
X002233Y022136D01*
X002282Y022136D01*
X002330Y022088D01*
X002378Y022136D01*
X002427Y022136D01*
X002475Y022088D01*
X002475Y021991D01*
X002427Y021942D01*
X002330Y022039D02*
X002330Y022088D01*
X006428Y021833D02*
X006539Y021740D01*
X006608Y021746D01*
X006732Y021894D01*
X006726Y021962D01*
X006615Y022055D01*
X006428Y021833D01*
X006654Y021644D02*
X006802Y021519D01*
X006728Y021581D02*
X006915Y021804D01*
X006778Y021792D01*
X006880Y021454D02*
X007152Y021478D01*
X007183Y021515D01*
X007177Y021583D01*
X007103Y021646D01*
X007035Y021640D01*
X006880Y021454D02*
X007028Y021330D01*
X006915Y020874D02*
X006728Y020651D01*
X006802Y020589D02*
X006654Y020714D01*
X006608Y020816D02*
X006732Y020964D01*
X006726Y021032D01*
X006615Y021125D01*
X006428Y020903D01*
X006539Y020810D01*
X006608Y020816D01*
X006778Y020862D02*
X006915Y020874D01*
X007004Y020672D02*
X007140Y020684D01*
X006954Y020462D01*
X006880Y020524D02*
X007028Y020400D01*
X006925Y019844D02*
X006738Y019621D01*
X006812Y019559D02*
X006664Y019684D01*
X006618Y019786D02*
X006742Y019934D01*
X006736Y020002D01*
X006625Y020095D01*
X006438Y019873D01*
X006549Y019780D01*
X006618Y019786D01*
X006788Y019832D02*
X006925Y019844D01*
X007045Y019680D02*
X007113Y019686D01*
X007187Y019623D01*
X007193Y019555D01*
X006921Y019531D01*
X006927Y019463D01*
X007001Y019401D01*
X007069Y019407D01*
X007193Y019555D01*
X007045Y019680D02*
X006921Y019531D01*
X006873Y018951D02*
X006825Y018903D01*
X006825Y018806D01*
X006873Y018758D01*
X006922Y018758D01*
X006970Y018806D01*
X006970Y018951D01*
X007067Y018951D02*
X006873Y018951D01*
X007067Y018951D02*
X007115Y018903D01*
X007115Y018806D01*
X007067Y018758D01*
X007067Y018657D02*
X006873Y018657D01*
X006825Y018608D01*
X006825Y018463D01*
X007115Y018463D01*
X007115Y018608D01*
X007067Y018657D01*
X007067Y018001D02*
X007115Y017953D01*
X007115Y017856D01*
X007067Y017808D01*
X007018Y017808D01*
X006970Y017856D01*
X006970Y017953D01*
X007018Y018001D01*
X007067Y018001D01*
X006970Y017953D02*
X006922Y018001D01*
X006873Y018001D01*
X006825Y017953D01*
X006825Y017856D01*
X006873Y017808D01*
X006922Y017808D01*
X006970Y017856D01*
X007067Y017707D02*
X006873Y017707D01*
X006825Y017658D01*
X006825Y017513D01*
X007115Y017513D01*
X007115Y017658D01*
X007067Y017707D01*
X006903Y017121D02*
X007097Y016928D01*
X007145Y016928D01*
X007097Y016827D02*
X006903Y016827D01*
X006855Y016778D01*
X006855Y016633D01*
X007145Y016633D01*
X007145Y016778D01*
X007097Y016827D01*
X006855Y016928D02*
X006855Y017121D01*
X006903Y017121D01*
X006865Y016001D02*
X006913Y015905D01*
X007010Y015808D01*
X007010Y015953D01*
X007058Y016001D01*
X007107Y016001D01*
X007155Y015953D01*
X007155Y015856D01*
X007107Y015808D01*
X007010Y015808D01*
X007107Y015707D02*
X006913Y015707D01*
X006865Y015658D01*
X006865Y015513D01*
X007155Y015513D01*
X007155Y015658D01*
X007107Y015707D01*
X007107Y014991D02*
X007010Y014991D01*
X006962Y014943D01*
X006962Y014895D01*
X007010Y014798D01*
X006865Y014798D01*
X006865Y014991D01*
X006913Y014697D02*
X006865Y014648D01*
X006865Y014503D01*
X007155Y014503D01*
X007155Y014648D01*
X007107Y014697D01*
X006913Y014697D01*
X007107Y014798D02*
X007155Y014846D01*
X007155Y014943D01*
X007107Y014991D01*
X007000Y014001D02*
X007000Y013808D01*
X006855Y013953D01*
X007145Y013953D01*
X007097Y013707D02*
X006903Y013707D01*
X006855Y013658D01*
X006855Y013513D01*
X007145Y013513D01*
X007145Y013658D01*
X007097Y013707D01*
X007068Y012991D02*
X007117Y012991D01*
X007165Y012943D01*
X007165Y012846D01*
X007117Y012798D01*
X007117Y012697D02*
X006923Y012697D01*
X006875Y012648D01*
X006875Y012503D01*
X007165Y012503D01*
X007165Y012648D01*
X007117Y012697D01*
X007020Y012895D02*
X007020Y012943D01*
X007068Y012991D01*
X007020Y012943D02*
X006972Y012991D01*
X006923Y012991D01*
X006875Y012943D01*
X006875Y012846D01*
X006923Y012798D01*
X006903Y012031D02*
X006855Y011983D01*
X006855Y011886D01*
X006903Y011838D01*
X006903Y011737D02*
X006855Y011688D01*
X006855Y011543D01*
X007145Y011543D01*
X007145Y011688D01*
X007097Y011737D01*
X006903Y011737D01*
X007145Y011838D02*
X006952Y012031D01*
X006903Y012031D01*
X007145Y012031D02*
X007145Y011838D01*
X007087Y011056D02*
X006893Y011056D01*
X006845Y011008D01*
X006845Y010862D01*
X007135Y010862D01*
X007135Y011008D01*
X007087Y011056D01*
X007135Y010761D02*
X006845Y010761D01*
X006845Y010568D02*
X007135Y010761D01*
X007135Y010568D02*
X006845Y010568D01*
X006893Y010467D02*
X006845Y010418D01*
X006845Y010322D01*
X006893Y010273D01*
X007087Y010273D01*
X007135Y010322D01*
X007135Y010418D01*
X007087Y010467D01*
X006990Y010467D01*
X006990Y010370D01*
X007068Y009921D02*
X006875Y009921D01*
X006875Y009728D02*
X007068Y009728D01*
X007165Y009825D01*
X007068Y009921D01*
X007020Y009627D02*
X006972Y009578D01*
X006972Y009530D01*
X007020Y009433D01*
X006875Y009433D01*
X006875Y009627D01*
X007020Y009627D02*
X007117Y009627D01*
X007165Y009578D01*
X007165Y009482D01*
X007117Y009433D01*
X007046Y008653D02*
X007115Y008311D01*
X007043Y008240D02*
X006906Y008240D01*
X006940Y008274D02*
X006838Y008171D01*
X006906Y008103D02*
X006701Y008308D01*
X006804Y008411D01*
X006872Y008411D01*
X006940Y008343D01*
X006940Y008274D01*
X006909Y008517D02*
X007251Y008448D01*
X007066Y007783D02*
X007135Y007441D01*
X007271Y007578D02*
X006929Y007647D01*
X006858Y007575D02*
X006721Y007438D01*
X006789Y007507D02*
X006995Y007301D01*
X007266Y006846D02*
X007205Y006784D01*
X007205Y006599D01*
X007575Y006599D01*
X007575Y006784D01*
X007513Y006846D01*
X007266Y006846D01*
X007205Y006477D02*
X007575Y006477D01*
X007205Y006230D01*
X007575Y006230D01*
X007513Y006109D02*
X007390Y006109D01*
X007390Y005985D01*
X007513Y005862D02*
X007266Y005862D01*
X007205Y005924D01*
X007205Y006047D01*
X007266Y006109D01*
X007513Y006109D02*
X007575Y006047D01*
X007575Y005924D01*
X007513Y005862D01*
X007390Y005409D02*
X007390Y005162D01*
X007205Y005347D01*
X007575Y005347D01*
X007462Y004479D02*
X007215Y004479D01*
X007215Y004232D02*
X007462Y004232D01*
X007585Y004355D01*
X007462Y004479D01*
X007432Y003749D02*
X007370Y003687D01*
X007370Y003625D01*
X007370Y003687D02*
X007308Y003749D01*
X007246Y003749D01*
X007185Y003687D01*
X007185Y003564D01*
X007246Y003502D01*
X007432Y003749D02*
X007493Y003749D01*
X007555Y003687D01*
X007555Y003564D01*
X007493Y003502D01*
X001972Y007206D02*
X001835Y007343D01*
D12*
X004891Y006294D02*
X004891Y005834D01*
X004891Y005987D02*
X005121Y005987D01*
X005197Y006064D01*
X005197Y006218D01*
X005121Y006294D01*
X004891Y006294D01*
X005044Y005987D02*
X005197Y005834D01*
X005351Y005834D02*
X005351Y006294D01*
X005658Y006294D01*
X005504Y006064D02*
X005351Y006064D01*
X005811Y006218D02*
X005888Y006294D01*
X006042Y006294D01*
X006118Y006218D01*
X006118Y006141D01*
X005811Y005834D01*
X006118Y005834D01*
X006272Y006064D02*
X006579Y006064D01*
X006502Y005834D02*
X006502Y006294D01*
X006272Y006064D01*
X006223Y021717D02*
X006223Y022177D01*
X006530Y022177D01*
X006376Y021947D02*
X006223Y021947D01*
X006069Y021947D02*
X006069Y022101D01*
X005993Y022177D01*
X005762Y022177D01*
X005762Y021717D01*
X005762Y021871D02*
X005993Y021871D01*
X006069Y021947D01*
X005916Y021871D02*
X006069Y021717D01*
X005609Y021947D02*
X005302Y021947D01*
X005532Y022177D01*
X005532Y021717D01*
X005148Y021717D02*
X004842Y021717D01*
X005148Y022024D01*
X005148Y022101D01*
X005072Y022177D01*
X004918Y022177D01*
X004842Y022101D01*
X004688Y021947D02*
X004688Y021794D01*
X004611Y021717D01*
X004458Y021717D01*
X004381Y021794D01*
X004381Y021947D01*
X004458Y022024D01*
X004611Y022024D01*
X004688Y021947D01*
X004228Y021947D02*
X004228Y021717D01*
X004228Y021947D02*
X004151Y022024D01*
X003921Y022024D01*
X003921Y021717D01*
X003767Y021717D02*
X003537Y021717D01*
X003460Y021794D01*
X003537Y021871D01*
X003767Y021871D01*
X003767Y021947D02*
X003767Y021717D01*
X003767Y021947D02*
X003691Y022024D01*
X003537Y022024D01*
X003307Y021947D02*
X003307Y021717D01*
X003307Y021947D02*
X003230Y022024D01*
X003000Y022024D01*
X003000Y021717D01*
D13*
X003562Y021233D02*
X003798Y021233D01*
X003798Y020761D02*
X003562Y020761D01*
X003564Y019757D02*
X003802Y019757D01*
X004299Y019654D02*
X004299Y019237D01*
X004255Y017697D02*
X004255Y015897D01*
X004098Y016600D02*
X003680Y016600D01*
X003262Y017018D01*
X004098Y017018D01*
X003680Y016600D01*
X003262Y016600D01*
X003105Y015897D02*
X003105Y017697D01*
X003061Y019237D02*
X003061Y019654D01*
X003562Y015033D02*
X003798Y015033D01*
X003798Y014561D02*
X003562Y014561D01*
X003564Y013557D02*
X003802Y013557D01*
X004299Y013454D02*
X004299Y013037D01*
X004255Y011697D02*
X004255Y009897D01*
X004098Y010600D02*
X003680Y010600D01*
X003262Y011018D01*
X004098Y011018D01*
X003680Y010600D01*
X003262Y010600D01*
X003105Y009897D02*
X003105Y011697D01*
X003061Y013037D02*
X003061Y013454D01*
X005061Y013454D02*
X005061Y013037D01*
X005564Y013557D02*
X005802Y013557D01*
X005798Y014561D02*
X005562Y014561D01*
X005562Y015033D02*
X005798Y015033D01*
X006255Y015897D02*
X006255Y017697D01*
X006098Y017018D02*
X005262Y017018D01*
X005680Y016600D01*
X006098Y017018D01*
X006098Y016600D02*
X005680Y016600D01*
X005262Y016600D01*
X005105Y015897D02*
X005105Y017697D01*
X005061Y019237D02*
X005061Y019654D01*
X005564Y019757D02*
X005802Y019757D01*
X006299Y019654D02*
X006299Y019237D01*
X005798Y020761D02*
X005562Y020761D01*
X005562Y021233D02*
X005798Y021233D01*
X006299Y013454D02*
X006299Y013037D01*
X006255Y011697D02*
X006255Y009897D01*
X006098Y010600D02*
X005680Y010600D01*
X005262Y011018D01*
X006098Y011018D01*
X005680Y010600D01*
X005262Y010600D01*
X005105Y009897D02*
X005105Y011697D01*
D14*
X007032Y007212D02*
X002961Y007212D01*
X002961Y006613D01*
X002497Y006613D01*
X002497Y006625D01*
X002528Y006625D01*
X002953Y007050D01*
X002961Y007212D02*
X002308Y007212D01*
X002308Y000125D01*
X007032Y000125D01*
X007032Y007212D01*
X006532Y005712D02*
X006532Y004712D01*
X005532Y005712D01*
X005532Y005212D01*
X004532Y005212D01*
X004532Y005712D01*
X004532Y005212D02*
X004532Y004712D01*
X003532Y005712D01*
X002532Y005712D01*
X002532Y004212D01*
X003532Y004212D01*
X003532Y005712D01*
X002949Y006625D02*
X002528Y006625D01*
X002497Y006625D02*
X002497Y007078D01*
X002949Y006625D01*
X002497Y007078D02*
X002497Y007200D01*
X003532Y004212D02*
X004532Y004212D01*
X004532Y004712D01*
X004532Y004212D02*
X005532Y004212D01*
X005532Y005212D01*
X006532Y004712D02*
X006532Y004212D01*
X006532Y003212D02*
X006532Y002712D01*
X004032Y002712D01*
X004032Y002212D02*
X003532Y002212D01*
X003532Y000712D01*
X002532Y000712D01*
X004032Y000712D02*
X004032Y002212D01*
X004532Y002212D02*
X004532Y000712D01*
X004032Y000712D01*
X004532Y002212D02*
X005032Y002212D01*
X005032Y000712D01*
X005532Y000712D01*
X005532Y002212D01*
X006032Y002212D01*
X006032Y000712D01*
X006532Y000712D01*
X006532Y002712D01*
M02*
