%
M48
M72
T01C0.0236
T02C0.0394
%
T01
X1420Y3937
X1410Y5237
X3190Y7897
X3900Y8707
X3590Y10047
X3890Y10797
X4440Y9397
X4500Y8447
X4990Y9397
X5390Y8047
X5740Y5347
X5830Y4327
X5680Y3517
X3640Y12297
X3640Y14297
X3640Y15797
X3440Y16547
X2790Y18347
X3640Y19697
X4590Y18397
X5340Y18397
X5790Y18197
X6040Y19247
X2070Y12137
X1640Y21297
T02
X640Y20797
X640Y21797
X640Y19797
X640Y18797
X640Y17797
X640Y16797
X640Y15797
X640Y14797
X640Y13797
X640Y12797
X640Y11797
X640Y10797
X640Y9797
X640Y8797
X640Y7797
X6640Y7797
X6640Y8797
X6640Y9797
X6640Y10797
X6640Y11797
X6640Y12797
X6640Y13797
X6640Y14797
X6640Y15797
X6640Y16797
X6640Y17797
X6640Y18797
X6640Y19797
X6640Y20797
X6640Y21797
M30
