G75*
%MOIN*%
%OFA0B0*%
%FSLAX24Y24*%
%IPPOS*%
%LPD*%
%AMOC8*
5,1,8,0,0,1.08239X$1,22.5*
%
%ADD10C,0.0000*%
%ADD11R,0.0827X0.0500*%
%ADD12C,0.0660*%
%ADD13R,0.1102X0.0551*%
%ADD14R,0.0472X0.0551*%
%ADD15R,0.0315X0.0472*%
%ADD16R,0.1600X0.0800*%
%ADD17R,0.0354X0.0984*%
%ADD18C,0.0515*%
%ADD19C,0.0080*%
%ADD20C,0.0356*%
%ADD21C,0.0160*%
%ADD22C,0.0120*%
%ADD23C,0.0400*%
%ADD24C,0.0100*%
%ADD25C,0.0320*%
D10*
X000680Y002797D02*
X000680Y022297D01*
X008680Y022297D01*
X008680Y002797D01*
X000680Y002797D01*
D11*
X003680Y010018D03*
X003680Y011577D03*
X003680Y016018D03*
X003680Y017577D03*
X005680Y017577D03*
X005680Y016018D03*
X005680Y011577D03*
X005680Y010018D03*
D12*
X007680Y009797D03*
X007680Y010797D03*
X007680Y011797D03*
X007680Y012797D03*
X007680Y013797D03*
X007680Y014797D03*
X007680Y015797D03*
X007680Y016797D03*
X007680Y017797D03*
X007680Y018797D03*
X007680Y019797D03*
X007680Y020797D03*
X007680Y021797D03*
X007680Y008797D03*
X007680Y007797D03*
X001680Y007797D03*
X001680Y008797D03*
X001680Y009797D03*
X001680Y010797D03*
X001680Y011797D03*
X001680Y012797D03*
X001680Y013797D03*
X001680Y014797D03*
X001680Y015797D03*
X001680Y016797D03*
X001680Y017797D03*
X001680Y018797D03*
X001680Y019797D03*
X001680Y020797D03*
X001680Y021797D03*
D13*
X003680Y018985D03*
X005680Y018985D03*
X005680Y012785D03*
X003680Y012785D03*
D14*
X003247Y013809D03*
X004113Y013809D03*
X005247Y013809D03*
X006113Y013809D03*
X006113Y020009D03*
X005247Y020009D03*
X004113Y020009D03*
X003247Y020009D03*
D15*
X003326Y020997D03*
X004034Y020997D03*
X005326Y020997D03*
X006034Y020997D03*
X006034Y014797D03*
X005326Y014797D03*
X004034Y014797D03*
X003326Y014797D03*
D16*
X000920Y006297D03*
X000920Y005297D03*
X000920Y004297D03*
X000920Y003297D03*
X008560Y003337D03*
X008560Y004337D03*
X008560Y005337D03*
X008560Y006337D03*
D17*
X006390Y007172D03*
X005890Y007172D03*
X005390Y007172D03*
X004890Y007172D03*
X004390Y007172D03*
X003890Y007172D03*
X003390Y007172D03*
D18*
X001195Y007797D02*
X000680Y007797D01*
X000680Y008797D02*
X001195Y008797D01*
X001195Y009797D02*
X000680Y009797D01*
X000680Y010797D02*
X001195Y010797D01*
X001195Y011797D02*
X000680Y011797D01*
X000680Y012797D02*
X001195Y012797D01*
X001195Y013797D02*
X000680Y013797D01*
X000680Y014797D02*
X001195Y014797D01*
X001195Y015797D02*
X000680Y015797D01*
X000680Y016797D02*
X001195Y016797D01*
X001195Y017797D02*
X000680Y017797D01*
X000680Y018797D02*
X001195Y018797D01*
X001195Y019797D02*
X000680Y019797D01*
X000680Y020797D02*
X001195Y020797D01*
X001195Y021797D02*
X000680Y021797D01*
X008165Y021797D02*
X008680Y021797D01*
X008680Y020797D02*
X008165Y020797D01*
X008165Y019797D02*
X008680Y019797D01*
X008680Y018797D02*
X008165Y018797D01*
X008165Y017797D02*
X008680Y017797D01*
X008680Y016797D02*
X008165Y016797D01*
X008165Y015797D02*
X008680Y015797D01*
X008680Y014797D02*
X008165Y014797D01*
X008165Y013797D02*
X008680Y013797D01*
X008680Y012797D02*
X008165Y012797D01*
X008165Y011797D02*
X008680Y011797D01*
X008680Y010797D02*
X008165Y010797D01*
X008165Y009797D02*
X008680Y009797D01*
X008680Y008797D02*
X008165Y008797D01*
X008165Y007797D02*
X008680Y007797D01*
D19*
X008540Y008155D02*
X008094Y008155D01*
X007978Y008107D01*
X007924Y008162D01*
X007766Y008227D01*
X007594Y008227D01*
X007436Y008162D01*
X007315Y008041D01*
X007250Y007883D01*
X007250Y007712D01*
X007315Y007553D01*
X007436Y007433D01*
X007594Y007367D01*
X007766Y007367D01*
X007924Y007433D01*
X007978Y007487D01*
X008094Y007440D01*
X008540Y007440D01*
X008540Y006837D01*
X007719Y006837D01*
X007660Y006778D01*
X007660Y005896D01*
X007719Y005837D01*
X007660Y005778D01*
X007660Y005527D01*
X006993Y005527D01*
X006938Y005583D01*
X006835Y005625D01*
X006725Y005625D01*
X006622Y005583D01*
X006544Y005505D01*
X006502Y005402D01*
X006502Y005292D01*
X006544Y005190D01*
X006622Y005111D01*
X006725Y005069D01*
X006835Y005069D01*
X006938Y005111D01*
X006993Y005167D01*
X007660Y005167D01*
X007660Y004896D01*
X007719Y004837D01*
X007660Y004778D01*
X007660Y004592D01*
X006968Y004588D01*
X006925Y004605D01*
X006815Y004605D01*
X006712Y004563D01*
X006634Y004485D01*
X006592Y004382D01*
X006592Y004272D01*
X006634Y004170D01*
X006712Y004091D01*
X006815Y004049D01*
X006925Y004049D01*
X006970Y004068D01*
X007660Y004072D01*
X007660Y003896D01*
X003060Y003896D01*
X003060Y003818D02*
X007699Y003818D01*
X007719Y003837D02*
X007660Y003778D01*
X007660Y003568D01*
X006960Y003665D01*
X006956Y003675D01*
X006878Y003753D01*
X006775Y003795D01*
X006665Y003795D01*
X006562Y003753D01*
X006484Y003675D01*
X006442Y003572D01*
X006442Y003462D01*
X006484Y003360D01*
X006562Y003281D01*
X006665Y003239D01*
X006775Y003239D01*
X006878Y003281D01*
X006906Y003309D01*
X007629Y003208D01*
X007660Y003232D01*
X007660Y002937D01*
X001820Y002937D01*
X001820Y003117D01*
X002570Y003117D01*
X002582Y003108D01*
X002643Y003117D01*
X002705Y003117D01*
X002715Y003127D01*
X002729Y003129D01*
X002766Y003179D01*
X002810Y003222D01*
X002810Y003237D01*
X002895Y003351D01*
X002919Y003361D01*
X002938Y003408D01*
X002969Y003449D01*
X002965Y003475D01*
X003033Y003646D01*
X003060Y003672D01*
X003060Y003712D01*
X003075Y003749D01*
X003060Y003784D01*
X003060Y010180D01*
X003167Y010303D01*
X003167Y009726D01*
X003225Y009668D01*
X004135Y009668D01*
X004193Y009726D01*
X004193Y009858D01*
X004426Y009858D01*
X004472Y009811D01*
X004575Y009769D01*
X004685Y009769D01*
X004788Y009811D01*
X004834Y009858D01*
X005167Y009858D01*
X005167Y009726D01*
X005225Y009668D01*
X005406Y009668D01*
X005322Y009633D01*
X005244Y009555D01*
X005237Y009537D01*
X004580Y009537D01*
X004574Y009542D01*
X004523Y009537D01*
X004472Y009537D01*
X004466Y009531D01*
X004459Y009531D01*
X004426Y009491D01*
X004390Y009455D01*
X004390Y009447D01*
X003286Y008101D01*
X003250Y008065D01*
X003250Y008057D01*
X003245Y008051D01*
X003250Y008000D01*
X003250Y007764D01*
X003172Y007764D01*
X003113Y007706D01*
X003113Y006639D01*
X003172Y006580D01*
X003609Y006580D01*
X003640Y006612D01*
X003672Y006580D01*
X004109Y006580D01*
X004140Y006612D01*
X004172Y006580D01*
X004240Y006580D01*
X004240Y006350D01*
X004222Y006343D01*
X004144Y006265D01*
X004102Y006162D01*
X004102Y006052D01*
X004144Y005950D01*
X004222Y005871D01*
X004325Y005829D01*
X004435Y005829D01*
X004538Y005871D01*
X004616Y005950D01*
X004658Y006052D01*
X004658Y006162D01*
X004616Y006265D01*
X004538Y006343D01*
X004520Y006350D01*
X004520Y006580D01*
X004609Y006580D01*
X004640Y006612D01*
X004672Y006580D01*
X004790Y006580D01*
X004790Y006570D01*
X004772Y006563D01*
X004694Y006485D01*
X004652Y006382D01*
X004652Y006272D01*
X004694Y006170D01*
X004772Y006091D01*
X004875Y006049D01*
X004985Y006049D01*
X005088Y006091D01*
X005114Y006117D01*
X005154Y006020D01*
X005232Y005941D01*
X005335Y005899D01*
X005445Y005899D01*
X005548Y005941D01*
X005626Y006020D01*
X005668Y006122D01*
X005668Y006232D01*
X005626Y006335D01*
X005548Y006413D01*
X005530Y006420D01*
X005530Y006580D01*
X005609Y006580D01*
X005612Y006583D01*
X005627Y006568D01*
X005659Y006550D01*
X005695Y006540D01*
X005850Y006540D01*
X005850Y007132D01*
X005930Y007132D01*
X005930Y006540D01*
X006086Y006540D01*
X006121Y006550D01*
X006153Y006568D01*
X006169Y006583D01*
X006172Y006580D01*
X006609Y006580D01*
X006667Y006639D01*
X006667Y007706D01*
X006609Y007764D01*
X006556Y007764D01*
X006560Y008090D01*
X006570Y008131D01*
X006560Y008146D01*
X006561Y008163D01*
X006531Y008194D01*
X006509Y008230D01*
X006492Y008234D01*
X006480Y008246D01*
X006437Y008247D01*
X005468Y008477D01*
X005436Y008555D01*
X005358Y008633D01*
X005255Y008675D01*
X005145Y008675D01*
X005042Y008633D01*
X004964Y008555D01*
X004922Y008452D01*
X004922Y008342D01*
X004964Y008240D01*
X005042Y008161D01*
X005145Y008119D01*
X005255Y008119D01*
X005358Y008161D01*
X005402Y008205D01*
X006279Y007997D01*
X006276Y007764D01*
X006172Y007764D01*
X006169Y007761D01*
X006153Y007776D01*
X006121Y007795D01*
X006086Y007804D01*
X005930Y007804D01*
X005930Y007212D01*
X005850Y007212D01*
X005850Y007804D01*
X005695Y007804D01*
X005659Y007795D01*
X005627Y007776D01*
X005612Y007761D01*
X005609Y007764D01*
X005172Y007764D01*
X005140Y007733D01*
X005109Y007764D01*
X004672Y007764D01*
X004640Y007733D01*
X004609Y007764D01*
X004172Y007764D01*
X004140Y007733D01*
X004109Y007764D01*
X004030Y007764D01*
X004030Y008028D01*
X004767Y008937D01*
X005873Y008937D01*
X005901Y008926D01*
X005928Y008937D01*
X005958Y008937D01*
X005980Y008959D01*
X006008Y008971D01*
X006019Y008998D01*
X006040Y009019D01*
X006040Y009050D01*
X006068Y009119D01*
X006085Y009119D01*
X006188Y009161D01*
X006266Y009240D01*
X006308Y009342D01*
X006308Y009452D01*
X006266Y009555D01*
X006188Y009633D01*
X006104Y009668D01*
X006135Y009668D01*
X006193Y009726D01*
X006193Y010309D01*
X006135Y010368D01*
X005225Y010368D01*
X005167Y010309D01*
X005167Y010178D01*
X004877Y010178D01*
X004866Y010205D01*
X004788Y010283D01*
X004685Y010325D01*
X004575Y010325D01*
X004472Y010283D01*
X004394Y010205D01*
X004383Y010178D01*
X004193Y010178D01*
X004193Y010309D01*
X004135Y010368D01*
X003225Y010368D01*
X003206Y010348D01*
X003612Y010817D01*
X004455Y010817D01*
X005005Y011367D01*
X005167Y011367D01*
X005167Y011285D01*
X005225Y011227D01*
X006135Y011227D01*
X006193Y011285D01*
X006193Y011868D01*
X006135Y011927D01*
X005860Y011927D01*
X005860Y012410D01*
X006273Y012410D01*
X006331Y012468D01*
X006331Y013102D01*
X006276Y013157D01*
X006488Y013157D01*
X006738Y013407D01*
X006820Y013489D01*
X006820Y014239D01*
X006988Y014407D01*
X007488Y014407D01*
X007491Y014410D01*
X007594Y014367D01*
X007766Y014367D01*
X007924Y014433D01*
X007978Y014487D01*
X008094Y014440D01*
X008540Y014440D01*
X008540Y014155D01*
X008094Y014155D01*
X007978Y014107D01*
X007924Y014162D01*
X007766Y014227D01*
X007594Y014227D01*
X007436Y014162D01*
X007315Y014041D01*
X007250Y013883D01*
X007250Y013712D01*
X007315Y013553D01*
X007436Y013433D01*
X007594Y013367D01*
X007766Y013367D01*
X007924Y013433D01*
X007978Y013487D01*
X008094Y013440D01*
X008540Y013440D01*
X008540Y013155D01*
X008094Y013155D01*
X007978Y013107D01*
X007924Y013162D01*
X007766Y013227D01*
X007594Y013227D01*
X007436Y013162D01*
X007315Y013041D01*
X007250Y012883D01*
X007250Y012712D01*
X007315Y012553D01*
X007436Y012433D01*
X007594Y012367D01*
X007766Y012367D01*
X007924Y012433D01*
X007978Y012487D01*
X008094Y012440D01*
X008540Y012440D01*
X008540Y012155D01*
X008094Y012155D01*
X007978Y012107D01*
X007924Y012162D01*
X007766Y012227D01*
X007594Y012227D01*
X007436Y012162D01*
X007315Y012041D01*
X007250Y011883D01*
X007250Y011712D01*
X007315Y011553D01*
X007436Y011433D01*
X007594Y011367D01*
X007766Y011367D01*
X007924Y011433D01*
X007978Y011487D01*
X008094Y011440D01*
X008540Y011440D01*
X008540Y011195D01*
X008126Y011195D01*
X008049Y011179D01*
X007988Y011154D01*
X007986Y011156D01*
X007926Y011199D01*
X007860Y011233D01*
X007790Y011255D01*
X007720Y011267D01*
X007720Y010837D01*
X007768Y010837D01*
X007768Y010836D01*
X007768Y010836D01*
X008540Y010836D01*
X008540Y010758D01*
X007768Y010758D01*
X007768Y010757D01*
X007720Y010757D01*
X007720Y010328D01*
X007790Y010339D01*
X007860Y010361D01*
X007926Y010395D01*
X007986Y010439D01*
X007988Y010440D01*
X008049Y010415D01*
X008126Y010400D01*
X008540Y010400D01*
X008540Y010155D01*
X008094Y010155D01*
X007978Y010107D01*
X007924Y010162D01*
X007766Y010227D01*
X007594Y010227D01*
X007436Y010162D01*
X007315Y010041D01*
X007250Y009883D01*
X007250Y009712D01*
X007315Y009553D01*
X007436Y009433D01*
X007594Y009367D01*
X007766Y009367D01*
X007924Y009433D01*
X007978Y009487D01*
X008094Y009440D01*
X008540Y009440D01*
X008540Y009155D01*
X008094Y009155D01*
X007978Y009107D01*
X007924Y009162D01*
X007766Y009227D01*
X007594Y009227D01*
X007436Y009162D01*
X007315Y009041D01*
X007250Y008883D01*
X007250Y008712D01*
X007315Y008553D01*
X007436Y008433D01*
X007594Y008367D01*
X007766Y008367D01*
X007924Y008433D01*
X007978Y008487D01*
X008094Y008440D01*
X008540Y008440D01*
X008540Y008155D01*
X008540Y008214D02*
X007798Y008214D01*
X007774Y008371D02*
X008540Y008371D01*
X008540Y008292D02*
X006247Y008292D01*
X006279Y007978D02*
X004030Y007978D01*
X004030Y007900D02*
X006278Y007900D01*
X006277Y007821D02*
X004030Y007821D01*
X004131Y007743D02*
X004150Y007743D01*
X004054Y008057D02*
X006027Y008057D01*
X005930Y007743D02*
X005850Y007743D01*
X005850Y007664D02*
X005930Y007664D01*
X005930Y007586D02*
X005850Y007586D01*
X005850Y007507D02*
X005930Y007507D01*
X005930Y007429D02*
X005850Y007429D01*
X005850Y007350D02*
X005930Y007350D01*
X005930Y007272D02*
X005850Y007272D01*
X005850Y007115D02*
X005930Y007115D01*
X005930Y007036D02*
X005850Y007036D01*
X005850Y006958D02*
X005930Y006958D01*
X005930Y006879D02*
X005850Y006879D01*
X005850Y006801D02*
X005930Y006801D01*
X005930Y006722D02*
X005850Y006722D01*
X005850Y006644D02*
X005930Y006644D01*
X005930Y006565D02*
X005850Y006565D01*
X005632Y006565D02*
X005530Y006565D01*
X005530Y006487D02*
X007660Y006487D01*
X007660Y006565D02*
X006148Y006565D01*
X006430Y006962D02*
X006390Y007172D01*
X006410Y007227D02*
X006430Y006962D01*
X006410Y007227D02*
X006420Y008107D01*
X005200Y008397D01*
X005294Y008135D02*
X005697Y008135D01*
X005917Y008371D02*
X007586Y008371D01*
X007562Y008214D02*
X006519Y008214D01*
X006567Y008135D02*
X007410Y008135D01*
X007331Y008057D02*
X006559Y008057D01*
X006559Y007978D02*
X007290Y007978D01*
X007257Y007900D02*
X006558Y007900D01*
X006557Y007821D02*
X007250Y007821D01*
X007250Y007743D02*
X006631Y007743D01*
X006667Y007664D02*
X007270Y007664D01*
X007302Y007586D02*
X006667Y007586D01*
X006667Y007507D02*
X007362Y007507D01*
X007446Y007429D02*
X006667Y007429D01*
X006667Y007350D02*
X008540Y007350D01*
X008540Y007272D02*
X006667Y007272D01*
X006667Y007193D02*
X008540Y007193D01*
X008540Y007115D02*
X006667Y007115D01*
X006667Y007036D02*
X008540Y007036D01*
X008540Y006958D02*
X006667Y006958D01*
X006667Y006879D02*
X008540Y006879D01*
X008540Y007429D02*
X007914Y007429D01*
X007682Y006801D02*
X006667Y006801D01*
X006667Y006722D02*
X007660Y006722D01*
X007660Y006644D02*
X006667Y006644D01*
X006720Y005623D02*
X003060Y005623D01*
X003060Y005545D02*
X006584Y005545D01*
X006528Y005466D02*
X003060Y005466D01*
X003060Y005388D02*
X006502Y005388D01*
X006502Y005309D02*
X003060Y005309D01*
X003060Y005231D02*
X006527Y005231D01*
X006582Y005152D02*
X003060Y005152D01*
X003060Y005074D02*
X006714Y005074D01*
X006846Y005074D02*
X007660Y005074D01*
X007660Y005152D02*
X006978Y005152D01*
X006976Y005545D02*
X007660Y005545D01*
X007660Y005623D02*
X006840Y005623D01*
X006808Y004603D02*
X003060Y004603D01*
X003060Y004681D02*
X007660Y004681D01*
X007660Y004603D02*
X006932Y004603D01*
X006674Y004524D02*
X003060Y004524D01*
X003060Y004446D02*
X006618Y004446D01*
X006592Y004367D02*
X003060Y004367D01*
X003060Y004289D02*
X006592Y004289D01*
X006617Y004210D02*
X003060Y004210D01*
X003060Y004132D02*
X006672Y004132D01*
X006805Y004053D02*
X003060Y004053D01*
X003060Y003975D02*
X007660Y003975D01*
X007660Y004053D02*
X006935Y004053D01*
X006891Y003739D02*
X007660Y003739D01*
X007660Y003661D02*
X006994Y003661D01*
X006846Y003268D02*
X007202Y003268D01*
X007580Y003397D02*
X008560Y003337D01*
X008540Y003837D02*
X007719Y003837D01*
X008540Y003837D01*
X008540Y003837D01*
X008540Y004837D02*
X007719Y004837D01*
X008540Y004837D01*
X008540Y004837D01*
X008560Y005337D02*
X007630Y005347D01*
X007660Y004995D02*
X003060Y004995D01*
X003060Y004917D02*
X007660Y004917D01*
X007718Y004838D02*
X003060Y004838D01*
X003060Y004760D02*
X007660Y004760D01*
X007660Y003896D02*
X007719Y003837D01*
X007660Y003582D02*
X007557Y003582D01*
X007660Y003190D02*
X002777Y003190D01*
X002833Y003268D02*
X006594Y003268D01*
X006497Y003347D02*
X002892Y003347D01*
X002951Y003425D02*
X006457Y003425D01*
X006442Y003504D02*
X002976Y003504D01*
X003008Y003582D02*
X006446Y003582D01*
X006478Y003661D02*
X003048Y003661D01*
X003071Y003739D02*
X006549Y003739D01*
X005622Y006016D02*
X007660Y006016D01*
X007660Y006094D02*
X005657Y006094D01*
X005668Y006173D02*
X007660Y006173D01*
X007660Y006251D02*
X005660Y006251D01*
X005628Y006330D02*
X007660Y006330D01*
X007660Y006408D02*
X005552Y006408D01*
X005390Y006177D02*
X005390Y006882D01*
X005390Y007172D01*
X005150Y007743D02*
X005131Y007743D01*
X005106Y008135D02*
X004117Y008135D01*
X004181Y008214D02*
X004990Y008214D01*
X004942Y008292D02*
X004244Y008292D01*
X004308Y008371D02*
X004922Y008371D01*
X004922Y008449D02*
X004372Y008449D01*
X004435Y008528D02*
X004953Y008528D01*
X005016Y008606D02*
X004499Y008606D01*
X004562Y008685D02*
X007261Y008685D01*
X007250Y008763D02*
X004626Y008763D01*
X004689Y008842D02*
X007250Y008842D01*
X007266Y008920D02*
X004753Y008920D01*
X004700Y009077D02*
X005900Y009077D01*
X006030Y009397D01*
X006174Y009156D02*
X007430Y009156D01*
X007352Y009077D02*
X006051Y009077D01*
X006020Y008999D02*
X007298Y008999D01*
X007294Y008606D02*
X005384Y008606D01*
X005447Y008528D02*
X007341Y008528D01*
X007420Y008449D02*
X005587Y008449D01*
X005480Y009397D02*
X004530Y009397D01*
X003390Y008007D01*
X003390Y007172D01*
X003113Y007193D02*
X003060Y007193D01*
X003060Y007115D02*
X003113Y007115D01*
X003113Y007036D02*
X003060Y007036D01*
X003060Y006958D02*
X003113Y006958D01*
X003113Y006879D02*
X003060Y006879D01*
X003060Y006801D02*
X003113Y006801D01*
X003113Y006722D02*
X003060Y006722D01*
X003060Y006644D02*
X003113Y006644D01*
X003060Y006565D02*
X004240Y006565D01*
X004240Y006487D02*
X003060Y006487D01*
X003060Y006408D02*
X004240Y006408D01*
X004209Y006330D02*
X003060Y006330D01*
X003060Y006251D02*
X004139Y006251D01*
X004106Y006173D02*
X003060Y006173D01*
X003060Y006094D02*
X004102Y006094D01*
X004117Y006016D02*
X003060Y006016D01*
X003060Y005937D02*
X004157Y005937D01*
X004253Y005859D02*
X003060Y005859D01*
X003060Y005780D02*
X007662Y005780D01*
X007660Y005702D02*
X003060Y005702D01*
X002700Y005702D02*
X001820Y005702D01*
X001820Y005738D02*
X001785Y005773D01*
X001806Y005785D01*
X001832Y005811D01*
X001850Y005843D01*
X001860Y005879D01*
X001860Y006257D01*
X000960Y006257D01*
X000960Y006337D01*
X001860Y006337D01*
X001860Y006715D01*
X001850Y006751D01*
X001832Y006783D01*
X001806Y006809D01*
X001774Y006828D01*
X001738Y006837D01*
X000960Y006837D01*
X000960Y006337D01*
X000880Y006337D01*
X000880Y006837D01*
X000820Y006837D01*
X000820Y007440D01*
X001266Y007440D01*
X001382Y007487D01*
X001436Y007433D01*
X001594Y007367D01*
X001766Y007367D01*
X001924Y007433D01*
X002045Y007553D01*
X002110Y007712D01*
X002110Y007883D01*
X002045Y008041D01*
X001924Y008162D01*
X001766Y008227D01*
X001594Y008227D01*
X001436Y008162D01*
X001382Y008107D01*
X001266Y008155D01*
X000820Y008155D01*
X000820Y008400D01*
X001234Y008400D01*
X001311Y008415D01*
X001372Y008440D01*
X001374Y008439D01*
X001434Y008395D01*
X001500Y008361D01*
X001570Y008339D01*
X001640Y008328D01*
X001640Y008757D01*
X001720Y008757D01*
X001720Y008328D01*
X001790Y008339D01*
X001860Y008361D01*
X001926Y008395D01*
X001986Y008439D01*
X002038Y008491D01*
X002082Y008551D01*
X002116Y008617D01*
X002138Y008687D01*
X002150Y008757D01*
X001720Y008757D01*
X001720Y008837D01*
X002150Y008837D01*
X002138Y008907D01*
X002116Y008977D01*
X002082Y009043D01*
X002038Y009103D01*
X001986Y009156D01*
X002700Y009156D01*
X002700Y009234D02*
X001856Y009234D01*
X001860Y009233D02*
X001790Y009255D01*
X001720Y009267D01*
X001720Y008837D01*
X001640Y008837D01*
X001640Y008757D01*
X001592Y008757D01*
X001592Y008758D01*
X001592Y008758D01*
X000820Y008758D01*
X000820Y008836D01*
X001592Y008836D01*
X001592Y008837D01*
X001640Y008837D01*
X001640Y009267D01*
X001570Y009255D01*
X001500Y009233D01*
X001434Y009199D01*
X001374Y009156D01*
X001368Y009156D01*
X001372Y009154D02*
X001311Y009179D01*
X001234Y009195D01*
X000820Y009195D01*
X000820Y009440D01*
X001266Y009440D01*
X001382Y009487D01*
X001436Y009433D01*
X001594Y009367D01*
X001766Y009367D01*
X001924Y009433D01*
X002045Y009553D01*
X002110Y009712D01*
X002110Y009883D01*
X002045Y010041D01*
X001924Y010162D01*
X001766Y010227D01*
X001594Y010227D01*
X001436Y010162D01*
X001382Y010107D01*
X001266Y010155D01*
X000820Y010155D01*
X000820Y010440D01*
X001266Y010440D01*
X001382Y010487D01*
X001436Y010433D01*
X001594Y010367D01*
X001766Y010367D01*
X001924Y010433D01*
X002045Y010553D01*
X002110Y010712D01*
X002110Y010883D01*
X002045Y011041D01*
X001924Y011162D01*
X001766Y011227D01*
X001594Y011227D01*
X001436Y011162D01*
X001382Y011107D01*
X001266Y011155D01*
X000820Y011155D01*
X000820Y011440D01*
X001266Y011440D01*
X001382Y011487D01*
X001436Y011433D01*
X001594Y011367D01*
X001766Y011367D01*
X001924Y011433D01*
X002045Y011553D01*
X002110Y011712D01*
X002110Y011883D01*
X002045Y012041D01*
X001924Y012162D01*
X001766Y012227D01*
X001594Y012227D01*
X001436Y012162D01*
X001382Y012107D01*
X001266Y012155D01*
X000820Y012155D01*
X000820Y012440D01*
X001266Y012440D01*
X001382Y012487D01*
X001436Y012433D01*
X001594Y012367D01*
X001766Y012367D01*
X001924Y012433D01*
X002045Y012553D01*
X002110Y012712D01*
X002110Y012883D01*
X002045Y013041D01*
X001924Y013162D01*
X001766Y013227D01*
X001594Y013227D01*
X001436Y013162D01*
X001382Y013107D01*
X001266Y013155D01*
X000820Y013155D01*
X000820Y013440D01*
X001266Y013440D01*
X001382Y013487D01*
X001436Y013433D01*
X001594Y013367D01*
X001766Y013367D01*
X001924Y013433D01*
X002045Y013553D01*
X002110Y013712D01*
X002110Y013883D01*
X002045Y014041D01*
X001924Y014162D01*
X001766Y014227D01*
X001594Y014227D01*
X001436Y014162D01*
X001382Y014107D01*
X001266Y014155D01*
X000820Y014155D01*
X000820Y014440D01*
X001266Y014440D01*
X001382Y014487D01*
X001436Y014433D01*
X001594Y014367D01*
X001766Y014367D01*
X001924Y014433D01*
X002045Y014553D01*
X002110Y014712D01*
X002110Y014883D01*
X002045Y015041D01*
X001924Y015162D01*
X001766Y015227D01*
X001594Y015227D01*
X001436Y015162D01*
X001382Y015107D01*
X001266Y015155D01*
X000820Y015155D01*
X000820Y015440D01*
X001266Y015440D01*
X001382Y015487D01*
X001436Y015433D01*
X001594Y015367D01*
X001766Y015367D01*
X001924Y015433D01*
X002045Y015553D01*
X002110Y015712D01*
X002110Y015883D01*
X002045Y016041D01*
X001924Y016162D01*
X001766Y016227D01*
X001594Y016227D01*
X001436Y016162D01*
X001382Y016107D01*
X001266Y016155D01*
X000820Y016155D01*
X000820Y016440D01*
X001266Y016440D01*
X001382Y016487D01*
X001436Y016433D01*
X001594Y016367D01*
X001766Y016367D01*
X001924Y016433D01*
X002045Y016553D01*
X002110Y016712D01*
X002110Y016883D01*
X002045Y017041D01*
X001924Y017162D01*
X001766Y017227D01*
X001594Y017227D01*
X001436Y017162D01*
X001382Y017107D01*
X001266Y017155D01*
X000820Y017155D01*
X000820Y017440D01*
X001266Y017440D01*
X001382Y017487D01*
X001436Y017433D01*
X001594Y017367D01*
X001766Y017367D01*
X001924Y017433D01*
X002045Y017553D01*
X002110Y017712D01*
X003167Y017712D01*
X003167Y017634D02*
X002078Y017634D01*
X002110Y017712D02*
X002110Y017883D01*
X002045Y018041D01*
X001924Y018162D01*
X001766Y018227D01*
X001594Y018227D01*
X001436Y018162D01*
X001382Y018107D01*
X001266Y018155D01*
X000820Y018155D01*
X000820Y018440D01*
X001266Y018440D01*
X001382Y018487D01*
X001436Y018433D01*
X001594Y018367D01*
X001766Y018367D01*
X001924Y018433D01*
X002045Y018553D01*
X002110Y018712D01*
X002110Y018883D01*
X002045Y019041D01*
X001924Y019162D01*
X001766Y019227D01*
X001594Y019227D01*
X001436Y019162D01*
X001382Y019107D01*
X001266Y019155D01*
X000820Y019155D01*
X000820Y019400D01*
X001234Y019400D01*
X001311Y019415D01*
X001372Y019440D01*
X001374Y019439D01*
X001434Y019395D01*
X001500Y019361D01*
X001570Y019339D01*
X001640Y019328D01*
X001640Y019757D01*
X001720Y019757D01*
X001720Y019328D01*
X001790Y019339D01*
X001860Y019361D01*
X001926Y019395D01*
X001986Y019439D01*
X002038Y019491D01*
X002082Y019551D01*
X002116Y019617D01*
X002138Y019687D01*
X002150Y019757D01*
X001720Y019757D01*
X001720Y019837D01*
X002150Y019837D01*
X002138Y019907D01*
X002116Y019977D01*
X002082Y020043D01*
X002038Y020103D01*
X001986Y020156D01*
X001926Y020199D01*
X001860Y020233D01*
X001790Y020255D01*
X001720Y020267D01*
X001720Y019837D01*
X001640Y019837D01*
X001640Y019757D01*
X001592Y019757D01*
X001592Y019758D01*
X001592Y019758D01*
X000820Y019758D01*
X000820Y019836D01*
X001592Y019836D01*
X001592Y019837D01*
X001640Y019837D01*
X001640Y020267D01*
X001570Y020255D01*
X001500Y020233D01*
X001434Y020199D01*
X001374Y020156D01*
X001372Y020154D01*
X001311Y020179D01*
X001234Y020195D01*
X000820Y020195D01*
X000820Y020440D01*
X001266Y020440D01*
X001382Y020487D01*
X001436Y020433D01*
X001594Y020367D01*
X001766Y020367D01*
X001924Y020433D01*
X002045Y020553D01*
X002110Y020712D01*
X002110Y020883D01*
X002045Y021041D01*
X001924Y021162D01*
X001766Y021227D01*
X001594Y021227D01*
X001436Y021162D01*
X001382Y021107D01*
X001266Y021155D01*
X000820Y021155D01*
X000820Y021440D01*
X001266Y021440D01*
X001382Y021487D01*
X001436Y021433D01*
X001594Y021367D01*
X001766Y021367D01*
X001924Y021433D01*
X002045Y021553D01*
X002087Y021657D01*
X004161Y021657D01*
X005168Y021373D01*
X005150Y021373D01*
X005114Y021364D01*
X005082Y021345D01*
X005056Y021319D01*
X005038Y021287D01*
X005028Y021252D01*
X005028Y021036D01*
X005287Y021036D01*
X005287Y020958D01*
X005364Y020958D01*
X005364Y020621D01*
X005460Y020621D01*
X005460Y020454D01*
X005457Y020424D01*
X005287Y020424D01*
X005287Y020049D01*
X005207Y020049D01*
X005207Y020424D01*
X004992Y020424D01*
X004957Y020415D01*
X004925Y020396D01*
X004899Y020370D01*
X004880Y020338D01*
X004871Y020303D01*
X004871Y020049D01*
X005207Y020049D01*
X005207Y019969D01*
X004871Y019969D01*
X004871Y019900D01*
X004838Y019933D01*
X004735Y019975D01*
X004625Y019975D01*
X004522Y019933D01*
X004455Y019865D01*
X004449Y019871D01*
X004449Y020326D01*
X004391Y020384D01*
X004253Y020384D01*
X004253Y020681D01*
X004292Y020719D01*
X004292Y021275D01*
X004233Y021333D01*
X003835Y021333D01*
X003777Y021275D01*
X003777Y020719D01*
X003835Y020661D01*
X003973Y020661D01*
X003973Y020384D01*
X003835Y020384D01*
X003777Y020326D01*
X003777Y019692D01*
X003835Y019633D01*
X004291Y019633D01*
X004367Y019557D01*
X004437Y019557D01*
X004444Y019540D01*
X004522Y019461D01*
X004625Y019419D01*
X004735Y019419D01*
X004838Y019461D01*
X004916Y019540D01*
X004945Y019610D01*
X004957Y019603D01*
X004981Y019596D01*
X004939Y019596D01*
X004981Y019596D02*
X004772Y019387D01*
X004690Y019305D01*
X004690Y016955D01*
X004553Y016818D01*
X004535Y016825D01*
X004425Y016825D01*
X004322Y016783D01*
X004244Y016705D01*
X004202Y016602D01*
X004202Y016492D01*
X004244Y016390D01*
X004322Y016311D01*
X004425Y016269D01*
X004535Y016269D01*
X004638Y016311D01*
X004716Y016390D01*
X004758Y016492D01*
X004758Y016602D01*
X004751Y016620D01*
X004970Y016839D01*
X004970Y019189D01*
X005029Y019248D01*
X005029Y018668D01*
X005087Y018610D01*
X005449Y018610D01*
X005394Y018555D01*
X005352Y018452D01*
X005352Y018342D01*
X005394Y018240D01*
X005472Y018161D01*
X005500Y018150D01*
X005500Y017927D01*
X005225Y017927D01*
X005167Y017868D01*
X005167Y017285D01*
X005225Y017227D01*
X006135Y017227D01*
X006193Y017285D01*
X006193Y017868D01*
X006135Y017927D01*
X005860Y017927D01*
X005860Y018234D01*
X005866Y018240D01*
X005908Y018342D01*
X005908Y018452D01*
X005866Y018555D01*
X005860Y018560D01*
X005860Y018610D01*
X006199Y018610D01*
X006144Y018555D01*
X006102Y018452D01*
X006102Y018342D01*
X006144Y018240D01*
X006222Y018161D01*
X006325Y018119D01*
X006435Y018119D01*
X006538Y018161D01*
X006552Y018176D01*
X006552Y018142D01*
X006594Y018040D01*
X006672Y017961D01*
X006775Y017919D01*
X006885Y017919D01*
X006988Y017961D01*
X007066Y018040D01*
X007108Y018142D01*
X007108Y018252D01*
X007066Y018355D01*
X006988Y018433D01*
X006970Y018440D01*
X006970Y018852D01*
X007053Y018969D01*
X007135Y018969D01*
X007238Y019011D01*
X007316Y019090D01*
X007358Y019192D01*
X007358Y019302D01*
X007316Y019405D01*
X007238Y019483D01*
X007135Y019525D01*
X007025Y019525D01*
X006922Y019483D01*
X006844Y019405D01*
X006802Y019302D01*
X006802Y019192D01*
X006826Y019133D01*
X006723Y018988D01*
X006690Y018955D01*
X006690Y018942D01*
X006682Y018931D01*
X006690Y018885D01*
X006690Y018440D01*
X006672Y018433D01*
X006658Y018418D01*
X006658Y018452D01*
X006616Y018555D01*
X006538Y018633D01*
X006520Y018640D01*
X006520Y019305D01*
X006529Y019318D01*
X006520Y019361D01*
X006520Y019405D01*
X006509Y019416D01*
X006506Y019431D01*
X006469Y019456D01*
X006438Y019487D01*
X006422Y019487D01*
X006319Y019556D01*
X006288Y019587D01*
X006272Y019587D01*
X006259Y019596D01*
X006216Y019587D01*
X005961Y019587D01*
X005935Y019633D01*
X006391Y019633D01*
X006414Y019657D01*
X007273Y019657D01*
X007315Y019553D01*
X007436Y019433D01*
X007594Y019367D01*
X007766Y019367D01*
X007924Y019433D01*
X007978Y019487D01*
X008094Y019440D01*
X008540Y019440D01*
X008540Y019155D01*
X008094Y019155D01*
X007978Y019107D01*
X007924Y019162D01*
X007766Y019227D01*
X007594Y019227D01*
X007436Y019162D01*
X007315Y019041D01*
X007250Y018883D01*
X007250Y018712D01*
X007315Y018553D01*
X007436Y018433D01*
X007594Y018367D01*
X007766Y018367D01*
X007924Y018433D01*
X007978Y018487D01*
X008094Y018440D01*
X008540Y018440D01*
X008540Y018155D01*
X008094Y018155D01*
X007978Y018107D01*
X007924Y018162D01*
X007766Y018227D01*
X007594Y018227D01*
X007436Y018162D01*
X007315Y018041D01*
X007250Y017883D01*
X007250Y017712D01*
X006193Y017712D01*
X006193Y017634D02*
X007282Y017634D01*
X007250Y017712D02*
X007315Y017553D01*
X007436Y017433D01*
X007594Y017367D01*
X007766Y017367D01*
X007924Y017433D01*
X007978Y017487D01*
X008094Y017440D01*
X008540Y017440D01*
X008540Y017155D01*
X008094Y017155D01*
X007978Y017107D01*
X007924Y017162D01*
X007766Y017227D01*
X007594Y017227D01*
X007436Y017162D01*
X007315Y017041D01*
X007250Y016883D01*
X007250Y016712D01*
X007315Y016553D01*
X007436Y016433D01*
X007594Y016367D01*
X007766Y016367D01*
X007924Y016433D01*
X007978Y016487D01*
X008094Y016440D01*
X008540Y016440D01*
X008540Y016155D01*
X008094Y016155D01*
X007978Y016107D01*
X007924Y016162D01*
X007766Y016227D01*
X007594Y016227D01*
X007436Y016162D01*
X007315Y016041D01*
X007250Y015883D01*
X007250Y015860D01*
X006655Y015686D01*
X006612Y015682D01*
X006601Y015670D01*
X006585Y015665D01*
X006564Y015627D01*
X006139Y015133D01*
X005835Y015133D01*
X005777Y015075D01*
X005777Y014519D01*
X005835Y014461D01*
X005973Y014461D01*
X005973Y014184D01*
X005835Y014184D01*
X005777Y014126D01*
X005777Y013492D01*
X005832Y013437D01*
X005585Y013437D01*
X005595Y013447D01*
X005614Y013479D01*
X005623Y013515D01*
X005623Y013769D01*
X005287Y013769D01*
X005287Y013849D01*
X005207Y013849D01*
X005207Y014224D01*
X004992Y014224D01*
X004957Y014215D01*
X004925Y014196D01*
X004899Y014170D01*
X004880Y014138D01*
X004871Y014103D01*
X004871Y013849D01*
X005207Y013849D01*
X005207Y013769D01*
X004871Y013769D01*
X004871Y013554D01*
X004820Y013605D01*
X004820Y013855D01*
X004738Y013937D01*
X004449Y013937D01*
X004449Y014126D01*
X004391Y014184D01*
X004174Y014184D01*
X004174Y014461D01*
X004233Y014461D01*
X004292Y014519D01*
X004292Y014711D01*
X004320Y014739D01*
X004320Y014855D01*
X004292Y014883D01*
X004292Y015075D01*
X004233Y015133D01*
X003835Y015133D01*
X003777Y015075D01*
X003777Y014519D01*
X003835Y014461D01*
X003894Y014461D01*
X003894Y014184D01*
X003835Y014184D01*
X003777Y014126D01*
X003777Y013492D01*
X003832Y013437D01*
X003585Y013437D01*
X003595Y013447D01*
X003614Y013479D01*
X003623Y013515D01*
X003623Y013769D01*
X003287Y013769D01*
X003287Y013849D01*
X003207Y013849D01*
X003207Y014224D01*
X002992Y014224D01*
X002957Y014215D01*
X002925Y014196D01*
X002899Y014170D01*
X002880Y014138D01*
X002871Y014103D01*
X002871Y013849D01*
X003207Y013849D01*
X003207Y013769D01*
X002871Y013769D01*
X002871Y013515D01*
X002876Y013494D01*
X002838Y013533D01*
X002735Y013575D01*
X002625Y013575D01*
X002522Y013533D01*
X002444Y013455D01*
X002402Y013352D01*
X002402Y013242D01*
X002444Y013140D01*
X002522Y013061D01*
X002625Y013019D01*
X002735Y013019D01*
X002838Y013061D01*
X002916Y013140D01*
X002919Y013147D01*
X002992Y013147D01*
X003002Y013157D01*
X003084Y013157D01*
X003029Y013102D01*
X003029Y012468D01*
X003052Y012445D01*
X002955Y012445D01*
X002852Y012403D01*
X002774Y012325D01*
X002732Y012222D01*
X002732Y012112D01*
X002774Y012010D01*
X002852Y011931D01*
X002955Y011889D01*
X003065Y011889D01*
X003168Y011931D01*
X003246Y012010D01*
X003258Y012040D01*
X003376Y012067D01*
X003384Y012063D01*
X003448Y012083D01*
X003500Y012095D01*
X003500Y011927D01*
X003225Y011927D01*
X003167Y011868D01*
X003167Y011285D01*
X003225Y011227D01*
X004135Y011227D01*
X004193Y011285D01*
X004193Y011868D01*
X004135Y011927D01*
X003860Y011927D01*
X003860Y012304D01*
X003874Y012331D01*
X003860Y012375D01*
X003860Y012410D01*
X004273Y012410D01*
X004331Y012468D01*
X004331Y013102D01*
X004276Y013157D01*
X004372Y013157D01*
X004540Y012989D01*
X004540Y012540D01*
X004522Y012533D01*
X004444Y012455D01*
X004402Y012352D01*
X004402Y012242D01*
X004444Y012140D01*
X004522Y012061D01*
X004625Y012019D01*
X004735Y012019D01*
X004838Y012061D01*
X004916Y012140D01*
X004958Y012242D01*
X004958Y012352D01*
X004916Y012455D01*
X004838Y012533D01*
X004820Y012540D01*
X004820Y013105D01*
X004738Y013187D01*
X004488Y013437D01*
X004394Y013437D01*
X004449Y013492D01*
X004449Y013657D01*
X004540Y013657D01*
X004540Y013489D01*
X004622Y013407D01*
X004872Y013157D01*
X005084Y013157D01*
X005029Y013102D01*
X005029Y012468D01*
X005087Y012410D01*
X005500Y012410D01*
X005500Y011927D01*
X005225Y011927D01*
X005167Y011868D01*
X005167Y011727D01*
X004855Y011727D01*
X004750Y011622D01*
X004305Y011177D01*
X003597Y011177D01*
X003592Y011182D01*
X003524Y011177D01*
X003455Y011177D01*
X003450Y011172D01*
X003443Y011171D01*
X003398Y011120D01*
X003350Y011072D01*
X003350Y011064D01*
X002748Y010370D01*
X002700Y010322D01*
X002700Y010314D01*
X002695Y010309D01*
X002700Y010241D01*
X002700Y005360D01*
X002686Y005395D01*
X002608Y005473D01*
X002505Y005515D01*
X002395Y005515D01*
X002292Y005473D01*
X002241Y005422D01*
X001909Y005429D01*
X001891Y005411D01*
X001820Y005415D01*
X001820Y005738D01*
X001797Y005780D02*
X002700Y005780D01*
X002700Y005859D02*
X001855Y005859D01*
X001860Y005937D02*
X002700Y005937D01*
X002700Y006016D02*
X001860Y006016D01*
X001860Y006094D02*
X002700Y006094D01*
X002700Y006173D02*
X001860Y006173D01*
X001860Y006251D02*
X002700Y006251D01*
X002700Y006330D02*
X000960Y006330D01*
X000960Y006408D02*
X000880Y006408D01*
X000880Y006487D02*
X000960Y006487D01*
X000960Y006565D02*
X000880Y006565D01*
X000880Y006644D02*
X000960Y006644D01*
X000960Y006722D02*
X000880Y006722D01*
X000880Y006801D02*
X000960Y006801D01*
X000820Y006879D02*
X002700Y006879D01*
X002700Y006801D02*
X001814Y006801D01*
X001858Y006722D02*
X002700Y006722D01*
X002700Y006644D02*
X001860Y006644D01*
X001860Y006565D02*
X002700Y006565D01*
X002700Y006487D02*
X001860Y006487D01*
X001860Y006408D02*
X002700Y006408D01*
X002700Y006958D02*
X000820Y006958D01*
X000820Y007036D02*
X002700Y007036D01*
X002700Y007115D02*
X000820Y007115D01*
X000820Y007193D02*
X002700Y007193D01*
X002700Y007272D02*
X000820Y007272D01*
X000820Y007350D02*
X002700Y007350D01*
X002700Y007429D02*
X001914Y007429D01*
X001998Y007507D02*
X002700Y007507D01*
X002700Y007586D02*
X002058Y007586D01*
X002090Y007664D02*
X002700Y007664D01*
X002700Y007743D02*
X002110Y007743D01*
X002110Y007821D02*
X002700Y007821D01*
X002700Y007900D02*
X002103Y007900D01*
X002070Y007978D02*
X002700Y007978D01*
X002700Y008057D02*
X002029Y008057D01*
X001950Y008135D02*
X002700Y008135D01*
X002700Y008214D02*
X001798Y008214D01*
X001720Y008371D02*
X001640Y008371D01*
X001640Y008449D02*
X001720Y008449D01*
X001720Y008528D02*
X001640Y008528D01*
X001640Y008606D02*
X001720Y008606D01*
X001720Y008685D02*
X001640Y008685D01*
X001640Y008763D02*
X000820Y008763D01*
X000820Y008371D02*
X001482Y008371D01*
X001562Y008214D02*
X000820Y008214D01*
X000820Y008292D02*
X002700Y008292D01*
X002700Y008371D02*
X001878Y008371D01*
X001997Y008449D02*
X002700Y008449D01*
X002700Y008528D02*
X002065Y008528D01*
X002110Y008606D02*
X002700Y008606D01*
X002700Y008685D02*
X002138Y008685D01*
X002149Y008842D02*
X002700Y008842D01*
X002700Y008920D02*
X002134Y008920D01*
X002105Y008999D02*
X002700Y008999D01*
X002700Y009077D02*
X002058Y009077D01*
X001986Y009156D02*
X001926Y009199D01*
X001860Y009233D01*
X001720Y009234D02*
X001640Y009234D01*
X001640Y009156D02*
X001720Y009156D01*
X001720Y009077D02*
X001640Y009077D01*
X001640Y008999D02*
X001720Y008999D01*
X001720Y008920D02*
X001640Y008920D01*
X001640Y008842D02*
X001720Y008842D01*
X001720Y008763D02*
X002700Y008763D01*
X002700Y009313D02*
X000820Y009313D01*
X000820Y009391D02*
X001536Y009391D01*
X001504Y009234D02*
X000820Y009234D01*
X000820Y010176D02*
X001471Y010176D01*
X001487Y010412D02*
X000820Y010412D01*
X000820Y010333D02*
X002711Y010333D01*
X002699Y010255D02*
X000820Y010255D01*
X000820Y011197D02*
X001521Y011197D01*
X001437Y011432D02*
X000820Y011432D01*
X000820Y011354D02*
X003167Y011354D01*
X003167Y011432D02*
X001923Y011432D01*
X002002Y011511D02*
X003167Y011511D01*
X003167Y011589D02*
X002059Y011589D01*
X002092Y011668D02*
X003167Y011668D01*
X003167Y011746D02*
X002110Y011746D01*
X002110Y011825D02*
X003167Y011825D01*
X003202Y011903D02*
X003099Y011903D01*
X003218Y011982D02*
X003500Y011982D01*
X003500Y012060D02*
X003347Y012060D01*
X003044Y012453D02*
X001944Y012453D01*
X002022Y012531D02*
X003029Y012531D01*
X003029Y012610D02*
X002068Y012610D01*
X002100Y012688D02*
X003029Y012688D01*
X003029Y012767D02*
X002110Y012767D01*
X002110Y012845D02*
X003029Y012845D01*
X003029Y012924D02*
X002093Y012924D01*
X002061Y013002D02*
X003029Y013002D01*
X003029Y013081D02*
X002857Y013081D01*
X002930Y013297D02*
X004430Y013297D01*
X004680Y013047D01*
X004680Y012297D01*
X004820Y012610D02*
X005029Y012610D01*
X005029Y012688D02*
X004820Y012688D01*
X004820Y012767D02*
X005029Y012767D01*
X005029Y012845D02*
X004820Y012845D01*
X004820Y012924D02*
X005029Y012924D01*
X005029Y013002D02*
X004820Y013002D01*
X004820Y013081D02*
X005029Y013081D01*
X004930Y013297D02*
X004680Y013547D01*
X004680Y013797D01*
X004125Y013797D01*
X004113Y013809D01*
X004034Y013888D01*
X004034Y014797D01*
X004180Y014797D01*
X004320Y014808D02*
X005287Y014808D01*
X005287Y014836D02*
X005287Y014758D01*
X005364Y014758D01*
X005364Y014421D01*
X005502Y014421D01*
X005537Y014430D01*
X005569Y014449D01*
X005595Y014475D01*
X005614Y014507D01*
X005623Y014542D01*
X005623Y014758D01*
X005364Y014758D01*
X005364Y014836D01*
X005287Y014836D01*
X005287Y015173D01*
X005150Y015173D01*
X005114Y015164D01*
X005082Y015145D01*
X005056Y015119D01*
X005038Y015087D01*
X005028Y015052D01*
X005028Y014836D01*
X005287Y014836D01*
X005287Y014886D02*
X005364Y014886D01*
X005364Y014836D02*
X005364Y015173D01*
X005502Y015173D01*
X005537Y015164D01*
X005569Y015145D01*
X005595Y015119D01*
X005614Y015087D01*
X005623Y015052D01*
X005623Y014836D01*
X005364Y014836D01*
X005364Y014808D02*
X005777Y014808D01*
X005777Y014886D02*
X005623Y014886D01*
X005623Y014965D02*
X005777Y014965D01*
X005777Y015043D02*
X005623Y015043D01*
X005593Y015122D02*
X005824Y015122D01*
X006034Y014797D02*
X006113Y014718D01*
X006113Y013809D01*
X005973Y014258D02*
X004174Y014258D01*
X004174Y014337D02*
X005973Y014337D01*
X005973Y014415D02*
X004174Y014415D01*
X004266Y014494D02*
X005045Y014494D01*
X005038Y014507D02*
X005056Y014475D01*
X005082Y014449D01*
X005114Y014430D01*
X005150Y014421D01*
X005287Y014421D01*
X005287Y014758D01*
X005028Y014758D01*
X005028Y014542D01*
X005038Y014507D01*
X005028Y014572D02*
X004292Y014572D01*
X004292Y014651D02*
X005028Y014651D01*
X005028Y014729D02*
X004310Y014729D01*
X004292Y014886D02*
X005028Y014886D01*
X005028Y014965D02*
X004292Y014965D01*
X004292Y015043D02*
X005028Y015043D01*
X005059Y015122D02*
X004245Y015122D01*
X004522Y015561D02*
X004444Y015640D01*
X004402Y015742D01*
X004402Y015852D01*
X004404Y015857D01*
X004193Y015857D01*
X004193Y015726D01*
X004135Y015668D01*
X003225Y015668D01*
X003167Y015726D01*
X003167Y016309D01*
X003225Y016368D01*
X004135Y016368D01*
X004193Y016309D01*
X004193Y016137D01*
X005167Y016137D01*
X005167Y016309D01*
X005225Y016368D01*
X006135Y016368D01*
X006193Y016309D01*
X006193Y015726D01*
X006135Y015668D01*
X005225Y015668D01*
X005167Y015726D01*
X005167Y015857D01*
X004956Y015857D01*
X004958Y015852D01*
X004958Y015742D01*
X004916Y015640D01*
X004838Y015561D01*
X004735Y015519D01*
X004625Y015519D01*
X004522Y015561D01*
X004491Y015593D02*
X002061Y015593D01*
X002093Y015671D02*
X003222Y015671D01*
X003167Y015750D02*
X002110Y015750D01*
X002110Y015828D02*
X003167Y015828D01*
X003167Y015907D02*
X002100Y015907D01*
X002068Y015985D02*
X003167Y015985D01*
X003167Y016064D02*
X002022Y016064D01*
X001943Y016142D02*
X003167Y016142D01*
X003167Y016221D02*
X001781Y016221D01*
X001791Y016378D02*
X004256Y016378D01*
X004217Y016456D02*
X001947Y016456D01*
X002026Y016535D02*
X004202Y016535D01*
X004206Y016613D02*
X002069Y016613D01*
X002102Y016692D02*
X004239Y016692D01*
X004310Y016770D02*
X002110Y016770D01*
X002110Y016849D02*
X004584Y016849D01*
X004662Y016927D02*
X002092Y016927D01*
X002059Y017006D02*
X004690Y017006D01*
X004690Y017084D02*
X002001Y017084D01*
X001921Y017163D02*
X004690Y017163D01*
X004690Y017241D02*
X004149Y017241D01*
X004135Y017227D02*
X004193Y017285D01*
X004193Y017868D01*
X004135Y017927D01*
X003840Y017927D01*
X003840Y018075D01*
X003928Y018111D01*
X004006Y018190D01*
X004048Y018292D01*
X004048Y018402D01*
X004006Y018505D01*
X003928Y018583D01*
X003863Y018610D01*
X004273Y018610D01*
X004331Y018668D01*
X004331Y019302D01*
X004273Y019361D01*
X003087Y019361D01*
X003029Y019302D01*
X003029Y018668D01*
X003087Y018610D01*
X003500Y018610D01*
X003500Y018519D01*
X003487Y018468D01*
X003500Y018447D01*
X003500Y018422D01*
X003492Y018402D01*
X003492Y018292D01*
X003506Y018257D01*
X003487Y018226D01*
X003520Y018095D01*
X003520Y017927D01*
X003225Y017927D01*
X003167Y017868D01*
X003167Y017285D01*
X003225Y017227D01*
X004135Y017227D01*
X004193Y017320D02*
X004690Y017320D01*
X004690Y017398D02*
X004193Y017398D01*
X004193Y017477D02*
X004690Y017477D01*
X004690Y017555D02*
X004193Y017555D01*
X004193Y017634D02*
X004690Y017634D01*
X004690Y017712D02*
X004193Y017712D01*
X004193Y017791D02*
X004690Y017791D01*
X004690Y017869D02*
X004192Y017869D01*
X003999Y018183D02*
X004690Y018183D01*
X004690Y018105D02*
X003911Y018105D01*
X003840Y018026D02*
X004690Y018026D01*
X004690Y017948D02*
X003840Y017948D01*
X004036Y018262D02*
X004690Y018262D01*
X004690Y018340D02*
X004048Y018340D01*
X004041Y018419D02*
X004690Y018419D01*
X004690Y018497D02*
X004009Y018497D01*
X003935Y018576D02*
X004690Y018576D01*
X004690Y018654D02*
X004317Y018654D01*
X004331Y018733D02*
X004690Y018733D01*
X004690Y018811D02*
X004331Y018811D01*
X004331Y018890D02*
X004690Y018890D01*
X004690Y018968D02*
X004331Y018968D01*
X004331Y019047D02*
X004690Y019047D01*
X004690Y019125D02*
X004331Y019125D01*
X004331Y019204D02*
X004690Y019204D01*
X004690Y019282D02*
X004331Y019282D01*
X004273Y019361D02*
X004746Y019361D01*
X004784Y019439D02*
X004824Y019439D01*
X004894Y019518D02*
X004903Y019518D01*
X005080Y019497D02*
X004830Y019247D01*
X004830Y016897D01*
X004480Y016547D01*
X004608Y016299D02*
X005167Y016299D01*
X005167Y016221D02*
X004193Y016221D01*
X004193Y016299D02*
X004352Y016299D01*
X004193Y016142D02*
X005167Y016142D01*
X005167Y015828D02*
X004958Y015828D01*
X004958Y015750D02*
X005167Y015750D01*
X005222Y015671D02*
X004929Y015671D01*
X004869Y015593D02*
X006534Y015593D01*
X006602Y015671D02*
X006138Y015671D01*
X006193Y015750D02*
X006874Y015750D01*
X006680Y015547D02*
X007534Y015797D01*
X007680Y015797D01*
X007943Y016142D02*
X008064Y016142D01*
X008054Y016456D02*
X007947Y016456D01*
X007791Y016378D02*
X008540Y016378D01*
X008540Y016299D02*
X006193Y016299D01*
X006193Y016221D02*
X007579Y016221D01*
X007569Y016378D02*
X004704Y016378D01*
X004743Y016456D02*
X007413Y016456D01*
X007334Y016535D02*
X004758Y016535D01*
X004754Y016613D02*
X007291Y016613D01*
X007258Y016692D02*
X004823Y016692D01*
X004901Y016770D02*
X007250Y016770D01*
X007250Y016849D02*
X004970Y016849D01*
X004970Y016927D02*
X007268Y016927D01*
X007301Y017006D02*
X004970Y017006D01*
X004970Y017084D02*
X007359Y017084D01*
X007439Y017163D02*
X004970Y017163D01*
X004970Y017241D02*
X005211Y017241D01*
X005167Y017320D02*
X004970Y017320D01*
X004970Y017398D02*
X005167Y017398D01*
X005167Y017477D02*
X004970Y017477D01*
X004970Y017555D02*
X005167Y017555D01*
X005167Y017634D02*
X004970Y017634D01*
X004970Y017712D02*
X005167Y017712D01*
X005167Y017791D02*
X004970Y017791D01*
X004970Y017869D02*
X005168Y017869D01*
X004970Y017948D02*
X005500Y017948D01*
X005500Y018026D02*
X004970Y018026D01*
X004970Y018105D02*
X005500Y018105D01*
X005451Y018183D02*
X004970Y018183D01*
X004970Y018262D02*
X005385Y018262D01*
X005353Y018340D02*
X004970Y018340D01*
X004970Y018419D02*
X005352Y018419D01*
X005370Y018497D02*
X004970Y018497D01*
X004970Y018576D02*
X005415Y018576D01*
X005043Y018654D02*
X004970Y018654D01*
X004970Y018733D02*
X005029Y018733D01*
X005029Y018811D02*
X004970Y018811D01*
X004970Y018890D02*
X005029Y018890D01*
X005029Y018968D02*
X004970Y018968D01*
X004970Y019047D02*
X005029Y019047D01*
X005029Y019125D02*
X004970Y019125D01*
X004985Y019204D02*
X005029Y019204D01*
X005080Y019497D02*
X005480Y019497D01*
X005590Y019597D01*
X005590Y020347D01*
X005600Y020447D01*
X005600Y021397D01*
X004180Y021797D01*
X001680Y021797D01*
X001849Y021402D02*
X005067Y021402D01*
X005060Y021323D02*
X004243Y021323D01*
X004292Y021245D02*
X005028Y021245D01*
X005028Y021166D02*
X004292Y021166D01*
X004292Y021088D02*
X005028Y021088D01*
X005028Y020958D02*
X005028Y020742D01*
X005038Y020707D01*
X005056Y020675D01*
X005082Y020649D01*
X005114Y020630D01*
X005150Y020621D01*
X005287Y020621D01*
X005287Y020958D01*
X005028Y020958D01*
X005028Y020931D02*
X004292Y020931D01*
X004292Y021009D02*
X005287Y021009D01*
X005287Y020931D02*
X005364Y020931D01*
X005364Y020852D02*
X005287Y020852D01*
X005287Y020774D02*
X005364Y020774D01*
X005364Y020695D02*
X005287Y020695D01*
X005287Y020381D02*
X005207Y020381D01*
X005207Y020303D02*
X005287Y020303D01*
X005287Y020224D02*
X005207Y020224D01*
X005207Y020146D02*
X005287Y020146D01*
X005287Y020067D02*
X005207Y020067D01*
X005207Y019989D02*
X004449Y019989D01*
X004449Y020067D02*
X004871Y020067D01*
X004871Y020146D02*
X004449Y020146D01*
X004449Y020224D02*
X004871Y020224D01*
X004871Y020303D02*
X004449Y020303D01*
X004394Y020381D02*
X004909Y020381D01*
X005044Y020695D02*
X004268Y020695D01*
X004253Y020617D02*
X005460Y020617D01*
X005460Y020538D02*
X004253Y020538D01*
X004253Y020460D02*
X005460Y020460D01*
X005760Y019657D02*
X005880Y019447D01*
X006230Y019447D01*
X006380Y019347D01*
X006380Y018397D01*
X006520Y018654D02*
X006690Y018654D01*
X006690Y018576D02*
X006595Y018576D01*
X006640Y018497D02*
X006690Y018497D01*
X006658Y018419D02*
X006658Y018419D01*
X006567Y018105D02*
X005860Y018105D01*
X005860Y018183D02*
X006201Y018183D01*
X006135Y018262D02*
X005875Y018262D01*
X005907Y018340D02*
X006103Y018340D01*
X006102Y018419D02*
X005908Y018419D01*
X005890Y018497D02*
X006120Y018497D01*
X006165Y018576D02*
X005860Y018576D01*
X005860Y018026D02*
X006608Y018026D01*
X006705Y017948D02*
X005860Y017948D01*
X006149Y017241D02*
X008540Y017241D01*
X008540Y017163D02*
X007921Y017163D01*
X007840Y017398D02*
X008540Y017398D01*
X008540Y017320D02*
X006193Y017320D01*
X006193Y017398D02*
X007520Y017398D01*
X007392Y017477D02*
X006193Y017477D01*
X006193Y017555D02*
X007315Y017555D01*
X007250Y017791D02*
X006193Y017791D01*
X006192Y017869D02*
X007250Y017869D01*
X007277Y017948D02*
X006955Y017948D01*
X007052Y018026D02*
X007309Y018026D01*
X007379Y018105D02*
X007093Y018105D01*
X007108Y018183D02*
X007488Y018183D01*
X007470Y018419D02*
X007002Y018419D01*
X006970Y018497D02*
X007372Y018497D01*
X007306Y018576D02*
X006970Y018576D01*
X006970Y018654D02*
X007274Y018654D01*
X007250Y018733D02*
X006970Y018733D01*
X006970Y018811D02*
X007250Y018811D01*
X007253Y018890D02*
X006997Y018890D01*
X007053Y018968D02*
X007285Y018968D01*
X007273Y019047D02*
X007321Y019047D01*
X007331Y019125D02*
X007400Y019125D01*
X007358Y019204D02*
X007538Y019204D01*
X007430Y019439D02*
X007281Y019439D01*
X007334Y019361D02*
X008540Y019361D01*
X008540Y019439D02*
X007930Y019439D01*
X007822Y019204D02*
X008540Y019204D01*
X008540Y019282D02*
X007358Y019282D01*
X007351Y019518D02*
X007154Y019518D01*
X007298Y019596D02*
X005956Y019596D01*
X005760Y019657D02*
X005760Y021357D01*
X006080Y021647D01*
X007530Y021647D01*
X007680Y021797D01*
X007680Y019797D02*
X006325Y019797D01*
X006113Y020009D01*
X006098Y020011D01*
X006083Y020015D01*
X006069Y020022D01*
X006057Y020032D01*
X006047Y020044D01*
X006040Y020058D01*
X006036Y020073D01*
X006034Y020088D01*
X006034Y020997D01*
X006377Y019518D02*
X007006Y019518D01*
X006879Y019439D02*
X006494Y019439D01*
X006520Y019361D02*
X006826Y019361D01*
X006802Y019282D02*
X006520Y019282D01*
X006520Y019204D02*
X006802Y019204D01*
X006821Y019125D02*
X006520Y019125D01*
X006520Y019047D02*
X006765Y019047D01*
X006703Y018968D02*
X006520Y018968D01*
X006520Y018890D02*
X006689Y018890D01*
X006690Y018811D02*
X006520Y018811D01*
X006520Y018733D02*
X006690Y018733D01*
X006830Y018897D02*
X007080Y019247D01*
X006830Y018897D02*
X006830Y018197D01*
X007072Y018340D02*
X008540Y018340D01*
X008540Y018262D02*
X007104Y018262D01*
X007872Y018183D02*
X008540Y018183D01*
X008540Y018419D02*
X007890Y018419D01*
X007960Y019125D02*
X008023Y019125D01*
X007968Y017477D02*
X008005Y017477D01*
X007781Y016221D02*
X008540Y016221D01*
X008540Y014415D02*
X007882Y014415D01*
X007880Y014180D02*
X008540Y014180D01*
X008540Y014258D02*
X006839Y014258D01*
X006820Y014180D02*
X007480Y014180D01*
X007376Y014101D02*
X006820Y014101D01*
X006820Y014023D02*
X007308Y014023D01*
X007275Y013944D02*
X006820Y013944D01*
X006820Y013866D02*
X007250Y013866D01*
X007250Y013787D02*
X006820Y013787D01*
X006820Y013709D02*
X007251Y013709D01*
X007284Y013630D02*
X006820Y013630D01*
X006820Y013552D02*
X007317Y013552D01*
X007396Y013473D02*
X006804Y013473D01*
X006726Y013395D02*
X007528Y013395D01*
X007434Y013159D02*
X006490Y013159D01*
X006569Y013238D02*
X008540Y013238D01*
X008540Y013316D02*
X006647Y013316D01*
X006430Y013297D02*
X006680Y013547D01*
X006680Y014297D01*
X006930Y014547D01*
X007430Y014547D01*
X007680Y014797D01*
X007260Y015907D02*
X006193Y015907D01*
X006193Y015985D02*
X007292Y015985D01*
X007338Y016064D02*
X006193Y016064D01*
X006193Y016142D02*
X007417Y016142D01*
X007142Y015828D02*
X006193Y015828D01*
X006399Y015436D02*
X001927Y015436D01*
X002005Y015514D02*
X006467Y015514D01*
X006332Y015357D02*
X000820Y015357D01*
X000820Y015279D02*
X006264Y015279D01*
X006197Y015200D02*
X001831Y015200D01*
X001964Y015122D02*
X003059Y015122D01*
X003056Y015119D02*
X003038Y015087D01*
X003028Y015052D01*
X003028Y014836D01*
X003287Y014836D01*
X003287Y015173D01*
X003150Y015173D01*
X003114Y015164D01*
X003082Y015145D01*
X003056Y015119D01*
X003028Y015043D02*
X002042Y015043D01*
X002076Y014965D02*
X003028Y014965D01*
X003028Y014886D02*
X002109Y014886D01*
X002110Y014808D02*
X003287Y014808D01*
X003287Y014836D02*
X003287Y014758D01*
X003364Y014758D01*
X003364Y014421D01*
X003502Y014421D01*
X003537Y014430D01*
X003569Y014449D01*
X003595Y014475D01*
X003614Y014507D01*
X003623Y014542D01*
X003623Y014758D01*
X003364Y014758D01*
X003364Y014836D01*
X003287Y014836D01*
X003287Y014886D02*
X003364Y014886D01*
X003364Y014836D02*
X003364Y015173D01*
X003502Y015173D01*
X003537Y015164D01*
X003569Y015145D01*
X003595Y015119D01*
X003614Y015087D01*
X003623Y015052D01*
X003623Y014836D01*
X003364Y014836D01*
X003364Y014808D02*
X003777Y014808D01*
X003777Y014886D02*
X003623Y014886D01*
X003623Y014965D02*
X003777Y014965D01*
X003777Y015043D02*
X003623Y015043D01*
X003593Y015122D02*
X003824Y015122D01*
X003777Y014729D02*
X003623Y014729D01*
X003623Y014651D02*
X003777Y014651D01*
X003777Y014572D02*
X003623Y014572D01*
X003606Y014494D02*
X003803Y014494D01*
X003894Y014415D02*
X001882Y014415D01*
X001985Y014494D02*
X003045Y014494D01*
X003038Y014507D02*
X003056Y014475D01*
X003082Y014449D01*
X003114Y014430D01*
X003150Y014421D01*
X003287Y014421D01*
X003287Y014758D01*
X003028Y014758D01*
X003028Y014542D01*
X003038Y014507D01*
X003028Y014572D02*
X002052Y014572D01*
X002085Y014651D02*
X003028Y014651D01*
X003028Y014729D02*
X002110Y014729D01*
X001880Y014180D02*
X002908Y014180D01*
X002871Y014101D02*
X001984Y014101D01*
X002052Y014023D02*
X002871Y014023D01*
X002871Y013944D02*
X002085Y013944D01*
X002110Y013866D02*
X002871Y013866D01*
X002871Y013709D02*
X002109Y013709D01*
X002110Y013787D02*
X003207Y013787D01*
X003207Y013866D02*
X003287Y013866D01*
X003287Y013849D02*
X003287Y014224D01*
X003502Y014224D01*
X003537Y014215D01*
X003569Y014196D01*
X003595Y014170D01*
X003614Y014138D01*
X003623Y014103D01*
X003623Y013849D01*
X003287Y013849D01*
X003287Y013787D02*
X003777Y013787D01*
X003777Y013709D02*
X003623Y013709D01*
X003623Y013630D02*
X003777Y013630D01*
X003777Y013552D02*
X003623Y013552D01*
X003610Y013473D02*
X003796Y013473D01*
X003777Y013866D02*
X003623Y013866D01*
X003623Y013944D02*
X003777Y013944D01*
X003777Y014023D02*
X003623Y014023D01*
X003623Y014101D02*
X003777Y014101D01*
X003831Y014180D02*
X003586Y014180D01*
X003364Y014494D02*
X003287Y014494D01*
X003287Y014572D02*
X003364Y014572D01*
X003364Y014651D02*
X003287Y014651D01*
X003287Y014729D02*
X003364Y014729D01*
X003364Y014965D02*
X003287Y014965D01*
X003287Y015043D02*
X003364Y015043D01*
X003364Y015122D02*
X003287Y015122D01*
X003287Y014180D02*
X003207Y014180D01*
X003207Y014101D02*
X003287Y014101D01*
X003287Y014023D02*
X003207Y014023D01*
X003207Y013944D02*
X003287Y013944D01*
X002871Y013630D02*
X002076Y013630D01*
X002043Y013552D02*
X002568Y013552D01*
X002463Y013473D02*
X001964Y013473D01*
X001832Y013395D02*
X002419Y013395D01*
X002402Y013316D02*
X000820Y013316D01*
X000820Y013238D02*
X002404Y013238D01*
X002436Y013159D02*
X001926Y013159D01*
X002005Y013081D02*
X002503Y013081D01*
X002792Y013552D02*
X002871Y013552D01*
X002824Y012374D02*
X001783Y012374D01*
X001790Y012217D02*
X002732Y012217D01*
X002732Y012139D02*
X001947Y012139D01*
X002025Y012060D02*
X002753Y012060D01*
X002802Y011982D02*
X002069Y011982D01*
X002102Y011903D02*
X002921Y011903D01*
X002762Y012296D02*
X000820Y012296D01*
X000820Y012374D02*
X001577Y012374D01*
X001570Y012217D02*
X000820Y012217D01*
X000820Y011275D02*
X003177Y011275D01*
X003261Y010961D02*
X002077Y010961D01*
X002045Y011040D02*
X003329Y011040D01*
X003396Y011118D02*
X001967Y011118D01*
X001839Y011197D02*
X004325Y011197D01*
X004403Y011275D02*
X004183Y011275D01*
X004193Y011354D02*
X004482Y011354D01*
X004560Y011432D02*
X004193Y011432D01*
X004193Y011511D02*
X004639Y011511D01*
X004717Y011589D02*
X004193Y011589D01*
X004193Y011668D02*
X004796Y011668D01*
X004835Y012060D02*
X005500Y012060D01*
X005500Y011982D02*
X003860Y011982D01*
X003860Y012060D02*
X004525Y012060D01*
X004445Y012139D02*
X003860Y012139D01*
X003860Y012217D02*
X004412Y012217D01*
X004402Y012296D02*
X003860Y012296D01*
X003860Y012374D02*
X004411Y012374D01*
X004443Y012453D02*
X004316Y012453D01*
X004331Y012531D02*
X004521Y012531D01*
X004540Y012610D02*
X004331Y012610D01*
X004331Y012688D02*
X004540Y012688D01*
X004540Y012767D02*
X004331Y012767D01*
X004331Y012845D02*
X004540Y012845D01*
X004540Y012924D02*
X004331Y012924D01*
X004331Y013002D02*
X004527Y013002D01*
X004448Y013081D02*
X004331Y013081D01*
X004530Y013395D02*
X004634Y013395D01*
X004609Y013316D02*
X004713Y013316D01*
X004687Y013238D02*
X004791Y013238D01*
X004766Y013159D02*
X004870Y013159D01*
X004930Y013297D02*
X006430Y013297D01*
X006331Y013081D02*
X007355Y013081D01*
X007299Y013002D02*
X006331Y013002D01*
X006331Y012924D02*
X007267Y012924D01*
X007250Y012845D02*
X006331Y012845D01*
X006331Y012767D02*
X007250Y012767D01*
X007260Y012688D02*
X006331Y012688D01*
X006331Y012610D02*
X007292Y012610D01*
X007338Y012531D02*
X006331Y012531D01*
X006316Y012453D02*
X007416Y012453D01*
X007577Y012374D02*
X005860Y012374D01*
X005860Y012296D02*
X008540Y012296D01*
X008540Y012374D02*
X007783Y012374D01*
X007790Y012217D02*
X008540Y012217D01*
X008540Y011432D02*
X007923Y011432D01*
X007930Y011197D02*
X008540Y011197D01*
X008540Y011275D02*
X006183Y011275D01*
X006193Y011354D02*
X008540Y011354D01*
X008540Y010804D02*
X007720Y010804D01*
X007720Y010837D02*
X007720Y010757D01*
X007640Y010757D01*
X007640Y010328D01*
X007570Y010339D01*
X007500Y010361D01*
X007434Y010395D01*
X007374Y010439D01*
X007322Y010491D01*
X007278Y010551D01*
X007244Y010617D01*
X007222Y010687D01*
X007210Y010757D01*
X007640Y010757D01*
X007640Y010837D01*
X007210Y010837D01*
X007222Y010907D01*
X007244Y010977D01*
X007278Y011043D01*
X007322Y011103D01*
X007374Y011156D01*
X007434Y011199D01*
X007500Y011233D01*
X007570Y011255D01*
X007640Y011267D01*
X007640Y010837D01*
X007720Y010837D01*
X007720Y010883D02*
X007640Y010883D01*
X007640Y010961D02*
X007720Y010961D01*
X007720Y011040D02*
X007640Y011040D01*
X007640Y011118D02*
X007720Y011118D01*
X007720Y011197D02*
X007640Y011197D01*
X007430Y011197D02*
X004834Y011197D01*
X004913Y011275D02*
X005177Y011275D01*
X005167Y011354D02*
X004991Y011354D01*
X004756Y011118D02*
X007336Y011118D01*
X007276Y011040D02*
X004677Y011040D01*
X004599Y010961D02*
X007239Y010961D01*
X007218Y010883D02*
X004520Y010883D01*
X004444Y010255D02*
X004193Y010255D01*
X004169Y010333D02*
X005191Y010333D01*
X005167Y010255D02*
X004816Y010255D01*
X004930Y010797D02*
X007680Y010797D01*
X007640Y010804D02*
X003601Y010804D01*
X003533Y010726D02*
X007215Y010726D01*
X007235Y010647D02*
X003465Y010647D01*
X003397Y010569D02*
X007269Y010569D01*
X007322Y010490D02*
X003329Y010490D01*
X003261Y010412D02*
X007411Y010412D01*
X007471Y010176D02*
X006193Y010176D01*
X006193Y010098D02*
X007372Y010098D01*
X007307Y010019D02*
X006193Y010019D01*
X006193Y009941D02*
X007274Y009941D01*
X007250Y009862D02*
X006193Y009862D01*
X006193Y009784D02*
X007250Y009784D01*
X007253Y009705D02*
X006172Y009705D01*
X006194Y009627D02*
X007285Y009627D01*
X007321Y009548D02*
X006268Y009548D01*
X006301Y009470D02*
X007399Y009470D01*
X007536Y009391D02*
X006308Y009391D01*
X006296Y009313D02*
X008540Y009313D01*
X008540Y009391D02*
X007824Y009391D01*
X007961Y009470D02*
X008022Y009470D01*
X007930Y009156D02*
X008540Y009156D01*
X008540Y009234D02*
X006260Y009234D01*
X006193Y010255D02*
X008540Y010255D01*
X008540Y010333D02*
X007755Y010333D01*
X007720Y010333D02*
X007640Y010333D01*
X007605Y010333D02*
X006169Y010333D01*
X006193Y011432D02*
X007437Y011432D01*
X007358Y011511D02*
X006193Y011511D01*
X006193Y011589D02*
X007301Y011589D01*
X007268Y011668D02*
X006193Y011668D01*
X006193Y011746D02*
X007250Y011746D01*
X007250Y011825D02*
X006193Y011825D01*
X006158Y011903D02*
X007258Y011903D01*
X007291Y011982D02*
X005860Y011982D01*
X005860Y012060D02*
X007335Y012060D01*
X007413Y012139D02*
X005860Y012139D01*
X005860Y012217D02*
X007570Y012217D01*
X007947Y012139D02*
X008055Y012139D01*
X008063Y012453D02*
X007944Y012453D01*
X007926Y013159D02*
X008540Y013159D01*
X008540Y013395D02*
X007832Y013395D01*
X007964Y013473D02*
X008013Y013473D01*
X008540Y014337D02*
X006918Y014337D01*
X006034Y014797D02*
X006680Y015547D01*
X005803Y014494D02*
X005606Y014494D01*
X005623Y014572D02*
X005777Y014572D01*
X005777Y014651D02*
X005623Y014651D01*
X005623Y014729D02*
X005777Y014729D01*
X005831Y014180D02*
X005586Y014180D01*
X005595Y014170D02*
X005569Y014196D01*
X005537Y014215D01*
X005502Y014224D01*
X005287Y014224D01*
X005287Y013849D01*
X005623Y013849D01*
X005623Y014103D01*
X005614Y014138D01*
X005595Y014170D01*
X005623Y014101D02*
X005777Y014101D01*
X005777Y014023D02*
X005623Y014023D01*
X005623Y013944D02*
X005777Y013944D01*
X005777Y013866D02*
X005623Y013866D01*
X005623Y013709D02*
X005777Y013709D01*
X005777Y013787D02*
X005287Y013787D01*
X005247Y013809D02*
X004759Y014297D01*
X004680Y014297D01*
X004908Y014180D02*
X004396Y014180D01*
X004449Y014101D02*
X004871Y014101D01*
X004871Y014023D02*
X004449Y014023D01*
X004449Y013944D02*
X004871Y013944D01*
X004871Y013866D02*
X004809Y013866D01*
X004820Y013787D02*
X005207Y013787D01*
X005207Y013866D02*
X005287Y013866D01*
X005287Y013944D02*
X005207Y013944D01*
X005207Y014023D02*
X005287Y014023D01*
X005287Y014101D02*
X005207Y014101D01*
X005207Y014180D02*
X005287Y014180D01*
X005287Y014494D02*
X005364Y014494D01*
X005364Y014572D02*
X005287Y014572D01*
X005287Y014651D02*
X005364Y014651D01*
X005364Y014729D02*
X005287Y014729D01*
X005287Y014965D02*
X005364Y014965D01*
X005364Y015043D02*
X005287Y015043D01*
X005287Y015122D02*
X005364Y015122D01*
X005660Y015997D02*
X004730Y015997D01*
X004680Y015947D01*
X004630Y015997D01*
X003700Y015997D01*
X003680Y016018D01*
X004138Y015671D02*
X004431Y015671D01*
X004402Y015750D02*
X004193Y015750D01*
X004193Y015828D02*
X004402Y015828D01*
X003894Y014337D02*
X000820Y014337D01*
X000820Y014415D02*
X001478Y014415D01*
X001480Y014180D02*
X000820Y014180D01*
X000820Y014258D02*
X003894Y014258D01*
X004449Y013630D02*
X004540Y013630D01*
X004540Y013552D02*
X004449Y013552D01*
X004431Y013473D02*
X004556Y013473D01*
X004820Y013630D02*
X004871Y013630D01*
X004871Y013709D02*
X004820Y013709D01*
X004839Y012531D02*
X005029Y012531D01*
X005044Y012453D02*
X004917Y012453D01*
X004949Y012374D02*
X005500Y012374D01*
X005500Y012296D02*
X004958Y012296D01*
X004948Y012217D02*
X005500Y012217D01*
X005500Y012139D02*
X004915Y012139D01*
X005202Y011903D02*
X004158Y011903D01*
X004193Y011825D02*
X005167Y011825D01*
X005167Y011746D02*
X004193Y011746D01*
X004193Y009784D02*
X004539Y009784D01*
X004405Y009470D02*
X003060Y009470D01*
X003060Y009548D02*
X005242Y009548D01*
X005316Y009627D02*
X003060Y009627D01*
X003060Y009705D02*
X003188Y009705D01*
X003167Y009784D02*
X003060Y009784D01*
X003060Y009862D02*
X003167Y009862D01*
X003167Y009941D02*
X003060Y009941D01*
X003060Y010019D02*
X003167Y010019D01*
X003167Y010098D02*
X003060Y010098D01*
X003060Y010176D02*
X003167Y010176D01*
X003167Y010255D02*
X003125Y010255D01*
X002988Y010647D02*
X002083Y010647D01*
X002110Y010726D02*
X003057Y010726D01*
X003125Y010804D02*
X002110Y010804D01*
X002110Y010883D02*
X003193Y010883D01*
X002920Y010569D02*
X002051Y010569D01*
X001981Y010490D02*
X002852Y010490D01*
X002784Y010412D02*
X001873Y010412D01*
X001889Y010176D02*
X002700Y010176D01*
X002700Y010098D02*
X001988Y010098D01*
X002053Y010019D02*
X002700Y010019D01*
X002700Y009941D02*
X002086Y009941D01*
X002110Y009862D02*
X002700Y009862D01*
X002700Y009784D02*
X002110Y009784D01*
X002107Y009705D02*
X002700Y009705D01*
X002700Y009627D02*
X002075Y009627D01*
X002039Y009548D02*
X002700Y009548D01*
X002700Y009470D02*
X001961Y009470D01*
X001824Y009391D02*
X002700Y009391D01*
X003060Y009391D02*
X004344Y009391D01*
X004280Y009313D02*
X003060Y009313D01*
X003060Y009234D02*
X004215Y009234D01*
X004151Y009156D02*
X003060Y009156D01*
X003060Y009077D02*
X004087Y009077D01*
X004022Y008999D02*
X003060Y008999D01*
X003060Y008920D02*
X003958Y008920D01*
X003893Y008842D02*
X003060Y008842D01*
X003060Y008763D02*
X003829Y008763D01*
X003765Y008685D02*
X003060Y008685D01*
X003060Y008606D02*
X003700Y008606D01*
X003636Y008528D02*
X003060Y008528D01*
X003060Y008449D02*
X003571Y008449D01*
X003507Y008371D02*
X003060Y008371D01*
X003060Y008292D02*
X003443Y008292D01*
X003378Y008214D02*
X003060Y008214D01*
X003060Y008135D02*
X003314Y008135D01*
X003250Y008057D02*
X003060Y008057D01*
X003060Y007978D02*
X003250Y007978D01*
X003250Y007900D02*
X003060Y007900D01*
X003060Y007821D02*
X003250Y007821D01*
X003150Y007743D02*
X003060Y007743D01*
X003060Y007664D02*
X003113Y007664D01*
X003113Y007586D02*
X003060Y007586D01*
X003060Y007507D02*
X003113Y007507D01*
X003113Y007429D02*
X003060Y007429D01*
X003060Y007350D02*
X003113Y007350D01*
X003113Y007272D02*
X003060Y007272D01*
X002700Y005623D02*
X001820Y005623D01*
X001820Y005545D02*
X002700Y005545D01*
X002700Y005466D02*
X002614Y005466D01*
X002689Y005388D02*
X002700Y005388D01*
X002286Y005466D02*
X001820Y005466D01*
X001446Y007429D02*
X000820Y007429D01*
X001313Y008135D02*
X001410Y008135D01*
X001592Y008836D02*
X001592Y008836D01*
X001372Y009154D02*
X001374Y009156D01*
X001399Y009470D02*
X001338Y009470D01*
X001354Y011118D02*
X001393Y011118D01*
X001413Y012139D02*
X001305Y012139D01*
X001297Y012453D02*
X001416Y012453D01*
X001434Y013159D02*
X000820Y013159D01*
X000820Y013395D02*
X001528Y013395D01*
X001396Y013473D02*
X001347Y013473D01*
X001346Y015122D02*
X001396Y015122D01*
X001433Y015436D02*
X000820Y015436D01*
X000820Y015200D02*
X001529Y015200D01*
X001417Y016142D02*
X001296Y016142D01*
X001306Y016456D02*
X001413Y016456D01*
X001569Y016378D02*
X000820Y016378D01*
X000820Y016299D02*
X003167Y016299D01*
X003211Y017241D02*
X000820Y017241D01*
X000820Y017163D02*
X001439Y017163D01*
X001520Y017398D02*
X000820Y017398D01*
X000820Y017320D02*
X003167Y017320D01*
X003167Y017398D02*
X001840Y017398D01*
X001968Y017477D02*
X003167Y017477D01*
X003167Y017555D02*
X002045Y017555D01*
X002110Y017791D02*
X003167Y017791D01*
X003168Y017869D02*
X002110Y017869D01*
X002083Y017948D02*
X003520Y017948D01*
X003520Y018026D02*
X002051Y018026D01*
X001981Y018105D02*
X003518Y018105D01*
X003498Y018183D02*
X001872Y018183D01*
X001890Y018419D02*
X003499Y018419D01*
X003500Y018422D02*
X003500Y018422D01*
X003494Y018497D02*
X001988Y018497D01*
X002054Y018576D02*
X003500Y018576D01*
X003492Y018340D02*
X000820Y018340D01*
X000820Y018262D02*
X003504Y018262D01*
X003043Y018654D02*
X002086Y018654D01*
X002110Y018733D02*
X003029Y018733D01*
X003029Y018811D02*
X002110Y018811D01*
X002107Y018890D02*
X003029Y018890D01*
X003029Y018968D02*
X002075Y018968D01*
X002039Y019047D02*
X003029Y019047D01*
X003029Y019125D02*
X001960Y019125D01*
X001822Y019204D02*
X003029Y019204D01*
X003029Y019282D02*
X000820Y019282D01*
X000820Y019204D02*
X001538Y019204D01*
X001502Y019361D02*
X000820Y019361D01*
X000820Y019832D02*
X001640Y019832D01*
X001592Y019836D02*
X001592Y019836D01*
X001640Y019910D02*
X001720Y019910D01*
X001720Y019832D02*
X002871Y019832D01*
X002871Y019910D02*
X002137Y019910D01*
X002110Y019989D02*
X003207Y019989D01*
X003207Y019969D02*
X002871Y019969D01*
X002871Y019715D01*
X002880Y019679D01*
X002899Y019647D01*
X002925Y019621D01*
X002957Y019603D01*
X002992Y019593D01*
X003207Y019593D01*
X003207Y019969D01*
X003207Y020049D01*
X003207Y020424D01*
X002992Y020424D01*
X002957Y020415D01*
X002925Y020396D01*
X002899Y020370D01*
X002880Y020338D01*
X002871Y020303D01*
X002871Y020049D01*
X003207Y020049D01*
X003287Y020049D01*
X003287Y020424D01*
X003502Y020424D01*
X003537Y020415D01*
X003569Y020396D01*
X003595Y020370D01*
X003614Y020338D01*
X003623Y020303D01*
X003623Y020049D01*
X003287Y020049D01*
X003287Y019969D01*
X003623Y019969D01*
X003623Y019715D01*
X003614Y019679D01*
X003595Y019647D01*
X003569Y019621D01*
X003537Y019603D01*
X003502Y019593D01*
X003287Y019593D01*
X003287Y019969D01*
X003207Y019969D01*
X003207Y019910D02*
X003287Y019910D01*
X003287Y019832D02*
X003207Y019832D01*
X003207Y019753D02*
X003287Y019753D01*
X003287Y019675D02*
X003207Y019675D01*
X003207Y019596D02*
X003287Y019596D01*
X003287Y019989D02*
X003777Y019989D01*
X003777Y020067D02*
X003623Y020067D01*
X003623Y020146D02*
X003777Y020146D01*
X003777Y020224D02*
X003623Y020224D01*
X003623Y020303D02*
X003777Y020303D01*
X003832Y020381D02*
X003584Y020381D01*
X003502Y020621D02*
X003537Y020630D01*
X003569Y020649D01*
X003595Y020675D01*
X003614Y020707D01*
X003623Y020742D01*
X003623Y020958D01*
X003364Y020958D01*
X003364Y020621D01*
X003502Y020621D01*
X003364Y020695D02*
X003287Y020695D01*
X003287Y020621D02*
X003287Y020958D01*
X003364Y020958D01*
X003364Y021036D01*
X003287Y021036D01*
X003287Y021373D01*
X003150Y021373D01*
X003114Y021364D01*
X003082Y021345D01*
X003056Y021319D01*
X003038Y021287D01*
X003028Y021252D01*
X003028Y021036D01*
X003287Y021036D01*
X003287Y020958D01*
X003028Y020958D01*
X003028Y020742D01*
X003038Y020707D01*
X003056Y020675D01*
X003082Y020649D01*
X003114Y020630D01*
X003150Y020621D01*
X003287Y020621D01*
X003287Y020774D02*
X003364Y020774D01*
X003364Y020852D02*
X003287Y020852D01*
X003287Y020931D02*
X003364Y020931D01*
X003364Y021009D02*
X003777Y021009D01*
X003777Y020931D02*
X003623Y020931D01*
X003623Y020852D02*
X003777Y020852D01*
X003777Y020774D02*
X003623Y020774D01*
X003607Y020695D02*
X003801Y020695D01*
X003973Y020617D02*
X002071Y020617D01*
X002103Y020695D02*
X003044Y020695D01*
X003028Y020774D02*
X002110Y020774D01*
X002110Y020852D02*
X003028Y020852D01*
X003028Y020931D02*
X002090Y020931D01*
X002058Y021009D02*
X003287Y021009D01*
X003287Y021088D02*
X003364Y021088D01*
X003364Y021036D02*
X003364Y021373D01*
X003502Y021373D01*
X003537Y021364D01*
X003569Y021345D01*
X003595Y021319D01*
X003614Y021287D01*
X003623Y021252D01*
X003623Y021036D01*
X003364Y021036D01*
X003364Y021166D02*
X003287Y021166D01*
X003287Y021245D02*
X003364Y021245D01*
X003364Y021323D02*
X003287Y021323D01*
X003060Y021323D02*
X000820Y021323D01*
X000820Y021245D02*
X003028Y021245D01*
X003028Y021166D02*
X001913Y021166D01*
X001998Y021088D02*
X003028Y021088D01*
X002909Y020381D02*
X001799Y020381D01*
X001877Y020224D02*
X002871Y020224D01*
X002871Y020146D02*
X001996Y020146D01*
X002065Y020067D02*
X002871Y020067D01*
X002871Y020303D02*
X000820Y020303D01*
X000820Y020381D02*
X001561Y020381D01*
X001483Y020224D02*
X000820Y020224D01*
X000820Y021166D02*
X001447Y021166D01*
X001511Y021402D02*
X000820Y021402D01*
X001314Y020460D02*
X001409Y020460D01*
X001640Y020224D02*
X001720Y020224D01*
X001720Y020146D02*
X001640Y020146D01*
X001640Y020067D02*
X001720Y020067D01*
X001720Y019989D02*
X001640Y019989D01*
X001640Y019753D02*
X001720Y019753D01*
X001720Y019675D02*
X001640Y019675D01*
X001640Y019596D02*
X001720Y019596D01*
X001720Y019518D02*
X001640Y019518D01*
X001640Y019439D02*
X001720Y019439D01*
X001720Y019361D02*
X001640Y019361D01*
X001858Y019361D02*
X003087Y019361D01*
X002982Y019596D02*
X002105Y019596D01*
X002134Y019675D02*
X002883Y019675D01*
X002871Y019753D02*
X002149Y019753D01*
X002058Y019518D02*
X004466Y019518D01*
X004576Y019439D02*
X001987Y019439D01*
X001951Y020460D02*
X003973Y020460D01*
X003973Y020538D02*
X002029Y020538D01*
X001971Y021480D02*
X004789Y021480D01*
X004510Y021559D02*
X002047Y021559D01*
X002079Y021637D02*
X004231Y021637D01*
X003825Y021323D02*
X003591Y021323D01*
X003623Y021245D02*
X003777Y021245D01*
X003777Y021166D02*
X003623Y021166D01*
X003623Y021088D02*
X003777Y021088D01*
X004034Y020997D02*
X004049Y020995D01*
X004064Y020991D01*
X004078Y020984D01*
X004090Y020974D01*
X004100Y020962D01*
X004107Y020948D01*
X004111Y020933D01*
X004113Y020918D01*
X004113Y020009D01*
X004425Y019697D01*
X004680Y019697D01*
X004500Y019910D02*
X004449Y019910D01*
X004328Y019596D02*
X003512Y019596D01*
X003611Y019675D02*
X003794Y019675D01*
X003777Y019753D02*
X003623Y019753D01*
X003623Y019832D02*
X003777Y019832D01*
X003777Y019910D02*
X003623Y019910D01*
X003287Y020067D02*
X003207Y020067D01*
X003207Y020146D02*
X003287Y020146D01*
X003287Y020224D02*
X003207Y020224D01*
X003207Y020303D02*
X003287Y020303D01*
X003287Y020381D02*
X003207Y020381D01*
X004292Y020774D02*
X005028Y020774D01*
X005028Y020852D02*
X004292Y020852D01*
X004860Y019910D02*
X004871Y019910D01*
X005680Y016018D02*
X005660Y015997D01*
X005623Y013630D02*
X005777Y013630D01*
X005777Y013552D02*
X005623Y013552D01*
X005610Y013473D02*
X005796Y013473D01*
X005167Y009784D02*
X004721Y009784D01*
X004700Y009077D02*
X003890Y008077D01*
X003890Y007172D01*
X004390Y007172D02*
X004380Y006782D01*
X004380Y006107D01*
X004507Y005859D02*
X007697Y005859D01*
X007719Y005837D02*
X008540Y005837D01*
X008540Y005837D01*
X007719Y005837D01*
X007660Y005937D02*
X005537Y005937D01*
X005243Y005937D02*
X004603Y005937D01*
X004643Y006016D02*
X005158Y006016D01*
X005123Y006094D02*
X005090Y006094D01*
X004930Y006327D02*
X004930Y006962D01*
X004890Y007172D01*
X004778Y006565D02*
X004520Y006565D01*
X004520Y006487D02*
X004696Y006487D01*
X004663Y006408D02*
X004520Y006408D01*
X004551Y006330D02*
X004652Y006330D01*
X004660Y006251D02*
X004621Y006251D01*
X004654Y006173D02*
X004693Y006173D01*
X004658Y006094D02*
X004770Y006094D01*
X004650Y007743D02*
X004631Y007743D01*
X004172Y009705D02*
X005188Y009705D01*
X007640Y010412D02*
X007720Y010412D01*
X007720Y010490D02*
X007640Y010490D01*
X007640Y010569D02*
X007720Y010569D01*
X007720Y010647D02*
X007640Y010647D01*
X007640Y010726D02*
X007720Y010726D01*
X007768Y010758D02*
X007768Y010758D01*
X007949Y010412D02*
X008066Y010412D01*
X007889Y010176D02*
X008540Y010176D01*
X008071Y008449D02*
X007940Y008449D01*
X007950Y008135D02*
X008047Y008135D01*
X007660Y003111D02*
X002601Y003111D01*
X002578Y003111D02*
X001820Y003111D01*
X001820Y003033D02*
X007660Y003033D01*
X007660Y002954D02*
X001820Y002954D01*
X001579Y016221D02*
X000820Y016221D01*
X001355Y017477D02*
X001392Y017477D01*
X001488Y018183D02*
X000820Y018183D01*
X000820Y018419D02*
X001470Y018419D01*
X001400Y019125D02*
X001337Y019125D01*
X001369Y019439D02*
X001373Y019439D01*
X001364Y021480D02*
X001389Y021480D01*
D20*
X003770Y018347D03*
X004480Y016547D03*
X004680Y015797D03*
X004680Y014297D03*
X004680Y012297D03*
X004930Y010797D03*
X004630Y010047D03*
X005200Y008397D03*
X005480Y009397D03*
X006030Y009397D03*
X004930Y006327D03*
X005390Y006177D03*
X004380Y006107D03*
X002450Y005237D03*
X002390Y004307D03*
X003010Y012167D03*
X002680Y013297D03*
X004680Y019697D03*
X005630Y018397D03*
X006380Y018397D03*
X006830Y018197D03*
X007080Y019247D03*
X006780Y005347D03*
X006870Y004327D03*
X006720Y003517D03*
D21*
X007580Y003397D01*
X007630Y005347D02*
X006780Y005347D01*
X004380Y010997D02*
X004930Y011547D01*
X005650Y011547D01*
X005680Y011577D02*
X005680Y012785D01*
X004380Y010997D02*
X003530Y010997D01*
X002880Y010247D01*
X002880Y003747D01*
X002780Y003497D01*
X002630Y003297D01*
X000920Y003297D01*
X001980Y005247D02*
X002450Y005237D01*
X003680Y011577D02*
X003680Y012347D01*
X003400Y012257D01*
X003010Y012167D01*
X003680Y012347D02*
X003680Y012785D01*
X005680Y017577D02*
X005680Y018347D01*
X005630Y018397D01*
X005680Y018447D02*
X005680Y018985D01*
X003770Y018347D02*
X003680Y018197D01*
X003770Y018347D02*
X003680Y018497D01*
X003680Y018985D01*
D22*
X003680Y018197D02*
X003680Y017577D01*
X004680Y015947D02*
X004680Y015797D01*
X005630Y018397D02*
X005680Y018447D01*
X005680Y011577D02*
X005650Y011547D01*
X005680Y010018D02*
X003680Y010018D01*
X004600Y010018D01*
X004630Y010047D01*
X001980Y005247D02*
X000920Y005297D01*
D23*
X007680Y007797D02*
X008680Y007797D01*
X008680Y008797D02*
X007680Y008797D01*
X007680Y009797D02*
X008680Y009797D01*
X008680Y011797D02*
X007680Y011797D01*
X007680Y012797D02*
X008680Y012797D01*
X008680Y013797D02*
X007680Y013797D01*
X007680Y014797D02*
X008680Y014797D01*
X008680Y015797D02*
X007680Y015797D01*
X007680Y016797D02*
X008680Y016797D01*
X008680Y017797D02*
X007680Y017797D01*
X007680Y018797D02*
X008680Y018797D01*
X008680Y019797D02*
X007680Y019797D01*
X007680Y020797D02*
X008680Y020797D01*
X008680Y021797D02*
X007680Y021797D01*
D24*
X002930Y013297D02*
X002680Y013297D01*
D25*
X002390Y004307D02*
X000920Y004297D01*
X006870Y004327D02*
X008560Y004337D01*
M02*
