G75*
%MOIN*%
%OFA0B0*%
%FSLAX24Y24*%
%IPPOS*%
%LPD*%
%AMOC8*
5,1,8,0,0,1.08239X$1,22.5*
%
%ADD10C,0.0000*%
%ADD11C,0.0660*%
%ADD12C,0.0356*%
%ADD13C,0.0080*%
%ADD14C,0.0120*%
%ADD15C,0.0160*%
%ADD16C,0.0100*%
D10*
X000140Y002797D02*
X000140Y022297D01*
X007140Y022297D01*
X007140Y002797D01*
X000140Y002797D01*
D11*
X000640Y007797D03*
X000640Y008797D03*
X000640Y009797D03*
X000640Y010797D03*
X000640Y011797D03*
X000640Y012797D03*
X000640Y013797D03*
X000640Y014797D03*
X000640Y015797D03*
X000640Y016797D03*
X000640Y017797D03*
X000640Y018797D03*
X000640Y019797D03*
X000640Y020797D03*
X000640Y021797D03*
X006640Y021797D03*
X006640Y020797D03*
X006640Y019797D03*
X006640Y018797D03*
X006640Y017797D03*
X006640Y016797D03*
X006640Y015797D03*
X006640Y014797D03*
X006640Y013797D03*
X006640Y012797D03*
X006640Y011797D03*
X006640Y010797D03*
X006640Y009797D03*
X006640Y008797D03*
X006640Y007797D03*
D12*
X005740Y005347D03*
X005830Y004327D03*
X005680Y003517D03*
X005390Y008047D03*
X004990Y009397D03*
X004440Y009397D03*
X004500Y008447D03*
X003900Y008707D03*
X003590Y010047D03*
X003890Y010797D03*
X003640Y012297D03*
X003640Y014297D03*
X003640Y015797D03*
X003440Y016547D03*
X002790Y018347D03*
X003640Y019697D03*
X004590Y018397D03*
X005340Y018397D03*
X005790Y018197D03*
X006040Y019247D03*
X002070Y012137D03*
X003190Y007897D03*
X001420Y003937D03*
X001410Y005237D03*
X001640Y021297D03*
D13*
X001390Y021047D01*
X001390Y020547D01*
X000640Y019797D01*
X000554Y019367D02*
X000726Y019367D01*
X000884Y019433D01*
X001005Y019553D01*
X001070Y019712D01*
X001070Y019883D01*
X001027Y019986D01*
X001448Y020407D01*
X001530Y020489D01*
X001530Y020989D01*
X001567Y021026D01*
X001585Y021019D01*
X001695Y021019D01*
X001798Y021061D01*
X001876Y021140D01*
X001918Y021242D01*
X001918Y021352D01*
X001876Y021455D01*
X001798Y021533D01*
X001695Y021575D01*
X001585Y021575D01*
X001482Y021533D01*
X001404Y021455D01*
X001362Y021352D01*
X001362Y021242D01*
X001369Y021224D01*
X001250Y021105D01*
X001250Y020605D01*
X000829Y020184D01*
X000726Y020227D01*
X000554Y020227D01*
X000396Y020162D01*
X000280Y020045D01*
X000280Y020549D01*
X000396Y020433D01*
X000554Y020367D01*
X000726Y020367D01*
X000884Y020433D01*
X001005Y020553D01*
X001070Y020712D01*
X001070Y020883D01*
X001005Y021041D01*
X000884Y021162D01*
X000726Y021227D01*
X000554Y021227D01*
X000396Y021162D01*
X000280Y021045D01*
X000280Y021549D01*
X000396Y021433D01*
X000554Y021367D01*
X000726Y021367D01*
X000884Y021433D01*
X001005Y021553D01*
X001070Y021712D01*
X001070Y021883D01*
X001005Y022041D01*
X000888Y022157D01*
X006392Y022157D01*
X006275Y022041D01*
X006210Y021883D01*
X006210Y021712D01*
X006275Y021553D01*
X006396Y021433D01*
X006554Y021367D01*
X006726Y021367D01*
X006884Y021433D01*
X007000Y021549D01*
X007000Y021045D01*
X006884Y021162D01*
X006726Y021227D01*
X006554Y021227D01*
X006396Y021162D01*
X006275Y021041D01*
X006210Y020883D01*
X006210Y020712D01*
X006253Y020608D01*
X005900Y020255D01*
X005900Y019490D01*
X005882Y019483D01*
X005804Y019405D01*
X005762Y019302D01*
X005762Y019223D01*
X005480Y019505D01*
X005398Y019587D01*
X003948Y019587D01*
X003911Y019624D01*
X003918Y019642D01*
X003918Y019752D01*
X003876Y019855D01*
X003798Y019933D01*
X003695Y019975D01*
X003585Y019975D01*
X003482Y019933D01*
X003404Y019855D01*
X003362Y019752D01*
X003362Y019642D01*
X003404Y019540D01*
X003482Y019461D01*
X003585Y019419D01*
X003695Y019419D01*
X003713Y019426D01*
X003832Y019307D01*
X005282Y019307D01*
X005932Y018657D01*
X006233Y018657D01*
X006275Y018553D01*
X006396Y018433D01*
X006554Y018367D01*
X006726Y018367D01*
X006884Y018433D01*
X007000Y018549D01*
X007000Y018045D01*
X006884Y018162D01*
X006726Y018227D01*
X006554Y018227D01*
X006396Y018162D01*
X006275Y018041D01*
X006220Y017906D01*
X005727Y017870D01*
X005719Y017876D01*
X005671Y017866D01*
X005622Y017862D01*
X005615Y017855D01*
X005610Y017853D01*
X005701Y017933D01*
X005735Y017919D01*
X005845Y017919D01*
X005948Y017961D01*
X006026Y018040D01*
X006068Y018142D01*
X006068Y018252D01*
X006026Y018355D01*
X005948Y018433D01*
X005845Y018475D01*
X005735Y018475D01*
X005632Y018433D01*
X005618Y018418D01*
X005618Y018452D01*
X005576Y018555D01*
X005498Y018633D01*
X005395Y018675D01*
X005285Y018675D01*
X005182Y018633D01*
X005104Y018555D01*
X005062Y018452D01*
X005062Y018348D01*
X004389Y017787D01*
X004382Y017787D01*
X004345Y017751D01*
X004306Y017717D01*
X004305Y017710D01*
X004300Y017705D01*
X004300Y017653D01*
X004295Y017602D01*
X004300Y017596D01*
X004300Y009640D01*
X004282Y009633D01*
X004204Y009555D01*
X004162Y009452D01*
X004162Y009342D01*
X004204Y009240D01*
X004282Y009161D01*
X004385Y009119D01*
X004495Y009119D01*
X004598Y009161D01*
X004676Y009240D01*
X004715Y009334D01*
X004754Y009240D01*
X004832Y009161D01*
X004935Y009119D01*
X005045Y009119D01*
X005148Y009161D01*
X005226Y009240D01*
X005268Y009342D01*
X005268Y009452D01*
X005226Y009555D01*
X005148Y009633D01*
X005130Y009640D01*
X005130Y017434D01*
X005600Y017845D01*
X005578Y017812D01*
X005546Y017775D01*
X005547Y017764D01*
X005331Y017436D01*
X005300Y017406D01*
X005300Y017389D01*
X005291Y017376D01*
X005300Y017333D01*
X005270Y009101D01*
X004575Y008955D01*
X004117Y008883D01*
X004058Y008943D01*
X003955Y008985D01*
X003845Y008985D01*
X003742Y008943D01*
X003664Y008865D01*
X003622Y008762D01*
X003622Y008652D01*
X003664Y008550D01*
X003742Y008471D01*
X003845Y008429D01*
X003955Y008429D01*
X004058Y008471D01*
X004136Y008550D01*
X004159Y008606D01*
X004286Y008626D01*
X004264Y008605D01*
X004222Y008502D01*
X004222Y008392D01*
X004264Y008290D01*
X004284Y008270D01*
X003444Y008333D01*
X003330Y008453D01*
X003330Y010493D01*
X003612Y010807D01*
X003612Y010742D01*
X003654Y010640D01*
X003732Y010561D01*
X003835Y010519D01*
X003945Y010519D01*
X004048Y010561D01*
X004126Y010640D01*
X004168Y010742D01*
X004168Y010852D01*
X004126Y010955D01*
X004048Y011033D01*
X004030Y011040D01*
X004030Y011739D01*
X004198Y011907D01*
X004280Y011989D01*
X004280Y013105D01*
X003780Y013605D01*
X003780Y014054D01*
X003798Y014061D01*
X003876Y014140D01*
X003918Y014242D01*
X003918Y014352D01*
X003876Y014455D01*
X003798Y014533D01*
X003695Y014575D01*
X003585Y014575D01*
X003482Y014533D01*
X003480Y014530D01*
X003480Y016039D01*
X003580Y016139D01*
X003580Y016304D01*
X003598Y016311D01*
X003676Y016390D01*
X003718Y016492D01*
X003718Y016602D01*
X003676Y016705D01*
X003598Y016783D01*
X003495Y016825D01*
X003385Y016825D01*
X003282Y016783D01*
X003204Y016705D01*
X003162Y016602D01*
X003162Y016492D01*
X003204Y016390D01*
X003282Y016311D01*
X003300Y016304D01*
X003300Y016255D01*
X003282Y016237D01*
X003200Y016155D01*
X003200Y011205D01*
X002932Y010937D01*
X002921Y010926D01*
X002949Y018113D01*
X003026Y018190D01*
X003068Y018292D01*
X003068Y018402D01*
X003026Y018505D01*
X002948Y018583D01*
X002845Y018625D01*
X002735Y018625D01*
X002666Y018597D01*
X002700Y018631D01*
X002700Y018687D01*
X003879Y018687D01*
X004330Y018281D01*
X004342Y018269D01*
X004354Y018240D01*
X004432Y018161D01*
X004535Y018119D01*
X004645Y018119D01*
X004748Y018161D01*
X004826Y018240D01*
X004868Y018342D01*
X004868Y018452D01*
X004826Y018555D01*
X004748Y018633D01*
X004645Y018675D01*
X004535Y018675D01*
X004432Y018633D01*
X004425Y018626D01*
X004050Y018963D01*
X004006Y019007D01*
X004001Y019007D01*
X003998Y019010D01*
X003936Y019007D01*
X002474Y019007D01*
X002380Y018913D01*
X002380Y018763D01*
X002280Y018663D01*
X002280Y018031D01*
X002374Y017937D01*
X002380Y017931D01*
X002370Y011979D01*
X002324Y012025D01*
X002348Y012082D01*
X002348Y012192D01*
X002306Y012295D01*
X002228Y012373D01*
X002125Y012415D01*
X002015Y012415D01*
X001912Y012373D01*
X001834Y012295D01*
X001792Y012192D01*
X001792Y012082D01*
X001834Y011980D01*
X001912Y011901D01*
X002015Y011859D01*
X002066Y011859D01*
X002140Y011785D01*
X002140Y005395D01*
X001648Y005390D01*
X001646Y005395D01*
X001568Y005473D01*
X001465Y005515D01*
X001355Y005515D01*
X001252Y005473D01*
X001174Y005395D01*
X001132Y005292D01*
X001132Y005182D01*
X001174Y005080D01*
X001252Y005001D01*
X001355Y004959D01*
X001465Y004959D01*
X001568Y005001D01*
X001646Y005080D01*
X001650Y005090D01*
X002291Y005097D01*
X002352Y005097D01*
X002353Y005098D01*
X002354Y005098D01*
X002397Y005142D01*
X002440Y005185D01*
X002440Y005186D01*
X002441Y005187D01*
X002440Y005248D01*
X002440Y005301D01*
X002453Y005287D01*
X002492Y005287D01*
X003464Y004944D01*
X005402Y003523D01*
X005402Y003462D01*
X005444Y003360D01*
X005522Y003281D01*
X005625Y003239D01*
X005735Y003239D01*
X005838Y003281D01*
X005916Y003360D01*
X005958Y003462D01*
X005958Y003572D01*
X005916Y003675D01*
X005838Y003753D01*
X005735Y003795D01*
X005625Y003795D01*
X005591Y003781D01*
X003667Y005192D01*
X003656Y005216D01*
X003616Y005230D01*
X003581Y005255D01*
X003555Y005251D01*
X003380Y005313D01*
X003607Y005253D01*
X003624Y005237D01*
X003669Y005237D01*
X003713Y005225D01*
X003733Y005237D01*
X005427Y005237D01*
X005489Y005227D01*
X005504Y005190D01*
X005582Y005111D01*
X005685Y005069D01*
X005795Y005069D01*
X005898Y005111D01*
X005976Y005190D01*
X006018Y005292D01*
X006018Y005402D01*
X005976Y005505D01*
X005898Y005583D01*
X005795Y005625D01*
X005685Y005625D01*
X005582Y005583D01*
X005542Y005542D01*
X005517Y005546D01*
X005506Y005557D01*
X005453Y005557D01*
X005401Y005566D01*
X005389Y005557D01*
X003711Y005557D01*
X002900Y005770D01*
X002909Y007980D01*
X002919Y007970D01*
X002912Y007952D01*
X002912Y007842D01*
X002954Y007740D01*
X003032Y007661D01*
X003135Y007619D01*
X003245Y007619D01*
X003348Y007661D01*
X003426Y007740D01*
X003468Y007842D01*
X003468Y007952D01*
X003426Y008053D01*
X005139Y007925D01*
X005154Y007890D01*
X005232Y007811D01*
X005335Y007769D01*
X005445Y007769D01*
X005548Y007811D01*
X005626Y007890D01*
X005668Y007992D01*
X005668Y008102D01*
X005626Y008205D01*
X005548Y008283D01*
X005445Y008325D01*
X005335Y008325D01*
X005232Y008283D01*
X005155Y008205D01*
X004686Y008240D01*
X004736Y008290D01*
X004778Y008392D01*
X005081Y008493D01*
X005758Y008677D01*
X005797Y008677D01*
X005812Y008692D01*
X005833Y008697D01*
X005852Y008731D01*
X005880Y008759D01*
X005880Y008780D01*
X005890Y008798D01*
X005880Y008835D01*
X005910Y016375D01*
X006249Y016617D01*
X006275Y016553D01*
X006396Y016433D01*
X006554Y016367D01*
X006726Y016367D01*
X006884Y016433D01*
X007000Y016549D01*
X007000Y016045D01*
X006884Y016162D01*
X006726Y016227D01*
X006554Y016227D01*
X006396Y016162D01*
X006275Y016041D01*
X006210Y015883D01*
X006210Y015712D01*
X006275Y015553D01*
X006396Y015433D01*
X006554Y015367D01*
X006726Y015367D01*
X006884Y015433D01*
X007000Y015549D01*
X007000Y015045D01*
X006884Y015162D01*
X006726Y015227D01*
X006554Y015227D01*
X006396Y015162D01*
X006275Y015041D01*
X006210Y014883D01*
X006210Y014712D01*
X006275Y014553D01*
X006396Y014433D01*
X006554Y014367D01*
X006726Y014367D01*
X006884Y014433D01*
X007000Y014549D01*
X007000Y014045D01*
X006884Y014162D01*
X006726Y014227D01*
X006554Y014227D01*
X006396Y014162D01*
X006275Y014041D01*
X006210Y013883D01*
X006210Y013712D01*
X006275Y013553D01*
X006396Y013433D01*
X006554Y013367D01*
X006726Y013367D01*
X006884Y013433D01*
X007000Y013549D01*
X007000Y013045D01*
X006884Y013162D01*
X006726Y013227D01*
X006554Y013227D01*
X006396Y013162D01*
X006275Y013041D01*
X006210Y012883D01*
X006210Y012712D01*
X006275Y012553D01*
X006396Y012433D01*
X006554Y012367D01*
X006726Y012367D01*
X006884Y012433D01*
X007000Y012549D01*
X007000Y012045D01*
X006884Y012162D01*
X006726Y012227D01*
X006554Y012227D01*
X006396Y012162D01*
X006275Y012041D01*
X006210Y011883D01*
X006210Y011712D01*
X006275Y011553D01*
X006396Y011433D01*
X006554Y011367D01*
X006726Y011367D01*
X006884Y011433D01*
X007000Y011549D01*
X007000Y011045D01*
X006884Y011162D01*
X006726Y011227D01*
X006554Y011227D01*
X006396Y011162D01*
X006275Y011041D01*
X006210Y010883D01*
X006210Y010712D01*
X006275Y010553D01*
X006396Y010433D01*
X006554Y010367D01*
X006726Y010367D01*
X006884Y010433D01*
X007000Y010549D01*
X007000Y010045D01*
X006884Y010162D01*
X006726Y010227D01*
X006554Y010227D01*
X006396Y010162D01*
X006275Y010041D01*
X006210Y009883D01*
X006210Y009712D01*
X006275Y009553D01*
X006396Y009433D01*
X006554Y009367D01*
X006726Y009367D01*
X006884Y009433D01*
X007000Y009549D01*
X007000Y009045D01*
X006884Y009162D01*
X006726Y009227D01*
X006554Y009227D01*
X006396Y009162D01*
X006275Y009041D01*
X006210Y008883D01*
X006210Y008712D01*
X006275Y008553D01*
X006396Y008433D01*
X006554Y008367D01*
X006726Y008367D01*
X006884Y008433D01*
X007000Y008549D01*
X007000Y008045D01*
X006884Y008162D01*
X006726Y008227D01*
X006554Y008227D01*
X006396Y008162D01*
X006275Y008041D01*
X006210Y007883D01*
X006210Y007712D01*
X006275Y007553D01*
X006396Y007433D01*
X006554Y007367D01*
X006726Y007367D01*
X006884Y007433D01*
X007000Y007549D01*
X007000Y002937D01*
X000280Y002937D01*
X000280Y007493D01*
X000282Y007491D01*
X000334Y007439D01*
X000394Y007395D01*
X000460Y007361D01*
X000530Y007339D01*
X000600Y007328D01*
X000600Y007757D01*
X000680Y007757D01*
X000680Y007328D01*
X000750Y007339D01*
X000820Y007361D01*
X000886Y007395D01*
X000946Y007439D01*
X000998Y007491D01*
X001042Y007551D01*
X001076Y007617D01*
X001098Y007687D01*
X001110Y007757D01*
X000680Y007757D01*
X000680Y007837D01*
X001110Y007837D01*
X001098Y007907D01*
X001076Y007977D01*
X001042Y008043D01*
X000998Y008103D01*
X000946Y008156D01*
X000886Y008199D01*
X000820Y008233D01*
X000750Y008255D01*
X000680Y008267D01*
X000680Y007837D01*
X000600Y007837D01*
X000600Y008267D01*
X000530Y008255D01*
X000460Y008233D01*
X000394Y008199D01*
X000334Y008156D01*
X000282Y008103D01*
X000280Y008101D01*
X000280Y008549D01*
X000396Y008433D01*
X000554Y008367D01*
X000726Y008367D01*
X000884Y008433D01*
X001005Y008553D01*
X001070Y008712D01*
X001070Y008883D01*
X001005Y009041D01*
X000884Y009162D01*
X000726Y009227D01*
X000554Y009227D01*
X000396Y009162D01*
X000280Y009045D01*
X000280Y009549D01*
X000396Y009433D01*
X000554Y009367D01*
X000726Y009367D01*
X000884Y009433D01*
X001005Y009553D01*
X001070Y009712D01*
X001070Y009883D01*
X001005Y010041D01*
X000884Y010162D01*
X000726Y010227D01*
X000554Y010227D01*
X000396Y010162D01*
X000280Y010045D01*
X000280Y010549D01*
X000396Y010433D01*
X000554Y010367D01*
X000726Y010367D01*
X000884Y010433D01*
X001005Y010553D01*
X001070Y010712D01*
X001070Y010883D01*
X001005Y011041D01*
X000884Y011162D01*
X000726Y011227D01*
X000554Y011227D01*
X000396Y011162D01*
X000280Y011045D01*
X000280Y011549D01*
X000396Y011433D01*
X000554Y011367D01*
X000726Y011367D01*
X000884Y011433D01*
X001005Y011553D01*
X001070Y011712D01*
X001070Y011883D01*
X001005Y012041D01*
X000884Y012162D01*
X000726Y012227D01*
X000554Y012227D01*
X000396Y012162D01*
X000280Y012045D01*
X000280Y012549D01*
X000396Y012433D01*
X000554Y012367D01*
X000726Y012367D01*
X000884Y012433D01*
X001005Y012553D01*
X001070Y012712D01*
X001070Y012883D01*
X001005Y013041D01*
X000884Y013162D01*
X000726Y013227D01*
X000554Y013227D01*
X000396Y013162D01*
X000280Y013045D01*
X000280Y013549D01*
X000396Y013433D01*
X000554Y013367D01*
X000726Y013367D01*
X000884Y013433D01*
X001005Y013553D01*
X001070Y013712D01*
X001070Y013883D01*
X001005Y014041D01*
X000884Y014162D01*
X000726Y014227D01*
X000554Y014227D01*
X000396Y014162D01*
X000280Y014045D01*
X000280Y014549D01*
X000396Y014433D01*
X000554Y014367D01*
X000726Y014367D01*
X000884Y014433D01*
X001005Y014553D01*
X001070Y014712D01*
X001070Y014883D01*
X001005Y015041D01*
X000884Y015162D01*
X000726Y015227D01*
X000554Y015227D01*
X000396Y015162D01*
X000280Y015045D01*
X000280Y015549D01*
X000396Y015433D01*
X000554Y015367D01*
X000726Y015367D01*
X000884Y015433D01*
X001005Y015553D01*
X001070Y015712D01*
X001070Y015883D01*
X001005Y016041D01*
X000884Y016162D01*
X000726Y016227D01*
X000554Y016227D01*
X000396Y016162D01*
X000280Y016045D01*
X000280Y016549D01*
X000396Y016433D01*
X000554Y016367D01*
X000726Y016367D01*
X000884Y016433D01*
X001005Y016553D01*
X001070Y016712D01*
X001070Y016883D01*
X001005Y017041D01*
X000884Y017162D01*
X000726Y017227D01*
X000554Y017227D01*
X000396Y017162D01*
X000280Y017045D01*
X000280Y017549D01*
X000396Y017433D01*
X000554Y017367D01*
X000726Y017367D01*
X000884Y017433D01*
X001005Y017553D01*
X001070Y017712D01*
X002380Y017712D01*
X002379Y017634D02*
X001038Y017634D01*
X001070Y017712D02*
X001070Y017883D01*
X001005Y018041D01*
X000884Y018162D01*
X000726Y018227D01*
X000554Y018227D01*
X000396Y018162D01*
X000280Y018045D01*
X000280Y018549D01*
X000396Y018433D01*
X000554Y018367D01*
X000726Y018367D01*
X000884Y018433D01*
X001005Y018553D01*
X001070Y018712D01*
X001070Y018883D01*
X001005Y019041D01*
X000884Y019162D01*
X000726Y019227D01*
X000554Y019227D01*
X000396Y019162D01*
X000280Y019045D01*
X000280Y019549D01*
X000396Y019433D01*
X000554Y019367D01*
X000498Y019204D02*
X000280Y019204D01*
X000280Y019282D02*
X005307Y019282D01*
X005385Y019204D02*
X000782Y019204D01*
X000890Y019439D02*
X003536Y019439D01*
X003426Y019518D02*
X000969Y019518D01*
X001022Y019596D02*
X003381Y019596D01*
X003362Y019675D02*
X001055Y019675D01*
X001070Y019753D02*
X003362Y019753D01*
X003395Y019832D02*
X001070Y019832D01*
X001059Y019910D02*
X003460Y019910D01*
X003640Y019697D02*
X003890Y019447D01*
X005340Y019447D01*
X005990Y018797D01*
X006640Y018797D01*
X006430Y018419D02*
X005962Y018419D01*
X006032Y018340D02*
X007000Y018340D01*
X007000Y018262D02*
X006064Y018262D01*
X006068Y018183D02*
X006448Y018183D01*
X006339Y018105D02*
X006053Y018105D01*
X006012Y018026D02*
X006269Y018026D01*
X006237Y017948D02*
X005915Y017948D01*
X005790Y018197D02*
X004990Y017497D01*
X004990Y009397D01*
X004846Y009156D02*
X004584Y009156D01*
X004670Y009234D02*
X004760Y009234D01*
X004724Y009313D02*
X004706Y009313D01*
X004783Y008999D02*
X003330Y008999D01*
X003330Y009077D02*
X005157Y009077D01*
X005134Y009156D02*
X005271Y009156D01*
X005271Y009234D02*
X005220Y009234D01*
X005256Y009313D02*
X005271Y009313D01*
X005268Y009391D02*
X005271Y009391D01*
X005261Y009470D02*
X005272Y009470D01*
X005272Y009548D02*
X005228Y009548D01*
X005272Y009627D02*
X005154Y009627D01*
X005130Y009705D02*
X005273Y009705D01*
X005273Y009784D02*
X005130Y009784D01*
X005130Y009862D02*
X005273Y009862D01*
X005273Y009941D02*
X005130Y009941D01*
X005130Y010019D02*
X005274Y010019D01*
X005274Y010098D02*
X005130Y010098D01*
X005130Y010176D02*
X005274Y010176D01*
X005275Y010255D02*
X005130Y010255D01*
X005130Y010333D02*
X005275Y010333D01*
X005275Y010412D02*
X005130Y010412D01*
X005130Y010490D02*
X005275Y010490D01*
X005276Y010569D02*
X005130Y010569D01*
X005130Y010647D02*
X005276Y010647D01*
X005276Y010726D02*
X005130Y010726D01*
X005130Y010804D02*
X005277Y010804D01*
X005277Y010883D02*
X005130Y010883D01*
X005130Y010961D02*
X005277Y010961D01*
X005277Y011040D02*
X005130Y011040D01*
X005130Y011118D02*
X005278Y011118D01*
X005278Y011197D02*
X005130Y011197D01*
X005130Y011275D02*
X005278Y011275D01*
X005278Y011354D02*
X005130Y011354D01*
X005130Y011432D02*
X005279Y011432D01*
X005279Y011511D02*
X005130Y011511D01*
X005130Y011589D02*
X005279Y011589D01*
X005280Y011668D02*
X005130Y011668D01*
X005130Y011746D02*
X005280Y011746D01*
X005280Y011825D02*
X005130Y011825D01*
X005130Y011903D02*
X005280Y011903D01*
X005281Y011982D02*
X005130Y011982D01*
X005130Y012060D02*
X005281Y012060D01*
X005281Y012139D02*
X005130Y012139D01*
X005130Y012217D02*
X005282Y012217D01*
X005282Y012296D02*
X005130Y012296D01*
X005130Y012374D02*
X005282Y012374D01*
X005282Y012453D02*
X005130Y012453D01*
X005130Y012531D02*
X005283Y012531D01*
X005283Y012610D02*
X005130Y012610D01*
X005130Y012688D02*
X005283Y012688D01*
X005284Y012767D02*
X005130Y012767D01*
X005130Y012845D02*
X005284Y012845D01*
X005284Y012924D02*
X005130Y012924D01*
X005130Y013002D02*
X005284Y013002D01*
X005285Y013081D02*
X005130Y013081D01*
X005130Y013159D02*
X005285Y013159D01*
X005285Y013238D02*
X005130Y013238D01*
X005130Y013316D02*
X005286Y013316D01*
X005286Y013395D02*
X005130Y013395D01*
X005130Y013473D02*
X005286Y013473D01*
X005286Y013552D02*
X005130Y013552D01*
X005130Y013630D02*
X005287Y013630D01*
X005287Y013709D02*
X005130Y013709D01*
X005130Y013787D02*
X005287Y013787D01*
X005288Y013866D02*
X005130Y013866D01*
X005130Y013944D02*
X005288Y013944D01*
X005288Y014023D02*
X005130Y014023D01*
X005130Y014101D02*
X005288Y014101D01*
X005289Y014180D02*
X005130Y014180D01*
X005130Y014258D02*
X005289Y014258D01*
X005289Y014337D02*
X005130Y014337D01*
X005130Y014415D02*
X005289Y014415D01*
X005290Y014494D02*
X005130Y014494D01*
X005130Y014572D02*
X005290Y014572D01*
X005290Y014651D02*
X005130Y014651D01*
X005130Y014729D02*
X005291Y014729D01*
X005291Y014808D02*
X005130Y014808D01*
X005130Y014886D02*
X005291Y014886D01*
X005291Y014965D02*
X005130Y014965D01*
X005130Y015043D02*
X005292Y015043D01*
X005292Y015122D02*
X005130Y015122D01*
X005130Y015200D02*
X005292Y015200D01*
X005293Y015279D02*
X005130Y015279D01*
X005130Y015357D02*
X005293Y015357D01*
X005293Y015436D02*
X005130Y015436D01*
X005130Y015514D02*
X005293Y015514D01*
X005294Y015593D02*
X005130Y015593D01*
X005130Y015671D02*
X005294Y015671D01*
X005294Y015750D02*
X005130Y015750D01*
X005130Y015828D02*
X005295Y015828D01*
X005295Y015907D02*
X005130Y015907D01*
X005130Y015985D02*
X005295Y015985D01*
X005295Y016064D02*
X005130Y016064D01*
X005130Y016142D02*
X005296Y016142D01*
X005296Y016221D02*
X005130Y016221D01*
X005130Y016299D02*
X005296Y016299D01*
X005297Y016378D02*
X005130Y016378D01*
X005130Y016456D02*
X005297Y016456D01*
X005297Y016535D02*
X005130Y016535D01*
X005130Y016613D02*
X005297Y016613D01*
X005298Y016692D02*
X005130Y016692D01*
X005130Y016770D02*
X005298Y016770D01*
X005298Y016849D02*
X005130Y016849D01*
X005130Y016927D02*
X005298Y016927D01*
X005299Y017006D02*
X005130Y017006D01*
X005130Y017084D02*
X005299Y017084D01*
X005299Y017163D02*
X005130Y017163D01*
X005130Y017241D02*
X005300Y017241D01*
X005300Y017320D02*
X005130Y017320D01*
X005130Y017398D02*
X005300Y017398D01*
X005358Y017477D02*
X005179Y017477D01*
X005269Y017555D02*
X005409Y017555D01*
X005359Y017634D02*
X005461Y017634D01*
X005448Y017712D02*
X005513Y017712D01*
X005538Y017791D02*
X005560Y017791D01*
X005628Y017869D02*
X005686Y017869D01*
X005690Y017727D02*
X005440Y017347D01*
X005410Y008987D01*
X004600Y008817D01*
X003900Y008707D01*
X003796Y008449D02*
X003334Y008449D01*
X003330Y008528D02*
X003686Y008528D01*
X003641Y008606D02*
X003330Y008606D01*
X003330Y008685D02*
X003622Y008685D01*
X003622Y008763D02*
X003330Y008763D01*
X003330Y008842D02*
X003655Y008842D01*
X003720Y008920D02*
X003330Y008920D01*
X003330Y009156D02*
X004296Y009156D01*
X004210Y009234D02*
X003330Y009234D01*
X003330Y009313D02*
X004174Y009313D01*
X004162Y009391D02*
X003330Y009391D01*
X003330Y009470D02*
X004169Y009470D01*
X004202Y009548D02*
X003330Y009548D01*
X003330Y009627D02*
X004276Y009627D01*
X004300Y009705D02*
X003330Y009705D01*
X003330Y009784D02*
X004300Y009784D01*
X004300Y009862D02*
X003330Y009862D01*
X003330Y009941D02*
X004300Y009941D01*
X004300Y010019D02*
X003330Y010019D01*
X003330Y010098D02*
X004300Y010098D01*
X004300Y010176D02*
X003330Y010176D01*
X003330Y010255D02*
X004300Y010255D01*
X004300Y010333D02*
X003330Y010333D01*
X003330Y010412D02*
X004300Y010412D01*
X004300Y010490D02*
X003330Y010490D01*
X003398Y010569D02*
X003725Y010569D01*
X003651Y010647D02*
X003468Y010647D01*
X003539Y010726D02*
X003619Y010726D01*
X003610Y010804D02*
X003612Y010804D01*
X003640Y011047D02*
X003190Y010547D01*
X003190Y008397D01*
X003380Y008197D01*
X005390Y008047D01*
X005255Y008292D02*
X004737Y008292D01*
X004769Y008371D02*
X006546Y008371D01*
X006522Y008214D02*
X005617Y008214D01*
X005655Y008135D02*
X006370Y008135D01*
X006291Y008057D02*
X005668Y008057D01*
X005662Y007978D02*
X006250Y007978D01*
X006217Y007900D02*
X005630Y007900D01*
X005557Y007821D02*
X006210Y007821D01*
X006210Y007743D02*
X003427Y007743D01*
X003460Y007821D02*
X005223Y007821D01*
X005150Y007900D02*
X003468Y007900D01*
X003457Y007978D02*
X004433Y007978D01*
X004263Y008292D02*
X003988Y008292D01*
X004004Y008449D02*
X004222Y008449D01*
X004231Y008371D02*
X003408Y008371D01*
X002990Y008097D02*
X003190Y007897D01*
X003030Y007664D02*
X002908Y007664D01*
X002908Y007586D02*
X006262Y007586D01*
X006230Y007664D02*
X003350Y007664D01*
X002953Y007743D02*
X002908Y007743D01*
X002909Y007821D02*
X002920Y007821D01*
X002909Y007900D02*
X002912Y007900D01*
X002909Y007978D02*
X002911Y007978D01*
X002990Y008097D02*
X002990Y010797D01*
X003340Y011147D01*
X003340Y016097D01*
X003440Y016197D01*
X003440Y016547D01*
X003580Y016299D02*
X004300Y016299D01*
X004300Y016221D02*
X003580Y016221D01*
X003580Y016142D02*
X004300Y016142D01*
X004300Y016064D02*
X003505Y016064D01*
X003480Y015985D02*
X004300Y015985D01*
X004300Y015907D02*
X003480Y015907D01*
X003480Y015828D02*
X004300Y015828D01*
X004300Y015750D02*
X003480Y015750D01*
X003480Y015671D02*
X004300Y015671D01*
X004300Y015593D02*
X003480Y015593D01*
X003480Y015514D02*
X004300Y015514D01*
X004300Y015436D02*
X003480Y015436D01*
X003480Y015357D02*
X004300Y015357D01*
X004300Y015279D02*
X003480Y015279D01*
X003480Y015200D02*
X004300Y015200D01*
X004300Y015122D02*
X003480Y015122D01*
X003480Y015043D02*
X004300Y015043D01*
X004300Y014965D02*
X003480Y014965D01*
X003480Y014886D02*
X004300Y014886D01*
X004300Y014808D02*
X003480Y014808D01*
X003480Y014729D02*
X004300Y014729D01*
X004300Y014651D02*
X003480Y014651D01*
X003480Y014572D02*
X003577Y014572D01*
X003703Y014572D02*
X004300Y014572D01*
X004300Y014494D02*
X003837Y014494D01*
X003892Y014415D02*
X004300Y014415D01*
X004300Y014337D02*
X003918Y014337D01*
X003918Y014258D02*
X004300Y014258D01*
X004300Y014180D02*
X003892Y014180D01*
X003837Y014101D02*
X004300Y014101D01*
X004300Y014023D02*
X003780Y014023D01*
X003780Y013944D02*
X004300Y013944D01*
X004300Y013866D02*
X003780Y013866D01*
X003780Y013787D02*
X004300Y013787D01*
X004300Y013709D02*
X003780Y013709D01*
X003780Y013630D02*
X004300Y013630D01*
X004300Y013552D02*
X003833Y013552D01*
X003912Y013473D02*
X004300Y013473D01*
X004300Y013395D02*
X003990Y013395D01*
X004069Y013316D02*
X004300Y013316D01*
X004300Y013238D02*
X004147Y013238D01*
X004226Y013159D02*
X004300Y013159D01*
X004300Y013081D02*
X004280Y013081D01*
X004280Y013002D02*
X004300Y013002D01*
X004300Y012924D02*
X004280Y012924D01*
X004280Y012845D02*
X004300Y012845D01*
X004300Y012767D02*
X004280Y012767D01*
X004280Y012688D02*
X004300Y012688D01*
X004300Y012610D02*
X004280Y012610D01*
X004280Y012531D02*
X004300Y012531D01*
X004300Y012453D02*
X004280Y012453D01*
X004280Y012374D02*
X004300Y012374D01*
X004300Y012296D02*
X004280Y012296D01*
X004280Y012217D02*
X004300Y012217D01*
X004300Y012139D02*
X004280Y012139D01*
X004280Y012060D02*
X004300Y012060D01*
X004300Y011982D02*
X004273Y011982D01*
X004300Y011903D02*
X004194Y011903D01*
X004116Y011825D02*
X004300Y011825D01*
X004300Y011746D02*
X004037Y011746D01*
X004030Y011668D02*
X004300Y011668D01*
X004300Y011589D02*
X004030Y011589D01*
X004030Y011511D02*
X004300Y011511D01*
X004300Y011432D02*
X004030Y011432D01*
X004030Y011354D02*
X004300Y011354D01*
X004300Y011275D02*
X004030Y011275D01*
X004030Y011197D02*
X004300Y011197D01*
X004300Y011118D02*
X004030Y011118D01*
X004031Y011040D02*
X004300Y011040D01*
X004300Y010961D02*
X004119Y010961D01*
X004156Y010883D02*
X004300Y010883D01*
X004300Y010804D02*
X004168Y010804D01*
X004161Y010726D02*
X004300Y010726D01*
X004300Y010647D02*
X004129Y010647D01*
X004055Y010569D02*
X004300Y010569D01*
X003890Y010797D02*
X003890Y011797D01*
X004140Y012047D01*
X004140Y013047D01*
X003640Y013547D01*
X003640Y014297D01*
X003200Y014258D02*
X002934Y014258D01*
X002934Y014180D02*
X003200Y014180D01*
X003200Y014101D02*
X002933Y014101D01*
X002933Y014023D02*
X003200Y014023D01*
X003200Y013944D02*
X002933Y013944D01*
X002932Y013866D02*
X003200Y013866D01*
X003200Y013787D02*
X002932Y013787D01*
X002932Y013709D02*
X003200Y013709D01*
X003200Y013630D02*
X002931Y013630D01*
X002931Y013552D02*
X003200Y013552D01*
X003200Y013473D02*
X002931Y013473D01*
X002931Y013395D02*
X003200Y013395D01*
X003200Y013316D02*
X002930Y013316D01*
X002930Y013238D02*
X003200Y013238D01*
X003200Y013159D02*
X002930Y013159D01*
X002929Y013081D02*
X003200Y013081D01*
X003200Y013002D02*
X002929Y013002D01*
X002929Y012924D02*
X003200Y012924D01*
X003200Y012845D02*
X002928Y012845D01*
X002928Y012767D02*
X003200Y012767D01*
X003200Y012688D02*
X002928Y012688D01*
X002927Y012610D02*
X003200Y012610D01*
X003200Y012531D02*
X002927Y012531D01*
X002927Y012453D02*
X003200Y012453D01*
X003200Y012374D02*
X002926Y012374D01*
X002926Y012296D02*
X003200Y012296D01*
X003200Y012217D02*
X002926Y012217D01*
X002926Y012139D02*
X003200Y012139D01*
X003200Y012060D02*
X002925Y012060D01*
X002925Y011982D02*
X003200Y011982D01*
X003200Y011903D02*
X002925Y011903D01*
X002924Y011825D02*
X003200Y011825D01*
X003200Y011746D02*
X002924Y011746D01*
X002924Y011668D02*
X003200Y011668D01*
X003200Y011589D02*
X002923Y011589D01*
X002923Y011511D02*
X003200Y011511D01*
X003200Y011432D02*
X002923Y011432D01*
X002922Y011354D02*
X003200Y011354D01*
X003200Y011275D02*
X002922Y011275D01*
X002922Y011197D02*
X003192Y011197D01*
X003113Y011118D02*
X002922Y011118D01*
X002921Y011040D02*
X003035Y011040D01*
X002956Y010961D02*
X002921Y010961D01*
X002370Y011982D02*
X002368Y011982D01*
X002371Y012060D02*
X002339Y012060D01*
X002348Y012139D02*
X002371Y012139D01*
X002371Y012217D02*
X002338Y012217D01*
X002305Y012296D02*
X002371Y012296D01*
X002371Y012374D02*
X002224Y012374D01*
X002371Y012453D02*
X000904Y012453D01*
X000982Y012531D02*
X002371Y012531D01*
X002371Y012610D02*
X001028Y012610D01*
X001060Y012688D02*
X002372Y012688D01*
X002372Y012767D02*
X001070Y012767D01*
X001070Y012845D02*
X002372Y012845D01*
X002372Y012924D02*
X001053Y012924D01*
X001021Y013002D02*
X002372Y013002D01*
X002372Y013081D02*
X000965Y013081D01*
X000886Y013159D02*
X002372Y013159D01*
X002372Y013238D02*
X000280Y013238D01*
X000280Y013316D02*
X002373Y013316D01*
X002373Y013395D02*
X000792Y013395D01*
X000924Y013473D02*
X002373Y013473D01*
X002373Y013552D02*
X001003Y013552D01*
X001036Y013630D02*
X002373Y013630D01*
X002373Y013709D02*
X001069Y013709D01*
X001070Y013787D02*
X002373Y013787D01*
X002373Y013866D02*
X001070Y013866D01*
X001045Y013944D02*
X002374Y013944D01*
X002374Y014023D02*
X001012Y014023D01*
X000944Y014101D02*
X002374Y014101D01*
X002374Y014180D02*
X000840Y014180D01*
X000842Y014415D02*
X002374Y014415D01*
X002374Y014337D02*
X000280Y014337D01*
X000280Y014415D02*
X000438Y014415D01*
X000335Y014494D02*
X000280Y014494D01*
X000280Y014258D02*
X002374Y014258D01*
X002374Y014494D02*
X000945Y014494D01*
X001012Y014572D02*
X002375Y014572D01*
X002375Y014651D02*
X001045Y014651D01*
X001070Y014729D02*
X002375Y014729D01*
X002375Y014808D02*
X001070Y014808D01*
X001069Y014886D02*
X002375Y014886D01*
X002375Y014965D02*
X001036Y014965D01*
X001002Y015043D02*
X002375Y015043D01*
X002375Y015122D02*
X000924Y015122D01*
X000887Y015436D02*
X002376Y015436D01*
X002376Y015514D02*
X000965Y015514D01*
X001021Y015593D02*
X002376Y015593D01*
X002376Y015671D02*
X001053Y015671D01*
X001070Y015750D02*
X002376Y015750D01*
X002377Y015828D02*
X001070Y015828D01*
X001060Y015907D02*
X002377Y015907D01*
X002377Y015985D02*
X001028Y015985D01*
X000982Y016064D02*
X002377Y016064D01*
X002377Y016142D02*
X000903Y016142D01*
X000741Y016221D02*
X002377Y016221D01*
X002377Y016299D02*
X000280Y016299D01*
X000280Y016221D02*
X000539Y016221D01*
X000529Y016378D02*
X000280Y016378D01*
X000280Y016456D02*
X000373Y016456D01*
X000294Y016535D02*
X000280Y016535D01*
X000280Y016142D02*
X000377Y016142D01*
X000298Y016064D02*
X000280Y016064D01*
X000280Y015514D02*
X000315Y015514D01*
X000280Y015436D02*
X000393Y015436D01*
X000280Y015357D02*
X002376Y015357D01*
X002376Y015279D02*
X000280Y015279D01*
X000280Y015200D02*
X000489Y015200D01*
X000356Y015122D02*
X000280Y015122D01*
X000280Y014180D02*
X000440Y014180D01*
X000336Y014101D02*
X000280Y014101D01*
X000280Y013473D02*
X000356Y013473D01*
X000280Y013395D02*
X000488Y013395D01*
X000394Y013159D02*
X000280Y013159D01*
X000280Y013081D02*
X000315Y013081D01*
X000298Y012531D02*
X000280Y012531D01*
X000280Y012453D02*
X000376Y012453D01*
X000280Y012374D02*
X000537Y012374D01*
X000530Y012217D02*
X000280Y012217D01*
X000280Y012139D02*
X000373Y012139D01*
X000295Y012060D02*
X000280Y012060D01*
X000280Y012296D02*
X001835Y012296D01*
X001802Y012217D02*
X000750Y012217D01*
X000743Y012374D02*
X001916Y012374D01*
X001792Y012139D02*
X000907Y012139D01*
X000985Y012060D02*
X001801Y012060D01*
X001833Y011982D02*
X001029Y011982D01*
X001062Y011903D02*
X001911Y011903D01*
X002100Y011825D02*
X001070Y011825D01*
X001070Y011746D02*
X002140Y011746D01*
X002140Y011668D02*
X001052Y011668D01*
X001019Y011589D02*
X002140Y011589D01*
X002140Y011511D02*
X000962Y011511D01*
X000883Y011432D02*
X002140Y011432D01*
X002140Y011354D02*
X000280Y011354D01*
X000280Y011432D02*
X000397Y011432D01*
X000318Y011511D02*
X000280Y011511D01*
X000280Y011275D02*
X002140Y011275D01*
X002140Y011197D02*
X000799Y011197D01*
X000927Y011118D02*
X002140Y011118D01*
X002140Y011040D02*
X001005Y011040D01*
X001037Y010961D02*
X002140Y010961D01*
X002140Y010883D02*
X001070Y010883D01*
X001070Y010804D02*
X002140Y010804D01*
X002140Y010726D02*
X001070Y010726D01*
X001043Y010647D02*
X002140Y010647D01*
X002140Y010569D02*
X001011Y010569D01*
X000941Y010490D02*
X002140Y010490D01*
X002140Y010412D02*
X000833Y010412D01*
X000849Y010176D02*
X002140Y010176D01*
X002140Y010098D02*
X000948Y010098D01*
X001013Y010019D02*
X002140Y010019D01*
X002140Y009941D02*
X001046Y009941D01*
X001070Y009862D02*
X002140Y009862D01*
X002140Y009784D02*
X001070Y009784D01*
X001067Y009705D02*
X002140Y009705D01*
X002140Y009627D02*
X001035Y009627D01*
X000999Y009548D02*
X002140Y009548D01*
X002140Y009470D02*
X000921Y009470D01*
X000890Y009156D02*
X002140Y009156D01*
X002140Y009234D02*
X000280Y009234D01*
X000280Y009156D02*
X000390Y009156D01*
X000312Y009077D02*
X000280Y009077D01*
X000280Y009313D02*
X002140Y009313D01*
X002140Y009391D02*
X000784Y009391D01*
X000968Y009077D02*
X002140Y009077D01*
X002140Y008999D02*
X001022Y008999D01*
X001054Y008920D02*
X002140Y008920D01*
X002140Y008842D02*
X001070Y008842D01*
X001070Y008763D02*
X002140Y008763D01*
X002140Y008685D02*
X001059Y008685D01*
X001026Y008606D02*
X002140Y008606D01*
X002140Y008528D02*
X000979Y008528D01*
X000900Y008449D02*
X002140Y008449D01*
X002140Y008371D02*
X000734Y008371D01*
X000680Y008214D02*
X000600Y008214D01*
X000600Y008135D02*
X000680Y008135D01*
X000680Y008057D02*
X000600Y008057D01*
X000600Y007978D02*
X000680Y007978D01*
X000680Y007900D02*
X000600Y007900D01*
X000680Y007821D02*
X002140Y007821D01*
X002140Y007743D02*
X001107Y007743D01*
X001091Y007664D02*
X002140Y007664D01*
X002140Y007586D02*
X001060Y007586D01*
X001010Y007507D02*
X002140Y007507D01*
X002140Y007429D02*
X000932Y007429D01*
X000785Y007350D02*
X002140Y007350D01*
X002140Y007272D02*
X000280Y007272D01*
X000280Y007350D02*
X000495Y007350D01*
X000348Y007429D02*
X000280Y007429D01*
X000280Y007193D02*
X002140Y007193D01*
X002140Y007115D02*
X000280Y007115D01*
X000280Y007036D02*
X002140Y007036D01*
X002140Y006958D02*
X000280Y006958D01*
X000280Y006879D02*
X002140Y006879D01*
X002140Y006801D02*
X000280Y006801D01*
X000280Y006722D02*
X002140Y006722D01*
X002140Y006644D02*
X000280Y006644D01*
X000280Y006565D02*
X002140Y006565D01*
X002140Y006487D02*
X000280Y006487D01*
X000280Y006408D02*
X002140Y006408D01*
X002140Y006330D02*
X000280Y006330D01*
X000280Y006251D02*
X002140Y006251D01*
X002140Y006173D02*
X000280Y006173D01*
X000280Y006094D02*
X002140Y006094D01*
X002140Y006016D02*
X000280Y006016D01*
X000280Y005937D02*
X002140Y005937D01*
X002140Y005859D02*
X000280Y005859D01*
X000280Y005780D02*
X002140Y005780D01*
X002140Y005702D02*
X000280Y005702D01*
X000280Y005623D02*
X002140Y005623D01*
X002140Y005545D02*
X000280Y005545D01*
X000280Y005466D02*
X001246Y005466D01*
X001171Y005388D02*
X000280Y005388D01*
X000280Y005309D02*
X001139Y005309D01*
X001132Y005231D02*
X000280Y005231D01*
X000280Y005152D02*
X001144Y005152D01*
X001180Y005074D02*
X000280Y005074D01*
X000280Y004995D02*
X001267Y004995D01*
X001553Y004995D02*
X003320Y004995D01*
X003502Y004917D02*
X000280Y004917D01*
X000280Y004838D02*
X003609Y004838D01*
X003716Y004760D02*
X000280Y004760D01*
X000280Y004681D02*
X003823Y004681D01*
X003930Y004603D02*
X000280Y004603D01*
X000280Y004524D02*
X004037Y004524D01*
X004144Y004446D02*
X000280Y004446D01*
X000280Y004367D02*
X004251Y004367D01*
X004257Y004760D02*
X007000Y004760D01*
X007000Y004838D02*
X004150Y004838D01*
X004043Y004917D02*
X007000Y004917D01*
X007000Y004995D02*
X003936Y004995D01*
X003829Y005074D02*
X005674Y005074D01*
X005542Y005152D02*
X003722Y005152D01*
X003722Y005231D02*
X005466Y005231D01*
X005528Y005545D02*
X005544Y005545D01*
X005680Y005623D02*
X003460Y005623D01*
X003396Y005309D02*
X003392Y005309D01*
X003615Y005231D02*
X003694Y005231D01*
X003097Y005074D02*
X001640Y005074D01*
X001574Y005466D02*
X002140Y005466D01*
X002407Y005152D02*
X002875Y005152D01*
X002653Y005231D02*
X002440Y005231D01*
X002901Y005780D02*
X007000Y005780D01*
X007000Y005702D02*
X003162Y005702D01*
X002901Y005859D02*
X007000Y005859D01*
X007000Y005937D02*
X002901Y005937D01*
X002901Y006016D02*
X007000Y006016D01*
X007000Y006094D02*
X002902Y006094D01*
X002902Y006173D02*
X007000Y006173D01*
X007000Y006251D02*
X002902Y006251D01*
X002903Y006330D02*
X007000Y006330D01*
X007000Y006408D02*
X002903Y006408D01*
X002903Y006487D02*
X007000Y006487D01*
X007000Y006565D02*
X002904Y006565D01*
X002904Y006644D02*
X007000Y006644D01*
X007000Y006722D02*
X002904Y006722D01*
X002905Y006801D02*
X007000Y006801D01*
X007000Y006879D02*
X002905Y006879D01*
X002905Y006958D02*
X007000Y006958D01*
X007000Y007036D02*
X002905Y007036D01*
X002906Y007115D02*
X007000Y007115D01*
X007000Y007193D02*
X002906Y007193D01*
X002906Y007272D02*
X007000Y007272D01*
X007000Y007350D02*
X002907Y007350D01*
X002907Y007429D02*
X006406Y007429D01*
X006322Y007507D02*
X002907Y007507D01*
X002140Y007900D02*
X001100Y007900D01*
X001075Y007978D02*
X002140Y007978D01*
X002140Y008057D02*
X001032Y008057D01*
X000967Y008135D02*
X002140Y008135D01*
X002140Y008214D02*
X000858Y008214D01*
X000680Y007743D02*
X000600Y007743D01*
X000600Y007664D02*
X000680Y007664D01*
X000680Y007586D02*
X000600Y007586D01*
X000600Y007507D02*
X000680Y007507D01*
X000680Y007429D02*
X000600Y007429D01*
X000600Y007350D02*
X000680Y007350D01*
X000422Y008214D02*
X000280Y008214D01*
X000280Y008292D02*
X002140Y008292D01*
X002140Y010255D02*
X000280Y010255D01*
X000280Y010333D02*
X002140Y010333D01*
X002934Y014337D02*
X003200Y014337D01*
X003200Y014415D02*
X002935Y014415D01*
X002935Y014494D02*
X003200Y014494D01*
X003200Y014572D02*
X002935Y014572D01*
X002935Y014651D02*
X003200Y014651D01*
X003200Y014729D02*
X002936Y014729D01*
X002936Y014808D02*
X003200Y014808D01*
X003200Y014886D02*
X002936Y014886D01*
X002937Y014965D02*
X003200Y014965D01*
X003200Y015043D02*
X002937Y015043D01*
X002937Y015122D02*
X003200Y015122D01*
X003200Y015200D02*
X002938Y015200D01*
X002938Y015279D02*
X003200Y015279D01*
X003200Y015357D02*
X002938Y015357D01*
X002939Y015436D02*
X003200Y015436D01*
X003200Y015514D02*
X002939Y015514D01*
X002939Y015593D02*
X003200Y015593D01*
X003200Y015671D02*
X002939Y015671D01*
X002940Y015750D02*
X003200Y015750D01*
X003200Y015828D02*
X002940Y015828D01*
X002940Y015907D02*
X003200Y015907D01*
X003200Y015985D02*
X002941Y015985D01*
X002941Y016064D02*
X003200Y016064D01*
X003200Y016142D02*
X002941Y016142D01*
X002942Y016221D02*
X003266Y016221D01*
X003282Y016237D02*
X003282Y016237D01*
X003300Y016299D02*
X002942Y016299D01*
X002942Y016378D02*
X003216Y016378D01*
X003177Y016456D02*
X002943Y016456D01*
X002943Y016535D02*
X003162Y016535D01*
X003166Y016613D02*
X002943Y016613D01*
X002943Y016692D02*
X003199Y016692D01*
X003270Y016770D02*
X002944Y016770D01*
X002944Y016849D02*
X004300Y016849D01*
X004300Y016927D02*
X002944Y016927D01*
X002945Y017006D02*
X004300Y017006D01*
X004300Y017084D02*
X002945Y017084D01*
X002945Y017163D02*
X004300Y017163D01*
X004300Y017241D02*
X002946Y017241D01*
X002946Y017320D02*
X004300Y017320D01*
X004300Y017398D02*
X002946Y017398D01*
X002947Y017477D02*
X004300Y017477D01*
X004300Y017555D02*
X002947Y017555D01*
X002947Y017634D02*
X004298Y017634D01*
X004305Y017712D02*
X002947Y017712D01*
X002948Y017791D02*
X004394Y017791D01*
X004488Y017869D02*
X002948Y017869D01*
X002948Y017948D02*
X004582Y017948D01*
X004440Y017647D02*
X005340Y018397D01*
X005234Y018654D02*
X004696Y018654D01*
X004805Y018576D02*
X005125Y018576D01*
X005080Y018497D02*
X004850Y018497D01*
X004868Y018419D02*
X005062Y018419D01*
X005053Y018340D02*
X004867Y018340D01*
X004835Y018262D02*
X004959Y018262D01*
X004865Y018183D02*
X004769Y018183D01*
X004770Y018105D02*
X002949Y018105D01*
X002949Y018026D02*
X004676Y018026D01*
X004440Y017647D02*
X004440Y009397D01*
X004354Y008920D02*
X004080Y008920D01*
X004159Y008606D02*
X004266Y008606D01*
X004232Y008528D02*
X004114Y008528D01*
X004500Y008447D02*
X005040Y008627D01*
X005740Y008817D01*
X005770Y016447D01*
X006330Y016847D01*
X006640Y016797D01*
X006529Y016378D02*
X005914Y016378D01*
X005909Y016299D02*
X007000Y016299D01*
X007000Y016221D02*
X006741Y016221D01*
X006751Y016378D02*
X007000Y016378D01*
X007000Y016456D02*
X006907Y016456D01*
X006986Y016535D02*
X007000Y016535D01*
X007000Y016142D02*
X006903Y016142D01*
X006982Y016064D02*
X007000Y016064D01*
X007000Y015514D02*
X006965Y015514D01*
X007000Y015436D02*
X006887Y015436D01*
X007000Y015357D02*
X005906Y015357D01*
X005905Y015279D02*
X007000Y015279D01*
X007000Y015200D02*
X006791Y015200D01*
X006924Y015122D02*
X007000Y015122D01*
X007000Y014494D02*
X006945Y014494D01*
X007000Y014415D02*
X006842Y014415D01*
X006840Y014180D02*
X007000Y014180D01*
X007000Y014258D02*
X005901Y014258D01*
X005901Y014180D02*
X006440Y014180D01*
X006438Y014415D02*
X005902Y014415D01*
X005902Y014337D02*
X007000Y014337D01*
X007000Y014101D02*
X006944Y014101D01*
X006924Y013473D02*
X007000Y013473D01*
X007000Y013395D02*
X006792Y013395D01*
X006886Y013159D02*
X007000Y013159D01*
X007000Y013081D02*
X006965Y013081D01*
X007000Y013238D02*
X005897Y013238D01*
X005898Y013316D02*
X007000Y013316D01*
X006982Y012531D02*
X007000Y012531D01*
X007000Y012453D02*
X006904Y012453D01*
X007000Y012374D02*
X006743Y012374D01*
X006750Y012217D02*
X007000Y012217D01*
X007000Y012139D02*
X006907Y012139D01*
X006985Y012060D02*
X007000Y012060D01*
X007000Y012296D02*
X005894Y012296D01*
X005894Y012374D02*
X006537Y012374D01*
X006530Y012217D02*
X005893Y012217D01*
X005893Y012139D02*
X006373Y012139D01*
X006295Y012060D02*
X005893Y012060D01*
X005892Y011982D02*
X006251Y011982D01*
X006218Y011903D02*
X005892Y011903D01*
X005892Y011825D02*
X006210Y011825D01*
X006210Y011746D02*
X005892Y011746D01*
X005891Y011668D02*
X006228Y011668D01*
X006261Y011589D02*
X005891Y011589D01*
X005891Y011511D02*
X006318Y011511D01*
X006397Y011432D02*
X005890Y011432D01*
X005890Y011354D02*
X007000Y011354D01*
X007000Y011432D02*
X006883Y011432D01*
X006962Y011511D02*
X007000Y011511D01*
X007000Y011275D02*
X005890Y011275D01*
X005889Y011197D02*
X006481Y011197D01*
X006353Y011118D02*
X005889Y011118D01*
X005889Y011040D02*
X006275Y011040D01*
X006243Y010961D02*
X005888Y010961D01*
X005888Y010883D02*
X006210Y010883D01*
X006210Y010804D02*
X005888Y010804D01*
X005888Y010726D02*
X006210Y010726D01*
X006237Y010647D02*
X005887Y010647D01*
X005887Y010569D02*
X006269Y010569D01*
X006339Y010490D02*
X005887Y010490D01*
X005886Y010412D02*
X006447Y010412D01*
X006431Y010176D02*
X005885Y010176D01*
X005885Y010098D02*
X006332Y010098D01*
X006267Y010019D02*
X005885Y010019D01*
X005884Y009941D02*
X006234Y009941D01*
X006210Y009862D02*
X005884Y009862D01*
X005884Y009784D02*
X006210Y009784D01*
X006213Y009705D02*
X005883Y009705D01*
X005883Y009627D02*
X006245Y009627D01*
X006281Y009548D02*
X005883Y009548D01*
X005883Y009470D02*
X006359Y009470D01*
X006496Y009391D02*
X005882Y009391D01*
X005882Y009313D02*
X007000Y009313D01*
X007000Y009391D02*
X006784Y009391D01*
X006921Y009470D02*
X007000Y009470D01*
X006999Y009548D02*
X007000Y009548D01*
X007000Y009234D02*
X005882Y009234D01*
X005881Y009156D02*
X006390Y009156D01*
X006312Y009077D02*
X005881Y009077D01*
X005881Y008999D02*
X006258Y008999D01*
X006226Y008920D02*
X005880Y008920D01*
X005880Y008842D02*
X006210Y008842D01*
X006210Y008763D02*
X005880Y008763D01*
X005805Y008685D02*
X006221Y008685D01*
X006254Y008606D02*
X005497Y008606D01*
X005525Y008292D02*
X007000Y008292D01*
X007000Y008214D02*
X006758Y008214D01*
X006734Y008371D02*
X007000Y008371D01*
X007000Y008449D02*
X006900Y008449D01*
X006979Y008528D02*
X007000Y008528D01*
X007000Y008135D02*
X006910Y008135D01*
X006989Y008057D02*
X007000Y008057D01*
X007000Y007507D02*
X006958Y007507D01*
X007000Y007429D02*
X006874Y007429D01*
X006380Y008449D02*
X004949Y008449D01*
X005040Y008214D02*
X005163Y008214D01*
X005208Y008528D02*
X006301Y008528D01*
X006890Y009156D02*
X007000Y009156D01*
X007000Y009077D02*
X006968Y009077D01*
X006948Y010098D02*
X007000Y010098D01*
X007000Y010176D02*
X006849Y010176D01*
X007000Y010255D02*
X005886Y010255D01*
X005886Y010333D02*
X007000Y010333D01*
X007000Y010412D02*
X006833Y010412D01*
X006941Y010490D02*
X007000Y010490D01*
X007000Y011118D02*
X006927Y011118D01*
X007000Y011197D02*
X006799Y011197D01*
X006376Y012453D02*
X005894Y012453D01*
X005895Y012531D02*
X006298Y012531D01*
X006252Y012610D02*
X005895Y012610D01*
X005895Y012688D02*
X006220Y012688D01*
X006210Y012767D02*
X005896Y012767D01*
X005896Y012845D02*
X006210Y012845D01*
X006227Y012924D02*
X005896Y012924D01*
X005896Y013002D02*
X006259Y013002D01*
X006315Y013081D02*
X005897Y013081D01*
X005897Y013159D02*
X006394Y013159D01*
X006488Y013395D02*
X005898Y013395D01*
X005898Y013473D02*
X006356Y013473D01*
X006277Y013552D02*
X005899Y013552D01*
X005899Y013630D02*
X006244Y013630D01*
X006211Y013709D02*
X005899Y013709D01*
X005900Y013787D02*
X006210Y013787D01*
X006210Y013866D02*
X005900Y013866D01*
X005900Y013944D02*
X006235Y013944D01*
X006268Y014023D02*
X005900Y014023D01*
X005901Y014101D02*
X006336Y014101D01*
X006335Y014494D02*
X005902Y014494D01*
X005903Y014572D02*
X006268Y014572D01*
X006235Y014651D02*
X005903Y014651D01*
X005903Y014729D02*
X006210Y014729D01*
X006210Y014808D02*
X005904Y014808D01*
X005904Y014886D02*
X006211Y014886D01*
X006244Y014965D02*
X005904Y014965D01*
X005904Y015043D02*
X006278Y015043D01*
X006356Y015122D02*
X005905Y015122D01*
X005905Y015200D02*
X006489Y015200D01*
X006393Y015436D02*
X005906Y015436D01*
X005906Y015514D02*
X006315Y015514D01*
X006259Y015593D02*
X005907Y015593D01*
X005907Y015671D02*
X006227Y015671D01*
X006210Y015750D02*
X005907Y015750D01*
X005908Y015828D02*
X006210Y015828D01*
X006220Y015907D02*
X005908Y015907D01*
X005908Y015985D02*
X006252Y015985D01*
X006298Y016064D02*
X005908Y016064D01*
X005909Y016142D02*
X006377Y016142D01*
X006539Y016221D02*
X005909Y016221D01*
X006024Y016456D02*
X006373Y016456D01*
X006294Y016535D02*
X006133Y016535D01*
X006243Y016613D02*
X006251Y016613D01*
X006640Y017797D02*
X005690Y017727D01*
X005618Y018419D02*
X005618Y018419D01*
X005600Y018497D02*
X006332Y018497D01*
X006266Y018576D02*
X005555Y018576D01*
X005446Y018654D02*
X006234Y018654D01*
X006040Y019247D02*
X006040Y020197D01*
X006640Y020797D01*
X006407Y021166D02*
X001887Y021166D01*
X001918Y021245D02*
X007000Y021245D01*
X007000Y021323D02*
X001918Y021323D01*
X001898Y021402D02*
X006471Y021402D01*
X006349Y021480D02*
X001850Y021480D01*
X001735Y021559D02*
X006273Y021559D01*
X006241Y021637D02*
X001039Y021637D01*
X001070Y021716D02*
X006210Y021716D01*
X006210Y021794D02*
X001070Y021794D01*
X001070Y021873D02*
X006210Y021873D01*
X006238Y021951D02*
X001042Y021951D01*
X001009Y022030D02*
X006271Y022030D01*
X006343Y022108D02*
X000937Y022108D01*
X001007Y021559D02*
X001545Y021559D01*
X001430Y021480D02*
X000931Y021480D01*
X000809Y021402D02*
X001382Y021402D01*
X001362Y021323D02*
X000280Y021323D01*
X000280Y021245D02*
X001362Y021245D01*
X001311Y021166D02*
X000873Y021166D01*
X000958Y021088D02*
X001250Y021088D01*
X001250Y021009D02*
X001018Y021009D01*
X001050Y020931D02*
X001250Y020931D01*
X001250Y020852D02*
X001070Y020852D01*
X001070Y020774D02*
X001250Y020774D01*
X001250Y020695D02*
X001063Y020695D01*
X001031Y020617D02*
X001250Y020617D01*
X001183Y020538D02*
X000989Y020538D01*
X000911Y020460D02*
X001105Y020460D01*
X001026Y020381D02*
X000759Y020381D01*
X000733Y020224D02*
X000869Y020224D01*
X000948Y020303D02*
X000280Y020303D01*
X000280Y020381D02*
X000521Y020381D01*
X000547Y020224D02*
X000280Y020224D01*
X000280Y020146D02*
X000380Y020146D01*
X000302Y020067D02*
X000280Y020067D01*
X000280Y020460D02*
X000369Y020460D01*
X000291Y020538D02*
X000280Y020538D01*
X000280Y021088D02*
X000322Y021088D01*
X000280Y021166D02*
X000407Y021166D01*
X000471Y021402D02*
X000280Y021402D01*
X000280Y021480D02*
X000349Y021480D01*
X001030Y019989D02*
X005900Y019989D01*
X005900Y020067D02*
X001108Y020067D01*
X001187Y020146D02*
X005900Y020146D01*
X005900Y020224D02*
X001265Y020224D01*
X001344Y020303D02*
X005948Y020303D01*
X006026Y020381D02*
X001422Y020381D01*
X001501Y020460D02*
X006105Y020460D01*
X006183Y020538D02*
X001530Y020538D01*
X001530Y020617D02*
X006249Y020617D01*
X006217Y020695D02*
X001530Y020695D01*
X001530Y020774D02*
X006210Y020774D01*
X006210Y020852D02*
X001530Y020852D01*
X001530Y020931D02*
X006230Y020931D01*
X006262Y021009D02*
X001550Y021009D01*
X001824Y021088D02*
X006322Y021088D01*
X005900Y019910D02*
X003820Y019910D01*
X003885Y019832D02*
X005900Y019832D01*
X005900Y019753D02*
X003918Y019753D01*
X003918Y019675D02*
X005900Y019675D01*
X005900Y019596D02*
X003939Y019596D01*
X003778Y019361D02*
X000280Y019361D01*
X000280Y019439D02*
X000390Y019439D01*
X000311Y019518D02*
X000280Y019518D01*
X000280Y019125D02*
X000360Y019125D01*
X000280Y019047D02*
X000281Y019047D01*
X000280Y018497D02*
X000332Y018497D01*
X000280Y018419D02*
X000430Y018419D01*
X000448Y018183D02*
X000280Y018183D01*
X000280Y018105D02*
X000339Y018105D01*
X000280Y018262D02*
X002280Y018262D01*
X002280Y018340D02*
X000280Y018340D01*
X000280Y017477D02*
X000352Y017477D01*
X000280Y017398D02*
X000480Y017398D01*
X000399Y017163D02*
X000280Y017163D01*
X000280Y017241D02*
X002379Y017241D01*
X002379Y017163D02*
X000881Y017163D01*
X000961Y017084D02*
X002379Y017084D01*
X002378Y017006D02*
X001019Y017006D01*
X001052Y016927D02*
X002378Y016927D01*
X002378Y016849D02*
X001070Y016849D01*
X001070Y016770D02*
X002378Y016770D01*
X002378Y016692D02*
X001062Y016692D01*
X001029Y016613D02*
X002378Y016613D01*
X002378Y016535D02*
X000986Y016535D01*
X000907Y016456D02*
X002378Y016456D01*
X002377Y016378D02*
X000751Y016378D01*
X000319Y017084D02*
X000280Y017084D01*
X000280Y017320D02*
X002379Y017320D01*
X002379Y017398D02*
X000800Y017398D01*
X000928Y017477D02*
X002379Y017477D01*
X002379Y017555D02*
X001005Y017555D01*
X001070Y017791D02*
X002380Y017791D01*
X002380Y017869D02*
X001070Y017869D01*
X001043Y017948D02*
X002363Y017948D01*
X002285Y018026D02*
X001011Y018026D01*
X000941Y018105D02*
X002280Y018105D01*
X002280Y018183D02*
X000832Y018183D01*
X000850Y018419D02*
X002280Y018419D01*
X002280Y018497D02*
X000948Y018497D01*
X001014Y018576D02*
X002280Y018576D01*
X002280Y018654D02*
X001046Y018654D01*
X001070Y018733D02*
X002349Y018733D01*
X002380Y018811D02*
X001070Y018811D01*
X001067Y018890D02*
X002380Y018890D01*
X002435Y018968D02*
X001035Y018968D01*
X000999Y019047D02*
X005542Y019047D01*
X005464Y019125D02*
X000920Y019125D01*
X000791Y015200D02*
X002376Y015200D01*
X003019Y018183D02*
X004411Y018183D01*
X004345Y018262D02*
X003056Y018262D01*
X003068Y018340D02*
X004264Y018340D01*
X004177Y018419D02*
X003061Y018419D01*
X003029Y018497D02*
X004090Y018497D01*
X004002Y018576D02*
X002955Y018576D01*
X002700Y018654D02*
X003915Y018654D01*
X004045Y018968D02*
X005621Y018968D01*
X005699Y018890D02*
X004132Y018890D01*
X004219Y018811D02*
X005778Y018811D01*
X005856Y018733D02*
X004306Y018733D01*
X004394Y018654D02*
X004484Y018654D01*
X004300Y016770D02*
X003610Y016770D01*
X003681Y016692D02*
X004300Y016692D01*
X004300Y016613D02*
X003714Y016613D01*
X003718Y016535D02*
X004300Y016535D01*
X004300Y016456D02*
X003703Y016456D01*
X003664Y016378D02*
X004300Y016378D01*
X005467Y019518D02*
X005900Y019518D01*
X005839Y019439D02*
X005546Y019439D01*
X005624Y019361D02*
X005786Y019361D01*
X005762Y019282D02*
X005703Y019282D01*
X006832Y018183D02*
X007000Y018183D01*
X007000Y018105D02*
X006941Y018105D01*
X007000Y018419D02*
X006850Y018419D01*
X006948Y018497D02*
X007000Y018497D01*
X006958Y021088D02*
X007000Y021088D01*
X007000Y021166D02*
X006873Y021166D01*
X006809Y021402D02*
X007000Y021402D01*
X007000Y021480D02*
X006931Y021480D01*
X003640Y012297D02*
X003640Y011047D01*
X004778Y008392D02*
X004778Y008392D01*
X005800Y005623D02*
X007000Y005623D01*
X007000Y005545D02*
X005936Y005545D01*
X005992Y005466D02*
X007000Y005466D01*
X007000Y005388D02*
X006018Y005388D01*
X006018Y005309D02*
X007000Y005309D01*
X007000Y005231D02*
X005993Y005231D01*
X005938Y005152D02*
X007000Y005152D01*
X007000Y005074D02*
X005806Y005074D01*
X005434Y003896D02*
X007000Y003896D01*
X007000Y003818D02*
X005541Y003818D01*
X005402Y003504D02*
X000280Y003504D01*
X000280Y003582D02*
X005321Y003582D01*
X005214Y003661D02*
X000280Y003661D01*
X000280Y003739D02*
X005107Y003739D01*
X005220Y004053D02*
X007000Y004053D01*
X007000Y003975D02*
X005327Y003975D01*
X005113Y004132D02*
X007000Y004132D01*
X007000Y004210D02*
X005006Y004210D01*
X004899Y004289D02*
X007000Y004289D01*
X007000Y004367D02*
X004792Y004367D01*
X004685Y004446D02*
X007000Y004446D01*
X007000Y004524D02*
X004578Y004524D01*
X004471Y004603D02*
X007000Y004603D01*
X007000Y004681D02*
X004364Y004681D01*
X004358Y004289D02*
X000280Y004289D01*
X000280Y004210D02*
X004465Y004210D01*
X004572Y004132D02*
X000280Y004132D01*
X000280Y004053D02*
X004679Y004053D01*
X004786Y003975D02*
X000280Y003975D01*
X000280Y003896D02*
X004893Y003896D01*
X005000Y003818D02*
X000280Y003818D01*
X000280Y003425D02*
X005417Y003425D01*
X005457Y003347D02*
X000280Y003347D01*
X000280Y003268D02*
X005554Y003268D01*
X005806Y003268D02*
X007000Y003268D01*
X007000Y003190D02*
X000280Y003190D01*
X000280Y003111D02*
X007000Y003111D01*
X007000Y003033D02*
X000280Y003033D01*
X000280Y002954D02*
X007000Y002954D01*
X007000Y003347D02*
X005903Y003347D01*
X005943Y003425D02*
X007000Y003425D01*
X007000Y003504D02*
X005958Y003504D01*
X005954Y003582D02*
X007000Y003582D01*
X007000Y003661D02*
X005922Y003661D01*
X005851Y003739D02*
X007000Y003739D01*
X001490Y003897D02*
X001420Y003937D01*
X000313Y008135D02*
X000280Y008135D01*
X000280Y008371D02*
X000546Y008371D01*
X000380Y008449D02*
X000280Y008449D01*
X000280Y008528D02*
X000301Y008528D01*
X000280Y009391D02*
X000496Y009391D01*
X000359Y009470D02*
X000280Y009470D01*
X000280Y009548D02*
X000281Y009548D01*
X000280Y010098D02*
X000332Y010098D01*
X000280Y010176D02*
X000431Y010176D01*
X000447Y010412D02*
X000280Y010412D01*
X000280Y010490D02*
X000339Y010490D01*
X000353Y011118D02*
X000280Y011118D01*
X000280Y011197D02*
X000481Y011197D01*
D14*
X002520Y005447D02*
X002540Y017997D01*
X002440Y018097D01*
X002440Y018597D01*
X002540Y018697D01*
X002540Y018847D01*
X003940Y018847D01*
X004440Y018397D01*
X004590Y018397D01*
X002790Y018347D02*
X002740Y005647D01*
X003690Y005397D01*
X005440Y005397D01*
X005740Y005347D01*
X005680Y003517D02*
X003540Y005087D01*
X002520Y005447D01*
X003590Y010047D02*
X003590Y010097D01*
D15*
X005820Y004327D02*
X005830Y004327D01*
D16*
X002290Y005247D02*
X002290Y011847D01*
X002140Y011997D01*
X002070Y012137D01*
X002290Y005247D02*
X001410Y005237D01*
M02*
