%
M48
M72
T01C0.0236
T02C0.0315
T03C0.0394
%
T01
X2235Y4001
X2175Y4891
X4205Y6111
X4705Y6321
X5215Y6181
X5025Y8401
X5305Y9401
X5855Y9401
X4755Y10801
X4455Y10051
X4505Y12301
X4505Y14301
X4505Y15801
X4305Y16551
X3595Y18351
X4505Y19701
X5455Y18401
X6205Y18401
X6655Y18201
X6905Y19251
X2835Y12171
X2505Y13301
X6105Y5351
X6195Y4331
X5545Y4021
T02
X8505Y7801
X8505Y8801
X8505Y9801
X8505Y10801
X8505Y11801
X8505Y12801
X8505Y13801
X8505Y14801
X8505Y15801
X8505Y16801
X8505Y17801
X8505Y18801
X8505Y19801
X8505Y20801
X8505Y21801
X505Y21801
X505Y20801
X505Y19801
X505Y18801
X505Y17801
X505Y16801
X505Y15801
X505Y14801
X505Y13801
X505Y12801
X505Y11801
X505Y10801
X505Y9801
X505Y8801
X505Y7801
T03
X1505Y7801
X1505Y8801
X1505Y9801
X1505Y10801
X1505Y11801
X1505Y12801
X1505Y13801
X1505Y14801
X1505Y15801
X1505Y16801
X1505Y17801
X1505Y18801
X1505Y19801
X1505Y20801
X1505Y21801
X7505Y21801
X7505Y20801
X7505Y19801
X7505Y18801
X7505Y17801
X7505Y16801
X7505Y15801
X7505Y14801
X7505Y13801
X7505Y12801
X7505Y11801
X7505Y10801
X7505Y9801
X7505Y8801
X7505Y7801
M30
