G75*
%MOIN*%
%OFA0B0*%
%FSLAX24Y24*%
%IPPOS*%
%LPD*%
%AMOC8*
5,1,8,0,0,1.08239X$1,22.5*
%
%ADD10C,0.0000*%
%ADD11C,0.0040*%
%ADD12C,0.0030*%
%ADD13C,0.0100*%
%ADD14C,0.0080*%
D10*
X000150Y000200D02*
X000150Y019020D01*
X007142Y019020D01*
X007142Y000200D01*
X000150Y000200D01*
X006223Y001409D02*
X006225Y001435D01*
X006231Y001461D01*
X006241Y001486D01*
X006254Y001509D01*
X006270Y001529D01*
X006290Y001547D01*
X006312Y001562D01*
X006335Y001574D01*
X006361Y001582D01*
X006387Y001586D01*
X006413Y001586D01*
X006439Y001582D01*
X006465Y001574D01*
X006489Y001562D01*
X006510Y001547D01*
X006530Y001529D01*
X006546Y001509D01*
X006559Y001486D01*
X006569Y001461D01*
X006575Y001435D01*
X006577Y001409D01*
X006575Y001383D01*
X006569Y001357D01*
X006559Y001332D01*
X006546Y001309D01*
X006530Y001289D01*
X006510Y001271D01*
X006488Y001256D01*
X006465Y001244D01*
X006439Y001236D01*
X006413Y001232D01*
X006387Y001232D01*
X006361Y001236D01*
X006335Y001244D01*
X006311Y001256D01*
X006290Y001271D01*
X006270Y001289D01*
X006254Y001309D01*
X006241Y001332D01*
X006231Y001357D01*
X006225Y001383D01*
X006223Y001409D01*
X006223Y002591D02*
X006225Y002617D01*
X006231Y002643D01*
X006241Y002668D01*
X006254Y002691D01*
X006270Y002711D01*
X006290Y002729D01*
X006312Y002744D01*
X006335Y002756D01*
X006361Y002764D01*
X006387Y002768D01*
X006413Y002768D01*
X006439Y002764D01*
X006465Y002756D01*
X006489Y002744D01*
X006510Y002729D01*
X006530Y002711D01*
X006546Y002691D01*
X006559Y002668D01*
X006569Y002643D01*
X006575Y002617D01*
X006577Y002591D01*
X006575Y002565D01*
X006569Y002539D01*
X006559Y002514D01*
X006546Y002491D01*
X006530Y002471D01*
X006510Y002453D01*
X006488Y002438D01*
X006465Y002426D01*
X006439Y002418D01*
X006413Y002414D01*
X006387Y002414D01*
X006361Y002418D01*
X006335Y002426D01*
X006311Y002438D01*
X006290Y002453D01*
X006270Y002471D01*
X006254Y002491D01*
X006241Y002514D01*
X006231Y002539D01*
X006225Y002565D01*
X006223Y002591D01*
D11*
X004529Y005880D02*
X004222Y005880D01*
X004222Y005420D01*
X004222Y005650D02*
X004375Y005650D01*
X004068Y005650D02*
X003992Y005573D01*
X003762Y005573D01*
X003762Y005420D02*
X003762Y005880D01*
X003992Y005880D01*
X004068Y005804D01*
X004068Y005650D01*
X003915Y005573D02*
X004068Y005420D01*
X003608Y005497D02*
X003608Y005650D01*
X003531Y005727D01*
X003378Y005727D01*
X003301Y005650D01*
X003301Y005497D01*
X003378Y005420D01*
X003531Y005420D01*
X003608Y005497D01*
X003148Y005420D02*
X003148Y005650D01*
X003071Y005727D01*
X002841Y005727D01*
X002841Y005420D01*
X002687Y005420D02*
X002457Y005420D01*
X002380Y005497D01*
X002457Y005573D01*
X002687Y005573D01*
X002687Y005650D02*
X002687Y005420D01*
X002687Y005650D02*
X002611Y005727D01*
X002457Y005727D01*
X002227Y005650D02*
X002227Y005420D01*
X002227Y005650D02*
X002150Y005727D01*
X001920Y005727D01*
X001920Y005420D01*
X001997Y015270D02*
X001920Y015347D01*
X001997Y015270D02*
X002150Y015270D01*
X002227Y015347D01*
X002227Y015423D01*
X002150Y015500D01*
X001997Y015500D01*
X001920Y015577D01*
X001920Y015654D01*
X001997Y015730D01*
X002150Y015730D01*
X002227Y015654D01*
X002380Y015730D02*
X002380Y015270D01*
X002687Y015270D01*
X002841Y015270D02*
X003071Y015270D01*
X003148Y015347D01*
X003071Y015423D01*
X002918Y015423D01*
X002841Y015500D01*
X002918Y015577D01*
X003148Y015577D01*
X003301Y015500D02*
X003378Y015577D01*
X003531Y015577D01*
X003608Y015500D01*
X003608Y015270D01*
X003762Y015347D02*
X003762Y015500D01*
X003838Y015577D01*
X003992Y015577D01*
X004068Y015500D01*
X004068Y015423D01*
X003762Y015423D01*
X003762Y015347D02*
X003838Y015270D01*
X003992Y015270D01*
X004222Y015270D02*
X004222Y015577D01*
X004452Y015577D01*
X004529Y015500D01*
X004529Y015270D01*
X004682Y015270D02*
X004682Y015730D01*
X004913Y015577D02*
X004682Y015423D01*
X004913Y015270D01*
X005066Y015347D02*
X005143Y015423D01*
X005373Y015423D01*
X005373Y015500D02*
X005373Y015270D01*
X005143Y015270D01*
X005066Y015347D01*
X005143Y015577D02*
X005296Y015577D01*
X005373Y015500D01*
X005526Y015423D02*
X005680Y015577D01*
X005757Y015577D01*
X005526Y015577D02*
X005526Y015270D01*
X005143Y018120D02*
X005143Y018580D01*
X005450Y018580D01*
X005296Y018350D02*
X005143Y018350D01*
X004989Y018350D02*
X004913Y018273D01*
X004682Y018273D01*
X004682Y018120D02*
X004682Y018580D01*
X004913Y018580D01*
X004989Y018504D01*
X004989Y018350D01*
X004836Y018273D02*
X004989Y018120D01*
X004529Y018350D02*
X004222Y018350D01*
X004452Y018580D01*
X004452Y018120D01*
X004068Y018120D02*
X003762Y018120D01*
X004068Y018427D01*
X004068Y018504D01*
X003992Y018580D01*
X003838Y018580D01*
X003762Y018504D01*
X003608Y018350D02*
X003608Y018197D01*
X003531Y018120D01*
X003378Y018120D01*
X003301Y018197D01*
X003301Y018350D01*
X003378Y018427D01*
X003531Y018427D01*
X003608Y018350D01*
X003148Y018350D02*
X003148Y018120D01*
X003148Y018350D02*
X003071Y018427D01*
X002841Y018427D01*
X002841Y018120D01*
X002687Y018120D02*
X002687Y018350D01*
X002611Y018427D01*
X002457Y018427D01*
X002457Y018273D02*
X002380Y018197D01*
X002457Y018120D01*
X002687Y018120D01*
X002687Y018273D02*
X002457Y018273D01*
X002227Y018350D02*
X002227Y018120D01*
X002227Y018350D02*
X002150Y018427D01*
X001920Y018427D01*
X001920Y018120D01*
X002380Y015730D02*
X002687Y015730D01*
X002534Y015500D02*
X002380Y015500D01*
X003301Y015730D02*
X003301Y015270D01*
D12*
X004262Y017615D02*
X004165Y017808D01*
X004358Y017808D02*
X004262Y017615D01*
X004460Y017615D02*
X004653Y017615D01*
X004556Y017615D02*
X004556Y017905D01*
X004460Y017808D01*
X005588Y017075D02*
X005699Y016982D01*
X005768Y016988D01*
X005892Y017136D01*
X005886Y017204D01*
X005775Y017297D01*
X005588Y017075D01*
X005814Y016886D02*
X005962Y016761D01*
X005888Y016823D02*
X006075Y017046D01*
X005938Y017034D01*
X006040Y016696D02*
X006188Y016572D01*
X006114Y016634D02*
X006300Y016856D01*
X006164Y016844D01*
X006288Y017472D02*
X006140Y017596D01*
X006412Y017620D01*
X006443Y017657D01*
X006437Y017725D01*
X006363Y017787D01*
X006295Y017781D01*
X006175Y017946D02*
X005988Y017723D01*
X006062Y017661D02*
X005914Y017786D01*
X005868Y017888D02*
X005992Y018036D01*
X005986Y018104D01*
X005875Y018197D01*
X005688Y017975D01*
X005799Y017882D01*
X005868Y017888D01*
X006038Y017934D02*
X006175Y017946D01*
X005775Y016247D02*
X005886Y016154D01*
X005892Y016086D01*
X005768Y015938D01*
X005699Y015932D01*
X005588Y016025D01*
X005775Y016247D01*
X005938Y015984D02*
X006075Y015996D01*
X005888Y015773D01*
X005962Y015711D02*
X005814Y015836D01*
X005943Y015353D02*
X005895Y015305D01*
X005895Y015208D01*
X005943Y015160D01*
X005992Y015160D01*
X006040Y015208D01*
X006040Y015353D01*
X006137Y015353D02*
X005943Y015353D01*
X005943Y015058D02*
X005895Y015010D01*
X005895Y014865D01*
X006185Y014865D01*
X006185Y015010D01*
X006137Y015058D01*
X005943Y015058D01*
X006137Y015160D02*
X006185Y015208D01*
X006185Y015305D01*
X006137Y015353D01*
X006151Y015553D02*
X006077Y015615D01*
X006071Y015683D01*
X006343Y015707D01*
X006219Y015559D01*
X006151Y015553D01*
X006071Y015683D02*
X006195Y015831D01*
X006263Y015837D01*
X006337Y015775D01*
X006343Y015707D01*
X006137Y014403D02*
X006185Y014355D01*
X006185Y014258D01*
X006137Y014210D01*
X006088Y014210D01*
X006040Y014258D01*
X006040Y014355D01*
X006088Y014403D01*
X006137Y014403D01*
X006040Y014355D02*
X005992Y014403D01*
X005943Y014403D01*
X005895Y014355D01*
X005895Y014258D01*
X005943Y014210D01*
X005992Y014210D01*
X006040Y014258D01*
X006137Y014108D02*
X005943Y014108D01*
X005895Y014060D01*
X005895Y013915D01*
X006185Y013915D01*
X006185Y014060D01*
X006137Y014108D01*
X005943Y013453D02*
X005895Y013453D01*
X005895Y013260D01*
X005943Y013158D02*
X005895Y013110D01*
X005895Y012965D01*
X006185Y012965D01*
X006185Y013110D01*
X006137Y013158D01*
X005943Y013158D01*
X006137Y013260D02*
X005943Y013453D01*
X006137Y013260D02*
X006185Y013260D01*
X006137Y012353D02*
X006088Y012353D01*
X006040Y012305D01*
X006040Y012160D01*
X006137Y012160D01*
X006185Y012208D01*
X006185Y012305D01*
X006137Y012353D01*
X005943Y012256D02*
X006040Y012160D01*
X005943Y012256D02*
X005895Y012353D01*
X005943Y012058D02*
X005895Y012010D01*
X005895Y011865D01*
X006185Y011865D01*
X006185Y012010D01*
X006137Y012058D01*
X005943Y012058D01*
X005895Y011403D02*
X005895Y011210D01*
X006040Y011210D01*
X005992Y011306D01*
X005992Y011355D01*
X006040Y011403D01*
X006137Y011403D01*
X006185Y011355D01*
X006185Y011258D01*
X006137Y011210D01*
X006137Y011108D02*
X005943Y011108D01*
X005895Y011060D01*
X005895Y010915D01*
X006185Y010915D01*
X006185Y011060D01*
X006137Y011108D01*
X006040Y010453D02*
X006040Y010260D01*
X005895Y010405D01*
X006185Y010405D01*
X006137Y010158D02*
X005943Y010158D01*
X005895Y010110D01*
X005895Y009965D01*
X006185Y009965D01*
X006185Y010110D01*
X006137Y010158D01*
X006137Y009403D02*
X006185Y009355D01*
X006185Y009258D01*
X006137Y009210D01*
X006137Y009108D02*
X005943Y009108D01*
X005895Y009060D01*
X005895Y008915D01*
X006185Y008915D01*
X006185Y009060D01*
X006137Y009108D01*
X006040Y009306D02*
X006040Y009355D01*
X006088Y009403D01*
X006137Y009403D01*
X006040Y009355D02*
X005992Y009403D01*
X005943Y009403D01*
X005895Y009355D01*
X005895Y009258D01*
X005943Y009210D01*
X005943Y008403D02*
X005895Y008355D01*
X005895Y008258D01*
X005943Y008210D01*
X005943Y008108D02*
X005895Y008060D01*
X005895Y007915D01*
X006185Y007915D01*
X006185Y008060D01*
X006137Y008108D01*
X005943Y008108D01*
X006185Y008210D02*
X005992Y008403D01*
X005943Y008403D01*
X006185Y008403D02*
X006185Y008210D01*
X006137Y007598D02*
X005943Y007598D01*
X005895Y007549D01*
X005895Y007404D01*
X006185Y007404D01*
X006185Y007549D01*
X006137Y007598D01*
X006185Y007303D02*
X005895Y007303D01*
X005895Y007110D02*
X006185Y007303D01*
X006185Y007110D02*
X005895Y007110D01*
X005943Y007008D02*
X005895Y006960D01*
X005895Y006863D01*
X005943Y006815D01*
X006137Y006815D01*
X006185Y006863D01*
X006185Y006960D01*
X006137Y007008D01*
X006040Y007008D01*
X006040Y006912D01*
X006088Y006403D02*
X005895Y006403D01*
X005895Y006210D02*
X006088Y006210D01*
X006185Y006306D01*
X006088Y006403D01*
X006040Y006108D02*
X005992Y006060D01*
X005992Y006012D01*
X006040Y005915D01*
X005895Y005915D01*
X005895Y006108D01*
X006040Y006108D02*
X006137Y006108D01*
X006185Y006060D01*
X006185Y005963D01*
X006137Y005915D01*
X006255Y005353D02*
X005965Y005160D01*
X006013Y005058D02*
X005965Y005010D01*
X005965Y004865D01*
X006255Y004865D01*
X006158Y004865D02*
X006158Y005010D01*
X006110Y005058D01*
X006013Y005058D01*
X006255Y005160D02*
X005965Y005353D01*
X006255Y005058D02*
X006158Y004962D01*
X006205Y004403D02*
X005915Y004210D01*
X005915Y004108D02*
X005915Y003915D01*
X005915Y004012D02*
X006205Y004012D01*
X006205Y004210D02*
X005915Y004403D01*
X005735Y003208D02*
X005365Y003208D01*
X005365Y002961D02*
X005735Y003208D01*
X005735Y002961D02*
X005365Y002961D01*
X005426Y002840D02*
X005365Y002778D01*
X005365Y002654D01*
X005426Y002593D01*
X005673Y002593D01*
X005735Y002654D01*
X005735Y002778D01*
X005673Y002840D01*
X005426Y002840D01*
X005365Y002470D02*
X005735Y002470D01*
X005550Y002225D02*
X005550Y002102D01*
X005550Y001857D02*
X005550Y001733D01*
X005673Y001612D02*
X005426Y001612D01*
X005365Y001550D01*
X005365Y001427D01*
X005426Y001365D01*
X005673Y001365D01*
X005735Y001427D01*
X005735Y001550D01*
X005673Y001612D01*
X005735Y001733D02*
X005365Y001733D01*
X005365Y001980D01*
X005365Y002102D02*
X005365Y002349D01*
X005365Y002102D02*
X005735Y002102D01*
X002594Y009662D02*
X002662Y009731D01*
X002662Y009799D01*
X002594Y009662D02*
X002525Y009662D01*
X002389Y009799D01*
X002389Y009868D01*
X002457Y009936D01*
X002525Y009936D01*
X002563Y010042D02*
X002768Y009837D01*
X002905Y009973D01*
X002524Y010614D02*
X002627Y010716D01*
X002627Y010785D01*
X002490Y010921D01*
X002422Y010921D01*
X002319Y010819D01*
X002524Y010614D01*
X002418Y010576D02*
X002418Y010508D01*
X002350Y010439D01*
X002282Y010439D01*
X002247Y010542D02*
X002316Y010610D01*
X002384Y010610D01*
X002418Y010576D01*
X002247Y010542D02*
X002179Y010542D01*
X002145Y010576D01*
X002145Y010645D01*
X002213Y010713D01*
X002282Y010713D01*
X002596Y010959D02*
X002596Y011096D01*
X002733Y011096D01*
X002869Y010959D01*
X002767Y011061D02*
X002630Y010925D01*
X002596Y010959D02*
X002733Y010822D01*
X002317Y009728D02*
X002249Y009728D01*
X002180Y009659D01*
X002180Y009591D01*
X002214Y009557D01*
X002283Y009557D01*
X002351Y009625D01*
X002420Y009625D01*
X002454Y009591D01*
X002454Y009523D01*
X002385Y009454D01*
X002317Y009454D01*
X001385Y009305D02*
X001385Y009208D01*
X001337Y009160D01*
X001240Y009160D01*
X001240Y009305D01*
X001288Y009353D01*
X001337Y009353D01*
X001385Y009305D01*
X001240Y009160D02*
X001143Y009256D01*
X001095Y009353D01*
X001192Y009058D02*
X001095Y008962D01*
X001192Y008865D01*
X001385Y008865D01*
X001385Y009058D02*
X001192Y009058D01*
X001240Y009058D02*
X001240Y008865D01*
X001143Y008303D02*
X001337Y008110D01*
X001385Y008110D01*
X001385Y008008D02*
X001192Y008008D01*
X001095Y007912D01*
X001192Y007815D01*
X001385Y007815D01*
X001240Y007815D02*
X001240Y008008D01*
X001095Y008110D02*
X001095Y008303D01*
X001143Y008303D01*
X001095Y007403D02*
X001288Y007403D01*
X001385Y007306D01*
X001288Y007210D01*
X001095Y007210D01*
X001095Y007108D02*
X001095Y006915D01*
X001240Y006915D01*
X001192Y007012D01*
X001192Y007060D01*
X001240Y007108D01*
X001337Y007108D01*
X001385Y007060D01*
X001385Y006963D01*
X001337Y006915D01*
X001385Y006501D02*
X001095Y006501D01*
X001095Y006404D02*
X001095Y006598D01*
X001143Y006303D02*
X001095Y006255D01*
X001095Y006158D01*
X001143Y006110D01*
X001192Y006110D01*
X001240Y006158D01*
X001240Y006255D01*
X001288Y006303D01*
X001337Y006303D01*
X001385Y006255D01*
X001385Y006158D01*
X001337Y006110D01*
X001385Y006008D02*
X001288Y005912D01*
X001288Y005960D02*
X001288Y005815D01*
X001288Y005960D02*
X001240Y006008D01*
X001143Y006008D01*
X001095Y005960D01*
X001095Y005815D01*
X001385Y005815D01*
X001337Y005548D02*
X001143Y005548D01*
X001095Y005499D01*
X001095Y005354D01*
X001385Y005354D01*
X001385Y005499D01*
X001337Y005548D01*
X001385Y005253D02*
X001095Y005253D01*
X001095Y005060D02*
X001385Y005253D01*
X001385Y005060D02*
X001095Y005060D01*
X001143Y004958D02*
X001095Y004910D01*
X001095Y004813D01*
X001143Y004765D01*
X001337Y004765D01*
X001385Y004813D01*
X001385Y004910D01*
X001337Y004958D01*
X001240Y004958D01*
X001240Y004862D01*
X001500Y004379D02*
X001705Y004173D01*
X001363Y004242D01*
X001568Y004037D01*
X001497Y003966D02*
X001429Y003898D01*
X001463Y003932D02*
X001258Y004137D01*
X001224Y004103D02*
X001292Y004171D01*
X001152Y004031D02*
X001289Y003895D01*
X001289Y003758D01*
X001152Y003758D01*
X001015Y003895D01*
X001465Y003394D02*
X001363Y003292D01*
X001568Y003087D01*
X001671Y003189D01*
X001671Y003258D01*
X001534Y003394D01*
X001465Y003394D01*
X001291Y003220D02*
X001496Y003015D01*
X001154Y003083D01*
X001360Y002878D01*
X001254Y002841D02*
X001185Y002909D01*
X001117Y002841D01*
X001117Y002978D02*
X001049Y002978D01*
X000980Y002909D01*
X000980Y002841D01*
X001117Y002704D01*
X001185Y002704D01*
X001254Y002773D01*
X001254Y002841D01*
X001463Y002392D02*
X001668Y002187D01*
X001668Y002323D01*
X001805Y002323D01*
X001600Y002529D01*
X001460Y002252D02*
X001596Y002115D01*
X001494Y002218D02*
X001357Y002081D01*
X001323Y002115D02*
X001323Y002252D01*
X001460Y002252D01*
X001323Y002115D02*
X001460Y001978D01*
X001388Y001907D02*
X001251Y001907D01*
X001285Y001941D02*
X001183Y001838D01*
X001251Y001770D02*
X001046Y001975D01*
X001149Y002078D01*
X001217Y002078D01*
X001285Y002009D01*
X001285Y001941D01*
X001240Y009865D02*
X001240Y010058D01*
X001192Y010058D02*
X001385Y010058D01*
X001337Y010160D02*
X001385Y010208D01*
X001385Y010305D01*
X001337Y010353D01*
X001240Y010353D01*
X001192Y010305D01*
X001192Y010256D01*
X001240Y010160D01*
X001095Y010160D01*
X001095Y010353D01*
X001192Y010058D02*
X001095Y009962D01*
X001192Y009865D01*
X001385Y009865D01*
X001385Y010915D02*
X001192Y010915D01*
X001095Y011012D01*
X001192Y011108D01*
X001385Y011108D01*
X001385Y011355D02*
X001095Y011355D01*
X001240Y011210D01*
X001240Y011403D01*
X001240Y011108D02*
X001240Y010915D01*
X001240Y011915D02*
X001240Y012108D01*
X001192Y012108D02*
X001385Y012108D01*
X001337Y012210D02*
X001385Y012258D01*
X001385Y012355D01*
X001337Y012403D01*
X001288Y012403D01*
X001240Y012355D01*
X001240Y012306D01*
X001240Y012355D02*
X001192Y012403D01*
X001143Y012403D01*
X001095Y012355D01*
X001095Y012258D01*
X001143Y012210D01*
X001192Y012108D02*
X001095Y012012D01*
X001192Y011915D01*
X001385Y011915D01*
X001385Y012965D02*
X001192Y012965D01*
X001095Y013062D01*
X001192Y013158D01*
X001385Y013158D01*
X001385Y013260D02*
X001192Y013453D01*
X001143Y013453D01*
X001095Y013405D01*
X001095Y013308D01*
X001143Y013260D01*
X001240Y013158D02*
X001240Y012965D01*
X001385Y013260D02*
X001385Y013453D01*
X001385Y013965D02*
X001192Y013965D01*
X001095Y014062D01*
X001192Y014158D01*
X001385Y014158D01*
X001385Y014260D02*
X001385Y014453D01*
X001385Y014356D02*
X001095Y014356D01*
X001192Y014260D01*
X001240Y014158D02*
X001240Y013965D01*
X001240Y014915D02*
X001240Y015108D01*
X001192Y015108D02*
X001385Y015108D01*
X001337Y015210D02*
X001385Y015258D01*
X001385Y015355D01*
X001337Y015403D01*
X001143Y015403D01*
X001337Y015210D01*
X001143Y015210D01*
X001095Y015258D01*
X001095Y015355D01*
X001143Y015403D01*
X001192Y015108D02*
X001095Y015012D01*
X001192Y014915D01*
X001385Y014915D01*
X001234Y015805D02*
X001166Y015805D01*
X001029Y015942D01*
X001029Y016011D01*
X001097Y016079D01*
X001166Y016079D01*
X001234Y016011D02*
X001166Y015942D01*
X001234Y016011D02*
X001303Y015942D01*
X001303Y015874D01*
X001234Y015805D01*
X001408Y015980D02*
X001203Y016185D01*
X001545Y016116D01*
X001340Y016322D01*
X001411Y016393D02*
X001514Y016496D01*
X001582Y016496D01*
X001719Y016359D01*
X001719Y016291D01*
X001617Y016188D01*
X001411Y016393D01*
X001327Y016798D02*
X001190Y016798D01*
X001053Y016935D01*
X001016Y016829D02*
X001050Y016795D01*
X001050Y016726D01*
X001118Y016726D01*
X001153Y016692D01*
X001153Y016624D01*
X001084Y016555D01*
X001016Y016555D01*
X001016Y016692D02*
X001050Y016726D01*
X001016Y016829D02*
X000947Y016829D01*
X000879Y016761D01*
X000879Y016692D01*
X001190Y017072D02*
X001327Y016935D01*
X001327Y016798D01*
X001432Y016972D02*
X001501Y016972D01*
X001569Y017041D01*
X001569Y017109D01*
X001535Y017143D01*
X001467Y017143D01*
X001432Y017109D01*
X001467Y017143D02*
X001467Y017212D01*
X001432Y017246D01*
X001364Y017246D01*
X001296Y017177D01*
X001296Y017109D01*
X001385Y017765D02*
X001095Y017765D01*
X001095Y017910D01*
X001143Y017958D01*
X001337Y017958D01*
X001385Y017910D01*
X001385Y017765D01*
X001385Y018060D02*
X001385Y018253D01*
X001385Y018156D02*
X001095Y018156D01*
X001192Y018060D01*
X001143Y018354D02*
X001095Y018403D01*
X001095Y018499D01*
X001143Y018548D01*
X001192Y018548D01*
X001240Y018499D01*
X001288Y018548D01*
X001337Y018548D01*
X001385Y018499D01*
X001385Y018403D01*
X001337Y018354D01*
X001240Y018451D02*
X001240Y018499D01*
D13*
X001950Y011550D02*
X002350Y011550D01*
X002650Y011250D01*
X002600Y010550D02*
X002600Y010150D01*
X002100Y009700D02*
X001900Y009700D01*
X001700Y009900D01*
X001700Y010350D01*
X001950Y010600D01*
X001950Y010750D01*
X001750Y010950D01*
X001750Y011350D01*
X001950Y011550D01*
X003050Y001400D02*
X003050Y000300D01*
X002500Y000500D02*
X002300Y000500D01*
X002300Y000300D01*
X002300Y000500D02*
X002300Y000700D01*
X002300Y000500D02*
X002100Y000500D01*
X001500Y000500D02*
X001050Y000500D01*
X003600Y000500D02*
X003800Y000500D01*
X003800Y000300D01*
X003800Y000500D02*
X003800Y000700D01*
X003800Y000500D02*
X004000Y000500D01*
X004600Y000550D02*
X005000Y000550D01*
D14*
X005888Y001331D02*
X005888Y002039D01*
X006243Y003339D02*
X006557Y003339D01*
X006912Y003142D02*
X006912Y000858D01*
X006557Y000661D02*
X006243Y000661D01*
M02*
