%
M48
M72
T01C0.0236
T02C0.0315
T03C0.0354
T04C0.0394
T05C0.0400
%
T01
X3650Y4900
X2650Y14750
T02
X2150Y16150
X2150Y17150
X3150Y17150
X3150Y16150
X4150Y16150
X4150Y17150
X5150Y17150
X5150Y16150
T03
X6400Y2591
X6400Y1409
T04
X650Y2200
X650Y3200
X650Y4150
X650Y5150
X650Y6150
X650Y7150
X650Y8150
X650Y9150
X650Y10150
X650Y11150
X650Y12150
X650Y13150
X650Y14150
X650Y15150
X650Y16150
X650Y17150
X650Y18150
X6650Y18150
X6650Y17150
X6650Y16150
X6650Y15150
X6650Y14150
X6650Y13150
X6650Y12150
X6650Y11150
X6650Y10150
X6650Y9150
X6650Y8150
X6650Y7150
X6650Y6150
X6650Y5150
X6650Y4150
X4800Y1150
X3800Y1150
X2300Y1150
X1300Y1150
T05
X2150Y9150
X2150Y10150
X2150Y11150
X2150Y12150
X2150Y13150
X2150Y14150
X3150Y14150
X3150Y13150
X3150Y12150
X3150Y11150
X3150Y10150
X3150Y9150
X4150Y9150
X4150Y10150
X4150Y11150
X4150Y12150
X4150Y13150
X4150Y14150
X5150Y14150
X5150Y13150
X5150Y12150
X5150Y11150
X5150Y10150
X5150Y9150
M30
