G75*
%MOIN*%
%OFA0B0*%
%FSLAX25Y25*%
%IPPOS*%
%LPD*%
%AMOC8*
5,1,8,0,0,1.08239X$1,22.5*
%
%ADD10C,0.00000*%
%ADD11R,0.08268X0.05000*%
%ADD12R,0.11024X0.05512*%
%ADD13R,0.04724X0.05512*%
%ADD14R,0.03150X0.04724*%
%ADD15R,0.16000X0.08000*%
%ADD16R,0.03543X0.09843*%
D10*
X0006800Y0027970D02*
X0006800Y0222970D01*
X0086800Y0222970D01*
X0086800Y0027970D01*
X0006800Y0027970D01*
D11*
X0036800Y0100175D03*
X0036800Y0115766D03*
X0036800Y0160175D03*
X0036800Y0175766D03*
X0056800Y0175766D03*
X0056800Y0160175D03*
X0056800Y0115766D03*
X0056800Y0100175D03*
D12*
X0056800Y0127852D03*
X0036800Y0127852D03*
X0036800Y0189852D03*
X0056800Y0189852D03*
D13*
X0052469Y0200089D03*
X0061131Y0200089D03*
X0041131Y0200089D03*
X0032469Y0200089D03*
X0032469Y0138089D03*
X0041131Y0138089D03*
X0052469Y0138089D03*
X0061131Y0138089D03*
D14*
X0060343Y0147970D03*
X0053257Y0147970D03*
X0040343Y0147970D03*
X0033257Y0147970D03*
X0033257Y0209970D03*
X0040343Y0209970D03*
X0053257Y0209970D03*
X0060343Y0209970D03*
D15*
X0085600Y0063370D03*
X0085600Y0053370D03*
X0085600Y0043370D03*
X0085600Y0033370D03*
X0009200Y0032970D03*
X0009200Y0042970D03*
X0009200Y0052970D03*
X0009200Y0062970D03*
D16*
X0033902Y0071722D03*
X0038902Y0071722D03*
X0043902Y0071722D03*
X0048902Y0071722D03*
X0053902Y0071722D03*
X0058902Y0071722D03*
X0063902Y0071722D03*
M02*
