G75*
%MOIN*%
%OFA0B0*%
%FSLAX24Y24*%
%IPPOS*%
%LPD*%
%AMOC8*
5,1,8,0,0,1.08239X$1,22.5*
%
%ADD10C,0.0000*%
%ADD11C,0.0515*%
%ADD12R,0.0515X0.0515*%
%ADD13R,0.1102X0.0551*%
%ADD14R,0.0472X0.0551*%
%ADD15R,0.0500X0.0827*%
%ADD16C,0.0660*%
%ADD17R,0.0472X0.0315*%
%ADD18OC8,0.0660*%
%ADD19C,0.0100*%
%ADD20C,0.0240*%
%ADD21C,0.0080*%
%ADD22R,0.0356X0.0356*%
%ADD23C,0.0320*%
D10*
X000150Y000200D02*
X000150Y019020D01*
X007142Y019020D01*
X007142Y000200D01*
X000150Y000200D01*
X006223Y001409D02*
X006225Y001435D01*
X006231Y001461D01*
X006241Y001486D01*
X006254Y001509D01*
X006270Y001529D01*
X006290Y001547D01*
X006312Y001562D01*
X006335Y001574D01*
X006361Y001582D01*
X006387Y001586D01*
X006413Y001586D01*
X006439Y001582D01*
X006465Y001574D01*
X006489Y001562D01*
X006510Y001547D01*
X006530Y001529D01*
X006546Y001509D01*
X006559Y001486D01*
X006569Y001461D01*
X006575Y001435D01*
X006577Y001409D01*
X006575Y001383D01*
X006569Y001357D01*
X006559Y001332D01*
X006546Y001309D01*
X006530Y001289D01*
X006510Y001271D01*
X006488Y001256D01*
X006465Y001244D01*
X006439Y001236D01*
X006413Y001232D01*
X006387Y001232D01*
X006361Y001236D01*
X006335Y001244D01*
X006311Y001256D01*
X006290Y001271D01*
X006270Y001289D01*
X006254Y001309D01*
X006241Y001332D01*
X006231Y001357D01*
X006225Y001383D01*
X006223Y001409D01*
X006223Y002591D02*
X006225Y002617D01*
X006231Y002643D01*
X006241Y002668D01*
X006254Y002691D01*
X006270Y002711D01*
X006290Y002729D01*
X006312Y002744D01*
X006335Y002756D01*
X006361Y002764D01*
X006387Y002768D01*
X006413Y002768D01*
X006439Y002764D01*
X006465Y002756D01*
X006489Y002744D01*
X006510Y002729D01*
X006530Y002711D01*
X006546Y002691D01*
X006559Y002668D01*
X006569Y002643D01*
X006575Y002617D01*
X006577Y002591D01*
X006575Y002565D01*
X006569Y002539D01*
X006559Y002514D01*
X006546Y002491D01*
X006530Y002471D01*
X006510Y002453D01*
X006488Y002438D01*
X006465Y002426D01*
X006439Y002418D01*
X006413Y002414D01*
X006387Y002414D01*
X006361Y002418D01*
X006335Y002426D01*
X006311Y002438D01*
X006290Y002453D01*
X006270Y002471D01*
X006254Y002491D01*
X006241Y002514D01*
X006231Y002539D01*
X006225Y002565D01*
X006223Y002591D01*
D11*
X005150Y016150D03*
X004150Y016150D03*
X004150Y017150D03*
X003150Y017150D03*
X003150Y016150D03*
X002150Y016150D03*
X002150Y017150D03*
D12*
X005150Y017150D03*
D13*
X005000Y006988D03*
X002200Y007038D03*
D14*
X001767Y008062D03*
X002633Y008062D03*
X004567Y008012D03*
X005433Y008012D03*
D15*
X005530Y003500D03*
X003970Y003500D03*
X003230Y003500D03*
X001670Y003500D03*
D16*
X000650Y003200D03*
X000650Y004150D03*
X000650Y005150D03*
X000650Y006150D03*
X000650Y007150D03*
X000650Y008150D03*
X000650Y009150D03*
X000650Y010150D03*
X000650Y011150D03*
X000650Y012150D03*
X000650Y013150D03*
X000650Y014150D03*
X000650Y015150D03*
X000650Y016150D03*
X000650Y017150D03*
X000650Y018150D03*
X006650Y018150D03*
X006650Y017150D03*
X006650Y016150D03*
X006650Y015150D03*
X006650Y014150D03*
X006650Y013150D03*
X006650Y012150D03*
X006650Y011150D03*
X006650Y010150D03*
X006650Y009150D03*
X006650Y008150D03*
X006650Y007150D03*
X006650Y006150D03*
X006650Y005150D03*
X006650Y004150D03*
X004800Y001150D03*
X003800Y001150D03*
X002300Y001150D03*
X001300Y001150D03*
X000650Y002200D03*
D17*
X003300Y006996D03*
X003300Y007704D03*
X003850Y007704D03*
X003850Y006996D03*
X001400Y010746D03*
X001350Y010104D03*
X001350Y009396D03*
X001400Y011454D03*
D18*
X002150Y011150D03*
X002150Y010150D03*
X002150Y009150D03*
X003150Y009150D03*
X003150Y010150D03*
X003150Y011150D03*
X003150Y012150D03*
X003150Y013150D03*
X003150Y014150D03*
X002150Y014150D03*
X002150Y013150D03*
X002150Y012150D03*
X004150Y012150D03*
X004150Y011150D03*
X004150Y010150D03*
X004150Y009150D03*
X005150Y009150D03*
X005150Y010150D03*
X005150Y011150D03*
X005150Y012150D03*
X005150Y013150D03*
X005150Y014150D03*
X004150Y014150D03*
X004150Y013150D03*
D19*
X004332Y013590D02*
X003968Y013590D01*
X003710Y013332D01*
X003710Y012968D01*
X003968Y012710D01*
X004332Y012710D01*
X004590Y012968D01*
X004590Y013332D01*
X004332Y013590D01*
X004332Y013710D02*
X004590Y013968D01*
X004590Y014332D01*
X004332Y014590D01*
X003968Y014590D01*
X003710Y014332D01*
X003710Y013968D01*
X003968Y013710D01*
X004332Y013710D01*
X004410Y013788D02*
X004890Y013788D01*
X004968Y013710D02*
X005332Y013710D01*
X005590Y013968D01*
X005590Y014332D01*
X005332Y014590D01*
X004968Y014590D01*
X004710Y014332D01*
X004710Y013968D01*
X004968Y013710D01*
X004968Y013590D02*
X004710Y013332D01*
X004710Y012968D01*
X004968Y012710D01*
X005332Y012710D01*
X005590Y012968D01*
X005590Y013332D01*
X005332Y013590D01*
X004968Y013590D01*
X004870Y013493D02*
X004430Y013493D01*
X004528Y013394D02*
X004772Y013394D01*
X004710Y013296D02*
X004590Y013296D01*
X004590Y013197D02*
X004710Y013197D01*
X004710Y013099D02*
X004590Y013099D01*
X004590Y013000D02*
X004710Y013000D01*
X004776Y012902D02*
X004524Y012902D01*
X004425Y012803D02*
X004875Y012803D01*
X004968Y012590D02*
X004710Y012332D01*
X004710Y011968D01*
X004968Y011710D01*
X005332Y011710D01*
X005590Y011968D01*
X005590Y012332D01*
X005332Y012590D01*
X004968Y012590D01*
X004885Y012508D02*
X004415Y012508D01*
X004332Y012590D02*
X003968Y012590D01*
X003710Y012332D01*
X003710Y011968D01*
X003968Y011710D01*
X004332Y011710D01*
X004590Y011968D01*
X004590Y012332D01*
X004332Y012590D01*
X004513Y012409D02*
X004787Y012409D01*
X004710Y012311D02*
X004590Y012311D01*
X004590Y012212D02*
X004710Y012212D01*
X004710Y012114D02*
X004590Y012114D01*
X004590Y012015D02*
X004710Y012015D01*
X004761Y011917D02*
X004539Y011917D01*
X004440Y011818D02*
X004860Y011818D01*
X004958Y011720D02*
X004342Y011720D01*
X004332Y011590D02*
X003968Y011590D01*
X003710Y011332D01*
X003710Y010968D01*
X003968Y010710D01*
X004332Y010710D01*
X004590Y010968D01*
X004590Y011332D01*
X004332Y011590D01*
X004400Y011523D02*
X004900Y011523D01*
X004968Y011590D02*
X004710Y011332D01*
X004710Y010968D01*
X004968Y010710D01*
X005332Y010710D01*
X005590Y010968D01*
X005590Y011332D01*
X005332Y011590D01*
X004968Y011590D01*
X004802Y011424D02*
X004498Y011424D01*
X004590Y011326D02*
X004710Y011326D01*
X004710Y011227D02*
X004590Y011227D01*
X004590Y011129D02*
X004710Y011129D01*
X004710Y011030D02*
X004590Y011030D01*
X004554Y010932D02*
X004746Y010932D01*
X004845Y010833D02*
X004455Y010833D01*
X004357Y010735D02*
X004943Y010735D01*
X004968Y010590D02*
X004710Y010332D01*
X004710Y009968D01*
X004928Y009750D01*
X004372Y009750D01*
X004590Y009968D01*
X004590Y010332D01*
X004332Y010590D01*
X003968Y010590D01*
X003710Y010332D01*
X003710Y009968D01*
X003928Y009750D01*
X003588Y009750D01*
X003500Y009662D01*
X003500Y009422D01*
X003332Y009590D01*
X002968Y009590D01*
X002710Y009332D01*
X002710Y008968D01*
X002968Y008710D01*
X003332Y008710D01*
X003500Y008878D01*
X003500Y007972D01*
X003019Y007972D01*
X003019Y008012D01*
X002683Y008012D01*
X002683Y008112D01*
X002583Y008112D01*
X002583Y008487D01*
X002377Y008487D01*
X002339Y008477D01*
X002305Y008457D01*
X002277Y008430D01*
X002257Y008395D01*
X002247Y008357D01*
X002247Y008112D01*
X002583Y008112D01*
X002583Y008012D01*
X002247Y008012D01*
X002247Y007766D01*
X002257Y007728D01*
X002277Y007694D01*
X002305Y007666D01*
X002333Y007650D01*
X001962Y007650D01*
X001936Y007676D01*
X002049Y007676D01*
X002113Y007741D01*
X002113Y008383D01*
X002049Y008447D01*
X001485Y008447D01*
X001421Y008383D01*
X001421Y007741D01*
X001485Y007676D01*
X001617Y007676D01*
X001617Y007571D01*
X001705Y007483D01*
X001764Y007424D01*
X001603Y007424D01*
X001539Y007359D01*
X001539Y006717D01*
X001546Y006710D01*
X001440Y006604D01*
X001440Y004023D01*
X001375Y004023D01*
X001310Y003959D01*
X001310Y003041D01*
X001359Y002993D01*
X001135Y001558D01*
X001051Y001523D01*
X000927Y001399D01*
X000860Y001238D01*
X000860Y001062D01*
X000927Y000901D01*
X001051Y000777D01*
X001212Y000710D01*
X001388Y000710D01*
X001549Y000777D01*
X001673Y000901D01*
X001740Y001062D01*
X001740Y001238D01*
X001673Y001399D01*
X001589Y001483D01*
X001822Y002977D01*
X001966Y002977D01*
X002030Y003041D01*
X002030Y003959D01*
X001966Y004023D01*
X001900Y004023D01*
X001900Y006413D01*
X002140Y006653D01*
X002797Y006653D01*
X002861Y006717D01*
X002861Y007222D01*
X002954Y007130D01*
X002954Y006793D01*
X003018Y006728D01*
X004132Y006728D01*
X004196Y006793D01*
X004196Y007105D01*
X004339Y007234D01*
X004339Y006667D01*
X004403Y006603D01*
X005060Y006603D01*
X005348Y006315D01*
X005308Y004023D01*
X005234Y004023D01*
X005170Y003959D01*
X005170Y003041D01*
X005234Y002977D01*
X005300Y002977D01*
X005300Y001975D01*
X004907Y001582D01*
X004888Y001590D01*
X004712Y001590D01*
X004551Y001523D01*
X004427Y001399D01*
X004360Y001238D01*
X004360Y001062D01*
X004427Y000901D01*
X004551Y000777D01*
X004712Y000710D01*
X004888Y000710D01*
X005049Y000777D01*
X005173Y000901D01*
X005240Y001062D01*
X005240Y001238D01*
X005232Y001257D01*
X005760Y001784D01*
X005760Y002977D01*
X005825Y002977D01*
X005890Y003041D01*
X005890Y003959D01*
X005825Y004023D01*
X005769Y004023D01*
X005808Y006312D01*
X005810Y006313D01*
X005810Y006407D01*
X005811Y006500D01*
X005810Y006502D01*
X005810Y006504D01*
X005744Y006570D01*
X005679Y006637D01*
X005676Y006637D01*
X005654Y006660D01*
X005661Y006667D01*
X005661Y007309D01*
X005597Y007374D01*
X004494Y007374D01*
X004497Y007376D01*
X004497Y007380D01*
X004500Y007384D01*
X004500Y007388D01*
X004629Y007517D01*
X004717Y007605D01*
X004717Y007626D01*
X004849Y007626D01*
X004913Y007691D01*
X004913Y008333D01*
X004849Y008397D01*
X004380Y008397D01*
X004450Y008450D01*
X006262Y008450D01*
X006534Y008722D01*
X006562Y008710D01*
X006738Y008710D01*
X006899Y008777D01*
X006992Y008870D01*
X006992Y008430D01*
X006899Y008523D01*
X006738Y008590D01*
X006562Y008590D01*
X006401Y008523D01*
X006277Y008399D01*
X006210Y008238D01*
X006210Y008062D01*
X006277Y007901D01*
X006401Y007777D01*
X006562Y007710D01*
X006738Y007710D01*
X006899Y007777D01*
X006992Y007870D01*
X006992Y007487D01*
X006963Y007516D01*
X006902Y007561D01*
X006834Y007595D01*
X006762Y007618D01*
X006698Y007628D01*
X006698Y007198D01*
X006602Y007198D01*
X006602Y007102D01*
X006698Y007102D01*
X006698Y006672D01*
X006762Y006682D01*
X006834Y006705D01*
X006902Y006739D01*
X006963Y006784D01*
X006992Y006813D01*
X006992Y006430D01*
X006899Y006523D01*
X006738Y006590D01*
X006562Y006590D01*
X006401Y006523D01*
X006277Y006399D01*
X006210Y006238D01*
X006210Y006062D01*
X006277Y005901D01*
X006401Y005777D01*
X006562Y005710D01*
X006738Y005710D01*
X006899Y005777D01*
X006992Y005870D01*
X006992Y005430D01*
X006899Y005523D01*
X006738Y005590D01*
X006562Y005590D01*
X006401Y005523D01*
X006277Y005399D01*
X006210Y005238D01*
X006210Y005062D01*
X006277Y004901D01*
X006401Y004777D01*
X006562Y004710D01*
X006738Y004710D01*
X006899Y004777D01*
X006992Y004870D01*
X006992Y004430D01*
X006899Y004523D01*
X006738Y004590D01*
X006562Y004590D01*
X006401Y004523D01*
X006277Y004399D01*
X006210Y004238D01*
X006210Y004062D01*
X006277Y003901D01*
X006401Y003777D01*
X006562Y003710D01*
X006738Y003710D01*
X006899Y003777D01*
X006992Y003870D01*
X006992Y000350D01*
X000300Y000350D01*
X000300Y001928D01*
X000401Y001827D01*
X000562Y001760D01*
X000738Y001760D01*
X000899Y001827D01*
X001023Y001951D01*
X001090Y002112D01*
X001090Y002288D01*
X001023Y002449D01*
X000899Y002573D01*
X000738Y002640D01*
X000562Y002640D01*
X000401Y002573D01*
X000300Y002472D01*
X000300Y002871D01*
X000337Y002834D01*
X000398Y002789D01*
X000466Y002755D01*
X000538Y002732D01*
X000602Y002722D01*
X000602Y003152D01*
X000698Y003152D01*
X000698Y003248D01*
X000602Y003248D01*
X000602Y003678D01*
X000538Y003668D01*
X000466Y003645D01*
X000398Y003611D01*
X000337Y003566D01*
X000300Y003529D01*
X000300Y003878D01*
X000401Y003777D01*
X000562Y003710D01*
X000738Y003710D01*
X000899Y003777D01*
X001023Y003901D01*
X001090Y004062D01*
X001090Y004238D01*
X001023Y004399D01*
X000899Y004523D01*
X000738Y004590D01*
X000562Y004590D01*
X000401Y004523D01*
X000300Y004422D01*
X000300Y004821D01*
X000337Y004784D01*
X000398Y004739D01*
X000466Y004705D01*
X000538Y004682D01*
X000602Y004672D01*
X000602Y005102D01*
X000698Y005102D01*
X000698Y005198D01*
X000602Y005198D01*
X000602Y005628D01*
X000538Y005618D01*
X000466Y005595D01*
X000398Y005561D01*
X000337Y005516D01*
X000300Y005479D01*
X000300Y005878D01*
X000401Y005777D01*
X000562Y005710D01*
X000738Y005710D01*
X000899Y005777D01*
X001023Y005901D01*
X001090Y006062D01*
X001090Y006238D01*
X001023Y006399D01*
X000899Y006523D01*
X000738Y006590D01*
X000562Y006590D01*
X000401Y006523D01*
X000300Y006422D01*
X000300Y006878D01*
X000401Y006777D01*
X000562Y006710D01*
X000738Y006710D01*
X000899Y006777D01*
X001023Y006901D01*
X001090Y007062D01*
X001090Y007238D01*
X001023Y007399D01*
X000899Y007523D01*
X000738Y007590D01*
X000562Y007590D01*
X000401Y007523D01*
X000300Y007422D01*
X000300Y007878D01*
X000401Y007777D01*
X000562Y007710D01*
X000738Y007710D01*
X000899Y007777D01*
X001023Y007901D01*
X001090Y008062D01*
X001090Y008238D01*
X001023Y008399D01*
X000899Y008523D01*
X000738Y008590D01*
X000562Y008590D01*
X000401Y008523D01*
X000300Y008422D01*
X000300Y008878D01*
X000401Y008777D01*
X000562Y008710D01*
X000738Y008710D01*
X000899Y008777D01*
X001023Y008901D01*
X001090Y009062D01*
X001090Y009128D01*
X001632Y009128D01*
X001696Y009193D01*
X001696Y009484D01*
X001945Y009733D01*
X001968Y009710D01*
X002332Y009710D01*
X002590Y009968D01*
X002590Y010332D01*
X002422Y010500D01*
X002662Y010500D01*
X002712Y010550D01*
X002800Y010638D01*
X002800Y010878D01*
X002968Y010710D01*
X003332Y010710D01*
X003590Y010968D01*
X003590Y011332D01*
X003332Y011590D01*
X002968Y011590D01*
X002800Y011422D01*
X002800Y011878D01*
X002968Y011710D01*
X003332Y011710D01*
X003590Y011968D01*
X003590Y012332D01*
X003332Y012590D01*
X002968Y012590D01*
X002800Y012422D01*
X002800Y012878D01*
X002968Y012710D01*
X003332Y012710D01*
X003590Y012968D01*
X003590Y013332D01*
X003332Y013590D01*
X002968Y013590D01*
X002800Y013422D01*
X002800Y013878D01*
X002968Y013710D01*
X003332Y013710D01*
X003590Y013968D01*
X003590Y014332D01*
X003332Y014590D01*
X002968Y014590D01*
X002938Y014560D01*
X002938Y014776D01*
X003750Y015588D01*
X003750Y016238D01*
X003816Y016304D01*
X003783Y016223D01*
X003783Y016077D01*
X003838Y015942D01*
X003942Y015838D01*
X004077Y015783D01*
X004223Y015783D01*
X004281Y015807D01*
X005000Y015088D01*
X005088Y015000D01*
X006236Y015000D01*
X006277Y014901D01*
X006401Y014777D01*
X006562Y014710D01*
X006738Y014710D01*
X006899Y014777D01*
X006992Y014870D01*
X006992Y014430D01*
X006899Y014523D01*
X006738Y014590D01*
X006562Y014590D01*
X006401Y014523D01*
X006277Y014399D01*
X006210Y014238D01*
X006210Y014062D01*
X006277Y013901D01*
X006401Y013777D01*
X006562Y013710D01*
X006738Y013710D01*
X006899Y013777D01*
X006992Y013870D01*
X006992Y013430D01*
X006899Y013523D01*
X006738Y013590D01*
X006562Y013590D01*
X006401Y013523D01*
X006277Y013399D01*
X006210Y013238D01*
X006210Y013062D01*
X006277Y012901D01*
X006401Y012777D01*
X006562Y012710D01*
X006738Y012710D01*
X006899Y012777D01*
X006992Y012870D01*
X006992Y012430D01*
X006899Y012523D01*
X006738Y012590D01*
X006562Y012590D01*
X006401Y012523D01*
X006277Y012399D01*
X006210Y012238D01*
X006210Y012062D01*
X006277Y011901D01*
X006401Y011777D01*
X006562Y011710D01*
X006738Y011710D01*
X006899Y011777D01*
X006992Y011870D01*
X006992Y011430D01*
X006899Y011523D01*
X006738Y011590D01*
X006562Y011590D01*
X006401Y011523D01*
X006277Y011399D01*
X006236Y011300D01*
X005938Y011300D01*
X005850Y011212D01*
X005850Y009862D01*
X005738Y009750D01*
X005372Y009750D01*
X005590Y009968D01*
X005590Y010332D01*
X005332Y010590D01*
X004968Y010590D01*
X004915Y010538D02*
X004385Y010538D01*
X004483Y010439D02*
X004817Y010439D01*
X004718Y010341D02*
X004582Y010341D01*
X004590Y010242D02*
X004710Y010242D01*
X004710Y010144D02*
X004590Y010144D01*
X004590Y010045D02*
X004710Y010045D01*
X004731Y009947D02*
X004569Y009947D01*
X004470Y009848D02*
X004830Y009848D01*
X005357Y010735D02*
X005850Y010735D01*
X005850Y010833D02*
X005455Y010833D01*
X005554Y010932D02*
X005850Y010932D01*
X005850Y011030D02*
X005590Y011030D01*
X005590Y011129D02*
X005850Y011129D01*
X005865Y011227D02*
X005590Y011227D01*
X005590Y011326D02*
X006246Y011326D01*
X006302Y011424D02*
X005498Y011424D01*
X005400Y011523D02*
X006400Y011523D01*
X006539Y011720D02*
X005342Y011720D01*
X005440Y011818D02*
X006360Y011818D01*
X006270Y011917D02*
X005539Y011917D01*
X005590Y012015D02*
X006230Y012015D01*
X006210Y012114D02*
X005590Y012114D01*
X005590Y012212D02*
X006210Y012212D01*
X006240Y012311D02*
X005590Y012311D01*
X005513Y012409D02*
X006287Y012409D01*
X006385Y012508D02*
X005415Y012508D01*
X005425Y012803D02*
X006375Y012803D01*
X006277Y012902D02*
X005524Y012902D01*
X005590Y013000D02*
X006236Y013000D01*
X006210Y013099D02*
X005590Y013099D01*
X005590Y013197D02*
X006210Y013197D01*
X006234Y013296D02*
X005590Y013296D01*
X005528Y013394D02*
X006275Y013394D01*
X006370Y013493D02*
X005430Y013493D01*
X005410Y013788D02*
X006390Y013788D01*
X006291Y013887D02*
X005509Y013887D01*
X005590Y013985D02*
X006242Y013985D01*
X006210Y014084D02*
X005590Y014084D01*
X005590Y014182D02*
X006210Y014182D01*
X006228Y014281D02*
X005590Y014281D01*
X005543Y014379D02*
X006269Y014379D01*
X006355Y014478D02*
X005445Y014478D01*
X005346Y014576D02*
X006529Y014576D01*
X006410Y014773D02*
X002938Y014773D01*
X002938Y014675D02*
X006992Y014675D01*
X006992Y014773D02*
X006890Y014773D01*
X006992Y014576D02*
X006771Y014576D01*
X006945Y014478D02*
X006992Y014478D01*
X006992Y013788D02*
X006910Y013788D01*
X006992Y013690D02*
X002800Y013690D01*
X002800Y013788D02*
X002890Y013788D01*
X002800Y013591D02*
X006992Y013591D01*
X006992Y013493D02*
X006930Y013493D01*
X006925Y012803D02*
X006992Y012803D01*
X006992Y012705D02*
X002800Y012705D01*
X002800Y012803D02*
X002875Y012803D01*
X002800Y012606D02*
X006992Y012606D01*
X006992Y012508D02*
X006915Y012508D01*
X006940Y011818D02*
X006992Y011818D01*
X006992Y011720D02*
X006761Y011720D01*
X006900Y011523D02*
X006992Y011523D01*
X006992Y011621D02*
X002800Y011621D01*
X002800Y011523D02*
X002900Y011523D01*
X002802Y011424D02*
X002800Y011424D01*
X002800Y011720D02*
X002958Y011720D01*
X002860Y011818D02*
X002800Y011818D01*
X002800Y012508D02*
X002885Y012508D01*
X002500Y012508D02*
X002415Y012508D01*
X002332Y012590D02*
X001968Y012590D01*
X001710Y012332D01*
X001710Y011968D01*
X001968Y011710D01*
X002332Y011710D01*
X002500Y011878D01*
X002500Y011422D01*
X002332Y011590D01*
X001972Y011590D01*
X001962Y011600D01*
X001746Y011600D01*
X001746Y011657D01*
X001682Y011722D01*
X001118Y011722D01*
X001054Y011657D01*
X001054Y011604D01*
X000892Y011604D01*
X000837Y011549D01*
X000738Y011590D01*
X000562Y011590D01*
X000401Y011523D01*
X000300Y011422D01*
X000300Y011878D01*
X000401Y011777D01*
X000562Y011710D01*
X000738Y011710D01*
X000899Y011777D01*
X001023Y011901D01*
X001090Y012062D01*
X001090Y012238D01*
X001023Y012399D01*
X000899Y012523D01*
X000738Y012590D01*
X000562Y012590D01*
X000401Y012523D01*
X000300Y012422D01*
X000300Y012878D01*
X000401Y012777D01*
X000562Y012710D01*
X000738Y012710D01*
X000899Y012777D01*
X001023Y012901D01*
X001090Y013062D01*
X001090Y013238D01*
X001023Y013399D01*
X000899Y013523D01*
X000738Y013590D01*
X000562Y013590D01*
X000401Y013523D01*
X000300Y013422D01*
X000300Y013878D01*
X000401Y013777D01*
X000562Y013710D01*
X000738Y013710D01*
X000899Y013777D01*
X001023Y013901D01*
X001090Y014062D01*
X001090Y014238D01*
X001023Y014399D01*
X000899Y014523D01*
X000738Y014590D01*
X000562Y014590D01*
X000401Y014523D01*
X000300Y014422D01*
X000300Y014878D01*
X000401Y014777D01*
X000562Y014710D01*
X000738Y014710D01*
X000899Y014777D01*
X001023Y014901D01*
X001090Y015062D01*
X001090Y015238D01*
X001023Y015399D01*
X000899Y015523D01*
X000738Y015590D01*
X000562Y015590D01*
X000401Y015523D01*
X000300Y015422D01*
X000300Y015821D01*
X000337Y015784D01*
X000398Y015739D01*
X000466Y015705D01*
X000538Y015682D01*
X000602Y015672D01*
X000602Y016102D01*
X000698Y016102D01*
X000698Y016198D01*
X000602Y016198D01*
X000602Y016628D01*
X000538Y016618D01*
X000466Y016595D01*
X000398Y016561D01*
X000337Y016516D01*
X000300Y016479D01*
X000300Y016878D01*
X000401Y016777D01*
X000562Y016710D01*
X000738Y016710D01*
X000899Y016777D01*
X001005Y016883D01*
X001400Y016488D01*
X001400Y015738D01*
X001488Y015650D01*
X002362Y014776D01*
X002362Y014560D01*
X002332Y014590D01*
X001968Y014590D01*
X001710Y014332D01*
X001710Y013968D01*
X001968Y013710D01*
X002332Y013710D01*
X002500Y013878D01*
X002500Y013422D01*
X002332Y013590D01*
X001968Y013590D01*
X001710Y013332D01*
X001710Y012968D01*
X001968Y012710D01*
X002332Y012710D01*
X002500Y012878D01*
X002500Y012422D01*
X002332Y012590D01*
X002425Y012803D02*
X002500Y012803D01*
X002500Y012705D02*
X000300Y012705D01*
X000300Y012803D02*
X000375Y012803D01*
X000300Y012606D02*
X002500Y012606D01*
X002500Y011818D02*
X002440Y011818D01*
X002500Y011720D02*
X002342Y011720D01*
X002400Y011523D02*
X002500Y011523D01*
X002500Y011621D02*
X001746Y011621D01*
X001684Y011720D02*
X001958Y011720D01*
X001860Y011818D02*
X000940Y011818D01*
X001030Y011917D02*
X001761Y011917D01*
X001710Y012015D02*
X001070Y012015D01*
X001090Y012114D02*
X001710Y012114D01*
X001710Y012212D02*
X001090Y012212D01*
X001060Y012311D02*
X001710Y012311D01*
X001787Y012409D02*
X001013Y012409D01*
X000915Y012508D02*
X001885Y012508D01*
X001875Y012803D02*
X000925Y012803D01*
X001023Y012902D02*
X001776Y012902D01*
X001710Y013000D02*
X001064Y013000D01*
X001090Y013099D02*
X001710Y013099D01*
X001710Y013197D02*
X001090Y013197D01*
X001066Y013296D02*
X001710Y013296D01*
X001772Y013394D02*
X001025Y013394D01*
X000930Y013493D02*
X001870Y013493D01*
X001890Y013788D02*
X000910Y013788D01*
X001009Y013887D02*
X001791Y013887D01*
X001710Y013985D02*
X001058Y013985D01*
X001090Y014084D02*
X001710Y014084D01*
X001710Y014182D02*
X001090Y014182D01*
X001072Y014281D02*
X001710Y014281D01*
X001757Y014379D02*
X001031Y014379D01*
X000945Y014478D02*
X001855Y014478D01*
X001954Y014576D02*
X000771Y014576D01*
X000890Y014773D02*
X002362Y014773D01*
X002362Y014675D02*
X000300Y014675D01*
X000300Y014773D02*
X000410Y014773D01*
X000300Y014576D02*
X000529Y014576D01*
X000355Y014478D02*
X000300Y014478D01*
X000300Y014872D02*
X000306Y014872D01*
X000300Y015463D02*
X000340Y015463D01*
X000300Y015561D02*
X000493Y015561D01*
X000602Y015758D02*
X000698Y015758D01*
X000698Y015672D02*
X000762Y015682D01*
X000834Y015705D01*
X000902Y015739D01*
X000963Y015784D01*
X001016Y015837D01*
X001061Y015898D01*
X001095Y015966D01*
X001118Y016038D01*
X001128Y016102D01*
X000698Y016102D01*
X000698Y015672D01*
X000807Y015561D02*
X001577Y015561D01*
X001675Y015463D02*
X000960Y015463D01*
X001038Y015364D02*
X001774Y015364D01*
X001872Y015266D02*
X001078Y015266D01*
X001090Y015167D02*
X001971Y015167D01*
X002069Y015069D02*
X001090Y015069D01*
X001052Y014970D02*
X002168Y014970D01*
X002266Y014872D02*
X000994Y014872D01*
X000927Y015758D02*
X001400Y015758D01*
X001400Y015857D02*
X001030Y015857D01*
X001089Y015955D02*
X001400Y015955D01*
X001400Y016054D02*
X001121Y016054D01*
X001128Y016198D02*
X001118Y016262D01*
X001095Y016334D01*
X001061Y016402D01*
X001016Y016463D01*
X000963Y016516D01*
X000902Y016561D01*
X000834Y016595D01*
X000762Y016618D01*
X000698Y016628D01*
X000698Y016198D01*
X001128Y016198D01*
X001120Y016251D02*
X001400Y016251D01*
X001400Y016349D02*
X001087Y016349D01*
X001027Y016448D02*
X001400Y016448D01*
X001342Y016546D02*
X000922Y016546D01*
X000817Y016743D02*
X001145Y016743D01*
X001046Y016842D02*
X000964Y016842D01*
X001100Y017212D02*
X001090Y017222D01*
X001090Y017238D01*
X001023Y017399D01*
X000899Y017523D01*
X000738Y017590D01*
X000562Y017590D01*
X000401Y017523D01*
X000300Y017422D01*
X000300Y017878D01*
X000401Y017777D01*
X000562Y017710D01*
X000738Y017710D01*
X000899Y017777D01*
X001023Y017901D01*
X001064Y018000D01*
X002088Y018000D01*
X002807Y017281D01*
X002783Y017223D01*
X002783Y017077D01*
X002838Y016942D01*
X002930Y016850D01*
X002662Y016850D01*
X002493Y017019D01*
X002517Y017077D01*
X002517Y017223D01*
X002462Y017358D01*
X002358Y017462D01*
X002223Y017517D01*
X002077Y017517D01*
X001942Y017462D01*
X001838Y017358D01*
X001783Y017223D01*
X001783Y017077D01*
X001838Y016942D01*
X001942Y016838D01*
X002077Y016783D01*
X002223Y016783D01*
X002281Y016807D01*
X002450Y016638D01*
X002538Y016550D01*
X003612Y016550D01*
X003662Y016600D01*
X003750Y016688D01*
X003750Y017688D01*
X004062Y018000D01*
X006236Y018000D01*
X006277Y017901D01*
X006401Y017777D01*
X006562Y017710D01*
X006738Y017710D01*
X006899Y017777D01*
X006992Y017870D01*
X006992Y017430D01*
X006899Y017523D01*
X006738Y017590D01*
X006562Y017590D01*
X006401Y017523D01*
X006277Y017399D01*
X006210Y017238D01*
X006210Y017062D01*
X006277Y016901D01*
X006401Y016777D01*
X006562Y016710D01*
X006738Y016710D01*
X006899Y016777D01*
X006992Y016870D01*
X006992Y016430D01*
X006899Y016523D01*
X006738Y016590D01*
X006562Y016590D01*
X006401Y016523D01*
X006277Y016399D01*
X006210Y016238D01*
X006210Y016062D01*
X006277Y015901D01*
X006401Y015777D01*
X006562Y015710D01*
X006738Y015710D01*
X006899Y015777D01*
X006992Y015870D01*
X006992Y015430D01*
X006899Y015523D01*
X006738Y015590D01*
X006562Y015590D01*
X006401Y015523D01*
X006277Y015399D01*
X006236Y015300D01*
X005212Y015300D01*
X004493Y016019D01*
X004517Y016077D01*
X004517Y016223D01*
X004462Y016358D01*
X004370Y016450D01*
X004638Y016450D01*
X004807Y016281D01*
X004783Y016223D01*
X004783Y016077D01*
X004838Y015942D01*
X004942Y015838D01*
X005077Y015783D01*
X005223Y015783D01*
X005358Y015838D01*
X005462Y015942D01*
X005517Y016077D01*
X005517Y016223D01*
X005462Y016358D01*
X005358Y016462D01*
X005223Y016517D01*
X005077Y016517D01*
X005019Y016493D01*
X004850Y016662D01*
X004762Y016750D01*
X003838Y016750D01*
X003538Y016450D01*
X003454Y016366D01*
X003358Y016462D01*
X003223Y016517D01*
X003077Y016517D01*
X002942Y016462D01*
X002838Y016358D01*
X002783Y016223D01*
X002783Y016077D01*
X002838Y015942D01*
X002942Y015838D01*
X003077Y015783D01*
X003223Y015783D01*
X003358Y015838D01*
X003450Y015930D01*
X003450Y015712D01*
X002776Y015038D01*
X002524Y015038D01*
X001700Y015862D01*
X001700Y016612D01*
X001100Y017212D01*
X001090Y017236D02*
X001788Y017236D01*
X001783Y017137D02*
X001175Y017137D01*
X001274Y017039D02*
X001798Y017039D01*
X001840Y016940D02*
X001372Y016940D01*
X001243Y016645D02*
X000300Y016645D01*
X000300Y016743D02*
X000483Y016743D01*
X000602Y016546D02*
X000698Y016546D01*
X000698Y016448D02*
X000602Y016448D01*
X000602Y016349D02*
X000698Y016349D01*
X000698Y016251D02*
X000602Y016251D01*
X000602Y016054D02*
X000698Y016054D01*
X000698Y016152D02*
X001400Y016152D01*
X001478Y015660D02*
X000300Y015660D01*
X000300Y015758D02*
X000373Y015758D01*
X000602Y015857D02*
X000698Y015857D01*
X000698Y015955D02*
X000602Y015955D01*
X000378Y016546D02*
X000300Y016546D01*
X000300Y016842D02*
X000336Y016842D01*
X000310Y017433D02*
X000300Y017433D01*
X000300Y017531D02*
X000420Y017531D01*
X000519Y017728D02*
X000300Y017728D01*
X000300Y017630D02*
X002458Y017630D01*
X002360Y017728D02*
X000781Y017728D01*
X000880Y017531D02*
X002557Y017531D01*
X002655Y017433D02*
X002387Y017433D01*
X002472Y017334D02*
X002754Y017334D01*
X002788Y017236D02*
X002512Y017236D01*
X002517Y017137D02*
X002783Y017137D01*
X002798Y017039D02*
X002502Y017039D01*
X002572Y016940D02*
X002840Y016940D01*
X002928Y016448D02*
X002372Y016448D01*
X002358Y016462D02*
X002223Y016517D01*
X002077Y016517D01*
X001942Y016462D01*
X001838Y016358D01*
X001783Y016223D01*
X001783Y016077D01*
X001838Y015942D01*
X001942Y015838D01*
X002077Y015783D01*
X002223Y015783D01*
X002358Y015838D01*
X002462Y015942D01*
X002517Y016077D01*
X002517Y016223D01*
X002462Y016358D01*
X002358Y016462D01*
X002443Y016645D02*
X001668Y016645D01*
X001700Y016546D02*
X003634Y016546D01*
X003707Y016645D02*
X003732Y016645D01*
X003750Y016743D02*
X003831Y016743D01*
X003750Y016842D02*
X003939Y016842D01*
X003942Y016838D02*
X004077Y016783D01*
X004223Y016783D01*
X004358Y016838D01*
X004462Y016942D01*
X004517Y017077D01*
X004517Y017223D01*
X004462Y017358D01*
X004358Y017462D01*
X004223Y017517D01*
X004077Y017517D01*
X003942Y017462D01*
X003838Y017358D01*
X003783Y017223D01*
X003783Y017077D01*
X003838Y016942D01*
X003942Y016838D01*
X003840Y016940D02*
X003750Y016940D01*
X003750Y017039D02*
X003798Y017039D01*
X003783Y017137D02*
X003750Y017137D01*
X003750Y017236D02*
X003788Y017236D01*
X003750Y017334D02*
X003828Y017334D01*
X003750Y017433D02*
X003913Y017433D01*
X003790Y017728D02*
X006519Y017728D01*
X006420Y017531D02*
X005493Y017531D01*
X005500Y017528D02*
X005465Y017547D01*
X005427Y017557D01*
X005179Y017557D01*
X005179Y017179D01*
X005557Y017179D01*
X005557Y017427D01*
X005547Y017465D01*
X005528Y017500D01*
X005500Y017528D01*
X005556Y017433D02*
X006310Y017433D01*
X006250Y017334D02*
X005557Y017334D01*
X005557Y017236D02*
X006210Y017236D01*
X006210Y017137D02*
X005179Y017137D01*
X005179Y017121D02*
X005179Y017179D01*
X005121Y017179D01*
X005121Y017557D01*
X004873Y017557D01*
X004835Y017547D01*
X004800Y017528D01*
X004772Y017500D01*
X004753Y017465D01*
X004743Y017427D01*
X004743Y017179D01*
X005121Y017179D01*
X005121Y017121D01*
X005179Y017121D01*
X005557Y017121D01*
X005557Y016873D01*
X005547Y016835D01*
X005528Y016800D01*
X005500Y016772D01*
X005465Y016753D01*
X005427Y016743D01*
X005179Y016743D01*
X005121Y016743D01*
X005121Y017121D01*
X004743Y017121D01*
X004743Y016873D01*
X004753Y016835D01*
X004772Y016800D01*
X004800Y016772D01*
X004835Y016753D01*
X004873Y016743D01*
X005121Y016743D01*
X005179Y016743D02*
X005179Y017121D01*
X005121Y017137D02*
X004517Y017137D01*
X004512Y017236D02*
X004743Y017236D01*
X004743Y017334D02*
X004472Y017334D01*
X004387Y017433D02*
X004744Y017433D01*
X004807Y017531D02*
X003750Y017531D01*
X003750Y017630D02*
X006992Y017630D01*
X006992Y017728D02*
X006781Y017728D01*
X006880Y017531D02*
X006992Y017531D01*
X006990Y017433D02*
X006992Y017433D01*
X006992Y017827D02*
X006949Y017827D01*
X006964Y016842D02*
X006992Y016842D01*
X006992Y016743D02*
X006817Y016743D01*
X006844Y016546D02*
X006992Y016546D01*
X006992Y016448D02*
X006975Y016448D01*
X006992Y016645D02*
X004868Y016645D01*
X004871Y016743D02*
X004769Y016743D01*
X004751Y016842D02*
X004361Y016842D01*
X004460Y016940D02*
X004743Y016940D01*
X004743Y017039D02*
X004502Y017039D01*
X004372Y016448D02*
X004640Y016448D01*
X004739Y016349D02*
X004465Y016349D01*
X004506Y016251D02*
X004794Y016251D01*
X004783Y016152D02*
X004517Y016152D01*
X004508Y016054D02*
X004792Y016054D01*
X004833Y015955D02*
X004557Y015955D01*
X004656Y015857D02*
X004924Y015857D01*
X004853Y015660D02*
X006992Y015660D01*
X006992Y015758D02*
X006853Y015758D01*
X006979Y015857D02*
X006992Y015857D01*
X006992Y015561D02*
X006807Y015561D01*
X006960Y015463D02*
X006992Y015463D01*
X006493Y015561D02*
X004951Y015561D01*
X005050Y015463D02*
X006340Y015463D01*
X006262Y015364D02*
X005148Y015364D01*
X005019Y015069D02*
X003231Y015069D01*
X003329Y015167D02*
X004921Y015167D01*
X004822Y015266D02*
X003428Y015266D01*
X003526Y015364D02*
X004724Y015364D01*
X004625Y015463D02*
X003625Y015463D01*
X003723Y015561D02*
X004527Y015561D01*
X004428Y015660D02*
X003750Y015660D01*
X003750Y015758D02*
X004330Y015758D01*
X003924Y015857D02*
X003750Y015857D01*
X003750Y015955D02*
X003833Y015955D01*
X003792Y016054D02*
X003750Y016054D01*
X003750Y016152D02*
X003783Y016152D01*
X003794Y016251D02*
X003763Y016251D01*
X003535Y016448D02*
X003372Y016448D01*
X003376Y015857D02*
X003450Y015857D01*
X003450Y015758D02*
X001804Y015758D01*
X001706Y015857D02*
X001924Y015857D01*
X001903Y015660D02*
X003397Y015660D01*
X003299Y015561D02*
X002001Y015561D01*
X002100Y015463D02*
X003200Y015463D01*
X003102Y015364D02*
X002198Y015364D01*
X002297Y015266D02*
X003003Y015266D01*
X002905Y015167D02*
X002395Y015167D01*
X002494Y015069D02*
X002806Y015069D01*
X003034Y014872D02*
X006306Y014872D01*
X006248Y014970D02*
X003132Y014970D01*
X002954Y014576D02*
X002938Y014576D01*
X003346Y014576D02*
X003954Y014576D01*
X003855Y014478D02*
X003445Y014478D01*
X003543Y014379D02*
X003757Y014379D01*
X003710Y014281D02*
X003590Y014281D01*
X003590Y014182D02*
X003710Y014182D01*
X003710Y014084D02*
X003590Y014084D01*
X003590Y013985D02*
X003710Y013985D01*
X003791Y013887D02*
X003509Y013887D01*
X003410Y013788D02*
X003890Y013788D01*
X003870Y013493D02*
X003430Y013493D01*
X003528Y013394D02*
X003772Y013394D01*
X003710Y013296D02*
X003590Y013296D01*
X003590Y013197D02*
X003710Y013197D01*
X003710Y013099D02*
X003590Y013099D01*
X003590Y013000D02*
X003710Y013000D01*
X003776Y012902D02*
X003524Y012902D01*
X003425Y012803D02*
X003875Y012803D01*
X003885Y012508D02*
X003415Y012508D01*
X003513Y012409D02*
X003787Y012409D01*
X003710Y012311D02*
X003590Y012311D01*
X003590Y012212D02*
X003710Y012212D01*
X003710Y012114D02*
X003590Y012114D01*
X003590Y012015D02*
X003710Y012015D01*
X003761Y011917D02*
X003539Y011917D01*
X003440Y011818D02*
X003860Y011818D01*
X003958Y011720D02*
X003342Y011720D01*
X003400Y011523D02*
X003900Y011523D01*
X003802Y011424D02*
X003498Y011424D01*
X003590Y011326D02*
X003710Y011326D01*
X003710Y011227D02*
X003590Y011227D01*
X003590Y011129D02*
X003710Y011129D01*
X003710Y011030D02*
X003590Y011030D01*
X003554Y010932D02*
X003746Y010932D01*
X003845Y010833D02*
X003455Y010833D01*
X003357Y010735D02*
X003943Y010735D01*
X003915Y010538D02*
X003385Y010538D01*
X003332Y010590D02*
X002968Y010590D01*
X002710Y010332D01*
X002710Y009968D01*
X002968Y009710D01*
X003332Y009710D01*
X003590Y009968D01*
X003590Y010332D01*
X003332Y010590D01*
X003483Y010439D02*
X003817Y010439D01*
X003718Y010341D02*
X003582Y010341D01*
X003590Y010242D02*
X003710Y010242D01*
X003710Y010144D02*
X003590Y010144D01*
X003590Y010045D02*
X003710Y010045D01*
X003731Y009947D02*
X003569Y009947D01*
X003470Y009848D02*
X003830Y009848D01*
X003587Y009750D02*
X003372Y009750D01*
X003370Y009553D02*
X003500Y009553D01*
X003500Y009651D02*
X001863Y009651D01*
X001930Y009553D02*
X001765Y009553D01*
X001832Y009454D02*
X001696Y009454D01*
X001696Y009356D02*
X001733Y009356D01*
X001710Y009332D02*
X001710Y008968D01*
X001968Y008710D01*
X002332Y008710D01*
X002590Y008968D01*
X002590Y009332D01*
X002332Y009590D01*
X001968Y009590D01*
X001710Y009332D01*
X001710Y009257D02*
X001696Y009257D01*
X001710Y009159D02*
X001662Y009159D01*
X001710Y009060D02*
X001089Y009060D01*
X001048Y008962D02*
X001716Y008962D01*
X001815Y008863D02*
X000985Y008863D01*
X000869Y008765D02*
X001913Y008765D01*
X002113Y008371D02*
X002250Y008371D01*
X002247Y008272D02*
X002113Y008272D01*
X002113Y008174D02*
X002247Y008174D01*
X002247Y007977D02*
X002113Y007977D01*
X002113Y008075D02*
X002583Y008075D01*
X002583Y008174D02*
X002683Y008174D01*
X002683Y008112D02*
X002683Y008487D01*
X002889Y008487D01*
X002927Y008477D01*
X002961Y008457D01*
X002989Y008430D01*
X003009Y008395D01*
X003019Y008357D01*
X003019Y008112D01*
X002683Y008112D01*
X002683Y008075D02*
X003500Y008075D01*
X003500Y007977D02*
X003019Y007977D01*
X003019Y008174D02*
X003500Y008174D01*
X003500Y008272D02*
X003019Y008272D01*
X003016Y008371D02*
X003500Y008371D01*
X003500Y008469D02*
X002941Y008469D01*
X002913Y008765D02*
X002387Y008765D01*
X002485Y008863D02*
X002815Y008863D01*
X002716Y008962D02*
X002584Y008962D01*
X002590Y009060D02*
X002710Y009060D01*
X002710Y009159D02*
X002590Y009159D01*
X002590Y009257D02*
X002710Y009257D01*
X002733Y009356D02*
X002567Y009356D01*
X002468Y009454D02*
X002832Y009454D01*
X002930Y009553D02*
X002370Y009553D01*
X002372Y009750D02*
X002928Y009750D01*
X002830Y009848D02*
X002470Y009848D01*
X002569Y009947D02*
X002731Y009947D01*
X002710Y010045D02*
X002590Y010045D01*
X002590Y010144D02*
X002710Y010144D01*
X002710Y010242D02*
X002590Y010242D01*
X002582Y010341D02*
X002718Y010341D01*
X002817Y010439D02*
X002483Y010439D01*
X002700Y010538D02*
X002915Y010538D01*
X002798Y010636D02*
X005850Y010636D01*
X005850Y010538D02*
X005385Y010538D01*
X005483Y010439D02*
X005850Y010439D01*
X005850Y010341D02*
X005582Y010341D01*
X005590Y010242D02*
X005850Y010242D01*
X005850Y010144D02*
X005590Y010144D01*
X005590Y010045D02*
X005850Y010045D01*
X005850Y009947D02*
X005569Y009947D01*
X005470Y009848D02*
X005836Y009848D01*
X006380Y008568D02*
X006508Y008568D01*
X006478Y008666D02*
X006992Y008666D01*
X006992Y008568D02*
X006792Y008568D01*
X006869Y008765D02*
X006992Y008765D01*
X006985Y008863D02*
X006992Y008863D01*
X006992Y008469D02*
X006953Y008469D01*
X006902Y007780D02*
X006992Y007780D01*
X006992Y007681D02*
X005810Y007681D01*
X005809Y007678D02*
X005819Y007716D01*
X005819Y007962D01*
X005483Y007962D01*
X005483Y008062D01*
X005383Y008062D01*
X005383Y008437D01*
X005177Y008437D01*
X005139Y008427D01*
X005105Y008407D01*
X005077Y008380D01*
X005057Y008345D01*
X005047Y008307D01*
X005047Y008062D01*
X005383Y008062D01*
X005383Y007962D01*
X005047Y007962D01*
X005047Y007716D01*
X005057Y007678D01*
X005077Y007644D01*
X005105Y007616D01*
X005139Y007596D01*
X005177Y007586D01*
X005383Y007586D01*
X005383Y007962D01*
X005483Y007962D01*
X005483Y007586D01*
X005689Y007586D01*
X005727Y007596D01*
X005761Y007616D01*
X005789Y007644D01*
X005809Y007678D01*
X005819Y007780D02*
X006398Y007780D01*
X006466Y007595D02*
X006398Y007561D01*
X006337Y007516D01*
X006284Y007463D01*
X006239Y007402D01*
X006205Y007334D01*
X006182Y007262D01*
X006172Y007198D01*
X006602Y007198D01*
X006602Y007628D01*
X006538Y007618D01*
X006466Y007595D01*
X006442Y007583D02*
X004695Y007583D01*
X004596Y007484D02*
X006305Y007484D01*
X006231Y007386D02*
X004500Y007386D01*
X004339Y007189D02*
X004288Y007189D01*
X004339Y007090D02*
X004196Y007090D01*
X004196Y006992D02*
X004339Y006992D01*
X004339Y006893D02*
X004196Y006893D01*
X004196Y006795D02*
X004339Y006795D01*
X004339Y006696D02*
X002840Y006696D01*
X002861Y006795D02*
X002954Y006795D01*
X002954Y006893D02*
X002861Y006893D01*
X002861Y006992D02*
X002954Y006992D01*
X002954Y007090D02*
X002861Y007090D01*
X002861Y007189D02*
X002895Y007189D01*
X002683Y008272D02*
X002583Y008272D01*
X002583Y008371D02*
X002683Y008371D01*
X002683Y008469D02*
X002583Y008469D01*
X002325Y008469D02*
X000953Y008469D01*
X001035Y008371D02*
X001421Y008371D01*
X001421Y008272D02*
X001076Y008272D01*
X001090Y008174D02*
X001421Y008174D01*
X001421Y008075D02*
X001090Y008075D01*
X001054Y007977D02*
X001421Y007977D01*
X001421Y007878D02*
X001000Y007878D01*
X000902Y007780D02*
X001421Y007780D01*
X001480Y007681D02*
X000300Y007681D01*
X000300Y007583D02*
X000544Y007583D01*
X000756Y007583D02*
X001617Y007583D01*
X001704Y007484D02*
X000938Y007484D01*
X001029Y007386D02*
X001565Y007386D01*
X001539Y007287D02*
X001070Y007287D01*
X001090Y007189D02*
X001539Y007189D01*
X001539Y007090D02*
X001090Y007090D01*
X001061Y006992D02*
X001539Y006992D01*
X001539Y006893D02*
X001015Y006893D01*
X000917Y006795D02*
X001539Y006795D01*
X001533Y006696D02*
X000300Y006696D01*
X000300Y006598D02*
X001440Y006598D01*
X001440Y006499D02*
X000923Y006499D01*
X001022Y006401D02*
X001440Y006401D01*
X001440Y006302D02*
X001063Y006302D01*
X001090Y006204D02*
X001440Y006204D01*
X001440Y006105D02*
X001090Y006105D01*
X001067Y006007D02*
X001440Y006007D01*
X001440Y005908D02*
X001026Y005908D01*
X000932Y005810D02*
X001440Y005810D01*
X001440Y005711D02*
X000740Y005711D01*
X000698Y005628D02*
X000698Y005198D01*
X001128Y005198D01*
X001118Y005262D01*
X001095Y005334D01*
X001061Y005402D01*
X001016Y005463D01*
X000963Y005516D01*
X000902Y005561D01*
X000834Y005595D01*
X000762Y005618D01*
X000698Y005628D01*
X000698Y005613D02*
X000602Y005613D01*
X000520Y005613D02*
X000300Y005613D01*
X000300Y005711D02*
X000560Y005711D01*
X000602Y005514D02*
X000698Y005514D01*
X000698Y005416D02*
X000602Y005416D01*
X000602Y005317D02*
X000698Y005317D01*
X000698Y005219D02*
X000602Y005219D01*
X000602Y005022D02*
X000698Y005022D01*
X000698Y005102D02*
X000698Y004672D01*
X000762Y004682D01*
X000834Y004705D01*
X000902Y004739D01*
X000963Y004784D01*
X001016Y004837D01*
X001061Y004898D01*
X001095Y004966D01*
X001118Y005038D01*
X001128Y005102D01*
X000698Y005102D01*
X000698Y005120D02*
X001440Y005120D01*
X001440Y005022D02*
X001113Y005022D01*
X001073Y004923D02*
X001440Y004923D01*
X001440Y004825D02*
X001003Y004825D01*
X000875Y004726D02*
X001440Y004726D01*
X001440Y004628D02*
X000300Y004628D01*
X000300Y004726D02*
X000425Y004726D01*
X000415Y004529D02*
X000300Y004529D01*
X000300Y004431D02*
X000308Y004431D01*
X000602Y004726D02*
X000698Y004726D01*
X000698Y004825D02*
X000602Y004825D01*
X000602Y004923D02*
X000698Y004923D01*
X000885Y004529D02*
X001440Y004529D01*
X001440Y004431D02*
X000992Y004431D01*
X001051Y004332D02*
X001440Y004332D01*
X001440Y004234D02*
X001090Y004234D01*
X001090Y004135D02*
X001440Y004135D01*
X001440Y004037D02*
X001079Y004037D01*
X001038Y003938D02*
X001310Y003938D01*
X001310Y003840D02*
X000962Y003840D01*
X000834Y003645D02*
X000902Y003611D01*
X000963Y003566D01*
X001016Y003513D01*
X001061Y003452D01*
X001095Y003384D01*
X001118Y003312D01*
X001128Y003248D01*
X000698Y003248D01*
X000698Y003678D01*
X000762Y003668D01*
X000834Y003645D01*
X000839Y003643D02*
X001310Y003643D01*
X001310Y003741D02*
X000812Y003741D01*
X000698Y003643D02*
X000602Y003643D01*
X000602Y003544D02*
X000698Y003544D01*
X000698Y003446D02*
X000602Y003446D01*
X000602Y003347D02*
X000698Y003347D01*
X000698Y003249D02*
X000602Y003249D01*
X000602Y003150D02*
X000698Y003150D01*
X000698Y003152D02*
X000698Y002722D01*
X000762Y002732D01*
X000834Y002755D01*
X000902Y002789D01*
X000963Y002834D01*
X001016Y002887D01*
X001061Y002948D01*
X001095Y003016D01*
X001118Y003088D01*
X001128Y003152D01*
X000698Y003152D01*
X000698Y003051D02*
X000602Y003051D01*
X000602Y002953D02*
X000698Y002953D01*
X000698Y002854D02*
X000602Y002854D01*
X000602Y002756D02*
X000698Y002756D01*
X000836Y002756D02*
X001322Y002756D01*
X001337Y002854D02*
X000983Y002854D01*
X001063Y002953D02*
X001353Y002953D01*
X001310Y003051D02*
X001106Y003051D01*
X001128Y003150D02*
X001310Y003150D01*
X001310Y003249D02*
X001128Y003249D01*
X001107Y003347D02*
X001310Y003347D01*
X001310Y003446D02*
X001064Y003446D01*
X000985Y003544D02*
X001310Y003544D01*
X001307Y002657D02*
X000300Y002657D01*
X000300Y002559D02*
X000387Y002559D01*
X000464Y002756D02*
X000300Y002756D01*
X000300Y002854D02*
X000317Y002854D01*
X000300Y003544D02*
X000315Y003544D01*
X000300Y003643D02*
X000461Y003643D01*
X000488Y003741D02*
X000300Y003741D01*
X000300Y003840D02*
X000338Y003840D01*
X000913Y002559D02*
X001291Y002559D01*
X001276Y002460D02*
X001012Y002460D01*
X001059Y002362D02*
X001261Y002362D01*
X001245Y002263D02*
X001090Y002263D01*
X001090Y002165D02*
X001230Y002165D01*
X001215Y002066D02*
X001071Y002066D01*
X001030Y001968D02*
X001199Y001968D01*
X001184Y001869D02*
X000942Y001869D01*
X001138Y001574D02*
X000300Y001574D01*
X000300Y001672D02*
X001153Y001672D01*
X001169Y001771D02*
X000764Y001771D01*
X000918Y001377D02*
X000300Y001377D01*
X000300Y001475D02*
X001003Y001475D01*
X000877Y001278D02*
X000300Y001278D01*
X000300Y001180D02*
X000860Y001180D01*
X000860Y001081D02*
X000300Y001081D01*
X000300Y000983D02*
X000893Y000983D01*
X000943Y000884D02*
X000300Y000884D01*
X000300Y000786D02*
X001042Y000786D01*
X001558Y000786D02*
X002042Y000786D01*
X002051Y000777D02*
X002212Y000710D01*
X002388Y000710D01*
X002549Y000777D01*
X002652Y000880D01*
X003448Y000880D01*
X003551Y000777D01*
X003712Y000710D01*
X003888Y000710D01*
X004049Y000777D01*
X004173Y000901D01*
X004240Y001062D01*
X004240Y001238D01*
X004200Y001333D01*
X004200Y002977D01*
X004266Y002977D01*
X004330Y003041D01*
X004330Y003959D01*
X004266Y004023D01*
X003920Y004023D01*
X003920Y004658D01*
X003938Y004676D01*
X003938Y005124D01*
X003874Y005188D01*
X003426Y005188D01*
X003362Y005124D01*
X003362Y004676D01*
X003380Y004658D01*
X003380Y004023D01*
X002934Y004023D01*
X002870Y003959D01*
X002870Y003041D01*
X002934Y002977D01*
X003525Y002977D01*
X003590Y003041D01*
X003590Y003358D01*
X003610Y003379D01*
X003610Y003041D01*
X003675Y002977D01*
X003740Y002977D01*
X003740Y001590D01*
X003712Y001590D01*
X003551Y001523D01*
X003448Y001420D01*
X002652Y001420D01*
X002549Y001523D01*
X002388Y001590D01*
X002212Y001590D01*
X002051Y001523D01*
X001927Y001399D01*
X001860Y001238D01*
X001860Y001062D01*
X001927Y000901D01*
X002051Y000777D01*
X001943Y000884D02*
X001657Y000884D01*
X001707Y000983D02*
X001893Y000983D01*
X001860Y001081D02*
X001740Y001081D01*
X001740Y001180D02*
X001860Y001180D01*
X001877Y001278D02*
X001723Y001278D01*
X001682Y001377D02*
X001918Y001377D01*
X002003Y001475D02*
X001597Y001475D01*
X001603Y001574D02*
X002174Y001574D01*
X002426Y001574D02*
X003674Y001574D01*
X003740Y001672D02*
X001619Y001672D01*
X001634Y001771D02*
X003740Y001771D01*
X003740Y001869D02*
X001649Y001869D01*
X001665Y001968D02*
X003740Y001968D01*
X003740Y002066D02*
X001680Y002066D01*
X001695Y002165D02*
X003740Y002165D01*
X003740Y002263D02*
X001711Y002263D01*
X001726Y002362D02*
X003740Y002362D01*
X003740Y002460D02*
X001741Y002460D01*
X001757Y002559D02*
X003740Y002559D01*
X003740Y002657D02*
X001772Y002657D01*
X001787Y002756D02*
X003740Y002756D01*
X003740Y002854D02*
X001803Y002854D01*
X001818Y002953D02*
X003740Y002953D01*
X003610Y003051D02*
X003590Y003051D01*
X003590Y003150D02*
X003610Y003150D01*
X003610Y003249D02*
X003590Y003249D01*
X003590Y003347D02*
X003610Y003347D01*
X003380Y004037D02*
X001900Y004037D01*
X001900Y004135D02*
X003380Y004135D01*
X003380Y004234D02*
X001900Y004234D01*
X001900Y004332D02*
X003380Y004332D01*
X003380Y004431D02*
X001900Y004431D01*
X001900Y004529D02*
X003380Y004529D01*
X003380Y004628D02*
X001900Y004628D01*
X001900Y004726D02*
X003362Y004726D01*
X003362Y004825D02*
X001900Y004825D01*
X001900Y004923D02*
X003362Y004923D01*
X003362Y005022D02*
X001900Y005022D01*
X001900Y005120D02*
X003362Y005120D01*
X002870Y003938D02*
X002030Y003938D01*
X002030Y003840D02*
X002870Y003840D01*
X002870Y003741D02*
X002030Y003741D01*
X002030Y003643D02*
X002870Y003643D01*
X002870Y003544D02*
X002030Y003544D01*
X002030Y003446D02*
X002870Y003446D01*
X002870Y003347D02*
X002030Y003347D01*
X002030Y003249D02*
X002870Y003249D01*
X002870Y003150D02*
X002030Y003150D01*
X002030Y003051D02*
X002870Y003051D01*
X002597Y001475D02*
X003503Y001475D01*
X003542Y000786D02*
X002558Y000786D01*
X003920Y004037D02*
X005309Y004037D01*
X005310Y004135D02*
X003920Y004135D01*
X003920Y004234D02*
X005312Y004234D01*
X005314Y004332D02*
X003920Y004332D01*
X003920Y004431D02*
X005315Y004431D01*
X005317Y004529D02*
X003920Y004529D01*
X003920Y004628D02*
X005319Y004628D01*
X005321Y004726D02*
X003938Y004726D01*
X003938Y004825D02*
X005322Y004825D01*
X005324Y004923D02*
X003938Y004923D01*
X003938Y005022D02*
X005326Y005022D01*
X005327Y005120D02*
X003938Y005120D01*
X004330Y003938D02*
X005170Y003938D01*
X005170Y003840D02*
X004330Y003840D01*
X004330Y003741D02*
X005170Y003741D01*
X005170Y003643D02*
X004330Y003643D01*
X004330Y003544D02*
X005170Y003544D01*
X005170Y003446D02*
X004330Y003446D01*
X004330Y003347D02*
X005170Y003347D01*
X005170Y003249D02*
X004330Y003249D01*
X004330Y003150D02*
X005170Y003150D01*
X005170Y003051D02*
X004330Y003051D01*
X004200Y002953D02*
X005300Y002953D01*
X005300Y002854D02*
X004200Y002854D01*
X004200Y002756D02*
X005300Y002756D01*
X005300Y002657D02*
X004200Y002657D01*
X004200Y002559D02*
X005300Y002559D01*
X005300Y002460D02*
X004200Y002460D01*
X004200Y002362D02*
X005300Y002362D01*
X005300Y002263D02*
X004200Y002263D01*
X004200Y002165D02*
X005300Y002165D01*
X005300Y002066D02*
X004200Y002066D01*
X004200Y001968D02*
X005293Y001968D01*
X005194Y001869D02*
X004200Y001869D01*
X004200Y001771D02*
X005096Y001771D01*
X004997Y001672D02*
X004200Y001672D01*
X004200Y001574D02*
X004674Y001574D01*
X004503Y001475D02*
X004200Y001475D01*
X004200Y001377D02*
X004418Y001377D01*
X004377Y001278D02*
X004223Y001278D01*
X004240Y001180D02*
X004360Y001180D01*
X004360Y001081D02*
X004240Y001081D01*
X004207Y000983D02*
X004393Y000983D01*
X004443Y000884D02*
X004157Y000884D01*
X004058Y000786D02*
X004542Y000786D01*
X005058Y000786D02*
X006992Y000786D01*
X006992Y000884D02*
X005157Y000884D01*
X005207Y000983D02*
X006992Y000983D01*
X006992Y001081D02*
X005240Y001081D01*
X005240Y001180D02*
X006167Y001180D01*
X006123Y001224D02*
X006215Y001132D01*
X006335Y001082D01*
X006465Y001082D01*
X006585Y001132D01*
X006677Y001224D01*
X006727Y001344D01*
X006727Y001475D01*
X006677Y001595D01*
X006585Y001687D01*
X006465Y001737D01*
X006335Y001737D01*
X006215Y001687D01*
X006123Y001595D01*
X006073Y001475D01*
X006073Y001344D01*
X006123Y001224D01*
X006100Y001278D02*
X005254Y001278D01*
X005352Y001377D02*
X006073Y001377D01*
X006073Y001475D02*
X005451Y001475D01*
X005549Y001574D02*
X006114Y001574D01*
X006200Y001672D02*
X005648Y001672D01*
X005746Y001771D02*
X006992Y001771D01*
X006992Y001869D02*
X005760Y001869D01*
X005760Y001968D02*
X006992Y001968D01*
X006992Y002066D02*
X005760Y002066D01*
X005760Y002165D02*
X006992Y002165D01*
X006992Y002263D02*
X006465Y002263D01*
X006585Y002313D01*
X006677Y002405D01*
X006727Y002525D01*
X006727Y002656D01*
X006677Y002776D01*
X006585Y002868D01*
X006465Y002918D01*
X006335Y002918D01*
X006215Y002868D01*
X006123Y002776D01*
X006073Y002656D01*
X006073Y002525D01*
X006123Y002405D01*
X006215Y002313D01*
X006335Y002263D01*
X006465Y002263D01*
X006335Y002263D02*
X005760Y002263D01*
X005760Y002362D02*
X006166Y002362D01*
X006100Y002460D02*
X005760Y002460D01*
X005760Y002559D02*
X006073Y002559D01*
X006074Y002657D02*
X005760Y002657D01*
X005760Y002756D02*
X006114Y002756D01*
X006201Y002854D02*
X005760Y002854D01*
X005760Y002953D02*
X006992Y002953D01*
X006992Y003051D02*
X005890Y003051D01*
X005890Y003150D02*
X006992Y003150D01*
X006992Y003249D02*
X005890Y003249D01*
X005890Y003347D02*
X006992Y003347D01*
X006992Y003446D02*
X005890Y003446D01*
X005890Y003544D02*
X006992Y003544D01*
X006992Y003643D02*
X005890Y003643D01*
X005890Y003741D02*
X006488Y003741D01*
X006338Y003840D02*
X005890Y003840D01*
X005890Y003938D02*
X006262Y003938D01*
X006221Y004037D02*
X005769Y004037D01*
X005770Y004135D02*
X006210Y004135D01*
X006210Y004234D02*
X005772Y004234D01*
X005774Y004332D02*
X006249Y004332D01*
X006308Y004431D02*
X005776Y004431D01*
X005777Y004529D02*
X006415Y004529D01*
X006524Y004726D02*
X005781Y004726D01*
X005782Y004825D02*
X006353Y004825D01*
X006268Y004923D02*
X005784Y004923D01*
X005786Y005022D02*
X006227Y005022D01*
X006210Y005120D02*
X005787Y005120D01*
X005789Y005219D02*
X006210Y005219D01*
X006243Y005317D02*
X005791Y005317D01*
X005792Y005416D02*
X006293Y005416D01*
X006392Y005514D02*
X005794Y005514D01*
X005796Y005613D02*
X006992Y005613D01*
X006992Y005711D02*
X006740Y005711D01*
X006560Y005711D02*
X005798Y005711D01*
X005799Y005810D02*
X006368Y005810D01*
X006274Y005908D02*
X005801Y005908D01*
X005803Y006007D02*
X006233Y006007D01*
X006210Y006105D02*
X005804Y006105D01*
X005806Y006204D02*
X006210Y006204D01*
X006237Y006302D02*
X005808Y006302D01*
X005810Y006401D02*
X006278Y006401D01*
X006377Y006499D02*
X005811Y006499D01*
X005717Y006598D02*
X006992Y006598D01*
X006992Y006696D02*
X006806Y006696D01*
X006698Y006696D02*
X006602Y006696D01*
X006602Y006672D02*
X006602Y007102D01*
X006172Y007102D01*
X006182Y007038D01*
X006205Y006966D01*
X006239Y006898D01*
X006284Y006837D01*
X006337Y006784D01*
X006398Y006739D01*
X006466Y006705D01*
X006538Y006682D01*
X006602Y006672D01*
X006494Y006696D02*
X005661Y006696D01*
X005661Y006795D02*
X006327Y006795D01*
X006243Y006893D02*
X005661Y006893D01*
X005661Y006992D02*
X006197Y006992D01*
X006174Y007090D02*
X005661Y007090D01*
X005661Y007189D02*
X006602Y007189D01*
X006602Y007287D02*
X006698Y007287D01*
X006698Y007386D02*
X006602Y007386D01*
X006602Y007484D02*
X006698Y007484D01*
X006698Y007583D02*
X006602Y007583D01*
X006602Y007090D02*
X006698Y007090D01*
X006698Y006992D02*
X006602Y006992D01*
X006602Y006893D02*
X006698Y006893D01*
X006698Y006795D02*
X006602Y006795D01*
X006858Y007583D02*
X006992Y007583D01*
X006973Y006795D02*
X006992Y006795D01*
X006992Y006499D02*
X006923Y006499D01*
X006932Y005810D02*
X006992Y005810D01*
X006992Y005514D02*
X006908Y005514D01*
X006947Y004825D02*
X006992Y004825D01*
X006992Y004726D02*
X006776Y004726D01*
X006885Y004529D02*
X006992Y004529D01*
X006992Y004431D02*
X006992Y004431D01*
X006992Y004628D02*
X005779Y004628D01*
X005329Y005219D02*
X001900Y005219D01*
X001900Y005317D02*
X005331Y005317D01*
X005332Y005416D02*
X001900Y005416D01*
X001900Y005514D02*
X005334Y005514D01*
X005336Y005613D02*
X001900Y005613D01*
X001900Y005711D02*
X005338Y005711D01*
X005339Y005810D02*
X001900Y005810D01*
X001900Y005908D02*
X005341Y005908D01*
X005343Y006007D02*
X001900Y006007D01*
X001900Y006105D02*
X005344Y006105D01*
X005346Y006204D02*
X001900Y006204D01*
X001900Y006302D02*
X005348Y006302D01*
X005262Y006401D02*
X001900Y006401D01*
X001986Y006499D02*
X005164Y006499D01*
X005065Y006598D02*
X002085Y006598D01*
X002054Y007681D02*
X002290Y007681D01*
X002247Y007780D02*
X002113Y007780D01*
X002113Y007878D02*
X002247Y007878D01*
X001440Y005613D02*
X000780Y005613D01*
X000965Y005514D02*
X001440Y005514D01*
X001440Y005416D02*
X001050Y005416D01*
X001100Y005317D02*
X001440Y005317D01*
X001440Y005219D02*
X001125Y005219D01*
X000335Y005514D02*
X000300Y005514D01*
X000300Y005810D02*
X000368Y005810D01*
X000377Y006499D02*
X000300Y006499D01*
X000300Y006795D02*
X000383Y006795D01*
X000362Y007484D02*
X000300Y007484D01*
X000300Y007780D02*
X000398Y007780D01*
X000347Y008469D02*
X000300Y008469D01*
X000300Y008568D02*
X000508Y008568D01*
X000431Y008765D02*
X000300Y008765D01*
X000300Y008863D02*
X000315Y008863D01*
X000300Y008666D02*
X003500Y008666D01*
X003500Y008568D02*
X000792Y008568D01*
X000302Y011424D02*
X000300Y011424D01*
X000300Y011523D02*
X000400Y011523D01*
X000300Y011621D02*
X001054Y011621D01*
X001116Y011720D02*
X000761Y011720D01*
X000539Y011720D02*
X000300Y011720D01*
X000300Y011818D02*
X000360Y011818D01*
X000385Y012508D02*
X000300Y012508D01*
X000300Y013493D02*
X000370Y013493D01*
X000300Y013591D02*
X002500Y013591D01*
X002500Y013493D02*
X002430Y013493D01*
X002500Y013690D02*
X000300Y013690D01*
X000300Y013788D02*
X000390Y013788D01*
X001569Y016743D02*
X002345Y016743D01*
X002465Y016349D02*
X002835Y016349D01*
X002794Y016251D02*
X002506Y016251D01*
X002517Y016152D02*
X002783Y016152D01*
X002792Y016054D02*
X002508Y016054D01*
X002467Y015955D02*
X002833Y015955D01*
X002924Y015857D02*
X002376Y015857D01*
X001928Y016448D02*
X001700Y016448D01*
X001700Y016349D02*
X001835Y016349D01*
X001794Y016251D02*
X001700Y016251D01*
X001700Y016152D02*
X001783Y016152D01*
X001792Y016054D02*
X001700Y016054D01*
X001700Y015955D02*
X001833Y015955D01*
X001939Y016842D02*
X001471Y016842D01*
X001828Y017334D02*
X001050Y017334D01*
X000990Y017433D02*
X001913Y017433D01*
X002163Y017925D02*
X001033Y017925D01*
X000949Y017827D02*
X002261Y017827D01*
X002346Y014576D02*
X002362Y014576D01*
X002410Y013788D02*
X002500Y013788D01*
X002800Y013493D02*
X002870Y013493D01*
X002500Y011424D02*
X002498Y011424D01*
X002800Y010833D02*
X002845Y010833D01*
X002800Y010735D02*
X002943Y010735D01*
X003468Y009454D02*
X003500Y009454D01*
X003485Y008863D02*
X003500Y008863D01*
X003500Y008765D02*
X003387Y008765D01*
X004876Y008371D02*
X005072Y008371D01*
X005047Y008272D02*
X004913Y008272D01*
X004913Y008174D02*
X005047Y008174D01*
X005047Y008075D02*
X004913Y008075D01*
X004913Y007977D02*
X005383Y007977D01*
X005383Y008075D02*
X005483Y008075D01*
X005483Y008062D02*
X005483Y008437D01*
X005689Y008437D01*
X005727Y008427D01*
X005761Y008407D01*
X005789Y008380D01*
X005809Y008345D01*
X005819Y008307D01*
X005819Y008062D01*
X005483Y008062D01*
X005483Y007977D02*
X006246Y007977D01*
X006210Y008075D02*
X005819Y008075D01*
X005819Y008174D02*
X006210Y008174D01*
X006224Y008272D02*
X005819Y008272D01*
X005795Y008371D02*
X006265Y008371D01*
X006281Y008469D02*
X006347Y008469D01*
X006300Y007878D02*
X005819Y007878D01*
X005661Y007287D02*
X006190Y007287D01*
X005483Y007681D02*
X005383Y007681D01*
X005383Y007780D02*
X005483Y007780D01*
X005483Y007878D02*
X005383Y007878D01*
X005383Y008174D02*
X005483Y008174D01*
X005483Y008272D02*
X005383Y008272D01*
X005383Y008371D02*
X005483Y008371D01*
X005047Y007878D02*
X004913Y007878D01*
X004913Y007780D02*
X005047Y007780D01*
X005056Y007681D02*
X004904Y007681D01*
X006812Y003741D02*
X006992Y003741D01*
X006992Y003840D02*
X006962Y003840D01*
X006992Y002854D02*
X006599Y002854D01*
X006686Y002756D02*
X006992Y002756D01*
X006992Y002657D02*
X006726Y002657D01*
X006727Y002559D02*
X006992Y002559D01*
X006992Y002460D02*
X006700Y002460D01*
X006634Y002362D02*
X006992Y002362D01*
X006992Y001672D02*
X006600Y001672D01*
X006686Y001574D02*
X006992Y001574D01*
X006992Y001475D02*
X006727Y001475D01*
X006727Y001377D02*
X006992Y001377D01*
X006992Y001278D02*
X006700Y001278D01*
X006633Y001180D02*
X006992Y001180D01*
X006992Y000687D02*
X000300Y000687D01*
X000300Y000589D02*
X006992Y000589D01*
X006992Y000490D02*
X000300Y000490D01*
X000300Y000392D02*
X006992Y000392D01*
X004791Y013887D02*
X004509Y013887D01*
X004590Y013985D02*
X004710Y013985D01*
X004710Y014084D02*
X004590Y014084D01*
X004590Y014182D02*
X004710Y014182D01*
X004710Y014281D02*
X004590Y014281D01*
X004543Y014379D02*
X004757Y014379D01*
X004855Y014478D02*
X004445Y014478D01*
X004346Y014576D02*
X004954Y014576D01*
X004754Y015758D02*
X006447Y015758D01*
X006321Y015857D02*
X005376Y015857D01*
X005467Y015955D02*
X006255Y015955D01*
X006214Y016054D02*
X005508Y016054D01*
X005517Y016152D02*
X006210Y016152D01*
X006215Y016251D02*
X005506Y016251D01*
X005465Y016349D02*
X006256Y016349D01*
X006325Y016448D02*
X005372Y016448D01*
X005429Y016743D02*
X006483Y016743D01*
X006456Y016546D02*
X004966Y016546D01*
X005121Y016842D02*
X005179Y016842D01*
X005179Y016940D02*
X005121Y016940D01*
X005121Y017039D02*
X005179Y017039D01*
X005179Y017236D02*
X005121Y017236D01*
X005121Y017334D02*
X005179Y017334D01*
X005179Y017433D02*
X005121Y017433D01*
X005121Y017531D02*
X005179Y017531D01*
X005557Y017039D02*
X006220Y017039D01*
X006261Y016940D02*
X005557Y016940D01*
X005549Y016842D02*
X006336Y016842D01*
X006351Y017827D02*
X003889Y017827D01*
X003987Y017925D02*
X006267Y017925D01*
X000351Y017827D02*
X000300Y017827D01*
X000300Y001869D02*
X000358Y001869D01*
X000300Y001771D02*
X000536Y001771D01*
D20*
X001300Y001150D02*
X001300Y001120D01*
X001670Y003500D01*
X001670Y006509D01*
X002200Y007038D01*
X003550Y003820D02*
X003550Y003700D01*
X003550Y003820D02*
X003650Y003820D01*
X003970Y003500D02*
X003970Y001320D01*
X003800Y001150D01*
X003800Y001120D01*
X003150Y003300D02*
X003150Y003420D01*
X003230Y003500D01*
X005530Y001880D02*
X004800Y001150D01*
X004850Y001120D01*
X005530Y001880D02*
X005530Y003500D01*
X005580Y006409D01*
X005000Y006988D01*
D21*
X004350Y007450D02*
X004567Y007667D01*
X004567Y008012D01*
X004200Y008450D02*
X004400Y008600D01*
X006200Y008600D01*
X006650Y009050D01*
X006650Y009150D01*
X006000Y009800D02*
X006000Y011150D01*
X006650Y011150D01*
X006000Y009800D02*
X005800Y009600D01*
X003650Y009600D01*
X003650Y007954D01*
X003850Y007704D01*
X004050Y007400D02*
X004200Y007500D01*
X004200Y008450D01*
X004350Y007450D02*
X004350Y007446D01*
X003850Y006996D01*
X004050Y007400D02*
X003300Y007400D01*
X003300Y007704D01*
X002796Y007500D02*
X003300Y006996D01*
X002796Y007500D02*
X001900Y007500D01*
X001767Y007633D01*
X001767Y008062D01*
X001396Y009396D02*
X001350Y009396D01*
X001246Y009500D01*
X001150Y009500D01*
X000650Y010000D01*
X000650Y010150D01*
X000650Y011150D02*
X000954Y011454D01*
X001400Y011454D01*
X001404Y011450D01*
X001900Y011450D01*
X002150Y011200D01*
X002150Y011150D01*
X002150Y010150D02*
X001396Y009396D01*
X001350Y010104D02*
X001400Y010154D01*
X001400Y010746D01*
X001496Y010650D01*
X002600Y010650D01*
X002650Y010700D01*
X002650Y014700D01*
X002600Y014750D01*
X002650Y014750D01*
X002700Y014750D01*
X003600Y015650D01*
X003600Y016300D01*
X003900Y016600D01*
X004700Y016600D01*
X005150Y016150D01*
X005150Y015150D02*
X006650Y015150D01*
X006650Y018150D02*
X004000Y018150D01*
X003600Y017750D01*
X003600Y016750D01*
X003550Y016700D01*
X002600Y016700D01*
X002150Y017150D01*
X002150Y018150D02*
X000650Y018150D01*
X000650Y017150D02*
X000950Y017150D01*
X001550Y016550D01*
X001550Y015800D01*
X002600Y014750D01*
X003150Y017150D02*
X002150Y018150D01*
X004150Y016150D02*
X005150Y015150D01*
D22*
X002650Y014750D03*
X003650Y004900D03*
D23*
X003650Y003820D01*
X003970Y003500D01*
X003550Y003700D02*
X003150Y003300D01*
X003800Y001150D02*
X002300Y001150D01*
M02*
