G75*
%MOIN*%
%OFA0B0*%
%FSLAX24Y24*%
%IPPOS*%
%LPD*%
%AMOC8*
5,1,8,0,0,1.08239X$1,22.5*
%
%ADD10C,0.0000*%
%ADD11R,0.1102X0.0551*%
%ADD12R,0.0472X0.0551*%
%ADD13R,0.0500X0.0827*%
%ADD14R,0.0472X0.0315*%
D10*
X000150Y000200D02*
X000150Y019020D01*
X007142Y019020D01*
X007142Y000200D01*
X000150Y000200D01*
X006223Y001409D02*
X006225Y001435D01*
X006231Y001461D01*
X006241Y001486D01*
X006254Y001509D01*
X006270Y001529D01*
X006290Y001547D01*
X006312Y001562D01*
X006335Y001574D01*
X006361Y001582D01*
X006387Y001586D01*
X006413Y001586D01*
X006439Y001582D01*
X006465Y001574D01*
X006489Y001562D01*
X006510Y001547D01*
X006530Y001529D01*
X006546Y001509D01*
X006559Y001486D01*
X006569Y001461D01*
X006575Y001435D01*
X006577Y001409D01*
X006575Y001383D01*
X006569Y001357D01*
X006559Y001332D01*
X006546Y001309D01*
X006530Y001289D01*
X006510Y001271D01*
X006488Y001256D01*
X006465Y001244D01*
X006439Y001236D01*
X006413Y001232D01*
X006387Y001232D01*
X006361Y001236D01*
X006335Y001244D01*
X006311Y001256D01*
X006290Y001271D01*
X006270Y001289D01*
X006254Y001309D01*
X006241Y001332D01*
X006231Y001357D01*
X006225Y001383D01*
X006223Y001409D01*
X006223Y002591D02*
X006225Y002617D01*
X006231Y002643D01*
X006241Y002668D01*
X006254Y002691D01*
X006270Y002711D01*
X006290Y002729D01*
X006312Y002744D01*
X006335Y002756D01*
X006361Y002764D01*
X006387Y002768D01*
X006413Y002768D01*
X006439Y002764D01*
X006465Y002756D01*
X006489Y002744D01*
X006510Y002729D01*
X006530Y002711D01*
X006546Y002691D01*
X006559Y002668D01*
X006569Y002643D01*
X006575Y002617D01*
X006577Y002591D01*
X006575Y002565D01*
X006569Y002539D01*
X006559Y002514D01*
X006546Y002491D01*
X006530Y002471D01*
X006510Y002453D01*
X006488Y002438D01*
X006465Y002426D01*
X006439Y002418D01*
X006413Y002414D01*
X006387Y002414D01*
X006361Y002418D01*
X006335Y002426D01*
X006311Y002438D01*
X006290Y002453D01*
X006270Y002471D01*
X006254Y002491D01*
X006241Y002514D01*
X006231Y002539D01*
X006225Y002565D01*
X006223Y002591D01*
D11*
X005000Y006988D03*
X002200Y007038D03*
D12*
X001767Y008062D03*
X002633Y008062D03*
X004567Y008012D03*
X005433Y008012D03*
D13*
X005530Y003500D03*
X003970Y003500D03*
X003230Y003500D03*
X001670Y003500D03*
D14*
X003300Y006996D03*
X003300Y007704D03*
X003850Y007704D03*
X003850Y006996D03*
X001400Y010746D03*
X001350Y010104D03*
X001350Y009396D03*
X001400Y011454D03*
M02*
