G75*
%MOIN*%
%OFA0B0*%
%FSLAX24Y24*%
%IPPOS*%
%LPD*%
%AMOC8*
5,1,8,0,0,1.08239X$1,22.5*
%
%ADD10C,0.0000*%
%ADD11C,0.0555*%
%ADD12R,0.0555X0.0555*%
%ADD13C,0.0080*%
%ADD14R,0.0200X0.0200*%
%ADD15C,0.0700*%
%ADD16OC8,0.0700*%
%ADD17C,0.0050*%
%ADD18R,0.0355X0.0434*%
%ADD19R,0.0631X0.0316*%
%ADD20C,0.0030*%
%ADD21C,0.0394*%
D10*
X000150Y000200D02*
X000150Y019020D01*
X007142Y019020D01*
X007142Y000200D01*
X000150Y000200D01*
X006223Y001409D02*
X006225Y001435D01*
X006231Y001461D01*
X006241Y001486D01*
X006254Y001509D01*
X006270Y001529D01*
X006290Y001547D01*
X006312Y001562D01*
X006335Y001574D01*
X006361Y001582D01*
X006387Y001586D01*
X006413Y001586D01*
X006439Y001582D01*
X006465Y001574D01*
X006489Y001562D01*
X006510Y001547D01*
X006530Y001529D01*
X006546Y001509D01*
X006559Y001486D01*
X006569Y001461D01*
X006575Y001435D01*
X006577Y001409D01*
X006575Y001383D01*
X006569Y001357D01*
X006559Y001332D01*
X006546Y001309D01*
X006530Y001289D01*
X006510Y001271D01*
X006488Y001256D01*
X006465Y001244D01*
X006439Y001236D01*
X006413Y001232D01*
X006387Y001232D01*
X006361Y001236D01*
X006335Y001244D01*
X006311Y001256D01*
X006290Y001271D01*
X006270Y001289D01*
X006254Y001309D01*
X006241Y001332D01*
X006231Y001357D01*
X006225Y001383D01*
X006223Y001409D01*
X006223Y002591D02*
X006225Y002617D01*
X006231Y002643D01*
X006241Y002668D01*
X006254Y002691D01*
X006270Y002711D01*
X006290Y002729D01*
X006312Y002744D01*
X006335Y002756D01*
X006361Y002764D01*
X006387Y002768D01*
X006413Y002768D01*
X006439Y002764D01*
X006465Y002756D01*
X006489Y002744D01*
X006510Y002729D01*
X006530Y002711D01*
X006546Y002691D01*
X006559Y002668D01*
X006569Y002643D01*
X006575Y002617D01*
X006577Y002591D01*
X006575Y002565D01*
X006569Y002539D01*
X006559Y002514D01*
X006546Y002491D01*
X006530Y002471D01*
X006510Y002453D01*
X006488Y002438D01*
X006465Y002426D01*
X006439Y002418D01*
X006413Y002414D01*
X006387Y002414D01*
X006361Y002418D01*
X006335Y002426D01*
X006311Y002438D01*
X006290Y002453D01*
X006270Y002471D01*
X006254Y002491D01*
X006241Y002514D01*
X006231Y002539D01*
X006225Y002565D01*
X006223Y002591D01*
D11*
X005150Y016150D03*
X004150Y016150D03*
X004150Y017150D03*
X003150Y017150D03*
X003150Y016150D03*
X002150Y016150D03*
X002150Y017150D03*
D12*
X005150Y017150D03*
D13*
X006400Y018650D02*
X006900Y018650D01*
X000900Y018650D02*
X000400Y018650D01*
X005888Y003319D02*
X006912Y003319D01*
X006912Y002551D02*
X007502Y002551D01*
X007502Y002039D01*
X006912Y002039D01*
X006912Y001961D02*
X007502Y001961D01*
X007502Y001449D01*
X006912Y001449D01*
X006912Y000681D02*
X005888Y000681D01*
X003300Y000900D02*
X003300Y001400D01*
X002800Y001400D02*
X002800Y000900D01*
X000900Y001700D02*
X000400Y001700D01*
D14*
X000650Y002200D03*
X000650Y003200D03*
X000650Y004150D03*
X000650Y005150D03*
X000650Y006150D03*
X000650Y007150D03*
X000650Y008150D03*
X000650Y009150D03*
X000650Y010150D03*
X000650Y011150D03*
X000650Y012150D03*
X000650Y013150D03*
X000650Y014150D03*
X000650Y015150D03*
X000650Y016150D03*
X000650Y017150D03*
X000650Y018150D03*
X002150Y014150D03*
X002150Y013150D03*
X002150Y012150D03*
X002150Y011150D03*
X002150Y010150D03*
X002150Y009150D03*
X003150Y009150D03*
X003150Y010150D03*
X003150Y011150D03*
X003150Y012150D03*
X003150Y013150D03*
X003150Y014150D03*
X004150Y014150D03*
X004150Y013150D03*
X004150Y012150D03*
X004150Y011150D03*
X004150Y010150D03*
X004150Y009150D03*
X005150Y009150D03*
X005150Y010150D03*
X005150Y011150D03*
X005150Y012150D03*
X005150Y013150D03*
X005150Y014150D03*
X006650Y014150D03*
X006650Y013150D03*
X006650Y012150D03*
X006650Y011150D03*
X006650Y010150D03*
X006650Y009150D03*
X006650Y008150D03*
X006650Y007150D03*
X006650Y006150D03*
X006650Y005150D03*
X006650Y004150D03*
X004800Y001150D03*
X003800Y001150D03*
X002300Y001150D03*
X001300Y001150D03*
X006650Y015150D03*
X006650Y016150D03*
X006650Y017150D03*
X006650Y018150D03*
D15*
X006650Y018150D03*
X006650Y017150D03*
X006650Y016150D03*
X006650Y015150D03*
X006650Y014150D03*
X006650Y013150D03*
X006650Y012150D03*
X006650Y011150D03*
X006650Y010150D03*
X006650Y009150D03*
X006650Y008150D03*
X006650Y007150D03*
X006650Y006150D03*
X006650Y005150D03*
X006650Y004150D03*
X004800Y001150D03*
X003800Y001150D03*
X002300Y001150D03*
X001300Y001150D03*
X000650Y002200D03*
X000650Y003200D03*
X000650Y004150D03*
X000650Y005150D03*
X000650Y006150D03*
X000650Y007150D03*
X000650Y008150D03*
X000650Y009150D03*
X000650Y010150D03*
X000650Y011150D03*
X000650Y012150D03*
X000650Y013150D03*
X000650Y014150D03*
X000650Y015150D03*
X000650Y016150D03*
X000650Y017150D03*
X000650Y018150D03*
D16*
X002150Y014150D03*
X002150Y013150D03*
X002150Y012150D03*
X002150Y011150D03*
X002150Y010150D03*
X002150Y009150D03*
X003150Y009150D03*
X003150Y010150D03*
X003150Y011150D03*
X003150Y012150D03*
X003150Y013150D03*
X003150Y014150D03*
X004150Y014150D03*
X004150Y013150D03*
X004150Y012150D03*
X004150Y011150D03*
X004150Y010150D03*
X004150Y009150D03*
X005150Y009150D03*
X005150Y010150D03*
X005150Y011150D03*
X005150Y012150D03*
X005150Y013150D03*
X005150Y014150D03*
D17*
X005888Y003319D02*
X005888Y000681D01*
X006912Y000681D02*
X006912Y002039D01*
X006912Y002551D01*
X006912Y003319D01*
D18*
X006794Y003437D03*
X006006Y003437D03*
X006006Y000563D03*
X006794Y000563D03*
D19*
X005711Y001114D03*
X005711Y002295D03*
X005711Y002886D03*
D20*
X007079Y002309D02*
X007369Y002309D01*
X007369Y002405D02*
X007369Y002212D01*
X007176Y002212D02*
X007079Y002309D01*
X007127Y001815D02*
X007321Y001621D01*
X007369Y001670D01*
X007369Y001766D01*
X007321Y001815D01*
X007127Y001815D01*
X007079Y001766D01*
X007079Y001670D01*
X007127Y001621D01*
X007321Y001621D01*
D21*
X006400Y001409D03*
X006400Y002591D03*
M02*
