G75*
%MOIN*%
%OFA0B0*%
%FSLAX25Y25*%
%IPPOS*%
%LPD*%
%AMOC8*
5,1,8,0,0,1.08239X$1,22.5*
%
%ADD10C,0.00000*%
%ADD11C,0.07000*%
%ADD12C,0.05550*%
D10*
X0006800Y0027970D02*
X0006800Y0222970D01*
X0086800Y0222970D01*
X0086800Y0027970D01*
X0006800Y0027970D01*
D11*
X0016800Y0077970D03*
X0016800Y0087970D03*
X0016800Y0097970D03*
X0016800Y0107970D03*
X0016800Y0117970D03*
X0016800Y0127970D03*
X0016800Y0137970D03*
X0016800Y0147970D03*
X0016800Y0157970D03*
X0016800Y0167970D03*
X0016800Y0177970D03*
X0016800Y0187970D03*
X0016800Y0197970D03*
X0016800Y0207970D03*
X0016800Y0217970D03*
X0076800Y0217970D03*
X0076800Y0207970D03*
X0076800Y0197970D03*
X0076800Y0187970D03*
X0076800Y0177970D03*
X0076800Y0167970D03*
X0076800Y0157970D03*
X0076800Y0147970D03*
X0076800Y0137970D03*
X0076800Y0127970D03*
X0076800Y0117970D03*
X0076800Y0107970D03*
X0076800Y0097970D03*
X0076800Y0087970D03*
X0076800Y0077970D03*
D12*
X0081650Y0077970D02*
X0086800Y0077970D01*
X0086800Y0087970D02*
X0081650Y0087970D01*
X0081650Y0097970D02*
X0086800Y0097970D01*
X0086800Y0107970D02*
X0081650Y0107970D01*
X0081650Y0117970D02*
X0086800Y0117970D01*
X0086800Y0127970D02*
X0081650Y0127970D01*
X0081650Y0137970D02*
X0086800Y0137970D01*
X0086800Y0147970D02*
X0081650Y0147970D01*
X0081650Y0157970D02*
X0086800Y0157970D01*
X0086800Y0167970D02*
X0081650Y0167970D01*
X0081650Y0177970D02*
X0086800Y0177970D01*
X0086800Y0187970D02*
X0081650Y0187970D01*
X0081650Y0197970D02*
X0086800Y0197970D01*
X0086800Y0207970D02*
X0081650Y0207970D01*
X0081650Y0217970D02*
X0086800Y0217970D01*
X0011950Y0217970D02*
X0006800Y0217970D01*
X0006800Y0207970D02*
X0011950Y0207970D01*
X0011950Y0197970D02*
X0006800Y0197970D01*
X0006800Y0187970D02*
X0011950Y0187970D01*
X0011950Y0177970D02*
X0006800Y0177970D01*
X0006800Y0167970D02*
X0011950Y0167970D01*
X0011950Y0157970D02*
X0006800Y0157970D01*
X0006800Y0147970D02*
X0011950Y0147970D01*
X0011950Y0137970D02*
X0006800Y0137970D01*
X0006800Y0127970D02*
X0011950Y0127970D01*
X0011950Y0117970D02*
X0006800Y0117970D01*
X0006800Y0107970D02*
X0011950Y0107970D01*
X0011950Y0097970D02*
X0006800Y0097970D01*
X0006800Y0087970D02*
X0011950Y0087970D01*
X0011950Y0077970D02*
X0006800Y0077970D01*
M02*
