%
M48
M72
T01C0.02362
T02C0.03150
T03C0.03937
%
T01
X20900Y42770
X21300Y52370
X43800Y61070
X48800Y63170
X53900Y61770
X52000Y83970
X54800Y93970
X60300Y93970
X49300Y107970
X46300Y100470
X46800Y122970
X46800Y142970
X46800Y157970
X44800Y165470
X37700Y183470
X46800Y196970
X56300Y183970
X63800Y183970
X68300Y181970
X70800Y192470
X30100Y121670
X26800Y132970
X67800Y53470
X68700Y43270
X67200Y35170
T02
X86800Y77970
X86800Y87970
X86800Y97970
X86800Y107970
X86800Y117970
X86800Y127970
X86800Y137970
X86800Y147970
X86800Y157970
X86800Y167970
X86800Y177970
X86800Y187970
X86800Y197970
X86800Y207970
X86800Y217970
X6800Y217970
X6800Y207970
X6800Y197970
X6800Y187970
X6800Y177970
X6800Y167970
X6800Y157970
X6800Y147970
X6800Y137970
X6800Y127970
X6800Y117970
X6800Y107970
X6800Y97970
X6800Y87970
X6800Y77970
T03
X16800Y77970
X16800Y87970
X16800Y97970
X16800Y107970
X16800Y117970
X16800Y127970
X16800Y137970
X16800Y147970
X16800Y157970
X16800Y167970
X16800Y177970
X16800Y187970
X16800Y197970
X16800Y207970
X16800Y217970
X76800Y217970
X76800Y207970
X76800Y197970
X76800Y187970
X76800Y177970
X76800Y167970
X76800Y157970
X76800Y147970
X76800Y137970
X76800Y127970
X76800Y117970
X76800Y107970
X76800Y97970
X76800Y87970
X76800Y77970
M30
